<?xml version="1.0" encoding="UTF-8"?>
<svg xmlns="http://www.w3.org/2000/svg" xmlns:xlink="http://www.w3.org/1999/xlink" version="1.2" >
<font id="Lorano Black">
<font-face  font-family="Lorano" units-per-em="1000" ascent="875" descent="-179" font-style="normal" font-weight="900" font-stretch="normal" cap-height="875" x-height="875" underline-position="0" underline-thickness="0" />
<missing-glyph  horiz-adv-x="454" d="" />
<glyph glyph-name="B" unicode="B" horiz-adv-x="874" d="M819 640 Q819 574 786.5 521 Q754 468 701 437 Q754 407 786.5 353.5 Q819 300 819 234 Q819 186 800.5 143 Q782 100 750 68.5 Q718 37 675.5 18.5 Q633 0 584 0 L95 0 L95 875 L584 875 Q633 875 675.5 856.5 Q718 838 750 806 Q782 774 800.5 731.5 Q819 689 819 640 Z M596 254 Q596 272 589 287.5 Q582 303 570.5 314.5 Q559 326 543.5 333 Q528 340 510 340 L354 340 Q343 340 336 333 Q329 326 329 315 L329 195 Q329 184 336 177 Q343 170 354 170 L510 170 Q545 170 570.5 194.5 Q596 219 596 254 Z M510 537 Q528 537 543 543.5 Q558 550 569.5 561.5 Q581 573 587.5 588.5 Q594 604 594 621 Q594 656 569.5 680.5 Q545 705 510 705 L354 705 Q343 705 336 697.5 Q329 690 329 679 L329 562 Q329 551 336 544 Q343 537 354 537 L510 537 Z " />
<glyph glyph-name="C" unicode="C" horiz-adv-x="847" d="M489 641 Q447 641 409.5 625 Q372 609 344.5 581.5 Q317 554 300.5 517 Q284 480 284 438 Q284 396 300 359 Q316 322 343.5 294 Q371 266 408 250 Q445 234 487 234 Q528 234 565 249.5 Q602 265 631 294 L797 128 Q735 66 654.5 33 Q574 0 487 0 Q397 0 317 34.5 Q237 69 178 128.5 Q119 188 84.5 268 Q50 348 50 438 Q50 528 84.5 608 Q119 688 178 747 Q237 806 317 840.5 Q397 875 487 875 Q574 875 654.5 842 Q735 809 797 747 L631 581 Q603 610 566 625.5 Q529 641 489 641 Z " />
<glyph glyph-name="D" unicode="D" horiz-adv-x="961" d="M459 875 Q549 875 629 840.5 Q709 806 768 746.5 Q827 687 861.5 607 Q896 527 896 437 Q896 347 861.5 267 Q827 187 768 128 Q709 69 629 34.5 Q549 0 459 0 L95 0 L95 875 L459 875 Z M662 436 Q662 476 646.5 513 Q631 550 604.5 578.5 Q578 607 542 624 Q506 641 465 641 L354 641 Q343 641 336 633.5 Q329 626 329 615 L329 259 Q329 248 336 241 Q343 234 354 234 L465 234 Q505 234 541 251 Q577 268 604 296 Q631 324 646.5 360.5 Q662 397 662 436 Z " />
<glyph glyph-name="E" unicode="E" horiz-adv-x="848" d="M330 571 Q330 559 338 551 Q346 543 357 543 L783 543 L783 338 L357 338 Q346 338 338 330 Q330 322 330 311 L330 232 Q330 221 338 213 Q346 205 357 205 L783 205 L783 0 L95 0 L95 875 L783 874 L783 668 L357 668 Q346 668 338 659.5 Q330 651 330 640 L330 571 Z " />
<glyph glyph-name="F" unicode="F" horiz-adv-x="823" d="M330 571 Q330 559 338 551 Q346 543 357 543 L783 543 L783 338 L357 338 Q346 338 338 330 Q330 322 330 311 L330 0 L95 0 L95 875 L783 874 L783 669 L357 669 Q346 669 338 661 Q330 653 330 641 L330 571 Z " />
<glyph glyph-name="G" unicode="G" horiz-adv-x="1051" d="M497 513 L975 513 L975 0 L783 0 L783 126 Q763 96 731 72.5 Q699 49 661 33 Q623 17 580.5 8.5 Q538 0 497 0 Q407 0 327 34 Q247 68 188 127.5 Q129 187 94.5 266.5 Q60 346 60 437 Q60 527 94.5 607 Q129 687 188 746 Q247 805 327 839.5 Q407 874 497 874 Q588 874 667 840 Q746 806 806 746 L640 579 Q612 606 575.5 622 Q539 638 497 638 Q455 638 418.5 622 Q382 606 355 579 Q328 552 312 515.5 Q296 479 296 437 Q296 395 309 352.5 Q322 310 352 276.5 Q382 243 431 224 Q480 205 552 211 Q590 214 622 228 Q654 242 677 259 Q700 276 713 292.5 Q726 309 726 318 L497 318 L497 513 Z " />
<glyph glyph-name="H" unicode="H" horiz-adv-x="1014" d="M693 571 L693 875 L919 875 L919 0 L693 0 L693 310 Q693 321 685 329.5 Q677 338 666 338 L348 338 Q337 338 329 329.5 Q321 321 321 310 L321 0 L95 0 L95 875 L321 875 L321 571 Q321 560 329 551.5 Q337 543 348 543 L666 543 Q677 543 685 551.5 Q693 560 693 571 Z " />
<glyph glyph-name="I" unicode="I" horiz-adv-x="486" d="M130 0 L130 875 L356 875 L356 0 L130 0 Z " />
<glyph glyph-name="J" unicode="J" horiz-adv-x="728" d="M403 357 L403 874 L638 874 L638 353 Q638 280 610.5 215.5 Q583 151 535 103 Q487 55 422.5 27.5 Q358 0 285 0 Q211 0 147 27.5 Q83 55 35 103 L193 262 Q210 245 231.5 240 Q253 235 279 235 Q304 235 327 244.5 Q350 254 366.5 270.5 Q383 287 393 309.5 Q403 332 403 357 Z " />
<glyph glyph-name="K" unicode="K" horiz-adv-x="1031" d="M991 875 L605 438 L991 0 L714 0 L427 324 Q416 338 398 338 L348 338 Q337 338 329 329.5 Q321 321 321 310 L321 0 L95 0 L95 875 L321 875 L321 571 Q321 560 329 551.5 Q337 543 348 543 L403 543 Q421 543 433 557 L713 875 L991 875 Z " />
<glyph glyph-name="L" unicode="L" horiz-adv-x="818" d="M330 875 L330 248 Q330 228 341 216.5 Q352 205 372 205 L783 205 L783 0 L95 0 L95 875 L330 875 Z " />
<glyph glyph-name="M" unicode="M" horiz-adv-x="1163" d="M833 875 L1068 875 L1068 0 L833 0 L833 582 L581 330 L330 582 L330 0 L95 0 L95 875 L330 875 L561 643 Q569 635 581 635 Q593 635 601 643 L833 875 Z " />
<glyph glyph-name="N" unicode="N" horiz-adv-x="1069" d="M739 346 L739 875 L974 875 L974 0 L746 0 L331 536 L331 0 L95 0 L95 875 L324 875 L739 346 Z " />
<glyph glyph-name="O" unicode="O" horiz-adv-x="994" d="M497 233 Q539 233 576 249 Q613 265 641 292.5 Q669 320 685 357.5 Q701 395 701 437 Q701 479 685 516 Q669 553 641 580.5 Q613 608 576 624 Q539 640 497 640 Q455 640 418 624 Q381 608 353.5 580.5 Q326 553 310 516 Q294 479 294 437 Q294 395 310 357.5 Q326 320 353.5 292.5 Q381 265 418 249 Q455 233 497 233 Z M497 874 Q588 874 667.5 839.5 Q747 805 806 746 Q865 687 899.5 607 Q934 527 934 437 Q934 346 899.5 266.5 Q865 187 806 127.5 Q747 68 667.5 34 Q588 0 497 0 Q407 0 327 34 Q247 68 188 127.5 Q129 187 94.5 266.5 Q60 346 60 437 Q60 527 94.5 607 Q129 687 188 746 Q247 805 327 839.5 Q407 874 497 874 Z " />
<glyph glyph-name="P" unicode="P" horiz-adv-x="874" d="M507 523 Q525 523 540.5 529.5 Q556 536 568 547 Q580 558 587 573 Q594 588 594 606 Q594 642 570 666.5 Q546 691 511 691 L355 691 Q344 691 337 683.5 Q330 676 330 665 L330 551 Q330 540 338 531.5 Q346 523 357 523 L507 523 Z M540 875 Q596 875 646.5 854 Q697 833 735.5 797 Q774 761 796.5 712 Q819 663 819 606 Q819 550 798 501.5 Q777 453 740 416.5 Q703 380 654 359 Q605 338 550 338 L357 338 Q346 338 338 329.5 Q330 321 330 310 L330 0 L95 0 L95 875 L540 875 Z " />
<glyph glyph-name="Q" unicode="Q" horiz-adv-x="995" d="M481 873 Q574 877 657 844 Q740 811 801.5 751.5 Q863 692 899 611 Q935 530 935 437 Q935 363 917 309 Q899 255 872.5 216 Q846 177 816 150.5 Q786 124 761 105 Q744 92 739.5 74 Q735 56 749 42 L843 -52 L716 -178 L536 1 Q527 0 517.5 0 Q508 0 498 0 Q405 0 324 36 Q243 72 183.5 133.5 Q124 195 91 277.5 Q58 360 61 454 Q64 538 98.5 613 Q133 688 190 745 Q247 802 322 836 Q397 870 481 873 Z M498 234 Q540 234 576.5 250 Q613 266 640 293.5 Q667 321 682.5 358 Q698 395 698 437 Q698 478 682.5 514.5 Q667 551 640 578 Q613 605 576.5 620.5 Q540 636 498 636 Q456 636 419.5 620.5 Q383 605 355.5 578 Q328 551 312 514.5 Q296 478 296 437 Q296 395 312 358 Q328 321 355.5 293.5 Q383 266 419.5 250 Q456 234 498 234 Z " />
<glyph glyph-name="S" unicode="S" horiz-adv-x="903" d="M275 606 Q275 578 299.5 565.5 Q324 553 364 548 Q404 543 455 542.5 Q506 542 559.5 537.5 Q613 533 664 520.5 Q715 508 755 480 Q795 452 819.5 404.5 Q844 357 844 282 Q844 230 825.5 189 Q807 148 776 116.5 Q745 85 705 63 Q665 41 621 27 Q577 13 533 6.5 Q489 0 450 0 Q410 0 365.5 6 Q321 12 276.5 25.5 Q232 39 191 61 Q150 83 119 114.5 Q88 146 69.5 188 Q51 230 51 284 L257 284 Q257 260 274.5 244.5 Q292 229 320 220 Q348 211 381.5 208 Q415 205 448 205 Q533 205 573 225 Q613 245 613 287 Q613 312 589 321.5 Q565 331 525.5 334 Q486 337 436 337 Q386 337 333.5 341.5 Q281 346 231 359 Q181 372 141.5 402 Q102 432 78 482 Q54 532 54 610 Q54 688 92 739 Q130 790 189 820 Q248 850 320 861.5 Q392 873 460 873 Q519 873 584 857.5 Q649 842 703 807 Q757 772 792 716.5 Q827 661 827 582 L622 582 Q622 604 607.5 620 Q593 636 569 646.5 Q545 657 514 662.5 Q483 668 450 668 Q365 668 320 655 Q275 642 275 606 Z " />
<glyph glyph-name="T" unicode="T" horiz-adv-x="859" d="M30 687 L30 875 L829 875 L829 687 L581 687 Q565 687 553.5 676 Q542 665 542 648 L542 0 L317 0 L317 648 Q317 665 305.5 676 Q294 687 277 687 L30 687 Z " />
<glyph glyph-name="U" unicode="U" horiz-adv-x="886" d="M561 353 L561 874 L796 874 L796 353 Q796 280 768.5 215.5 Q741 151 693 103 Q645 55 580.5 27.5 Q516 0 443 0 Q370 0 305.5 27.5 Q241 55 193 103 Q145 151 117.5 215.5 Q90 280 90 353 L90 874 L325 874 L325 353 Q325 328 334.5 306.5 Q344 285 360 269 Q376 253 397.5 244 Q419 235 443 235 Q468 235 489.5 244 Q511 253 527 269 Q543 285 552 306.5 Q561 328 561 353 Z " />
<glyph glyph-name="V" unicode="V" horiz-adv-x="1079" d="M540 258 L817 875 L1049 875 L656 0 L423 0 L30 875 L263 875 L540 258 Z " />
<glyph glyph-name="W" unicode="W" horiz-adv-x="1459" d="M1021 353 L1197 875 L1429 875 L1138 0 L905 0 L730 527 L554 0 L322 0 L30 875 L263 875 L438 353 L613 875 L846 875 L1021 353 Z " />
<glyph glyph-name="X" unicode="X" horiz-adv-x="960" d="M677 874 L929 874 L635 462 Q627 451 627 436.5 Q627 422 635 411 L930 0 L677 0 L480 265 L283 0 L30 0 L325 411 Q333 422 333 436.5 Q333 451 325 462 L31 874 L303 874 L480 624 L677 874 Z " />
<glyph glyph-name="Y" unicode="Y" horiz-adv-x="1076" d="M425 410 Q425 426 415 436 L30 874 L294 874 L538 597 L782 874 L1046 874 L661 436 Q651 426 651 410 L651 0 L425 0 L425 410 Z " />
<glyph glyph-name="Z" unicode="Z" horiz-adv-x="939" d="M879 875 L879 691 L374 183 L839 183 L839 0 L52 0 L52 183 L555 691 L52 691 L52 875 L879 875 Z " />
<glyph glyph-name="a" unicode="a" horiz-adv-x="977" d="M749 875 L917 0 L683 0 L639 219 Q635 236 622 247.5 Q609 259 592 259 L397 259 Q380 259 366 248 Q352 237 349 220 L303 0 L60 0 L230 875 L749 875 Z M394 471 L595 471 L552 691 L438 691 L394 471 Z " />
<glyph glyph-name="q" unicode="q" horiz-adv-x="994" d="M934 436 Q934 359 911 294.5 Q888 230 851 179 Q814 128 767.5 92 Q721 56 674 36 L774 -63 L647 -179 L527 -60 Q519 -51 511 -48 Q503 -45 498 -45 Q492 -45 483.5 -47.5 Q475 -50 467 -59 L347 -179 L231 -62 L326 33 Q277 54 229.5 90.5 Q182 127 144.5 178 Q107 229 83.5 294 Q60 359 60 436 Q60 526 94.5 606 Q129 686 188 745 Q247 804 327 838.5 Q407 873 497 873 Q588 873 667.5 838.5 Q747 804 806 745 Q865 686 899.5 606 Q934 526 934 436 Z M497 233 Q539 233 576 249 Q613 265 640.5 292.5 Q668 320 684 357 Q700 394 700 436 Q700 478 684 514.5 Q668 551 640.5 578.5 Q613 606 576 622 Q539 638 497 638 Q455 638 418 622 Q381 606 354 578.5 Q327 551 311 514.5 Q295 478 295 436 Q295 394 311 357 Q327 320 354 292.5 Q381 265 418 249 Q455 233 497 233 Z " />
<glyph glyph-name="zero" unicode="0" horiz-adv-x="855" d="M427 885 Q501 885 566.5 856.5 Q632 828 680.5 779.5 Q729 731 757 665.5 Q785 600 785 526 L785 349 Q785 275 757 209.5 Q729 144 680.5 95 Q632 46 566.5 18 Q501 -10 427 -10 Q353 -10 288 18 Q223 46 174.5 95 Q126 144 98 209.5 Q70 275 70 349 L70 526 Q70 600 98 665.5 Q126 731 174.5 779.5 Q223 828 288 856.5 Q353 885 427 885 Z M582 349 L582 526 Q582 557 569.5 585 Q557 613 536 634 Q515 655 487 667.5 Q459 680 427 680 Q395 680 366.5 667.5 Q338 655 317 634 Q296 613 283.5 585 Q271 557 271 526 L271 349 Q271 317 283.5 289 Q296 261 317 240 Q338 219 366.5 207 Q395 195 427 195 Q459 195 487 207 Q515 219 536 240 Q557 261 569.5 289 Q582 317 582 349 Z " />
<glyph glyph-name="one" unicode="1" horiz-adv-x="708" d="M329 0 L329 522 L197 372 L40 534 L382 874 L558 874 L558 0 L329 0 Z " />
<glyph glyph-name="two" unicode="2" horiz-adv-x="823" d="M768 601 Q768 539 747.5 492.5 Q727 446 694.5 408.5 Q662 371 621 341 Q580 311 539 282 L403 198 L768 198 L768 0 L55 0 L55 205 L425 443 Q435 450 456.5 465.5 Q478 481 499.5 501.5 Q521 522 537 546 Q553 570 553 595 Q553 605 548 623.5 Q543 642 528 660 Q513 678 485.5 691.5 Q458 705 412 705 Q382 705 353.5 697.5 Q325 690 303 672 Q281 654 267.5 624.5 Q254 595 254 552 L55 552 Q55 646 85 711.5 Q115 777 164.5 817.5 Q214 858 278.5 876 Q343 894 412 894 Q480 894 544 879.5 Q608 865 658 831 Q708 797 738 740.5 Q768 684 768 601 Z " />
<glyph glyph-name="three" unicode="3" horiz-adv-x="837" d="M777 610 Q777 579 766.5 551 Q756 523 737 499.5 Q718 476 691.5 459.5 Q665 443 633 434 Q665 426 691.5 409.5 Q718 393 737 370.5 Q756 348 766.5 321 Q777 294 777 265 Q777 216 766 175 Q751 116 716 79.5 Q681 43 634 23 Q587 3 532 -3.5 Q477 -10 420 -10 Q361 -10 298 2 Q235 14 183 47 Q131 80 98 137.5 Q65 195 65 286 L260 286 Q260 247 277 224.5 Q294 202 319 190 Q344 178 371 175 Q398 172 418 172 Q463 172 492 179.5 Q521 187 537.5 200 Q554 213 560 230 Q566 247 566 266 Q566 289 555.5 303.5 Q545 318 527 325.5 Q509 333 485.5 335.5 Q462 338 437 338 L335 338 L335 533 L437 533 Q460 533 483 537 Q506 541 524.5 551 Q543 561 554.5 576.5 Q566 592 566 615 Q566 634 559.5 650.5 Q553 667 536.5 679 Q520 691 491.5 698 Q463 705 419 705 Q339 705 306 676 Q273 647 273 599 L65 599 Q65 690 99.5 746 Q134 802 186.5 833 Q239 864 301.5 874.5 Q364 885 420 885 Q449 885 487 881.5 Q525 878 564.5 867.5 Q604 857 642.5 838.5 Q681 820 710.5 789.5 Q740 759 758.5 715 Q777 671 777 610 Z " />
<glyph glyph-name="four" unicode="4" horiz-adv-x="844" d="M684 875 L684 378 L809 378 L809 191 L684 191 L684 0 L459 0 L459 191 L10 191 L10 338 L465 875 L684 875 Z M459 378 L459 626 L253 378 L459 378 Z " />
<glyph glyph-name="five" unicode="5" horiz-adv-x="766" d="M281 553 Q303 577 337.5 593 Q372 609 416 609 Q504 609 566.5 587.5 Q629 566 669 527 Q709 488 727.5 434 Q746 380 746 315 Q746 236 721 175.5 Q696 115 650.5 73.5 Q605 32 541 11 Q477 -10 398 -10 Q326 -10 264 10 Q202 30 156 65 Q110 100 82 149 Q54 198 50 255 L239 279 Q240 257 252 236.5 Q264 216 285 200.5 Q306 185 335 176 Q364 167 398 167 Q470 167 512.5 205.5 Q555 244 555 314 Q555 375 516 415 Q477 455 402 455 Q339 455 293.5 431.5 Q248 408 239 358 L50 393 L135 874 L676 874 L676 705 L354 705 Q337 705 325 693.5 Q313 682 308 665 L281 553 Z " />
<glyph glyph-name="six" unicode="6" horiz-adv-x="826" d="M425 -10 Q348 -10 282.5 10 Q217 30 170 68.5 Q123 107 96.5 163.5 Q70 220 70 293 L70 487 Q70 572 90 644.5 Q110 717 153 770 Q196 823 263 853.5 Q330 884 425 884 Q496 884 556.5 866.5 Q617 849 661.5 817 Q706 785 731 739.5 Q756 694 756 639 L552 639 Q552 669 518.5 691.5 Q485 714 419 714 Q377 714 348.5 694.5 Q320 675 303.5 645 Q287 615 280 579 Q273 543 273 509 L273 467 Q281 478 297 489.5 Q313 501 335 511 Q357 521 384.5 527 Q412 533 443 533 Q605 533 685.5 464.5 Q766 396 766 275 Q766 213 743.5 161 Q721 109 677.5 71 Q634 33 570.5 11.5 Q507 -10 425 -10 Z M421 373 Q362 373 323 348.5 Q284 324 284 277 Q284 255 292 235 Q300 215 317 200 Q334 185 359.5 176 Q385 167 421 167 Q483 167 517.5 196 Q552 225 552 273 Q552 319 518 346 Q484 373 421 373 Z " />
<glyph glyph-name="seven" unicode="7" horiz-adv-x="724" d="M704 874 L704 705 L328 0 L91 0 L436 666 L25 666 L25 874 L704 874 Z " />
<glyph glyph-name="eight" unicode="8" horiz-adv-x="842" d="M602 445 Q685 422 733.5 371.5 Q782 321 782 235 Q782 172 749.5 128 Q717 84 665 55.5 Q613 27 549 14 Q485 1 421 1 Q357 1 292.5 14 Q228 27 176.5 55.5 Q125 84 92.5 128.5 Q60 173 60 235 Q60 321 108.5 371.5 Q157 422 240 445 Q157 470 108.5 522 Q60 574 60 660 Q60 721 93 764.5 Q126 808 178 835 Q230 862 294 874.5 Q358 887 421 887 Q484 887 548 874.5 Q612 862 664 835 Q716 808 749 764.5 Q782 721 782 660 Q782 574 733.5 522 Q685 470 602 445 Z M291 635 Q291 611 303.5 595.5 Q316 580 335.5 570.5 Q355 561 378 557 Q401 553 421 553 Q441 553 464 557 Q487 561 506.5 570.5 Q526 580 539 595.5 Q552 611 552 635 Q552 656 539.5 670 Q527 684 508 693 Q489 702 465.5 705.5 Q442 709 421 709 Q400 709 377 705.5 Q354 702 335 693 Q316 684 303.5 670 Q291 656 291 635 Z M421 334 Q401 334 378 330.5 Q355 327 335.5 318 Q316 309 302.5 293.5 Q289 278 289 255 Q289 234 301.5 219 Q314 204 333.5 194.5 Q353 185 376 180.5 Q399 176 421 176 Q443 176 466 180.5 Q489 185 508.5 194.5 Q528 204 540.5 219 Q553 234 553 255 Q553 278 539.5 293.5 Q526 309 506.5 318 Q487 327 463.5 330.5 Q440 334 421 334 Z " />
<glyph glyph-name="nine" unicode="9" horiz-adv-x="826" d="M411 884 Q488 884 553 864 Q618 844 665.5 805.5 Q713 767 739.5 710.5 Q766 654 766 581 L766 387 Q766 302 746 229.5 Q726 157 683 103.5 Q640 50 572.5 20 Q505 -10 411 -10 Q340 -10 279 7.5 Q218 25 174 57 Q130 89 105 134 Q80 179 80 235 L284 235 Q284 205 317.5 182.5 Q351 160 417 160 Q459 160 487.5 179.5 Q516 199 532.5 229 Q549 259 556 295 Q563 331 563 365 L563 407 Q555 396 539 384.5 Q523 373 501 363 Q479 353 451.5 347 Q424 341 393 341 Q231 341 150.5 409.5 Q70 478 70 599 Q70 661 92.5 713 Q115 765 158.5 803 Q202 841 265.5 862.5 Q329 884 411 884 Z M415 501 Q474 501 513 525.5 Q552 550 552 597 Q552 619 544 639 Q536 659 519 674 Q502 689 476.5 698 Q451 707 415 707 Q353 707 318.5 678 Q284 649 284 601 Q284 555 318 528 Q352 501 415 501 Z " />
<glyph glyph-name="ampersand" unicode="&#x26;" horiz-adv-x="911" d="M364 145 Q398 145 427 154.5 Q456 164 478 186 Q464 202 447 222 Q430 242 412 263 Q394 284 377 303.5 Q360 323 346 338 Q329 334 311.5 324.5 Q294 315 279.5 301.5 Q265 288 256 271.5 Q247 255 247 236 Q247 197 277.5 171 Q308 145 364 145 Z M357 639 Q357 610 374 588 Q391 566 409 546 Q423 553 441 562.5 Q459 572 474.5 584.5 Q490 597 500.5 612.5 Q511 628 511 648 Q511 674 489 692 Q467 710 436 710 Q406 710 381.5 690.5 Q357 671 357 639 Z M891 0 L666 0 L610 53 Q602 45 582.5 32.5 Q563 20 531 9 Q499 -2 453.5 -10 Q408 -18 347 -18 Q294 -18 241 -1 Q188 16 145.5 46.5 Q103 77 76.5 120 Q50 163 50 215 Q50 269 64.5 309.5 Q79 350 104.5 379.5 Q130 409 164 429.5 Q198 450 236 466 Q213 490 196.5 510.5 Q180 531 169.5 553 Q159 575 154.5 601.5 Q150 628 151 663 Q152 713 176 754.5 Q200 796 239 826 Q278 856 329.5 872.5 Q381 889 439 889 Q508 889 559.5 868.5 Q611 848 645 816 Q679 784 696 745 Q713 706 713 669 Q713 616 696 576.5 Q679 537 650.5 506.5 Q622 476 585.5 453 Q549 430 510 411 L603 303 Q610 306 620 321.5 Q630 337 640.5 358.5 Q651 380 659.5 402.5 Q668 425 672 442 L860 440 Q860 406 848.5 367.5 Q837 329 819 293 Q801 257 778 225.5 Q755 194 731 174 L891 0 Z " />
<glyph glyph-name="germandbls" unicode="&#xdf;" horiz-adv-x="980" d="M726 580 Q718 572 715.5 560 Q713 548 716 537 Q719 526 728 518 Q737 510 752 510 Q755 510 772 508.5 Q789 507 812 499.5 Q835 492 861 477.5 Q887 463 909 437 Q931 411 945.5 371.5 Q960 332 960 275 Q960 218 938.5 168 Q917 118 880 80.5 Q843 43 793 21.5 Q743 0 685 0 L468 0 L469 205 L617 205 Q622 205 636.5 206 Q651 207 666 213.5 Q681 220 692.5 234 Q704 248 704 274 Q704 298 692 311 Q680 324 665 330 Q650 336 635.5 337 Q621 338 617 338 L469 338 L468 543 L588 687 L359 687 Q342 687 331 676 Q320 665 320 648 L320 0 L90 0 L90 875 L864 875 L864 738 L726 580 Z " />
<glyph glyph-name="parenleft" unicode="&#x28;" horiz-adv-x="585" d="M533 958 Q472 898 426 840.5 Q380 783 349.5 721.5 Q319 660 303.5 590.5 Q288 521 288 437 Q288 353 303 283.5 Q318 214 349 152.5 Q380 91 425.5 34 Q471 -23 533 -83 L395 -222 Q319 -147 262 -73 Q205 1 167.5 80 Q130 159 111 247 Q92 335 92 438 Q92 540 110.5 627 Q129 714 167 793.5 Q205 873 261.5 947.5 Q318 1022 395 1099 L533 958 Z " />
<glyph glyph-name="braceleft" unicode="&#x7b;" horiz-adv-x="664" d="M565 922 Q529 922 497 909 Q465 896 440.5 873.5 Q416 851 401.5 819.5 Q387 788 387 752 L387 642 Q387 577 355 524 Q323 471 270 440 Q323 409 355.5 356 Q388 303 388 238 L388 128 Q388 92 402.5 60.5 Q417 29 441.5 6.5 Q466 -16 498 -29 Q530 -42 566 -42 L614 -42 L614 -226 L505 -226 Q441 -226 384 -201.5 Q327 -177 284.5 -135 Q242 -93 217.5 -36.5 Q193 20 193 85 L193 158 Q193 194 178.5 225.5 Q164 257 139.5 279.5 Q115 302 83 315 Q51 328 15 328 L1 328 L1 552 L15 552 Q51 552 83 565 Q115 578 139.5 600.5 Q164 623 178.5 654 Q193 685 193 721 L193 734 Q193 810 222.5 878 Q252 946 302.5 996 Q353 1046 421 1075.5 Q489 1105 566 1105 L614 1105 L614 922 L565 922 Z " />
<glyph glyph-name="bracketleft" unicode="&#x5b;" horiz-adv-x="447" d="M397 919 L186 919 L186 -43 L397 -43 L397 -229 L0 -229 L0 1105 L397 1105 L397 919 Z " />
<glyph glyph-name="bar" unicode="&#x7c;" horiz-adv-x="486" d="M356 -109 L130 -109 L130 984 L356 984 L356 -109 Z " />
<glyph glyph-name="ogonek" unicode="&#x2db;" horiz-adv-x="394" d="M394 -202 Q352 -244 308 -265.5 Q264 -287 219 -287 Q174 -287 134 -269.5 Q94 -252 64.5 -222 Q35 -192 17.5 -151.5 Q0 -111 0 -66 Q0 -21 17.5 19 Q35 59 65.5 88 Q96 117 139 134 Q182 151 233 151 L233 0 Q198 0 173 -19 Q148 -38 148 -65 Q148 -92 167 -111 Q186 -130 213 -130 Q227 -130 242.5 -121.5 Q258 -113 273 -98 L394 -202 Z " />
<glyph glyph-name="cedilla" unicode="&#xb8;" horiz-adv-x="327" d="M279 1 Q303 -23 314.5 -53.5 Q326 -84 326 -115.5 Q326 -147 314 -177.5 Q302 -208 278 -232 Q254 -256 224.5 -267.5 Q195 -279 163.5 -279 Q132 -279 102 -267.5 Q72 -256 48 -232 Q24 -207 12 -177.5 Q0 -148 0 -116 L109 -116 Q109 -138 126 -155 Q143 -172 166 -172 Q189 -172 206 -155 Q223 -138 223 -115 Q223 -92 206 -75 L112 19 L187 93 L279 1 Z " />
<glyph glyph-name="period" unicode="&#x2e;" horiz-adv-x="388" d="M194 -18 Q171 -18 151.5 -9.5 Q132 -1 117 14 Q102 29 93.5 48.5 Q85 68 85 91 Q85 113 93.5 133 Q102 153 117 168 Q132 183 151.5 191.5 Q171 200 194 200 Q216 200 236 191.5 Q256 183 271 168 Q286 153 294.5 133 Q303 113 303 91 Q303 68 294.5 48.5 Q286 29 271 14 Q256 -1 236 -9.5 Q216 -18 194 -18 Z " />
<glyph glyph-name="comma" unicode="&#x2c;" horiz-adv-x="341" d="M60 98 L251 98 L229 -183 L60 -183 L60 98 Z " />
<glyph glyph-name="macron" unicode="&#xaf;" horiz-adv-x="347" d="M0 1016 L0 1202 L507 1202 L507 1016 L0 1016 Z " />
<glyph glyph-name="circumflex" unicode="&#x2c6;" horiz-adv-x="612" d="M485 948 L333 1100 Q322 1111 305.5 1111 Q289 1111 278 1100 L126 948 L20 1054 L306 1340 L592 1054 L486 948 L485 948 Z " />
<glyph glyph-name="breve" unicode="&#x2d8;" horiz-adv-x="476" d="M237 1160 Q266 1160 287.5 1181.5 Q309 1203 309 1232 L476 1232 Q476 1183 457 1139.5 Q438 1096 406 1064 Q374 1032 330.5 1013 Q287 994 238 994 Q189 994 145.5 1013 Q102 1032 70 1064 Q38 1096 19 1139.5 Q0 1183 0 1232 L167 1232 Q167 1203 187.5 1182 Q208 1161 237 1160 Z " />
<glyph glyph-name="dieresis" unicode="&#xa8;" horiz-adv-x="626" d="M626 1116 Q626 1092 616.5 1070.5 Q607 1049 591 1033.5 Q575 1018 553.5 1008.5 Q532 999 508 999 Q484 999 462.5 1008.5 Q441 1018 425.5 1033.5 Q410 1049 400.5 1070.5 Q391 1092 391 1116 Q391 1140 400.5 1161.5 Q410 1183 425.5 1199 Q441 1215 462.5 1224.5 Q484 1234 508 1234 Q532 1234 553.5 1224.5 Q575 1215 591 1199 Q607 1183 616.5 1161.5 Q626 1140 626 1116 Z M235 1116 Q235 1092 225.5 1070.5 Q216 1049 200 1033.5 Q184 1018 162.5 1008.5 Q141 999 117 999 Q93 999 71.5 1008.5 Q50 1018 34.5 1033.5 Q19 1049 9.5 1070.5 Q0 1092 0 1116 Q0 1140 9.5 1161.5 Q19 1183 34.5 1199 Q50 1215 71.5 1224.5 Q93 1234 117 1234 Q141 1234 162.5 1224.5 Q184 1215 200 1199 Q216 1183 225.5 1161.5 Q235 1140 235 1116 Z " />
<glyph glyph-name="ring" unicode="&#x2da;" horiz-adv-x="346" d="M173 1082 Q198 1082 216 1100.5 Q234 1119 234 1144 Q234 1169 216 1187 Q198 1205 173 1205 Q148 1205 129.5 1187 Q111 1169 111 1144 Q111 1119 129.5 1100.5 Q148 1082 173 1082 Z M173 1317 Q209 1317 240.5 1303.5 Q272 1290 295.5 1266.5 Q319 1243 332.5 1211.5 Q346 1180 346 1144 Q346 1108 332.5 1076.5 Q319 1045 295.5 1021.5 Q272 998 240.5 984.5 Q209 971 173 971 Q137 971 105.5 984.5 Q74 998 50.5 1021.5 Q27 1045 13.5 1076.5 Q0 1108 0 1144 Q0 1180 13.5 1211.5 Q27 1243 50.5 1266.5 Q74 1290 105.5 1303.5 Q137 1317 173 1317 Z " />
<glyph glyph-name="acute" unicode="&#xb4;" horiz-adv-x="387" d="M257 1006 L80 1006 L292 1397 L467 1282 L257 1006 Z " />
<glyph glyph-name="tilde" unicode="&#x2dc;" horiz-adv-x="497" d="M0 1199 Q31 1231 62 1241 Q93 1251 124 1247 Q155 1243 186 1228.5 Q217 1214 248.5 1198 Q280 1182 311 1167.5 Q342 1153 373 1149 Q404 1145 435 1155 Q466 1165 497 1197 L497 1005 Q466 973 435 963 Q404 953 373 957 Q342 961 311 975.5 Q280 990 248.5 1006 Q217 1022 186 1036.5 Q155 1051 124 1055 Q93 1059 62 1049 Q31 1039 0 1007 L0 1199 Z " />
<glyph glyph-name="dotaccent" unicode="&#x2d9;" horiz-adv-x="235" d="M235 1086 Q235 1062 225.5 1040.5 Q216 1019 200 1003.5 Q184 988 162.5 978.5 Q141 969 117 969 Q93 969 71.5 978.5 Q50 988 34.5 1003.5 Q19 1019 9.5 1040.5 Q0 1062 0 1086 Q0 1110 9.5 1131.5 Q19 1153 34.5 1169 Q50 1185 71.5 1194.5 Q93 1204 117 1204 Q141 1204 162.5 1194.5 Q184 1185 200 1169 Q216 1153 225.5 1131.5 Q235 1110 235 1086 Z " />
<glyph glyph-name="bracketright" unicode="&#x5d;" horiz-adv-x="833" d="M0 1105 L397 1105 L397 -229 L0 -229 L0 -43 L211 -43 L211 919 L0 919 L0 1105 Z " />
<glyph glyph-name="parenright" unicode="&#x29;" horiz-adv-x="585" d="M190 1099 Q266 1022 323 947.5 Q380 873 418 793.5 Q456 714 474.5 627 Q493 540 493 438 Q493 335 474 247 Q455 159 417.5 80 Q380 1 323 -73 Q266 -147 190 -222 L52 -83 Q113 -23 159 34 Q205 91 236 152.5 Q267 214 282 283.5 Q297 353 297 437 Q297 521 281.5 590.5 Q266 660 235.5 721.5 Q205 783 159 840.5 Q113 898 52 958 L190 1099 Z " />
<glyph glyph-name="grave" unicode="&#x60;" horiz-adv-x="430" d="M-80 1294 L120 1426 L350 1006 L139 1006 L-80 1294 Z " />
<glyph glyph-name="slash" unicode="&#x2f;" horiz-adv-x="578" d="M-30 -149 L426 1104 L608 1030 L152 -223 L-30 -149 Z " />
<glyph glyph-name="Adieresis" unicode="&#xc4;" horiz-adv-x="1078" d="M1048 0 L816 0 L739 172 Q734 185 722 192.5 Q710 200 696 200 L382 200 Q368 200 356 192.5 Q344 185 339 172 L262 0 L30 0 L423 875 L655 875 L1048 0 Z M444 404 L634 404 L539 617 L444 404 Z M852 1116 Q852 1092 842.5 1070.5 Q833 1049 817 1033.5 Q801 1018 779.5 1008.5 Q758 999 734 999 Q710 999 688.5 1008.5 Q667 1018 651.5 1033.5 Q636 1049 626.5 1070.5 Q617 1092 617 1116 Q617 1140 626.5 1161.5 Q636 1183 651.5 1199 Q667 1215 688.5 1224.5 Q710 1234 734 1234 Q758 1234 779.5 1224.5 Q801 1215 817 1199 Q833 1183 842.5 1161.5 Q852 1140 852 1116 Z M461 1116 Q461 1092 451.5 1070.5 Q442 1049 426 1033.5 Q410 1018 388.5 1008.5 Q367 999 343 999 Q319 999 297.5 1008.5 Q276 1018 260.5 1033.5 Q245 1049 235.5 1070.5 Q226 1092 226 1116 Q226 1140 235.5 1161.5 Q245 1183 260.5 1199 Q276 1215 297.5 1224.5 Q319 1234 343 1234 Q367 1234 388.5 1224.5 Q410 1215 426 1199 Q442 1183 451.5 1161.5 Q461 1140 461 1116 Z " />
<glyph glyph-name="Aring" unicode="&#xc5;" horiz-adv-x="1078" d="M1048 0 L816 0 L739 172 Q734 185 722 192.5 Q710 200 696 200 L382 200 Q368 200 356 192.5 Q344 185 339 172 L262 0 L30 0 L423 875 L655 875 L1048 0 Z M444 404 L634 404 L539 617 L444 404 Z M539 1082 Q564 1082 582 1100.5 Q600 1119 600 1144 Q600 1169 582 1187 Q564 1205 539 1205 Q514 1205 495.5 1187 Q477 1169 477 1144 Q477 1119 495.5 1100.5 Q514 1082 539 1082 Z M539 1317 Q575 1317 606.5 1303.5 Q638 1290 661.5 1266.5 Q685 1243 698.5 1211.5 Q712 1180 712 1144 Q712 1108 698.5 1076.5 Q685 1045 661.5 1021.5 Q638 998 606.5 984.5 Q575 971 539 971 Q503 971 471.5 984.5 Q440 998 416.5 1021.5 Q393 1045 379.5 1076.5 Q366 1108 366 1144 Q366 1180 379.5 1211.5 Q393 1243 416.5 1266.5 Q440 1290 471.5 1303.5 Q503 1317 539 1317 Z " />
<glyph glyph-name="ae" unicode="&#xe6;" horiz-adv-x="1215" d="M748 232 Q748 221 756 213 Q764 205 775 205 L1150 205 L1150 0 L522 0 L522 314 Q520 325 513 331.5 Q506 338 495 338 L360 338 Q343 338 329.5 327 Q316 316 312 299 L253 0 L30 0 L200 875 L522 875 L1150 874 L1150 668 L775 668 Q764 668 756 660 Q748 652 748 640 L748 571 Q748 559 756 551 Q764 543 775 543 L1150 543 L1150 338 L748 338 L748 232 Z M522 543 L522 644 Q520 655 513 661.5 Q506 668 495 668 L384 668 L359 543 L522 543 Z " />
<glyph glyph-name="AE" unicode="&#xc6;" horiz-adv-x="1306" d="M1241 874 L1241 668 L816 668 Q805 668 797 659.5 Q789 651 789 640 L789 571 Q789 559 797 551 Q805 543 816 543 L1241 543 L1241 338 L816 338 Q805 338 797 330 Q789 322 789 311 L789 232 Q789 221 797 213 Q805 205 816 205 L1241 205 L1241 0 L563 0 L563 199 L382 199 Q368 199 356 191.5 Q344 184 339 171 L262 0 L30 0 L423 875 L806 875 L1241 874 Z M563 370 L563 668 L430 370 L563 370 Z " />
<glyph glyph-name="paragraph" unicode="&#xb6;" horiz-adv-x="1300" d="M954 809 L872 809 Q863 809 857 800 Q851 791 851 783 L851 0 L625 0 L625 310 Q625 321 617.5 329.5 Q610 338 598 338 L309 338 Q253 338 204.5 359 Q156 380 119 416.5 Q82 453 61 501.5 Q40 550 40 606 Q40 663 62.5 712 Q85 761 123.5 797 Q162 833 212.5 854 Q263 875 319 875 L1205 875 L1205 0 L979 0 L979 783 Q979 794 972 801.5 Q965 809 954 809 Z M276 605 Q276 579 295 561.5 Q314 544 340 544 L598 543 Q609 543 617 551.5 Q625 560 625 571 L625 645 Q625 654 617 661 Q609 668 600 668 L337 668 Q311 668 293.5 649.5 Q276 631 276 605 Z " />
<glyph glyph-name="Agrave" unicode="&#xc0;" horiz-adv-x="1078" d="M1048 0 L816 0 L739 172 Q734 185 722 192.5 Q710 200 696 200 L382 200 Q368 200 356 192.5 Q344 185 339 172 L262 0 L30 0 L423 875 L655 875 L1048 0 Z M444 404 L634 404 L539 617 L444 404 Z M184 1294 L384 1426 L614 1006 L403 1006 L184 1294 Z " />
<glyph glyph-name="Atilde" unicode="&#xc3;" horiz-adv-x="1078" d="M1048 0 L816 0 L739 172 Q734 185 722 192.5 Q710 200 696 200 L382 200 Q368 200 356 192.5 Q344 185 339 172 L262 0 L30 0 L423 875 L655 875 L1048 0 Z M291 1199 Q322 1231 353 1241 Q384 1251 415 1247 Q446 1243 477 1228.5 Q508 1214 539.5 1198 Q571 1182 602 1167.5 Q633 1153 664 1149 Q695 1145 726 1155 Q757 1165 788 1197 L788 1005 Q757 973 726 963 Q695 953 664 957 Q633 961 602 975.5 Q571 990 539.5 1006 Q508 1022 477 1036.5 Q446 1051 415 1055 Q384 1059 353 1049 Q322 1039 291 1007 L291 1199 Z M444 404 L634 404 L539 617 L444 404 Z " />
<glyph glyph-name="OE" unicode="&#x152;" horiz-adv-x="1330" d="M1265 874 L1265 668 L750 668 Q739 668 731 659.5 Q723 651 723 640 L723 571 Q723 559 731 551 Q739 543 750 543 L1265 543 L1265 338 L750 338 Q739 338 731 330 Q723 322 723 311 L723 232 Q723 221 731 213 Q739 205 750 205 L1265 205 L1265 0 L497 0 Q407 0 327 34 Q247 68 188 127.5 Q129 187 94.5 266.5 Q60 346 60 437 Q60 527 94.5 607 Q129 687 188 746.5 Q247 806 327 840.5 Q407 875 497 875 L1265 874 Z M497 672 Q448 672 405.5 653.5 Q363 635 331 603 Q299 571 280.5 528 Q262 485 262 437 Q262 388 280.5 345 Q299 302 331 270 Q363 238 405.5 219.5 Q448 201 497 201 L497 672 Z " />
<glyph glyph-name="hyphen" unicode="&#x2d;" horiz-adv-x="513" d="M20 338 L20 543 L493 543 L493 338 L20 338 Z " />
<glyph glyph-name="sterling" unicode="&#xa3;" horiz-adv-x="836" d="M668 314 L461 314 Q444 314 433.5 303 Q423 292 423 275 L423 248 Q423 228 434 216.5 Q445 205 465 205 L771 205 L771 0 L188 0 L188 275 Q188 292 177.5 303 Q167 314 150 314 L45 314 L45 530 L188 530 Q188 603 215.5 667.5 Q243 732 291 780 Q339 828 403.5 856 Q468 884 541 884 Q612 884 676.5 857.5 Q741 831 791 781 L657 640 Q617 682 559 682 Q531 682 505.5 671 Q480 660 461.5 641 Q443 622 432 596.5 Q421 571 422 543 Q422 540 422.5 536.5 Q423 533 423 530 L668 530 L668 314 Z " />
<glyph glyph-name="plus" unicode="&#x2b;" horiz-adv-x="483" d="M148 344 L20 344 L20 530 L148 530 L148 658 L334 658 L334 530 L463 530 L463 344 L334 344 L334 215 L148 215 L148 344 Z " />
<glyph glyph-name="multiply" unicode="&#xd7;" horiz-adv-x="484" d="M62 569 L109 616 L242 483 L375 617 L422 570 L288 436 L422 303 L375 256 L242 390 L109 257 L62 304 L195 436 L62 569 Z " />
<glyph glyph-name="question" unicode="&#x3f;" horiz-adv-x="724" d="M694 772 Q694 713 684 671 Q674 629 654 595 Q634 561 602.5 532.5 Q571 504 529 474 Q505 457 491 445.5 Q477 434 469.5 417 Q462 400 460 373 Q458 346 458 298 L256 298 Q256 349 257 390.5 Q258 432 269.5 469.5 Q281 507 307 544.5 Q333 582 383 627 Q394 636 407.5 647.5 Q421 659 432.5 674 Q444 689 452 708.5 Q460 728 460 752 Q460 775 451 789.5 Q442 804 427 812 Q412 820 393 823 Q374 826 355 826 Q335 826 316 820.5 Q297 815 282.5 803.5 Q268 792 259 775.5 Q250 759 250 737 Q191 737 132.5 736.5 Q74 736 15 736 Q15 808 43 863.5 Q71 919 118 957 Q165 995 226.5 1015 Q288 1035 355 1035 Q420 1035 481 1022 Q542 1009 589.5 978.5 Q637 948 665.5 897.5 Q694 847 694 772 Z M362 -18 Q339 -18 319.5 -9.5 Q300 -1 285 14 Q270 29 261.5 48.5 Q253 68 253 91 Q253 113 261.5 133 Q270 153 285 168 Q300 183 319.5 191.5 Q339 200 362 200 Q384 200 404 191.5 Q424 183 439 168 Q454 153 462.5 133 Q471 113 471 91 Q471 68 462.5 48.5 Q454 29 439 14 Q424 -1 404 -9.5 Q384 -18 362 -18 Z " />
<glyph glyph-name="exclam" unicode="&#x21;" horiz-adv-x="282" d="M28 1035 L253 1035 L253 298 L28 298 L28 1035 Z M141 -18 Q118 -18 98.5 -9.5 Q79 -1 64 14 Q49 29 40.5 48.5 Q32 68 32 91 Q32 113 40.5 133 Q49 153 64 168 Q79 183 98.5 191.5 Q118 200 141 200 Q163 200 183 191.5 Q203 183 218 168 Q233 153 241.5 133 Q250 113 250 91 Q250 68 241.5 48.5 Q233 29 218 14 Q203 -1 183 -9.5 Q163 -18 141 -18 Z " />
<glyph glyph-name="equal" unicode="&#x3d;" horiz-adv-x="513" d="M20 508 L20 713 L493 713 L493 508 L20 508 Z M20 168 L20 373 L493 373 L493 168 L20 168 Z " />
<glyph glyph-name="Lslash" unicode="&#x141;" horiz-adv-x="818" d="M30 338 L30 543 L95 543 L95 875 L330 875 L330 543 L503 543 L503 338 L330 338 L330 248 Q330 228 341 216.5 Q352 205 372 205 L783 205 L783 0 L95 0 L95 338 L30 338 Z " />
<glyph glyph-name="Euro" unicode="&#x20ac;" horiz-adv-x="665" d="M362 885 Q433 885 495 858.5 Q557 832 604 785 L487 665 Q467 683 442 693.5 Q417 704 388 704 Q337 704 299 676.5 Q261 649 252 600 L502 600 L502 464 L272 464 Q256 464 253.5 455.5 Q251 447 251 442 L251 410 L502 410 L502 274 L252 274 Q260 227 296.5 200.5 Q333 174 382 174 Q410 174 434 184.5 Q458 195 477 213 L605 90 Q558 43 496 16.5 Q434 -10 362 -10 Q297 -10 239.5 11 Q182 32 137 69.5 Q92 107 62 159 Q32 211 23 274 L-73 274 L-73 410 L-15 410 Q1 410 10.5 422 Q20 434 20 449 L20 464 L-73 464 L-73 600 L23 600 Q32 663 61.5 715 Q91 767 136 805 Q181 843 239 864 Q297 885 362 885 Z " />
<glyph glyph-name="Aacute" unicode="&#xc1;" horiz-adv-x="1078" d="M1048 0 L816 0 L739 172 Q734 185 722 192.5 Q710 200 696 200 L382 200 Q368 200 356 192.5 Q344 185 339 172 L262 0 L30 0 L423 875 L655 875 L1048 0 Z M444 404 L634 404 L539 617 L444 404 Z M643 1006 L466 1006 L678 1397 L853 1282 L643 1006 Z " />
<glyph glyph-name="Acircumflex" unicode="&#xc2;" horiz-adv-x="1078" d="M1048 0 L816 0 L739 172 Q734 185 722 192.5 Q710 200 696 200 L382 200 Q368 200 356 192.5 Q344 185 339 172 L262 0 L30 0 L423 875 L655 875 L1048 0 Z M718 948 L566 1100 Q555 1111 538.5 1111 Q522 1111 511 1100 L359 948 L253 1054 L539 1340 L825 1054 L719 948 L718 948 Z M444 404 L634 404 L539 617 L444 404 Z " />
<glyph glyph-name="minus" unicode="&#x2212;" horiz-adv-x="483" d="M20 404 L20 470 L463 470 L463 404 L20 404 Z " />
<glyph glyph-name="plusminus" unicode="&#xb1;" horiz-adv-x="483" d="M20 142 L20 278 L148 278 L148 377 L20 377 L20 563 L148 563 L148 691 L334 691 L334 563 L463 563 L463 377 L334 377 L334 278 L463 278 L463 142 L20 142 Z " />
<glyph glyph-name="Cacute" unicode="&#x106;" horiz-adv-x="847" d="M489 641 Q447 641 409.5 625 Q372 609 344.5 581.5 Q317 554 300.5 517 Q284 480 284 438 Q284 396 300 359 Q316 322 343.5 294 Q371 266 408 250 Q445 234 487 234 Q528 234 565 249.5 Q602 265 631 294 L797 128 Q735 66 654.5 33 Q574 0 487 0 Q397 0 317 34.5 Q237 69 178 128.5 Q119 188 84.5 268 Q50 348 50 438 Q50 528 84.5 608 Q119 688 178 747 Q237 806 317 840.5 Q397 875 487 875 Q574 875 654.5 842 Q735 809 797 747 L631 581 Q603 610 566 625.5 Q529 641 489 641 Z M567 1006 L390 1006 L602 1397 L777 1282 L567 1006 Z " />
<glyph glyph-name="Ccircumflex" unicode="&#x108;" horiz-adv-x="847" d="M489 641 Q447 641 409.5 625 Q372 609 344.5 581.5 Q317 554 300.5 517 Q284 480 284 438 Q284 396 300 359 Q316 322 343.5 294 Q371 266 408 250 Q445 234 487 234 Q528 234 565 249.5 Q602 265 631 294 L797 128 Q735 66 654.5 33 Q574 0 487 0 Q397 0 317 34.5 Q237 69 178 128.5 Q119 188 84.5 268 Q50 348 50 438 Q50 528 84.5 608 Q119 688 178 747 Q237 806 317 840.5 Q397 875 487 875 Q574 875 654.5 842 Q735 809 797 747 L631 581 Q603 610 566 625.5 Q529 641 489 641 Z M682 948 L530 1100 Q519 1111 502.5 1111 Q486 1111 475 1100 L323 948 L217 1054 L503 1340 L789 1054 L683 948 L682 948 Z " />
<glyph glyph-name="Cdotaccent" unicode="&#x10a;" horiz-adv-x="847" d="M489 641 Q447 641 409.5 625 Q372 609 344.5 581.5 Q317 554 300.5 517 Q284 480 284 438 Q284 396 300 359 Q316 322 343.5 294 Q371 266 408 250 Q445 234 487 234 Q528 234 565 249.5 Q602 265 631 294 L797 128 Q735 66 654.5 33 Q574 0 487 0 Q397 0 317 34.5 Q237 69 178 128.5 Q119 188 84.5 268 Q50 348 50 438 Q50 528 84.5 608 Q119 688 178 747 Q237 806 317 840.5 Q397 875 487 875 Q574 875 654.5 842 Q735 809 797 747 L631 581 Q603 610 566 625.5 Q529 641 489 641 Z M581 1086 Q581 1062 571.5 1040.5 Q562 1019 546 1003.5 Q530 988 508.5 978.5 Q487 969 463 969 Q439 969 417.5 978.5 Q396 988 380.5 1003.5 Q365 1019 355.5 1040.5 Q346 1062 346 1086 Q346 1110 355.5 1131.5 Q365 1153 380.5 1169 Q396 1185 417.5 1194.5 Q439 1204 463 1204 Q487 1204 508.5 1194.5 Q530 1185 546 1169 Q562 1153 571.5 1131.5 Q581 1110 581 1086 Z " />
<glyph glyph-name="Aogonek" unicode="&#x104;" horiz-adv-x="1078" d="M977 -202 Q935 -244 891 -265.5 Q847 -287 802 -287 Q757 -287 717 -269.5 Q677 -252 647.5 -222 Q618 -192 600.5 -151.5 Q583 -111 583 -66 Q583 -28 595 6 Q607 40 629 67 Q651 94 682.5 114 Q714 134 752 143 L739 172 Q734 185 722 192.5 Q710 200 696 200 L382 200 Q368 200 356 192.5 Q344 185 339 172 L262 0 L30 0 L423 875 L655 875 L1048 0 L816 0 Q781 0 756 -19 Q731 -38 731 -65 Q731 -92 750 -111 Q769 -130 796 -130 Q810 -130 825.5 -121.5 Q841 -113 856 -98 L977 -202 Z M444 404 L634 404 L539 617 L444 404 Z " />
<glyph glyph-name="Amacron" unicode="&#x100;" horiz-adv-x="1078" d="M1048 0 L816 0 L739 172 Q734 185 722 192.5 Q710 200 696 200 L382 200 Q368 200 356 192.5 Q344 185 339 172 L262 0 L30 0 L423 875 L655 875 L1048 0 Z M285 1016 L285 1202 L792 1202 L792 1016 L285 1016 Z M444 404 L634 404 L539 617 L444 404 Z " />
<glyph glyph-name="Hbar" unicode="&#x126;" horiz-adv-x="1014" d="M40 598 L40 803 L95 803 L95 875 L321 875 L321 803 L693 803 L693 875 L919 875 L919 803 L974 803 L974 598 L919 598 L919 0 L693 0 L693 310 Q693 321 685 329.5 Q677 338 666 338 L348 338 Q337 338 329 329.5 Q321 321 321 310 L321 0 L95 0 L95 598 L40 598 Z M693 571 L693 598 L321 598 L321 571 Q321 560 329 551.5 Q337 543 348 543 L666 543 Q677 543 685 551.5 Q693 560 693 571 Z " />
<glyph glyph-name="Lacute" unicode="&#x139;" horiz-adv-x="818" d="M330 875 L330 248 Q330 228 341 216.5 Q352 205 372 205 L783 205 L783 0 L95 0 L95 875 L330 875 Z M334 1006 L157 1006 L369 1397 L544 1282 L334 1006 Z " />
<glyph glyph-name="Jcircumflex" unicode="&#x134;" horiz-adv-x="728" d="M403 357 L403 874 L638 874 L638 353 Q638 280 610.5 215.5 Q583 151 535 103 Q487 55 422.5 27.5 Q358 0 285 0 Q211 0 147 27.5 Q83 55 35 103 L193 262 Q210 245 231.5 240 Q253 235 279 235 Q304 235 327 244.5 Q350 254 366.5 270.5 Q383 287 393 309.5 Q403 332 403 357 Z M703 948 L551 1100 Q540 1111 523.5 1111 Q507 1111 496 1100 L344 948 L238 1054 L524 1340 L810 1054 L704 948 L703 948 Z " />
<glyph glyph-name="aeacute" unicode="&#x1fd;" horiz-adv-x="1045" d="M748 232 Q748 221 756 213 Q764 205 775 205 L1150 205 L1150 0 L522 0 L522 314 Q520 325 513 331.5 Q506 338 495 338 L360 338 Q343 338 329.5 327 Q316 316 312 299 L253 0 L30 0 L200 875 L522 875 L1150 874 L1150 668 L775 668 Q764 668 756 660 Q748 652 748 640 L748 571 Q748 559 756 551 Q764 543 775 543 L1150 543 L1150 338 L748 338 L748 232 Z M522 543 L522 644 Q520 655 513 661.5 Q506 668 495 668 L384 668 L359 543 L522 543 Z M706 1006 L529 1006 L741 1397 L916 1282 L706 1006 Z " />
<glyph glyph-name="Eth" unicode="&#xd0;" horiz-adv-x="874" d="M30 338 L30 543 L95 543 L95 875 L459 875 Q549 875 629 840.5 Q709 806 768 746.5 Q827 687 861.5 607 Q896 527 896 437 Q896 347 861.5 267 Q827 187 768 128 Q709 69 629 34.5 Q549 0 459 0 L95 0 L95 338 L30 338 Z M662 436 Q662 476 646.5 513 Q631 550 604.5 578.5 Q578 607 542 624 Q506 641 465 641 L354 641 Q343 641 336 633.5 Q329 626 329 615 L329 543 L503 543 L503 338 L329 338 L329 259 Q329 248 336 241 Q343 234 354 234 L465 234 Q505 234 541 251 Q577 268 604 296 Q631 324 646.5 360.5 Q662 397 662 436 Z " />
<glyph glyph-name="commaaccent" unicode="&#xf6c3;" horiz-adv-x="454" d="M131 -142 L322 -142 L300 -423 L131 -423 L131 -142 Z " />
<glyph glyph-name="Lcommaaccent" unicode="&#x13b;" horiz-adv-x="818" d="M330 875 L330 248 Q330 228 341 216.5 Q352 205 372 205 L783 205 L783 0 L95 0 L95 875 L330 875 Z M254 -142 L445 -142 L423 -423 L254 -423 L254 -142 Z " />
<glyph glyph-name="Ldot" unicode="&#x13f;" horiz-adv-x="818" d="M330 875 L330 248 Q330 228 341 216.5 Q352 205 372 205 L783 205 L783 0 L95 0 L95 875 L330 875 Z M648 503 Q648 479 638.5 457.5 Q629 436 613 420.5 Q597 405 575.5 395.5 Q554 386 530 386 Q506 386 484.5 395.5 Q463 405 447.5 420.5 Q432 436 422.5 457.5 Q413 479 413 503 Q413 527 422.5 548.5 Q432 570 447.5 586 Q463 602 484.5 611.5 Q506 621 530 621 Q554 621 575.5 611.5 Q597 602 613 586 Q629 570 638.5 548.5 Q648 527 648 503 Z " />
<glyph glyph-name="Abreve" unicode="&#x102;" horiz-adv-x="1078" d="M1048 0 L816 0 L739 172 Q726 200 696 200 L382 200 Q367 200 355.5 192.5 Q344 185 339 172 L262 0 L30 0 L423 875 L655 875 L1048 0 Z M610 1232 L777 1232 Q777 1183 758 1139.5 Q739 1096 707 1064 Q675 1032 631.5 1013 Q588 994 539 994 Q490 994 446.5 1013 Q403 1032 371 1064 Q339 1096 320 1139.5 Q301 1183 301 1232 L468 1232 Q468 1203 489.5 1181.5 Q511 1160 540 1160 Q569 1160 589.5 1181.5 Q610 1203 610 1232 Z M444 404 L634 404 L539 617 L444 404 Z " />
<glyph glyph-name="Thorn" unicode="&#xde;" horiz-adv-x="786" d="M95 874 L161 874 L161 696 Q162 685 169.5 678 Q177 671 188 671 L510 671 Q558 671 601 652.5 Q644 634 676 602.5 Q708 571 726.5 528 Q745 485 745 437 Q745 389 726.5 346 Q708 303 676 271.5 Q644 240 601 221.5 Q558 203 510 203 L188 203 Q177 203 169.5 196 Q162 189 161 178 L161 0 L95 0 L95 874 Z M679 437 Q679 473 664.5 504.5 Q650 536 626 558.5 Q602 581 570 594 Q538 607 502 607 L188 607 Q177 607 169 598.5 Q161 590 161 579 L161 295 Q161 284 169 275.5 Q177 267 188 267 L502 267 Q538 267 570 280 Q602 293 626 315.5 Q650 338 664.5 369.5 Q679 401 679 437 Z " />
<glyph glyph-name="space" unicode="&#x20;" horiz-adv-x="454" d="" />
<glyph glyph-name="at" unicode="&#x40;" horiz-adv-x="994" d="M714 377 Q716 346 737 323.5 Q758 301 790 301 Q822 301 844 323 Q866 345 866 377 L866 487 Q866 553 836.5 611.5 Q807 670 757 713.5 Q707 757 639.5 782.5 Q572 808 497 808 Q420 808 352.5 779 Q285 750 234.5 699.5 Q184 649 155 581.5 Q126 514 126 438 Q126 362 155 294.5 Q184 227 234.5 176 Q285 125 352 95.5 Q419 66 496 66 Q570 66 638.5 94 Q707 122 760 175 L807 128 Q745 66 664.5 33 Q584 0 497 0 Q407 0 327 34.5 Q247 69 188 128 Q129 187 94.5 267 Q60 347 60 437 Q60 527 94.5 607 Q129 687 188 746 Q247 805 327 839.5 Q407 874 497 874 Q588 874 667.5 842.5 Q747 811 806 757 Q865 703 899.5 631 Q934 559 934 477 L934 377 Q934 348 922.5 322 Q911 296 891.5 276.5 Q872 257 846 245.5 Q820 234 790 234 Q749 234 716 254.5 Q683 275 664 308 Q637 273 595.5 253.5 Q554 234 497 234 Q444 234 404 251 Q364 268 337 297 Q310 326 296 365.5 Q282 405 282 449 Q282 503 298.5 544 Q315 585 343.5 613 Q372 641 411.5 655.5 Q451 670 497 670 Q539 670 577 658 Q615 646 644.5 623 Q674 600 692.5 565.5 Q711 531 713 486 L714 377 Z M647 449 Q647 522 605.5 561.5 Q564 601 497 602 Q430 601 388.5 561.5 Q347 522 347 449 Q347 413 359 384.5 Q371 356 391 336.5 Q411 317 438.5 307 Q466 297 497 297 Q528 297 555.5 307 Q583 317 603 336.5 Q623 356 635 384.5 Q647 413 647 449 Z " />
<glyph glyph-name="divide" unicode="&#xf7;" horiz-adv-x="282" d="M141 180 Q118 180 101.5 196.5 Q85 213 85 236 Q85 259 101.5 275.5 Q118 292 141 292 Q164 292 180.5 275.5 Q197 259 197 236 Q197 213 180.5 196.5 Q164 180 141 180 Z M141 577 Q118 577 101.5 593.5 Q85 610 85 633 Q85 656 101.5 672.5 Q118 689 141 689 Q164 689 180.5 672.5 Q197 656 197 633 Q197 610 180.5 593.5 Q164 577 141 577 Z M-80 404 L-80 470 L363 470 L363 404 L-80 404 Z " />
<glyph glyph-name="thorn" unicode="&#xfe;" horiz-adv-x="786" d="M95 874 L330 874 L330 764 Q331 753 338.5 746 Q346 739 357 739 L506 738 Q572 738 631 716 Q690 694 734 654 Q778 614 803.5 558.5 Q829 503 829 437 Q829 371 803.5 315.5 Q778 260 734 220 Q690 180 631 157.5 Q572 135 506 135 L357 134 Q346 134 338.5 127 Q331 120 330 109 L330 0 L95 0 L95 874 Z M609 440 Q609 462 600.5 481 Q592 500 577 513.5 Q562 527 542.5 535 Q523 543 502 543 L357 543 Q346 543 338 534.5 Q330 526 330 515 L330 366 Q330 355 338 346.5 Q346 338 357 338 L502 337 Q523 337 542.5 345 Q562 353 577 366.5 Q592 380 600.5 399 Q609 418 609 440 Z " />
<glyph glyph-name="trademark" unicode="&#x2122;" horiz-adv-x="554" d="M495 875 L524 875 L524 629 L495 629 L495 834 L391 729 L287 834 L287 629 L258 629 L258 875 L287 875 L385 776 Q387 774 390.5 774 Q394 774 396 776 L495 875 Z M30 846 L30 875 L232 875 L232 846 L156 846 Q152 846 148.5 843 Q145 840 145 835 L145 629 L117 629 L117 835 Q117 846 106 846 L30 846 Z " />
<glyph glyph-name="registered" unicode="&#xae;" horiz-adv-x="520" d="M367 807 Q367 786 353 767.5 Q339 749 319 744 Q311 742 311 734 Q311 732 318 717 Q325 702 334 683.5 Q343 665 351.5 648.5 Q360 632 362 628 L311 628 L254 742 L219 742 Q207 742 207 731 L207 628 L160 628 L160 874 L301 874 Q329 874 348 854.5 Q367 835 367 807 Z M301 792 Q307 792 311.5 796.5 Q316 801 316 807 Q316 823 301 823 L207 823 Q203 823 203 819 L203 795 Q203 792 207 792 L301 792 Z M30 747 Q30 795 48 836.5 Q66 878 97.5 909.5 Q129 941 170.5 959 Q212 977 260 977 Q308 977 349.5 959 Q391 941 422.5 909.5 Q454 878 472 836.5 Q490 795 490 747 Q490 699 472 657.5 Q454 616 422.5 584.5 Q391 553 349.5 535 Q308 517 260 517 Q212 517 170.5 535 Q129 553 97.5 584.5 Q66 616 48 657.5 Q30 699 30 747 Z M77 747 Q77 709 91.5 675.5 Q106 642 130.5 617.5 Q155 593 188.5 578.5 Q222 564 260 564 Q298 564 331.5 578.5 Q365 593 389.5 617.5 Q414 642 428.5 675.5 Q443 709 443 747 Q443 785 428.5 818.5 Q414 852 389.5 876.5 Q365 901 331.5 915.5 Q298 930 260 930 Q222 930 188.5 915.5 Q155 901 130.5 876.5 Q106 852 91.5 818.5 Q77 785 77 747 Z " />
<glyph glyph-name="copyright" unicode="&#xa9;" horiz-adv-x="520" d="M30 747 Q30 795 48 836.5 Q66 878 97.5 909.5 Q129 941 170.5 959 Q212 977 260 977 Q308 977 349.5 959 Q391 941 422.5 909.5 Q454 878 472 836.5 Q490 795 490 747 Q490 699 472 657.5 Q454 616 422.5 584.5 Q391 553 349.5 535 Q308 517 260 517 Q212 517 170.5 535 Q129 553 97.5 584.5 Q66 616 48 657.5 Q30 699 30 747 Z M79 747 Q79 709 93 676.5 Q107 644 132 619 Q157 594 189.5 580 Q222 566 260 566 Q297 566 330.5 580 Q364 594 388.5 619 Q413 644 427.5 676.5 Q442 709 442 747 Q442 784 427.5 817.5 Q413 851 388.5 875.5 Q364 900 330.5 914.5 Q297 929 260 929 Q222 929 189.5 914.5 Q157 900 132 875.5 Q107 851 93 817.5 Q79 784 79 747 Z M273 807 Q248 807 230 789.5 Q212 772 212 747 Q212 722 229.5 704.5 Q247 687 271 687 Q297 687 314 704 L356 659 Q339 642 316 632.5 Q293 623 269 623 Q243 623 220.5 633 Q198 643 181 659.5 Q164 676 154.5 698.5 Q145 721 145 747 Q145 772 154.5 794.5 Q164 817 181 834 Q198 851 220.5 860.5 Q243 870 269 870 Q293 870 316 860.5 Q339 851 356 834 L314 790 Q306 798 295 802.5 Q284 807 273 807 Z " />
<glyph glyph-name="eth" unicode="&#xf0;" horiz-adv-x="852" d="M496 571 L426 702 L495 739 Q475 757 451 770.5 Q427 784 400 792 L465 901 Q568 873 633 814 L746 875 L816 744 L716 690 Q738 636 747 573 Q756 510 756 437 L756 293 Q756 220 729.5 163.5 Q703 107 655.5 68.5 Q608 30 543 10 Q478 -10 401 -10 Q319 -10 255.5 11.5 Q192 33 148.5 71 Q105 109 82.5 161 Q60 213 60 275 Q60 335 83 386 Q106 437 150 474 Q194 511 257 532 Q320 553 401 553 Q438 553 470 546 Q502 539 527.5 528.5 Q553 518 570.5 506.5 Q588 495 597 486 L597 550 Q597 563 593 580 Q589 597 581 617 L496 571 Z M404 383 Q335 383 298 353.5 Q261 324 261 274 Q261 222 299 189.5 Q337 157 404 157 Q443 157 471.5 166.5 Q500 176 518.5 192.5 Q537 209 546 231 Q555 253 555 277 Q555 303 543.5 323 Q532 343 512 356.5 Q492 370 464.5 376.5 Q437 383 404 383 Z " />
<glyph glyph-name="degree" unicode="&#xb0;" horiz-adv-x="306" d="M153 654 Q173 654 190.5 661.5 Q208 669 221 682.5 Q234 696 241.5 713.5 Q249 731 249 751 Q249 791 221 818.5 Q193 846 153 846 Q113 846 84.5 818.5 Q56 791 56 751 Q56 731 63.5 713.5 Q71 696 84.5 682.5 Q98 669 115.5 661.5 Q133 654 153 654 Z M153 874 Q178 874 200.5 864.5 Q223 855 240 838 Q257 821 266.5 798.5 Q276 776 276 751 Q276 725 266.5 703 Q257 681 240 664 Q223 647 200.5 637.5 Q178 628 153 628 Q127 628 105 637.5 Q83 647 66 664 Q49 681 39.5 703 Q30 725 30 751 Q30 776 39.5 798.5 Q49 821 66 838 Q83 855 105 864.5 Q127 874 153 874 Z " />
<glyph glyph-name="percent" unicode="&#x25;" horiz-adv-x="789" d="M769 684 L150 66 L25 191 L644 809 L769 684 Z M578 363 Q607 363 633 352 Q659 341 678 321.5 Q697 302 708 276 Q719 250 719 221 Q719 192 708 166 Q697 140 678 121 Q659 102 633 91 Q607 80 578 80 Q549 80 523 91 Q497 102 477.5 121 Q458 140 447 166 Q436 192 436 221 Q436 250 447 276 Q458 302 477.5 321.5 Q497 341 523 352 Q549 363 578 363 Z M202 810 Q231 810 257 799 Q283 788 302 768.5 Q321 749 332 723 Q343 697 343 668 Q343 639 332 613 Q321 587 302 568 Q283 549 257 538 Q231 527 202 527 Q173 527 147 538 Q121 549 101.5 568 Q82 587 71 613 Q60 639 60 668 Q60 697 71 723 Q82 749 101.5 768.5 Q121 788 147 799 Q173 810 202 810 Z M577 188 Q591 188 600 197 Q609 206 609 220 Q609 234 600 243 Q591 252 577 252 Q563 252 553.5 243 Q544 234 544 220 Q544 206 553.5 197 Q563 188 577 188 Z M201 635 Q215 635 223.5 644.5 Q232 654 232 667 Q232 681 223.5 690 Q215 699 201 699 Q187 699 177.5 690 Q168 681 168 667 Q168 654 177.5 644.5 Q187 635 201 635 Z " />
<glyph glyph-name="less" unicode="&#x3c;" horiz-adv-x="479" d="M20 436 L321 746 L459 607 L297 438 L459 275 L321 136 L20 436 Z " />
<glyph glyph-name="lessequal" unicode="&#x2264;" horiz-adv-x="554" d="M20 81 L20 280 L267 280 L45 436 L346 746 L485 607 L323 439 L464 333 L534 280 L534 81 L20 81 Z " />
<glyph glyph-name="asciitilde" unicode="&#x7e;" horiz-adv-x="418" d="M20 560 Q51 593 83 596.5 Q115 600 146 589 Q177 578 209 559.5 Q241 541 272 530 Q303 519 335 522.5 Q367 526 398 559 L398 373 Q366 340 335 336.5 Q304 333 272 344 Q240 355 208.5 373.5 Q177 392 146 403 Q115 414 83 410.5 Q51 407 20 374 L20 560 Z " />
<glyph glyph-name="notequal" unicode="&#x2260;" horiz-adv-x="483" d="M65 95 L88 168 L20 168 L20 373 L153 373 L196 508 L20 508 L20 713 L261 713 L304 846 L457 800 L429 713 L493 713 L493 508 L364 508 L321 373 L493 373 L493 168 L256 168 L218 49 L65 95 Z " />
<glyph glyph-name="middot" unicode="&#xb7;" horiz-adv-x="282" d="M141 377 Q118 377 98.5 385.5 Q79 394 64 409 Q49 424 40.5 443.5 Q32 463 32 486 Q32 508 40.5 528 Q49 548 64 563 Q79 578 98.5 586.5 Q118 595 141 595 Q163 595 183 586.5 Q203 578 218 563 Q233 548 241.5 528 Q250 508 250 486 Q250 463 241.5 443.5 Q233 424 218 409 Q203 394 183 385.5 Q163 377 141 377 Z " />
<glyph glyph-name="bullet" unicode="&#x2022;" horiz-adv-x="360" d="M180 341 Q140 341 112.5 368.5 Q85 396 85 436 Q85 476 112.5 503.5 Q140 531 180 531 Q220 531 247.5 503.5 Q275 476 275 436 Q275 396 247.5 368.5 Q220 341 180 341 Z " />
<glyph glyph-name="asterisk" unicode="&#x2a;" horiz-adv-x="609" d="M385 390 L303 499 L223 389 L99 481 L179 590 L50 633 L98 780 L226 737 L226 874 L382 874 L382 737 L513 780 L559 633 L431 590 Q451 562 471.5 534 Q492 506 511 481 L385 390 Z " />
<glyph glyph-name="guilsinglleft" unicode="&#x2039;" horiz-adv-x="591" d="M287 463 Q321 434 358.5 403 Q396 372 431 341 L541 248 L413 98 L50 404 L50 521 L413 827 L541 677 L287 463 Z " />
<glyph glyph-name="guilsinglright" unicode="&#x203a;" horiz-adv-x="589" d="M50 677 L178 827 L539 521 L539 404 L178 98 L50 248 L304 463 L50 677 Z " />
<glyph glyph-name="guillemotleft" unicode="&#xab;" horiz-adv-x="1089" d="M287 463 Q304 449 323.5 432.5 Q343 416 372 391.5 Q401 367 441.5 332.5 Q482 298 541 248 L413 98 L50 404 L50 521 L413 827 L541 677 L287 463 Z M785 463 L1039 248 L911 98 L549 404 L549 521 L911 827 L1039 677 L785 463 Z " />
<glyph glyph-name="partialdiff" unicode="&#x2202;" horiz-adv-x="826" d="M401 -10 Q319 -10 255.5 11.5 Q192 33 148.5 71 Q105 109 82.5 161 Q60 213 60 275 Q60 335 83 386 Q106 437 150 474 Q194 511 257 532 Q320 553 401 553 Q438 553 462 549 Q486 545 502 538 Q518 531 528 523 Q538 515 547 506 L547 550 Q547 574 539 601 Q531 628 512.5 653.5 Q494 679 462.5 700.5 Q431 722 385 734 L465 901 Q549 879 604.5 837.5 Q660 796 694 736.5 Q728 677 742 601.5 Q756 526 756 437 L756 293 Q756 220 729.5 163.5 Q703 107 655.5 68.5 Q608 30 543 10 Q478 -10 401 -10 Z M404 383 Q335 383 298 353.5 Q261 324 261 274 Q261 222 299 189.5 Q337 157 404 157 Q443 157 471.5 166.5 Q500 176 518.5 192.5 Q537 209 546 231 Q555 253 555 277 Q555 303 543.5 323 Q532 343 512 356.5 Q492 370 464.5 376.5 Q437 383 404 383 Z " />
<glyph glyph-name="quotedbl" unicode="&#x22;" horiz-adv-x="571" d="M380 628 L571 628 L549 347 L380 347 L380 628 Z M60 628 L251 628 L229 347 L60 347 L60 628 Z " />
<glyph glyph-name="quotedblleft" unicode="&#x201c;" horiz-adv-x="631" d="M60 347 L60 628 L229 628 L251 347 L60 347 Z M380 347 L380 628 L549 628 L571 347 L380 347 Z " />
<glyph glyph-name="quotedblright" unicode="&#x201d;" horiz-adv-x="631" d="M571 628 L571 347 L402 347 L380 628 L571 628 Z M251 628 L251 347 L82 347 L60 628 L251 628 Z " />
<glyph glyph-name="quotesingle" unicode="&#x27;" horiz-adv-x="311" d="M60 875 L251 875 L229 594 L60 594 L60 875 Z " />
<glyph glyph-name="quotesinglbase" unicode="&#x201a;" horiz-adv-x="311" d="M60 281 L251 281 L229 0 L60 0 L60 281 Z " />
<glyph glyph-name="quotedblbase" unicode="&#x201e;" horiz-adv-x="631" d="M380 281 L571 281 L549 0 L380 0 L380 281 Z M60 281 L251 281 L229 0 L60 0 L60 281 Z " />
<glyph glyph-name="quoteleft" unicode="&#x2018;" horiz-adv-x="311" d="M251 347 L60 347 L82 628 L251 628 L251 347 Z " />
<glyph glyph-name="quoteright" unicode="&#x2019;" horiz-adv-x="311" d="M60 628 L251 628 L229 347 L60 347 L60 628 Z " />
<glyph glyph-name="endash" unicode="&#x2013;" horiz-adv-x="926" d="M20 338 L20 543 L906 543 L906 338 L20 338 Z " />
<glyph glyph-name="emdash" unicode="&#x2014;" horiz-adv-x="1369" d="M20 337 L20 544 L1349 544 L1349 337 L20 337 Z " />
<glyph glyph-name="fraction" unicode="&#x2044;" horiz-adv-x="522" d="M-90 -18 L375 970 L553 889 L90 -99 L-90 -18 Z " />
<glyph glyph-name="b" unicode="b" horiz-adv-x="874" d="M819 640 Q819 574 786.5 521 Q754 468 701 437 Q754 407 786.5 353.5 Q819 300 819 234 Q819 186 800.5 143 Q782 100 750 68.5 Q718 37 675.5 18.5 Q633 0 584 0 L95 0 L95 875 L584 875 Q633 875 675.5 856.5 Q718 838 750 806 Q782 774 800.5 731.5 Q819 689 819 640 Z M596 254 Q596 272 589 287.5 Q582 303 570.5 314.5 Q559 326 543.5 333 Q528 340 510 340 L354 340 Q343 340 336 333 Q329 326 329 315 L329 195 Q329 184 336 177 Q343 170 354 170 L510 170 Q545 170 570.5 194.5 Q596 219 596 254 Z M510 537 Q528 537 543 543.5 Q558 550 569.5 561.5 Q581 573 587.5 588.5 Q594 604 594 621 Q594 656 569.5 680.5 Q545 705 510 705 L354 705 Q343 705 336 697.5 Q329 690 329 679 L329 562 Q329 551 336 544 Q343 537 354 537 L510 537 Z " />
<glyph glyph-name="f" unicode="f" horiz-adv-x="823" d="M330 571 Q330 559 338 551 Q346 543 357 543 L783 543 L783 338 L357 338 Q346 338 338 330 Q330 322 330 311 L330 0 L95 0 L95 875 L783 874 L783 669 L357 669 Q346 669 338 661 Q330 653 330 641 L330 571 Z " />
<glyph glyph-name="m" unicode="m" horiz-adv-x="1163" d="M833 875 L1068 875 L1068 0 L833 0 L833 582 L581 330 L330 582 L330 0 L95 0 L95 875 L330 875 L561 643 Q569 635 581 635 Q593 635 601 643 L833 875 Z " />
<glyph glyph-name="p" unicode="p" horiz-adv-x="874" d="M507 523 Q525 523 540.5 529.5 Q556 536 568 547 Q580 558 587 573 Q594 588 594 606 Q594 642 570 666.5 Q546 691 511 691 L355 691 Q344 691 337 683.5 Q330 676 330 665 L330 551 Q330 540 338 531.5 Q346 523 357 523 L507 523 Z M540 875 Q596 875 646.5 854 Q697 833 735.5 797 Q774 761 796.5 712 Q819 663 819 606 Q819 550 798 501.5 Q777 453 740 416.5 Q703 380 654 359 Q605 338 550 338 L357 338 Q346 338 338 329.5 Q330 321 330 310 L330 0 L95 0 L95 875 L540 875 Z " />
<glyph glyph-name="v" unicode="v" horiz-adv-x="1079" d="M540 258 L817 875 L1049 875 L656 0 L423 0 L30 875 L263 875 L540 258 Z " />
<glyph glyph-name="caron" unicode="&#x2c7;" horiz-adv-x="612" d="M486 1340 L592 1234 L306 948 L20 1234 L126 1340 L278 1188 Q289 1177 305.5 1177 Q322 1177 333 1188 L409 1264 Q423 1278 437 1292 Q451 1306 461.5 1316.5 Q472 1327 479 1333.5 Q486 1340 486 1340 Z " />
<glyph glyph-name="Ccaron" unicode="&#x10c;" horiz-adv-x="847" d="M489 641 Q447 641 409.5 625 Q372 609 344.5 581.5 Q317 554 300.5 517 Q284 480 284 438 Q284 396 300 359 Q316 322 343.5 294 Q371 266 408 250 Q445 234 487 234 Q528 234 565 249.5 Q602 265 631 294 L797 128 Q735 66 654.5 33 Q574 0 487 0 Q397 0 317 34.5 Q237 69 178 128.5 Q119 188 84.5 268 Q50 348 50 438 Q50 528 84.5 608 Q119 688 178 747 Q237 806 317 840.5 Q397 875 487 875 Q574 875 654.5 842 Q735 809 797 747 L631 581 Q603 610 566 625.5 Q529 641 489 641 Z M653 1340 L759 1234 L473 948 L187 1234 L293 1340 L445 1188 Q456 1177 472.5 1177 Q489 1177 500 1188 L576 1264 Q590 1278 604 1292 Q618 1306 628.5 1316.5 Q639 1327 646 1333.5 Q653 1340 653 1340 Z " />
<glyph glyph-name="Ccedilla" unicode="&#xc7;" horiz-adv-x="847" d="M489 641 Q447 641 409.5 625 Q372 609 344.5 581.5 Q317 554 300.5 517 Q284 480 284 438 Q284 396 300 359 Q316 322 343.5 294 Q371 266 408 250 Q445 234 487 234 Q528 234 565 249.5 Q602 265 631 294 L797 128 Q722 53 622 21 Q636 -2 642 -29.5 Q648 -57 645 -84 Q642 -111 630 -136.5 Q618 -162 598 -182 Q576 -204 544 -217 Q506 -232 466.5 -227.5 Q427 -223 394.5 -202 Q362 -181 341 -146 Q320 -111 320 -66 L429 -66 Q429 -85 439.5 -98 Q450 -111 465 -117 Q480 -123 497 -120 Q514 -117 526 -105 Q543 -88 543 -65 Q543 -42 526 -25 L500 0 Q407 0 325.5 33 Q244 66 182.5 124.5 Q121 183 85.5 263.5 Q50 344 50 438 Q50 528 84.5 608 Q119 688 178 747 Q237 806 317 840.5 Q397 875 487 875 Q574 875 654.5 842 Q735 809 797 747 L631 581 Q603 610 566 625.5 Q529 641 489 641 Z " />
<glyph glyph-name="Dcaron" unicode="&#x10e;" horiz-adv-x="961" d="M459 875 Q549 875 629 840.5 Q709 806 768 746.5 Q827 687 861.5 607 Q896 527 896 437 Q896 347 861.5 267 Q827 187 768 128 Q709 69 629 34.5 Q549 0 459 0 L95 0 L95 875 L459 875 Z M662 436 Q662 476 646.5 513 Q631 550 604.5 578.5 Q578 607 542 624 Q506 641 465 641 L354 641 Q343 641 336 633.5 Q329 626 329 615 L329 259 Q329 248 336 241 Q343 234 354 234 L465 234 Q505 234 541 251 Q577 268 604 296 Q631 324 646.5 360.5 Q662 397 662 436 Z M618 1340 L724 1234 L438 948 L152 1234 L258 1340 L410 1188 Q421 1177 437.5 1177 Q454 1177 465 1188 L541 1264 Q555 1278 569 1292 Q583 1306 593.5 1316.5 Q604 1327 611 1333.5 Q618 1340 618 1340 Z " />
<glyph glyph-name="Eacute" unicode="&#xc9;" horiz-adv-x="848" d="M330 571 Q330 559 338 551 Q346 543 357 543 L783 543 L783 338 L357 338 Q346 338 338 330 Q330 322 330 311 L330 232 Q330 221 338 213 Q346 205 357 205 L783 205 L783 0 L95 0 L95 875 L783 874 L783 668 L357 668 Q346 668 338 659.5 Q330 651 330 640 L330 571 Z M447 1006 L270 1006 L482 1397 L657 1282 L447 1006 Z " />
<glyph glyph-name="Ebreve" unicode="&#x114;" horiz-adv-x="848" d="M330 571 Q330 559 338 551 Q346 543 357 543 L783 543 L783 338 L357 338 Q346 338 338 330 Q330 322 330 311 L330 232 Q330 221 338 213 Q346 205 357 205 L783 205 L783 0 L95 0 L95 875 Q268 875 439 874.5 Q610 874 783 874 L783 668 L357 668 Q346 668 338 659.5 Q330 651 330 640 L330 571 Z M495 1232 L662 1232 Q662 1183 643 1139.5 Q624 1096 592 1064 Q560 1032 516.5 1013 Q473 994 424 994 Q375 994 331.5 1013 Q288 1032 256 1064 Q224 1096 205 1139.5 Q186 1183 186 1232 L353 1232 Q353 1203 374.5 1181.5 Q396 1160 425 1160 Q454 1160 474.5 1181.5 Q495 1203 495 1232 Z " />
<glyph glyph-name="Ecaron" unicode="&#x11a;" horiz-adv-x="848" d="M330 571 Q330 559 338 551 Q346 543 357 543 L783 543 L783 338 L357 338 Q346 338 338 330 Q330 322 330 311 L330 232 Q330 221 338 213 Q346 205 357 205 L783 205 L783 0 L95 0 L95 875 L783 874 L783 668 L357 668 Q346 668 338 659.5 Q330 651 330 640 L330 571 Z M604 1340 L710 1234 L424 948 L138 1234 L244 1340 L396 1188 Q407 1177 423.5 1177 Q440 1177 451 1188 L527 1264 Q541 1278 555 1292 Q569 1306 579.5 1316.5 Q590 1327 597 1333.5 Q604 1340 604 1340 Z " />
<glyph glyph-name="Ecircumflex" unicode="&#xca;" horiz-adv-x="848" d="M330 571 Q330 559 338 551 Q346 543 357 543 L783 543 L783 338 L357 338 Q346 338 338 330 Q330 322 330 311 L330 232 Q330 221 338 213 Q346 205 357 205 L783 205 L783 0 L95 0 L95 875 L783 874 L783 668 L357 668 Q346 668 338 659.5 Q330 651 330 640 L330 571 Z M603 948 L451 1100 Q440 1111 423.5 1111 Q407 1111 396 1100 L244 948 L138 1054 L424 1340 L710 1054 L604 948 L603 948 Z " />
<glyph glyph-name="Edieresis" unicode="&#xcb;" horiz-adv-x="848" d="M330 571 Q330 559 338 551 Q346 543 357 543 L783 543 L783 338 L357 338 Q346 338 338 330 Q330 322 330 311 L330 232 Q330 221 338 213 Q346 205 357 205 L783 205 L783 0 L95 0 L95 875 L783 874 L783 668 L357 668 Q346 668 338 659.5 Q330 651 330 640 L330 571 Z M737 1116 Q737 1092 727.5 1070.5 Q718 1049 702 1033.5 Q686 1018 664.5 1008.5 Q643 999 619 999 Q595 999 573.5 1008.5 Q552 1018 536.5 1033.5 Q521 1049 511.5 1070.5 Q502 1092 502 1116 Q502 1140 511.5 1161.5 Q521 1183 536.5 1199 Q552 1215 573.5 1224.5 Q595 1234 619 1234 Q643 1234 664.5 1224.5 Q686 1215 702 1199 Q718 1183 727.5 1161.5 Q737 1140 737 1116 Z M346 1116 Q346 1092 336.5 1070.5 Q327 1049 311 1033.5 Q295 1018 273.5 1008.5 Q252 999 228 999 Q204 999 182.5 1008.5 Q161 1018 145.5 1033.5 Q130 1049 120.5 1070.5 Q111 1092 111 1116 Q111 1140 120.5 1161.5 Q130 1183 145.5 1199 Q161 1215 182.5 1224.5 Q204 1234 228 1234 Q252 1234 273.5 1224.5 Q295 1215 311 1199 Q327 1183 336.5 1161.5 Q346 1140 346 1116 Z " />
<glyph glyph-name="Edotaccent" unicode="&#x116;" horiz-adv-x="848" d="M330 571 Q330 559 338 551 Q346 543 357 543 L783 543 L783 338 L357 338 Q346 338 338 330 Q330 322 330 311 L330 232 Q330 221 338 213 Q346 205 357 205 L783 205 L783 0 L95 0 L95 875 L783 874 L783 668 L357 668 Q346 668 338 659.5 Q330 651 330 640 L330 571 Z M541 1086 Q541 1062 531.5 1040.5 Q522 1019 506 1003.5 Q490 988 468.5 978.5 Q447 969 423 969 Q399 969 377.5 978.5 Q356 988 340.5 1003.5 Q325 1019 315.5 1040.5 Q306 1062 306 1086 Q306 1110 315.5 1131.5 Q325 1153 340.5 1169 Q356 1185 377.5 1194.5 Q399 1204 423 1204 Q447 1204 468.5 1194.5 Q490 1185 506 1169 Q522 1153 531.5 1131.5 Q541 1110 541 1086 Z " />
<glyph glyph-name="Egrave" unicode="&#xc8;" horiz-adv-x="848" d="M330 571 Q330 559 338 551 Q346 543 357 543 L783 543 L783 338 L357 338 Q346 338 338 330 Q330 322 330 311 L330 232 Q330 221 338 213 Q346 205 357 205 L783 205 L783 0 L95 0 L95 875 L783 874 L783 668 L357 668 Q346 668 338 659.5 Q330 651 330 640 L330 571 Z M109 1294 L309 1426 L539 1006 L328 1006 L109 1294 Z " />
<glyph glyph-name="Emacron" unicode="&#x112;" horiz-adv-x="848" d="M330 571 Q330 559 338 551 Q346 543 357 543 L783 543 L783 338 L357 338 Q346 338 338 330 Q330 322 330 311 L330 232 Q330 221 338 213 Q346 205 357 205 L783 205 L783 0 L95 0 L95 875 L783 874 L783 668 L357 668 Q346 668 338 659.5 Q330 651 330 640 L330 571 Z M170 1016 L170 1202 L677 1202 L677 1016 L170 1016 Z " />
<glyph glyph-name="Eogonek" unicode="&#x118;" horiz-adv-x="848" d="M783 -202 Q741 -244 697 -265.5 Q653 -287 608 -287 Q563 -287 523 -269.5 Q483 -252 453.5 -222 Q424 -192 406.5 -151.5 Q389 -111 389 -66 Q389 -30 399 0 L95 0 L95 875 L783 874 L783 668 L357 668 Q346 668 338 659.5 Q330 651 330 640 L330 571 Q330 559 338 551 Q346 543 357 543 L783 543 L783 338 L357 338 Q346 338 338 330 Q330 322 330 311 L330 232 Q330 221 338 213 Q346 205 357 205 L783 205 L783 0 L615 0 Q582 -2 559.5 -20.5 Q537 -39 537 -65 Q537 -92 556 -111 Q575 -130 602 -130 Q616 -130 631.5 -121.5 Q647 -113 662 -98 L783 -202 Z " />
<glyph glyph-name="Hcircumflex" unicode="&#x124;" horiz-adv-x="1014" d="M693 571 L693 875 L919 875 L919 0 L693 0 L693 310 Q693 321 685 329.5 Q677 338 666 338 L348 338 Q337 338 329 329.5 Q321 321 321 310 L321 0 L95 0 L95 875 L321 875 L321 571 Q321 560 329 551.5 Q337 543 348 543 L666 543 Q677 543 685 551.5 Q693 560 693 571 Z M686 948 L534 1100 Q523 1111 506.5 1111 Q490 1111 479 1100 L327 948 L221 1054 L507 1340 L793 1054 L687 948 L686 948 Z " />
<glyph glyph-name="Iacute" unicode="&#xcd;" horiz-adv-x="486" d="M130 0 L130 875 L356 875 L356 0 L130 0 Z M347 1006 L170 1006 L382 1397 L557 1282 L347 1006 Z " />
<glyph glyph-name="Ibreve" unicode="&#x12c;" horiz-adv-x="486" d="M130 0 L130 875 L356 875 L356 0 L130 0 Z M242 1160 Q271 1160 292.5 1181.5 Q314 1203 314 1232 L481 1232 Q481 1183 462 1139.5 Q443 1096 411 1064 Q379 1032 335.5 1013 Q292 994 243 994 Q194 994 150.5 1013 Q107 1032 75 1064 Q43 1096 24 1139.5 Q5 1183 5 1232 L172 1232 Q172 1203 192.5 1182 Q213 1161 242 1160 Z " />
<glyph glyph-name="Icircumflex" unicode="&#xce;" horiz-adv-x="486" d="M130 0 L130 875 L356 875 L356 0 L130 0 Z M422 948 L270 1100 Q259 1111 242.5 1111 Q226 1111 215 1100 L63 948 L-43 1054 L243 1340 L529 1054 L423 948 L422 948 Z " />
<glyph glyph-name="Idieresis" unicode="&#xcf;" horiz-adv-x="486" d="M130 0 L130 875 L356 875 L356 0 L130 0 Z M165 1116 Q165 1092 155.5 1070.5 Q146 1049 130 1033.5 Q114 1018 92.5 1008.5 Q71 999 47 999 Q23 999 1.5 1008.5 Q-20 1018 -35.5 1033.5 Q-51 1049 -60.5 1070.5 Q-70 1092 -70 1116 Q-70 1140 -60.5 1161.5 Q-51 1183 -35.5 1199 Q-20 1215 1.5 1224.5 Q23 1234 47 1234 Q71 1234 92.5 1224.5 Q114 1215 130 1199 Q146 1183 155.5 1161.5 Q165 1140 165 1116 Z M556 1116 Q556 1092 546.5 1070.5 Q537 1049 521 1033.5 Q505 1018 483.5 1008.5 Q462 999 438 999 Q414 999 392.5 1008.5 Q371 1018 355.5 1033.5 Q340 1049 330.5 1070.5 Q321 1092 321 1116 Q321 1140 330.5 1161.5 Q340 1183 355.5 1199 Q371 1215 392.5 1224.5 Q414 1234 438 1234 Q462 1234 483.5 1224.5 Q505 1215 521 1199 Q537 1183 546.5 1161.5 Q556 1140 556 1116 Z " />
<glyph glyph-name="Idotaccent" unicode="&#x130;" horiz-adv-x="486" d="M130 0 L130 875 L356 875 L356 0 L130 0 Z M360 1086 Q360 1062 350.5 1040.5 Q341 1019 325 1003.5 Q309 988 287.5 978.5 Q266 969 242 969 Q218 969 196.5 978.5 Q175 988 159.5 1003.5 Q144 1019 134.5 1040.5 Q125 1062 125 1086 Q125 1110 134.5 1131.5 Q144 1153 159.5 1169 Q175 1185 196.5 1194.5 Q218 1204 242 1204 Q266 1204 287.5 1194.5 Q309 1185 325 1169 Q341 1153 350.5 1131.5 Q360 1110 360 1086 Z " />
<glyph glyph-name="Igrave" unicode="&#xcc;" horiz-adv-x="486" d="M130 0 L130 875 L356 875 L356 0 L130 0 Z M-92 1294 L108 1426 L338 1006 L127 1006 L-92 1294 Z " />
<glyph glyph-name="Imacron" unicode="&#x12a;" horiz-adv-x="486" d="M130 0 L130 875 L356 875 L356 0 L130 0 Z M-10 1016 L-10 1202 L497 1202 L497 1016 L-10 1016 Z " />
<glyph glyph-name="Iogonek" unicode="&#x12e;" horiz-adv-x="486" d="M356 -202 Q314 -244 270 -265.5 Q226 -287 181 -287 Q136 -287 96 -269.5 Q56 -252 26.5 -222 Q-3 -192 -20.5 -151.5 Q-38 -111 -38 -66 Q-38 -29 -26 5 Q-14 39 8 66.5 Q30 94 61 114 Q92 134 130 143 L130 875 L356 875 L356 0 L188 0 Q155 -2 132.5 -20.5 Q110 -39 110 -65 Q110 -92 129 -111 Q148 -130 175 -130 Q189 -130 204.5 -121.5 Q220 -113 235 -98 L356 -202 Z " />
<glyph glyph-name="Itilde" unicode="&#x128;" horiz-adv-x="486" d="M130 0 L130 875 L356 875 L356 0 L130 0 Z M-5 1199 Q26 1231 57 1241 Q88 1251 119 1247 Q150 1243 181 1228.5 Q212 1214 243.5 1198 Q275 1182 306 1167.5 Q337 1153 368 1149 Q399 1145 430 1155 Q461 1165 492 1197 L492 1005 Q461 973 430 963 Q399 953 368 957 Q337 961 306 975.5 Q275 990 243.5 1006 Q212 1022 181 1036.5 Q150 1051 119 1055 Q88 1059 57 1049 Q26 1039 -5 1007 L-5 1199 Z " />
<glyph glyph-name="Kcommaaccent" unicode="&#x136;" horiz-adv-x="1031" d="M991 875 L605 438 L991 0 L714 0 L427 324 Q416 338 398 338 L348 338 Q337 338 329 329.5 Q321 321 321 310 L321 0 L95 0 L95 875 L321 875 L321 571 Q321 560 329 551.5 Q337 543 348 543 L403 543 Q421 543 433 557 L713 875 L991 875 Z M420 -142 L611 -142 L589 -423 L420 -423 L420 -142 Z " />
<glyph glyph-name="Lcaron" unicode="&#x13d;" horiz-adv-x="818" d="M330 875 L330 248 Q330 228 341 216.5 Q352 205 372 205 L783 205 L783 0 L95 0 L95 875 L330 875 Z M588 786 L779 786 L757 505 L588 505 L588 786 Z " />
<glyph glyph-name="AEacute" unicode="&#x1fc;" horiz-adv-x="1306" d="M1241 874 L1241 668 L816 668 Q805 668 797 659.5 Q789 651 789 640 L789 571 Q789 559 797 551 Q805 543 816 543 L1241 543 L1241 338 L816 338 Q805 338 797 330 Q789 322 789 311 L789 232 Q789 221 797 213 Q805 205 816 205 L1241 205 L1241 0 L563 0 L563 199 L382 199 Q368 199 356 191.5 Q344 184 339 171 L262 0 L30 0 L423 875 L806 875 L1241 874 Z M563 370 L563 668 L430 370 L563 370 Z M636 1006 L459 1006 L671 1397 L846 1282 L636 1006 Z " />
<glyph glyph-name="Dcroat" unicode="&#x110;" horiz-adv-x="961" d="M-9 338 L-9 524 L95 524 L95 875 L459 875 Q549 875 629 840.5 Q709 806 768 746.5 Q827 687 861.5 607 Q896 527 896 437 Q896 347 861.5 267 Q827 187 768 128 Q709 69 629 34.5 Q549 0 459 0 L95 0 L95 338 L-9 338 Z M662 436 Q662 476 646.5 513 Q631 550 604.5 578.5 Q578 607 542 624 Q506 641 465 641 L354 641 Q343 641 336 633.5 Q329 626 329 615 L329 524 L498 524 L498 338 L329 338 L329 259 Q329 248 336 241 Q343 234 354 234 L465 234 Q505 234 541 251 Q577 268 604 296 Q631 324 646.5 360.5 Q662 397 662 436 Z " />
<glyph glyph-name="Gbreve" unicode="&#x11e;" horiz-adv-x="1051" d="M497 513 L975 513 L975 0 L783 0 L783 126 Q763 96 731 72.5 Q699 49 661 33 Q623 17 580.5 8.5 Q538 0 497 0 Q407 0 327 34 Q247 68 188 127.5 Q129 187 94.5 266.5 Q60 346 60 437 Q60 527 94.5 607 Q129 687 188 746 Q247 805 327 839.5 Q407 874 497 874 Q588 874 667 840 Q746 806 806 746 L640 579 Q612 606 575.5 622 Q539 638 497 638 Q455 638 418.5 622 Q382 606 355 579 Q328 552 312 515.5 Q296 479 296 437 Q296 395 309 352.5 Q322 310 352 276.5 Q382 243 431 224 Q480 205 552 211 Q590 214 622 228 Q654 242 677 259 Q700 276 713 292.5 Q726 309 726 318 L497 318 L497 513 Z M596 1232 L763 1232 Q763 1183 744 1139.5 Q725 1096 693 1064 Q661 1032 617.5 1013 Q574 994 525 994 Q476 994 432.5 1013 Q389 1032 357 1064 Q325 1096 306 1139.5 Q287 1183 287 1232 L454 1232 Q454 1203 475.5 1181.5 Q497 1160 526 1160 Q555 1160 575.5 1181.5 Q596 1203 596 1232 Z " />
<glyph glyph-name="Gcircumflex" unicode="&#x11c;" horiz-adv-x="1051" d="M497 513 L975 513 L975 0 L783 0 L783 126 Q763 96 731 72.5 Q699 49 661 33 Q623 17 580.5 8.5 Q538 0 497 0 Q407 0 327 34 Q247 68 188 127.5 Q129 187 94.5 266.5 Q60 346 60 437 Q60 527 94.5 607 Q129 687 188 746 Q247 805 327 839.5 Q407 874 497 874 Q588 874 667 840 Q746 806 806 746 L640 579 Q612 606 575.5 622 Q539 638 497 638 Q455 638 418.5 622 Q382 606 355 579 Q328 552 312 515.5 Q296 479 296 437 Q296 395 309 352.5 Q322 310 352 276.5 Q382 243 431 224 Q480 205 552 211 Q590 214 622 228 Q654 242 677 259 Q700 276 713 292.5 Q726 309 726 318 L497 318 L497 513 Z M704 948 L552 1100 Q541 1111 524.5 1111 Q508 1111 497 1100 L345 948 L239 1054 L525 1340 L811 1054 L705 948 L704 948 Z " />
<glyph glyph-name="Gcommaaccent" unicode="&#x122;" horiz-adv-x="1051" d="M497 513 L975 513 L975 0 L783 0 L783 126 Q763 96 731 72.5 Q699 49 661 33 Q623 17 580.5 8.5 Q538 0 497 0 Q407 0 327 34 Q247 68 188 127.5 Q129 187 94.5 266.5 Q60 346 60 437 Q60 527 94.5 607 Q129 687 188 746 Q247 805 327 839.5 Q407 874 497 874 Q588 874 667 840 Q746 806 806 746 L640 579 Q612 606 575.5 622 Q539 638 497 638 Q455 638 418.5 622 Q382 606 355 579 Q328 552 312 515.5 Q296 479 296 437 Q296 395 309 352.5 Q322 310 352 276.5 Q382 243 431 224 Q480 205 552 211 Q590 214 622 228 Q654 242 677 259 Q700 276 713 292.5 Q726 309 726 318 L497 318 L497 513 Z M430 -142 L621 -142 L599 -423 L430 -423 L430 -142 Z " />
<glyph glyph-name="Gdotaccent" unicode="&#x120;" horiz-adv-x="1051" d="M497 513 L975 513 L975 0 L783 0 L783 126 Q763 96 731 72.5 Q699 49 661 33 Q623 17 580.5 8.5 Q538 0 497 0 Q407 0 327 34 Q247 68 188 127.5 Q129 187 94.5 266.5 Q60 346 60 437 Q60 527 94.5 607 Q129 687 188 746 Q247 805 327 839.5 Q407 874 497 874 Q588 874 667 840 Q746 806 806 746 L640 579 Q612 606 575.5 622 Q539 638 497 638 Q455 638 418.5 622 Q382 606 355 579 Q328 552 312 515.5 Q296 479 296 437 Q296 395 309 352.5 Q322 310 352 276.5 Q382 243 431 224 Q480 205 552 211 Q590 214 622 228 Q654 242 677 259 Q700 276 713 292.5 Q726 309 726 318 L497 318 L497 513 Z M643 1086 Q643 1062 633.5 1040.5 Q624 1019 608 1003.5 Q592 988 570.5 978.5 Q549 969 525 969 Q501 969 479.5 978.5 Q458 988 442.5 1003.5 Q427 1019 417.5 1040.5 Q408 1062 408 1086 Q408 1110 417.5 1131.5 Q427 1153 442.5 1169 Q458 1185 479.5 1194.5 Q501 1204 525 1204 Q549 1204 570.5 1194.5 Q592 1185 608 1169 Q624 1153 633.5 1131.5 Q643 1110 643 1086 Z " />
<glyph glyph-name="Nacute" unicode="&#x143;" horiz-adv-x="1069" d="M739 346 L739 875 L974 875 L974 0 L746 0 L331 536 L331 0 L95 0 L95 875 L324 875 L739 346 Z M598 1006 L421 1006 L633 1397 L808 1282 L598 1006 Z " />
<glyph glyph-name="Ncaron" unicode="&#x147;" horiz-adv-x="1069" d="M739 346 L739 875 L974 875 L974 0 L746 0 L331 536 L331 0 L95 0 L95 875 L324 875 L739 346 Z M714 1340 L820 1234 L534 948 L248 1234 L354 1340 L506 1188 Q517 1177 533.5 1177 Q550 1177 561 1188 L637 1264 Q651 1278 665 1292 Q679 1306 689.5 1316.5 Q700 1327 707 1333.5 Q714 1340 714 1340 Z " />
<glyph glyph-name="Ncommaaccent" unicode="&#x145;" horiz-adv-x="1069" d="M739 346 L739 875 L974 875 L974 0 L746 0 L331 536 L331 0 L95 0 L95 875 L324 875 L739 346 Z M439 -142 L630 -142 L608 -423 L439 -423 L439 -142 Z " />
<glyph glyph-name="Ntilde" unicode="&#xd1;" horiz-adv-x="1069" d="M739 346 L739 875 L974 875 L974 0 L746 0 L331 536 L331 0 L95 0 L95 875 L324 875 L739 346 Z M286 1199 Q317 1231 348 1241 Q379 1251 410 1247 Q441 1243 472 1228.5 Q503 1214 534.5 1198 Q566 1182 597 1167.5 Q628 1153 659 1149 Q690 1145 721 1155 Q752 1165 783 1197 L783 1005 Q752 973 721 963 Q690 953 659 957 Q628 961 597 975.5 Q566 990 534.5 1006 Q503 1022 472 1036.5 Q441 1051 410 1055 Q379 1059 348 1049 Q317 1039 286 1007 L286 1199 Z " />
<glyph glyph-name="Oacute" unicode="&#xd3;" horiz-adv-x="994" d="M497 233 Q539 233 576 249 Q613 265 641 292.5 Q669 320 685 357.5 Q701 395 701 437 Q701 479 685 516 Q669 553 641 580.5 Q613 608 576 624 Q539 640 497 640 Q455 640 418 624 Q381 608 353.5 580.5 Q326 553 310 516 Q294 479 294 437 Q294 395 310 357.5 Q326 320 353.5 292.5 Q381 265 418 249 Q455 233 497 233 Z M497 874 Q588 874 667.5 839.5 Q747 805 806 746 Q865 687 899.5 607 Q934 527 934 437 Q934 346 899.5 266.5 Q865 187 806 127.5 Q747 68 667.5 34 Q588 0 497 0 Q407 0 327 34 Q247 68 188 127.5 Q129 187 94.5 266.5 Q60 346 60 437 Q60 527 94.5 607 Q129 687 188 746 Q247 805 327 839.5 Q407 874 497 874 Z M560 1006 L383 1006 L595 1397 L770 1282 L560 1006 Z " />
<glyph glyph-name="Obreve" unicode="&#x14e;" horiz-adv-x="994" d="M497 874 Q588 874 667.5 839.5 Q747 805 806 746 Q865 687 899.5 607 Q934 527 934 437 Q934 346 899.5 266.5 Q865 187 806 127.5 Q747 68 667.5 34 Q588 0 497 0 Q407 0 327 34 Q247 68 188 127.5 Q129 187 94.5 266.5 Q60 346 60 437 Q60 527 94.5 607 Q129 687 188 746 Q247 805 327 839.5 Q407 874 497 874 Z M497 233 Q539 233 576 249 Q613 265 641 292.5 Q669 320 685 357.5 Q701 395 701 437 Q701 479 685 516 Q669 553 641 580.5 Q613 608 576 624 Q539 640 497 640 Q455 640 418 624 Q381 608 353.5 580.5 Q326 553 310 516 Q294 479 294 437 Q294 395 310 357.5 Q326 320 353.5 292.5 Q381 265 418 249 Q455 233 497 233 Z M568 1232 L735 1232 Q735 1183 716 1139.5 Q697 1096 665 1064 Q633 1032 589.5 1013 Q546 994 497 994 Q448 994 404.5 1013 Q361 1032 329 1064 Q297 1096 278 1139.5 Q259 1183 259 1232 L426 1232 Q426 1203 447.5 1181.5 Q469 1160 498 1160 Q527 1161 547.5 1182 Q568 1203 568 1232 Z " />
<glyph glyph-name="Ocircumflex" unicode="&#xd4;" horiz-adv-x="994" d="M497 874 Q588 874 667.5 839.5 Q747 805 806 746 Q865 687 899.5 607 Q934 527 934 437 Q934 346 899.5 266.5 Q865 187 806 127.5 Q747 68 667.5 34 Q588 0 497 0 Q407 0 327 34 Q247 68 188 127.5 Q129 187 94.5 266.5 Q60 346 60 437 Q60 527 94.5 607 Q129 687 188 746 Q247 805 327 839.5 Q407 874 497 874 Z M497 233 Q539 233 576 249 Q613 265 641 292.5 Q669 320 685 357.5 Q701 395 701 437 Q701 479 685 516 Q669 553 641 580.5 Q613 608 576 624 Q539 640 497 640 Q455 640 418 624 Q381 608 353.5 580.5 Q326 553 310 516 Q294 479 294 437 Q294 395 310 357.5 Q326 320 353.5 292.5 Q381 265 418 249 Q455 233 497 233 Z M676 948 L524 1100 Q513 1111 496.5 1111 Q480 1111 469 1100 L317 948 L211 1054 L497 1340 L783 1054 L677 948 L676 948 Z " />
<glyph glyph-name="Odieresis" unicode="&#xd6;" horiz-adv-x="994" d="M497 233 Q539 233 576 249 Q613 265 641 292.5 Q669 320 685 357.5 Q701 395 701 437 Q701 479 685 516 Q669 553 641 580.5 Q613 608 576 624 Q539 640 497 640 Q455 640 418 624 Q381 608 353.5 580.5 Q326 553 310 516 Q294 479 294 437 Q294 395 310 357.5 Q326 320 353.5 292.5 Q381 265 418 249 Q455 233 497 233 Z M497 874 Q588 874 667.5 839.5 Q747 805 806 746 Q865 687 899.5 607 Q934 527 934 437 Q934 346 899.5 266.5 Q865 187 806 127.5 Q747 68 667.5 34 Q588 0 497 0 Q407 0 327 34 Q247 68 188 127.5 Q129 187 94.5 266.5 Q60 346 60 437 Q60 527 94.5 607 Q129 687 188 746 Q247 805 327 839.5 Q407 874 497 874 Z M810 1116 Q810 1092 800.5 1070.5 Q791 1049 775 1033.5 Q759 1018 737.5 1008.5 Q716 999 692 999 Q668 999 646.5 1008.5 Q625 1018 609.5 1033.5 Q594 1049 584.5 1070.5 Q575 1092 575 1116 Q575 1140 584.5 1161.5 Q594 1183 609.5 1199 Q625 1215 646.5 1224.5 Q668 1234 692 1234 Q716 1234 737.5 1224.5 Q759 1215 775 1199 Q791 1183 800.5 1161.5 Q810 1140 810 1116 Z M419 1116 Q419 1092 409.5 1070.5 Q400 1049 384 1033.5 Q368 1018 346.5 1008.5 Q325 999 301 999 Q277 999 255.5 1008.5 Q234 1018 218.5 1033.5 Q203 1049 193.5 1070.5 Q184 1092 184 1116 Q184 1140 193.5 1161.5 Q203 1183 218.5 1199 Q234 1215 255.5 1224.5 Q277 1234 301 1234 Q325 1234 346.5 1224.5 Q368 1215 384 1199 Q400 1183 409.5 1161.5 Q419 1140 419 1116 Z " />
<glyph glyph-name="Ograve" unicode="&#xd2;" horiz-adv-x="994" d="M497 233 Q539 233 576 249 Q613 265 641 292.5 Q669 320 685 357.5 Q701 395 701 437 Q701 479 685 516 Q669 553 641 580.5 Q613 608 576 624 Q539 640 497 640 Q455 640 418 624 Q381 608 353.5 580.5 Q326 553 310 516 Q294 479 294 437 Q294 395 310 357.5 Q326 320 353.5 292.5 Q381 265 418 249 Q455 233 497 233 Z M497 874 Q588 874 667.5 839.5 Q747 805 806 746 Q865 687 899.5 607 Q934 527 934 437 Q934 346 899.5 266.5 Q865 187 806 127.5 Q747 68 667.5 34 Q588 0 497 0 Q407 0 327 34 Q247 68 188 127.5 Q129 187 94.5 266.5 Q60 346 60 437 Q60 527 94.5 607 Q129 687 188 746 Q247 805 327 839.5 Q407 874 497 874 Z M202 1294 L402 1426 L632 1006 L421 1006 L202 1294 Z " />
<glyph glyph-name="hungarumlaut" unicode="&#x2dd;" horiz-adv-x="694" d="M257 1006 L80 1006 L292 1397 L467 1282 L257 1006 Z M564 1006 L387 1006 L599 1397 L774 1282 L564 1006 Z " />
<glyph glyph-name="Ohungarumlaut" unicode="&#x150;" horiz-adv-x="994" d="M497 233 Q539 233 576 249 Q613 265 641 292.5 Q669 320 685 357.5 Q701 395 701 437 Q701 479 685 516 Q669 553 641 580.5 Q613 608 576 624 Q539 640 497 640 Q455 640 418 624 Q381 608 353.5 580.5 Q326 553 310 516 Q294 479 294 437 Q294 395 310 357.5 Q326 320 353.5 292.5 Q381 265 418 249 Q455 233 497 233 Z M497 874 Q588 874 667.5 839.5 Q747 805 806 746 Q865 687 899.5 607 Q934 527 934 437 Q934 346 899.5 266.5 Q865 187 806 127.5 Q747 68 667.5 34 Q588 0 497 0 Q407 0 327 34 Q247 68 188 127.5 Q129 187 94.5 266.5 Q60 346 60 437 Q60 527 94.5 607 Q129 687 188 746 Q247 805 327 839.5 Q407 874 497 874 Z M407 1006 L230 1006 L442 1397 L617 1282 L407 1006 Z M714 1006 L537 1006 L749 1397 L924 1282 L714 1006 Z " />
<glyph glyph-name="Omacron" unicode="&#x14c;" horiz-adv-x="994" d="M497 874 Q588 874 667.5 839.5 Q747 805 806 746 Q865 687 899.5 607 Q934 527 934 437 Q934 346 899.5 266.5 Q865 187 806 127.5 Q747 68 667.5 34 Q588 0 497 0 Q407 0 327 34 Q247 68 188 127.5 Q129 187 94.5 266.5 Q60 346 60 437 Q60 527 94.5 607 Q129 687 188 746 Q247 805 327 839.5 Q407 874 497 874 Z M497 233 Q539 233 576 249 Q613 265 641 292.5 Q669 320 685 357.5 Q701 395 701 437 Q701 479 685 516 Q669 553 641 580.5 Q613 608 576 624 Q539 640 497 640 Q455 640 418 624 Q381 608 353.5 580.5 Q326 553 310 516 Q294 479 294 437 Q294 395 310 357.5 Q326 320 353.5 292.5 Q381 265 418 249 Q455 233 497 233 Z M243 1016 L243 1202 L750 1202 L750 1016 L243 1016 Z " />
<glyph glyph-name="backslash" unicode="&#x5c;" horiz-adv-x="578" d="M426 -223 L-30 1030 L152 1104 L608 -149 L426 -223 Z " />
<glyph glyph-name="Oslash" unicode="&#xd8;" horiz-adv-x="994" d="M203 -21 L244 80 Q160 140 110 232.5 Q60 325 60 437 Q60 527 94.5 607 Q129 687 188 746 Q247 805 327 839.5 Q407 874 497 874 Q532 874 567 868 L612 979 L775 920 L729 807 Q775 778 813 738.5 Q851 699 878 651.5 Q905 604 919.5 549.5 Q934 495 934 437 Q934 346 899.5 266.5 Q865 187 806 127.5 Q747 68 667.5 34 Q588 0 497 0 Q472 0 449 2.5 Q426 5 403 10 L366 -80 L203 -21 Z M497 233 Q539 233 576 249 Q613 265 641 292.5 Q669 320 685 357.5 Q701 395 701 437 Q701 481 683.5 518.5 Q666 556 637 584 L494 233 L497 233 Z M294 437 Q294 401 305.5 368 Q317 335 338 309 L472 638 Q457 636 443 632 Q429 628 415 622 Q361 599 327.5 549.5 Q294 500 294 437 Z " />
<glyph glyph-name="Oslashacute" unicode="&#x1fe;" horiz-adv-x="994" d="M203 -21 L244 80 Q160 140 110 232.5 Q60 325 60 437 Q60 527 94.5 607 Q129 687 188 746 Q247 805 327 839.5 Q407 874 497 874 Q532 874 567 868 L612 979 L775 920 L729 807 Q775 778 813 738.5 Q851 699 878 651.5 Q905 604 919.5 549.5 Q934 495 934 437 Q934 346 899.5 266.5 Q865 187 806 127.5 Q747 68 667.5 34 Q588 0 497 0 Q472 0 449 2.5 Q426 5 403 10 L366 -80 L203 -21 Z M480 1006 L303 1006 L515 1397 L690 1282 L480 1006 Z M497 233 Q539 233 576 249 Q613 265 641 292.5 Q669 320 685 357.5 Q701 395 701 437 Q701 481 683.5 518.5 Q666 556 637 584 L494 233 L497 233 Z M294 437 Q294 401 305.5 368 Q317 335 338 309 L472 638 Q457 636 443 632 Q429 628 415 622 Q361 599 327.5 549.5 Q294 500 294 437 Z " />
<glyph glyph-name="Otilde" unicode="&#xd5;" horiz-adv-x="994" d="M497 874 Q588 874 667.5 839.5 Q747 805 806 746 Q865 687 899.5 607 Q934 527 934 437 Q934 346 899.5 266.5 Q865 187 806 127.5 Q747 68 667.5 34 Q588 0 497 0 Q407 0 327 34 Q247 68 188 127.5 Q129 187 94.5 266.5 Q60 346 60 437 Q60 527 94.5 607 Q129 687 188 746 Q247 805 327 839.5 Q407 874 497 874 Z M497 233 Q539 233 576 249 Q613 265 641 292.5 Q669 320 685 357.5 Q701 395 701 437 Q701 479 685 516 Q669 553 641 580.5 Q613 608 576 624 Q539 640 497 640 Q455 640 418 624 Q381 608 353.5 580.5 Q326 553 310 516 Q294 479 294 437 Q294 395 310 357.5 Q326 320 353.5 292.5 Q381 265 418 249 Q455 233 497 233 Z M248 1199 Q279 1231 310 1241 Q341 1251 372 1247 Q403 1243 434 1228.5 Q465 1214 496.5 1198 Q528 1182 559 1167.5 Q590 1153 621 1149 Q652 1145 683 1155 Q714 1165 745 1197 L745 1005 Q703 962 662 957.5 Q621 953 579.5 967.5 Q538 982 496.5 1006 Q455 1030 413.5 1044.5 Q372 1059 331 1054.5 Q290 1050 248 1007 L248 1199 Z " />
<glyph glyph-name="Sacute" unicode="&#x15a;" horiz-adv-x="903" d="M273 606 Q273 578 297.5 565.5 Q322 553 362 548 Q402 543 453 542.5 Q504 542 557.5 537.5 Q611 533 662 520.5 Q713 508 753 480 Q793 452 817.5 404.5 Q842 357 842 282 Q842 230 823.5 189 Q805 148 774 116.5 Q743 85 703 63 Q663 41 619 27 Q575 13 531 6.5 Q487 0 448 0 Q408 0 363.5 6 Q319 12 274.5 25.5 Q230 39 189 61 Q148 83 117 114.5 Q86 146 67.5 188 Q49 230 49 284 L255 284 Q255 260 272.5 244.5 Q290 229 318 220 Q346 211 379.5 208 Q413 205 446 205 Q531 205 571 225 Q611 245 611 287 Q611 312 587 321.5 Q563 331 523.5 334 Q484 337 434 337 Q384 337 331.5 341.5 Q279 346 229 359 Q179 372 139.5 402 Q100 432 76 482 Q52 532 52 610 Q52 688 90 739 Q128 790 187 820 Q246 850 318 861.5 Q390 873 458 873 Q517 873 582 857.5 Q647 842 701 807 Q755 772 790 716.5 Q825 661 825 582 L620 582 Q620 604 605.5 620 Q591 636 567 646.5 Q543 657 512 662.5 Q481 668 448 668 Q363 668 318 655 Q273 642 273 606 Z M515 1006 L338 1006 L550 1397 L725 1282 L515 1006 Z " />
<glyph glyph-name="Scaron" unicode="&#x160;" horiz-adv-x="903" d="M273 606 Q273 578 297.5 565.5 Q322 553 362 548 Q402 543 453 542.5 Q504 542 557.5 537.5 Q611 533 662 520.5 Q713 508 753 480 Q793 452 817.5 404.5 Q842 357 842 282 Q842 230 823.5 189 Q805 148 774 116.5 Q743 85 703 63 Q663 41 619 27 Q575 13 531 6.5 Q487 0 448 0 Q408 0 363.5 6 Q319 12 274.5 25.5 Q230 39 189 61 Q148 83 117 114.5 Q86 146 67.5 188 Q49 230 49 284 L255 284 Q255 260 272.5 244.5 Q290 229 318 220 Q346 211 379.5 208 Q413 205 446 205 Q531 205 571 225 Q611 245 611 287 Q611 312 587 321.5 Q563 331 523.5 334 Q484 337 434 337 Q384 337 331.5 341.5 Q279 346 229 359 Q179 372 139.5 402 Q100 432 76 482 Q52 532 52 610 Q52 688 90 739 Q128 790 187 820 Q246 850 318 861.5 Q390 873 458 873 Q517 873 582 857.5 Q647 842 701 807 Q755 772 790 716.5 Q825 661 825 582 L620 582 Q620 604 605.5 620 Q591 636 567 646.5 Q543 657 512 662.5 Q481 668 448 668 Q363 668 318 655 Q273 642 273 606 Z M631 1340 L737 1234 L451 948 L165 1234 L271 1340 L423 1188 Q434 1177 450.5 1177 Q467 1177 478 1188 L554 1264 Q568 1278 582 1292 Q596 1306 606.5 1316.5 Q617 1327 624 1333.5 Q631 1340 631 1340 Z " />
<glyph glyph-name="Scedilla" unicode="&#x15e;" horiz-adv-x="903" d="M559 1 Q583 -23 594.5 -53.5 Q606 -84 606 -115.5 Q606 -147 594 -177.5 Q582 -208 558 -232 Q534 -256 504.5 -267.5 Q475 -279 443.5 -279 Q412 -279 382 -267.5 Q352 -256 328 -232 Q304 -207 292 -177.5 Q280 -148 280 -116 L389 -116 Q389 -138 406 -155 Q423 -172 446 -172 Q469 -172 486 -155 Q503 -138 503 -115 Q503 -92 486 -75 L410 1 Q351 5 287.5 21.5 Q224 38 170.5 71.5 Q117 105 83 157 Q49 209 49 284 L255 284 Q255 260 272.5 244.5 Q290 229 318 220 Q346 211 379.5 208 Q413 205 446 205 Q531 205 571 225 Q611 245 611 287 Q611 312 587 321.5 Q563 331 523.5 334 Q484 337 434 337 Q384 337 331.5 341.5 Q279 346 229 359 Q179 372 139.5 402 Q100 432 76 482 Q52 532 52 610 Q52 688 90 739 Q128 790 187 820 Q246 850 318 861.5 Q390 873 458 873 Q517 873 582 857.5 Q647 842 701 807 Q755 772 790 716.5 Q825 661 825 582 L620 582 Q620 604 605.5 620 Q591 636 567 646.5 Q543 657 512 662.5 Q481 668 448 668 Q363 668 318 655 Q273 642 273 606 Q273 578 297.5 565.5 Q322 553 362 548 Q402 543 453 542.5 Q504 542 557.5 537.5 Q611 533 662 520.5 Q713 508 753 480 Q793 452 817.5 404.5 Q842 357 842 282 Q842 220 816 173 Q790 126 748.5 93 Q707 60 654.5 40 Q602 20 550 10 L559 1 Z " />
<glyph glyph-name="Scircumflex" unicode="&#x15c;" horiz-adv-x="903" d="M273 606 Q273 578 297.5 565.5 Q322 553 362 548 Q402 543 453 542.5 Q504 542 557.5 537.5 Q611 533 662 520.5 Q713 508 753 480 Q793 452 817.5 404.5 Q842 357 842 282 Q842 230 823.5 189 Q805 148 774 116.5 Q743 85 703 63 Q663 41 619 27 Q575 13 531 6.5 Q487 0 448 0 Q408 0 363.5 6 Q319 12 274.5 25.5 Q230 39 189 61 Q148 83 117 114.5 Q86 146 67.5 188 Q49 230 49 284 L255 284 Q255 260 272.5 244.5 Q290 229 318 220 Q346 211 379.5 208 Q413 205 446 205 Q531 205 571 225 Q611 245 611 287 Q611 312 587 321.5 Q563 331 523.5 334 Q484 337 434 337 Q384 337 331.5 341.5 Q279 346 229 359 Q179 372 139.5 402 Q100 432 76 482 Q52 532 52 610 Q52 688 90 739 Q128 790 187 820 Q246 850 318 861.5 Q390 873 458 873 Q517 873 582 857.5 Q647 842 701 807 Q755 772 790 716.5 Q825 661 825 582 L620 582 Q620 604 605.5 620 Q591 636 567 646.5 Q543 657 512 662.5 Q481 668 448 668 Q363 668 318 655 Q273 642 273 606 Z M630 948 L478 1100 Q467 1111 450.5 1111 Q434 1111 423 1100 L271 948 L165 1054 L451 1340 L737 1054 L631 948 L630 948 Z " />
<glyph glyph-name="Scommaaccent" unicode="&#x218;" horiz-adv-x="903" d="M273 606 Q273 578 297.5 565.5 Q322 553 362 548 Q402 543 453 542.5 Q504 542 557.5 537.5 Q611 533 662 520.5 Q713 508 753 480 Q793 452 817.5 404.5 Q842 357 842 282 Q842 230 823.5 189 Q805 148 774 116.5 Q743 85 703 63 Q663 41 619 27 Q575 13 531 6.5 Q487 0 448 0 Q408 0 363.5 6 Q319 12 274.5 25.5 Q230 39 189 61 Q148 83 117 114.5 Q86 146 67.5 188 Q49 230 49 284 L255 284 Q255 260 272.5 244.5 Q290 229 318 220 Q346 211 379.5 208 Q413 205 446 205 Q531 205 571 225 Q611 245 611 287 Q611 312 587 321.5 Q563 331 523.5 334 Q484 337 434 337 Q384 337 331.5 341.5 Q279 346 229 359 Q179 372 139.5 402 Q100 432 76 482 Q52 532 52 610 Q52 688 90 739 Q128 790 187 820 Q246 850 318 861.5 Q390 873 458 873 Q517 873 582 857.5 Q647 842 701 807 Q755 772 790 716.5 Q825 661 825 582 L620 582 Q620 604 605.5 620 Q591 636 567 646.5 Q543 657 512 662.5 Q481 668 448 668 Q363 668 318 655 Q273 642 273 606 Z M356 -142 L547 -142 L525 -423 L356 -423 L356 -142 Z " />
<glyph glyph-name="Tbar" unicode="&#x166;" horiz-adv-x="859" d="M176 333 L176 519 L317 519 L317 648 Q317 665 305.5 676 Q294 687 277 687 L30 687 L30 875 L829 875 L829 687 L581 687 Q565 687 553.5 676 Q542 665 542 648 L542 519 L683 519 L683 333 L542 333 L542 0 L317 0 L317 333 L176 333 Z " />
<glyph glyph-name="Tcaron" unicode="&#x164;" horiz-adv-x="859" d="M30 687 L30 875 L829 875 L829 687 L581 687 Q565 687 553.5 676 Q542 665 542 648 L542 0 L317 0 L317 648 Q317 665 305.5 676 Q294 687 277 687 L30 687 Z M609 1340 L715 1234 L429 948 L143 1234 L249 1340 L401 1188 Q412 1177 428.5 1177 Q445 1177 456 1188 L532 1264 Q546 1278 560 1292 Q574 1306 584.5 1316.5 Q595 1327 602 1333.5 Q609 1340 609 1340 Z " />
<glyph glyph-name="Tcommaaccent" unicode="&#x162;" horiz-adv-x="859" d="M30 687 L30 875 L829 875 L829 687 L581 687 Q565 687 553.5 676 Q542 665 542 648 L542 0 L317 0 L317 648 Q317 665 305.5 676 Q294 687 277 687 L30 687 Z M334 -142 L525 -142 L503 -423 L334 -423 L334 -142 Z " />
<glyph glyph-name="Uacute" unicode="&#xda;" horiz-adv-x="886" d="M561 353 L561 874 L796 874 L796 353 Q796 280 768.5 215.5 Q741 151 693 103 Q645 55 580.5 27.5 Q516 0 443 0 Q370 0 305.5 27.5 Q241 55 193 103 Q145 151 117.5 215.5 Q90 280 90 353 L90 874 L325 874 L325 353 Q325 328 334.5 306.5 Q344 285 360 269 Q376 253 397.5 244 Q419 235 443 235 Q468 235 489.5 244 Q511 253 527 269 Q543 285 552 306.5 Q561 328 561 353 Z M506 1006 L329 1006 L541 1397 L716 1282 L506 1006 Z " />
<glyph glyph-name="Ubreve" unicode="&#x16c;" horiz-adv-x="886" d="M561 353 L561 874 L796 874 L796 353 Q796 280 768.5 215.5 Q741 151 693 103 Q645 55 580.5 27.5 Q516 0 443 0 Q370 0 305.5 27.5 Q241 55 193 103 Q145 151 117.5 215.5 Q90 280 90 353 L90 874 L325 874 L325 353 Q325 328 334.5 306.5 Q344 285 360 269 Q376 253 397.5 244 Q419 235 443 235 Q468 235 489.5 244 Q511 253 527 269 Q543 285 552 306.5 Q561 328 561 353 Z M514 1232 L681 1232 Q681 1183 662 1139.5 Q643 1096 611 1064 Q579 1032 535.5 1013 Q492 994 443 994 Q394 994 350.5 1013 Q307 1032 275 1064 Q243 1096 224 1139.5 Q205 1183 205 1232 L372 1232 Q372 1203 393.5 1181.5 Q415 1160 444 1160 Q473 1160 493.5 1181.5 Q514 1203 514 1232 Z " />
<glyph glyph-name="Ucircumflex" unicode="&#xdb;" horiz-adv-x="886" d="M561 353 L561 874 L796 874 L796 353 Q796 280 768.5 215.5 Q741 151 693 103 Q645 55 580.5 27.5 Q516 0 443 0 Q370 0 305.5 27.5 Q241 55 193 103 Q145 151 117.5 215.5 Q90 280 90 353 L90 874 L325 874 L325 353 Q325 328 334.5 306.5 Q344 285 360 269 Q376 253 397.5 244 Q419 235 443 235 Q468 235 489.5 244 Q511 253 527 269 Q543 285 552 306.5 Q561 328 561 353 Z M622 948 L470 1100 Q459 1111 442.5 1111 Q426 1111 415 1100 L263 948 L157 1054 L443 1340 L729 1054 L623 948 L622 948 Z " />
<glyph glyph-name="Udieresis" unicode="&#xdc;" horiz-adv-x="886" d="M561 353 L561 874 L796 874 L796 353 Q796 280 768.5 215.5 Q741 151 693 103 Q645 55 580.5 27.5 Q516 0 443 0 Q370 0 305.5 27.5 Q241 55 193 103 Q145 151 117.5 215.5 Q90 280 90 353 L90 874 L325 874 L325 353 Q325 328 334.5 306.5 Q344 285 360 269 Q376 253 397.5 244 Q419 235 443 235 Q468 235 489.5 244 Q511 253 527 269 Q543 285 552 306.5 Q561 328 561 353 Z M365 1116 Q365 1092 355.5 1070.5 Q346 1049 330 1033.5 Q314 1018 292.5 1008.5 Q271 999 247 999 Q223 999 201.5 1008.5 Q180 1018 164.5 1033.5 Q149 1049 139.5 1070.5 Q130 1092 130 1116 Q130 1140 139.5 1161.5 Q149 1183 164.5 1199 Q180 1215 201.5 1224.5 Q223 1234 247 1234 Q271 1234 292.5 1224.5 Q314 1215 330 1199 Q346 1183 355.5 1161.5 Q365 1140 365 1116 Z M756 1116 Q756 1092 746.5 1070.5 Q737 1049 721 1033.5 Q705 1018 683.5 1008.5 Q662 999 638 999 Q614 999 592.5 1008.5 Q571 1018 555.5 1033.5 Q540 1049 530.5 1070.5 Q521 1092 521 1116 Q521 1140 530.5 1161.5 Q540 1183 555.5 1199 Q571 1215 592.5 1224.5 Q614 1234 638 1234 Q662 1234 683.5 1224.5 Q705 1215 721 1199 Q737 1183 746.5 1161.5 Q756 1140 756 1116 Z " />
<glyph glyph-name="Ugrave" unicode="&#xd9;" horiz-adv-x="886" d="M561 353 L561 874 L796 874 L796 353 Q796 280 768.5 215.5 Q741 151 693 103 Q645 55 580.5 27.5 Q516 0 443 0 Q370 0 305.5 27.5 Q241 55 193 103 Q145 151 117.5 215.5 Q90 280 90 353 L90 874 L325 874 L325 353 Q325 328 334.5 306.5 Q344 285 360 269 Q376 253 397.5 244 Q419 235 443 235 Q468 235 489.5 244 Q511 253 527 269 Q543 285 552 306.5 Q561 328 561 353 Z M128 1294 L328 1426 L558 1006 L347 1006 L128 1294 Z " />
<glyph glyph-name="Uhungarumlaut" unicode="&#x170;" horiz-adv-x="886" d="M561 353 L561 874 L796 874 L796 353 Q796 280 768.5 215.5 Q741 151 693 103 Q645 55 580.5 27.5 Q516 0 443 0 Q370 0 305.5 27.5 Q241 55 193 103 Q145 151 117.5 215.5 Q90 280 90 353 L90 874 L325 874 L325 353 Q325 328 334.5 306.5 Q344 285 360 269 Q376 253 397.5 244 Q419 235 443 235 Q468 235 489.5 244 Q511 253 527 269 Q543 285 552 306.5 Q561 328 561 353 Z M660 1006 L483 1006 L695 1397 L870 1282 L660 1006 Z M353 1006 L176 1006 L388 1397 L563 1282 L353 1006 Z " />
<glyph glyph-name="Umacron" unicode="&#x16a;" horiz-adv-x="886" d="M561 353 L561 874 L796 874 L796 353 Q796 280 768.5 215.5 Q741 151 693 103 Q645 55 580.5 27.5 Q516 0 443 0 Q370 0 305.5 27.5 Q241 55 193 103 Q145 151 117.5 215.5 Q90 280 90 353 L90 874 L325 874 L325 353 Q325 328 334.5 306.5 Q344 285 360 269 Q376 253 397.5 244 Q419 235 443 235 Q468 235 489.5 244 Q511 253 527 269 Q543 285 552 306.5 Q561 328 561 353 Z M189 1016 L189 1202 L696 1202 L696 1016 L189 1016 Z " />
<glyph glyph-name="Uogonek" unicode="&#x172;" horiz-adv-x="886" d="M603 -202 Q561 -244 517 -265.5 Q473 -287 428 -287 Q383 -287 343 -269.5 Q303 -252 273 -222 Q243 -192 226 -152 Q209 -112 209 -66 Q209 4 249 58 Q177 106 133.5 182.5 Q90 259 90 353 L90 874 L325 874 L325 353 Q325 328 334.5 306.5 Q344 285 360 269 Q376 253 397.5 244 Q419 235 443 235 Q468 235 489.5 244 Q511 253 527 269 Q543 285 552 306.5 Q561 328 561 353 L561 874 L796 874 L796 353 Q796 280 768 215.5 Q740 151 692 103 Q644 55 579.5 27.5 Q515 0 442 0 Q407 0 382 -19 Q357 -38 357 -65 Q357 -92 376 -111 Q395 -130 422 -130 Q436 -130 451.5 -121.5 Q467 -113 482 -98 L603 -202 Z " />
<glyph glyph-name="Uring" unicode="&#x16e;" horiz-adv-x="886" d="M561 353 L561 874 L796 874 L796 353 Q796 280 768.5 215.5 Q741 151 693 103 Q645 55 580.5 27.5 Q516 0 443 0 Q370 0 305.5 27.5 Q241 55 193 103 Q145 151 117.5 215.5 Q90 280 90 353 L90 874 L325 874 L325 353 Q325 328 334.5 306.5 Q344 285 360 269 Q376 253 397.5 244 Q419 235 443 235 Q468 235 489.5 244 Q511 253 527 269 Q543 285 552 306.5 Q561 328 561 353 Z M443 1317 Q479 1317 510.5 1303.5 Q542 1290 565.5 1266.5 Q589 1243 602.5 1211.5 Q616 1180 616 1144 Q616 1108 602.5 1076.5 Q589 1045 565.5 1021.5 Q542 998 510.5 984.5 Q479 971 443 971 Q407 971 375.5 984.5 Q344 998 320.5 1021.5 Q297 1045 283.5 1076.5 Q270 1108 270 1144 Q270 1180 283.5 1211.5 Q297 1243 320.5 1266.5 Q344 1290 375.5 1303.5 Q407 1317 443 1317 Z M443 1082 Q468 1082 486 1100.5 Q504 1119 504 1144 Q504 1169 486 1187 Q468 1205 443 1205 Q418 1205 399.5 1187 Q381 1169 381 1144 Q381 1119 399.5 1100.5 Q418 1082 443 1082 Z " />
<glyph glyph-name="Utilde" unicode="&#x168;" horiz-adv-x="886" d="M561 353 L561 874 L796 874 L796 353 Q796 280 768.5 215.5 Q741 151 693 103 Q645 55 580.5 27.5 Q516 0 443 0 Q370 0 305.5 27.5 Q241 55 193 103 Q145 151 117.5 215.5 Q90 280 90 353 L90 874 L325 874 L325 353 Q325 328 334.5 306.5 Q344 285 360 269 Q376 253 397.5 244 Q419 235 443 235 Q468 235 489.5 244 Q511 253 527 269 Q543 285 552 306.5 Q561 328 561 353 Z M194 1199 Q225 1231 256 1241 Q287 1251 318 1247 Q349 1243 380 1228.5 Q411 1214 442.5 1198 Q474 1182 505 1167.5 Q536 1153 567 1149 Q598 1145 629 1155 Q660 1165 691 1197 L691 1005 Q649 962 608 957.5 Q567 953 525.5 967.5 Q484 982 442.5 1006 Q401 1030 359.5 1044.5 Q318 1059 277 1054.5 Q236 1050 194 1007 L194 1199 Z " />
<glyph glyph-name="Wacute" unicode="&#x1e82;" horiz-adv-x="1459" d="M1021 353 L1197 875 L1429 875 L1138 0 L905 0 L730 527 L554 0 L322 0 L30 875 L263 875 L438 353 L613 875 L846 875 L1021 353 Z M713 1006 L536 1006 L748 1397 L923 1282 L713 1006 Z " />
<glyph glyph-name="Wcircumflex" unicode="&#x174;" horiz-adv-x="1459" d="M1021 353 L1197 875 L1429 875 L1138 0 L905 0 L730 527 L554 0 L322 0 L30 875 L263 875 L438 353 L613 875 L846 875 L1021 353 Z M908 948 L756 1100 Q745 1111 728.5 1111 Q712 1111 701 1100 L549 948 L443 1054 L729 1340 L1015 1054 L909 948 L908 948 Z " />
<glyph glyph-name="Wdieresis" unicode="&#x1e84;" horiz-adv-x="1459" d="M1021 353 L1197 875 L1429 875 L1138 0 L905 0 L730 527 L554 0 L322 0 L30 875 L263 875 L438 353 L613 875 L846 875 L1021 353 Z M651 1116 Q651 1092 641.5 1070.5 Q632 1049 616 1033.5 Q600 1018 578.5 1008.5 Q557 999 533 999 Q509 999 487.5 1008.5 Q466 1018 450.5 1033.5 Q435 1049 425.5 1070.5 Q416 1092 416 1116 Q416 1140 425.5 1161.5 Q435 1183 450.5 1199 Q466 1215 487.5 1224.5 Q509 1234 533 1234 Q557 1234 578.5 1224.5 Q600 1215 616 1199 Q632 1183 641.5 1161.5 Q651 1140 651 1116 Z M1042 1116 Q1042 1092 1032.5 1070.5 Q1023 1049 1007 1033.5 Q991 1018 969.5 1008.5 Q948 999 924 999 Q900 999 878.5 1008.5 Q857 1018 841.5 1033.5 Q826 1049 816.5 1070.5 Q807 1092 807 1116 Q807 1140 816.5 1161.5 Q826 1183 841.5 1199 Q857 1215 878.5 1224.5 Q900 1234 924 1234 Q948 1234 969.5 1224.5 Q991 1215 1007 1199 Q1023 1183 1032.5 1161.5 Q1042 1140 1042 1116 Z " />
<glyph glyph-name="Wgrave" unicode="&#x1e80;" horiz-adv-x="1459" d="M1021 353 L1197 875 L1429 875 L1138 0 L905 0 L730 527 L554 0 L322 0 L30 875 L263 875 L438 353 L613 875 L846 875 L1021 353 Z M514 1294 L714 1426 L944 1006 L733 1006 L514 1294 Z " />
<glyph glyph-name="Yacute" unicode="&#xdd;" horiz-adv-x="1076" d="M425 410 Q425 426 415 436 L30 874 L294 874 L538 597 L782 874 L1046 874 L661 436 Q651 426 651 410 L651 0 L425 0 L425 410 Z M611 1006 L434 1006 L646 1397 L821 1282 L611 1006 Z " />
<glyph glyph-name="Ycircumflex" unicode="&#x176;" horiz-adv-x="1076" d="M425 410 Q425 426 415 436 L30 874 L294 874 L538 597 L782 874 L1046 874 L661 436 Q651 426 651 410 L651 0 L425 0 L425 410 Z M717 948 L565 1100 Q554 1111 537.5 1111 Q521 1111 510 1100 L358 948 L252 1054 L538 1340 L824 1054 L718 948 L717 948 Z " />
<glyph glyph-name="Ydieresis" unicode="&#x178;" horiz-adv-x="1076" d="M425 410 Q425 426 415 436 L30 874 L294 874 L538 597 L782 874 L1046 874 L661 436 Q651 426 651 410 L651 0 L425 0 L425 410 Z M851 1116 Q851 1092 841.5 1070.5 Q832 1049 816 1033.5 Q800 1018 778.5 1008.5 Q757 999 733 999 Q709 999 687.5 1008.5 Q666 1018 650.5 1033.5 Q635 1049 625.5 1070.5 Q616 1092 616 1116 Q616 1140 625.5 1161.5 Q635 1183 650.5 1199 Q666 1215 687.5 1224.5 Q709 1234 733 1234 Q757 1234 778.5 1224.5 Q800 1215 816 1199 Q832 1183 841.5 1161.5 Q851 1140 851 1116 Z M460 1116 Q460 1092 450.5 1070.5 Q441 1049 425 1033.5 Q409 1018 387.5 1008.5 Q366 999 342 999 Q318 999 296.5 1008.5 Q275 1018 259.5 1033.5 Q244 1049 234.5 1070.5 Q225 1092 225 1116 Q225 1140 234.5 1161.5 Q244 1183 259.5 1199 Q275 1215 296.5 1224.5 Q318 1234 342 1234 Q366 1234 387.5 1224.5 Q409 1215 425 1199 Q441 1183 450.5 1161.5 Q460 1140 460 1116 Z " />
<glyph glyph-name="Ygrave" unicode="&#x1ef2;" horiz-adv-x="1076" d="M425 410 Q425 426 415 436 L30 874 L294 874 L538 597 L782 874 L1046 874 L661 436 Q651 426 651 410 L651 0 L425 0 L425 410 Z M223 1294 L423 1426 L653 1006 L442 1006 L223 1294 Z " />
<glyph glyph-name="Zacute" unicode="&#x179;" horiz-adv-x="939" d="M879 875 L879 691 L374 183 L839 183 L839 0 L52 0 L52 183 L555 691 L52 691 L52 875 L879 875 Z M533 1006 L356 1006 L568 1397 L743 1282 L533 1006 Z " />
<glyph glyph-name="Zcaron" unicode="&#x17d;" horiz-adv-x="939" d="M879 875 L879 691 L374 183 L839 183 L839 0 L52 0 L52 183 L555 691 L52 691 L52 875 L879 875 Z M649 1340 L755 1234 L469 948 L183 1234 L289 1340 L441 1188 Q452 1177 468.5 1177 Q485 1177 496 1188 L572 1264 Q586 1278 600 1292 Q614 1306 624.5 1316.5 Q635 1327 642 1333.5 Q649 1340 649 1340 Z " />
<glyph glyph-name="Zdotaccent" unicode="&#x17b;" horiz-adv-x="939" d="M879 875 L879 691 L374 183 L839 183 L839 0 L52 0 L52 183 L555 691 L52 691 L52 875 L879 875 Z M587 1086 Q587 1062 577.5 1040.5 Q568 1019 552 1003.5 Q536 988 514.5 978.5 Q493 969 469 969 Q445 969 423.5 978.5 Q402 988 386.5 1003.5 Q371 1019 361.5 1040.5 Q352 1062 352 1086 Q352 1110 361.5 1131.5 Q371 1153 386.5 1169 Q402 1185 423.5 1194.5 Q445 1204 469 1204 Q493 1204 514.5 1194.5 Q536 1185 552 1169 Q568 1153 577.5 1131.5 Q587 1110 587 1086 Z " />
<glyph glyph-name="c" unicode="c" horiz-adv-x="847" d="M489 641 Q447 641 409.5 625 Q372 609 344.5 581.5 Q317 554 300.5 517 Q284 480 284 438 Q284 396 300 359 Q316 322 343.5 294 Q371 266 408 250 Q445 234 487 234 Q528 234 565 249.5 Q602 265 631 294 L797 128 Q735 66 654.5 33 Q574 0 487 0 Q397 0 317 34.5 Q237 69 178 128.5 Q119 188 84.5 268 Q50 348 50 438 Q50 528 84.5 608 Q119 688 178 747 Q237 806 317 840.5 Q397 875 487 875 Q574 875 654.5 842 Q735 809 797 747 L631 581 Q603 610 566 625.5 Q529 641 489 641 Z " />
<glyph glyph-name="cacute" unicode="&#x107;" horiz-adv-x="847" d="M489 641 Q447 641 409.5 625 Q372 609 344.5 581.5 Q317 554 300.5 517 Q284 480 284 438 Q284 396 300 359 Q316 322 343.5 294 Q371 266 408 250 Q445 234 487 234 Q528 234 565 249.5 Q602 265 631 294 L797 128 Q735 66 654.5 33 Q574 0 487 0 Q397 0 317 34.5 Q237 69 178 128.5 Q119 188 84.5 268 Q50 348 50 438 Q50 528 84.5 608 Q119 688 178 747 Q237 806 317 840.5 Q397 875 487 875 Q574 875 654.5 842 Q735 809 797 747 L631 581 Q603 610 566 625.5 Q529 641 489 641 Z M567 1006 L390 1006 L602 1397 L777 1282 L567 1006 Z " />
<glyph glyph-name="ccaron" unicode="&#x10d;" horiz-adv-x="847" d="M489 641 Q447 641 409.5 625 Q372 609 344.5 581.5 Q317 554 300.5 517 Q284 480 284 438 Q284 396 300 359 Q316 322 343.5 294 Q371 266 408 250 Q445 234 487 234 Q528 234 565 249.5 Q602 265 631 294 L797 128 Q735 66 654.5 33 Q574 0 487 0 Q397 0 317 34.5 Q237 69 178 128.5 Q119 188 84.5 268 Q50 348 50 438 Q50 528 84.5 608 Q119 688 178 747 Q237 806 317 840.5 Q397 875 487 875 Q574 875 654.5 842 Q735 809 797 747 L631 581 Q603 610 566 625.5 Q529 641 489 641 Z M653 1340 L759 1234 L473 948 L187 1234 L293 1340 L445 1188 Q456 1177 472.5 1177 Q489 1177 500 1188 L576 1264 Q590 1278 604 1292 Q618 1306 628.5 1316.5 Q639 1327 646 1333.5 Q653 1340 653 1340 Z " />
<glyph glyph-name="ccedilla" unicode="&#xe7;" horiz-adv-x="847" d="M489 641 Q447 641 409.5 625 Q372 609 344.5 581.5 Q317 554 300.5 517 Q284 480 284 438 Q284 396 300 359 Q316 322 343.5 294 Q371 266 408 250 Q445 234 487 234 Q528 234 565 249.5 Q602 265 631 294 L797 128 Q722 53 622 21 Q636 -2 642 -29.5 Q648 -57 645 -84 Q642 -111 630 -136.5 Q618 -162 598 -182 Q576 -204 544 -217 Q506 -232 466.5 -227.5 Q427 -223 394.5 -202 Q362 -181 341 -146 Q320 -111 320 -66 L429 -66 Q429 -85 439.5 -98 Q450 -111 465 -117 Q480 -123 497 -120 Q514 -117 526 -105 Q543 -88 543 -65 Q543 -42 526 -25 L500 0 Q407 0 325.5 33 Q244 66 182.5 124.5 Q121 183 85.5 263.5 Q50 344 50 438 Q50 528 84.5 608 Q119 688 178 747 Q237 806 317 840.5 Q397 875 487 875 Q574 875 654.5 842 Q735 809 797 747 L631 581 Q603 610 566 625.5 Q529 641 489 641 Z " />
<glyph glyph-name="ccircumflex" unicode="&#x109;" horiz-adv-x="847" d="M489 641 Q447 641 409.5 625 Q372 609 344.5 581.5 Q317 554 300.5 517 Q284 480 284 438 Q284 396 300 359 Q316 322 343.5 294 Q371 266 408 250 Q445 234 487 234 Q528 234 565 249.5 Q602 265 631 294 L797 128 Q735 66 654.5 33 Q574 0 487 0 Q397 0 317 34.5 Q237 69 178 128.5 Q119 188 84.5 268 Q50 348 50 438 Q50 528 84.5 608 Q119 688 178 747 Q237 806 317 840.5 Q397 875 487 875 Q574 875 654.5 842 Q735 809 797 747 L631 581 Q603 610 566 625.5 Q529 641 489 641 Z M682 948 L530 1100 Q519 1111 502.5 1111 Q486 1111 475 1100 L323 948 L217 1054 L503 1340 L789 1054 L683 948 L682 948 Z " />
<glyph glyph-name="cdotaccent" unicode="&#x10b;" horiz-adv-x="847" d="M489 641 Q447 641 409.5 625 Q372 609 344.5 581.5 Q317 554 300.5 517 Q284 480 284 438 Q284 396 300 359 Q316 322 343.5 294 Q371 266 408 250 Q445 234 487 234 Q528 234 565 249.5 Q602 265 631 294 L797 128 Q735 66 654.5 33 Q574 0 487 0 Q397 0 317 34.5 Q237 69 178 128.5 Q119 188 84.5 268 Q50 348 50 438 Q50 528 84.5 608 Q119 688 178 747 Q237 806 317 840.5 Q397 875 487 875 Q574 875 654.5 842 Q735 809 797 747 L631 581 Q603 610 566 625.5 Q529 641 489 641 Z M581 1086 Q581 1062 571.5 1040.5 Q562 1019 546 1003.5 Q530 988 508.5 978.5 Q487 969 463 969 Q439 969 417.5 978.5 Q396 988 380.5 1003.5 Q365 1019 355.5 1040.5 Q346 1062 346 1086 Q346 1110 355.5 1131.5 Q365 1153 380.5 1169 Q396 1185 417.5 1194.5 Q439 1204 463 1204 Q487 1204 508.5 1194.5 Q530 1185 546 1169 Q562 1153 571.5 1131.5 Q581 1110 581 1086 Z " />
<glyph glyph-name="d" unicode="d" horiz-adv-x="961" d="M459 875 Q549 875 629 840.5 Q709 806 768 746.5 Q827 687 861.5 607 Q896 527 896 437 Q896 347 861.5 267 Q827 187 768 128 Q709 69 629 34.5 Q549 0 459 0 L95 0 L95 875 L459 875 Z M662 436 Q662 476 646.5 513 Q631 550 604.5 578.5 Q578 607 542 624 Q506 641 465 641 L354 641 Q343 641 336 633.5 Q329 626 329 615 L329 259 Q329 248 336 241 Q343 234 354 234 L465 234 Q505 234 541 251 Q577 268 604 296 Q631 324 646.5 360.5 Q662 397 662 436 Z " />
<glyph glyph-name="dcaron" unicode="&#x10f;" horiz-adv-x="961" d="M459 875 Q549 875 629 840.5 Q709 806 768 746.5 Q827 687 861.5 607 Q896 527 896 437 Q896 347 861.5 267 Q827 187 768 128 Q709 69 629 34.5 Q549 0 459 0 L95 0 L95 875 L459 875 Z M662 436 Q662 476 646.5 513 Q631 550 604.5 578.5 Q578 607 542 624 Q506 641 465 641 L354 641 Q343 641 336 633.5 Q329 626 329 615 L329 259 Q329 248 336 241 Q343 234 354 234 L465 234 Q505 234 541 251 Q577 268 604 296 Q631 324 646.5 360.5 Q662 397 662 436 Z M618 1340 L724 1234 L438 948 L152 1234 L258 1340 L410 1188 Q421 1177 437.5 1177 Q454 1177 465 1188 L541 1264 Q555 1278 569 1292 Q583 1306 593.5 1316.5 Q604 1327 611 1333.5 Q618 1340 618 1340 Z " />
<glyph glyph-name="dcroat" unicode="&#x111;" horiz-adv-x="961" d="M-9 338 L-9 524 L95 524 L95 875 L459 875 Q549 875 629 840.5 Q709 806 768 746.5 Q827 687 861.5 607 Q896 527 896 437 Q896 347 861.5 267 Q827 187 768 128 Q709 69 629 34.5 Q549 0 459 0 L95 0 L95 338 L-9 338 Z M662 436 Q662 476 646.5 513 Q631 550 604.5 578.5 Q578 607 542 624 Q506 641 465 641 L354 641 Q343 641 336 633.5 Q329 626 329 615 L329 524 L498 524 L498 338 L329 338 L329 259 Q329 248 336 241 Q343 234 354 234 L465 234 Q505 234 541 251 Q577 268 604 296 Q631 324 646.5 360.5 Q662 397 662 436 Z " />
<glyph glyph-name="e" unicode="e" horiz-adv-x="848" d="M330 571 Q330 559 338 551 Q346 543 357 543 L783 543 L783 338 L357 338 Q346 338 338 330 Q330 322 330 311 L330 232 Q330 221 338 213 Q346 205 357 205 L783 205 L783 0 L95 0 L95 875 L783 874 L783 668 L357 668 Q346 668 338 659.5 Q330 651 330 640 L330 571 Z " />
<glyph glyph-name="eacute" unicode="&#xe9;" horiz-adv-x="848" d="M330 571 Q330 559 338 551 Q346 543 357 543 L783 543 L783 338 L357 338 Q346 338 338 330 Q330 322 330 311 L330 232 Q330 221 338 213 Q346 205 357 205 L783 205 L783 0 L95 0 L95 875 L783 874 L783 668 L357 668 Q346 668 338 659.5 Q330 651 330 640 L330 571 Z M447 1006 L270 1006 L482 1397 L657 1282 L447 1006 Z " />
<glyph glyph-name="ebreve" unicode="&#x115;" horiz-adv-x="848" d="M330 571 Q330 559 338 551 Q346 543 357 543 L783 543 L783 338 L357 338 Q346 338 338 330 Q330 322 330 311 L330 232 Q330 221 338 213 Q346 205 357 205 L783 205 L783 0 L95 0 L95 875 Q268 875 439 874.5 Q610 874 783 874 L783 668 L357 668 Q346 668 338 659.5 Q330 651 330 640 L330 571 Z M495 1232 L662 1232 Q662 1183 643 1139.5 Q624 1096 592 1064 Q560 1032 516.5 1013 Q473 994 424 994 Q375 994 331.5 1013 Q288 1032 256 1064 Q224 1096 205 1139.5 Q186 1183 186 1232 L353 1232 Q353 1203 374.5 1181.5 Q396 1160 425 1160 Q454 1160 474.5 1181.5 Q495 1203 495 1232 Z " />
<glyph glyph-name="ecaron" unicode="&#x11b;" horiz-adv-x="848" d="M330 571 Q330 559 338 551 Q346 543 357 543 L783 543 L783 338 L357 338 Q346 338 338 330 Q330 322 330 311 L330 232 Q330 221 338 213 Q346 205 357 205 L783 205 L783 0 L95 0 L95 875 L783 874 L783 668 L357 668 Q346 668 338 659.5 Q330 651 330 640 L330 571 Z M604 1340 L710 1234 L424 948 L138 1234 L244 1340 L396 1188 Q407 1177 423.5 1177 Q440 1177 451 1188 L527 1264 Q541 1278 555 1292 Q569 1306 579.5 1316.5 Q590 1327 597 1333.5 Q604 1340 604 1340 Z " />
<glyph glyph-name="ecircumflex" unicode="&#xea;" horiz-adv-x="848" d="M330 571 Q330 559 338 551 Q346 543 357 543 L783 543 L783 338 L357 338 Q346 338 338 330 Q330 322 330 311 L330 232 Q330 221 338 213 Q346 205 357 205 L783 205 L783 0 L95 0 L95 875 L783 874 L783 668 L357 668 Q346 668 338 659.5 Q330 651 330 640 L330 571 Z M603 948 L451 1100 Q440 1111 423.5 1111 Q407 1111 396 1100 L244 948 L138 1054 L424 1340 L710 1054 L604 948 L603 948 Z " />
<glyph glyph-name="edieresis" unicode="&#xeb;" horiz-adv-x="848" d="M330 571 Q330 559 338 551 Q346 543 357 543 L783 543 L783 338 L357 338 Q346 338 338 330 Q330 322 330 311 L330 232 Q330 221 338 213 Q346 205 357 205 L783 205 L783 0 L95 0 L95 875 L783 874 L783 668 L357 668 Q346 668 338 659.5 Q330 651 330 640 L330 571 Z M737 1116 Q737 1092 727.5 1070.5 Q718 1049 702 1033.5 Q686 1018 664.5 1008.5 Q643 999 619 999 Q595 999 573.5 1008.5 Q552 1018 536.5 1033.5 Q521 1049 511.5 1070.5 Q502 1092 502 1116 Q502 1140 511.5 1161.5 Q521 1183 536.5 1199 Q552 1215 573.5 1224.5 Q595 1234 619 1234 Q643 1234 664.5 1224.5 Q686 1215 702 1199 Q718 1183 727.5 1161.5 Q737 1140 737 1116 Z M346 1116 Q346 1092 336.5 1070.5 Q327 1049 311 1033.5 Q295 1018 273.5 1008.5 Q252 999 228 999 Q204 999 182.5 1008.5 Q161 1018 145.5 1033.5 Q130 1049 120.5 1070.5 Q111 1092 111 1116 Q111 1140 120.5 1161.5 Q130 1183 145.5 1199 Q161 1215 182.5 1224.5 Q204 1234 228 1234 Q252 1234 273.5 1224.5 Q295 1215 311 1199 Q327 1183 336.5 1161.5 Q346 1140 346 1116 Z " />
<glyph glyph-name="edotaccent" unicode="&#x117;" horiz-adv-x="848" d="M330 571 Q330 559 338 551 Q346 543 357 543 L783 543 L783 338 L357 338 Q346 338 338 330 Q330 322 330 311 L330 232 Q330 221 338 213 Q346 205 357 205 L783 205 L783 0 L95 0 L95 875 L783 874 L783 668 L357 668 Q346 668 338 659.5 Q330 651 330 640 L330 571 Z M541 1086 Q541 1062 531.5 1040.5 Q522 1019 506 1003.5 Q490 988 468.5 978.5 Q447 969 423 969 Q399 969 377.5 978.5 Q356 988 340.5 1003.5 Q325 1019 315.5 1040.5 Q306 1062 306 1086 Q306 1110 315.5 1131.5 Q325 1153 340.5 1169 Q356 1185 377.5 1194.5 Q399 1204 423 1204 Q447 1204 468.5 1194.5 Q490 1185 506 1169 Q522 1153 531.5 1131.5 Q541 1110 541 1086 Z " />
<glyph glyph-name="egrave" unicode="&#xe8;" horiz-adv-x="848" d="M330 571 Q330 559 338 551 Q346 543 357 543 L783 543 L783 338 L357 338 Q346 338 338 330 Q330 322 330 311 L330 232 Q330 221 338 213 Q346 205 357 205 L783 205 L783 0 L95 0 L95 875 L783 874 L783 668 L357 668 Q346 668 338 659.5 Q330 651 330 640 L330 571 Z M109 1294 L309 1426 L539 1006 L328 1006 L109 1294 Z " />
<glyph glyph-name="emacron" unicode="&#x113;" horiz-adv-x="848" d="M330 571 Q330 559 338 551 Q346 543 357 543 L783 543 L783 338 L357 338 Q346 338 338 330 Q330 322 330 311 L330 232 Q330 221 338 213 Q346 205 357 205 L783 205 L783 0 L95 0 L95 875 L783 874 L783 668 L357 668 Q346 668 338 659.5 Q330 651 330 640 L330 571 Z M170 1016 L170 1202 L677 1202 L677 1016 L170 1016 Z " />
<glyph glyph-name="eogonek" unicode="&#x119;" horiz-adv-x="848" d="M783 -202 Q741 -244 697 -265.5 Q653 -287 608 -287 Q563 -287 523 -269.5 Q483 -252 453.5 -222 Q424 -192 406.5 -151.5 Q389 -111 389 -66 Q389 -30 399 0 L95 0 L95 875 L783 874 L783 668 L357 668 Q346 668 338 659.5 Q330 651 330 640 L330 571 Q330 559 338 551 Q346 543 357 543 L783 543 L783 338 L357 338 Q346 338 338 330 Q330 322 330 311 L330 232 Q330 221 338 213 Q346 205 357 205 L783 205 L783 0 L615 0 Q582 -2 559.5 -20.5 Q537 -39 537 -65 Q537 -92 556 -111 Q575 -130 602 -130 Q616 -130 631.5 -121.5 Q647 -113 662 -98 L783 -202 Z " />
<glyph glyph-name="aacute" unicode="&#xe1;" horiz-adv-x="977" d="M749 875 L917 0 L683 0 L639 219 Q635 236 622 247.5 Q609 259 592 259 L397 259 Q380 259 366 248 Q352 237 349 220 L303 0 L60 0 L230 875 L749 875 Z M552 1006 L375 1006 L587 1397 L762 1282 L552 1006 Z M394 471 L595 471 L552 691 L438 691 L394 471 Z " />
<glyph glyph-name="abreve" unicode="&#x103;" horiz-adv-x="977" d="M749 875 L917 0 L683 0 L639 219 Q635 236 622 247.5 Q609 259 592 259 L397 259 Q380 259 366 248 Q352 237 349 220 L303 0 L60 0 L230 875 L749 875 Z M487 1160 Q516 1160 537.5 1181.5 Q559 1203 559 1232 L726 1232 Q726 1183 707 1139.5 Q688 1096 656 1064 Q624 1032 580.5 1013 Q537 994 488 994 Q439 994 395.5 1013 Q352 1032 320 1064 Q288 1096 269 1139.5 Q250 1183 250 1232 L417 1232 Q417 1203 437.5 1182 Q458 1161 487 1160 Z M394 471 L595 471 L552 691 L438 691 L394 471 Z " />
<glyph glyph-name="acircumflex" unicode="&#xe2;" horiz-adv-x="977" d="M749 875 L917 0 L683 0 L639 219 Q635 236 622 247.5 Q609 259 592 259 L397 259 Q380 259 366 248 Q352 237 349 220 L303 0 L60 0 L230 875 L749 875 Z M667 948 L515 1100 Q504 1111 487.5 1111 Q471 1111 460 1100 L308 948 L202 1054 L488 1340 L774 1054 L668 948 L667 948 Z M394 471 L595 471 L552 691 L438 691 L394 471 Z " />
<glyph glyph-name="adieresis" unicode="&#xe4;" horiz-adv-x="977" d="M749 875 L917 0 L683 0 L639 219 Q635 236 622 247.5 Q609 259 592 259 L397 259 Q380 259 366 248 Q352 237 349 220 L303 0 L60 0 L230 875 L749 875 Z M410 1116 Q410 1092 400.5 1070.5 Q391 1049 375 1033.5 Q359 1018 337.5 1008.5 Q316 999 292 999 Q268 999 246.5 1008.5 Q225 1018 209.5 1033.5 Q194 1049 184.5 1070.5 Q175 1092 175 1116 Q175 1140 184.5 1161.5 Q194 1183 209.5 1199 Q225 1215 246.5 1224.5 Q268 1234 292 1234 Q316 1234 337.5 1224.5 Q359 1215 375 1199 Q391 1183 400.5 1161.5 Q410 1140 410 1116 Z M801 1116 Q801 1092 791.5 1070.5 Q782 1049 766 1033.5 Q750 1018 728.5 1008.5 Q707 999 683 999 Q659 999 637.5 1008.5 Q616 1018 600.5 1033.5 Q585 1049 575.5 1070.5 Q566 1092 566 1116 Q566 1140 575.5 1161.5 Q585 1183 600.5 1199 Q616 1215 637.5 1224.5 Q659 1234 683 1234 Q707 1234 728.5 1224.5 Q750 1215 766 1199 Q782 1183 791.5 1161.5 Q801 1140 801 1116 Z M394 471 L595 471 L552 691 L438 691 L394 471 Z " />
<glyph glyph-name="agrave" unicode="&#xe0;" horiz-adv-x="977" d="M749 875 L917 0 L683 0 L639 219 Q635 236 622 247.5 Q609 259 592 259 L397 259 Q380 259 366 248 Q352 237 349 220 L303 0 L60 0 L230 875 L749 875 Z M183 1294 L383 1426 L613 1006 L402 1006 L183 1294 Z M394 471 L595 471 L552 691 L438 691 L394 471 Z " />
<glyph glyph-name="amacron" unicode="&#x101;" horiz-adv-x="977" d="M749 875 L917 0 L683 0 L639 219 Q635 236 622 247.5 Q609 259 592 259 L397 259 Q380 259 366 248 Q352 237 349 220 L303 0 L60 0 L230 875 L749 875 Z M235 1016 L235 1202 L742 1202 L742 1016 L235 1016 Z M394 471 L595 471 L552 691 L438 691 L394 471 Z " />
<glyph glyph-name="aogonek" unicode="&#x105;" horiz-adv-x="977" d="M844 -202 Q802 -244 758 -265.5 Q714 -287 669 -287 Q624 -287 584 -269.5 Q544 -252 514.5 -222 Q485 -192 467.5 -151.5 Q450 -111 450 -66 Q450 -24 465 13 Q480 50 506.5 78.5 Q533 107 570.5 125.5 Q608 144 653 149 L639 219 Q636 236 622.5 247.5 Q609 259 592 259 L397 259 Q380 259 366.5 248 Q353 237 349 220 L303 0 L60 0 L230 875 L749 875 L917 0 L683 0 Q648 0 623 -19 Q598 -38 598 -65 Q598 -92 617 -111 Q636 -130 663 -130 Q677 -130 692.5 -121.5 Q708 -113 723 -98 L844 -202 Z M394 471 L595 471 L552 691 L438 691 L394 471 Z " />
<glyph glyph-name="aring" unicode="&#xe5;" horiz-adv-x="977" d="M749 875 L917 0 L683 0 L639 219 Q635 236 622 247.5 Q609 259 592 259 L397 259 Q380 259 366 248 Q352 237 349 220 L303 0 L60 0 L230 875 L749 875 Z M488 1317 Q524 1317 555.5 1303.5 Q587 1290 610.5 1266.5 Q634 1243 647.5 1211.5 Q661 1180 661 1144 Q661 1108 647.5 1076.5 Q634 1045 610.5 1021.5 Q587 998 555.5 984.5 Q524 971 488 971 Q452 971 420.5 984.5 Q389 998 365.5 1021.5 Q342 1045 328.5 1076.5 Q315 1108 315 1144 Q315 1180 328.5 1211.5 Q342 1243 365.5 1266.5 Q389 1290 420.5 1303.5 Q452 1317 488 1317 Z M394 471 L595 471 L552 691 L438 691 L394 471 Z M488 1082 Q513 1082 531 1100.5 Q549 1119 549 1144 Q549 1169 531 1187 Q513 1205 488 1205 Q463 1205 444.5 1187 Q426 1169 426 1144 Q426 1119 444.5 1100.5 Q463 1082 488 1082 Z " />
<glyph glyph-name="atilde" unicode="&#xe3;" horiz-adv-x="977" d="M749 875 L917 0 L683 0 L639 219 Q635 236 622 247.5 Q609 259 592 259 L397 259 Q380 259 366 248 Q352 237 349 220 L303 0 L60 0 L230 875 L749 875 Z M240 1199 Q271 1231 302 1241 Q333 1251 364 1247 Q395 1243 426 1228.5 Q457 1214 488.5 1198 Q520 1182 551 1167.5 Q582 1153 613 1149 Q644 1145 675 1155 Q706 1165 737 1197 L737 1005 Q695 962 654 957.5 Q613 953 571.5 967.5 Q530 982 488.5 1006 Q447 1030 405.5 1044.5 Q364 1059 323 1054.5 Q282 1050 240 1007 L240 1199 Z M394 471 L595 471 L552 691 L438 691 L394 471 Z " />
<glyph glyph-name="h" unicode="h" horiz-adv-x="1014" d="M693 571 L693 875 L919 875 L919 0 L693 0 L693 310 Q693 321 685 329.5 Q677 338 666 338 L348 338 Q337 338 329 329.5 Q321 321 321 310 L321 0 L95 0 L95 875 L321 875 L321 571 Q321 560 329 551.5 Q337 543 348 543 L666 543 Q677 543 685 551.5 Q693 560 693 571 Z " />
<glyph glyph-name="hbar" unicode="&#x127;" horiz-adv-x="1014" d="M40 598 L40 803 L95 803 L95 875 L321 875 L321 803 L693 803 L693 875 L919 875 L919 803 L974 803 L974 598 L919 598 L919 0 L693 0 L693 310 Q693 321 685 329.5 Q677 338 666 338 L348 338 Q337 338 329 329.5 Q321 321 321 310 L321 0 L95 0 L95 598 L40 598 Z M693 571 L693 598 L321 598 L321 571 Q321 560 329 551.5 Q337 543 348 543 L666 543 Q677 543 685 551.5 Q693 560 693 571 Z " />
<glyph glyph-name="hcircumflex" unicode="&#x125;" horiz-adv-x="1014" d="M693 571 L693 875 L919 875 L919 0 L693 0 L693 310 Q693 321 685 329.5 Q677 338 666 338 L348 338 Q337 338 329 329.5 Q321 321 321 310 L321 0 L95 0 L95 875 L321 875 L321 571 Q321 560 329 551.5 Q337 543 348 543 L666 543 Q677 543 685 551.5 Q693 560 693 571 Z M686 948 L534 1100 Q523 1111 506.5 1111 Q490 1111 479 1100 L327 948 L221 1054 L507 1340 L793 1054 L687 948 L686 948 Z " />
<glyph glyph-name="i" unicode="i" horiz-adv-x="486" d="M130 0 L130 875 L356 875 L356 0 L130 0 Z " />
<glyph glyph-name="iacute" unicode="&#xed;" horiz-adv-x="486" d="M130 0 L130 875 L356 875 L356 0 L130 0 Z M347 1006 L170 1006 L382 1397 L557 1282 L347 1006 Z " />
<glyph glyph-name="ibreve" unicode="&#x12d;" horiz-adv-x="486" d="M130 0 L130 875 L356 875 L356 0 L130 0 Z M242 1160 Q271 1160 292.5 1181.5 Q314 1203 314 1232 L481 1232 Q481 1183 462 1139.5 Q443 1096 411 1064 Q379 1032 335.5 1013 Q292 994 243 994 Q194 994 150.5 1013 Q107 1032 75 1064 Q43 1096 24 1139.5 Q5 1183 5 1232 L172 1232 Q172 1203 192.5 1182 Q213 1161 242 1160 Z " />
<glyph glyph-name="icircumflex" unicode="&#xee;" horiz-adv-x="486" d="M130 0 L130 875 L356 875 L356 0 L130 0 Z M422 948 L270 1100 Q259 1111 242.5 1111 Q226 1111 215 1100 L63 948 L-43 1054 L243 1340 L529 1054 L423 948 L422 948 Z " />
<glyph glyph-name="idieresis" unicode="&#xef;" horiz-adv-x="486" d="M130 0 L130 875 L356 875 L356 0 L130 0 Z M165 1116 Q165 1092 155.5 1070.5 Q146 1049 130 1033.5 Q114 1018 92.5 1008.5 Q71 999 47 999 Q23 999 1.5 1008.5 Q-20 1018 -35.5 1033.5 Q-51 1049 -60.5 1070.5 Q-70 1092 -70 1116 Q-70 1140 -60.5 1161.5 Q-51 1183 -35.5 1199 Q-20 1215 1.5 1224.5 Q23 1234 47 1234 Q71 1234 92.5 1224.5 Q114 1215 130 1199 Q146 1183 155.5 1161.5 Q165 1140 165 1116 Z M556 1116 Q556 1092 546.5 1070.5 Q537 1049 521 1033.5 Q505 1018 483.5 1008.5 Q462 999 438 999 Q414 999 392.5 1008.5 Q371 1018 355.5 1033.5 Q340 1049 330.5 1070.5 Q321 1092 321 1116 Q321 1140 330.5 1161.5 Q340 1183 355.5 1199 Q371 1215 392.5 1224.5 Q414 1234 438 1234 Q462 1234 483.5 1224.5 Q505 1215 521 1199 Q537 1183 546.5 1161.5 Q556 1140 556 1116 Z " />
<glyph glyph-name="igrave" unicode="&#xec;" horiz-adv-x="486" d="M130 0 L130 875 L356 875 L356 0 L130 0 Z M360 1086 Q360 1062 350.5 1040.5 Q341 1019 325 1003.5 Q309 988 287.5 978.5 Q266 969 242 969 Q218 969 196.5 978.5 Q175 988 159.5 1003.5 Q144 1019 134.5 1040.5 Q125 1062 125 1086 Q125 1110 134.5 1131.5 Q144 1153 159.5 1169 Q175 1185 196.5 1194.5 Q218 1204 242 1204 Q266 1204 287.5 1194.5 Q309 1185 325 1169 Q341 1153 350.5 1131.5 Q360 1110 360 1086 Z " />
<glyph glyph-name="imacron" unicode="&#x12b;" horiz-adv-x="486" d="M130 0 L130 875 L356 875 L356 0 L130 0 Z M-92 1294 L108 1426 L338 1006 L127 1006 L-92 1294 Z " />
<glyph glyph-name="iogonek" unicode="&#x12f;" horiz-adv-x="486" d="M130 0 L130 875 L356 875 L356 0 L130 0 Z M-10 1016 L-10 1202 L497 1202 L497 1016 L-10 1016 Z " />
<glyph glyph-name="itilde" unicode="&#x129;" horiz-adv-x="486" d="M356 -202 Q314 -244 270 -265.5 Q226 -287 181 -287 Q136 -287 96 -269.5 Q56 -252 26.5 -222 Q-3 -192 -20.5 -151.5 Q-38 -111 -38 -66 Q-38 -29 -26 5 Q-14 39 8 66.5 Q30 94 61 114 Q92 134 130 143 L130 875 L356 875 L356 0 L188 0 Q155 -2 132.5 -20.5 Q110 -39 110 -65 Q110 -92 129 -111 Q148 -130 175 -130 Q189 -130 204.5 -121.5 Q220 -113 235 -98 L356 -202 Z " />
<glyph glyph-name="ij" unicode="&#x133;" horiz-adv-x="486" d="M130 0 L130 875 L356 875 L356 0 L130 0 Z M-5 1199 Q26 1231 57 1241 Q88 1251 119 1247 Q150 1243 181 1228.5 Q212 1214 243.5 1198 Q275 1182 306 1167.5 Q337 1153 368 1149 Q399 1145 430 1155 Q461 1165 492 1197 L492 1005 Q461 973 430 963 Q399 953 368 957 Q337 961 306 975.5 Q275 990 243.5 1006 Q212 1022 181 1036.5 Q150 1051 119 1055 Q88 1059 57 1049 Q26 1039 -5 1007 L-5 1199 Z " />
<glyph glyph-name="j" unicode="j" horiz-adv-x="728" d="M403 357 L403 874 L638 874 L638 353 Q638 280 610.5 215.5 Q583 151 535 103 Q487 55 422.5 27.5 Q358 0 285 0 Q211 0 147 27.5 Q83 55 35 103 L193 262 Q210 245 231.5 240 Q253 235 279 235 Q304 235 327 244.5 Q350 254 366.5 270.5 Q383 287 393 309.5 Q403 332 403 357 Z " />
<glyph glyph-name="jcircumflex" unicode="&#x135;" horiz-adv-x="728" d="M403 357 L403 874 L638 874 L638 353 Q638 280 610.5 215.5 Q583 151 535 103 Q487 55 422.5 27.5 Q358 0 285 0 Q211 0 147 27.5 Q83 55 35 103 L193 262 Q210 245 231.5 240 Q253 235 279 235 Q304 235 327 244.5 Q350 254 366.5 270.5 Q383 287 393 309.5 Q403 332 403 357 Z M703 948 L551 1100 Q540 1111 523.5 1111 Q507 1111 496 1100 L344 948 L238 1054 L524 1340 L810 1054 L704 948 L703 948 Z " />
<glyph glyph-name="k" unicode="k" horiz-adv-x="1031" d="M991 875 L605 438 L991 0 L714 0 L427 324 Q416 338 398 338 L348 338 Q337 338 329 329.5 Q321 321 321 310 L321 0 L95 0 L95 875 L321 875 L321 571 Q321 560 329 551.5 Q337 543 348 543 L403 543 Q421 543 433 557 L713 875 L991 875 Z " />
<glyph glyph-name="kcommaaccent" unicode="&#x137;" horiz-adv-x="1031" d="M991 875 L605 438 L991 0 L714 0 L427 324 Q416 338 398 338 L348 338 Q337 338 329 329.5 Q321 321 321 310 L321 0 L95 0 L95 875 L321 875 L321 571 Q321 560 329 551.5 Q337 543 348 543 L403 543 Q421 543 433 557 L713 875 L991 875 Z M420 -142 L611 -142 L589 -423 L420 -423 L420 -142 Z " />
<glyph glyph-name="l" unicode="l" horiz-adv-x="818" d="M330 875 L330 248 Q330 228 341 216.5 Q352 205 372 205 L783 205 L783 0 L95 0 L95 875 L330 875 Z " />
<glyph glyph-name="lacute" unicode="&#x13a;" horiz-adv-x="818" d="M330 875 L330 248 Q330 228 341 216.5 Q352 205 372 205 L783 205 L783 0 L95 0 L95 875 L330 875 Z M334 1006 L157 1006 L369 1397 L544 1282 L334 1006 Z " />
<glyph glyph-name="lcaron" unicode="&#x13e;" horiz-adv-x="818" d="M330 875 L330 248 Q330 228 341 216.5 Q352 205 372 205 L783 205 L783 0 L95 0 L95 875 L330 875 Z M588 786 L779 786 L757 505 L588 505 L588 786 Z " />
<glyph glyph-name="lcommaaccent" unicode="&#x13c;" horiz-adv-x="818" d="M330 875 L330 248 Q330 228 341 216.5 Q352 205 372 205 L783 205 L783 0 L95 0 L95 875 L330 875 Z M254 -142 L445 -142 L423 -423 L254 -423 L254 -142 Z " />
<glyph glyph-name="ldot" unicode="&#x140;" horiz-adv-x="818" d="M330 875 L330 248 Q330 228 341 216.5 Q352 205 372 205 L783 205 L783 0 L95 0 L95 875 L330 875 Z M648 503 Q648 479 638.5 457.5 Q629 436 613 420.5 Q597 405 575.5 395.5 Q554 386 530 386 Q506 386 484.5 395.5 Q463 405 447.5 420.5 Q432 436 422.5 457.5 Q413 479 413 503 Q413 527 422.5 548.5 Q432 570 447.5 586 Q463 602 484.5 611.5 Q506 621 530 621 Q554 621 575.5 611.5 Q597 602 613 586 Q629 570 638.5 548.5 Q648 527 648 503 Z " />
<glyph glyph-name="lslash" unicode="&#x142;" horiz-adv-x="818" d="M30 338 L30 543 L95 543 L95 875 L330 875 L330 543 L503 543 L503 338 L330 338 L330 248 Q330 228 341 216.5 Q352 205 372 205 L783 205 L783 0 L95 0 L95 338 L30 338 Z " />
<glyph glyph-name="n" unicode="n" horiz-adv-x="1069" d="M739 346 L739 875 L974 875 L974 0 L746 0 L331 536 L331 0 L95 0 L95 875 L324 875 L739 346 Z " />
<glyph glyph-name="nacute" unicode="&#x144;" horiz-adv-x="1069" d="M739 346 L739 875 L974 875 L974 0 L746 0 L331 536 L331 0 L95 0 L95 875 L324 875 L739 346 Z M598 1006 L421 1006 L633 1397 L808 1282 L598 1006 Z " />
<glyph glyph-name="ntilde" unicode="&#xf1;" horiz-adv-x="1069" d="M739 346 L739 875 L974 875 L974 0 L746 0 L331 536 L331 0 L95 0 L95 875 L324 875 L739 346 Z M286 1199 Q317 1231 348 1241 Q379 1251 410 1247 Q441 1243 472 1228.5 Q503 1214 534.5 1198 Q566 1182 597 1167.5 Q628 1153 659 1149 Q690 1145 721 1155 Q752 1165 783 1197 L783 1005 Q752 973 721 963 Q690 953 659 957 Q628 961 597 975.5 Q566 990 534.5 1006 Q503 1022 472 1036.5 Q441 1051 410 1055 Q379 1059 348 1049 Q317 1039 286 1007 L286 1199 Z " />
<glyph glyph-name="ncommaaccent" unicode="&#x146;" horiz-adv-x="1069" d="M739 346 L739 875 L974 875 L974 0 L746 0 L331 536 L331 0 L95 0 L95 875 L324 875 L739 346 Z M439 -142 L630 -142 L608 -423 L439 -423 L439 -142 Z " />
<glyph glyph-name="ncaron" unicode="&#x148;" horiz-adv-x="1069" d="M739 346 L739 875 L974 875 L974 0 L746 0 L331 536 L331 0 L95 0 L95 875 L324 875 L739 346 Z M714 1340 L820 1234 L534 948 L248 1234 L354 1340 L506 1188 Q517 1177 533.5 1177 Q550 1177 561 1188 L637 1264 Q651 1278 665 1292 Q679 1306 689.5 1316.5 Q700 1327 707 1333.5 Q714 1340 714 1340 Z " />
<glyph glyph-name="napostrophe" unicode="&#x149;" horiz-adv-x="1069" d="M739 346 L739 875 L974 875 L974 0 L746 0 L331 536 L331 0 L95 0 L95 875 L324 875 L739 346 Z M95 -142 L286 -142 L264 -423 L95 -423 L95 -142 Z " />
<glyph glyph-name="o" unicode="o" horiz-adv-x="994" d="M497 233 Q539 233 576 249 Q613 265 641 292.5 Q669 320 685 357.5 Q701 395 701 437 Q701 479 685 516 Q669 553 641 580.5 Q613 608 576 624 Q539 640 497 640 Q455 640 418 624 Q381 608 353.5 580.5 Q326 553 310 516 Q294 479 294 437 Q294 395 310 357.5 Q326 320 353.5 292.5 Q381 265 418 249 Q455 233 497 233 Z M497 874 Q588 874 667.5 839.5 Q747 805 806 746 Q865 687 899.5 607 Q934 527 934 437 Q934 346 899.5 266.5 Q865 187 806 127.5 Q747 68 667.5 34 Q588 0 497 0 Q407 0 327 34 Q247 68 188 127.5 Q129 187 94.5 266.5 Q60 346 60 437 Q60 527 94.5 607 Q129 687 188 746 Q247 805 327 839.5 Q407 874 497 874 Z " />
<glyph glyph-name="oacute" unicode="&#xf3;" horiz-adv-x="994" d="M497 233 Q539 233 576 249 Q613 265 641 292.5 Q669 320 685 357.5 Q701 395 701 437 Q701 479 685 516 Q669 553 641 580.5 Q613 608 576 624 Q539 640 497 640 Q455 640 418 624 Q381 608 353.5 580.5 Q326 553 310 516 Q294 479 294 437 Q294 395 310 357.5 Q326 320 353.5 292.5 Q381 265 418 249 Q455 233 497 233 Z M497 874 Q588 874 667.5 839.5 Q747 805 806 746 Q865 687 899.5 607 Q934 527 934 437 Q934 346 899.5 266.5 Q865 187 806 127.5 Q747 68 667.5 34 Q588 0 497 0 Q407 0 327 34 Q247 68 188 127.5 Q129 187 94.5 266.5 Q60 346 60 437 Q60 527 94.5 607 Q129 687 188 746 Q247 805 327 839.5 Q407 874 497 874 Z M560 1006 L383 1006 L595 1397 L770 1282 L560 1006 Z " />
<glyph glyph-name="obreve" unicode="&#x14f;" horiz-adv-x="994" d="M497 874 Q588 874 667.5 839.5 Q747 805 806 746 Q865 687 899.5 607 Q934 527 934 437 Q934 346 899.5 266.5 Q865 187 806 127.5 Q747 68 667.5 34 Q588 0 497 0 Q407 0 327 34 Q247 68 188 127.5 Q129 187 94.5 266.5 Q60 346 60 437 Q60 527 94.5 607 Q129 687 188 746 Q247 805 327 839.5 Q407 874 497 874 Z M497 233 Q539 233 576 249 Q613 265 641 292.5 Q669 320 685 357.5 Q701 395 701 437 Q701 479 685 516 Q669 553 641 580.5 Q613 608 576 624 Q539 640 497 640 Q455 640 418 624 Q381 608 353.5 580.5 Q326 553 310 516 Q294 479 294 437 Q294 395 310 357.5 Q326 320 353.5 292.5 Q381 265 418 249 Q455 233 497 233 Z M568 1232 L735 1232 Q735 1183 716 1139.5 Q697 1096 665 1064 Q633 1032 589.5 1013 Q546 994 497 994 Q448 994 404.5 1013 Q361 1032 329 1064 Q297 1096 278 1139.5 Q259 1183 259 1232 L426 1232 Q426 1203 447.5 1181.5 Q469 1160 498 1160 Q527 1161 547.5 1182 Q568 1203 568 1232 Z " />
<glyph glyph-name="ocircumflex" unicode="&#xf4;" horiz-adv-x="994" d="M497 874 Q588 874 667.5 839.5 Q747 805 806 746 Q865 687 899.5 607 Q934 527 934 437 Q934 346 899.5 266.5 Q865 187 806 127.5 Q747 68 667.5 34 Q588 0 497 0 Q407 0 327 34 Q247 68 188 127.5 Q129 187 94.5 266.5 Q60 346 60 437 Q60 527 94.5 607 Q129 687 188 746 Q247 805 327 839.5 Q407 874 497 874 Z M497 233 Q539 233 576 249 Q613 265 641 292.5 Q669 320 685 357.5 Q701 395 701 437 Q701 479 685 516 Q669 553 641 580.5 Q613 608 576 624 Q539 640 497 640 Q455 640 418 624 Q381 608 353.5 580.5 Q326 553 310 516 Q294 479 294 437 Q294 395 310 357.5 Q326 320 353.5 292.5 Q381 265 418 249 Q455 233 497 233 Z M676 948 L524 1100 Q513 1111 496.5 1111 Q480 1111 469 1100 L317 948 L211 1054 L497 1340 L783 1054 L677 948 L676 948 Z " />
<glyph glyph-name="odieresis" unicode="&#xf6;" horiz-adv-x="994" d="M497 233 Q539 233 576 249 Q613 265 641 292.5 Q669 320 685 357.5 Q701 395 701 437 Q701 479 685 516 Q669 553 641 580.5 Q613 608 576 624 Q539 640 497 640 Q455 640 418 624 Q381 608 353.5 580.5 Q326 553 310 516 Q294 479 294 437 Q294 395 310 357.5 Q326 320 353.5 292.5 Q381 265 418 249 Q455 233 497 233 Z M497 874 Q588 874 667.5 839.5 Q747 805 806 746 Q865 687 899.5 607 Q934 527 934 437 Q934 346 899.5 266.5 Q865 187 806 127.5 Q747 68 667.5 34 Q588 0 497 0 Q407 0 327 34 Q247 68 188 127.5 Q129 187 94.5 266.5 Q60 346 60 437 Q60 527 94.5 607 Q129 687 188 746 Q247 805 327 839.5 Q407 874 497 874 Z M810 1116 Q810 1092 800.5 1070.5 Q791 1049 775 1033.5 Q759 1018 737.5 1008.5 Q716 999 692 999 Q668 999 646.5 1008.5 Q625 1018 609.5 1033.5 Q594 1049 584.5 1070.5 Q575 1092 575 1116 Q575 1140 584.5 1161.5 Q594 1183 609.5 1199 Q625 1215 646.5 1224.5 Q668 1234 692 1234 Q716 1234 737.5 1224.5 Q759 1215 775 1199 Q791 1183 800.5 1161.5 Q810 1140 810 1116 Z M419 1116 Q419 1092 409.5 1070.5 Q400 1049 384 1033.5 Q368 1018 346.5 1008.5 Q325 999 301 999 Q277 999 255.5 1008.5 Q234 1018 218.5 1033.5 Q203 1049 193.5 1070.5 Q184 1092 184 1116 Q184 1140 193.5 1161.5 Q203 1183 218.5 1199 Q234 1215 255.5 1224.5 Q277 1234 301 1234 Q325 1234 346.5 1224.5 Q368 1215 384 1199 Q400 1183 409.5 1161.5 Q419 1140 419 1116 Z " />
<glyph glyph-name="ograve" unicode="&#xf2;" horiz-adv-x="994" d="M497 233 Q539 233 576 249 Q613 265 641 292.5 Q669 320 685 357.5 Q701 395 701 437 Q701 479 685 516 Q669 553 641 580.5 Q613 608 576 624 Q539 640 497 640 Q455 640 418 624 Q381 608 353.5 580.5 Q326 553 310 516 Q294 479 294 437 Q294 395 310 357.5 Q326 320 353.5 292.5 Q381 265 418 249 Q455 233 497 233 Z M497 874 Q588 874 667.5 839.5 Q747 805 806 746 Q865 687 899.5 607 Q934 527 934 437 Q934 346 899.5 266.5 Q865 187 806 127.5 Q747 68 667.5 34 Q588 0 497 0 Q407 0 327 34 Q247 68 188 127.5 Q129 187 94.5 266.5 Q60 346 60 437 Q60 527 94.5 607 Q129 687 188 746 Q247 805 327 839.5 Q407 874 497 874 Z M202 1294 L402 1426 L632 1006 L421 1006 L202 1294 Z " />
<glyph glyph-name="ohungarumlaut" unicode="&#x151;" horiz-adv-x="994" d="M497 233 Q539 233 576 249 Q613 265 641 292.5 Q669 320 685 357.5 Q701 395 701 437 Q701 479 685 516 Q669 553 641 580.5 Q613 608 576 624 Q539 640 497 640 Q455 640 418 624 Q381 608 353.5 580.5 Q326 553 310 516 Q294 479 294 437 Q294 395 310 357.5 Q326 320 353.5 292.5 Q381 265 418 249 Q455 233 497 233 Z M497 874 Q588 874 667.5 839.5 Q747 805 806 746 Q865 687 899.5 607 Q934 527 934 437 Q934 346 899.5 266.5 Q865 187 806 127.5 Q747 68 667.5 34 Q588 0 497 0 Q407 0 327 34 Q247 68 188 127.5 Q129 187 94.5 266.5 Q60 346 60 437 Q60 527 94.5 607 Q129 687 188 746 Q247 805 327 839.5 Q407 874 497 874 Z M407 1006 L230 1006 L442 1397 L617 1282 L407 1006 Z M714 1006 L537 1006 L749 1397 L924 1282 L714 1006 Z " />
<glyph glyph-name="omacron" unicode="&#x14d;" horiz-adv-x="994" d="M497 874 Q588 874 667.5 839.5 Q747 805 806 746 Q865 687 899.5 607 Q934 527 934 437 Q934 346 899.5 266.5 Q865 187 806 127.5 Q747 68 667.5 34 Q588 0 497 0 Q407 0 327 34 Q247 68 188 127.5 Q129 187 94.5 266.5 Q60 346 60 437 Q60 527 94.5 607 Q129 687 188 746 Q247 805 327 839.5 Q407 874 497 874 Z M497 233 Q539 233 576 249 Q613 265 641 292.5 Q669 320 685 357.5 Q701 395 701 437 Q701 479 685 516 Q669 553 641 580.5 Q613 608 576 624 Q539 640 497 640 Q455 640 418 624 Q381 608 353.5 580.5 Q326 553 310 516 Q294 479 294 437 Q294 395 310 357.5 Q326 320 353.5 292.5 Q381 265 418 249 Q455 233 497 233 Z M243 1016 L243 1202 L750 1202 L750 1016 L243 1016 Z " />
<glyph glyph-name="oslash" unicode="&#xf8;" horiz-adv-x="994" d="M203 -21 L244 80 Q160 140 110 232.5 Q60 325 60 437 Q60 527 94.5 607 Q129 687 188 746 Q247 805 327 839.5 Q407 874 497 874 Q532 874 567 868 L612 979 L775 920 L729 807 Q775 778 813 738.5 Q851 699 878 651.5 Q905 604 919.5 549.5 Q934 495 934 437 Q934 346 899.5 266.5 Q865 187 806 127.5 Q747 68 667.5 34 Q588 0 497 0 Q472 0 449 2.5 Q426 5 403 10 L366 -80 L203 -21 Z M497 233 Q539 233 576 249 Q613 265 641 292.5 Q669 320 685 357.5 Q701 395 701 437 Q701 481 683.5 518.5 Q666 556 637 584 L494 233 L497 233 Z M294 437 Q294 401 305.5 368 Q317 335 338 309 L472 638 Q457 636 443 632 Q429 628 415 622 Q361 599 327.5 549.5 Q294 500 294 437 Z " />
<glyph glyph-name="oslashacute" unicode="&#x1ff;" horiz-adv-x="994" d="M203 -21 L244 80 Q160 140 110 232.5 Q60 325 60 437 Q60 527 94.5 607 Q129 687 188 746 Q247 805 327 839.5 Q407 874 497 874 Q532 874 567 868 L612 979 L775 920 L729 807 Q775 778 813 738.5 Q851 699 878 651.5 Q905 604 919.5 549.5 Q934 495 934 437 Q934 346 899.5 266.5 Q865 187 806 127.5 Q747 68 667.5 34 Q588 0 497 0 Q472 0 449 2.5 Q426 5 403 10 L366 -80 L203 -21 Z M480 1006 L303 1006 L515 1397 L690 1282 L480 1006 Z M497 233 Q539 233 576 249 Q613 265 641 292.5 Q669 320 685 357.5 Q701 395 701 437 Q701 481 683.5 518.5 Q666 556 637 584 L494 233 L497 233 Z M294 437 Q294 401 305.5 368 Q317 335 338 309 L472 638 Q457 636 443 632 Q429 628 415 622 Q361 599 327.5 549.5 Q294 500 294 437 Z " />
<glyph glyph-name="otilde" unicode="&#xf5;" horiz-adv-x="994" d="M497 874 Q588 874 667.5 839.5 Q747 805 806 746 Q865 687 899.5 607 Q934 527 934 437 Q934 346 899.5 266.5 Q865 187 806 127.5 Q747 68 667.5 34 Q588 0 497 0 Q407 0 327 34 Q247 68 188 127.5 Q129 187 94.5 266.5 Q60 346 60 437 Q60 527 94.5 607 Q129 687 188 746 Q247 805 327 839.5 Q407 874 497 874 Z M497 233 Q539 233 576 249 Q613 265 641 292.5 Q669 320 685 357.5 Q701 395 701 437 Q701 479 685 516 Q669 553 641 580.5 Q613 608 576 624 Q539 640 497 640 Q455 640 418 624 Q381 608 353.5 580.5 Q326 553 310 516 Q294 479 294 437 Q294 395 310 357.5 Q326 320 353.5 292.5 Q381 265 418 249 Q455 233 497 233 Z M248 1199 Q279 1231 310 1241 Q341 1251 372 1247 Q403 1243 434 1228.5 Q465 1214 496.5 1198 Q528 1182 559 1167.5 Q590 1153 621 1149 Q652 1145 683 1155 Q714 1165 745 1197 L745 1005 Q703 962 662 957.5 Q621 953 579.5 967.5 Q538 982 496.5 1006 Q455 1030 413.5 1044.5 Q372 1059 331 1054.5 Q290 1050 248 1007 L248 1199 Z " />
<glyph glyph-name="oe" unicode="&#x153;" horiz-adv-x="1330" d="M1265 874 L1265 668 L750 668 Q739 668 731 659.5 Q723 651 723 640 L723 571 Q723 559 731 551 Q739 543 750 543 L1265 543 L1265 338 L750 338 Q739 338 731 330 Q723 322 723 311 L723 232 Q723 221 731 213 Q739 205 750 205 L1265 205 L1265 0 L497 0 Q407 0 327 34 Q247 68 188 127.5 Q129 187 94.5 266.5 Q60 346 60 437 Q60 527 94.5 607 Q129 687 188 746.5 Q247 806 327 840.5 Q407 875 497 875 L1265 874 Z M497 672 Q448 672 405.5 653.5 Q363 635 331 603 Q299 571 280.5 528 Q262 485 262 437 Q262 388 280.5 345 Q299 302 331 270 Q363 238 405.5 219.5 Q448 201 497 201 L497 672 Z " />
<glyph glyph-name="R" unicode="R" horiz-adv-x="968" d="M919 598 Q919 524 885 466 Q851 408 788 376 Q777 371 770 366.5 Q763 362 757 354 Q753 349 751.5 338 Q750 327 758 312 Q763 301 775 277 Q787 253 802.5 221.5 Q818 190 835.5 155.5 Q853 121 868.5 90 Q884 59 896 34.5 Q908 10 913 0 L681 0 L511 338 L370 338 Q353 338 341.5 326.5 Q330 315 330 298 L330 0 L95 0 L95 875 L646 875 Q703 875 753 853 Q803 831 840 793.5 Q877 756 898 705.5 Q919 655 919 598 Z M610 523 Q644 523 669 547.5 Q694 572 694 606 Q694 642 669.5 666.5 Q645 691 608 691 L370 691 Q353 691 341.5 680 Q330 669 330 652 L330 562 Q330 545 341.5 534 Q353 523 370 523 L610 523 Z " />
<glyph glyph-name="Racute" unicode="&#x154;" horiz-adv-x="968" d="M919 598 Q919 524 885 466 Q851 408 788 376 Q777 371 770 366.5 Q763 362 757 354 Q753 349 751.5 338 Q750 327 758 312 Q763 301 775 277 Q787 253 802.5 221.5 Q818 190 835.5 155.5 Q853 121 868.5 90 Q884 59 896 34.5 Q908 10 913 0 L681 0 L511 338 L370 338 Q353 338 341.5 326.5 Q330 315 330 298 L330 0 L95 0 L95 875 L646 875 Q703 875 753 853 Q803 831 840 793.5 Q877 756 898 705.5 Q919 655 919 598 Z M610 523 Q644 523 669 547.5 Q694 572 694 606 Q694 642 669.5 666.5 Q645 691 608 691 L370 691 Q353 691 341.5 680 Q330 669 330 652 L330 562 Q330 545 341.5 534 Q353 523 370 523 L610 523 Z M467 1006 L290 1006 L502 1397 L677 1282 L467 1006 Z " />
<glyph glyph-name="Rcaron" unicode="&#x158;" horiz-adv-x="968" d="M919 598 Q919 524 885 466 Q851 408 788 376 Q777 371 770 366.5 Q763 362 757 354 Q753 349 751.5 338 Q750 327 758 312 Q797 234 835.5 156 Q874 78 913 0 L681 0 L511 338 L370 338 Q353 338 341.5 326.5 Q330 315 330 298 L330 0 L95 0 L95 875 L646 875 Q703 875 753 853 Q803 831 840 793.5 Q877 756 898 705.5 Q919 655 919 598 Z M664 1340 L770 1234 L484 948 L198 1234 L304 1340 L456 1188 Q467 1177 483.5 1177 Q500 1177 511 1188 L587 1264 Q601 1278 615 1292 Q629 1306 639.5 1316.5 Q650 1327 657 1333.5 Q664 1340 664 1340 Z M610 523 Q644 523 669 547.5 Q694 572 694 606 Q694 642 669.5 666.5 Q645 691 608 691 L370 691 Q353 691 341.5 680 Q330 669 330 652 L330 562 Q330 545 341.5 534 Q353 523 370 523 L610 523 Z " />
<glyph glyph-name="Rcommaaccent" unicode="&#x156;" horiz-adv-x="968" d="M919 598 Q919 524 885 466 Q851 408 788 376 Q777 371 770 366.5 Q763 362 757 354 Q753 349 751.5 338 Q750 327 758 312 Q797 234 835.5 156 Q874 78 913 0 L681 0 L511 338 L370 338 Q353 338 341.5 326.5 Q330 315 330 298 L330 0 L95 0 L95 875 L646 875 Q703 875 753 853 Q803 831 840 793.5 Q877 756 898 705.5 Q919 655 919 598 Z M610 523 Q644 523 669 547.5 Q694 572 694 606 Q694 642 669.5 666.5 Q645 691 608 691 L370 691 Q353 691 341.5 680 Q330 669 330 652 L330 562 Q330 545 341.5 534 Q353 523 370 523 L610 523 Z M388 -142 L579 -142 L557 -423 L388 -423 L388 -142 Z " />
<glyph glyph-name="r" unicode="r" horiz-adv-x="968" d="M919 598 Q919 524 885 466 Q851 408 788 376 Q777 371 770 366.5 Q763 362 757 354 Q753 349 751.5 338 Q750 327 758 312 Q763 301 775 277 Q787 253 802.5 221.5 Q818 190 835.5 155.5 Q853 121 868.5 90 Q884 59 896 34.5 Q908 10 913 0 L681 0 L511 338 L370 338 Q353 338 341.5 326.5 Q330 315 330 298 L330 0 L95 0 L95 875 L646 875 Q703 875 753 853 Q803 831 840 793.5 Q877 756 898 705.5 Q919 655 919 598 Z M610 523 Q644 523 669 547.5 Q694 572 694 606 Q694 642 669.5 666.5 Q645 691 608 691 L370 691 Q353 691 341.5 680 Q330 669 330 652 L330 562 Q330 545 341.5 534 Q353 523 370 523 L610 523 Z " />
<glyph glyph-name="racute" unicode="&#x155;" horiz-adv-x="968" d="M919 598 Q919 524 885 466 Q851 408 788 376 Q777 371 770 366.5 Q763 362 757 354 Q753 349 751.5 338 Q750 327 758 312 Q763 301 775 277 Q787 253 802.5 221.5 Q818 190 835.5 155.5 Q853 121 868.5 90 Q884 59 896 34.5 Q908 10 913 0 L681 0 L511 338 L370 338 Q353 338 341.5 326.5 Q330 315 330 298 L330 0 L95 0 L95 875 L646 875 Q703 875 753 853 Q803 831 840 793.5 Q877 756 898 705.5 Q919 655 919 598 Z M610 523 Q644 523 669 547.5 Q694 572 694 606 Q694 642 669.5 666.5 Q645 691 608 691 L370 691 Q353 691 341.5 680 Q330 669 330 652 L330 562 Q330 545 341.5 534 Q353 523 370 523 L610 523 Z M467 1006 L290 1006 L502 1397 L677 1282 L467 1006 Z " />
<glyph glyph-name="rcaron" unicode="&#x159;" horiz-adv-x="968" d="M919 598 Q919 524 885 466 Q851 408 788 376 Q777 371 770 366.5 Q763 362 757 354 Q753 349 751.5 338 Q750 327 758 312 Q797 234 835.5 156 Q874 78 913 0 L681 0 L511 338 L370 338 Q353 338 341.5 326.5 Q330 315 330 298 L330 0 L95 0 L95 875 L646 875 Q703 875 753 853 Q803 831 840 793.5 Q877 756 898 705.5 Q919 655 919 598 Z M664 1340 L770 1234 L484 948 L198 1234 L304 1340 L456 1188 Q467 1177 483.5 1177 Q500 1177 511 1188 L587 1264 Q601 1278 615 1292 Q629 1306 639.5 1316.5 Q650 1327 657 1333.5 Q664 1340 664 1340 Z M610 523 Q644 523 669 547.5 Q694 572 694 606 Q694 642 669.5 666.5 Q645 691 608 691 L370 691 Q353 691 341.5 680 Q330 669 330 652 L330 562 Q330 545 341.5 534 Q353 523 370 523 L610 523 Z " />
<glyph glyph-name="rcommaaccent" unicode="&#x157;" horiz-adv-x="968" d="M919 598 Q919 524 885 466 Q851 408 788 376 Q777 371 770 366.5 Q763 362 757 354 Q753 349 751.5 338 Q750 327 758 312 Q797 234 835.5 156 Q874 78 913 0 L681 0 L511 338 L370 338 Q353 338 341.5 326.5 Q330 315 330 298 L330 0 L95 0 L95 875 L646 875 Q703 875 753 853 Q803 831 840 793.5 Q877 756 898 705.5 Q919 655 919 598 Z M610 523 Q644 523 669 547.5 Q694 572 694 606 Q694 642 669.5 666.5 Q645 691 608 691 L370 691 Q353 691 341.5 680 Q330 669 330 652 L330 562 Q330 545 341.5 534 Q353 523 370 523 L610 523 Z M388 -142 L579 -142 L557 -423 L388 -423 L388 -142 Z " />
<glyph glyph-name="s" unicode="s" horiz-adv-x="903" d="M275 606 Q275 578 299.5 565.5 Q324 553 364 548 Q404 543 455 542.5 Q506 542 559.5 537.5 Q613 533 664 520.5 Q715 508 755 480 Q795 452 819.5 404.5 Q844 357 844 282 Q844 230 825.5 189 Q807 148 776 116.5 Q745 85 705 63 Q665 41 621 27 Q577 13 533 6.5 Q489 0 450 0 Q410 0 365.5 6 Q321 12 276.5 25.5 Q232 39 191 61 Q150 83 119 114.5 Q88 146 69.5 188 Q51 230 51 284 L257 284 Q257 260 274.5 244.5 Q292 229 320 220 Q348 211 381.5 208 Q415 205 448 205 Q533 205 573 225 Q613 245 613 287 Q613 312 589 321.5 Q565 331 525.5 334 Q486 337 436 337 Q386 337 333.5 341.5 Q281 346 231 359 Q181 372 141.5 402 Q102 432 78 482 Q54 532 54 610 Q54 688 92 739 Q130 790 189 820 Q248 850 320 861.5 Q392 873 460 873 Q519 873 584 857.5 Q649 842 703 807 Q757 772 792 716.5 Q827 661 827 582 L622 582 Q622 604 607.5 620 Q593 636 569 646.5 Q545 657 514 662.5 Q483 668 450 668 Q365 668 320 655 Q275 642 275 606 Z " />
<glyph glyph-name="sacute" unicode="&#x15b;" horiz-adv-x="903" d="M275 606 Q275 578 299.5 565.5 Q324 553 364 548 Q404 543 455 542.5 Q506 542 559.5 537.5 Q613 533 664 520.5 Q715 508 755 480 Q795 452 819.5 404.5 Q844 357 844 282 Q844 230 825.5 189 Q807 148 776 116.5 Q745 85 705 63 Q665 41 621 27 Q577 13 533 6.5 Q489 0 450 0 Q410 0 365.5 6 Q321 12 276.5 25.5 Q232 39 191 61 Q150 83 119 114.5 Q88 146 69.5 188 Q51 230 51 284 L257 284 Q257 260 274.5 244.5 Q292 229 320 220 Q348 211 381.5 208 Q415 205 448 205 Q533 205 573 225 Q613 245 613 287 Q613 312 589 321.5 Q565 331 525.5 334 Q486 337 436 337 Q386 337 333.5 341.5 Q281 346 231 359 Q181 372 141.5 402 Q102 432 78 482 Q54 532 54 610 Q54 688 92 739 Q130 790 189 820 Q248 850 320 861.5 Q392 873 460 873 Q519 873 584 857.5 Q649 842 703 807 Q757 772 792 716.5 Q827 661 827 582 L622 582 Q622 604 607.5 620 Q593 636 569 646.5 Q545 657 514 662.5 Q483 668 450 668 Q365 668 320 655 Q275 642 275 606 Z M515 1006 L338 1006 L550 1397 L725 1282 L515 1006 Z " />
<glyph glyph-name="scaron" unicode="&#x161;" horiz-adv-x="903" d="M275 606 Q275 578 299.5 565.5 Q324 553 364 548 Q404 543 455 542.5 Q506 542 559.5 537.5 Q613 533 664 520.5 Q715 508 755 480 Q795 452 819.5 404.5 Q844 357 844 282 Q844 230 825.5 189 Q807 148 776 116.5 Q745 85 705 63 Q665 41 621 27 Q577 13 533 6.5 Q489 0 450 0 Q410 0 365.5 6 Q321 12 276.5 25.5 Q232 39 191 61 Q150 83 119 114.5 Q88 146 69.5 188 Q51 230 51 284 L257 284 Q257 260 274.5 244.5 Q292 229 320 220 Q348 211 381.5 208 Q415 205 448 205 Q533 205 573 225 Q613 245 613 287 Q613 312 589 321.5 Q565 331 525.5 334 Q486 337 436 337 Q386 337 333.5 341.5 Q281 346 231 359 Q181 372 141.5 402 Q102 432 78 482 Q54 532 54 610 Q54 688 92 739 Q130 790 189 820 Q248 850 320 861.5 Q392 873 460 873 Q519 873 584 857.5 Q649 842 703 807 Q757 772 792 716.5 Q827 661 827 582 L622 582 Q622 604 607.5 620 Q593 636 569 646.5 Q545 657 514 662.5 Q483 668 450 668 Q365 668 320 655 Q275 642 275 606 Z M631 1340 L737 1234 L451 948 L165 1234 L271 1340 L423 1188 Q434 1177 450.5 1177 Q467 1177 478 1188 L554 1264 Q568 1278 582 1292 Q596 1306 606.5 1316.5 Q617 1327 624 1333.5 Q631 1340 631 1340 Z " />
<glyph glyph-name="scedilla" unicode="&#x15f;" horiz-adv-x="903" d="M559 1 Q583 -23 594.5 -53.5 Q606 -84 606 -115.5 Q606 -147 594 -177.5 Q582 -208 558 -232 Q534 -256 504.5 -267.5 Q475 -279 443.5 -279 Q412 -279 382 -267.5 Q352 -256 328 -232 Q304 -207 292 -177.5 Q280 -148 280 -116 L389 -116 Q389 -138 406 -155 Q423 -172 446 -172 Q469 -172 486 -155 Q503 -138 503 -115 Q503 -92 486 -75 L409 1 Q351 5 287.5 22 Q224 39 171.5 72 Q119 105 85 157 Q51 209 51 284 L257 284 Q257 260 274.5 244.5 Q292 229 320 220 Q348 211 381.5 208 Q415 205 448 205 Q533 205 573 225 Q613 245 613 287 Q613 312 589 321.5 Q565 331 525.5 334 Q486 337 436 337 Q386 337 333.5 341.5 Q281 346 231 359 Q181 372 141.5 402 Q102 432 78 482 Q54 532 54 610 Q54 688 92 739 Q130 790 189 820 Q248 850 320 861.5 Q392 873 460 873 Q519 873 584 857.5 Q649 842 703 807 Q757 772 792 716.5 Q827 661 827 582 L622 582 Q622 604 607.5 620 Q593 636 569 646.5 Q545 657 514 662.5 Q483 668 450 668 Q365 668 320 655 Q275 642 275 606 Q275 578 299.5 565.5 Q324 553 364 548 Q404 543 455 542.5 Q506 542 559.5 537.5 Q613 533 664 520.5 Q715 508 755 480 Q795 452 819.5 404.5 Q844 357 844 282 Q844 219 818 172.5 Q792 126 750 93 Q708 60 655.5 39.5 Q603 19 550 9 L559 1 Z " />
<glyph glyph-name="scircumflex" unicode="&#x15d;" horiz-adv-x="903" d="M275 606 Q275 578 299.5 565.5 Q324 553 364 548 Q404 543 455 542.5 Q506 542 559.5 537.5 Q613 533 664 520.5 Q715 508 755 480 Q795 452 819.5 404.5 Q844 357 844 282 Q844 230 825.5 189 Q807 148 776 116.5 Q745 85 705 63 Q665 41 621 27 Q577 13 533 6.5 Q489 0 450 0 Q410 0 365.5 6 Q321 12 276.5 25.5 Q232 39 191 61 Q150 83 119 114.5 Q88 146 69.5 188 Q51 230 51 284 L257 284 Q257 260 274.5 244.5 Q292 229 320 220 Q348 211 381.5 208 Q415 205 448 205 Q533 205 573 225 Q613 245 613 287 Q613 312 589 321.5 Q565 331 525.5 334 Q486 337 436 337 Q386 337 333.5 341.5 Q281 346 231 359 Q181 372 141.5 402 Q102 432 78 482 Q54 532 54 610 Q54 688 92 739 Q130 790 189 820 Q248 850 320 861.5 Q392 873 460 873 Q519 873 584 857.5 Q649 842 703 807 Q757 772 792 716.5 Q827 661 827 582 L622 582 Q622 604 607.5 620 Q593 636 569 646.5 Q545 657 514 662.5 Q483 668 450 668 Q365 668 320 655 Q275 642 275 606 Z M630 948 L478 1100 Q467 1111 450.5 1111 Q434 1111 423 1100 L271 948 L165 1054 L451 1340 L737 1054 L631 948 L630 948 Z " />
<glyph glyph-name="scommaaccent" unicode="&#x219;" horiz-adv-x="903" d="M275 606 Q275 578 299.5 565.5 Q324 553 364 548 Q404 543 455 542.5 Q506 542 559.5 537.5 Q613 533 664 520.5 Q715 508 755 480 Q795 452 819.5 404.5 Q844 357 844 282 Q844 230 825.5 189 Q807 148 776 116.5 Q745 85 705 63 Q665 41 621 27 Q577 13 533 6.5 Q489 0 450 0 Q410 0 365.5 6 Q321 12 276.5 25.5 Q232 39 191 61 Q150 83 119 114.5 Q88 146 69.5 188 Q51 230 51 284 L257 284 Q257 260 274.5 244.5 Q292 229 320 220 Q348 211 381.5 208 Q415 205 448 205 Q533 205 573 225 Q613 245 613 287 Q613 312 589 321.5 Q565 331 525.5 334 Q486 337 436 337 Q386 337 333.5 341.5 Q281 346 231 359 Q181 372 141.5 402 Q102 432 78 482 Q54 532 54 610 Q54 688 92 739 Q130 790 189 820 Q248 850 320 861.5 Q392 873 460 873 Q519 873 584 857.5 Q649 842 703 807 Q757 772 792 716.5 Q827 661 827 582 L622 582 Q622 604 607.5 620 Q593 636 569 646.5 Q545 657 514 662.5 Q483 668 450 668 Q365 668 320 655 Q275 642 275 606 Z M356 -142 L547 -142 L525 -423 L356 -423 L356 -142 Z " />
<glyph glyph-name="t" unicode="t" horiz-adv-x="859" d="M30 687 L30 875 L829 875 L829 687 L581 687 Q565 687 553.5 676 Q542 665 542 648 L542 0 L317 0 L317 648 Q317 665 305.5 676 Q294 687 277 687 L30 687 Z " />
<glyph glyph-name="tbar" unicode="&#x167;" horiz-adv-x="859" d="M176 333 L176 519 L317 519 L317 648 Q317 665 305.5 676 Q294 687 277 687 L30 687 L30 875 L829 875 L829 687 L581 687 Q565 687 553.5 676 Q542 665 542 648 L542 519 L683 519 L683 333 L542 333 L542 0 L317 0 L317 333 L176 333 Z " />
<glyph glyph-name="tcaron" unicode="&#x165;" horiz-adv-x="859" d="M30 687 L30 875 L829 875 L829 687 L581 687 Q565 687 553.5 676 Q542 665 542 648 L542 0 L317 0 L317 648 Q317 665 305.5 676 Q294 687 277 687 L30 687 Z M609 1340 L715 1234 L429 948 L143 1234 L249 1340 L401 1188 Q412 1177 428.5 1177 Q445 1177 456 1188 L532 1264 Q546 1278 560 1292 Q574 1306 584.5 1316.5 Q595 1327 602 1333.5 Q609 1340 609 1340 Z " />
<glyph glyph-name="tcommaaccent" unicode="&#x163;" horiz-adv-x="859" d="M30 687 L30 875 L829 875 L829 687 L581 687 Q565 687 553.5 676 Q542 665 542 648 L542 0 L317 0 L317 648 Q317 665 305.5 676 Q294 687 277 687 L30 687 Z M334 -142 L525 -142 L503 -423 L334 -423 L334 -142 Z " />
<glyph glyph-name="u" unicode="u" horiz-adv-x="886" d="M561 353 L561 874 L796 874 L796 353 Q796 280 768.5 215.5 Q741 151 693 103 Q645 55 580.5 27.5 Q516 0 443 0 Q370 0 305.5 27.5 Q241 55 193 103 Q145 151 117.5 215.5 Q90 280 90 353 L90 874 L325 874 L325 353 Q325 328 334.5 306.5 Q344 285 360 269 Q376 253 397.5 244 Q419 235 443 235 Q468 235 489.5 244 Q511 253 527 269 Q543 285 552 306.5 Q561 328 561 353 Z " />
<glyph glyph-name="uacute" unicode="&#xfa;" horiz-adv-x="886" d="M561 353 L561 874 L796 874 L796 353 Q796 280 768.5 215.5 Q741 151 693 103 Q645 55 580.5 27.5 Q516 0 443 0 Q370 0 305.5 27.5 Q241 55 193 103 Q145 151 117.5 215.5 Q90 280 90 353 L90 874 L325 874 L325 353 Q325 328 334.5 306.5 Q344 285 360 269 Q376 253 397.5 244 Q419 235 443 235 Q468 235 489.5 244 Q511 253 527 269 Q543 285 552 306.5 Q561 328 561 353 Z M506 1006 L329 1006 L541 1397 L716 1282 L506 1006 Z " />
<glyph glyph-name="ubreve" unicode="&#x16d;" horiz-adv-x="886" d="M561 353 L561 874 L796 874 L796 353 Q796 280 768.5 215.5 Q741 151 693 103 Q645 55 580.5 27.5 Q516 0 443 0 Q370 0 305.5 27.5 Q241 55 193 103 Q145 151 117.5 215.5 Q90 280 90 353 L90 874 L325 874 L325 353 Q325 328 334.5 306.5 Q344 285 360 269 Q376 253 397.5 244 Q419 235 443 235 Q468 235 489.5 244 Q511 253 527 269 Q543 285 552 306.5 Q561 328 561 353 Z M514 1232 L681 1232 Q681 1183 662 1139.5 Q643 1096 611 1064 Q579 1032 535.5 1013 Q492 994 443 994 Q394 994 350.5 1013 Q307 1032 275 1064 Q243 1096 224 1139.5 Q205 1183 205 1232 L372 1232 Q372 1203 393.5 1181.5 Q415 1160 444 1160 Q473 1160 493.5 1181.5 Q514 1203 514 1232 Z " />
<glyph glyph-name="ucircumflex" unicode="&#xfb;" horiz-adv-x="886" d="M561 353 L561 874 L796 874 L796 353 Q796 280 768.5 215.5 Q741 151 693 103 Q645 55 580.5 27.5 Q516 0 443 0 Q370 0 305.5 27.5 Q241 55 193 103 Q145 151 117.5 215.5 Q90 280 90 353 L90 874 L325 874 L325 353 Q325 328 334.5 306.5 Q344 285 360 269 Q376 253 397.5 244 Q419 235 443 235 Q468 235 489.5 244 Q511 253 527 269 Q543 285 552 306.5 Q561 328 561 353 Z M622 948 L470 1100 Q459 1111 442.5 1111 Q426 1111 415 1100 L263 948 L157 1054 L443 1340 L729 1054 L623 948 L622 948 Z " />
<glyph glyph-name="udieresis" unicode="&#xfc;" horiz-adv-x="886" d="M561 353 L561 874 L796 874 L796 353 Q796 280 768.5 215.5 Q741 151 693 103 Q645 55 580.5 27.5 Q516 0 443 0 Q370 0 305.5 27.5 Q241 55 193 103 Q145 151 117.5 215.5 Q90 280 90 353 L90 874 L325 874 L325 353 Q325 328 334.5 306.5 Q344 285 360 269 Q376 253 397.5 244 Q419 235 443 235 Q468 235 489.5 244 Q511 253 527 269 Q543 285 552 306.5 Q561 328 561 353 Z M365 1116 Q365 1092 355.5 1070.5 Q346 1049 330 1033.5 Q314 1018 292.5 1008.5 Q271 999 247 999 Q223 999 201.5 1008.5 Q180 1018 164.5 1033.5 Q149 1049 139.5 1070.5 Q130 1092 130 1116 Q130 1140 139.5 1161.5 Q149 1183 164.5 1199 Q180 1215 201.5 1224.5 Q223 1234 247 1234 Q271 1234 292.5 1224.5 Q314 1215 330 1199 Q346 1183 355.5 1161.5 Q365 1140 365 1116 Z M756 1116 Q756 1092 746.5 1070.5 Q737 1049 721 1033.5 Q705 1018 683.5 1008.5 Q662 999 638 999 Q614 999 592.5 1008.5 Q571 1018 555.5 1033.5 Q540 1049 530.5 1070.5 Q521 1092 521 1116 Q521 1140 530.5 1161.5 Q540 1183 555.5 1199 Q571 1215 592.5 1224.5 Q614 1234 638 1234 Q662 1234 683.5 1224.5 Q705 1215 721 1199 Q737 1183 746.5 1161.5 Q756 1140 756 1116 Z " />
<glyph glyph-name="uhungarumlaut" unicode="&#x171;" horiz-adv-x="886" d="M561 353 L561 874 L796 874 L796 353 Q796 280 768.5 215.5 Q741 151 693 103 Q645 55 580.5 27.5 Q516 0 443 0 Q370 0 305.5 27.5 Q241 55 193 103 Q145 151 117.5 215.5 Q90 280 90 353 L90 874 L325 874 L325 353 Q325 328 334.5 306.5 Q344 285 360 269 Q376 253 397.5 244 Q419 235 443 235 Q468 235 489.5 244 Q511 253 527 269 Q543 285 552 306.5 Q561 328 561 353 Z M128 1294 L328 1426 L558 1006 L347 1006 L128 1294 Z " />
<glyph glyph-name="ugrave" unicode="&#xf9;" horiz-adv-x="886" d="M561 353 L561 874 L796 874 L796 353 Q796 280 768.5 215.5 Q741 151 693 103 Q645 55 580.5 27.5 Q516 0 443 0 Q370 0 305.5 27.5 Q241 55 193 103 Q145 151 117.5 215.5 Q90 280 90 353 L90 874 L325 874 L325 353 Q325 328 334.5 306.5 Q344 285 360 269 Q376 253 397.5 244 Q419 235 443 235 Q468 235 489.5 244 Q511 253 527 269 Q543 285 552 306.5 Q561 328 561 353 Z M660 1006 L483 1006 L695 1397 L870 1282 L660 1006 Z M353 1006 L176 1006 L388 1397 L563 1282 L353 1006 Z " />
<glyph glyph-name="umacron" unicode="&#x16b;" horiz-adv-x="886" d="M561 353 L561 874 L796 874 L796 353 Q796 280 768.5 215.5 Q741 151 693 103 Q645 55 580.5 27.5 Q516 0 443 0 Q370 0 305.5 27.5 Q241 55 193 103 Q145 151 117.5 215.5 Q90 280 90 353 L90 874 L325 874 L325 353 Q325 328 334.5 306.5 Q344 285 360 269 Q376 253 397.5 244 Q419 235 443 235 Q468 235 489.5 244 Q511 253 527 269 Q543 285 552 306.5 Q561 328 561 353 Z M189 1016 L189 1202 L696 1202 L696 1016 L189 1016 Z " />
<glyph glyph-name="uogonek" unicode="&#x173;" horiz-adv-x="886" d="M603 -202 Q561 -244 517 -265.5 Q473 -287 428 -287 Q383 -287 343 -269.5 Q303 -252 273 -222 Q243 -192 226 -152 Q209 -112 209 -66 Q209 4 249 58 Q177 106 133.5 182.5 Q90 259 90 353 L90 874 L325 874 L325 353 Q325 328 334.5 306.5 Q344 285 360 269 Q376 253 397.5 244 Q419 235 443 235 Q468 235 489.5 244 Q511 253 527 269 Q543 285 552 306.5 Q561 328 561 353 L561 874 L796 874 L796 353 Q796 280 768 215.5 Q740 151 692 103 Q644 55 579.5 27.5 Q515 0 442 0 Q407 0 382 -19 Q357 -38 357 -65 Q357 -92 376 -111 Q395 -130 422 -130 Q436 -130 451.5 -121.5 Q467 -113 482 -98 L603 -202 Z " />
<glyph glyph-name="uring" unicode="&#x16f;" horiz-adv-x="886" d="M561 353 L561 874 L796 874 L796 353 Q796 280 768.5 215.5 Q741 151 693 103 Q645 55 580.5 27.5 Q516 0 443 0 Q370 0 305.5 27.5 Q241 55 193 103 Q145 151 117.5 215.5 Q90 280 90 353 L90 874 L325 874 L325 353 Q325 328 334.5 306.5 Q344 285 360 269 Q376 253 397.5 244 Q419 235 443 235 Q468 235 489.5 244 Q511 253 527 269 Q543 285 552 306.5 Q561 328 561 353 Z M443 1317 Q479 1317 510.5 1303.5 Q542 1290 565.5 1266.5 Q589 1243 602.5 1211.5 Q616 1180 616 1144 Q616 1108 602.5 1076.5 Q589 1045 565.5 1021.5 Q542 998 510.5 984.5 Q479 971 443 971 Q407 971 375.5 984.5 Q344 998 320.5 1021.5 Q297 1045 283.5 1076.5 Q270 1108 270 1144 Q270 1180 283.5 1211.5 Q297 1243 320.5 1266.5 Q344 1290 375.5 1303.5 Q407 1317 443 1317 Z M443 1082 Q468 1082 486 1100.5 Q504 1119 504 1144 Q504 1169 486 1187 Q468 1205 443 1205 Q418 1205 399.5 1187 Q381 1169 381 1144 Q381 1119 399.5 1100.5 Q418 1082 443 1082 Z " />
<glyph glyph-name="utilde" unicode="&#x169;" horiz-adv-x="886" d="M561 353 L561 874 L796 874 L796 353 Q796 280 768.5 215.5 Q741 151 693 103 Q645 55 580.5 27.5 Q516 0 443 0 Q370 0 305.5 27.5 Q241 55 193 103 Q145 151 117.5 215.5 Q90 280 90 353 L90 874 L325 874 L325 353 Q325 328 334.5 306.5 Q344 285 360 269 Q376 253 397.5 244 Q419 235 443 235 Q468 235 489.5 244 Q511 253 527 269 Q543 285 552 306.5 Q561 328 561 353 Z M194 1199 Q225 1231 256 1241 Q287 1251 318 1247 Q349 1243 380 1228.5 Q411 1214 442.5 1198 Q474 1182 505 1167.5 Q536 1153 567 1149 Q598 1145 629 1155 Q660 1165 691 1197 L691 1005 Q649 962 608 957.5 Q567 953 525.5 967.5 Q484 982 442.5 1006 Q401 1030 359.5 1044.5 Q318 1059 277 1054.5 Q236 1050 194 1007 L194 1199 Z " />
<glyph glyph-name="w" unicode="w" horiz-adv-x="1459" d="M1021 353 L1197 875 L1429 875 L1138 0 L905 0 L730 527 L554 0 L322 0 L30 875 L263 875 L438 353 L613 875 L846 875 L1021 353 Z " />
<glyph glyph-name="wacute" unicode="&#x1e83;" horiz-adv-x="1459" d="M1021 353 L1197 875 L1429 875 L1138 0 L905 0 L730 527 L554 0 L322 0 L30 875 L263 875 L438 353 L613 875 L846 875 L1021 353 Z M713 1006 L536 1006 L748 1397 L923 1282 L713 1006 Z " />
<glyph glyph-name="wcircumflex" unicode="&#x175;" horiz-adv-x="1459" d="M1021 353 L1197 875 L1429 875 L1138 0 L905 0 L730 527 L554 0 L322 0 L30 875 L263 875 L438 353 L613 875 L846 875 L1021 353 Z M908 948 L756 1100 Q745 1111 728.5 1111 Q712 1111 701 1100 L549 948 L443 1054 L729 1340 L1015 1054 L909 948 L908 948 Z " />
<glyph glyph-name="wdieresis" unicode="&#x1e85;" horiz-adv-x="1459" d="M1021 353 L1197 875 L1429 875 L1138 0 L905 0 L730 527 L554 0 L322 0 L30 875 L263 875 L438 353 L613 875 L846 875 L1021 353 Z M651 1116 Q651 1092 641.5 1070.5 Q632 1049 616 1033.5 Q600 1018 578.5 1008.5 Q557 999 533 999 Q509 999 487.5 1008.5 Q466 1018 450.5 1033.5 Q435 1049 425.5 1070.5 Q416 1092 416 1116 Q416 1140 425.5 1161.5 Q435 1183 450.5 1199 Q466 1215 487.5 1224.5 Q509 1234 533 1234 Q557 1234 578.5 1224.5 Q600 1215 616 1199 Q632 1183 641.5 1161.5 Q651 1140 651 1116 Z M1042 1116 Q1042 1092 1032.5 1070.5 Q1023 1049 1007 1033.5 Q991 1018 969.5 1008.5 Q948 999 924 999 Q900 999 878.5 1008.5 Q857 1018 841.5 1033.5 Q826 1049 816.5 1070.5 Q807 1092 807 1116 Q807 1140 816.5 1161.5 Q826 1183 841.5 1199 Q857 1215 878.5 1224.5 Q900 1234 924 1234 Q948 1234 969.5 1224.5 Q991 1215 1007 1199 Q1023 1183 1032.5 1161.5 Q1042 1140 1042 1116 Z " />
<glyph glyph-name="wgrave" unicode="&#x1e81;" horiz-adv-x="1459" d="M1021 353 L1197 875 L1429 875 L1138 0 L905 0 L730 527 L554 0 L322 0 L30 875 L263 875 L438 353 L613 875 L846 875 L1021 353 Z M514 1294 L714 1426 L944 1006 L733 1006 L514 1294 Z " />
<glyph glyph-name="y" unicode="y" horiz-adv-x="1076" d="M425 410 Q425 426 415 436 L30 874 L294 874 L538 597 L782 874 L1046 874 L661 436 Q651 426 651 410 L651 0 L425 0 L425 410 Z " />
<glyph glyph-name="yacute" unicode="&#xfd;" horiz-adv-x="1076" d="M425 410 Q425 426 415 436 L30 874 L294 874 L538 597 L782 874 L1046 874 L661 436 Q651 426 651 410 L651 0 L425 0 L425 410 Z M611 1006 L434 1006 L646 1397 L821 1282 L611 1006 Z " />
<glyph glyph-name="ycircumflex" unicode="&#x177;" horiz-adv-x="1076" d="M425 410 Q425 426 415 436 L30 874 L294 874 L538 597 L782 874 L1046 874 L661 436 Q651 426 651 410 L651 0 L425 0 L425 410 Z M717 948 L565 1100 Q554 1111 537.5 1111 Q521 1111 510 1100 L358 948 L252 1054 L538 1340 L824 1054 L718 948 L717 948 Z " />
<glyph glyph-name="ydieresis" unicode="&#xff;" horiz-adv-x="1076" d="M425 410 Q425 426 415 436 L30 874 L294 874 L538 597 L782 874 L1046 874 L661 436 Q651 426 651 410 L651 0 L425 0 L425 410 Z M851 1116 Q851 1092 841.5 1070.5 Q832 1049 816 1033.5 Q800 1018 778.5 1008.5 Q757 999 733 999 Q709 999 687.5 1008.5 Q666 1018 650.5 1033.5 Q635 1049 625.5 1070.5 Q616 1092 616 1116 Q616 1140 625.5 1161.5 Q635 1183 650.5 1199 Q666 1215 687.5 1224.5 Q709 1234 733 1234 Q757 1234 778.5 1224.5 Q800 1215 816 1199 Q832 1183 841.5 1161.5 Q851 1140 851 1116 Z M460 1116 Q460 1092 450.5 1070.5 Q441 1049 425 1033.5 Q409 1018 387.5 1008.5 Q366 999 342 999 Q318 999 296.5 1008.5 Q275 1018 259.5 1033.5 Q244 1049 234.5 1070.5 Q225 1092 225 1116 Q225 1140 234.5 1161.5 Q244 1183 259.5 1199 Q275 1215 296.5 1224.5 Q318 1234 342 1234 Q366 1234 387.5 1224.5 Q409 1215 425 1199 Q441 1183 450.5 1161.5 Q460 1140 460 1116 Z " />
<glyph glyph-name="ygrave" unicode="&#x1ef3;" horiz-adv-x="1076" d="M425 410 Q425 426 415 436 L30 874 L294 874 L538 597 L782 874 L1046 874 L661 436 Q651 426 651 410 L651 0 L425 0 L425 410 Z M223 1294 L423 1426 L653 1006 L442 1006 L223 1294 Z " />
<glyph glyph-name="z" unicode="z" horiz-adv-x="939" d="M879 875 L879 691 L374 183 L839 183 L839 0 L52 0 L52 183 L555 691 L52 691 L52 875 L879 875 Z " />
<glyph glyph-name="zacute" unicode="&#x17a;" horiz-adv-x="939" d="M879 875 L879 691 L374 183 L839 183 L839 0 L52 0 L52 183 L555 691 L52 691 L52 875 L879 875 Z M533 1006 L356 1006 L568 1397 L743 1282 L533 1006 Z " />
<glyph glyph-name="zcaron" unicode="&#x17e;" horiz-adv-x="939" d="M879 875 L879 691 L374 183 L839 183 L839 0 L52 0 L52 183 L555 691 L52 691 L52 875 L879 875 Z M649 1340 L755 1234 L469 948 L183 1234 L289 1340 L441 1188 Q452 1177 468.5 1177 Q485 1177 496 1188 L572 1264 Q586 1278 600 1292 Q614 1306 624.5 1316.5 Q635 1327 642 1333.5 Q649 1340 649 1340 Z " />
<glyph glyph-name="zdotaccent" unicode="&#x17c;" horiz-adv-x="939" d="M879 875 L879 691 L374 183 L839 183 L839 0 L52 0 L52 183 L555 691 L52 691 L52 875 L879 875 Z M587 1086 Q587 1062 577.5 1040.5 Q568 1019 552 1003.5 Q536 988 514.5 978.5 Q493 969 469 969 Q445 969 423.5 978.5 Q402 988 386.5 1003.5 Q371 1019 361.5 1040.5 Q352 1062 352 1086 Q352 1110 361.5 1131.5 Q371 1153 386.5 1169 Q402 1185 423.5 1194.5 Q445 1204 469 1204 Q493 1204 514.5 1194.5 Q536 1185 552 1169 Q568 1153 577.5 1131.5 Q587 1110 587 1086 Z " />
<glyph glyph-name="yen" unicode="&#xa5;" horiz-adv-x="1076" d="M251 96 L251 281 L425 281 L425 308 L425 336 L251 336 L251 521 L347 521 L30 874 L294 874 L538 597 L782 874 L1046 874 L728 521 L824 521 L824 336 L651 336 L651 281 L824 281 L824 96 L651 96 L651 0 L425 0 L425 96 L251 96 Z " />
<glyph glyph-name="colon" unicode="&#x3a;" horiz-adv-x="388" d="M194 335 Q171 335 151.5 343.5 Q132 352 117 367 Q102 382 93.5 401.5 Q85 421 85 444 Q85 466 93.5 486 Q102 506 117 521 Q132 536 151.5 544.5 Q171 553 194 553 Q216 553 236 544.5 Q256 536 271 521 Q286 506 294.5 486 Q303 466 303 444 Q303 421 294.5 401.5 Q286 382 271 367 Q256 352 236 343.5 Q216 335 194 335 Z M194 -18 Q171 -18 151.5 -9.5 Q132 -1 117 14 Q102 29 93.5 48.5 Q85 68 85 91 Q85 113 93.5 133 Q102 153 117 168 Q132 183 151.5 191.5 Q171 200 194 200 Q216 200 236 191.5 Q256 183 271 168 Q286 153 294.5 133 Q303 113 303 91 Q303 68 294.5 48.5 Q286 29 271 14 Q256 -1 236 -9.5 Q216 -18 194 -18 Z " />
<glyph glyph-name="semicolon" unicode="&#x3b;" horiz-adv-x="348" d="M70 98 L261 98 L239 -183 L70 -183 L70 98 Z M154 335 Q131 335 111.5 343.5 Q92 352 77 367 Q62 382 53.5 401.5 Q45 421 45 444 Q45 466 53.5 486 Q62 506 77 521 Q92 536 111.5 544.5 Q131 553 154 553 Q176 553 196 544.5 Q216 536 231 521 Q246 506 254.5 486 Q263 466 263 444 Q263 421 254.5 401.5 Q246 382 231 367 Q216 352 196 343.5 Q176 335 154 335 Z " />
<glyph glyph-name="Eng" unicode="&#x14a;" horiz-adv-x="1069" d="M739 9 L331 536 L331 0 L95 0 L95 875 L324 875 L739 346 L739 478 L739 875 L974 875 L974 -11 Q974 -84 946.5 -148.5 Q919 -213 871 -261 Q823 -309 758.5 -336.5 Q694 -364 621 -364 Q546 -364 483 -337 Q420 -310 371 -261 L529 -102 Q546 -119 567.5 -124 Q589 -129 615 -129 Q640 -129 663 -119.5 Q686 -110 702.5 -93.5 Q719 -77 729 -54.5 Q739 -32 739 -7 L739 9 Z " />
<glyph glyph-name="eng" unicode="&#x14b;" horiz-adv-x="1069" d="M739 9 L331 536 L331 0 L95 0 L95 875 L324 875 L739 346 L739 478 L739 875 L974 875 L974 -11 Q974 -84 946.5 -148.5 Q919 -213 871 -261 Q823 -309 758.5 -336.5 Q694 -364 621 -364 Q546 -364 483 -337 Q420 -310 371 -261 L529 -102 Q546 -119 567.5 -124 Q589 -129 615 -129 Q640 -129 663 -119.5 Q686 -110 702.5 -93.5 Q719 -77 729 -54.5 Q739 -32 739 -7 L739 9 Z " />
<glyph glyph-name="x" unicode="x" horiz-adv-x="960" d="M677 874 L929 874 L635 462 Q627 451 627 436.5 Q627 422 635 411 L930 0 L677 0 L480 265 L283 0 L30 0 L325 411 Q333 422 333 436.5 Q333 451 325 462 L31 874 L303 874 L480 624 L677 874 Z " />
<glyph glyph-name="g" unicode="g" horiz-adv-x="1051" d="M497 513 L975 513 L975 0 L783 0 L783 126 Q763 96 731 72.5 Q699 49 661 33 Q623 17 580.5 8.5 Q538 0 497 0 Q407 0 327 34 Q247 68 188 127.5 Q129 187 94.5 266.5 Q60 346 60 437 Q60 527 94.5 607 Q129 687 188 746 Q247 805 327 839.5 Q407 874 497 874 Q588 874 667 840 Q746 806 806 746 L640 579 Q612 606 575.5 622 Q539 638 497 638 Q455 638 418.5 622 Q382 606 355 579 Q328 552 312 515.5 Q296 479 296 437 Q296 395 309 352.5 Q322 310 352 276.5 Q382 243 431 224 Q480 205 552 211 Q590 214 622 226.5 Q654 239 677 254 Q700 269 713 284 Q726 299 726 308 L497 308 L497 513 Z " />
<glyph glyph-name="gbreve" unicode="&#x11f;" horiz-adv-x="1051" d="M497 513 L975 513 L975 0 L783 0 L783 126 Q763 96 731 72.5 Q699 49 661 33 Q623 17 580.5 8.5 Q538 0 497 0 Q407 0 327 34 Q247 68 188 127.5 Q129 187 94.5 266.5 Q60 346 60 437 Q60 527 94.5 607 Q129 687 188 746 Q247 805 327 839.5 Q407 874 497 874 Q588 874 667 840 Q746 806 806 746 L640 579 Q612 606 575.5 622 Q539 638 497 638 Q455 638 418.5 622 Q382 606 355 579 Q328 552 312 515.5 Q296 479 296 437 Q296 395 309 352.5 Q322 310 352 276.5 Q382 243 431 224 Q480 205 552 211 Q590 214 622 226.5 Q654 239 677 254 Q700 269 713 284 Q726 299 726 308 L497 308 L497 513 Z M524 1160 Q553 1160 574.5 1181.5 Q596 1203 596 1232 L763 1232 Q763 1183 744 1139.5 Q725 1096 693 1064 Q661 1032 617.5 1013 Q574 994 525 994 Q476 994 432.5 1013 Q389 1032 357 1064 Q325 1096 306 1139.5 Q287 1183 287 1232 L454 1232 Q454 1203 474.5 1182 Q495 1161 524 1160 Z " />
<glyph glyph-name="gcircumflex" unicode="&#x11d;" horiz-adv-x="1051" d="M497 513 L975 513 L975 0 L783 0 L783 126 Q763 96 731 72.5 Q699 49 661 33 Q623 17 580.5 8.5 Q538 0 497 0 Q407 0 327 34 Q247 68 188 127.5 Q129 187 94.5 266.5 Q60 346 60 437 Q60 527 94.5 607 Q129 687 188 746 Q247 805 327 839.5 Q407 874 497 874 Q588 874 667 840 Q746 806 806 746 L640 579 Q612 606 575.5 622 Q539 638 497 638 Q455 638 418.5 622 Q382 606 355 579 Q328 552 312 515.5 Q296 479 296 437 Q296 395 309 352.5 Q322 310 352 276.5 Q382 243 431 224 Q480 205 552 211 Q590 214 622 226.5 Q654 239 677 254 Q700 269 713 284 Q726 299 726 308 L497 308 L497 513 Z M704 948 L552 1100 Q541 1111 524.5 1111 Q508 1111 497 1100 L345 948 L239 1054 L525 1340 L811 1054 L705 948 L704 948 Z " />
<glyph glyph-name="gcommaaccent" unicode="&#x123;" horiz-adv-x="1051" d="M497 513 L975 513 L975 0 L783 0 L783 126 Q763 96 731 72.5 Q699 49 661 33 Q623 17 580.5 8.5 Q538 0 497 0 Q407 0 327 34 Q247 68 188 127.5 Q129 187 94.5 266.5 Q60 346 60 437 Q60 527 94.5 607 Q129 687 188 746 Q247 805 327 839.5 Q407 874 497 874 Q588 874 667 840 Q746 806 806 746 L640 579 Q612 606 575.5 622 Q539 638 497 638 Q455 638 418.5 622 Q382 606 355 579 Q328 552 312 515.5 Q296 479 296 437 Q296 395 309 352.5 Q322 310 352 276.5 Q382 243 431 224 Q480 205 552 211 Q590 214 622 226.5 Q654 239 677 254 Q700 269 713 284 Q726 299 726 308 L497 308 L497 513 Z M430 -142 L621 -142 L599 -423 L430 -423 L430 -142 Z " />
<glyph glyph-name="gdotaccent" unicode="&#x121;" horiz-adv-x="1051" d="M497 513 L975 513 L975 0 L783 0 L783 126 Q763 96 731 72.5 Q699 49 661 33 Q623 17 580.5 8.5 Q538 0 497 0 Q407 0 327 34 Q247 68 188 127.5 Q129 187 94.5 266.5 Q60 346 60 437 Q60 527 94.5 607 Q129 687 188 746 Q247 805 327 839.5 Q407 874 497 874 Q588 874 667 840 Q746 806 806 746 L640 579 Q612 606 575.5 622 Q539 638 497 638 Q455 638 418.5 622 Q382 606 355 579 Q328 552 312 515.5 Q296 479 296 437 Q296 395 309 352.5 Q322 310 352 276.5 Q382 243 431 224 Q480 205 552 211 Q590 214 622 226.5 Q654 239 677 254 Q700 269 713 284 Q726 299 726 308 L497 308 L497 513 Z M643 1086 Q643 1062 633.5 1040.5 Q624 1019 608 1003.5 Q592 988 570.5 978.5 Q549 969 525 969 Q501 969 479.5 978.5 Q458 988 442.5 1003.5 Q427 1019 417.5 1040.5 Q408 1062 408 1086 Q408 1110 417.5 1131.5 Q427 1153 442.5 1169 Q458 1185 479.5 1194.5 Q501 1204 525 1204 Q549 1204 570.5 1194.5 Q592 1185 608 1169 Q624 1153 633.5 1131.5 Q643 1110 643 1086 Z " />
<glyph glyph-name="cent" unicode="&#xa2;" horiz-adv-x="847" d="M360 -109 L360 19 Q293 40 236 80 Q179 120 138 175 Q97 230 73.5 297 Q50 364 50 438 Q50 512 73.5 578.5 Q97 645 138 700 Q179 755 236 795 Q293 835 360 856 L360 984 L586 984 L586 864 Q646 850 699.5 820.5 Q753 791 797 747 L631 581 Q603 610 566 625.5 Q529 641 489 641 Q447 641 409.5 625 Q372 609 344.5 581.5 Q317 554 300.5 517 Q284 480 284 438 Q284 396 300 359 Q316 322 343.5 294 Q371 266 408 250 Q445 234 487 234 Q528 234 565 249.5 Q602 265 631 294 L797 128 Q753 84 699.5 54.5 Q646 25 586 11 L586 -109 L360 -109 Z " />
<glyph glyph-name="brokenbar" unicode="&#xa6;" horiz-adv-x="486" d="M130 -109 L130 338 L356 338 L356 -109 L130 -109 Z M356 543 L130 543 L130 984 L356 984 L356 543 Z " />
<glyph glyph-name="dollar" unicode="&#x24;" horiz-adv-x="903" d="M253 600 Q253 570 278.5 554.5 Q304 539 345.5 532 Q387 525 440 521.5 Q493 518 548.5 511.5 Q604 505 657 491.5 Q710 478 751.5 450.5 Q793 423 818.5 378 Q844 333 844 263 Q844 203 819.5 159 Q795 115 755 85 Q715 55 665 37 Q615 19 564 10 L564 -109 L338 -109 L338 8 Q285 16 233.5 33 Q182 50 141.5 80.5 Q101 111 76 156 Q51 201 51 265 L247 265 Q247 241 266 225.5 Q285 210 314.5 201 Q344 192 379.5 189 Q415 186 448 186 Q490 186 525.5 192 Q561 198 587.5 209 Q614 220 628.5 236 Q643 252 643 273 Q643 302 617.5 316.5 Q592 331 550.5 337 Q509 343 456 345.5 Q403 348 347.5 354 Q292 360 239 373 Q186 386 144.5 414.5 Q103 443 77.5 490 Q52 537 52 610 Q52 671 77 715.5 Q102 760 142.5 790 Q183 820 234.5 838 Q286 856 338 864 L338 984 L564 984 L564 862 Q613 853 660.5 834 Q708 815 744.5 783.5 Q781 752 803 707 Q825 662 825 601 L630 601 Q630 623 614 639 Q598 655 572 665.5 Q546 676 513.5 681.5 Q481 687 448 687 Q406 687 370 681 Q334 675 308 664 Q282 653 267.5 637 Q253 621 253 600 Z " />
<glyph glyph-name="braceright" unicode="&#x7d;" horiz-adv-x="664" d="M1 922 L1 1105 L49 1105 Q126 1105 194 1075.5 Q262 1046 312.5 996 Q363 946 392.5 878 Q422 810 422 734 L422 721 Q422 685 436.5 654 Q451 623 475.5 600.5 Q500 578 532 565 Q564 552 600 552 L614 552 L614 328 L600 328 Q564 328 532 315 Q500 302 475.5 279.5 Q451 257 436.5 225.5 Q422 194 422 158 L422 85 Q422 20 397.5 -36.5 Q373 -93 330.5 -135 Q288 -177 231 -201.5 Q174 -226 110 -226 L1 -226 L1 -42 L49 -42 Q85 -42 117 -29 Q149 -16 173.5 6.5 Q198 29 212.5 60.5 Q227 92 227 128 L227 238 Q227 303 259.5 356 Q292 409 345 440 Q292 471 260 524 Q228 577 228 642 L228 752 Q228 788 213.5 819.5 Q199 851 174.5 873.5 Q150 896 118 909 Q86 922 50 922 L1 922 Z " />
<glyph glyph-name="exclamdown" unicode="&#xa1;" horiz-adv-x="282" d="M141 1035 Q163 1035 183 1026.5 Q203 1018 218 1003 Q233 988 241.5 968 Q250 948 250 926 Q250 903 241.5 883.5 Q233 864 218 849 Q203 834 183 825.5 Q163 817 141 817 Q118 817 98.5 825.5 Q79 834 64 849 Q49 864 40.5 883.5 Q32 903 32 926 Q32 948 40.5 968 Q49 988 64 1003 Q79 1018 98.5 1026.5 Q118 1035 141 1035 Z M28 719 L253 719 L253 -18 L28 -18 L28 719 Z " />
<glyph glyph-name="questiondown" unicode="&#xbf;" horiz-adv-x="724" d="M15 245 Q15 303 25 345.5 Q35 388 55 422 Q75 456 106.5 484.5 Q138 513 180 543 Q204 560 218 571.5 Q232 583 239.5 600 Q247 617 249 644 Q251 671 251 719 L453 719 Q453 668 452 626.5 Q451 585 439.5 547.5 Q428 510 402 472 Q376 434 326 390 Q315 381 301.5 369.5 Q288 358 276.5 343 Q265 328 257 308.5 Q249 289 249 265 Q249 242 258 227.5 Q267 213 282 205 Q297 197 315.5 194 Q334 191 354 191 Q374 191 393 196.5 Q412 202 426.5 213.5 Q441 225 450 241.5 Q459 258 459 280 Q518 280 576.5 280.5 Q635 281 694 281 Q694 209 666 153.5 Q638 98 591 60 Q544 22 482.5 2 Q421 -18 354 -18 Q289 -18 228 -5 Q167 8 119.5 38.5 Q72 69 43.5 119.5 Q15 170 15 245 Z M347 1035 Q369 1035 389 1026.5 Q409 1018 424 1003 Q439 988 447.5 968 Q456 948 456 926 Q456 903 447.5 883.5 Q439 864 424 849 Q409 834 389 825.5 Q369 817 347 817 Q324 817 304.5 825.5 Q285 834 270 849 Q255 864 246.5 883.5 Q238 903 238 926 Q238 948 246.5 968 Q255 988 270 1003 Q285 1018 304.5 1026.5 Q324 1035 347 1035 Z " />
<glyph glyph-name="guillemotright" unicode="&#xbb;" horiz-adv-x="1089" d="M548 677 L676 827 L1039 521 L1039 404 L676 98 L548 248 Q607 298 647.5 332.5 Q688 367 717 391.5 Q746 416 765.5 432.5 Q785 449 802 463 L548 677 Z M50 677 L178 827 L540 521 L540 404 L178 98 L50 248 L304 463 L50 677 Z " />
<glyph glyph-name="ellipsis" unicode="&#x2026;" horiz-adv-x="1164" d="M194 -18 Q171 -18 151.5 -9.5 Q132 -1 117 14 Q102 29 93.5 48.5 Q85 68 85 91 Q85 113 93.5 133 Q102 153 117 168 Q132 183 151.5 191.5 Q171 200 194 200 Q216 200 236 191.5 Q256 183 271 168 Q286 153 294.5 133 Q303 113 303 91 Q303 68 294.5 48.5 Q286 29 271 14 Q256 -1 236 -9.5 Q216 -18 194 -18 Z M582 -18 Q559 -18 539.5 -9.5 Q520 -1 505 14 Q490 29 481.5 48.5 Q473 68 473 91 Q473 113 481.5 133 Q490 153 505 168 Q520 183 539.5 191.5 Q559 200 582 200 Q604 200 624 191.5 Q644 183 659 168 Q674 153 682.5 133 Q691 113 691 91 Q691 68 682.5 48.5 Q674 29 659 14 Q644 -1 624 -9.5 Q604 -18 582 -18 Z M970 -18 Q947 -18 927.5 -9.5 Q908 -1 893 14 Q878 29 869.5 48.5 Q861 68 861 91 Q861 113 869.5 133 Q878 153 893 168 Q908 183 927.5 191.5 Q947 200 970 200 Q992 200 1012 191.5 Q1032 183 1047 168 Q1062 153 1070.5 133 Q1079 113 1079 91 Q1079 68 1070.5 48.5 Q1062 29 1047 14 Q1032 -1 1012 -9.5 Q992 -18 970 -18 Z " />
<glyph glyph-name="greater" unicode="&#x3e;" horiz-adv-x="479" d="M158 136 L20 275 L182 438 L20 607 L158 746 L459 436 L158 136 Z " />
<glyph glyph-name="greaterequal" unicode="&#x2265;" horiz-adv-x="554" d="M20 81 L20 280 L90 333 L231 439 L69 607 L208 746 L509 436 L287 280 L534 280 L534 81 L20 81 Z " />
<glyph glyph-name="approxequal" unicode="&#x2248;" horiz-adv-x="418" d="M20 680 Q51 713 83 716.5 Q115 720 146 709 Q177 698 209 679.5 Q241 661 272 650 Q303 639 335 642.5 Q367 646 398 679 L398 493 Q366 460 335 456.5 Q304 453 272 464 Q240 475 208.5 493.5 Q177 512 146 523 Q115 534 83 530.5 Q51 527 20 494 L20 680 Z M20 400 Q51 433 83 436.5 Q115 440 146 429 Q177 418 209 399.5 Q241 381 272 370 Q303 359 335 362.5 Q367 366 398 399 L398 213 Q366 180 335 176.5 Q304 173 272 184 Q240 195 208.5 213.5 Q177 232 146 243 Q115 254 83 250.5 Q51 247 20 214 L20 400 Z " />
<glyph glyph-name="dagger" unicode="&#x2020;" horiz-adv-x="454" d="M-9 338 L-9 543 L114 543 L114 984 L340 984 L340 543 L464 543 L464 338 L340 338 L340 -109 L114 -109 L114 338 L-9 338 Z " />
<glyph glyph-name="daggerdbl" unicode="&#x2021;" horiz-adv-x="454" d="M-9 168 L-9 373 L114 373 L114 508 L-9 508 L-9 713 L114 713 L114 984 L340 984 L340 713 L464 713 L464 508 L340 508 L340 373 L464 373 L464 168 L340 168 L340 -109 L114 -109 L114 168 L-9 168 Z " />
<glyph glyph-name="section" unicode="&#xa7;" horiz-adv-x="903" d="M253 840 Q253 810 278.5 794.5 Q304 779 345.5 771.5 Q387 764 440 760.5 Q493 757 548.5 750.5 Q604 744 657 731 Q710 718 751.5 690.5 Q793 663 818.5 618 Q844 573 844 503 Q844 394 750 321 Q792 294 818 249 Q844 204 844 133 Q844 81 825.5 41.5 Q807 2 776 -27.5 Q745 -57 704.5 -76.5 Q664 -96 620 -108 Q576 -120 531.5 -125 Q487 -130 448 -130 Q408 -130 363.5 -125.5 Q319 -121 274.5 -109.5 Q230 -98 189.5 -78.5 Q149 -59 118 -29.5 Q87 0 69 40.5 Q51 81 51 135 L247 135 Q247 111 266 95.5 Q285 80 314.5 71 Q344 62 379.5 59 Q415 56 448 56 Q490 56 525.5 62 Q561 68 587.5 79 Q614 90 628.5 106 Q643 122 643 143 Q643 172 616 186 Q589 200 545.5 206.5 Q502 213 446.5 216.5 Q391 220 333.5 227 Q276 234 222.5 249.5 Q169 265 128.5 296 Q88 327 66 377.5 Q44 428 51 505 L53 505 Q58 556 81.5 593.5 Q105 631 140 658 Q100 687 76 732.5 Q52 778 52 850 Q52 902 70.5 942 Q89 982 120 1011 Q151 1040 191.5 1059.5 Q232 1079 276 1091 Q320 1103 364.5 1108 Q409 1113 448 1113 Q487 1113 530.5 1107.5 Q574 1102 616 1089.5 Q658 1077 696 1056.5 Q734 1036 763 1006 Q792 976 808.5 935 Q825 894 825 841 L630 841 Q630 863 614 879 Q598 895 572 905.5 Q546 916 513.5 921.5 Q481 927 448 927 Q406 927 370 921 Q334 915 308 904 Q282 893 267.5 877 Q253 861 253 840 Z M448 592 Q406 592 368 585.5 Q330 579 301.5 565 Q273 551 257.5 528.5 Q242 506 245 474 Q248 444 269.5 426 Q291 408 321 398 Q351 388 385 385 Q419 382 448 382 Q481 382 513 385.5 Q545 389 571 398.5 Q597 408 614.5 425.5 Q632 443 637 470 Q643 506 626.5 530 Q610 554 580.5 567.5 Q551 581 515 586.5 Q479 592 448 592 Z " />
<glyph glyph-name="NULL" d="" />
<glyph glyph-name="nonmarkingreturn" unicode="&#xd;" horiz-adv-x="454" d="" />
<glyph glyph-name="A" unicode="A" horiz-adv-x="1078" d="M1048 0 L816 0 L739 172 Q734 185 722 192.5 Q710 200 696 200 L382 200 Q368 200 356 192.5 Q344 185 339 172 L262 0 L30 0 L423 875 L655 875 L1048 0 Z M444 404 L634 404 L539 617 L444 404 Z " />
</font>
</svg>
