<?xml version="1.0" encoding="UTF-8" standalone="no"?><!DOCTYPE svg PUBLIC "-//W3C//DTD SVG 1.1//EN" "http://www.w3.org/Graphics/SVG/1.1/DTD/svg11.dtd"><svg width="100%" height="100%" viewBox="0 0 267 267" version="1.1" xmlns="http://www.w3.org/2000/svg" xmlns:xlink="http://www.w3.org/1999/xlink" xml:space="preserve" xmlns:serif="http://www.serif.com/" style="fill-rule:evenodd;clip-rule:evenodd;stroke-linejoin:round;stroke-miterlimit:2;"><path d="M104.822,184.189c3.61,-0 7.219,-1.377 9.973,-4.132c0,0 76.77,-76.769 76.77,-76.769l-21.421,-21.42c-0.596,-0.596 -0.774,-1.492 -0.451,-2.271c0.322,-0.778 1.082,-1.286 1.924,-1.286l17.99,0c0.552,0 1.082,0.22 1.473,0.611l22.893,22.893c0.814,0.814 0.814,2.133 0,2.946c0,0 -78.242,78.243 -78.242,78.243c-3.568,3.567 -8.244,5.351 -12.92,5.351l-17.989,0c-1.151,0 -2.084,-0.932 -2.084,-2.083c0,-1.151 0.933,-2.083 2.084,-2.083Zm10.467,-44.52c0.814,-0.814 0.814,-2.133 0,-2.946l-18.766,-18.767c-0.391,-0.391 -0.921,-0.61 -1.473,-0.61l-17.99,-0c-0.842,-0 -1.602,0.507 -1.924,1.286c-0.323,0.778 -0.145,1.674 0.451,2.27l27.762,27.762c0.39,0.39 0.92,0.61 1.473,0.61c0.552,-0 1.082,-0.22 1.473,-0.61l8.994,-8.995Z" style="fill:#558b3e;"/><path d="M133.333,14.583c-65.539,0 -118.75,53.21 -118.75,118.75c0,65.54 53.211,118.75 118.75,118.75c65.54,0 118.75,-53.21 118.75,-118.75c0,-65.54 -53.21,-118.75 -118.75,-118.75Zm0,22.834c52.938,-0 95.917,42.978 95.917,95.916c0,52.938 -42.979,95.917 -95.917,95.917c-52.937,-0 -95.916,-42.979 -95.916,-95.917c-0,-52.938 42.979,-95.916 95.916,-95.916Z" style="fill:#42a147;"/><path d="M104.822,144.244l-26.288,-26.288c-0.814,-0.814 -2.133,-0.814 -2.947,-0l-22.893,22.893c-0.814,0.814 -0.814,2.133 -0,2.947l39.208,39.208c7.135,7.135 18.704,7.135 25.84,-0c-0,-0 78.242,-78.243 78.242,-78.243c0.814,-0.813 0.814,-2.132 0,-2.946l-22.893,-22.893c-0.814,-0.814 -2.133,-0.814 -2.947,-0l-65.322,65.322Z" style="fill:#67a042;"/></svg>