<svg xmlns="http://www.w3.org/2000/svg" xmlns:xlink="http://www.w3.org/1999/xlink" viewBox="0 0 559.68 684.48"><defs><style>.cls-1{isolation:isolate;}.cls-2{mix-blend-mode:soft-light;}.cls-2,.cls-4,.cls-6{opacity:0.75;}.cls-3{fill:url(#linear-gradient);}.cls-4{mix-blend-mode:multiply;}.cls-5{fill:url(#linear-gradient-8);}.cls-6{mix-blend-mode:screen;}.cls-7{fill:url(#radial-gradient);}.cls-8{fill:url(#linear-gradient-12);}</style><linearGradient id="linear-gradient" x1="45.11" y1="498.77" x2="555.52" y2="498.77" gradientUnits="userSpaceOnUse"><stop offset="0" stop-color="#524683"/><stop offset="1" stop-color="#397bbf"/></linearGradient><linearGradient id="linear-gradient-8" x1="133.07" y1="632.54" x2="467.39" y2="632.54" gradientUnits="userSpaceOnUse"><stop offset="0" stop-color="#524683"/><stop offset="0.99" stop-color="#397bbf"/></linearGradient><radialGradient id="radial-gradient" cx="297.64" cy="210.1" r="181.51" gradientUnits="userSpaceOnUse"><stop offset="0" stop-color="#b1dcbd"/><stop offset="0" stop-color="#355baa"/><stop offset="1" stop-color="#24243e"/></radialGradient><linearGradient id="linear-gradient-12" x1="116.13" y1="210.1" x2="479.15" y2="210.1" gradientUnits="userSpaceOnUse"><stop offset="0" stop-color="#3fbda6"/><stop offset="1" stop-color="#397bbf"/></linearGradient></defs><g class="cls-1"><g id="Layer_1" data-name="Layer 1"><image class="cls-2" width="2332" height="1102" transform="translate(0 400.56) scale(0.24)" xlink:href="digpeak1.png"/><path class="cls-3" d="M45.11,548.69V448.85h20.7q22.39,0,32.51,3.6A43.42,43.42,0,0,1,121,470.09q8.17,12.56,8.18,29.93,0,15-6.48,26.4t-16.84,16.84q-10.35,5.43-29,5.43Zm9.57-9.44H66.21q20.7,0,28.71-2.58a33.12,33.12,0,0,0,17.72-13.18q6.45-9.54,6.44-23.3,0-14.44-7-24.68a35.17,35.17,0,0,0-19.47-14q-9.37-2.85-30.89-2.85h-7Z" transform="translate(-24.84 -20.52)"/><path class="cls-3" d="M149.2,448.85h10v99.84h-10Z" transform="translate(-24.84 -20.52)"/><path class="cls-3" d="M280.44,465.61l-7.73,7.33a59.33,59.33,0,0,0-18.29-12.45A49.18,49.18,0,0,0,235,456.25,46.3,46.3,0,0,0,212.67,462a41.92,41.92,0,0,0-16.45,15.65,40.29,40.29,0,0,0-5.84,20.87,41.17,41.17,0,0,0,6,21.41,42.87,42.87,0,0,0,16.7,15.95,48,48,0,0,0,23.34,5.81q15.4,0,26.07-8.69a34.28,34.28,0,0,0,12.62-22.54H243.32v-9.63h43q-.14,23.15-13.74,36.75T236.19,551.2q-27.69,0-43.84-18.87a50.15,50.15,0,0,1-12.42-33.6,51.53,51.53,0,0,1,7.12-26.4,50.68,50.68,0,0,1,19.55-19.1,56.88,56.88,0,0,1,28.1-6.89,62.39,62.39,0,0,1,23.89,4.58Q269.8,455.5,280.44,465.61Z" transform="translate(-24.84 -20.52)"/><path class="cls-3" d="M306,448.85h10v99.84H306Z" transform="translate(-24.84 -20.52)"/><path class="cls-3" d="M331,458.62v-9.77h54.7v9.77H363.48v90.07H353.3V458.62Z" transform="translate(-24.84 -20.52)"/><path class="cls-3" d="M443,448.85l46.56,99.84H478.79l-15.7-32.85h-43l-15.56,32.85H393.39l47.17-99.84Zm-1.26,21.21L424.64,506.2h34.13Z" transform="translate(-24.84 -20.52)"/><path class="cls-3" d="M507.12,448.85h10v90.2h38.42v9.64h-48.4Z" transform="translate(-24.84 -20.52)"/><image class="cls-4" width="1519" height="545" transform="translate(100.08 553.68) scale(0.24)" xlink:href="digpeak2.png"/><path class="cls-5" d="M133.07,582.26h20.3q16.47,0,23.75,3a24.16,24.16,0,0,1,11.49,9.84,30.45,30.45,0,0,1,4.2,16.31q0,10.51-5.5,17.5a28.58,28.58,0,0,1-14.94,9.7q-5.53,1.58-20.16,1.58v42.58H133.07Zm19.14,39.3h6.08c4.79,0,8.11-.34,10-1a8.88,8.88,0,0,0,4.41-3.4,10,10,0,0,0,1.61-5.73q0-5.82-4.51-8.5-3.28-2-12.17-2h-5.4Z" transform="translate(-24.84 -20.52)"/><path class="cls-5" d="M213.71,582.26H268.6V601H232.72v18.18H268.6v18.39H232.72V664H268.6v18.8H213.71Z" transform="translate(-24.84 -20.52)"/><path class="cls-5" d="M319.22,582.26h19.42l38.67,100.55H357.42l-7.87-20.71h-41l-8.18,20.71H280.45Zm9.83,26.66-13.49,34.52h26.9Z" transform="translate(-24.84 -20.52)"/><path class="cls-5" d="M394.35,582.26h19.34v34.66L441,582.26h23l-35.11,44.87,38.53,55.68h-22.7l-31-44.67v44.67H394.35Z" transform="translate(-24.84 -20.52)"/><image class="cls-6" width="1638" height="1638" transform="translate(83.28) scale(0.24)" xlink:href="digpeak3.png"/><path class="cls-7" d="M479.15,210.1A181.51,181.51,0,1,1,297.64,28.59c70.7,0,119.7,44.7,126.91,51.75C431.27,86.91,479.15,137,479.15,210.1Z" transform="translate(-24.84 -20.52)"/><path class="cls-8" d="M469.08,152.36c-16.57,9.12-22.72,32.84-22.72,32.84s-17.15,64.47-24,89.17C418.88,286.86,410,295.78,402,301.54l-70.21,68.8s-4.48,3.12-8.38-.68c-3.63-3.55-6.36-10.43-5.09-20.54-16.58,9.55-30.32,17.57-32.93,19.45-7.32,5.25-9.15-2.75-9.15-2.75L276,347.76c-.22-18.06,16.24-25.15,16.24-25.15s22.86-13.95,44.35-26.07,20.58-35,20.58-35-.46-78-.23-86.65-9.14-4.58-9.14-4.58l-50.76,29.73c-7.78,4.11-9.83-3.89-9.83-3.89s-.46-9.37,0-23.09,17.83-24.47,17.83-24.47l118.44-67,1.46-.88-.41-.4c-7.21-7-56.21-51.75-126.91-51.75A181.61,181.61,0,0,0,130.43,280.84a55.45,55.45,0,0,0,24.1-21.71,52.08,52.08,0,0,0,5.58-13.84s17.15-64.47,24-89.17c3.19-11.5,11-20,18.42-25.74h0l71.93-70.48s4.49-3.13,8.38.68c3.69,3.6,6.44,10.61,5,21,16.72-9.62,30.6-17.72,33.22-19.61,7.32-5.25,9.15,2.75,9.15,2.75l.23,18.06c.22,18.06-16.24,25.15-16.24,25.15s-22.86,14-44.35,26.07-20.58,35-20.58,35,.46,78,.23,86.65,9.14,4.58,9.14,4.58l50.76-29.73c7.77-4.11,9.83,3.89,9.83,3.89s.46,9.37,0,23.09-17.83,24.47-17.83,24.47L183,348.87l-1.35.82A181.51,181.51,0,0,0,479.15,210.1,173.49,173.49,0,0,0,469.08,152.36Z" transform="translate(-24.84 -20.52)"/></g></g></svg>