<svg width="214" height="214" xmlns="http://www.w3.org/2000/svg" data-name="Layer 1">
 <title>logo</title>
 <defs>
  <radialGradient gradientTransform="matrix(1,0,0,1,-190.46041870117188,-313.4599914550781)" gradientUnits="userSpaceOnUse" r="107.04" cy="420.5" cx="297.5" id="radial-gradient">
   <stop stop-color="#b1dcbd" offset="0"/>
   <stop stop-color="#355baa" offset="0"/>
   <stop stop-color="#24243e" offset="1"/>
  </radialGradient>
  <linearGradient y2="0.49993" x2="1" y1="0.49993" x1="0" id="linear-gradient">
   <stop stop-color="#3fbda6" offset="0"/>
   <stop stop-color="#397bbf" offset="1"/>
  </linearGradient>
 </defs>
 <g>
  <title>Layer 1</title>
  <path id="svg_1" fill="url(#radial-gradient)" d="m214.07958,107.04001a107,107 0 1 1 -107,-107c41.7,0 70.59,26.35 74.85,30.51c3.92,3.84 32.15,33.37 32.15,76.49z" class="cls-1"/>
  <path id="svg_2" fill="url(#linear-gradient)" d="m208.14958,72.99001c-9.78,5.37 -13.4,19.36 -13.4,19.36s-10.11,38 -14.16,52.59c-2.05,7.37 -7.3,12.63 -12,16l-41.4,40.6a3.94,3.94 0 0 1 -4.94,-0.4c-2.15,-2.1 -3.76,-6.15 -3,-12.11c-9.79,5.62 -17.89,10.36 -19.43,11.46c-4.31,3.1 -5.39,-1.62 -5.39,-1.62l-0.14,-10.65c-0.13,-10.65 9.58,-14.83 9.58,-14.83s13.48,-8.23 26.16,-15.37a23.93,23.93 0 0 0 12.13,-20.63s-0.27,-46 -0.13,-51.11s-5.4,-2.69 -5.4,-2.69l-29.93,17.53c-4.59,2.42 -5.8,-2.3 -5.8,-2.3s-0.27,-5.53 0,-13.62s10.52,-14.42 10.52,-14.42l69.85,-39.51l0.85,-0.52l-0.23,-0.24c-4.26,-4.16 -33.15,-30.51 -74.85,-30.51a107.11,107.11 0 0 0 -98.61,148.76a32.84,32.84 0 0 0 14.22,-12.81a30.41,30.41 0 0 0 3.28,-8.16s10.12,-38 14.16,-52.58c1.88,-6.79 6.49,-11.78 10.87,-15.19l0,0l42.42,-41.57a3.94,3.94 0 0 1 4.94,0.4c2.18,2.13 3.8,6.26 3,12.36c9.86,-5.67 18,-10.44 19.59,-11.56c4.31,-3.1 5.39,1.62 5.39,1.62l0.14,10.65c0.13,10.66 -9.58,14.84 -9.58,14.84s-13.48,8.22 -26.15,15.37s-12.17,20.63 -12.17,20.63s0.27,46 0.13,51.1s5.4,2.7 5.4,2.7l29.93,-17.53c4.59,-2.43 5.8,2.29 5.8,2.29s0.27,5.53 0,13.62s-10.52,14.43 -10.52,14.43l-69.84,39.51l-0.8,0.48a107,107 0 0 0 175.44,-82.32a102.36,102.36 0 0 0 -5.93,-34.05z" class="cls-2"/>
 </g>
</svg>