<?xml version="1.0" standalone="no"?>
<!DOCTYPE svg PUBLIC "-//W3C//DTD SVG 20010904//EN"
 "http://www.w3.org/TR/2001/REC-SVG-20010904/DTD/svg10.dtd">
<svg version="1.0" xmlns="http://www.w3.org/2000/svg"
 width="214.000000pt" height="214.000000pt" viewBox="0 0 214.000000 214.000000"
 preserveAspectRatio="xMidYMid meet">
<metadata>
Created by potrace 1.14, written by Peter Selinger 2001-2017
</metadata>
<g transform="translate(0.000000,214.000000) scale(0.100000,-0.100000)"
fill="#000000" stroke="none">
<path d="M925 2133 c-16 -3 -66 -13 -110 -24 -387 -97 -687 -399 -786 -789
-41 -167 -32 -411 22 -580 25 -77 110 -245 145 -285 13 -15 24 -31 24 -34 0
-11 124 -137 185 -187 95 -79 178 -126 306 -173 129 -47 177 -55 359 -55 157
0 185 3 270 26 133 36 294 114 379 183 228 186 360 406 408 680 20 119 13 307
-17 425 -30 118 -124 306 -207 414 -56 73 -129 145 -208 204 -10 8 -84 50
-155 89 -70 39 -190 78 -314 102 -48 9 -240 11 -301 4z"/>
</g>
</svg>
