<?xml version="1.0" encoding="UTF-8" standalone="no"?><!DOCTYPE svg PUBLIC "-//W3C//DTD SVG 1.1//EN" "http://www.w3.org/Graphics/SVG/1.1/DTD/svg11.dtd"><svg width="100%" height="100%" viewBox="0 0 267 267" version="1.1" xmlns="http://www.w3.org/2000/svg" xmlns:xlink="http://www.w3.org/1999/xlink" xml:space="preserve" xmlns:serif="http://www.serif.com/" style="fill-rule:evenodd;clip-rule:evenodd;stroke-linejoin:round;stroke-miterlimit:2;"><path d="M134.806,165.931c0.814,-0.814 0.814,-2.133 0,-2.946l-9.971,-9.972c-0.814,-0.813 -2.133,-0.813 -2.946,0l-35.543,35.542c-0.595,0.596 -0.774,1.492 -0.451,2.271c0.322,0.778 1.082,1.286 1.925,1.286l19.943,-0c0.552,-0 1.082,-0.22 1.473,-0.61l25.57,-25.571Zm24.098,26.181c-0,-0 19.943,-0 19.943,-0c0.553,-0 1.083,-0.22 1.473,-0.61l21.153,-21.153c0.814,-0.814 0.814,-2.133 0,-2.947l-34.069,-34.069c0,0 34.069,-34.069 34.069,-34.069c0.814,-0.813 0.814,-2.132 0,-2.946l-21.153,-21.153c-0.39,-0.391 -0.92,-0.61 -1.473,-0.61l-19.943,-0c-0,-0 -1.083,3.947 -1.473,3.556l19.68,19.68c-0,0 -34.069,34.069 -34.069,34.069c-0.814,0.814 -0.814,2.133 -0,2.946l34.069,34.069c-0,0 -19.68,19.68 -19.68,19.68l1.473,3.557Zm-24.098,-88.43c0.814,-0.814 0.814,-2.133 0,-2.946l-25.57,-25.571c-0.391,-0.391 -0.921,-0.61 -1.473,-0.61l-19.943,-0c-0.843,-0 -1.603,0.508 -1.925,1.286c-0.323,0.778 -0.144,1.675 0.451,2.27l35.543,35.543c0.813,0.813 2.132,0.813 2.946,-0l9.971,-9.972Z" style="fill:#b72025;"/><path d="M133.333,14.583c-65.54,0 -118.75,53.21 -118.75,118.75c0,65.54 53.21,118.75 118.75,118.75c65.54,0 118.75,-53.21 118.75,-118.75c0,-65.54 -53.21,-118.75 -118.75,-118.75Zm0,22.834c52.938,-0 95.917,42.978 95.917,95.916c0,52.938 -42.979,95.917 -95.917,95.917c-52.938,-0 -95.916,-42.979 -95.916,-95.917c-0,-52.938 42.978,-95.916 95.916,-95.916Z" style="fill:#d52e2f;"/><path d="M123.362,109.234l-34.069,-34.069c-0.814,-0.813 -2.133,-0.813 -2.947,0l-21.152,21.153c-0.814,0.814 -0.814,2.133 -0,2.946l34.069,34.069c-0,0 -34.069,34.069 -34.069,34.069c-0.814,0.814 -0.814,2.133 -0,2.947l21.152,21.153c0.814,0.813 2.133,0.813 2.947,-0l34.069,-34.069c-0,-0 34.069,34.069 34.069,34.069c0.813,0.813 2.132,0.813 2.946,-0l21.153,-21.153c0.814,-0.814 0.814,-2.133 -0,-2.947l-34.069,-34.069c-0,0 34.069,-34.069 34.069,-34.069c0.814,-0.813 0.814,-2.132 -0,-2.946l-21.153,-21.153c-0.814,-0.813 -2.133,-0.813 -2.946,0l-34.069,34.069Z" style="fill:#d52e2f;"/></svg>