<?xml version="1.0" encoding="UTF-8"?>
<svg xmlns="http://www.w3.org/2000/svg" xmlns:xlink="http://www.w3.org/1999/xlink" version="1.2" >
<font id="Lorano Medium">
<font-face  font-family="Lorano" units-per-em="1000" ascent="875" descent="-179" font-style="normal" font-weight="500" font-stretch="normal" cap-height="875" x-height="875" underline-position="0" underline-thickness="0" />
<missing-glyph  horiz-adv-x="454" d="" />
<glyph glyph-name="B" unicode="B" horiz-adv-x="837" d="M782 640 Q782 574 749.5 521 Q717 468 664 437 Q717 407 749.5 353.5 Q782 300 782 234 Q782 186 763.5 143 Q745 100 713 68.5 Q681 37 638.5 18.5 Q596 0 547 0 L95 0 L95 875 L547 875 Q596 875 638.5 856.5 Q681 838 713 806 Q745 774 763.5 731.5 Q782 689 782 640 Z M637 244 Q637 270 627 293.5 Q617 317 599.5 334.5 Q582 352 559 362 Q536 372 510 372 L270 371 Q259 371 252 364 Q245 357 245 346 L245 143 Q245 132 252 125 Q259 118 270 118 L510 118 Q536 118 559 128 Q582 138 599.5 155 Q617 172 627 195 Q637 218 637 244 Z M510 503 Q536 503 559 513 Q582 523 599 540.5 Q616 558 626 581 Q636 604 636 630 Q636 657 626 680 Q616 703 599 720 Q582 737 559 747 Q536 757 510 757 L270 757 Q259 757 252 749.5 Q245 742 245 731 L245 529 Q245 518 252 511 Q259 504 270 504 L510 503 Z " />
<glyph glyph-name="C" unicode="C" horiz-adv-x="847" d="M489 725 Q430 725 377.5 702.5 Q325 680 285.5 641 Q246 602 223 549.5 Q200 497 200 438 Q200 379 222.5 326.5 Q245 274 284 235 Q323 196 375 173 Q427 150 486 150 Q543 150 596 171.5 Q649 193 690 234 L797 128 Q735 66 654.5 33 Q574 0 487 0 Q397 0 317 34.5 Q237 69 178 128.5 Q119 188 84.5 268 Q50 348 50 438 Q50 528 84.5 608 Q119 688 178 747 Q237 806 317 840.5 Q397 875 487 875 Q574 875 654.5 842 Q735 809 797 747 L690 641 Q650 681 598 703 Q546 725 489 725 Z " />
<glyph glyph-name="D" unicode="D" horiz-adv-x="917" d="M415 875 Q505 875 585 840.5 Q665 806 724 746.5 Q783 687 817.5 607 Q852 527 852 437 Q852 347 817.5 267 Q783 187 724 128 Q665 69 585 34.5 Q505 0 415 0 L95 0 L95 875 L415 875 Z M702 435 Q702 491 680.5 543.5 Q659 596 621.5 636.5 Q584 677 533 701 Q482 725 424 725 L270 725 Q259 725 252 717.5 Q245 710 245 699 L245 175 Q245 164 252 157 Q259 150 270 150 L424 150 Q481 150 531.5 173.5 Q582 197 620 237 Q658 277 680 328 Q702 379 702 435 Z " />
<glyph glyph-name="E" unicode="E" horiz-adv-x="808" d="M245 534 Q245 522 253 514 Q261 506 272 506 L743 506 L743 371 L272 371 Q261 371 253 363 Q245 355 245 344 L245 162 Q245 151 253 143 Q261 135 272 135 L743 135 L743 0 L95 0 L95 875 L743 874 L743 738 L272 738 Q261 738 253 729.5 Q245 721 245 710 L245 534 Z " />
<glyph glyph-name="F" unicode="F" horiz-adv-x="783" d="M245 534 Q245 522 253 514 Q261 506 272 506 L743 506 L743 371 L272 371 Q261 371 253 363 Q245 355 245 344 L245 0 L95 0 L95 875 L743 874 L743 739 L272 739 Q261 739 253 731 Q245 723 245 711 L245 534 Z " />
<glyph glyph-name="G" unicode="G" horiz-adv-x="1035" d="M496 475 L954 475 L954 0 L825 0 L825 166 Q801 128 765 97 Q729 66 686.5 44.5 Q644 23 595.5 11.5 Q547 0 497 0 Q407 0 327 34 Q247 68 188 127.5 Q129 187 94.5 266.5 Q60 346 60 437 Q60 527 94.5 607 Q129 687 188 746 Q247 805 327 839.5 Q407 874 497 874 Q588 874 667 840 Q746 806 806 746 L699 639 Q660 677 608.5 700 Q557 723 497 723 Q438 723 386 700.5 Q334 678 295 639 Q256 600 233.5 548 Q211 496 211 437 Q211 377 232 322 Q253 267 293 225 Q333 183 391.5 159 Q450 135 524 138 Q578 139 624.5 158 Q671 177 707 206 Q743 235 765.5 271.5 Q788 308 794 345 L496 345 L496 475 Z " />
<glyph glyph-name="H" unicode="H" horiz-adv-x="974" d="M733 534 L733 875 L879 875 L879 0 L733 0 L733 343 Q733 354 725 362.5 Q717 371 706 371 L268 371 Q257 371 249 362.5 Q241 354 241 343 L241 0 L95 0 L95 875 L241 875 L241 534 Q241 523 249 514.5 Q257 506 268 506 L706 506 Q717 506 725 514.5 Q733 523 733 534 Z " />
<glyph glyph-name="I" unicode="I" horiz-adv-x="406" d="M130 0 L130 875 L276 875 L276 0 L130 0 Z " />
<glyph glyph-name="J" unicode="J" horiz-adv-x="728" d="M487 355 L487 874 L638 874 L638 353 Q638 280 610.5 215.5 Q583 151 535 103 Q487 55 422.5 27.5 Q358 0 285 0 Q211 0 147 27.5 Q83 55 35 103 L137 206 Q165 178 202 164 Q239 150 282 150 Q324 150 361.5 166 Q399 182 427 210 Q455 238 471 275.5 Q487 313 487 355 Z " />
<glyph glyph-name="K" unicode="K" horiz-adv-x="926" d="M886 875 L500 438 L886 0 L704 0 L387 357 Q376 371 358 371 L268 371 Q257 371 249 362.5 Q241 354 241 343 L241 0 L95 0 L95 875 L241 875 L241 534 Q241 523 249 514.5 Q257 506 268 506 L360 506 Q378 506 390 520 L703 875 L886 875 Z " />
<glyph glyph-name="L" unicode="L" horiz-adv-x="759" d="M245 875 L245 178 Q245 158 256 146.5 Q267 135 287 135 L724 135 L724 0 L95 0 L95 875 L245 875 Z " />
<glyph glyph-name="M" unicode="M" horiz-adv-x="1113" d="M868 875 L1018 875 L1018 0 L868 0 L868 682 L556 370 L245 682 L245 0 L95 0 L95 875 L245 875 L536 583 Q544 575 556 575 Q568 575 576 583 L868 875 Z " />
<glyph glyph-name="N" unicode="N" horiz-adv-x="1019" d="M774 226 L774 875 L924 875 L924 0 L781 0 L246 656 L246 0 L95 0 L95 875 L239 875 L774 226 Z " />
<glyph glyph-name="O" unicode="O" horiz-adv-x="994" d="M497 149 Q556 149 608.5 171.5 Q661 194 700 233 Q739 272 762 324.5 Q785 377 785 437 Q785 496 762 548.5 Q739 601 700 640 Q661 679 608.5 701.5 Q556 724 497 724 Q437 724 385 701.5 Q333 679 294 640 Q255 601 232.5 548.5 Q210 496 210 437 Q210 377 232.5 324.5 Q255 272 294 233 Q333 194 385 171.5 Q437 149 497 149 Z M497 874 Q588 874 667.5 839.5 Q747 805 806 746 Q865 687 899.5 607 Q934 527 934 437 Q934 346 899.5 266.5 Q865 187 806 127.5 Q747 68 667.5 34 Q588 0 497 0 Q407 0 327 34 Q247 68 188 127.5 Q129 187 94.5 266.5 Q60 346 60 437 Q60 527 94.5 607 Q129 687 188 746 Q247 805 327 839.5 Q407 874 497 874 Z " />
<glyph glyph-name="P" unicode="P" horiz-adv-x="830" d="M504 496 Q531 496 555 505.5 Q579 515 597 532.5 Q615 550 625.5 573 Q636 596 636 623 Q636 649 626 672 Q616 695 599 712.5 Q582 730 559 740 Q536 750 510 750 L270 750 Q259 750 252 742.5 Q245 735 245 724 L245 524 Q245 513 253 504.5 Q261 496 272 496 L504 496 Z M520 875 Q572 875 619.5 855.5 Q667 836 703 802 Q739 768 760.5 722 Q782 676 782 623 Q782 571 762 525 Q742 479 707.5 445 Q673 411 627.5 391.5 Q582 372 530 372 L272 372 Q261 372 253 363.5 Q245 355 245 344 L245 0 L95 0 L95 875 L520 875 Z " />
<glyph glyph-name="Q" unicode="Q" horiz-adv-x="995" d="M481 873 Q574 877 657 844 Q740 811 801.5 751.5 Q863 692 899 611 Q935 530 935 437 Q935 366 916 308 Q897 250 866.5 204.5 Q836 159 796.5 125.5 Q757 92 716 70 Q697 59 693.5 40 Q690 21 704 7 L803 -92 L716 -178 L536 1 Q527 0 517.5 0 Q508 0 498 0 Q405 0 324 36 Q243 72 183.5 133.5 Q124 195 91 277.5 Q58 360 61 454 Q64 538 98.5 613 Q133 688 190 745 Q247 802 322 836 Q397 870 481 873 Z M498 149 Q557 149 609 171.5 Q661 194 700 233 Q739 272 761.5 324.5 Q784 377 784 437 Q784 496 761.5 548 Q739 600 700 638.5 Q661 677 609 699.5 Q557 722 498 722 Q439 722 386.5 699.5 Q334 677 295 638.5 Q256 600 233.5 548 Q211 496 211 437 Q211 377 233.5 324.5 Q256 272 295 233 Q334 194 386.5 171.5 Q439 149 498 149 Z " />
<glyph glyph-name="S" unicode="S" horiz-adv-x="848" d="M198 625 Q198 584 223.5 561.5 Q249 539 290.5 526.5 Q332 514 385 508.5 Q438 503 493 495.5 Q548 488 601 475.5 Q654 463 695.5 437 Q737 411 762.5 367.5 Q788 324 788 255 Q788 182 752 133 Q716 84 661 54.5 Q606 25 542 12.5 Q478 0 421 0 Q382 0 340 5 Q298 10 256.5 21.5 Q215 33 178 52.5 Q141 72 112.5 100.5 Q84 129 67.5 167.5 Q51 206 51 256 L185 256 Q185 218 208 194.5 Q231 171 266.5 157.5 Q302 144 343 139 Q384 134 420 134 Q459 134 498 139.5 Q537 145 568 159.5 Q599 174 618.5 198 Q638 222 638 258 Q638 295 613 314.5 Q588 334 546.5 344 Q505 354 452.5 359 Q400 364 345.5 371.5 Q291 379 238.5 392.5 Q186 406 144.5 434 Q103 462 78 508.5 Q53 555 53 627 Q53 700 88 747.5 Q123 795 177.5 823 Q232 851 298 862 Q364 873 426 873 Q484 873 546.5 859.5 Q609 846 661 815 Q713 784 746.5 733.5 Q780 683 780 608 L646 608 Q646 644 624.5 669 Q603 694 569.5 709.5 Q536 725 496.5 731.5 Q457 738 421 738 Q382 738 342 733.5 Q302 729 270 716.5 Q238 704 218 682 Q198 660 198 625 Z " />
<glyph glyph-name="T" unicode="T" horiz-adv-x="819" d="M30 748 L30 875 L789 875 L789 748 L521 748 Q505 748 493.5 737 Q482 726 482 709 L482 0 L337 0 L337 709 Q337 726 325.5 737 Q314 748 297 748 L30 748 Z " />
<glyph glyph-name="U" unicode="U" horiz-adv-x="886" d="M645 353 L645 874 L796 874 L796 353 Q796 280 768.5 215.5 Q741 151 693 103 Q645 55 580.5 27.5 Q516 0 443 0 Q370 0 305.5 27.5 Q241 55 193 103 Q145 151 117.5 215.5 Q90 280 90 353 L90 874 L240 874 L240 353 Q240 311 256 274 Q272 237 299.5 209.5 Q327 182 364 166 Q401 150 443 150 Q485 150 522 166 Q559 182 586 209.5 Q613 237 629 274 Q645 311 645 353 Z " />
<glyph glyph-name="V" unicode="V" horiz-adv-x="999" d="M500 169 L817 875 L969 875 L576 0 L423 0 L30 875 L183 875 L500 169 Z " />
<glyph glyph-name="W" unicode="W" horiz-adv-x="1379" d="M981 234 L1197 875 L1349 875 L1058 0 L905 0 L690 647 L474 0 L322 0 L30 875 L183 875 L398 234 L613 875 L766 875 L981 234 Z " />
<glyph glyph-name="X" unicode="X" horiz-adv-x="941" d="M740 874 L910 874 L581 462 Q573 451 573 436.5 Q573 422 581 411 L911 0 L740 0 L470 326 L200 0 L30 0 L359 411 Q368 422 368 436.5 Q368 451 359 462 L31 874 L210 874 L470 555 L740 874 Z " />
<glyph glyph-name="Y" unicode="Y" horiz-adv-x="996" d="M425 410 Q425 426 415 436 L30 874 L205 874 L498 542 L790 874 L966 874 L581 436 Q571 426 571 410 L571 0 L425 0 L425 410 Z " />
<glyph glyph-name="Z" unicode="Z" horiz-adv-x="879" d="M819 875 L819 750 L255 124 L799 124 L799 0 L52 0 L52 124 L614 750 L52 750 L52 875 L819 875 Z " />
<glyph glyph-name="a" unicode="a" horiz-adv-x="932" d="M704 875 L872 0 L723 0 L678 231 Q675 246 671 264 Q667 282 661 297 Q655 312 645 322 Q635 332 620 332 L370 332 Q356 332 340 331.5 Q324 331 309.5 327 Q295 323 284.5 315.5 Q274 308 271 293 L213 0 L60 0 L230 875 L704 875 Z M304 471 L635 471 L580 752 L360 752 L304 471 Z " />
<glyph glyph-name="q" unicode="q" horiz-adv-x="994" d="M934 436 Q934 356 908 287 Q882 218 838 163.5 Q794 109 736.5 72 Q679 35 616 19 L734 -98 L647 -179 L527 -60 Q519 -51 511 -48 Q503 -45 498 -45 Q492 -45 483.5 -47.5 Q475 -50 467 -59 L347 -179 L266 -97 L381 18 Q317 34 259 71 Q201 108 156.5 162.5 Q112 217 86 286.5 Q60 356 60 436 Q60 526 94.5 606 Q129 686 188 745 Q247 804 327 838.5 Q407 873 497 873 Q588 873 667.5 838.5 Q747 804 806 745 Q865 686 899.5 606 Q934 526 934 436 Z M497 148 Q556 148 608.5 170.5 Q661 193 700 232 Q739 271 761.5 323.5 Q784 376 784 436 Q784 495 761.5 547 Q739 599 700 638 Q661 677 608.5 699.5 Q556 722 497 722 Q437 722 385 699.5 Q333 677 294 638 Q255 599 232.5 547 Q210 495 210 436 Q210 376 232.5 323.5 Q255 271 294 232 Q333 193 385 170.5 Q437 148 497 148 Z " />
<glyph glyph-name="zero" unicode="0" horiz-adv-x="840" d="M419 885 Q492 885 556 857.5 Q620 830 667.5 782.5 Q715 735 742.5 671 Q770 607 770 534 L770 340 Q770 268 742.5 204 Q715 140 667.5 92.5 Q620 45 556 17.5 Q492 -10 419 -10 Q347 -10 283 17.5 Q219 45 172 92.5 Q125 140 97.5 204 Q70 268 70 340 L70 534 Q70 607 97.5 671 Q125 735 172 782.5 Q219 830 283 857.5 Q347 885 419 885 Z M633 340 L633 534 Q633 578 616 616.5 Q599 655 570 684 Q541 713 502 730 Q463 747 419 747 Q375 747 336.5 730 Q298 713 269 684 Q240 655 223 616.5 Q206 578 206 534 L206 340 Q206 296 223 257.5 Q240 219 269 190.5 Q298 162 336.5 145 Q375 128 419 128 Q463 128 502 145 Q541 162 570 190.5 Q599 219 616 257.5 Q633 296 633 340 Z " />
<glyph glyph-name="one" unicode="1" horiz-adv-x="642" d="M355 0 L355 651 L141 429 L40 533 L381 874 L502 874 L502 0 L355 0 Z " />
<glyph glyph-name="two" unicode="2" horiz-adv-x="806" d="M751 611 Q751 551 730.5 505.5 Q710 460 677 423.5 Q644 387 602.5 357 Q561 327 519 298 L269 132 L751 132 L751 0 L55 0 L55 144 L443 403 Q465 419 494.5 439.5 Q524 460 549.5 486 Q575 512 593 542.5 Q611 573 611 609 Q611 678 556.5 720 Q502 762 403 762 Q361 762 322 751 Q283 740 253 716.5 Q223 693 205 656.5 Q187 620 187 569 L55 569 Q55 652 84 712.5 Q113 773 161 812 Q209 851 272 870 Q335 889 403 889 Q469 889 532 875 Q595 861 643.5 829 Q692 797 721.5 743.5 Q751 690 751 611 Z " />
<glyph glyph-name="three" unicode="3" horiz-adv-x="825" d="M760 633 Q760 593 747.5 560.5 Q735 528 713 502.5 Q691 477 660 459 Q629 441 593 431 Q656 418 699 380 Q742 342 753 285 Q757 263 757 241 Q757 219 755 197 Q747 135 715 95 Q683 55 635.5 32 Q588 9 530 -0.5 Q472 -10 412 -10 Q354 -10 292.5 2 Q231 14 180.5 44 Q130 74 97.5 124.5 Q65 175 65 252 L193 252 Q193 209 217 182 Q241 155 275.5 139.5 Q310 124 347 118.5 Q384 113 411 113 Q457 113 495.5 121 Q534 129 562 145 Q590 161 605 185 Q620 209 620 242 Q620 281 604.5 305 Q589 329 563.5 342.5 Q538 356 505 361 Q472 366 436 366 L327 366 L327 496 L436 496 Q470 496 503 504.5 Q536 513 562 530 Q588 547 604 573.5 Q620 600 620 635 Q620 702 564 732 Q508 762 412 762 Q372 762 334 754.5 Q296 747 266 731 Q236 715 218 689.5 Q200 664 200 627 L65 627 Q65 704 97 754 Q129 804 179.5 833 Q230 862 291.5 873.5 Q353 885 412 885 Q464 885 524.5 874.5 Q585 864 637.5 836.5 Q690 809 725 760 Q760 711 760 633 Z " />
<glyph glyph-name="four" unicode="4" horiz-adv-x="784" d="M624 875 L624 317 L749 317 L749 191 L624 191 L624 0 L479 0 L479 191 L10 191 L10 297 L485 875 L624 875 Z M479 317 L479 692 L171 317 L479 317 Z " />
<glyph glyph-name="five" unicode="5" horiz-adv-x="766" d="M210 541 Q248 583 297.5 602 Q347 621 410 621 Q498 621 561.5 597.5 Q625 574 666 533 Q707 492 726.5 436 Q746 380 746 315 Q746 236 721 175.5 Q696 115 650.5 73.5 Q605 32 541 11 Q477 -10 398 -10 Q326 -10 264 10 Q202 30 156 65 Q110 100 82 149 Q54 198 50 255 L178 267 Q179 236 196 208 Q213 180 242 158.5 Q271 137 311 124.5 Q351 112 398 112 Q498 112 556.5 165 Q615 218 615 315 Q615 357 601.5 392.5 Q588 428 561 454.5 Q534 481 494.5 495.5 Q455 510 403 510 Q360 510 322 502 Q284 494 254 477 Q224 460 204 434.5 Q184 409 178 375 L50 393 L135 874 L676 874 L676 757 L290 757 Q273 757 261 745.5 Q249 734 244 717 L210 541 Z " />
<glyph glyph-name="six" unicode="6" horiz-adv-x="826" d="M425 -10 Q348 -10 282.5 10 Q217 30 170 68.5 Q123 107 96.5 163.5 Q70 220 70 293 L70 487 Q70 572 90 644.5 Q110 717 153 770 Q196 823 263 853.5 Q330 884 425 884 Q496 884 556.5 866.5 Q617 849 661.5 817 Q706 785 731 739.5 Q756 694 756 639 L620 639 Q620 698 567 732.5 Q514 767 422 767 Q359 767 317 744.5 Q275 722 250.5 684.5 Q226 647 215.5 598.5 Q205 550 205 498 L205 449 Q217 465 237.5 482 Q258 499 287 512.5 Q316 526 353 534.5 Q390 543 434 543 Q515 543 577 524 Q639 505 681 469.5 Q723 434 744.5 384.5 Q766 335 766 275 Q766 213 743.5 161 Q721 109 677.5 71 Q634 33 570.5 11.5 Q507 -10 425 -10 Z M423 429 Q377 429 338 419.5 Q299 410 271 391 Q243 372 227 344.5 Q211 317 211 280 Q211 246 223.5 215.5 Q236 185 262 161.5 Q288 138 328 124.5 Q368 111 423 111 Q518 111 571.5 156 Q625 201 625 275 Q625 345 572.5 387 Q520 429 423 429 Z " />
<glyph glyph-name="seven" unicode="7" horiz-adv-x="724" d="M704 874 L704 757 L308 0 L151 0 L532 737 L25 737 L25 874 L704 874 Z " />
<glyph glyph-name="eight" unicode="8" horiz-adv-x="822" d="M587 442 Q667 419 714.5 368 Q762 317 762 231 Q762 168 730.5 123 Q699 78 648.5 49.5 Q598 21 535.5 8 Q473 -5 411 -5 Q349 -5 286 8.5 Q223 22 173 50.5 Q123 79 91.5 123.5 Q60 168 60 231 Q60 317 107 368 Q154 419 235 442 Q154 467 107 519.5 Q60 572 60 658 Q60 720 92 763.5 Q124 807 174.5 834.5 Q225 862 287.5 874.5 Q350 887 411 887 Q472 887 534.5 874.5 Q597 862 647.5 834.5 Q698 807 730 763.5 Q762 720 762 658 Q762 572 714.5 519.5 Q667 467 587 442 Z M210 646 Q210 607 229.5 581.5 Q249 556 279 541 Q309 526 344.5 519.5 Q380 513 411 513 Q442 513 477.5 519.5 Q513 526 543 541 Q573 556 592.5 581.5 Q612 607 612 646 Q612 680 593 702.5 Q574 725 544.5 739 Q515 753 479.5 759 Q444 765 411 765 Q378 765 342.5 759 Q307 753 277.5 739 Q248 725 229 702.5 Q210 680 210 646 Z M411 368 Q381 368 346 362 Q311 356 280.5 341.5 Q250 327 229.5 302.5 Q209 278 209 241 Q209 207 228 183 Q247 159 276.5 143.5 Q306 128 341.5 121 Q377 114 411 114 Q445 114 480.5 121 Q516 128 545.5 143.5 Q575 159 594 183 Q613 207 613 241 Q613 278 592.5 302.5 Q572 327 541.5 341.5 Q511 356 476 362 Q441 368 411 368 Z " />
<glyph glyph-name="nine" unicode="9" horiz-adv-x="826" d="M411 884 Q488 884 553 864 Q618 844 665.5 805.5 Q713 767 739.5 710.5 Q766 654 766 581 L766 387 Q766 302 746 229.5 Q726 157 683 103.5 Q640 50 572.5 20 Q505 -10 411 -10 Q340 -10 279 7.5 Q218 25 174 57 Q130 89 105 134 Q80 179 80 235 L216 235 Q216 175 269 141 Q322 107 414 107 Q477 107 518.5 129.5 Q560 152 584.5 189.5 Q609 227 619.5 275.5 Q630 324 630 376 L630 424 Q619 408 598.5 391.5 Q578 375 549 361.5 Q520 348 483 339.5 Q446 331 402 331 Q321 331 259 350 Q197 369 155 404.5 Q113 440 91.5 489.5 Q70 539 70 599 Q70 661 92.5 713 Q115 765 158.5 803 Q202 841 265.5 862.5 Q329 884 411 884 Z M413 444 Q459 444 497.5 453.5 Q536 463 564.5 481.5 Q593 500 609 528 Q625 556 625 593 Q625 627 612.5 658 Q600 689 574 712 Q548 735 508 749 Q468 763 413 763 Q318 763 264.5 717.5 Q211 672 211 599 Q211 528 263 486 Q315 444 413 444 Z " />
<glyph glyph-name="ampersand" unicode="&#x26;" horiz-adv-x="841" d="M331 99 Q382 99 425 118.5 Q468 138 500 171 Q458 219 412 272 Q366 325 323 370 Q302 362 277.5 348.5 Q253 335 231.5 317 Q210 299 196 276 Q182 253 182 225 Q182 166 223.5 132.5 Q265 99 331 99 Z M282 655 Q282 632 289 612.5 Q296 593 307.5 575.5 Q319 558 333.5 542 Q348 526 362 510 Q383 521 409.5 535.5 Q436 550 459.5 569.5 Q483 589 499 613.5 Q515 638 515 668 Q515 689 506 706.5 Q497 724 481 737.5 Q465 751 444.5 758.5 Q424 766 402 766 Q379 766 357 758 Q335 750 318.5 735 Q302 720 292 699.5 Q282 679 282 655 Z M818 0 L662 0 L588 79 Q571 62 546 45 Q521 28 488 15 Q455 2 414 -6 Q373 -14 323 -14 Q272 -14 222.5 2.5 Q173 19 135 49 Q97 79 73.5 121 Q50 163 50 215 Q50 267 67 305 Q84 343 112 371.5 Q140 400 175.5 420 Q211 440 247 457 Q225 481 206.5 503.5 Q188 526 174.5 550.5 Q161 575 153.5 603.5 Q146 632 147 667 Q148 715 169 755.5 Q190 796 225 825.5 Q260 855 306.5 871.5 Q353 888 404 888 Q460 888 505 870 Q550 852 582 822.5 Q614 793 631 755.5 Q648 718 648 679 Q648 627 629 587 Q610 547 579.5 516 Q549 485 510.5 461.5 Q472 438 434 419 L582 254 Q591 263 600.5 279.5 Q610 296 619 315.5 Q628 335 634.5 356 Q641 377 643 394 L767 393 Q767 363 759 331 Q751 299 737.5 268.5 Q724 238 706 211 Q688 184 669 163 L818 0 Z " />
<glyph glyph-name="germandbls" unicode="&#xdf;" horiz-adv-x="884" d="M647 538 Q636 523 641.5 506.5 Q647 490 676 486 Q697 481 729 467.5 Q761 454 791 427.5 Q821 401 842.5 359 Q864 317 864 255 Q864 202 844.5 155.5 Q825 109 790.5 74.5 Q756 40 709.5 20 Q663 0 609 0 L470 0 L471 135 L575 135 Q595 135 618 142.5 Q641 150 660 165 Q679 180 691.5 202.5 Q704 225 704 255 Q704 285 691.5 306.5 Q679 328 659.5 342.5 Q640 357 617.5 364 Q595 371 575 371 L471 371 L470 507 L615 746 L279 746 Q262 746 251 735 Q240 724 240 707 L240 0 L90 0 L90 875 L808 875 L808 792 L647 538 Z " />
<glyph glyph-name="parenleft" unicode="&#x28;" horiz-adv-x="525" d="M473 1009 Q340 877 277.5 727 Q215 577 223 399 Q230 240 292 111.5 Q354 -17 473 -134 L382 -226 Q244 -90 172.5 62 Q101 214 94 398 Q85 600 156.5 774.5 Q228 949 382 1103 L473 1009 Z " />
<glyph glyph-name="braceleft" unicode="&#x7b;" horiz-adv-x="599" d="M500 982 Q464 982 432 969 Q400 956 375.5 933.5 Q351 911 336.5 879.5 Q322 848 322 812 L322 642 Q322 577 290 524 Q258 471 205 440 Q258 409 290.5 356 Q323 303 323 238 L323 68 Q323 32 337.5 0.5 Q352 -31 376.5 -53.5 Q401 -76 433 -89 Q465 -102 501 -102 L549 -102 L549 -226 L466 -226 Q410 -226 360 -204.5 Q310 -183 273 -146 Q236 -109 214.5 -59.5 Q193 -10 193 46 L193 198 Q193 234 178.5 265.5 Q164 297 139.5 319.5 Q115 342 83 355 Q51 368 15 368 L1 368 L1 512 L15 512 Q51 512 83 525 Q115 538 139.5 560.5 Q164 583 178.5 614 Q193 645 193 681 L193 802 Q193 865 217 920 Q241 975 282.5 1016 Q324 1057 379 1081 Q434 1105 497 1105 L549 1105 L549 982 L500 982 Z " />
<glyph glyph-name="bracketleft" unicode="&#x5b;" horiz-adv-x="407" d="M357 979 L126 979 L126 -103 L357 -103 L357 -229 L0 -229 L0 1105 L357 1105 L357 979 Z " />
<glyph glyph-name="bar" unicode="&#x7c;" horiz-adv-x="406" d="M276 -109 L130 -109 L130 984 L276 984 L276 -109 Z " />
<glyph glyph-name="ogonek" unicode="&#x2db;" horiz-adv-x="324" d="M324 -198 Q292 -230 256.5 -246.5 Q221 -263 184 -263 Q146 -263 112.5 -248.5 Q79 -234 54 -208.5 Q29 -183 14.5 -149.5 Q0 -116 0 -78 Q0 -40 14.5 -6.5 Q29 27 54.5 51.5 Q80 76 115 90.5 Q150 105 191 105 L191 0 Q155 0 129.5 -22.5 Q104 -45 104 -77 Q104 -109 126.5 -131 Q149 -153 181 -153 Q213 -153 242 -124 L324 -198 Z " />
<glyph glyph-name="cedilla" unicode="&#xb8;" horiz-adv-x="279" d="M238 -16 Q259 -36 269 -62.5 Q279 -89 278.5 -116 Q278 -143 267.5 -169.5 Q257 -196 237 -216 Q217 -236 191.5 -246.5 Q166 -257 139 -257 Q112 -257 86.5 -246.5 Q61 -236 41 -216 Q20 -195 10 -169 Q0 -143 0 -116 L84 -116 Q84 -138 101 -155 Q118 -172 141 -172 Q164 -172 181 -155 Q198 -138 198 -115 Q198 -92 181 -75 L87 19 L145 77 L238 -16 Z " />
<glyph glyph-name="period" unicode="&#x2e;" horiz-adv-x="335" d="M167 -17 Q133 -17 109 7 Q85 31 85 66 Q85 100 109 124 Q133 148 167 148 Q202 148 226 124 Q250 100 250 66 Q250 31 226 7 Q202 -17 167 -17 Z " />
<glyph glyph-name="comma" unicode="&#x2c;" horiz-adv-x="281" d="M60 98 L191 98 L169 -183 L60 -183 L60 98 Z " />
<glyph glyph-name="macron" unicode="&#xaf;" horiz-adv-x="347" d="M0 1036 L0 1162 L427 1162 L427 1036 L0 1036 Z " />
<glyph glyph-name="circumflex" unicode="&#x2c6;" horiz-adv-x="492" d="M405 948 L273 1080 Q262 1091 245.5 1091 Q229 1091 218 1080 L86 948 L10 1024 L246 1260 L482 1024 L406 948 L405 948 Z " />
<glyph glyph-name="breve" unicode="&#x2d8;" horiz-adv-x="363" d="M181 1109 Q208 1110 227 1129 Q246 1148 246 1175 L363 1175 Q363 1137 348.5 1104.5 Q334 1072 309.5 1047 Q285 1022 251.5 1008 Q218 994 181 994 Q143 994 110.5 1008 Q78 1022 53 1047 Q28 1072 14 1104.5 Q0 1137 0 1175 L116 1175 Q116 1148 135.5 1129 Q155 1110 181 1109 Z " />
<glyph glyph-name="dieresis" unicode="&#xa8;" horiz-adv-x="468" d="M468 1082 Q468 1047 444 1023 Q420 999 385 999 Q350 999 326 1023 Q302 1047 302 1082 Q302 1117 326 1141 Q350 1165 385 1165 Q420 1165 444 1141 Q468 1117 468 1082 Z M166 1082 Q166 1047 142 1023 Q118 999 83 999 Q48 999 24 1023 Q0 1047 0 1082 Q0 1117 24 1141 Q48 1165 83 1165 Q118 1165 142 1141 Q166 1117 166 1082 Z " />
<glyph glyph-name="ring" unicode="&#x2da;" horiz-adv-x="289" d="M144 1056 Q168 1056 185.5 1073.5 Q203 1091 203 1115 Q203 1139 185.5 1156.5 Q168 1174 144 1174 Q120 1174 102.5 1156.5 Q85 1139 85 1115 Q85 1091 102.5 1073.5 Q120 1056 144 1056 Z M144 1260 Q174 1260 200.5 1248.5 Q227 1237 246.5 1217.5 Q266 1198 277.5 1171.5 Q289 1145 289 1115 Q289 1085 277.5 1058.5 Q266 1032 246.5 1012.5 Q227 993 200.5 982 Q174 971 144 971 Q114 971 87.5 982 Q61 993 41.5 1012.5 Q22 1032 11 1058.5 Q0 1085 0 1115 Q0 1145 11 1171.5 Q22 1198 41.5 1217.5 Q61 1237 87.5 1248.5 Q114 1260 144 1260 Z " />
<glyph glyph-name="acute" unicode="&#xb4;" horiz-adv-x="307" d="M197 1006 L80 1006 L270 1333 L387 1256 L197 1006 Z " />
<glyph glyph-name="tilde" unicode="&#x2dc;" horiz-adv-x="437" d="M0 1154 Q36 1192 72.5 1196 Q109 1200 145.5 1187.5 Q182 1175 218.5 1153.5 Q255 1132 291.5 1119.5 Q328 1107 364 1111 Q400 1115 437 1153 L437 1024 Q400 986 364 982 Q328 978 291.5 990.5 Q255 1003 218.5 1024.5 Q182 1046 145.5 1058.5 Q109 1071 72.5 1067 Q36 1063 0 1025 L0 1154 Z " />
<glyph glyph-name="dotaccent" unicode="&#x2d9;" horiz-adv-x="166" d="M166 1052 Q166 1017 142 993 Q118 969 83 969 Q48 969 24 993 Q0 1017 0 1052 Q0 1087 24 1111 Q48 1135 83 1135 Q118 1135 142 1111 Q166 1087 166 1052 Z " />
<glyph glyph-name="bracketright" unicode="&#x5d;" horiz-adv-x="833" d="M0 1105 L357 1105 L357 -229 L0 -229 L0 -103 L231 -103 L231 979 L0 979 L0 1105 Z " />
<glyph glyph-name="parenright" unicode="&#x29;" horiz-adv-x="525" d="M143 1103 Q297 949 368.5 774.5 Q440 600 431 398 Q424 214 352.5 62 Q281 -90 143 -226 L52 -134 Q170 -17 232.5 111.5 Q295 240 302 399 Q309 577 247 727 Q185 877 52 1009 L143 1103 Z " />
<glyph glyph-name="grave" unicode="&#x60;" horiz-adv-x="329" d="M-80 1262 L49 1347 L249 1006 L114 1006 L-80 1262 Z " />
<glyph glyph-name="slash" unicode="&#x2f;" horiz-adv-x="518" d="M-30 -163 L426 1090 L548 1041 L92 -212 L-30 -163 Z " />
<glyph glyph-name="Adieresis" unicode="&#xc4;" horiz-adv-x="998" d="M968 0 L816 0 L707 241 Q702 254 690 261.5 Q678 269 664 269 L333 269 Q319 269 307 261.5 Q295 254 290 241 L182 0 L30 0 L423 875 L575 875 L968 0 Z M364 404 L634 404 L499 706 L364 404 Z M733 1082 Q733 1047 709 1023 Q685 999 650 999 Q615 999 591 1023 Q567 1047 567 1082 Q567 1117 591 1141 Q615 1165 650 1165 Q685 1165 709 1141 Q733 1117 733 1082 Z M431 1082 Q431 1047 407 1023 Q383 999 348 999 Q313 999 289 1023 Q265 1047 265 1082 Q265 1117 289 1141 Q313 1165 348 1165 Q383 1165 407 1141 Q431 1117 431 1082 Z " />
<glyph glyph-name="Aring" unicode="&#xc5;" horiz-adv-x="998" d="M968 0 L816 0 L707 241 Q702 254 690 261.5 Q678 269 664 269 L333 269 Q319 269 307 261.5 Q295 254 290 241 L182 0 L30 0 L423 875 L575 875 L968 0 Z M364 404 L634 404 L499 706 L364 404 Z M499 1056 Q523 1056 540 1073.5 Q557 1091 557 1115 Q557 1139 540 1156.5 Q523 1174 499 1174 Q475 1174 457.5 1156.5 Q440 1139 440 1115 Q440 1091 457.5 1073.5 Q475 1056 499 1056 Z M499 1260 Q529 1260 555 1248.5 Q581 1237 600.5 1217.5 Q620 1198 631.5 1171.5 Q643 1145 643 1115 Q643 1085 631.5 1058.5 Q620 1032 600.5 1012.5 Q581 993 555 982 Q529 971 499 971 Q469 971 442.5 982 Q416 993 396.5 1012.5 Q377 1032 365.5 1058.5 Q354 1085 354 1115 Q354 1145 365.5 1171.5 Q377 1198 396.5 1217.5 Q416 1237 442.5 1248.5 Q469 1260 499 1260 Z " />
<glyph glyph-name="ae" unicode="&#xe6;" horiz-adv-x="1130" d="M663 162 Q663 151 671 143 Q679 135 690 135 L1065 135 L1065 0 L517 0 L517 347 Q515 358 508 364.5 Q501 371 490 371 L286 371 Q269 371 255.5 360 Q242 349 238 332 L173 0 L30 0 L200 875 L517 875 L1065 874 L1065 738 L690 738 Q679 738 671 730 Q663 722 663 710 L663 534 Q663 522 671 514 Q679 506 690 506 L1065 506 L1065 371 L663 371 L663 162 Z M517 507 L517 716 Q515 727 508 733.5 Q501 740 490 740 L318 740 L271 507 L517 507 Z " />
<glyph glyph-name="AE" unicode="&#xc6;" horiz-adv-x="1177" d="M1112 874 L1112 738 L687 738 Q676 738 668 729.5 Q660 721 660 710 L660 534 Q660 522 668 514 Q676 506 687 506 L1112 506 L1112 371 L687 371 Q676 371 668 363 Q660 355 660 344 L660 162 Q660 151 668 143 Q676 135 687 135 L1112 135 L1112 0 L514 0 L514 269 L333 269 Q319 269 307 261.5 Q295 254 290 241 L182 0 L30 0 L423 875 L677 875 L1112 874 Z M514 387 L514 738 L357 387 L514 387 Z " />
<glyph glyph-name="paragraph" unicode="&#xb6;" horiz-adv-x="1149" d="M883 809 L791 809 Q782 809 776 800 Q770 791 770 783 L770 0 L624 0 L624 344 Q624 355 616.5 363.5 Q609 372 597 372 L292 372 Q240 372 194 391.5 Q148 411 114 445 Q80 479 60 525 Q40 571 40 623 Q40 676 61 722 Q82 768 118 802 Q154 836 201.5 855.5 Q249 875 301 875 L1054 875 L1054 0 L908 0 L908 783 Q908 794 901 801.5 Q894 809 883 809 Z M191 622 Q191 597 200.5 576 Q210 555 226.5 539.5 Q243 524 265 515.5 Q287 507 311 507 L597 506 Q608 506 616 514.5 Q624 523 624 534 L624 715 Q624 724 616 731 Q608 738 599 738 L306 738 Q282 738 261 729 Q240 720 224.5 704 Q209 688 200 667 Q191 646 191 622 Z " />
<glyph glyph-name="Agrave" unicode="&#xc0;" horiz-adv-x="998" d="M968 0 L816 0 L707 241 Q702 254 690 261.5 Q678 269 664 269 L333 269 Q319 269 307 261.5 Q295 254 290 241 L182 0 L30 0 L423 875 L575 875 L968 0 Z M364 404 L634 404 L499 706 L364 404 Z M224 1262 L354 1347 L553 1006 L419 1006 L224 1262 Z " />
<glyph glyph-name="Atilde" unicode="&#xc3;" horiz-adv-x="998" d="M968 0 L816 0 L707 241 Q702 254 690 261.5 Q678 269 664 269 L333 269 Q319 269 307 261.5 Q295 254 290 241 L182 0 L30 0 L423 875 L575 875 L968 0 Z M280 1154 Q316 1192 353 1196 Q390 1200 426.5 1187.5 Q463 1175 499 1153.5 Q535 1132 572 1119.5 Q609 1107 645 1111 Q681 1115 718 1153 L718 1024 Q681 986 645 982 Q609 978 572 990.5 Q535 1003 498.5 1024.5 Q462 1046 425.5 1058.5 Q389 1071 352.5 1067 Q316 1063 280 1025 L280 1154 Z M364 404 L634 404 L499 706 L364 404 Z " />
<glyph glyph-name="OE" unicode="&#x152;" horiz-adv-x="1250" d="M1185 874 L1185 738 L670 738 Q659 738 651 729.5 Q643 721 643 710 L643 534 Q643 522 651 514 Q659 506 670 506 L1185 506 L1185 371 L670 371 Q659 371 651 363 Q643 355 643 344 L643 162 Q643 151 651 143 Q659 135 670 135 L1185 135 L1185 0 L497 0 Q407 0 327 34 Q247 68 188 127.5 Q129 187 94.5 266.5 Q60 346 60 437 Q60 527 94.5 607 Q129 687 188 746.5 Q247 806 327 840.5 Q407 875 497 875 L1185 874 Z M497 740 Q434 740 379 716 Q324 692 282.5 651 Q241 610 217.5 555 Q194 500 194 437 Q194 374 217.5 318.5 Q241 263 282.5 221.5 Q324 180 379 156.5 Q434 133 497 133 L497 740 Z " />
<glyph glyph-name="hyphen" unicode="&#x2d;" horiz-adv-x="498" d="M20 371 L20 506 L478 506 L478 371 L20 371 Z " />
<glyph glyph-name="sterling" unicode="&#xa3;" horiz-adv-x="836" d="M623 359 L412 359 Q400 359 386.5 358 Q373 357 362.5 353.5 Q352 350 345 342 Q338 334 338 320 L338 178 Q338 158 349 146.5 Q360 135 380 135 L771 135 L771 0 L188 0 L188 283 Q188 295 187 308.5 Q186 322 182.5 333 Q179 344 171 351.5 Q163 359 150 359 L45 359 L45 500 L188 500 Q188 578 212.5 647.5 Q237 717 283 769.5 Q329 822 394.5 853 Q460 884 541 884 Q612 884 676.5 857.5 Q741 831 791 781 L700 687 Q670 717 631 733.5 Q592 750 550 750 Q506 750 467.5 733 Q429 716 400 687 Q371 658 354.5 619.5 Q338 581 338 537 L338 500 L623 500 L623 359 Z " />
<glyph glyph-name="plus" unicode="&#x2b;" horiz-adv-x="483" d="M178 374 L20 374 L20 500 L178 500 L178 658 L304 658 L304 500 L463 500 L463 374 L304 374 L304 215 L178 215 L178 374 Z " />
<glyph glyph-name="multiply" unicode="&#xd7;" horiz-adv-x="484" d="M62 569 L109 616 L242 483 L375 617 L422 570 L288 436 L422 303 L375 256 L242 390 L109 257 L62 304 L195 436 L62 569 Z " />
<glyph glyph-name="question" unicode="&#x3f;" horiz-adv-x="724" d="M694 772 Q694 713 678.5 671 Q663 629 636 595 Q609 561 572.5 532.5 Q536 504 494 474 Q470 457 456 443 Q442 429 434.5 409 Q427 389 425 359.5 Q423 330 423 282 L289 282 Q289 333 291 371.5 Q293 410 306.5 445 Q320 480 351 517 Q382 554 441 601 Q460 614 478.5 630.5 Q497 647 512 666.5 Q527 686 536 710 Q545 734 545 763 Q545 804 528.5 830.5 Q512 857 485 872 Q458 887 424 892.5 Q390 898 355 898 Q318 898 284 887.5 Q250 877 223.5 857 Q197 837 181 806.5 Q165 776 165 736 L15 736 Q15 808 43 863.5 Q71 919 118 957 Q165 995 226.5 1015 Q288 1035 355 1035 Q420 1035 481 1022 Q542 1009 589.5 978.5 Q637 948 665.5 897.5 Q694 847 694 772 Z M362 -17 Q327 -17 303 7 Q279 31 279 66 Q279 100 303 124 Q327 148 362 148 Q396 148 420 124 Q444 100 444 66 Q444 31 420 7 Q396 -17 362 -17 Z " />
<glyph glyph-name="exclam" unicode="&#x21;" horiz-adv-x="282" d="M68 1035 L213 1035 L213 282 L68 282 L68 1035 Z M141 -17 Q106 -17 82 7 Q58 31 58 66 Q58 100 82 124 Q106 148 141 148 Q175 148 199 124 Q223 100 223 66 Q223 31 199 7 Q175 -17 141 -17 Z " />
<glyph glyph-name="equal" unicode="&#x3d;" horiz-adv-x="498" d="M20 516 L20 651 L478 651 L478 516 L20 516 Z M20 226 L20 361 L478 361 L478 226 L20 226 Z " />
<glyph glyph-name="Lslash" unicode="&#x141;" horiz-adv-x="759" d="M30 371 L30 506 L95 506 L95 875 L245 875 L245 506 L488 506 L488 371 L245 371 L245 178 Q245 158 256 146.5 Q267 135 287 135 L724 135 L724 0 L95 0 L95 371 L30 371 Z " />
<glyph glyph-name="Euro" unicode="&#x20ac;" horiz-adv-x="690" d="M387 885 Q458 885 520 858.5 Q582 832 629 785 L545 700 Q517 727 479.5 743 Q442 759 400 759 Q362 759 328 747 Q294 735 267.5 713 Q241 691 222.5 661 Q204 631 198 595 L481 595 L481 494 L252 494 Q230 494 213 489 Q196 484 196 465 L196 380 L481 380 L481 279 L198 279 Q204 243 222 213.5 Q240 184 266.5 162.5 Q293 141 326.5 129 Q360 117 397 117 Q439 117 475.5 133 Q512 149 540 176 L630 90 Q583 43 521 16.5 Q459 -10 387 -10 Q322 -10 264.5 11.5 Q207 33 162 71.5 Q117 110 87 163 Q57 216 48 279 L-73 279 L-73 380 L10 380 Q26 380 35.5 391.5 Q45 403 45 419 L45 494 L-73 494 L-73 595 L48 595 Q57 658 86.5 711 Q116 764 161 802.5 Q206 841 264 863 Q322 885 387 885 Z " />
<glyph glyph-name="Aacute" unicode="&#xc1;" horiz-adv-x="998" d="M968 0 L816 0 L707 241 Q702 254 690 261.5 Q678 269 664 269 L333 269 Q319 269 307 261.5 Q295 254 290 241 L182 0 L30 0 L423 875 L575 875 L968 0 Z M364 404 L634 404 L499 706 L364 404 Z M563 1006 L445 1006 L636 1333 L753 1256 L563 1006 Z " />
<glyph glyph-name="Acircumflex" unicode="&#xc2;" horiz-adv-x="998" d="M968 0 L816 0 L707 241 Q702 254 690 261.5 Q678 269 664 269 L333 269 Q319 269 307 261.5 Q295 254 290 241 L182 0 L30 0 L423 875 L575 875 L968 0 Z M658 948 L526 1080 Q515 1091 498.5 1091 Q482 1091 471 1080 L339 948 L263 1024 L499 1260 L735 1024 L659 948 L658 948 Z M364 404 L634 404 L499 706 L364 404 Z " />
<glyph glyph-name="minus" unicode="&#x2212;" horiz-adv-x="483" d="M20 404 L20 470 L463 470 L463 404 L20 404 Z " />
<glyph glyph-name="plusminus" unicode="&#xb1;" horiz-adv-x="483" d="M20 167 L20 268 L178 268 L178 407 L20 407 L20 533 L178 533 L178 691 L304 691 L304 533 L463 533 L463 407 L304 407 L304 268 L463 268 L463 167 L20 167 Z " />
<glyph glyph-name="Cacute" unicode="&#x106;" horiz-adv-x="847" d="M489 725 Q430 725 377.5 702.5 Q325 680 285.5 641 Q246 602 223 549.5 Q200 497 200 438 Q200 379 222.5 326.5 Q245 274 284 235 Q323 196 375 173 Q427 150 486 150 Q543 150 596 171.5 Q649 193 690 234 L797 128 Q735 66 654.5 33 Q574 0 487 0 Q397 0 317 34.5 Q237 69 178 128.5 Q119 188 84.5 268 Q50 348 50 438 Q50 528 84.5 608 Q119 688 178 747 Q237 806 317 840.5 Q397 875 487 875 Q574 875 654.5 842 Q735 809 797 747 L690 641 Q650 681 598 703 Q546 725 489 725 Z M507 1006 L389 1006 L580 1333 L697 1256 L507 1006 Z " />
<glyph glyph-name="Ccircumflex" unicode="&#x108;" horiz-adv-x="847" d="M489 725 Q430 725 377.5 702.5 Q325 680 285.5 641 Q246 602 223 549.5 Q200 497 200 438 Q200 379 222.5 326.5 Q245 274 284 235 Q323 196 375 173 Q427 150 486 150 Q543 150 596 171.5 Q649 193 690 234 L797 128 Q735 66 654.5 33 Q574 0 487 0 Q397 0 317 34.5 Q237 69 178 128.5 Q119 188 84.5 268 Q50 348 50 438 Q50 528 84.5 608 Q119 688 178 747 Q237 806 317 840.5 Q397 875 487 875 Q574 875 654.5 842 Q735 809 797 747 L690 641 Q650 681 598 703 Q546 725 489 725 Z M637 948 L505 1080 Q494 1091 477.5 1091 Q461 1091 450 1080 L318 948 L242 1024 L478 1260 L714 1024 L638 948 L637 948 Z " />
<glyph glyph-name="Cdotaccent" unicode="&#x10a;" horiz-adv-x="847" d="M489 725 Q430 725 377.5 702.5 Q325 680 285.5 641 Q246 602 223 549.5 Q200 497 200 438 Q200 379 222.5 326.5 Q245 274 284 235 Q323 196 375 173 Q427 150 486 150 Q543 150 596 171.5 Q649 193 690 234 L797 128 Q735 66 654.5 33 Q574 0 487 0 Q397 0 317 34.5 Q237 69 178 128.5 Q119 188 84.5 268 Q50 348 50 438 Q50 528 84.5 608 Q119 688 178 747 Q237 806 317 840.5 Q397 875 487 875 Q574 875 654.5 842 Q735 809 797 747 L690 641 Q650 681 598 703 Q546 725 489 725 Z M556 1052 Q556 1017 532 993 Q508 969 473 969 Q438 969 414 993 Q390 1017 390 1052 Q390 1087 414 1111 Q438 1135 473 1135 Q508 1135 532 1111 Q556 1087 556 1052 Z " />
<glyph glyph-name="Aogonek" unicode="&#x104;" horiz-adv-x="998" d="M949 -198 Q917 -230 881.5 -246.5 Q846 -263 809 -263 Q771 -263 737.5 -248.5 Q704 -234 679 -208.5 Q654 -183 639.5 -149.5 Q625 -116 625 -78 Q625 -45 635.5 -16 Q646 13 665.5 36.5 Q685 60 712 76 Q739 92 771 99 L707 241 Q702 254 690 261.5 Q678 269 664 269 L333 269 Q319 269 307 261.5 Q295 254 290 241 L182 0 L30 0 L423 875 L575 875 L968 0 L816 0 Q780 0 754.5 -22.5 Q729 -45 729 -77 Q729 -109 751.5 -131 Q774 -153 806 -153 Q821 -153 837 -145.5 Q853 -138 867 -124 L949 -198 Z M364 404 L634 404 L499 706 L364 404 Z " />
<glyph glyph-name="Amacron" unicode="&#x100;" horiz-adv-x="998" d="M968 0 L816 0 L707 241 Q702 254 690 261.5 Q678 269 664 269 L333 269 Q319 269 307 261.5 Q295 254 290 241 L182 0 L30 0 L423 875 L575 875 L968 0 Z M285 1036 L285 1162 L712 1162 L712 1036 L285 1036 Z M364 404 L634 404 L499 706 L364 404 Z " />
<glyph glyph-name="Hbar" unicode="&#x126;" horiz-adv-x="974" d="M35 621 L35 756 L95 756 L95 875 L241 875 L241 756 L733 756 L733 875 L879 875 L879 756 L939 756 L939 621 L879 621 L879 0 L733 0 L733 343 Q733 354 725 362.5 Q717 371 706 371 L268 371 Q257 371 249 362.5 Q241 354 241 343 L241 0 L95 0 L95 621 L35 621 Z M733 534 L733 621 L241 621 L241 534 Q241 523 249 514.5 Q257 506 268 506 L706 506 Q717 506 725 514.5 Q733 523 733 534 Z " />
<glyph glyph-name="Lacute" unicode="&#x139;" horiz-adv-x="759" d="M245 875 L245 178 Q245 158 256 146.5 Q267 135 287 135 L724 135 L724 0 L95 0 L95 875 L245 875 Z M261 1006 L144 1006 L334 1333 L451 1256 L261 1006 Z " />
<glyph glyph-name="Jcircumflex" unicode="&#x134;" horiz-adv-x="728" d="M487 355 L487 874 L638 874 L638 353 Q638 280 610.5 215.5 Q583 151 535 103 Q487 55 422.5 27.5 Q358 0 285 0 Q211 0 147 27.5 Q83 55 35 103 L137 206 Q165 178 202 164 Q239 150 282 150 Q324 150 361.5 166 Q399 182 427 210 Q455 238 471 275.5 Q487 313 487 355 Z M724 948 L606 1066 Q592 1080 573 1088.5 Q554 1097 537 1080 L405 948 L329 1024 L565 1260 L801 1024 L725 948 L724 948 Z " />
<glyph glyph-name="aeacute" unicode="&#x1fd;" horiz-adv-x="1045" d="M663 162 Q663 151 671 143 Q679 135 690 135 L1065 135 L1065 0 L517 0 L517 347 Q515 358 508 364.5 Q501 371 490 371 L286 371 Q269 371 255.5 360 Q242 349 238 332 L173 0 L30 0 L200 875 L517 875 L1065 874 L1065 738 L690 738 Q679 738 671 730 Q663 722 663 710 L663 534 Q663 522 671 514 Q679 506 690 506 L1065 506 L1065 371 L663 371 L663 162 Z M517 507 L517 716 Q515 727 508 733.5 Q501 740 490 740 L318 740 L271 507 L517 507 Z M626 1006 L508 1006 L699 1333 L816 1256 L626 1006 Z " />
<glyph glyph-name="Eth" unicode="&#xd0;" horiz-adv-x="874" d="M30 371 L30 506 L95 506 L95 875 L415 875 Q505 875 585 840.5 Q665 806 724 746.5 Q783 687 817.5 607 Q852 527 852 437 Q852 347 817.5 267 Q783 187 724 128 Q665 69 585 34.5 Q505 0 415 0 L95 0 L95 371 L30 371 Z M702 435 Q702 491 680.5 543.5 Q659 596 621.5 636.5 Q584 677 533 701 Q482 725 424 725 L270 725 Q259 725 252 717.5 Q245 710 245 699 L245 506 L488 506 L488 371 L245 371 L245 175 Q245 164 252 157 Q259 150 270 150 L424 150 Q481 150 531.5 173.5 Q582 197 620 237 Q658 277 680 328 Q702 379 702 435 Z " />
<glyph glyph-name="commaaccent" unicode="&#xf6c3;" horiz-adv-x="454" d="M161 -142 L292 -142 L270 -423 L161 -423 L161 -142 Z " />
<glyph glyph-name="Lcommaaccent" unicode="&#x13b;" horiz-adv-x="759" d="M245 875 L245 178 Q245 158 256 146.5 Q267 135 287 135 L724 135 L724 0 L95 0 L95 875 L245 875 Z M284 -142 L415 -142 L393 -423 L284 -423 L284 -142 Z " />
<glyph glyph-name="Ldot" unicode="&#x13f;" horiz-adv-x="759" d="M245 875 L245 178 Q245 158 256 146.5 Q267 135 287 135 L724 135 L724 0 L95 0 L95 875 L245 875 Z M579 469 Q579 434 555 410 Q531 386 496 386 Q461 386 437 410 Q413 434 413 469 Q413 504 437 528 Q461 552 496 552 Q531 552 555 528 Q579 504 579 469 Z " />
<glyph glyph-name="Abreve" unicode="&#x102;" horiz-adv-x="998" d="M968 0 L816 0 L731 189 Q725 201 718.5 215 Q712 229 704 241 Q696 253 686 261 Q676 269 664 269 L333 269 Q319 269 307 261.5 Q295 254 290 241 L182 0 L30 0 L423 875 L575 875 L968 0 Z M564 1175 L680 1175 Q680 1137 666 1104.5 Q652 1072 627 1047 Q602 1022 569 1008 Q536 994 499 994 Q461 994 428 1008 Q395 1022 370.5 1047 Q346 1072 331.5 1104.5 Q317 1137 317 1175 L434 1175 Q434 1148 453 1129 Q472 1110 499 1109 Q525 1109 544.5 1129 Q564 1149 564 1175 Z M364 404 L634 404 L499 706 L364 404 Z " />
<glyph glyph-name="Thorn" unicode="&#xde;" horiz-adv-x="786" d="M95 874 L161 874 L161 696 Q162 685 169.5 678 Q177 671 188 671 L510 671 Q558 671 601 652.5 Q644 634 676 602.5 Q708 571 726.5 528 Q745 485 745 437 Q745 389 726.5 346 Q708 303 676 271.5 Q644 240 601 221.5 Q558 203 510 203 L188 203 Q177 203 169.5 196 Q162 189 161 178 L161 0 L95 0 L95 874 Z M679 437 Q679 473 664.5 504.5 Q650 536 626 558.5 Q602 581 570 594 Q538 607 502 607 L188 607 Q177 607 169 598.5 Q161 590 161 579 L161 295 Q161 284 169 275.5 Q177 267 188 267 L502 267 Q538 267 570 280 Q602 293 626 315.5 Q650 338 664.5 369.5 Q679 401 679 437 Z " />
<glyph glyph-name="space" unicode="&#x20;" horiz-adv-x="454" d="" />
<glyph glyph-name="at" unicode="&#x40;" horiz-adv-x="994" d="M714 377 Q716 346 737 323.5 Q758 301 790 301 Q822 301 844 323 Q866 345 866 377 L866 487 Q866 553 836.5 611.5 Q807 670 757 713.5 Q707 757 639.5 782.5 Q572 808 497 808 Q420 808 352.5 779 Q285 750 234.5 699.5 Q184 649 155 581.5 Q126 514 126 438 Q126 362 155 294.5 Q184 227 234.5 176 Q285 125 352 95.5 Q419 66 496 66 Q570 66 638.5 94 Q707 122 760 175 L807 128 Q745 66 664.5 33 Q584 0 497 0 Q407 0 327 34.5 Q247 69 188 128 Q129 187 94.5 267 Q60 347 60 437 Q60 527 94.5 607 Q129 687 188 746 Q247 805 327 839.5 Q407 874 497 874 Q588 874 667.5 842.5 Q747 811 806 757 Q865 703 899.5 631 Q934 559 934 477 L934 377 Q934 348 922.5 322 Q911 296 891.5 276.5 Q872 257 846 245.5 Q820 234 790 234 Q749 234 716 254.5 Q683 275 664 308 Q637 273 595.5 253.5 Q554 234 497 234 Q444 234 404 251 Q364 268 337 297 Q310 326 296 365.5 Q282 405 282 449 Q282 503 298.5 544 Q315 585 343.5 613 Q372 641 411.5 655.5 Q451 670 497 670 Q539 670 577 658 Q615 646 644.5 623 Q674 600 692.5 565.5 Q711 531 713 486 L714 377 Z M647 449 Q647 522 605.5 561.5 Q564 601 497 602 Q430 601 388.5 561.5 Q347 522 347 449 Q347 413 359 384.5 Q371 356 391 336.5 Q411 317 438.5 307 Q466 297 497 297 Q528 297 555.5 307 Q583 317 603 336.5 Q623 356 635 384.5 Q647 413 647 449 Z " />
<glyph glyph-name="divide" unicode="&#xf7;" horiz-adv-x="282" d="M141 180 Q118 180 101.5 196.5 Q85 213 85 236 Q85 259 101.5 275.5 Q118 292 141 292 Q164 292 180.5 275.5 Q197 259 197 236 Q197 213 180.5 196.5 Q164 180 141 180 Z M141 577 Q118 577 101.5 593.5 Q85 610 85 633 Q85 656 101.5 672.5 Q118 689 141 689 Q164 689 180.5 672.5 Q197 656 197 633 Q197 610 180.5 593.5 Q164 577 141 577 Z M-80 404 L-80 470 L363 470 L363 404 L-80 404 Z " />
<glyph glyph-name="thorn" unicode="&#xfe;" horiz-adv-x="786" d="M95 874 L245 874 L245 730 Q246 719 253.5 712 Q261 705 272 705 L508 704 Q565 704 616 684 Q667 664 705 628 Q743 592 765 543 Q787 494 787 437 Q787 380 765 331 Q743 282 705 246 Q667 210 616 189.5 Q565 169 508 169 L272 168 Q261 168 253.5 161 Q246 154 245 143 L245 0 L95 0 L95 874 Z M644 438 Q644 467 632.5 492 Q621 517 601.5 535.5 Q582 554 556 564.5 Q530 575 502 575 L272 575 Q261 575 253 566.5 Q245 558 245 547 L245 330 Q245 319 253 310.5 Q261 302 272 302 L502 302 Q530 302 556 312.5 Q582 323 601.5 341 Q621 359 632.5 384 Q644 409 644 438 Z " />
<glyph glyph-name="trademark" unicode="&#x2122;" horiz-adv-x="554" d="M495 875 L524 875 L524 629 L495 629 L495 834 L391 729 L287 834 L287 629 L258 629 L258 875 L287 875 L385 776 Q387 774 390.5 774 Q394 774 396 776 L495 875 Z M30 846 L30 875 L232 875 L232 846 L156 846 Q152 846 148.5 843 Q145 840 145 835 L145 629 L117 629 L117 835 Q117 846 106 846 L30 846 Z " />
<glyph glyph-name="registered" unicode="&#xae;" horiz-adv-x="520" d="M372 807 Q372 786 358 767.5 Q344 749 324 744 Q316 742 316 734 Q316 732 323 717 Q330 702 339 683.5 Q348 665 356.5 648.5 Q365 632 367 628 L326 628 L269 742 L209 742 Q197 742 197 731 L197 628 L160 628 L160 874 L306 874 Q334 874 353 854.5 Q372 835 372 807 Z M306 781 Q317 781 324.5 788.5 Q332 796 332 807 Q332 818 324.5 826 Q317 834 306 834 L202 834 Q195 834 195 827 L195 787 Q195 781 202 781 L306 781 Z M30 747 Q30 795 48 836.5 Q66 878 97.5 909.5 Q129 941 170.5 959 Q212 977 260 977 Q308 977 349.5 959 Q391 941 422.5 909.5 Q454 878 472 836.5 Q490 795 490 747 Q490 699 472 657.5 Q454 616 422.5 584.5 Q391 553 349.5 535 Q308 517 260 517 Q212 517 170.5 535 Q129 553 97.5 584.5 Q66 616 48 657.5 Q30 699 30 747 Z M68 747 Q68 707 83 672 Q98 637 124 611 Q150 585 185 570 Q220 555 260 555 Q299 555 334 570 Q369 585 395 611 Q421 637 436 672 Q451 707 451 747 Q451 786 436 821 Q421 856 395 882 Q369 908 334 923 Q299 938 260 938 Q220 938 185 923 Q150 908 124 882 Q98 856 83 821 Q68 786 68 747 Z " />
<glyph glyph-name="copyright" unicode="&#xa9;" horiz-adv-x="520" d="M30 747 Q30 795 48 836.5 Q66 878 97.5 909.5 Q129 941 170.5 959 Q212 977 260 977 Q308 977 349.5 959 Q391 941 422.5 909.5 Q454 878 472 836.5 Q490 795 490 747 Q490 699 472 657.5 Q454 616 422.5 584.5 Q391 553 349.5 535 Q308 517 260 517 Q212 517 170.5 535 Q129 553 97.5 584.5 Q66 616 48 657.5 Q30 699 30 747 Z M69 747 Q69 708 84 673 Q99 638 125 612 Q151 586 186 571 Q221 556 260 556 Q299 556 334 571 Q369 586 395 612 Q421 638 436 673 Q451 708 451 747 Q451 786 436 821 Q421 856 395 882 Q369 908 334 923 Q299 938 260 938 Q221 938 186 923 Q151 908 125 882 Q99 856 84 821 Q69 786 69 747 Z M270 823 Q238 823 215.5 801 Q193 779 193 747 Q193 715 215 692.5 Q237 670 268 670 Q301 670 323 692 L356 659 Q339 642 316 632.5 Q293 623 269 623 Q243 623 220.5 633 Q198 643 181 659.5 Q164 676 154.5 698.5 Q145 721 145 747 Q145 772 154.5 794.5 Q164 817 181 834 Q198 851 220.5 860.5 Q243 870 269 870 Q293 870 316 860.5 Q339 851 356 834 L323 802 Q300 823 270 823 Z " />
<glyph glyph-name="eth" unicode="&#xf0;" horiz-adv-x="839" d="M510 589 L454 680 L545 747 Q519 771 483 786.5 Q447 802 400 806 L433 892 Q499 885 550 862.5 Q601 840 639 805 L747 879 L803 788 L701 717 Q730 663 743 596.5 Q756 530 756 452 L756 293 Q756 220 729.5 163.5 Q703 107 655.5 68.5 Q608 30 543 10 Q478 -10 401 -10 Q319 -10 255.5 11.5 Q192 33 148.5 71 Q105 109 82.5 161 Q60 213 60 275 Q60 335 83 386 Q106 437 150 474 Q194 511 257 532 Q320 553 401 553 Q448 553 487 544 Q526 535 556.5 521 Q587 507 608.5 490.5 Q630 474 642 459 L642 508 Q642 550 634 588.5 Q626 627 609 660 L510 589 Z M402 434 Q302 434 248 390.5 Q194 347 194 275 Q194 237 208.5 206 Q223 175 250 153 Q277 131 315.5 118.5 Q354 106 402 106 Q459 106 500 120 Q541 134 568 158 Q595 182 608 213.5 Q621 245 621 280 Q621 318 604.5 347 Q588 376 559 395.5 Q530 415 490 424.5 Q450 434 402 434 Z " />
<glyph glyph-name="degree" unicode="&#xb0;" horiz-adv-x="306" d="M153 654 Q173 654 190.5 661.5 Q208 669 221 682.5 Q234 696 241.5 713.5 Q249 731 249 751 Q249 791 221 818.5 Q193 846 153 846 Q113 846 84.5 818.5 Q56 791 56 751 Q56 731 63.5 713.5 Q71 696 84.5 682.5 Q98 669 115.5 661.5 Q133 654 153 654 Z M153 874 Q178 874 200.5 864.5 Q223 855 240 838 Q257 821 266.5 798.5 Q276 776 276 751 Q276 725 266.5 703 Q257 681 240 664 Q223 647 200.5 637.5 Q178 628 153 628 Q127 628 105 637.5 Q83 647 66 664 Q49 681 39.5 703 Q30 725 30 751 Q30 776 39.5 798.5 Q49 821 66 838 Q83 855 105 864.5 Q127 874 153 874 Z " />
<glyph glyph-name="percent" unicode="&#x25;" horiz-adv-x="789" d="M749 704 L130 86 L45 171 L664 789 L749 704 Z M578 363 Q607 363 633 352 Q659 341 678 321.5 Q697 302 708 276 Q719 250 719 221 Q719 192 708 166 Q697 140 678 121 Q659 102 633 91 Q607 80 578 80 Q549 80 523 91 Q497 102 477.5 121 Q458 140 447 166 Q436 192 436 221 Q436 250 447 276 Q458 302 477.5 321.5 Q497 341 523 352 Q549 363 578 363 Z M202 810 Q231 810 257 799 Q283 788 302 768.5 Q321 749 332 723 Q343 697 343 668 Q343 639 332 613 Q321 587 302 568 Q283 549 257 538 Q231 527 202 527 Q173 527 147 538 Q121 549 101.5 568 Q82 587 71 613 Q60 639 60 668 Q60 697 71 723 Q82 749 101.5 768.5 Q121 788 147 799 Q173 810 202 810 Z M577 163 Q601 163 617 180 Q633 197 633 220 Q633 245 617 260.5 Q601 276 577 276 Q553 276 536 260.5 Q519 245 519 220 Q519 197 536 180 Q553 163 577 163 Z M201 610 Q225 610 241 627 Q257 644 257 667 Q257 692 241 707.5 Q225 723 201 723 Q177 723 160 707.5 Q143 692 143 667 Q143 644 160 627 Q177 610 201 610 Z " />
<glyph glyph-name="less" unicode="&#x3c;" horiz-adv-x="402" d="M20 436 L290 716 L382 624 L204 437 L382 259 L290 166 L20 436 Z " />
<glyph glyph-name="lessequal" unicode="&#x2264;" horiz-adv-x="518" d="M20 136 L20 269 L264 269 L64 436 L335 716 L427 624 L249 438 L410 295 L498 269 L498 136 L20 136 Z " />
<glyph glyph-name="asciitilde" unicode="&#x7e;" horiz-adv-x="418" d="M20 520 Q51 553 83 556.5 Q115 560 146 549 Q177 538 209 519.5 Q241 501 272 490 Q303 479 335 482.5 Q367 486 398 519 L398 393 Q366 360 335 356.5 Q304 353 272 364 Q240 375 208.5 393.5 Q177 412 146 423 Q115 434 83 430.5 Q51 427 20 394 L20 520 Z " />
<glyph glyph-name="notequal" unicode="&#x2260;" horiz-adv-x="483" d="M78 109 L119 226 L20 226 L20 361 L163 361 L216 516 L20 516 L20 651 L261 651 L316 810 L424 776 L380 651 L478 651 L478 516 L335 516 L282 361 L478 361 L478 226 L238 226 L185 75 L78 109 Z " />
<glyph glyph-name="middot" unicode="&#xb7;" horiz-adv-x="282" d="M141 378 Q106 378 82 402 Q58 426 58 461 Q58 495 82 519 Q106 543 141 543 Q175 543 199 519 Q223 495 223 461 Q223 426 199 402 Q175 378 141 378 Z " />
<glyph glyph-name="bullet" unicode="&#x2022;" horiz-adv-x="360" d="M180 341 Q140 341 112.5 368.5 Q85 396 85 436 Q85 476 112.5 503.5 Q140 531 180 531 Q220 531 247.5 503.5 Q275 476 275 436 Q275 396 247.5 368.5 Q220 341 180 341 Z " />
<glyph glyph-name="asterisk" unicode="&#x2a;" horiz-adv-x="543" d="M354 452 L270 564 L188 452 L100 517 L182 629 L50 673 L84 777 L216 734 L216 874 L326 874 L326 733 L460 777 L493 673 L361 629 Q381 600 402.5 571.5 Q424 543 443 517 L354 452 Z " />
<glyph glyph-name="guilsinglleft" unicode="&#x2039;" horiz-adv-x="536" d="M200 465 Q235 435 274.5 402 Q314 369 351 337 L486 225 L401 125 L50 420 L50 510 L401 805 L486 705 L200 465 Z " />
<glyph glyph-name="guilsinglright" unicode="&#x203a;" horiz-adv-x="535" d="M50 705 L135 805 L485 510 L485 420 L135 125 L50 225 L335 465 L50 705 Z " />
<glyph glyph-name="guillemotleft" unicode="&#xab;" horiz-adv-x="939" d="M200 465 Q218 450 239 432 Q260 414 292 387.5 Q324 361 370.5 322 Q417 283 486 225 L401 125 L50 420 L50 510 L401 805 L486 705 L200 465 Z M604 465 L889 225 L804 125 L454 420 L454 510 L804 805 L889 705 L604 465 Z " />
<glyph glyph-name="partialdiff" unicode="&#x2202;" horiz-adv-x="826" d="M401 -10 Q319 -10 255.5 11.5 Q192 33 148.5 71 Q105 109 82.5 161 Q60 213 60 275 Q60 335 83 386 Q106 437 150 474 Q194 511 257 532 Q320 553 401 553 Q448 553 483 545.5 Q518 538 544 526 Q570 514 587.5 499 Q605 484 617 469 L617 508 Q617 557 606.5 603 Q596 649 570 686 Q544 723 501 747 Q458 771 393 777 L433 892 Q522 881 583.5 844.5 Q645 808 683.5 750.5 Q722 693 739 617 Q756 541 756 452 L756 293 Q756 220 729.5 163.5 Q703 107 655.5 68.5 Q608 30 543 10 Q478 -10 401 -10 Z M402 434 Q302 434 248 390.5 Q194 347 194 275 Q194 237 208.5 206 Q223 175 250 153 Q277 131 315.5 118.5 Q354 106 402 106 Q459 106 500 120 Q541 134 568 158 Q595 182 608 213.5 Q621 245 621 280 Q621 318 604.5 347 Q588 376 559 395.5 Q530 415 490 424.5 Q450 434 402 434 Z " />
<glyph glyph-name="quotedbl" unicode="&#x22;" horiz-adv-x="481" d="M320 628 L451 628 L429 347 L320 347 L320 628 Z M60 628 L191 628 L169 347 L60 347 L60 628 Z " />
<glyph glyph-name="quotedblleft" unicode="&#x201c;" horiz-adv-x="511" d="M60 347 L60 628 L169 628 L191 347 L60 347 Z M320 347 L320 628 L429 628 L451 347 L320 347 Z " />
<glyph glyph-name="quotedblright" unicode="&#x201d;" horiz-adv-x="511" d="M451 628 L451 347 L342 347 L320 628 L451 628 Z M191 628 L191 347 L82 347 L60 628 L191 628 Z " />
<glyph glyph-name="quotesingle" unicode="&#x27;" horiz-adv-x="251" d="M60 875 L191 875 L169 594 L60 594 L60 875 Z " />
<glyph glyph-name="quotesinglbase" unicode="&#x201a;" horiz-adv-x="251" d="M60 281 L191 281 L169 0 L60 0 L60 281 Z " />
<glyph glyph-name="quotedblbase" unicode="&#x201e;" horiz-adv-x="511" d="M320 281 L451 281 L429 0 L320 0 L320 281 Z M60 281 L191 281 L169 0 L60 0 L60 281 Z " />
<glyph glyph-name="quoteleft" unicode="&#x2018;" horiz-adv-x="251" d="M191 347 L60 347 L82 628 L191 628 L191 347 Z " />
<glyph glyph-name="quoteright" unicode="&#x2019;" horiz-adv-x="251" d="M60 628 L191 628 L169 347 L60 347 L60 628 Z " />
<glyph glyph-name="endash" unicode="&#x2013;" horiz-adv-x="926" d="M20 371 L20 506 L906 506 L906 371 L20 371 Z " />
<glyph glyph-name="emdash" unicode="&#x2014;" horiz-adv-x="1369" d="M20 370 L20 507 L1349 507 L1349 370 L20 370 Z " />
<glyph glyph-name="fraction" unicode="&#x2044;" horiz-adv-x="522" d="M-60 -32 L403 959 L522 904 L60 -86 L-60 -32 Z " />
<glyph glyph-name="b" unicode="b" horiz-adv-x="837" d="M782 640 Q782 574 749.5 521 Q717 468 664 437 Q717 407 749.5 353.5 Q782 300 782 234 Q782 186 763.5 143 Q745 100 713 68.5 Q681 37 638.5 18.5 Q596 0 547 0 L95 0 L95 875 L547 875 Q596 875 638.5 856.5 Q681 838 713 806 Q745 774 763.5 731.5 Q782 689 782 640 Z M637 244 Q637 270 627 293.5 Q617 317 599.5 334.5 Q582 352 559 362 Q536 372 510 372 L270 371 Q259 371 252 364 Q245 357 245 346 L245 143 Q245 132 252 125 Q259 118 270 118 L510 118 Q536 118 559 128 Q582 138 599.5 155 Q617 172 627 195 Q637 218 637 244 Z M510 503 Q536 503 559 513 Q582 523 599 540.5 Q616 558 626 581 Q636 604 636 630 Q636 657 626 680 Q616 703 599 720 Q582 737 559 747 Q536 757 510 757 L270 757 Q259 757 252 749.5 Q245 742 245 731 L245 529 Q245 518 252 511 Q259 504 270 504 L510 503 Z " />
<glyph glyph-name="f" unicode="f" horiz-adv-x="783" d="M245 534 Q245 522 253 514 Q261 506 272 506 L743 506 L743 371 L272 371 Q261 371 253 363 Q245 355 245 344 L245 0 L95 0 L95 875 L743 874 L743 739 L272 739 Q261 739 253 731 Q245 723 245 711 L245 534 Z " />
<glyph glyph-name="m" unicode="m" horiz-adv-x="1113" d="M868 875 L1018 875 L1018 0 L868 0 L868 682 L556 370 L245 682 L245 0 L95 0 L95 875 L245 875 L536 583 Q544 575 556 575 Q568 575 576 583 L868 875 Z " />
<glyph glyph-name="p" unicode="p" horiz-adv-x="830" d="M504 496 Q531 496 555 505.5 Q579 515 597 532.5 Q615 550 625.5 573 Q636 596 636 623 Q636 649 626 672 Q616 695 599 712.5 Q582 730 559 740 Q536 750 510 750 L270 750 Q259 750 252 742.5 Q245 735 245 724 L245 524 Q245 513 253 504.5 Q261 496 272 496 L504 496 Z M520 875 Q572 875 619.5 855.5 Q667 836 703 802 Q739 768 760.5 722 Q782 676 782 623 Q782 571 762 525 Q742 479 707.5 445 Q673 411 627.5 391.5 Q582 372 530 372 L272 372 Q261 372 253 363.5 Q245 355 245 344 L245 0 L95 0 L95 875 L520 875 Z " />
<glyph glyph-name="v" unicode="v" horiz-adv-x="999" d="M500 169 L817 875 L969 875 L576 0 L423 0 L30 875 L183 875 L500 169 Z " />
<glyph glyph-name="caron" unicode="&#x2c7;" horiz-adv-x="492" d="M406 1260 L482 1184 L246 948 L10 1184 L86 1260 L218 1128 Q229 1117 245.5 1117 Q262 1117 273 1128 L339 1194 Q364 1219 384.5 1239.5 Q405 1260 406 1260 Z " />
<glyph glyph-name="Ccaron" unicode="&#x10c;" horiz-adv-x="847" d="M489 725 Q430 725 377.5 702.5 Q325 680 285.5 641 Q246 602 223 549.5 Q200 497 200 438 Q200 379 222.5 326.5 Q245 274 284 235 Q323 196 375 173 Q427 150 486 150 Q543 150 596 171.5 Q649 193 690 234 L797 128 Q735 66 654.5 33 Q574 0 487 0 Q397 0 317 34.5 Q237 69 178 128.5 Q119 188 84.5 268 Q50 348 50 438 Q50 528 84.5 608 Q119 688 178 747 Q237 806 317 840.5 Q397 875 487 875 Q574 875 654.5 842 Q735 809 797 747 L690 641 Q650 681 598 703 Q546 725 489 725 Z M608 1260 L684 1184 L448 948 L212 1184 L288 1260 L420 1128 Q431 1117 447.5 1117 Q464 1117 475 1128 L541 1194 Q566 1219 586.5 1239.5 Q607 1260 608 1260 Z " />
<glyph glyph-name="Ccedilla" unicode="&#xc7;" horiz-adv-x="847" d="M489 725 Q430 725 377.5 702.5 Q325 680 285.5 641 Q246 602 223 549.5 Q200 497 200 438 Q200 379 222.5 326.5 Q245 274 284 235 Q323 196 375 173 Q427 150 486 150 Q543 150 596 171.5 Q649 193 690 234 L797 128 Q751 82 694.5 52.5 Q638 23 576 11 Q599 -21 605 -59 Q615 -84 612.5 -111.5 Q610 -139 596 -164 Q579 -192 554 -208 Q522 -228 485.5 -228.5 Q449 -229 417 -213 Q385 -197 364 -165.5 Q343 -134 343 -91 L427 -91 Q427 -110 437.5 -123 Q448 -136 463 -142 Q478 -148 495 -145 Q512 -142 524 -130 Q541 -113 541 -90 Q541 -67 524 -50 L473 1 Q385 4 308 39.5 Q231 75 173.5 133.5 Q116 192 83 270.5 Q50 349 50 438 Q50 528 84.5 608 Q119 688 178 747 Q237 806 317 840.5 Q397 875 487 875 Q574 875 654.5 842 Q735 809 797 747 L690 641 Q650 681 598 703 Q546 725 489 725 Z " />
<glyph glyph-name="Dcaron" unicode="&#x10e;" horiz-adv-x="917" d="M415 875 Q505 875 585 840.5 Q665 806 724 746.5 Q783 687 817.5 607 Q852 527 852 437 Q852 347 817.5 267 Q783 187 724 128 Q665 69 585 34.5 Q505 0 415 0 L95 0 L95 875 L415 875 Z M702 435 Q702 491 680.5 543.5 Q659 596 621.5 636.5 Q584 677 533 701 Q482 725 424 725 L270 725 Q259 725 252 717.5 Q245 710 245 699 L245 175 Q245 164 252 157 Q259 150 270 150 L424 150 Q481 150 531.5 173.5 Q582 197 620 237 Q658 277 680 328 Q702 379 702 435 Z M597 1260 L673 1184 L437 948 L201 1184 L277 1260 L409 1128 Q420 1117 436.5 1117 Q453 1117 464 1128 L530 1194 Q555 1219 575.5 1239.5 Q596 1260 597 1260 Z " />
<glyph glyph-name="Eacute" unicode="&#xc9;" horiz-adv-x="808" d="M245 534 Q245 522 253 514 Q261 506 272 506 L743 506 L743 371 L272 371 Q261 371 253 363 Q245 355 245 344 L245 162 Q245 151 253 143 Q261 135 272 135 L743 135 L743 0 L95 0 L95 875 L743 874 L743 738 L272 738 Q261 738 253 729.5 Q245 721 245 710 L245 534 Z M387 1006 L270 1006 L460 1333 L577 1256 L387 1006 Z " />
<glyph glyph-name="Ebreve" unicode="&#x114;" horiz-adv-x="808" d="M245 534 Q245 522 253 514 Q261 506 272 506 L743 506 L743 371 L324 371 Q313 371 299.5 370.5 Q286 370 274 368 Q262 366 253.5 360 Q245 354 245 344 L245 162 Q245 151 253 143 Q261 135 272 135 L743 135 L743 0 L95 0 L95 875 Q258 875 419 874.5 Q580 874 743 874 L743 738 L272 738 Q261 738 253 729.5 Q245 721 245 710 L245 534 Z M469 1175 L585 1175 Q585 1137 571 1104.5 Q557 1072 532 1047 Q507 1022 474 1008 Q441 994 404 994 Q366 994 333 1008 Q300 1022 275.5 1047 Q251 1072 236.5 1104.5 Q222 1137 222 1175 L339 1175 Q339 1148 358 1129 Q377 1110 404 1109 Q430 1109 449.5 1129 Q469 1149 469 1175 Z " />
<glyph glyph-name="Ecaron" unicode="&#x11a;" horiz-adv-x="808" d="M245 534 Q245 522 253 514 Q261 506 272 506 L743 506 L743 371 L272 371 Q261 371 253 363 Q245 355 245 344 L245 162 Q245 151 253 143 Q261 135 272 135 L743 135 L743 0 L95 0 L95 875 L743 874 L743 738 L272 738 Q261 738 253 729.5 Q245 721 245 710 L245 534 Z M564 1260 L640 1184 L404 948 L168 1184 L244 1260 L376 1128 Q387 1117 403.5 1117 Q420 1117 431 1128 L497 1194 Q522 1219 542.5 1239.5 Q563 1260 564 1260 Z " />
<glyph glyph-name="Ecircumflex" unicode="&#xca;" horiz-adv-x="808" d="M245 534 Q245 522 253 514 Q261 506 272 506 L743 506 L743 371 L272 371 Q261 371 253 363 Q245 355 245 344 L245 162 Q245 151 253 143 Q261 135 272 135 L743 135 L743 0 L95 0 L95 875 L743 874 L743 738 L272 738 Q261 738 253 729.5 Q245 721 245 710 L245 534 Z M563 948 L431 1080 Q420 1091 403.5 1091 Q387 1091 376 1080 L244 948 L168 1024 L404 1260 L640 1024 L564 948 L563 948 Z " />
<glyph glyph-name="Edieresis" unicode="&#xcb;" horiz-adv-x="808" d="M245 534 Q245 522 253 514 Q261 506 272 506 L743 506 L743 371 L272 371 Q261 371 253 363 Q245 355 245 344 L245 162 Q245 151 253 143 Q261 135 272 135 L743 135 L743 0 L95 0 L95 875 L743 874 L743 738 L272 738 Q261 738 253 729.5 Q245 721 245 710 L245 534 Z M638 1082 Q638 1047 613.5 1023 Q589 999 554 999 Q520 999 495.5 1023 Q471 1047 471 1082 Q471 1117 495.5 1141 Q520 1165 554 1165 Q589 1165 613.5 1141 Q638 1117 638 1082 Z M336 1082 Q336 1047 311.5 1023 Q287 999 252 999 Q218 999 193.5 1023 Q169 1047 169 1082 Q169 1117 193.5 1141 Q218 1165 252 1165 Q287 1165 311.5 1141 Q336 1117 336 1082 Z " />
<glyph glyph-name="Edotaccent" unicode="&#x116;" horiz-adv-x="808" d="M245 534 Q245 522 253 514 Q261 506 272 506 L743 506 L743 371 L272 371 Q261 371 253 363 Q245 355 245 344 L245 162 Q245 151 253 143 Q261 135 272 135 L743 135 L743 0 L95 0 L95 875 L743 874 L743 738 L272 738 Q261 738 253 729.5 Q245 721 245 710 L245 534 Z M487 1052 Q487 1017 462.5 993 Q438 969 403 969 Q369 969 344.5 993 Q320 1017 320 1052 Q320 1087 344.5 1111 Q369 1135 403 1135 Q438 1135 462.5 1111 Q487 1087 487 1052 Z " />
<glyph glyph-name="Egrave" unicode="&#xc8;" horiz-adv-x="808" d="M245 534 Q245 522 253 514 Q261 506 272 506 L743 506 L743 371 L272 371 Q261 371 253 363 Q245 355 245 344 L245 162 Q245 151 253 143 Q261 135 272 135 L743 135 L743 0 L95 0 L95 875 L743 874 L743 738 L272 738 Q261 738 253 729.5 Q245 721 245 710 L245 534 Z M189 1262 L319 1347 L518 1006 L384 1006 L189 1262 Z " />
<glyph glyph-name="Emacron" unicode="&#x112;" horiz-adv-x="808" d="M245 534 Q245 522 253 514 Q261 506 272 506 L743 506 L743 371 L272 371 Q261 371 253 363 Q245 355 245 344 L245 162 Q245 151 253 143 Q261 135 272 135 L743 135 L743 0 L95 0 L95 875 L743 874 L743 738 L272 738 Q261 738 253 729.5 Q245 721 245 710 L245 534 Z M190 1036 L190 1162 L617 1162 L617 1036 L190 1036 Z " />
<glyph glyph-name="Eogonek" unicode="&#x118;" horiz-adv-x="808" d="M743 -198 Q711 -230 675.5 -246.5 Q640 -263 603 -263 Q565 -263 531.5 -248.5 Q498 -234 473 -208.5 Q448 -183 433.5 -149.5 Q419 -116 419 -78 Q419 -35 439 0 L95 0 L95 875 L743 874 L743 738 L272 738 Q261 738 253 729.5 Q245 721 245 710 L245 534 Q245 522 253 514 Q261 506 272 506 L743 506 L743 371 L272 371 Q261 371 253 363 Q245 355 245 344 L245 162 Q245 151 253 143 Q261 135 272 135 L743 135 L743 0 L606 0 Q571 -1 547 -23 Q523 -45 523 -77 Q523 -109 545.5 -131 Q568 -153 600 -153 Q615 -153 631 -145.5 Q647 -138 661 -124 L743 -198 Z " />
<glyph glyph-name="Hcircumflex" unicode="&#x124;" horiz-adv-x="974" d="M733 534 L733 875 L879 875 L879 0 L733 0 L733 343 Q733 354 725 362.5 Q717 371 706 371 L268 371 Q257 371 249 362.5 Q241 354 241 343 L241 0 L95 0 L95 875 L241 875 L241 534 Q241 523 249 514.5 Q257 506 268 506 L706 506 Q717 506 725 514.5 Q733 523 733 534 Z M646 948 L514 1080 Q503 1091 486.5 1091 Q470 1091 459 1080 L327 948 L251 1024 L487 1260 L723 1024 L647 948 L646 948 Z " />
<glyph glyph-name="Iacute" unicode="&#xcd;" horiz-adv-x="406" d="M130 0 L130 875 L276 875 L276 0 L130 0 Z M227 1006 L109 1006 L300 1333 L417 1256 L227 1006 Z " />
<glyph glyph-name="Ibreve" unicode="&#x12c;" horiz-adv-x="406" d="M130 0 L130 875 L276 875 L276 0 L130 0 Z M203 1109 Q229 1110 248.5 1129 Q268 1148 268 1175 L384 1175 Q384 1137 370 1104.5 Q356 1072 331 1047 Q306 1022 273 1008 Q240 994 203 994 Q165 994 132 1008 Q99 1022 74.5 1047 Q50 1072 35.5 1104.5 Q21 1137 21 1175 L138 1175 Q138 1148 157 1129 Q176 1110 203 1109 Z " />
<glyph glyph-name="Icircumflex" unicode="&#xce;" horiz-adv-x="406" d="M130 0 L130 875 L276 875 L276 0 L130 0 Z M362 948 L230 1080 Q219 1091 202.5 1091 Q186 1091 175 1080 L43 948 L-33 1024 L203 1260 L439 1024 L363 948 L362 948 Z " />
<glyph glyph-name="Idieresis" unicode="&#xcf;" horiz-adv-x="406" d="M130 0 L130 875 L276 875 L276 0 L130 0 Z M135 1082 Q135 1047 110.5 1023 Q86 999 51 999 Q17 999 -7.5 1023 Q-32 1047 -32 1082 Q-32 1117 -7.5 1141 Q17 1165 51 1165 Q86 1165 110.5 1141 Q135 1117 135 1082 Z M437 1082 Q437 1047 412.5 1023 Q388 999 353 999 Q319 999 294.5 1023 Q270 1047 270 1082 Q270 1117 294.5 1141 Q319 1165 353 1165 Q388 1165 412.5 1141 Q437 1117 437 1082 Z " />
<glyph glyph-name="Idotaccent" unicode="&#x130;" horiz-adv-x="406" d="M130 0 L130 875 L276 875 L276 0 L130 0 Z M286 1052 Q286 1017 261.5 993 Q237 969 202 969 Q168 969 143.5 993 Q119 1017 119 1052 Q119 1087 143.5 1111 Q168 1135 202 1135 Q237 1135 261.5 1111 Q286 1087 286 1052 Z " />
<glyph glyph-name="Igrave" unicode="&#xcc;" horiz-adv-x="406" d="M130 0 L130 875 L276 875 L276 0 L130 0 Z M-22 1262 L108 1347 L307 1006 L173 1006 L-22 1262 Z " />
<glyph glyph-name="Imacron" unicode="&#x12a;" horiz-adv-x="406" d="M130 0 L130 875 L276 875 L276 0 L130 0 Z M-10 1036 L-10 1162 L417 1162 L417 1036 L-10 1036 Z " />
<glyph glyph-name="Iogonek" unicode="&#x12e;" horiz-adv-x="406" d="M295 -198 Q264 -230 228 -246.5 Q192 -263 155 -263 Q117 -263 83.5 -248.5 Q50 -234 25 -208.5 Q0 -183 -14.5 -149.5 Q-29 -116 -29 -78 Q-29 -44 -17 -13.5 Q-5 17 16 41 Q37 65 66 80.5 Q95 96 130 101 L130 875 L276 875 L276 0 L159 0 Q124 -1 100 -23 Q76 -45 76 -77 Q76 -109 98 -131 Q120 -153 152 -153 Q184 -153 213 -124 L295 -198 Z " />
<glyph glyph-name="Itilde" unicode="&#x128;" horiz-adv-x="406" d="M130 0 L130 875 L276 875 L276 0 L130 0 Z M-16 1154 Q20 1192 57 1196 Q94 1200 130 1187.5 Q166 1175 202.5 1153.5 Q239 1132 275.5 1119.5 Q312 1107 348.5 1111 Q385 1115 422 1153 L422 1024 Q385 986 349 982 Q313 978 276 990.5 Q239 1003 202.5 1024.5 Q166 1046 130 1058.5 Q94 1071 57 1067 Q20 1063 -16 1025 L-16 1154 Z " />
<glyph glyph-name="Kcommaaccent" unicode="&#x136;" horiz-adv-x="926" d="M886 875 L500 438 L886 0 L704 0 L387 357 Q376 371 358 371 L268 371 Q257 371 249 362.5 Q241 354 241 343 L241 0 L95 0 L95 875 L241 875 L241 534 Q241 523 249 514.5 Q257 506 268 506 L360 506 Q378 506 390 520 L703 875 L886 875 Z M397 -142 L528 -142 L506 -423 L397 -423 L397 -142 Z " />
<glyph glyph-name="Lcaron" unicode="&#x13d;" horiz-adv-x="759" d="M245 875 L245 178 Q245 158 256 146.5 Q267 135 287 135 L724 135 L724 0 L95 0 L95 875 L245 875 Z M548 786 L679 786 L657 505 L548 505 L548 786 Z " />
<glyph glyph-name="AEacute" unicode="&#x1fc;" horiz-adv-x="1177" d="M1112 874 L1112 738 L687 738 Q676 738 668 729.5 Q660 721 660 710 L660 534 Q660 522 668 514 Q676 506 687 506 L1112 506 L1112 371 L687 371 Q676 371 668 363 Q660 355 660 344 L660 162 Q660 151 668 143 Q676 135 687 135 L1112 135 L1112 0 L514 0 L514 269 L333 269 Q319 269 307 261.5 Q295 254 290 241 L182 0 L30 0 L423 875 L677 875 L1112 874 Z M514 387 L514 738 L357 387 L514 387 Z M631 1006 L513 1006 L704 1333 L821 1256 L631 1006 Z " />
<glyph glyph-name="Dcroat" unicode="&#x110;" horiz-adv-x="917" d="M-26 367 L-26 493 L95 493 L95 875 L415 875 Q505 875 585 840.5 Q665 806 724 746.5 Q783 687 817.5 607 Q852 527 852 437 Q852 347 817.5 267 Q783 187 724 128 Q665 69 585 34.5 Q505 0 415 0 L95 0 L95 367 L-26 367 Z M702 435 Q702 491 680.5 543.5 Q659 596 621.5 636.5 Q584 677 533 701 Q482 725 424 725 L270 725 Q259 725 252 717.5 Q245 710 245 699 L245 493 L401 493 L401 367 L245 367 L245 175 Q245 164 252 157 Q259 150 270 150 L424 150 Q481 150 531.5 173.5 Q582 197 620 237 Q658 277 680 328 Q702 379 702 435 Z " />
<glyph glyph-name="Gbreve" unicode="&#x11e;" horiz-adv-x="1035" d="M496 475 L954 475 L954 0 L825 0 L825 166 Q801 128 765 97 Q729 66 686.5 44.5 Q644 23 595.5 11.5 Q547 0 497 0 Q407 0 327 34 Q247 68 188 127.5 Q129 187 94.5 266.5 Q60 346 60 437 Q60 527 94.5 607 Q129 687 188 746 Q247 805 327 839.5 Q407 874 497 874 Q588 874 667 840 Q746 806 806 746 L699 639 Q660 677 608.5 700 Q557 723 497 723 Q438 723 386 700.5 Q334 678 295 639 Q256 600 233.5 548 Q211 496 211 437 Q211 377 232 322 Q253 267 293 225 Q333 183 391.5 159 Q450 135 524 138 Q578 139 624.5 158 Q671 177 707 206 Q743 235 765.5 271.5 Q788 308 794 345 L496 345 L496 475 Z M582 1175 L699 1175 Q699 1137 684.5 1104.5 Q670 1072 645.5 1047 Q621 1022 587.5 1008 Q554 994 517 994 Q479 994 446.5 1008 Q414 1022 389 1047 Q364 1072 350 1104.5 Q336 1137 336 1175 L452 1175 Q452 1148 471.5 1128.5 Q491 1109 518 1109 Q544 1110 563 1129.5 Q582 1149 582 1175 Z " />
<glyph glyph-name="Gcircumflex" unicode="&#x11c;" horiz-adv-x="1035" d="M496 475 L954 475 L954 0 L825 0 L825 166 Q801 128 765 97 Q729 66 686.5 44.5 Q644 23 595.5 11.5 Q547 0 497 0 Q407 0 327 34 Q247 68 188 127.5 Q129 187 94.5 266.5 Q60 346 60 437 Q60 527 94.5 607 Q129 687 188 746 Q247 805 327 839.5 Q407 874 497 874 Q588 874 667 840 Q746 806 806 746 L699 639 Q660 677 608.5 700 Q557 723 497 723 Q438 723 386 700.5 Q334 678 295 639 Q256 600 233.5 548 Q211 496 211 437 Q211 377 232 322 Q253 267 293 225 Q333 183 391.5 159 Q450 135 524 138 Q578 139 624.5 158 Q671 177 707 206 Q743 235 765.5 271.5 Q788 308 794 345 L496 345 L496 475 Z M676 948 L558 1066 Q551 1073 542.5 1079 Q534 1085 525 1088 Q516 1091 507 1090 Q498 1089 489 1080 L357 948 L281 1024 L517 1260 L753 1024 L677 948 L676 948 Z " />
<glyph glyph-name="Gcommaaccent" unicode="&#x122;" horiz-adv-x="1035" d="M496 475 L954 475 L954 0 L825 0 L825 166 Q801 128 765 97 Q729 66 686.5 44.5 Q644 23 595.5 11.5 Q547 0 497 0 Q407 0 327 34 Q247 68 188 127.5 Q129 187 94.5 266.5 Q60 346 60 437 Q60 527 94.5 607 Q129 687 188 746 Q247 805 327 839.5 Q407 874 497 874 Q588 874 667 840 Q746 806 806 746 L699 639 Q660 677 608.5 700 Q557 723 497 723 Q438 723 386 700.5 Q334 678 295 639 Q256 600 233.5 548 Q211 496 211 437 Q211 377 232 322 Q253 267 293 225 Q333 183 391.5 159 Q450 135 524 138 Q578 139 624.5 158 Q671 177 707 206 Q743 235 765.5 271.5 Q788 308 794 345 L496 345 L496 475 Z M452 -142 L583 -142 L561 -423 L452 -423 L452 -142 Z " />
<glyph glyph-name="Gdotaccent" unicode="&#x120;" horiz-adv-x="1035" d="M496 475 L954 475 L954 0 L825 0 L825 166 Q801 128 765 97 Q729 66 686.5 44.5 Q644 23 595.5 11.5 Q547 0 497 0 Q407 0 327 34 Q247 68 188 127.5 Q129 187 94.5 266.5 Q60 346 60 437 Q60 527 94.5 607 Q129 687 188 746 Q247 805 327 839.5 Q407 874 497 874 Q588 874 667 840 Q746 806 806 746 L699 639 Q660 677 608.5 700 Q557 723 497 723 Q438 723 386 700.5 Q334 678 295 639 Q256 600 233.5 548 Q211 496 211 437 Q211 377 232 322 Q253 267 293 225 Q333 183 391.5 159 Q450 135 524 138 Q578 139 624.5 158 Q671 177 707 206 Q743 235 765.5 271.5 Q788 308 794 345 L496 345 L496 475 Z M601 1052 Q601 1017 576.5 993 Q552 969 517 969 Q483 969 458.5 993 Q434 1017 434 1052 Q434 1087 458.5 1111 Q483 1135 517 1135 Q552 1135 576.5 1111 Q601 1087 601 1052 Z " />
<glyph glyph-name="Nacute" unicode="&#x143;" horiz-adv-x="1019" d="M774 226 L774 875 L924 875 L924 0 L781 0 L246 656 L246 0 L95 0 L95 875 L239 875 L774 226 Z M553 1006 L435 1006 L626 1333 L743 1256 L553 1006 Z " />
<glyph glyph-name="Ncaron" unicode="&#x147;" horiz-adv-x="1019" d="M774 226 L774 875 L924 875 L924 0 L781 0 L246 656 L246 0 L95 0 L95 875 L239 875 L774 226 Z M669 1260 L745 1184 L509 948 L273 1184 L349 1260 L481 1128 Q492 1117 508.5 1117 Q525 1117 536 1128 L602 1194 Q627 1219 647.5 1239.5 Q668 1260 669 1260 Z " />
<glyph glyph-name="Ncommaaccent" unicode="&#x145;" horiz-adv-x="1019" d="M774 226 L774 875 L924 875 L924 0 L781 0 L246 656 L246 0 L95 0 L95 875 L239 875 L774 226 Z M444 -142 L575 -142 L553 -423 L444 -423 L444 -142 Z " />
<glyph glyph-name="Ntilde" unicode="&#xd1;" horiz-adv-x="1019" d="M774 226 L774 875 L924 875 L924 0 L781 0 L246 656 L246 0 L95 0 L95 875 L239 875 L774 226 Z M290 1154 Q326 1192 363 1196 Q400 1200 436 1187.5 Q472 1175 508.5 1153.5 Q545 1132 581.5 1119.5 Q618 1107 654.5 1111 Q691 1115 728 1153 L728 1024 Q691 986 655 982 Q619 978 582 990.5 Q545 1003 508.5 1024.5 Q472 1046 436 1058.5 Q400 1071 363 1067 Q326 1063 290 1025 L290 1154 Z " />
<glyph glyph-name="Oacute" unicode="&#xd3;" horiz-adv-x="994" d="M497 149 Q556 149 608.5 171.5 Q661 194 700 233 Q739 272 762 324.5 Q785 377 785 437 Q785 496 762 548.5 Q739 601 700 640 Q661 679 608.5 701.5 Q556 724 497 724 Q437 724 385 701.5 Q333 679 294 640 Q255 601 232.5 548.5 Q210 496 210 437 Q210 377 232.5 324.5 Q255 272 294 233 Q333 194 385 171.5 Q437 149 497 149 Z M497 874 Q588 874 667.5 839.5 Q747 805 806 746 Q865 687 899.5 607 Q934 527 934 437 Q934 346 899.5 266.5 Q865 187 806 127.5 Q747 68 667.5 34 Q588 0 497 0 Q407 0 327 34 Q247 68 188 127.5 Q129 187 94.5 266.5 Q60 346 60 437 Q60 527 94.5 607 Q129 687 188 746 Q247 805 327 839.5 Q407 874 497 874 Z M540 1006 L423 1006 L613 1333 L730 1256 L540 1006 Z " />
<glyph glyph-name="Obreve" unicode="&#x14e;" horiz-adv-x="994" d="M497 874 Q588 874 667.5 839.5 Q747 805 806 746 Q865 687 899.5 607 Q934 527 934 437 Q934 346 899.5 266.5 Q865 187 806 127.5 Q747 68 667.5 34 Q588 0 497 0 Q407 0 327 34 Q247 68 188 127.5 Q129 187 94.5 266.5 Q60 346 60 437 Q60 527 94.5 607 Q129 687 188 746 Q247 805 327 839.5 Q407 874 497 874 Z M497 149 Q556 149 608.5 171.5 Q661 194 700 233 Q739 272 762 324.5 Q785 377 785 437 Q785 496 762 548.5 Q739 601 700 640 Q661 679 608.5 701.5 Q556 724 497 724 Q437 724 385 701.5 Q333 679 294 640 Q255 601 232.5 548.5 Q210 496 210 437 Q210 377 232.5 324.5 Q255 272 294 233 Q333 194 385 171.5 Q437 149 497 149 Z M562 1175 L678 1175 Q678 1137 664 1104.5 Q650 1072 625 1047 Q600 1022 567 1008 Q534 994 497 994 Q459 994 426 1008 Q393 1022 368.5 1047 Q344 1072 329.5 1104.5 Q315 1137 315 1175 L432 1175 Q432 1148 451.5 1128.5 Q471 1109 498 1109 Q524 1110 543 1129 Q562 1148 562 1175 Z " />
<glyph glyph-name="Ocircumflex" unicode="&#xd4;" horiz-adv-x="994" d="M497 874 Q588 874 667.5 839.5 Q747 805 806 746 Q865 687 899.5 607 Q934 527 934 437 Q934 346 899.5 266.5 Q865 187 806 127.5 Q747 68 667.5 34 Q588 0 497 0 Q407 0 327 34 Q247 68 188 127.5 Q129 187 94.5 266.5 Q60 346 60 437 Q60 527 94.5 607 Q129 687 188 746 Q247 805 327 839.5 Q407 874 497 874 Z M497 149 Q556 149 608.5 171.5 Q661 194 700 233 Q739 272 762 324.5 Q785 377 785 437 Q785 496 762 548.5 Q739 601 700 640 Q661 679 608.5 701.5 Q556 724 497 724 Q437 724 385 701.5 Q333 679 294 640 Q255 601 232.5 548.5 Q210 496 210 437 Q210 377 232.5 324.5 Q255 272 294 233 Q333 194 385 171.5 Q437 149 497 149 Z M656 948 L524 1080 Q513 1091 496.5 1091 Q480 1091 469 1080 L337 948 L261 1024 L497 1260 L733 1024 L657 948 L656 948 Z " />
<glyph glyph-name="Odieresis" unicode="&#xd6;" horiz-adv-x="994" d="M497 149 Q556 149 608.5 171.5 Q661 194 700 233 Q739 272 762 324.5 Q785 377 785 437 Q785 496 762 548.5 Q739 601 700 640 Q661 679 608.5 701.5 Q556 724 497 724 Q437 724 385 701.5 Q333 679 294 640 Q255 601 232.5 548.5 Q210 496 210 437 Q210 377 232.5 324.5 Q255 272 294 233 Q333 194 385 171.5 Q437 149 497 149 Z M497 874 Q588 874 667.5 839.5 Q747 805 806 746 Q865 687 899.5 607 Q934 527 934 437 Q934 346 899.5 266.5 Q865 187 806 127.5 Q747 68 667.5 34 Q588 0 497 0 Q407 0 327 34 Q247 68 188 127.5 Q129 187 94.5 266.5 Q60 346 60 437 Q60 527 94.5 607 Q129 687 188 746 Q247 805 327 839.5 Q407 874 497 874 Z M731 1082 Q731 1047 706.5 1023 Q682 999 647 999 Q613 999 588.5 1023 Q564 1047 564 1082 Q564 1117 588.5 1141 Q613 1165 647 1165 Q682 1165 706.5 1141 Q731 1117 731 1082 Z M429 1082 Q429 1047 404.5 1023 Q380 999 345 999 Q311 999 286.5 1023 Q262 1047 262 1082 Q262 1117 286.5 1141 Q311 1165 345 1165 Q380 1165 404.5 1141 Q429 1117 429 1082 Z " />
<glyph glyph-name="Ograve" unicode="&#xd2;" horiz-adv-x="994" d="M497 149 Q556 149 608.5 171.5 Q661 194 700 233 Q739 272 762 324.5 Q785 377 785 437 Q785 496 762 548.5 Q739 601 700 640 Q661 679 608.5 701.5 Q556 724 497 724 Q437 724 385 701.5 Q333 679 294 640 Q255 601 232.5 548.5 Q210 496 210 437 Q210 377 232.5 324.5 Q255 272 294 233 Q333 194 385 171.5 Q437 149 497 149 Z M497 874 Q588 874 667.5 839.5 Q747 805 806 746 Q865 687 899.5 607 Q934 527 934 437 Q934 346 899.5 266.5 Q865 187 806 127.5 Q747 68 667.5 34 Q588 0 497 0 Q407 0 327 34 Q247 68 188 127.5 Q129 187 94.5 266.5 Q60 346 60 437 Q60 527 94.5 607 Q129 687 188 746 Q247 805 327 839.5 Q407 874 497 874 Z M252 1262 L382 1347 L581 1006 L447 1006 L252 1262 Z " />
<glyph glyph-name="hungarumlaut" unicode="&#x2dd;" horiz-adv-x="575" d="M197 1006 L80 1006 L270 1333 L387 1256 L197 1006 Z M465 1006 L347 1006 L538 1333 L655 1256 L465 1006 Z " />
<glyph glyph-name="Ohungarumlaut" unicode="&#x150;" horiz-adv-x="994" d="M497 149 Q556 149 608.5 171.5 Q661 194 700 233 Q739 272 762 324.5 Q785 377 785 437 Q785 496 762 548.5 Q739 601 700 640 Q661 679 608.5 701.5 Q556 724 497 724 Q437 724 385 701.5 Q333 679 294 640 Q255 601 232.5 548.5 Q210 496 210 437 Q210 377 232.5 324.5 Q255 272 294 233 Q333 194 385 171.5 Q437 149 497 149 Z M497 874 Q588 874 667.5 839.5 Q747 805 806 746 Q865 687 899.5 607 Q934 527 934 437 Q934 346 899.5 266.5 Q865 187 806 127.5 Q747 68 667.5 34 Q588 0 497 0 Q407 0 327 34 Q247 68 188 127.5 Q129 187 94.5 266.5 Q60 346 60 437 Q60 527 94.5 607 Q129 687 188 746 Q247 805 327 839.5 Q407 874 497 874 Z M407 1006 L289 1006 L480 1333 L597 1256 L407 1006 Z M674 1006 L557 1006 L747 1333 L864 1256 L674 1006 Z " />
<glyph glyph-name="Omacron" unicode="&#x14c;" horiz-adv-x="994" d="M497 874 Q588 874 667.5 839.5 Q747 805 806 746 Q865 687 899.5 607 Q934 527 934 437 Q934 346 899.5 266.5 Q865 187 806 127.5 Q747 68 667.5 34 Q588 0 497 0 Q407 0 327 34 Q247 68 188 127.5 Q129 187 94.5 266.5 Q60 346 60 437 Q60 527 94.5 607 Q129 687 188 746 Q247 805 327 839.5 Q407 874 497 874 Z M497 149 Q556 149 608.5 171.5 Q661 194 700 233 Q739 272 762 324.5 Q785 377 785 437 Q785 496 762 548.5 Q739 601 700 640 Q661 679 608.5 701.5 Q556 724 497 724 Q437 724 385 701.5 Q333 679 294 640 Q255 601 232.5 548.5 Q210 496 210 437 Q210 377 232.5 324.5 Q255 272 294 233 Q333 194 385 171.5 Q437 149 497 149 Z M283 1036 L283 1162 L710 1162 L710 1036 L283 1036 Z " />
<glyph glyph-name="backslash" unicode="&#x5c;" horiz-adv-x="518" d="M426 -212 L-30 1041 L92 1090 L548 -163 L426 -212 Z " />
<glyph glyph-name="Oslash" unicode="&#xd8;" horiz-adv-x="994" d="M229 -31 L268 65 Q221 93 182.5 132.5 Q144 172 117 220 Q90 268 75 323 Q60 378 60 437 Q60 527 94.5 607 Q129 687 188 746 Q247 805 327 839.5 Q407 874 497 874 Q547 874 598 860 L643 970 L752 931 L706 819 Q757 792 799 752 Q841 712 871 662.5 Q901 613 917.5 556 Q934 499 934 437 Q934 346 899.5 266.5 Q865 187 806 127.5 Q747 68 667.5 34 Q588 0 497 0 Q432 0 375 18 L339 -70 L229 -31 Z M497 149 Q556 149 608.5 171.5 Q661 194 700 233 Q739 272 762 324.5 Q785 377 785 437 Q785 514 747 577.5 Q709 641 647 677 L433 159 Q448 154 464 151.5 Q480 149 497 149 Z M210 437 Q210 365 242 306 Q274 247 328 210 L537 715 Q497 721 456 715 Q404 709 359 685 Q314 661 281 624 Q248 587 229 539 Q210 491 210 437 Z " />
<glyph glyph-name="Oslashacute" unicode="&#x1fe;" horiz-adv-x="994" d="M229 -31 L268 65 Q221 93 182.5 132.5 Q144 172 117 220 Q90 268 75 323 Q60 378 60 437 Q60 527 94.5 607 Q129 687 188 746 Q247 805 327 839.5 Q407 874 497 874 Q547 874 598 860 L643 970 L752 931 L706 819 Q757 792 799 752 Q841 712 871 662.5 Q901 613 917.5 556 Q934 499 934 437 Q934 346 899.5 266.5 Q865 187 806 127.5 Q747 68 667.5 34 Q588 0 497 0 Q432 0 375 18 L339 -70 L229 -31 Z M460 1006 L343 1006 L533 1333 L650 1256 L460 1006 Z M497 149 Q556 149 608.5 171.5 Q661 194 700 233 Q739 272 762 324.5 Q785 377 785 437 Q785 514 747 577.5 Q709 641 647 677 L433 159 Q448 154 464 151.5 Q480 149 497 149 Z M210 437 Q210 365 242 306 Q274 247 328 210 L537 715 Q497 721 456 715 Q404 709 359 685 Q314 661 281 624 Q248 587 229 539 Q210 491 210 437 Z " />
<glyph glyph-name="Otilde" unicode="&#xd5;" horiz-adv-x="994" d="M497 874 Q588 874 667.5 839.5 Q747 805 806 746 Q865 687 899.5 607 Q934 527 934 437 Q934 346 899.5 266.5 Q865 187 806 127.5 Q747 68 667.5 34 Q588 0 497 0 Q407 0 327 34 Q247 68 188 127.5 Q129 187 94.5 266.5 Q60 346 60 437 Q60 527 94.5 607 Q129 687 188 746 Q247 805 327 839.5 Q407 874 497 874 Z M497 149 Q556 149 608.5 171.5 Q661 194 700 233 Q739 272 762 324.5 Q785 377 785 437 Q785 496 762 548.5 Q739 601 700 640 Q661 679 608.5 701.5 Q556 724 497 724 Q437 724 385 701.5 Q333 679 294 640 Q255 601 232.5 548.5 Q210 496 210 437 Q210 377 232.5 324.5 Q255 272 294 233 Q333 194 385 171.5 Q437 149 497 149 Z M278 1154 Q314 1192 350.5 1196 Q387 1200 423.5 1187.5 Q460 1175 496.5 1153.5 Q533 1132 569.5 1119.5 Q606 1107 642 1111 Q678 1115 715 1153 L715 1024 Q678 986 642 982 Q606 978 569.5 990.5 Q533 1003 496.5 1024.5 Q460 1046 423.5 1058.5 Q387 1071 350.5 1067 Q314 1063 278 1025 L278 1154 Z " />
<glyph glyph-name="Sacute" unicode="&#x15a;" horiz-adv-x="848" d="M197 625 Q197 584 222.5 561.5 Q248 539 289.5 526.5 Q331 514 384 508.5 Q437 503 492 495.5 Q547 488 600 475.5 Q653 463 694.5 437 Q736 411 761.5 367.5 Q787 324 787 255 Q787 182 751 133 Q715 84 660 54.5 Q605 25 541 12.5 Q477 0 420 0 Q381 0 339 5 Q297 10 255.5 21.5 Q214 33 177 52.5 Q140 72 111.5 100.5 Q83 129 66.5 167.5 Q50 206 50 256 L184 256 Q184 218 207 194.5 Q230 171 265.5 157.5 Q301 144 342 139 Q383 134 419 134 Q458 134 497 139.5 Q536 145 567 159.5 Q598 174 617.5 198 Q637 222 637 258 Q637 295 612 314.5 Q587 334 545.5 344 Q504 354 451.5 359 Q399 364 344.5 371.5 Q290 379 237.5 392.5 Q185 406 143.5 434 Q102 462 77 508.5 Q52 555 52 627 Q52 700 87 747.5 Q122 795 176.5 823 Q231 851 297 862 Q363 873 425 873 Q483 873 545.5 859.5 Q608 846 660 815 Q712 784 745.5 733.5 Q779 683 779 608 L645 608 Q645 644 623.5 669 Q602 694 568.5 709.5 Q535 725 495.5 731.5 Q456 738 420 738 Q381 738 341 733.5 Q301 729 269 716.5 Q237 704 217 682 Q197 660 197 625 Z M427 1006 L310 1006 L500 1333 L617 1256 L427 1006 Z " />
<glyph glyph-name="Scaron" unicode="&#x160;" horiz-adv-x="848" d="M197 625 Q197 584 222.5 561.5 Q248 539 289.5 526.5 Q331 514 384 508.5 Q437 503 492 495.5 Q547 488 600 475.5 Q653 463 694.5 437 Q736 411 761.5 367.5 Q787 324 787 255 Q787 182 751 133 Q715 84 660 54.5 Q605 25 541 12.5 Q477 0 420 0 Q381 0 339 5 Q297 10 255.5 21.5 Q214 33 177 52.5 Q140 72 111.5 100.5 Q83 129 66.5 167.5 Q50 206 50 256 L184 256 Q184 218 207 194.5 Q230 171 265.5 157.5 Q301 144 342 139 Q383 134 419 134 Q458 134 497 139.5 Q536 145 567 159.5 Q598 174 617.5 198 Q637 222 637 258 Q637 295 612 314.5 Q587 334 545.5 344 Q504 354 451.5 359 Q399 364 344.5 371.5 Q290 379 237.5 392.5 Q185 406 143.5 434 Q102 462 77 508.5 Q52 555 52 627 Q52 700 87 747.5 Q122 795 176.5 823 Q231 851 297 862 Q363 873 425 873 Q483 873 545.5 859.5 Q608 846 660 815 Q712 784 745.5 733.5 Q779 683 779 608 L645 608 Q645 644 623.5 669 Q602 694 568.5 709.5 Q535 725 495.5 731.5 Q456 738 420 738 Q381 738 341 733.5 Q301 729 269 716.5 Q237 704 217 682 Q197 660 197 625 Z M583 1260 L659 1184 L423 948 L187 1184 L263 1260 L395 1128 Q406 1117 422.5 1117 Q439 1117 450 1128 L516 1194 Q541 1219 561.5 1239.5 Q582 1260 583 1260 Z " />
<glyph glyph-name="Scedilla" unicode="&#x15e;" horiz-adv-x="848" d="M516 -16 Q536 -36 546 -62.5 Q556 -89 556 -116 Q556 -143 545.5 -169.5 Q535 -196 515 -216 Q495 -236 469.5 -246.5 Q444 -257 417 -257 Q390 -257 364.5 -246.5 Q339 -236 318 -216 Q298 -195 287.5 -169 Q277 -143 277 -116 L361 -116 Q361 -138 378 -155 Q395 -172 418 -172 Q441 -172 458 -155 Q475 -138 475 -115 Q475 -92 458 -75 L382 1 Q326 4 267 18 Q208 32 159.5 62 Q111 92 80.5 139.5 Q50 187 50 256 L184 256 Q184 218 207 194.5 Q230 171 265.5 157.5 Q301 144 342 139 Q383 134 419 134 Q458 134 497 139.5 Q536 145 567 159.5 Q598 174 617.5 198 Q637 222 637 258 Q637 295 612 314.5 Q587 334 545.5 344 Q504 354 451.5 359 Q399 364 344.5 371.5 Q290 379 237.5 392.5 Q185 406 143.5 434 Q102 462 77 508.5 Q52 555 52 627 Q52 700 87 747.5 Q122 795 176.5 823 Q231 851 297 862 Q363 873 425 873 Q483 873 545.5 859.5 Q608 846 660 815 Q712 784 745.5 733.5 Q779 683 779 608 L645 608 Q645 644 623.5 669 Q602 694 568.5 709.5 Q535 725 495.5 731.5 Q456 738 420 738 Q381 738 341 733.5 Q301 729 269 716.5 Q237 704 217 682 Q197 660 197 625 Q197 584 222.5 561.5 Q248 539 289.5 526.5 Q331 514 384 508.5 Q437 503 492 495.5 Q547 488 600 475.5 Q653 463 694.5 437 Q736 411 761.5 367.5 Q787 324 787 255 Q787 193 761 149 Q735 105 693 75 Q651 45 598.5 28.5 Q546 12 494 5 L516 -16 Z " />
<glyph glyph-name="Scircumflex" unicode="&#x15c;" horiz-adv-x="848" d="M197 625 Q197 584 222.5 561.5 Q248 539 289.5 526.5 Q331 514 384 508.5 Q437 503 492 495.5 Q547 488 600 475.5 Q653 463 694.5 437 Q736 411 761.5 367.5 Q787 324 787 255 Q787 182 751 133 Q715 84 660 54.5 Q605 25 541 12.5 Q477 0 420 0 Q381 0 339 5 Q297 10 255.5 21.5 Q214 33 177 52.5 Q140 72 111.5 100.5 Q83 129 66.5 167.5 Q50 206 50 256 L184 256 Q184 218 207 194.5 Q230 171 265.5 157.5 Q301 144 342 139 Q383 134 419 134 Q458 134 497 139.5 Q536 145 567 159.5 Q598 174 617.5 198 Q637 222 637 258 Q637 295 612 314.5 Q587 334 545.5 344 Q504 354 451.5 359 Q399 364 344.5 371.5 Q290 379 237.5 392.5 Q185 406 143.5 434 Q102 462 77 508.5 Q52 555 52 627 Q52 700 87 747.5 Q122 795 176.5 823 Q231 851 297 862 Q363 873 425 873 Q483 873 545.5 859.5 Q608 846 660 815 Q712 784 745.5 733.5 Q779 683 779 608 L645 608 Q645 644 623.5 669 Q602 694 568.5 709.5 Q535 725 495.5 731.5 Q456 738 420 738 Q381 738 341 733.5 Q301 729 269 716.5 Q237 704 217 682 Q197 660 197 625 Z M582 948 L450 1080 Q439 1091 422.5 1091 Q406 1091 395 1080 L263 948 L187 1024 L423 1260 L659 1024 L583 948 L582 948 Z " />
<glyph glyph-name="Scommaaccent" unicode="&#x218;" horiz-adv-x="848" d="M197 625 Q197 584 222.5 561.5 Q248 539 289.5 526.5 Q331 514 384 508.5 Q437 503 492 495.5 Q547 488 600 475.5 Q653 463 694.5 437 Q736 411 761.5 367.5 Q787 324 787 255 Q787 182 751 133 Q715 84 660 54.5 Q605 25 541 12.5 Q477 0 420 0 Q381 0 339 5 Q297 10 255.5 21.5 Q214 33 177 52.5 Q140 72 111.5 100.5 Q83 129 66.5 167.5 Q50 206 50 256 L184 256 Q184 218 207 194.5 Q230 171 265.5 157.5 Q301 144 342 139 Q383 134 419 134 Q458 134 497 139.5 Q536 145 567 159.5 Q598 174 617.5 198 Q637 222 637 258 Q637 295 612 314.5 Q587 334 545.5 344 Q504 354 451.5 359 Q399 364 344.5 371.5 Q290 379 237.5 392.5 Q185 406 143.5 434 Q102 462 77 508.5 Q52 555 52 627 Q52 700 87 747.5 Q122 795 176.5 823 Q231 851 297 862 Q363 873 425 873 Q483 873 545.5 859.5 Q608 846 660 815 Q712 784 745.5 733.5 Q779 683 779 608 L645 608 Q645 644 623.5 669 Q602 694 568.5 709.5 Q535 725 495.5 731.5 Q456 738 420 738 Q381 738 341 733.5 Q301 729 269 716.5 Q237 704 217 682 Q197 660 197 625 Z M358 -142 L489 -142 L467 -423 L358 -423 L358 -142 Z " />
<glyph glyph-name="Tbar" unicode="&#x166;" horiz-adv-x="819" d="M196 369 L196 495 L337 495 L337 709 Q337 726 325.5 737 Q314 748 297 748 L30 748 L30 875 L789 875 L789 748 L521 748 Q505 748 493.5 737 Q482 726 482 709 L482 495 L623 495 L623 369 L482 369 L482 0 L337 0 L337 369 L196 369 Z " />
<glyph glyph-name="Tcaron" unicode="&#x164;" horiz-adv-x="819" d="M30 748 L30 875 L789 875 L789 748 L521 748 Q505 748 493.5 737 Q482 726 482 709 L482 0 L337 0 L337 709 Q337 726 325.5 737 Q314 748 297 748 L30 748 Z M569 1260 L645 1184 L409 948 L173 1184 L249 1260 L381 1128 Q392 1117 408.5 1117 Q425 1117 436 1128 L502 1194 Q527 1219 547.5 1239.5 Q568 1260 569 1260 Z " />
<glyph glyph-name="Tcommaaccent" unicode="&#x162;" horiz-adv-x="819" d="M30 748 L30 875 L789 875 L789 748 L521 748 Q505 748 493.5 737 Q482 726 482 709 L482 0 L337 0 L337 709 Q337 726 325.5 737 Q314 748 297 748 L30 748 Z M344 -142 L475 -142 L453 -423 L344 -423 L344 -142 Z " />
<glyph glyph-name="Uacute" unicode="&#xda;" horiz-adv-x="886" d="M645 353 L645 874 L796 874 L796 353 Q796 280 768.5 215.5 Q741 151 693 103 Q645 55 580.5 27.5 Q516 0 443 0 Q370 0 305.5 27.5 Q241 55 193 103 Q145 151 117.5 215.5 Q90 280 90 353 L90 874 L240 874 L240 353 Q240 311 256 274 Q272 237 299.5 209.5 Q327 182 364 166 Q401 150 443 150 Q485 150 522 166 Q559 182 586 209.5 Q613 237 629 274 Q645 311 645 353 Z M446 1006 L329 1006 L519 1333 L636 1256 L446 1006 Z " />
<glyph glyph-name="Ubreve" unicode="&#x16c;" horiz-adv-x="886" d="M645 353 L645 874 L796 874 L796 353 Q796 280 768.5 215.5 Q741 151 693 103 Q645 55 580.5 27.5 Q516 0 443 0 Q370 0 305.5 27.5 Q241 55 193 103 Q145 151 117.5 215.5 Q90 280 90 353 L90 874 L240 874 L240 353 Q240 311 256 274 Q272 237 299.5 209.5 Q327 182 364 166 Q401 150 443 150 Q485 150 522 166 Q559 182 586 209.5 Q613 237 629 274 Q645 311 645 353 Z M508 1175 L624 1175 Q624 1137 610 1104.5 Q596 1072 571 1047 Q546 1022 513 1008 Q480 994 443 994 Q405 994 372 1008 Q339 1022 314.5 1047 Q290 1072 275.5 1104.5 Q261 1137 261 1175 L378 1175 Q378 1148 397.5 1128.5 Q417 1109 444 1109 Q470 1110 489 1129.5 Q508 1149 508 1175 Z " />
<glyph glyph-name="Ucircumflex" unicode="&#xdb;" horiz-adv-x="886" d="M645 353 L645 874 L796 874 L796 353 Q796 280 768.5 215.5 Q741 151 693 103 Q645 55 580.5 27.5 Q516 0 443 0 Q370 0 305.5 27.5 Q241 55 193 103 Q145 151 117.5 215.5 Q90 280 90 353 L90 874 L240 874 L240 353 Q240 311 256 274 Q272 237 299.5 209.5 Q327 182 364 166 Q401 150 443 150 Q485 150 522 166 Q559 182 586 209.5 Q613 237 629 274 Q645 311 645 353 Z M602 948 L470 1080 Q459 1091 442.5 1091 Q426 1091 415 1080 L283 948 L207 1024 L443 1260 L679 1024 L603 948 L602 948 Z " />
<glyph glyph-name="Udieresis" unicode="&#xdc;" horiz-adv-x="886" d="M645 353 L645 874 L796 874 L796 353 Q796 280 768.5 215.5 Q741 151 693 103 Q645 55 580.5 27.5 Q516 0 443 0 Q370 0 305.5 27.5 Q241 55 193 103 Q145 151 117.5 215.5 Q90 280 90 353 L90 874 L240 874 L240 353 Q240 311 256 274 Q272 237 299.5 209.5 Q327 182 364 166 Q401 150 443 150 Q485 150 522 166 Q559 182 586 209.5 Q613 237 629 274 Q645 311 645 353 Z M375 1082 Q375 1047 350.5 1023 Q326 999 291 999 Q257 999 232.5 1023 Q208 1047 208 1082 Q208 1117 232.5 1141 Q257 1165 291 1165 Q326 1165 350.5 1141 Q375 1117 375 1082 Z M677 1082 Q677 1047 652.5 1023 Q628 999 593 999 Q559 999 534.5 1023 Q510 1047 510 1082 Q510 1117 534.5 1141 Q559 1165 593 1165 Q628 1165 652.5 1141 Q677 1117 677 1082 Z " />
<glyph glyph-name="Ugrave" unicode="&#xd9;" horiz-adv-x="886" d="M645 353 L645 874 L796 874 L796 353 Q796 280 768.5 215.5 Q741 151 693 103 Q645 55 580.5 27.5 Q516 0 443 0 Q370 0 305.5 27.5 Q241 55 193 103 Q145 151 117.5 215.5 Q90 280 90 353 L90 874 L240 874 L240 353 Q240 311 256 274 Q272 237 299.5 209.5 Q327 182 364 166 Q401 150 443 150 Q485 150 522 166 Q559 182 586 209.5 Q613 237 629 274 Q645 311 645 353 Z M228 1262 L358 1347 L557 1006 L423 1006 L228 1262 Z " />
<glyph glyph-name="Uhungarumlaut" unicode="&#x170;" horiz-adv-x="886" d="M645 353 L645 874 L796 874 L796 353 Q796 280 768.5 215.5 Q741 151 693 103 Q645 55 580.5 27.5 Q516 0 443 0 Q370 0 305.5 27.5 Q241 55 193 103 Q145 151 117.5 215.5 Q90 280 90 353 L90 874 L240 874 L240 353 Q240 311 256 274 Q272 237 299.5 209.5 Q327 182 364 166 Q401 150 443 150 Q485 150 522 166 Q559 182 586 209.5 Q613 237 629 274 Q645 311 645 353 Z M605 1006 L488 1006 L678 1333 L795 1256 L605 1006 Z M338 1006 L220 1006 L411 1333 L528 1256 L338 1006 Z " />
<glyph glyph-name="Umacron" unicode="&#x16a;" horiz-adv-x="886" d="M645 353 L645 874 L796 874 L796 353 Q796 280 768.5 215.5 Q741 151 693 103 Q645 55 580.5 27.5 Q516 0 443 0 Q370 0 305.5 27.5 Q241 55 193 103 Q145 151 117.5 215.5 Q90 280 90 353 L90 874 L240 874 L240 353 Q240 311 256 274 Q272 237 299.5 209.5 Q327 182 364 166 Q401 150 443 150 Q485 150 522 166 Q559 182 586 209.5 Q613 237 629 274 Q645 311 645 353 Z M229 1036 L229 1162 L656 1162 L656 1036 L229 1036 Z " />
<glyph glyph-name="Uogonek" unicode="&#x172;" horiz-adv-x="886" d="M575 -198 Q543 -230 507.5 -246.5 Q472 -263 435 -263 Q397 -263 363.5 -248.5 Q330 -234 305 -209 Q280 -184 265.5 -150 Q251 -116 251 -78 Q251 -11 293 37 Q248 57 210.5 89 Q173 121 146.5 162 Q120 203 105 251.5 Q90 300 90 353 L90 874 L240 874 L240 353 Q240 311 256 274 Q272 237 299.5 209.5 Q327 182 364 166 Q401 150 443 150 Q485 150 522 166 Q559 182 586 209.5 Q613 237 629 274 Q645 311 645 353 L645 874 L796 874 L796 353 Q796 280 768 215.5 Q740 151 692 103 Q644 55 579.5 27.5 Q515 0 442 0 Q406 0 380.5 -22.5 Q355 -45 355 -77 Q355 -109 377.5 -131 Q400 -153 432 -153 Q447 -153 463 -145.5 Q479 -138 493 -124 L575 -198 Z " />
<glyph glyph-name="Uring" unicode="&#x16e;" horiz-adv-x="886" d="M645 353 L645 874 L796 874 L796 353 Q796 280 768.5 215.5 Q741 151 693 103 Q645 55 580.5 27.5 Q516 0 443 0 Q370 0 305.5 27.5 Q241 55 193 103 Q145 151 117.5 215.5 Q90 280 90 353 L90 874 L240 874 L240 353 Q240 311 256 274 Q272 237 299.5 209.5 Q327 182 364 166 Q401 150 443 150 Q485 150 522 166 Q559 182 586 209.5 Q613 237 629 274 Q645 311 645 353 Z M443 1260 Q473 1260 499 1248.5 Q525 1237 544.5 1217.5 Q564 1198 575.5 1171.5 Q587 1145 587 1115 Q587 1085 575.5 1058.5 Q564 1032 544.5 1012.5 Q525 993 499 982 Q473 971 443 971 Q413 971 386.5 982 Q360 993 340.5 1012.5 Q321 1032 309.5 1058.5 Q298 1085 298 1115 Q298 1145 309.5 1171.5 Q321 1198 340.5 1217.5 Q360 1237 386.5 1248.5 Q413 1260 443 1260 Z M443 1056 Q467 1056 484 1073.5 Q501 1091 501 1115 Q501 1139 484 1156.5 Q467 1174 443 1174 Q419 1174 401.5 1156.5 Q384 1139 384 1115 Q384 1091 401.5 1073.5 Q419 1056 443 1056 Z " />
<glyph glyph-name="Utilde" unicode="&#x168;" horiz-adv-x="886" d="M645 353 L645 874 L796 874 L796 353 Q796 280 768.5 215.5 Q741 151 693 103 Q645 55 580.5 27.5 Q516 0 443 0 Q370 0 305.5 27.5 Q241 55 193 103 Q145 151 117.5 215.5 Q90 280 90 353 L90 874 L240 874 L240 353 Q240 311 256 274 Q272 237 299.5 209.5 Q327 182 364 166 Q401 150 443 150 Q485 150 522 166 Q559 182 586 209.5 Q613 237 629 274 Q645 311 645 353 Z M224 1154 Q260 1192 296.5 1196 Q333 1200 369.5 1187.5 Q406 1175 442.5 1153.5 Q479 1132 515.5 1119.5 Q552 1107 588 1111 Q624 1115 661 1153 L661 1024 Q624 986 588 982 Q552 978 515.5 990.5 Q479 1003 442.5 1024.5 Q406 1046 369.5 1058.5 Q333 1071 296.5 1067 Q260 1063 224 1025 L224 1154 Z " />
<glyph glyph-name="Wacute" unicode="&#x1e82;" horiz-adv-x="1379" d="M981 234 L1197 875 L1349 875 L1058 0 L905 0 L690 647 L474 0 L322 0 L30 875 L183 875 L398 234 L613 875 L766 875 L981 234 Z M653 1006 L535 1006 L726 1333 L843 1256 L653 1006 Z " />
<glyph glyph-name="Wcircumflex" unicode="&#x174;" horiz-adv-x="1379" d="M981 234 L1197 875 L1349 875 L1058 0 L905 0 L690 647 L474 0 L322 0 L30 875 L183 875 L398 234 L613 875 L766 875 L981 234 Z M848 948 L716 1080 Q705 1091 688.5 1091 Q672 1091 661 1080 L529 948 L453 1024 L689 1260 L925 1024 L849 948 L848 948 Z " />
<glyph glyph-name="Wdieresis" unicode="&#x1e84;" horiz-adv-x="1379" d="M981 234 L1197 875 L1349 875 L1058 0 L905 0 L690 647 L474 0 L322 0 L30 875 L183 875 L398 234 L613 875 L766 875 L981 234 Z M621 1082 Q621 1047 597 1023 Q573 999 538 999 Q503 999 479 1023 Q455 1047 455 1082 Q455 1117 479 1141 Q503 1165 538 1165 Q573 1165 597 1141 Q621 1117 621 1082 Z M923 1082 Q923 1047 899 1023 Q875 999 840 999 Q805 999 781 1023 Q757 1047 757 1082 Q757 1117 781 1141 Q805 1165 840 1165 Q875 1165 899 1141 Q923 1117 923 1082 Z " />
<glyph glyph-name="Wgrave" unicode="&#x1e80;" horiz-adv-x="1379" d="M981 234 L1197 875 L1349 875 L1058 0 L905 0 L690 647 L474 0 L322 0 L30 875 L183 875 L398 234 L613 875 L766 875 L981 234 Z M524 1262 L654 1347 L853 1006 L719 1006 L524 1262 Z " />
<glyph glyph-name="Yacute" unicode="&#xdd;" horiz-adv-x="996" d="M425 410 Q425 426 415 436 L30 874 L205 874 L498 542 L790 874 L966 874 L581 436 Q571 426 571 410 L571 0 L425 0 L425 410 Z M546 1006 L429 1006 L619 1333 L736 1256 L546 1006 Z " />
<glyph glyph-name="Ycircumflex" unicode="&#x176;" horiz-adv-x="996" d="M425 410 Q425 426 415 436 L30 874 L205 874 L498 542 L790 874 L966 874 L581 436 Q571 426 571 410 L571 0 L425 0 L425 410 Z M657 948 L525 1080 Q514 1091 497.5 1091 Q481 1091 470 1080 L338 948 L262 1024 L498 1260 L734 1024 L658 948 L657 948 Z " />
<glyph glyph-name="Ydieresis" unicode="&#x178;" horiz-adv-x="996" d="M425 410 Q425 426 415 436 L30 874 L205 874 L498 542 L790 874 L966 874 L581 436 Q571 426 571 410 L571 0 L425 0 L425 410 Z M732 1082 Q732 1047 707.5 1023 Q683 999 648 999 Q614 999 589.5 1023 Q565 1047 565 1082 Q565 1117 589.5 1141 Q614 1165 648 1165 Q683 1165 707.5 1141 Q732 1117 732 1082 Z M430 1082 Q430 1047 405.5 1023 Q381 999 346 999 Q312 999 287.5 1023 Q263 1047 263 1082 Q263 1117 287.5 1141 Q312 1165 346 1165 Q381 1165 405.5 1141 Q430 1117 430 1082 Z " />
<glyph glyph-name="Ygrave" unicode="&#x1ef2;" horiz-adv-x="996" d="M425 410 Q425 426 415 436 L30 874 L205 874 L498 542 L790 874 L966 874 L581 436 Q571 426 571 410 L571 0 L425 0 L425 410 Z M243 1262 L373 1347 L572 1006 L438 1006 L243 1262 Z " />
<glyph glyph-name="Zacute" unicode="&#x179;" horiz-adv-x="879" d="M819 875 L819 750 L255 124 L799 124 L799 0 L52 0 L52 124 L614 750 L52 750 L52 875 L819 875 Z M473 1006 L355 1006 L546 1333 L663 1256 L473 1006 Z " />
<glyph glyph-name="Zcaron" unicode="&#x17d;" horiz-adv-x="879" d="M819 875 L819 750 L255 124 L799 124 L799 0 L52 0 L52 124 L614 750 L52 750 L52 875 L819 875 Z M599 1260 L675 1184 L439 948 L203 1184 L279 1260 L411 1128 Q422 1117 438.5 1117 Q455 1117 466 1128 L532 1194 Q557 1219 577.5 1239.5 Q598 1260 599 1260 Z " />
<glyph glyph-name="Zdotaccent" unicode="&#x17b;" horiz-adv-x="879" d="M819 875 L819 750 L255 124 L799 124 L799 0 L52 0 L52 124 L614 750 L52 750 L52 875 L819 875 Z M522 1052 Q522 1017 498 993 Q474 969 439 969 Q404 969 380 993 Q356 1017 356 1052 Q356 1087 380 1111 Q404 1135 439 1135 Q474 1135 498 1111 Q522 1087 522 1052 Z " />
<glyph glyph-name="c" unicode="c" horiz-adv-x="847" d="M489 725 Q430 725 377.5 702.5 Q325 680 285.5 641 Q246 602 223 549.5 Q200 497 200 438 Q200 379 222.5 326.5 Q245 274 284 235 Q323 196 375 173 Q427 150 486 150 Q543 150 596 171.5 Q649 193 690 234 L797 128 Q735 66 654.5 33 Q574 0 487 0 Q397 0 317 34.5 Q237 69 178 128.5 Q119 188 84.5 268 Q50 348 50 438 Q50 528 84.5 608 Q119 688 178 747 Q237 806 317 840.5 Q397 875 487 875 Q574 875 654.5 842 Q735 809 797 747 L690 641 Q650 681 598 703 Q546 725 489 725 Z " />
<glyph glyph-name="cacute" unicode="&#x107;" horiz-adv-x="847" d="M489 725 Q430 725 377.5 702.5 Q325 680 285.5 641 Q246 602 223 549.5 Q200 497 200 438 Q200 379 222.5 326.5 Q245 274 284 235 Q323 196 375 173 Q427 150 486 150 Q543 150 596 171.5 Q649 193 690 234 L797 128 Q735 66 654.5 33 Q574 0 487 0 Q397 0 317 34.5 Q237 69 178 128.5 Q119 188 84.5 268 Q50 348 50 438 Q50 528 84.5 608 Q119 688 178 747 Q237 806 317 840.5 Q397 875 487 875 Q574 875 654.5 842 Q735 809 797 747 L690 641 Q650 681 598 703 Q546 725 489 725 Z M507 1006 L389 1006 L580 1333 L697 1256 L507 1006 Z " />
<glyph glyph-name="ccaron" unicode="&#x10d;" horiz-adv-x="847" d="M489 725 Q430 725 377.5 702.5 Q325 680 285.5 641 Q246 602 223 549.5 Q200 497 200 438 Q200 379 222.5 326.5 Q245 274 284 235 Q323 196 375 173 Q427 150 486 150 Q543 150 596 171.5 Q649 193 690 234 L797 128 Q735 66 654.5 33 Q574 0 487 0 Q397 0 317 34.5 Q237 69 178 128.5 Q119 188 84.5 268 Q50 348 50 438 Q50 528 84.5 608 Q119 688 178 747 Q237 806 317 840.5 Q397 875 487 875 Q574 875 654.5 842 Q735 809 797 747 L690 641 Q650 681 598 703 Q546 725 489 725 Z M608 1260 L684 1184 L448 948 L212 1184 L288 1260 L420 1128 Q431 1117 447.5 1117 Q464 1117 475 1128 L541 1194 Q566 1219 586.5 1239.5 Q607 1260 608 1260 Z " />
<glyph glyph-name="ccedilla" unicode="&#xe7;" horiz-adv-x="847" d="M489 725 Q430 725 377.5 702.5 Q325 680 285.5 641 Q246 602 223 549.5 Q200 497 200 438 Q200 379 222.5 326.5 Q245 274 284 235 Q323 196 375 173 Q427 150 486 150 Q543 150 596 171.5 Q649 193 690 234 L797 128 Q751 82 694.5 52.5 Q638 23 576 11 Q599 -21 605 -59 Q615 -84 612.5 -111.5 Q610 -139 596 -164 Q579 -192 554 -208 Q522 -228 485.5 -228.5 Q449 -229 417 -213 Q385 -197 364 -165.5 Q343 -134 343 -91 L427 -91 Q427 -110 437.5 -123 Q448 -136 463 -142 Q478 -148 495 -145 Q512 -142 524 -130 Q541 -113 541 -90 Q541 -67 524 -50 L473 1 Q385 4 308 39.5 Q231 75 173.5 133.5 Q116 192 83 270.5 Q50 349 50 438 Q50 528 84.5 608 Q119 688 178 747 Q237 806 317 840.5 Q397 875 487 875 Q574 875 654.5 842 Q735 809 797 747 L690 641 Q650 681 598 703 Q546 725 489 725 Z " />
<glyph glyph-name="ccircumflex" unicode="&#x109;" horiz-adv-x="847" d="M489 725 Q430 725 377.5 702.5 Q325 680 285.5 641 Q246 602 223 549.5 Q200 497 200 438 Q200 379 222.5 326.5 Q245 274 284 235 Q323 196 375 173 Q427 150 486 150 Q543 150 596 171.5 Q649 193 690 234 L797 128 Q735 66 654.5 33 Q574 0 487 0 Q397 0 317 34.5 Q237 69 178 128.5 Q119 188 84.5 268 Q50 348 50 438 Q50 528 84.5 608 Q119 688 178 747 Q237 806 317 840.5 Q397 875 487 875 Q574 875 654.5 842 Q735 809 797 747 L690 641 Q650 681 598 703 Q546 725 489 725 Z M637 948 L505 1080 Q494 1091 477.5 1091 Q461 1091 450 1080 L318 948 L242 1024 L478 1260 L714 1024 L638 948 L637 948 Z " />
<glyph glyph-name="cdotaccent" unicode="&#x10b;" horiz-adv-x="847" d="M489 725 Q430 725 377.5 702.5 Q325 680 285.5 641 Q246 602 223 549.5 Q200 497 200 438 Q200 379 222.5 326.5 Q245 274 284 235 Q323 196 375 173 Q427 150 486 150 Q543 150 596 171.5 Q649 193 690 234 L797 128 Q735 66 654.5 33 Q574 0 487 0 Q397 0 317 34.5 Q237 69 178 128.5 Q119 188 84.5 268 Q50 348 50 438 Q50 528 84.5 608 Q119 688 178 747 Q237 806 317 840.5 Q397 875 487 875 Q574 875 654.5 842 Q735 809 797 747 L690 641 Q650 681 598 703 Q546 725 489 725 Z M556 1052 Q556 1017 532 993 Q508 969 473 969 Q438 969 414 993 Q390 1017 390 1052 Q390 1087 414 1111 Q438 1135 473 1135 Q508 1135 532 1111 Q556 1087 556 1052 Z " />
<glyph glyph-name="d" unicode="d" horiz-adv-x="917" d="M415 875 Q505 875 585 840.5 Q665 806 724 746.5 Q783 687 817.5 607 Q852 527 852 437 Q852 347 817.5 267 Q783 187 724 128 Q665 69 585 34.5 Q505 0 415 0 L95 0 L95 875 L415 875 Z M702 435 Q702 491 680.5 543.5 Q659 596 621.5 636.5 Q584 677 533 701 Q482 725 424 725 L270 725 Q259 725 252 717.5 Q245 710 245 699 L245 175 Q245 164 252 157 Q259 150 270 150 L424 150 Q481 150 531.5 173.5 Q582 197 620 237 Q658 277 680 328 Q702 379 702 435 Z " />
<glyph glyph-name="dcaron" unicode="&#x10f;" horiz-adv-x="917" d="M415 875 Q505 875 585 840.5 Q665 806 724 746.5 Q783 687 817.5 607 Q852 527 852 437 Q852 347 817.5 267 Q783 187 724 128 Q665 69 585 34.5 Q505 0 415 0 L95 0 L95 875 L415 875 Z M702 435 Q702 491 680.5 543.5 Q659 596 621.5 636.5 Q584 677 533 701 Q482 725 424 725 L270 725 Q259 725 252 717.5 Q245 710 245 699 L245 175 Q245 164 252 157 Q259 150 270 150 L424 150 Q481 150 531.5 173.5 Q582 197 620 237 Q658 277 680 328 Q702 379 702 435 Z M597 1260 L673 1184 L437 948 L201 1184 L277 1260 L409 1128 Q420 1117 436.5 1117 Q453 1117 464 1128 L530 1194 Q555 1219 575.5 1239.5 Q596 1260 597 1260 Z " />
<glyph glyph-name="dcroat" unicode="&#x111;" horiz-adv-x="917" d="M-26 367 L-26 493 L95 493 L95 875 L415 875 Q505 875 585 840.5 Q665 806 724 746.5 Q783 687 817.5 607 Q852 527 852 437 Q852 347 817.5 267 Q783 187 724 128 Q665 69 585 34.5 Q505 0 415 0 L95 0 L95 367 L-26 367 Z M702 435 Q702 491 680.5 543.5 Q659 596 621.5 636.5 Q584 677 533 701 Q482 725 424 725 L270 725 Q259 725 252 717.5 Q245 710 245 699 L245 493 L401 493 L401 367 L245 367 L245 175 Q245 164 252 157 Q259 150 270 150 L424 150 Q481 150 531.5 173.5 Q582 197 620 237 Q658 277 680 328 Q702 379 702 435 Z " />
<glyph glyph-name="e" unicode="e" horiz-adv-x="808" d="M245 534 Q245 522 253 514 Q261 506 272 506 L743 506 L743 371 L272 371 Q261 371 253 363 Q245 355 245 344 L245 162 Q245 151 253 143 Q261 135 272 135 L743 135 L743 0 L95 0 L95 875 L743 874 L743 738 L272 738 Q261 738 253 729.5 Q245 721 245 710 L245 534 Z " />
<glyph glyph-name="eacute" unicode="&#xe9;" horiz-adv-x="808" d="M245 534 Q245 522 253 514 Q261 506 272 506 L743 506 L743 371 L272 371 Q261 371 253 363 Q245 355 245 344 L245 162 Q245 151 253 143 Q261 135 272 135 L743 135 L743 0 L95 0 L95 875 L743 874 L743 738 L272 738 Q261 738 253 729.5 Q245 721 245 710 L245 534 Z M387 1006 L270 1006 L460 1333 L577 1256 L387 1006 Z " />
<glyph glyph-name="ebreve" unicode="&#x115;" horiz-adv-x="808" d="M245 534 Q245 522 253 514 Q261 506 272 506 L743 506 L743 371 L324 371 Q313 371 299.5 370.5 Q286 370 274 368 Q262 366 253.5 360 Q245 354 245 344 L245 162 Q245 151 253 143 Q261 135 272 135 L743 135 L743 0 L95 0 L95 875 Q258 875 419 874.5 Q580 874 743 874 L743 738 L272 738 Q261 738 253 729.5 Q245 721 245 710 L245 534 Z M469 1175 L585 1175 Q585 1137 571 1104.5 Q557 1072 532 1047 Q507 1022 474 1008 Q441 994 404 994 Q366 994 333 1008 Q300 1022 275.5 1047 Q251 1072 236.5 1104.5 Q222 1137 222 1175 L339 1175 Q339 1148 358 1129 Q377 1110 404 1109 Q430 1109 449.5 1129 Q469 1149 469 1175 Z " />
<glyph glyph-name="ecaron" unicode="&#x11b;" horiz-adv-x="808" d="M245 534 Q245 522 253 514 Q261 506 272 506 L743 506 L743 371 L272 371 Q261 371 253 363 Q245 355 245 344 L245 162 Q245 151 253 143 Q261 135 272 135 L743 135 L743 0 L95 0 L95 875 L743 874 L743 738 L272 738 Q261 738 253 729.5 Q245 721 245 710 L245 534 Z M564 1260 L640 1184 L404 948 L168 1184 L244 1260 L376 1128 Q387 1117 403.5 1117 Q420 1117 431 1128 L497 1194 Q522 1219 542.5 1239.5 Q563 1260 564 1260 Z " />
<glyph glyph-name="ecircumflex" unicode="&#xea;" horiz-adv-x="808" d="M245 534 Q245 522 253 514 Q261 506 272 506 L743 506 L743 371 L272 371 Q261 371 253 363 Q245 355 245 344 L245 162 Q245 151 253 143 Q261 135 272 135 L743 135 L743 0 L95 0 L95 875 L743 874 L743 738 L272 738 Q261 738 253 729.5 Q245 721 245 710 L245 534 Z M563 948 L431 1080 Q420 1091 403.5 1091 Q387 1091 376 1080 L244 948 L168 1024 L404 1260 L640 1024 L564 948 L563 948 Z " />
<glyph glyph-name="edieresis" unicode="&#xeb;" horiz-adv-x="808" d="M245 534 Q245 522 253 514 Q261 506 272 506 L743 506 L743 371 L272 371 Q261 371 253 363 Q245 355 245 344 L245 162 Q245 151 253 143 Q261 135 272 135 L743 135 L743 0 L95 0 L95 875 L743 874 L743 738 L272 738 Q261 738 253 729.5 Q245 721 245 710 L245 534 Z M638 1082 Q638 1047 613.5 1023 Q589 999 554 999 Q520 999 495.5 1023 Q471 1047 471 1082 Q471 1117 495.5 1141 Q520 1165 554 1165 Q589 1165 613.5 1141 Q638 1117 638 1082 Z M336 1082 Q336 1047 311.5 1023 Q287 999 252 999 Q218 999 193.5 1023 Q169 1047 169 1082 Q169 1117 193.5 1141 Q218 1165 252 1165 Q287 1165 311.5 1141 Q336 1117 336 1082 Z " />
<glyph glyph-name="edotaccent" unicode="&#x117;" horiz-adv-x="808" d="M245 534 Q245 522 253 514 Q261 506 272 506 L743 506 L743 371 L272 371 Q261 371 253 363 Q245 355 245 344 L245 162 Q245 151 253 143 Q261 135 272 135 L743 135 L743 0 L95 0 L95 875 L743 874 L743 738 L272 738 Q261 738 253 729.5 Q245 721 245 710 L245 534 Z M487 1052 Q487 1017 462.5 993 Q438 969 403 969 Q369 969 344.5 993 Q320 1017 320 1052 Q320 1087 344.5 1111 Q369 1135 403 1135 Q438 1135 462.5 1111 Q487 1087 487 1052 Z " />
<glyph glyph-name="egrave" unicode="&#xe8;" horiz-adv-x="808" d="M245 534 Q245 522 253 514 Q261 506 272 506 L743 506 L743 371 L272 371 Q261 371 253 363 Q245 355 245 344 L245 162 Q245 151 253 143 Q261 135 272 135 L743 135 L743 0 L95 0 L95 875 L743 874 L743 738 L272 738 Q261 738 253 729.5 Q245 721 245 710 L245 534 Z M189 1262 L319 1347 L518 1006 L384 1006 L189 1262 Z " />
<glyph glyph-name="emacron" unicode="&#x113;" horiz-adv-x="808" d="M245 534 Q245 522 253 514 Q261 506 272 506 L743 506 L743 371 L272 371 Q261 371 253 363 Q245 355 245 344 L245 162 Q245 151 253 143 Q261 135 272 135 L743 135 L743 0 L95 0 L95 875 L743 874 L743 738 L272 738 Q261 738 253 729.5 Q245 721 245 710 L245 534 Z M190 1036 L190 1162 L617 1162 L617 1036 L190 1036 Z " />
<glyph glyph-name="eogonek" unicode="&#x119;" horiz-adv-x="808" d="M743 -198 Q711 -230 675.5 -246.5 Q640 -263 603 -263 Q565 -263 531.5 -248.5 Q498 -234 473 -208.5 Q448 -183 433.5 -149.5 Q419 -116 419 -78 Q419 -35 439 0 L95 0 L95 875 L743 874 L743 738 L272 738 Q261 738 253 729.5 Q245 721 245 710 L245 534 Q245 522 253 514 Q261 506 272 506 L743 506 L743 371 L272 371 Q261 371 253 363 Q245 355 245 344 L245 162 Q245 151 253 143 Q261 135 272 135 L743 135 L743 0 L606 0 Q571 -1 547 -23 Q523 -45 523 -77 Q523 -109 545.5 -131 Q568 -153 600 -153 Q615 -153 631 -145.5 Q647 -138 661 -124 L743 -198 Z " />
<glyph glyph-name="aacute" unicode="&#xe1;" horiz-adv-x="932" d="M704 875 L872 0 L723 0 L678 231 Q675 246 671 264 Q667 282 661 297 Q655 312 645 322 Q635 332 620 332 L370 332 Q356 332 340 331.5 Q324 331 309.5 327 Q295 323 284.5 315.5 Q274 308 271 293 L213 0 L60 0 L230 875 L704 875 Z M509 1006 L392 1006 L582 1333 L699 1256 L509 1006 Z M304 471 L635 471 L580 752 L360 752 L304 471 Z " />
<glyph glyph-name="abreve" unicode="&#x103;" horiz-adv-x="932" d="M704 875 L872 0 L723 0 L678 231 Q675 246 671 264 Q667 282 661 297 Q655 312 645 322 Q635 332 620 332 L370 332 Q356 332 340 331.5 Q324 331 309.5 327 Q295 323 284.5 315.5 Q274 308 271 293 L213 0 L60 0 L230 875 L704 875 Z M465 1109 Q492 1110 511 1129 Q530 1148 530 1175 L647 1175 Q647 1137 632.5 1104.5 Q618 1072 593.5 1047 Q569 1022 535.5 1008 Q502 994 465 994 Q427 994 394.5 1008 Q362 1022 337 1047 Q312 1072 298 1104.5 Q284 1137 284 1175 L400 1175 Q400 1148 419.5 1129 Q439 1110 465 1109 Z M304 471 L635 471 L580 752 L360 752 L304 471 Z " />
<glyph glyph-name="acircumflex" unicode="&#xe2;" horiz-adv-x="932" d="M704 875 L872 0 L723 0 L678 231 Q675 246 671 264 Q667 282 661 297 Q655 312 645 322 Q635 332 620 332 L370 332 Q356 332 340 331.5 Q324 331 309.5 327 Q295 323 284.5 315.5 Q274 308 271 293 L213 0 L60 0 L230 875 L704 875 Z M624 948 L506 1066 Q499 1073 490.5 1079 Q482 1085 473 1088 Q464 1091 455 1090 Q446 1089 437 1080 L305 948 L229 1024 L465 1260 L701 1024 L625 948 L624 948 Z M304 471 L635 471 L580 752 L360 752 L304 471 Z " />
<glyph glyph-name="adieresis" unicode="&#xe4;" horiz-adv-x="932" d="M704 875 L872 0 L723 0 L678 231 Q675 246 671 264 Q667 282 661 297 Q655 312 645 322 Q635 332 620 332 L370 332 Q356 332 340 331.5 Q324 331 309.5 327 Q295 323 284.5 315.5 Q274 308 271 293 L213 0 L60 0 L230 875 L704 875 Z M398 1082 Q398 1047 373.5 1023 Q349 999 314 999 Q280 999 255.5 1023 Q231 1047 231 1082 Q231 1117 255.5 1141 Q280 1165 314 1165 Q349 1165 373.5 1141 Q398 1117 398 1082 Z M700 1082 Q700 1047 675.5 1023 Q651 999 616 999 Q582 999 557.5 1023 Q533 1047 533 1082 Q533 1117 557.5 1141 Q582 1165 616 1165 Q651 1165 675.5 1141 Q700 1117 700 1082 Z M304 471 L635 471 L580 752 L360 752 L304 471 Z " />
<glyph glyph-name="agrave" unicode="&#xe0;" horiz-adv-x="932" d="M704 875 L872 0 L723 0 L678 231 Q675 246 671 264 Q667 282 661 297 Q655 312 645 322 Q635 332 620 332 L370 332 Q356 332 340 331.5 Q324 331 309.5 327 Q295 323 284.5 315.5 Q274 308 271 293 L213 0 L60 0 L230 875 L704 875 Z M216 1262 L345 1347 L545 1006 L410 1006 L216 1262 Z M304 471 L635 471 L580 752 L360 752 L304 471 Z " />
<glyph glyph-name="amacron" unicode="&#x101;" horiz-adv-x="932" d="M704 875 L872 0 L723 0 L678 231 Q675 246 671 264 Q667 282 661 297 Q655 312 645 322 Q635 332 620 332 L370 332 Q356 332 340 331.5 Q324 331 309.5 327 Q295 323 284.5 315.5 Q274 308 271 293 L213 0 L60 0 L230 875 L704 875 Z M252 1036 L252 1162 L679 1162 L679 1036 L252 1036 Z M304 471 L635 471 L580 752 L360 752 L304 471 Z " />
<glyph glyph-name="aogonek" unicode="&#x105;" horiz-adv-x="932" d="M856 -198 Q824 -230 788.5 -246.5 Q753 -263 716 -263 Q678 -263 644.5 -248.5 Q611 -234 586 -208.5 Q561 -183 546.5 -149.5 Q532 -116 532 -78 Q532 -42 545 -10.5 Q558 21 580.5 45 Q603 69 634 84.5 Q665 100 702 103 L667 292 Q664 309 650.5 320.5 Q637 332 620 332 L319 332 Q302 332 288.5 321 Q275 310 271 293 L213 0 L60 0 L230 875 L704 875 L872 0 L723 0 Q687 0 661.5 -22.5 Q636 -45 636 -77 Q636 -109 658.5 -131 Q681 -153 713 -153 Q728 -153 744 -145.5 Q760 -138 774 -124 L856 -198 Z M304 471 L635 471 L580 752 L360 752 L304 471 Z " />
<glyph glyph-name="aring" unicode="&#xe5;" horiz-adv-x="932" d="M704 875 L872 0 L723 0 L678 231 Q675 246 671 264 Q667 282 661 297 Q655 312 645 322 Q635 332 620 332 L370 332 Q356 332 340 331.5 Q324 331 309.5 327 Q295 323 284.5 315.5 Q274 308 271 293 L213 0 L60 0 L230 875 L704 875 Z M465 1260 Q495 1260 521.5 1248.5 Q548 1237 567.5 1217.5 Q587 1198 598.5 1171.5 Q610 1145 610 1115 Q610 1085 598.5 1058.5 Q587 1032 567.5 1012.5 Q548 993 521.5 982 Q495 971 465 971 Q435 971 408.5 982 Q382 993 362.5 1012.5 Q343 1032 332 1058.5 Q321 1085 321 1115 Q321 1145 332 1171.5 Q343 1198 362.5 1217.5 Q382 1237 408.5 1248.5 Q435 1260 465 1260 Z M304 471 L635 471 L580 752 L360 752 L304 471 Z M465 1056 Q489 1056 506.5 1073.5 Q524 1091 524 1115 Q524 1139 506.5 1156.5 Q489 1174 465 1174 Q441 1174 423.5 1156.5 Q406 1139 406 1115 Q406 1091 423.5 1073.5 Q441 1056 465 1056 Z " />
<glyph glyph-name="atilde" unicode="&#xe3;" horiz-adv-x="932" d="M704 875 L872 0 L723 0 L678 231 Q675 246 671 264 Q667 282 661 297 Q655 312 645 322 Q635 332 620 332 L370 332 Q356 332 340 331.5 Q324 331 309.5 327 Q295 323 284.5 315.5 Q274 308 271 293 L213 0 L60 0 L230 875 L704 875 Z M247 1154 Q283 1192 319.5 1196 Q356 1200 392.5 1187.5 Q429 1175 465.5 1153.5 Q502 1132 538.5 1119.5 Q575 1107 611.5 1111 Q648 1115 684 1153 L684 1024 Q647 986 611 982 Q575 978 538.5 990.5 Q502 1003 465.5 1024.5 Q429 1046 392.5 1058.5 Q356 1071 319.5 1067 Q283 1063 247 1025 L247 1154 Z M304 471 L635 471 L580 752 L360 752 L304 471 Z " />
<glyph glyph-name="h" unicode="h" horiz-adv-x="974" d="M733 534 L733 875 L879 875 L879 0 L733 0 L733 343 Q733 354 725 362.5 Q717 371 706 371 L268 371 Q257 371 249 362.5 Q241 354 241 343 L241 0 L95 0 L95 875 L241 875 L241 534 Q241 523 249 514.5 Q257 506 268 506 L706 506 Q717 506 725 514.5 Q733 523 733 534 Z " />
<glyph glyph-name="hbar" unicode="&#x127;" horiz-adv-x="974" d="M35 621 L35 756 L95 756 L95 875 L241 875 L241 756 L733 756 L733 875 L879 875 L879 756 L939 756 L939 621 L879 621 L879 0 L733 0 L733 343 Q733 354 725 362.5 Q717 371 706 371 L268 371 Q257 371 249 362.5 Q241 354 241 343 L241 0 L95 0 L95 621 L35 621 Z M733 534 L733 621 L241 621 L241 534 Q241 523 249 514.5 Q257 506 268 506 L706 506 Q717 506 725 514.5 Q733 523 733 534 Z " />
<glyph glyph-name="hcircumflex" unicode="&#x125;" horiz-adv-x="974" d="M733 534 L733 875 L879 875 L879 0 L733 0 L733 343 Q733 354 725 362.5 Q717 371 706 371 L268 371 Q257 371 249 362.5 Q241 354 241 343 L241 0 L95 0 L95 875 L241 875 L241 534 Q241 523 249 514.5 Q257 506 268 506 L706 506 Q717 506 725 514.5 Q733 523 733 534 Z M646 948 L514 1080 Q503 1091 486.5 1091 Q470 1091 459 1080 L327 948 L251 1024 L487 1260 L723 1024 L647 948 L646 948 Z " />
<glyph glyph-name="i" unicode="i" horiz-adv-x="406" d="M130 0 L130 875 L276 875 L276 0 L130 0 Z " />
<glyph glyph-name="iacute" unicode="&#xed;" horiz-adv-x="406" d="M130 0 L130 875 L276 875 L276 0 L130 0 Z M227 1006 L109 1006 L300 1333 L417 1256 L227 1006 Z " />
<glyph glyph-name="ibreve" unicode="&#x12d;" horiz-adv-x="406" d="M130 0 L130 875 L276 875 L276 0 L130 0 Z M203 1109 Q229 1110 248.5 1129 Q268 1148 268 1175 L384 1175 Q384 1137 370 1104.5 Q356 1072 331 1047 Q306 1022 273 1008 Q240 994 203 994 Q165 994 132 1008 Q99 1022 74.5 1047 Q50 1072 35.5 1104.5 Q21 1137 21 1175 L138 1175 Q138 1148 157 1129 Q176 1110 203 1109 Z " />
<glyph glyph-name="icircumflex" unicode="&#xee;" horiz-adv-x="406" d="M130 0 L130 875 L276 875 L276 0 L130 0 Z M362 948 L230 1080 Q219 1091 202.5 1091 Q186 1091 175 1080 L43 948 L-33 1024 L203 1260 L439 1024 L363 948 L362 948 Z " />
<glyph glyph-name="idieresis" unicode="&#xef;" horiz-adv-x="406" d="M130 0 L130 875 L276 875 L276 0 L130 0 Z M135 1082 Q135 1047 110.5 1023 Q86 999 51 999 Q17 999 -7.5 1023 Q-32 1047 -32 1082 Q-32 1117 -7.5 1141 Q17 1165 51 1165 Q86 1165 110.5 1141 Q135 1117 135 1082 Z M437 1082 Q437 1047 412.5 1023 Q388 999 353 999 Q319 999 294.5 1023 Q270 1047 270 1082 Q270 1117 294.5 1141 Q319 1165 353 1165 Q388 1165 412.5 1141 Q437 1117 437 1082 Z " />
<glyph glyph-name="igrave" unicode="&#xec;" horiz-adv-x="406" d="M130 0 L130 875 L276 875 L276 0 L130 0 Z M286 1052 Q286 1017 261.5 993 Q237 969 202 969 Q168 969 143.5 993 Q119 1017 119 1052 Q119 1087 143.5 1111 Q168 1135 202 1135 Q237 1135 261.5 1111 Q286 1087 286 1052 Z " />
<glyph glyph-name="imacron" unicode="&#x12b;" horiz-adv-x="406" d="M130 0 L130 875 L276 875 L276 0 L130 0 Z M-22 1262 L108 1347 L307 1006 L173 1006 L-22 1262 Z " />
<glyph glyph-name="iogonek" unicode="&#x12f;" horiz-adv-x="406" d="M130 0 L130 875 L276 875 L276 0 L130 0 Z M-10 1036 L-10 1162 L417 1162 L417 1036 L-10 1036 Z " />
<glyph glyph-name="itilde" unicode="&#x129;" horiz-adv-x="406" d="M295 -198 Q264 -230 228 -246.5 Q192 -263 155 -263 Q117 -263 83.5 -248.5 Q50 -234 25 -208.5 Q0 -183 -14.5 -149.5 Q-29 -116 -29 -78 Q-29 -44 -17 -13.5 Q-5 17 16 41 Q37 65 66 80.5 Q95 96 130 101 L130 875 L276 875 L276 0 L159 0 Q124 -1 100 -23 Q76 -45 76 -77 Q76 -109 98 -131 Q120 -153 152 -153 Q184 -153 213 -124 L295 -198 Z " />
<glyph glyph-name="ij" unicode="&#x133;" horiz-adv-x="406" d="M130 0 L130 875 L276 875 L276 0 L130 0 Z M-16 1154 Q20 1192 57 1196 Q94 1200 130 1187.5 Q166 1175 202.5 1153.5 Q239 1132 275.5 1119.5 Q312 1107 348.5 1111 Q385 1115 422 1153 L422 1024 Q385 986 349 982 Q313 978 276 990.5 Q239 1003 202.5 1024.5 Q166 1046 130 1058.5 Q94 1071 57 1067 Q20 1063 -16 1025 L-16 1154 Z " />
<glyph glyph-name="j" unicode="j" horiz-adv-x="728" d="M487 355 L487 874 L638 874 L638 353 Q638 280 610.5 215.5 Q583 151 535 103 Q487 55 422.5 27.5 Q358 0 285 0 Q211 0 147 27.5 Q83 55 35 103 L137 206 Q165 178 202 164 Q239 150 282 150 Q324 150 361.5 166 Q399 182 427 210 Q455 238 471 275.5 Q487 313 487 355 Z " />
<glyph glyph-name="jcircumflex" unicode="&#x135;" horiz-adv-x="728" d="M487 355 L487 874 L638 874 L638 353 Q638 280 610.5 215.5 Q583 151 535 103 Q487 55 422.5 27.5 Q358 0 285 0 Q211 0 147 27.5 Q83 55 35 103 L137 206 Q165 178 202 164 Q239 150 282 150 Q324 150 361.5 166 Q399 182 427 210 Q455 238 471 275.5 Q487 313 487 355 Z M724 948 L606 1066 Q592 1080 573 1088.5 Q554 1097 537 1080 L405 948 L329 1024 L565 1260 L801 1024 L725 948 L724 948 Z " />
<glyph glyph-name="k" unicode="k" horiz-adv-x="926" d="M886 875 L500 438 L886 0 L704 0 L387 357 Q376 371 358 371 L268 371 Q257 371 249 362.5 Q241 354 241 343 L241 0 L95 0 L95 875 L241 875 L241 534 Q241 523 249 514.5 Q257 506 268 506 L360 506 Q378 506 390 520 L703 875 L886 875 Z " />
<glyph glyph-name="kcommaaccent" unicode="&#x137;" horiz-adv-x="926" d="M886 875 L500 438 L886 0 L704 0 L387 357 Q376 371 358 371 L268 371 Q257 371 249 362.5 Q241 354 241 343 L241 0 L95 0 L95 875 L241 875 L241 534 Q241 523 249 514.5 Q257 506 268 506 L360 506 Q378 506 390 520 L703 875 L886 875 Z M397 -142 L528 -142 L506 -423 L397 -423 L397 -142 Z " />
<glyph glyph-name="l" unicode="l" horiz-adv-x="759" d="M245 875 L245 178 Q245 158 256 146.5 Q267 135 287 135 L724 135 L724 0 L95 0 L95 875 L245 875 Z " />
<glyph glyph-name="lacute" unicode="&#x13a;" horiz-adv-x="759" d="M245 875 L245 178 Q245 158 256 146.5 Q267 135 287 135 L724 135 L724 0 L95 0 L95 875 L245 875 Z M261 1006 L144 1006 L334 1333 L451 1256 L261 1006 Z " />
<glyph glyph-name="lcaron" unicode="&#x13e;" horiz-adv-x="759" d="M245 875 L245 178 Q245 158 256 146.5 Q267 135 287 135 L724 135 L724 0 L95 0 L95 875 L245 875 Z M548 786 L679 786 L657 505 L548 505 L548 786 Z " />
<glyph glyph-name="lcommaaccent" unicode="&#x13c;" horiz-adv-x="759" d="M245 875 L245 178 Q245 158 256 146.5 Q267 135 287 135 L724 135 L724 0 L95 0 L95 875 L245 875 Z M284 -142 L415 -142 L393 -423 L284 -423 L284 -142 Z " />
<glyph glyph-name="ldot" unicode="&#x140;" horiz-adv-x="759" d="M245 875 L245 178 Q245 158 256 146.5 Q267 135 287 135 L724 135 L724 0 L95 0 L95 875 L245 875 Z M579 469 Q579 434 555 410 Q531 386 496 386 Q461 386 437 410 Q413 434 413 469 Q413 504 437 528 Q461 552 496 552 Q531 552 555 528 Q579 504 579 469 Z " />
<glyph glyph-name="lslash" unicode="&#x142;" horiz-adv-x="759" d="M30 371 L30 506 L95 506 L95 875 L245 875 L245 506 L488 506 L488 371 L245 371 L245 178 Q245 158 256 146.5 Q267 135 287 135 L724 135 L724 0 L95 0 L95 371 L30 371 Z " />
<glyph glyph-name="n" unicode="n" horiz-adv-x="1019" d="M774 226 L774 875 L924 875 L924 0 L781 0 L246 656 L246 0 L95 0 L95 875 L239 875 L774 226 Z " />
<glyph glyph-name="nacute" unicode="&#x144;" horiz-adv-x="1019" d="M774 226 L774 875 L924 875 L924 0 L781 0 L246 656 L246 0 L95 0 L95 875 L239 875 L774 226 Z M553 1006 L435 1006 L626 1333 L743 1256 L553 1006 Z " />
<glyph glyph-name="ntilde" unicode="&#xf1;" horiz-adv-x="1019" d="M774 226 L774 875 L924 875 L924 0 L781 0 L246 656 L246 0 L95 0 L95 875 L239 875 L774 226 Z M290 1154 Q326 1192 363 1196 Q400 1200 436 1187.5 Q472 1175 508.5 1153.5 Q545 1132 581.5 1119.5 Q618 1107 654.5 1111 Q691 1115 728 1153 L728 1024 Q691 986 655 982 Q619 978 582 990.5 Q545 1003 508.5 1024.5 Q472 1046 436 1058.5 Q400 1071 363 1067 Q326 1063 290 1025 L290 1154 Z " />
<glyph glyph-name="ncommaaccent" unicode="&#x146;" horiz-adv-x="1019" d="M774 226 L774 875 L924 875 L924 0 L781 0 L246 656 L246 0 L95 0 L95 875 L239 875 L774 226 Z M444 -142 L575 -142 L553 -423 L444 -423 L444 -142 Z " />
<glyph glyph-name="ncaron" unicode="&#x148;" horiz-adv-x="1019" d="M774 226 L774 875 L924 875 L924 0 L781 0 L246 656 L246 0 L95 0 L95 875 L239 875 L774 226 Z M669 1260 L745 1184 L509 948 L273 1184 L349 1260 L481 1128 Q492 1117 508.5 1117 Q525 1117 536 1128 L602 1194 Q627 1219 647.5 1239.5 Q668 1260 669 1260 Z " />
<glyph glyph-name="napostrophe" unicode="&#x149;" horiz-adv-x="1019" d="M774 226 L774 875 L924 875 L924 0 L781 0 L246 656 L246 0 L95 0 L95 875 L239 875 L774 226 Z M95 -142 L226 -142 L204 -423 L95 -423 L95 -142 Z " />
<glyph glyph-name="o" unicode="o" horiz-adv-x="994" d="M497 149 Q556 149 608.5 171.5 Q661 194 700 233 Q739 272 762 324.5 Q785 377 785 437 Q785 496 762 548.5 Q739 601 700 640 Q661 679 608.5 701.5 Q556 724 497 724 Q437 724 385 701.5 Q333 679 294 640 Q255 601 232.5 548.5 Q210 496 210 437 Q210 377 232.5 324.5 Q255 272 294 233 Q333 194 385 171.5 Q437 149 497 149 Z M497 874 Q588 874 667.5 839.5 Q747 805 806 746 Q865 687 899.5 607 Q934 527 934 437 Q934 346 899.5 266.5 Q865 187 806 127.5 Q747 68 667.5 34 Q588 0 497 0 Q407 0 327 34 Q247 68 188 127.5 Q129 187 94.5 266.5 Q60 346 60 437 Q60 527 94.5 607 Q129 687 188 746 Q247 805 327 839.5 Q407 874 497 874 Z " />
<glyph glyph-name="oacute" unicode="&#xf3;" horiz-adv-x="994" d="M497 149 Q556 149 608.5 171.5 Q661 194 700 233 Q739 272 762 324.5 Q785 377 785 437 Q785 496 762 548.5 Q739 601 700 640 Q661 679 608.5 701.5 Q556 724 497 724 Q437 724 385 701.5 Q333 679 294 640 Q255 601 232.5 548.5 Q210 496 210 437 Q210 377 232.5 324.5 Q255 272 294 233 Q333 194 385 171.5 Q437 149 497 149 Z M497 874 Q588 874 667.5 839.5 Q747 805 806 746 Q865 687 899.5 607 Q934 527 934 437 Q934 346 899.5 266.5 Q865 187 806 127.5 Q747 68 667.5 34 Q588 0 497 0 Q407 0 327 34 Q247 68 188 127.5 Q129 187 94.5 266.5 Q60 346 60 437 Q60 527 94.5 607 Q129 687 188 746 Q247 805 327 839.5 Q407 874 497 874 Z M540 1006 L423 1006 L613 1333 L730 1256 L540 1006 Z " />
<glyph glyph-name="obreve" unicode="&#x14f;" horiz-adv-x="994" d="M497 874 Q588 874 667.5 839.5 Q747 805 806 746 Q865 687 899.5 607 Q934 527 934 437 Q934 346 899.5 266.5 Q865 187 806 127.5 Q747 68 667.5 34 Q588 0 497 0 Q407 0 327 34 Q247 68 188 127.5 Q129 187 94.5 266.5 Q60 346 60 437 Q60 527 94.5 607 Q129 687 188 746 Q247 805 327 839.5 Q407 874 497 874 Z M497 149 Q556 149 608.5 171.5 Q661 194 700 233 Q739 272 762 324.5 Q785 377 785 437 Q785 496 762 548.5 Q739 601 700 640 Q661 679 608.5 701.5 Q556 724 497 724 Q437 724 385 701.5 Q333 679 294 640 Q255 601 232.5 548.5 Q210 496 210 437 Q210 377 232.5 324.5 Q255 272 294 233 Q333 194 385 171.5 Q437 149 497 149 Z M562 1175 L678 1175 Q678 1137 664 1104.5 Q650 1072 625 1047 Q600 1022 567 1008 Q534 994 497 994 Q459 994 426 1008 Q393 1022 368.5 1047 Q344 1072 329.5 1104.5 Q315 1137 315 1175 L432 1175 Q432 1148 451.5 1128.5 Q471 1109 498 1109 Q524 1110 543 1129 Q562 1148 562 1175 Z " />
<glyph glyph-name="ocircumflex" unicode="&#xf4;" horiz-adv-x="994" d="M497 874 Q588 874 667.5 839.5 Q747 805 806 746 Q865 687 899.5 607 Q934 527 934 437 Q934 346 899.5 266.5 Q865 187 806 127.5 Q747 68 667.5 34 Q588 0 497 0 Q407 0 327 34 Q247 68 188 127.5 Q129 187 94.5 266.5 Q60 346 60 437 Q60 527 94.5 607 Q129 687 188 746 Q247 805 327 839.5 Q407 874 497 874 Z M497 149 Q556 149 608.5 171.5 Q661 194 700 233 Q739 272 762 324.5 Q785 377 785 437 Q785 496 762 548.5 Q739 601 700 640 Q661 679 608.5 701.5 Q556 724 497 724 Q437 724 385 701.5 Q333 679 294 640 Q255 601 232.5 548.5 Q210 496 210 437 Q210 377 232.5 324.5 Q255 272 294 233 Q333 194 385 171.5 Q437 149 497 149 Z M656 948 L524 1080 Q513 1091 496.5 1091 Q480 1091 469 1080 L337 948 L261 1024 L497 1260 L733 1024 L657 948 L656 948 Z " />
<glyph glyph-name="odieresis" unicode="&#xf6;" horiz-adv-x="994" d="M497 149 Q556 149 608.5 171.5 Q661 194 700 233 Q739 272 762 324.5 Q785 377 785 437 Q785 496 762 548.5 Q739 601 700 640 Q661 679 608.5 701.5 Q556 724 497 724 Q437 724 385 701.5 Q333 679 294 640 Q255 601 232.5 548.5 Q210 496 210 437 Q210 377 232.5 324.5 Q255 272 294 233 Q333 194 385 171.5 Q437 149 497 149 Z M497 874 Q588 874 667.5 839.5 Q747 805 806 746 Q865 687 899.5 607 Q934 527 934 437 Q934 346 899.5 266.5 Q865 187 806 127.5 Q747 68 667.5 34 Q588 0 497 0 Q407 0 327 34 Q247 68 188 127.5 Q129 187 94.5 266.5 Q60 346 60 437 Q60 527 94.5 607 Q129 687 188 746 Q247 805 327 839.5 Q407 874 497 874 Z M731 1082 Q731 1047 706.5 1023 Q682 999 647 999 Q613 999 588.5 1023 Q564 1047 564 1082 Q564 1117 588.5 1141 Q613 1165 647 1165 Q682 1165 706.5 1141 Q731 1117 731 1082 Z M429 1082 Q429 1047 404.5 1023 Q380 999 345 999 Q311 999 286.5 1023 Q262 1047 262 1082 Q262 1117 286.5 1141 Q311 1165 345 1165 Q380 1165 404.5 1141 Q429 1117 429 1082 Z " />
<glyph glyph-name="ograve" unicode="&#xf2;" horiz-adv-x="994" d="M497 149 Q556 149 608.5 171.5 Q661 194 700 233 Q739 272 762 324.5 Q785 377 785 437 Q785 496 762 548.5 Q739 601 700 640 Q661 679 608.5 701.5 Q556 724 497 724 Q437 724 385 701.5 Q333 679 294 640 Q255 601 232.5 548.5 Q210 496 210 437 Q210 377 232.5 324.5 Q255 272 294 233 Q333 194 385 171.5 Q437 149 497 149 Z M497 874 Q588 874 667.5 839.5 Q747 805 806 746 Q865 687 899.5 607 Q934 527 934 437 Q934 346 899.5 266.5 Q865 187 806 127.5 Q747 68 667.5 34 Q588 0 497 0 Q407 0 327 34 Q247 68 188 127.5 Q129 187 94.5 266.5 Q60 346 60 437 Q60 527 94.5 607 Q129 687 188 746 Q247 805 327 839.5 Q407 874 497 874 Z M252 1262 L382 1347 L581 1006 L447 1006 L252 1262 Z " />
<glyph glyph-name="ohungarumlaut" unicode="&#x151;" horiz-adv-x="994" d="M497 149 Q556 149 608.5 171.5 Q661 194 700 233 Q739 272 762 324.5 Q785 377 785 437 Q785 496 762 548.5 Q739 601 700 640 Q661 679 608.5 701.5 Q556 724 497 724 Q437 724 385 701.5 Q333 679 294 640 Q255 601 232.5 548.5 Q210 496 210 437 Q210 377 232.5 324.5 Q255 272 294 233 Q333 194 385 171.5 Q437 149 497 149 Z M497 874 Q588 874 667.5 839.5 Q747 805 806 746 Q865 687 899.5 607 Q934 527 934 437 Q934 346 899.5 266.5 Q865 187 806 127.5 Q747 68 667.5 34 Q588 0 497 0 Q407 0 327 34 Q247 68 188 127.5 Q129 187 94.5 266.5 Q60 346 60 437 Q60 527 94.5 607 Q129 687 188 746 Q247 805 327 839.5 Q407 874 497 874 Z M407 1006 L289 1006 L480 1333 L597 1256 L407 1006 Z M674 1006 L557 1006 L747 1333 L864 1256 L674 1006 Z " />
<glyph glyph-name="omacron" unicode="&#x14d;" horiz-adv-x="994" d="M497 874 Q588 874 667.5 839.5 Q747 805 806 746 Q865 687 899.5 607 Q934 527 934 437 Q934 346 899.5 266.5 Q865 187 806 127.5 Q747 68 667.5 34 Q588 0 497 0 Q407 0 327 34 Q247 68 188 127.5 Q129 187 94.5 266.5 Q60 346 60 437 Q60 527 94.5 607 Q129 687 188 746 Q247 805 327 839.5 Q407 874 497 874 Z M497 149 Q556 149 608.5 171.5 Q661 194 700 233 Q739 272 762 324.5 Q785 377 785 437 Q785 496 762 548.5 Q739 601 700 640 Q661 679 608.5 701.5 Q556 724 497 724 Q437 724 385 701.5 Q333 679 294 640 Q255 601 232.5 548.5 Q210 496 210 437 Q210 377 232.5 324.5 Q255 272 294 233 Q333 194 385 171.5 Q437 149 497 149 Z M283 1036 L283 1162 L710 1162 L710 1036 L283 1036 Z " />
<glyph glyph-name="oslash" unicode="&#xf8;" horiz-adv-x="994" d="M229 -31 L268 65 Q221 93 182.5 132.5 Q144 172 117 220 Q90 268 75 323 Q60 378 60 437 Q60 527 94.5 607 Q129 687 188 746 Q247 805 327 839.5 Q407 874 497 874 Q547 874 598 860 L643 970 L752 931 L706 819 Q757 792 799 752 Q841 712 871 662.5 Q901 613 917.5 556 Q934 499 934 437 Q934 346 899.5 266.5 Q865 187 806 127.5 Q747 68 667.5 34 Q588 0 497 0 Q432 0 375 18 L339 -70 L229 -31 Z M497 149 Q556 149 608.5 171.5 Q661 194 700 233 Q739 272 762 324.5 Q785 377 785 437 Q785 514 747 577.5 Q709 641 647 677 L433 159 Q448 154 464 151.5 Q480 149 497 149 Z M210 437 Q210 365 242 306 Q274 247 328 210 L537 715 Q497 721 456 715 Q404 709 359 685 Q314 661 281 624 Q248 587 229 539 Q210 491 210 437 Z " />
<glyph glyph-name="oslashacute" unicode="&#x1ff;" horiz-adv-x="994" d="M229 -31 L268 65 Q221 93 182.5 132.5 Q144 172 117 220 Q90 268 75 323 Q60 378 60 437 Q60 527 94.5 607 Q129 687 188 746 Q247 805 327 839.5 Q407 874 497 874 Q547 874 598 860 L643 970 L752 931 L706 819 Q757 792 799 752 Q841 712 871 662.5 Q901 613 917.5 556 Q934 499 934 437 Q934 346 899.5 266.5 Q865 187 806 127.5 Q747 68 667.5 34 Q588 0 497 0 Q432 0 375 18 L339 -70 L229 -31 Z M460 1006 L343 1006 L533 1333 L650 1256 L460 1006 Z M497 149 Q556 149 608.5 171.5 Q661 194 700 233 Q739 272 762 324.5 Q785 377 785 437 Q785 514 747 577.5 Q709 641 647 677 L433 159 Q448 154 464 151.5 Q480 149 497 149 Z M210 437 Q210 365 242 306 Q274 247 328 210 L537 715 Q497 721 456 715 Q404 709 359 685 Q314 661 281 624 Q248 587 229 539 Q210 491 210 437 Z " />
<glyph glyph-name="otilde" unicode="&#xf5;" horiz-adv-x="994" d="M497 874 Q588 874 667.5 839.5 Q747 805 806 746 Q865 687 899.5 607 Q934 527 934 437 Q934 346 899.5 266.5 Q865 187 806 127.5 Q747 68 667.5 34 Q588 0 497 0 Q407 0 327 34 Q247 68 188 127.5 Q129 187 94.5 266.5 Q60 346 60 437 Q60 527 94.5 607 Q129 687 188 746 Q247 805 327 839.5 Q407 874 497 874 Z M497 149 Q556 149 608.5 171.5 Q661 194 700 233 Q739 272 762 324.5 Q785 377 785 437 Q785 496 762 548.5 Q739 601 700 640 Q661 679 608.5 701.5 Q556 724 497 724 Q437 724 385 701.5 Q333 679 294 640 Q255 601 232.5 548.5 Q210 496 210 437 Q210 377 232.5 324.5 Q255 272 294 233 Q333 194 385 171.5 Q437 149 497 149 Z M278 1154 Q314 1192 350.5 1196 Q387 1200 423.5 1187.5 Q460 1175 496.5 1153.5 Q533 1132 569.5 1119.5 Q606 1107 642 1111 Q678 1115 715 1153 L715 1024 Q678 986 642 982 Q606 978 569.5 990.5 Q533 1003 496.5 1024.5 Q460 1046 423.5 1058.5 Q387 1071 350.5 1067 Q314 1063 278 1025 L278 1154 Z " />
<glyph glyph-name="oe" unicode="&#x153;" horiz-adv-x="1250" d="M1185 874 L1185 738 L670 738 Q659 738 651 729.5 Q643 721 643 710 L643 534 Q643 522 651 514 Q659 506 670 506 L1185 506 L1185 371 L670 371 Q659 371 651 363 Q643 355 643 344 L643 162 Q643 151 651 143 Q659 135 670 135 L1185 135 L1185 0 L497 0 Q407 0 327 34 Q247 68 188 127.5 Q129 187 94.5 266.5 Q60 346 60 437 Q60 527 94.5 607 Q129 687 188 746.5 Q247 806 327 840.5 Q407 875 497 875 L1185 874 Z M497 740 Q434 740 379 716 Q324 692 282.5 651 Q241 610 217.5 555 Q194 500 194 437 Q194 374 217.5 318.5 Q241 263 282.5 221.5 Q324 180 379 156.5 Q434 133 497 133 L497 740 Z " />
<glyph glyph-name="R" unicode="R" horiz-adv-x="925" d="M876 617 Q876 548 841.5 490.5 Q807 433 747 402 Q736 397 727.5 393 Q719 389 710 383 Q702 378 696.5 369 Q691 360 695 345 Q698 337 710 311.5 Q722 286 739 251 Q756 216 775.5 176.5 Q795 137 813 101 Q831 65 845 37.5 Q859 10 864 0 L711 0 L524 371 L284 371 Q267 371 255.5 359.5 Q244 348 244 331 L244 0 L95 0 L95 875 L622 875 Q675 875 721.5 854.5 Q768 834 802.5 799 Q837 764 856.5 717 Q876 670 876 617 Z M604 497 Q629 497 652 507 Q675 517 692.5 534 Q710 551 720 573.5 Q730 596 730 622 Q730 649 720 672.5 Q710 696 693 713.5 Q676 731 652 740.5 Q628 750 601 750 L284 750 Q267 750 255.5 739 Q244 728 244 711 L244 536 Q244 519 255.5 508 Q267 497 284 497 L604 497 Z " />
<glyph glyph-name="Racute" unicode="&#x154;" horiz-adv-x="925" d="M876 617 Q876 548 841.5 490.5 Q807 433 747 402 Q736 397 727.5 393 Q719 389 710 383 Q702 378 696.5 369 Q691 360 695 345 Q698 337 710 311.5 Q722 286 739 251 Q756 216 775.5 176.5 Q795 137 813 101 Q831 65 845 37.5 Q859 10 864 0 L711 0 L524 371 L284 371 Q267 371 255.5 359.5 Q244 348 244 331 L244 0 L95 0 L95 875 L622 875 Q675 875 721.5 854.5 Q768 834 802.5 799 Q837 764 856.5 717 Q876 670 876 617 Z M604 497 Q629 497 652 507 Q675 517 692.5 534 Q710 551 720 573.5 Q730 596 730 622 Q730 649 720 672.5 Q710 696 693 713.5 Q676 731 652 740.5 Q628 750 601 750 L284 750 Q267 750 255.5 739 Q244 728 244 711 L244 536 Q244 519 255.5 508 Q267 497 284 497 L604 497 Z M426 1006 L308 1006 L499 1333 L616 1256 L426 1006 Z " />
<glyph glyph-name="Rcaron" unicode="&#x158;" horiz-adv-x="925" d="M876 617 Q876 548 841.5 490.5 Q807 433 747 402 Q736 397 727.5 393 Q719 389 710 383 Q702 378 696.5 369 Q691 360 695 345 Q701 329 714 302.5 Q727 276 742.5 244 Q758 212 775.5 176.5 Q793 141 810 108 Q827 75 841 46.5 Q855 18 864 0 L711 0 L524 371 L284 371 Q267 371 255.5 359.5 Q244 348 244 331 L244 0 L95 0 L95 875 L622 875 Q675 875 721.5 854.5 Q768 834 802.5 799 Q837 764 856.5 717 Q876 670 876 617 Z M622 1260 L698 1184 L462 948 L226 1184 L302 1260 L434 1128 Q445 1117 461.5 1117 Q478 1117 489 1128 L555 1194 Q580 1219 600.5 1239.5 Q621 1260 622 1260 Z M604 497 Q629 497 652 507 Q675 517 692.5 534 Q710 551 720 573.5 Q730 596 730 622 Q730 649 720 672.5 Q710 696 693 713.5 Q676 731 652 740.5 Q628 750 601 750 L284 750 Q267 750 255.5 739 Q244 728 244 711 L244 536 Q244 519 255.5 508 Q267 497 284 497 L604 497 Z " />
<glyph glyph-name="Rcommaaccent" unicode="&#x156;" horiz-adv-x="925" d="M876 617 Q876 548 841.5 490.5 Q807 433 747 402 Q736 397 727.5 393 Q719 389 710 383 Q702 378 696.5 369 Q691 360 695 345 Q701 329 714 302.5 Q727 276 742.5 244 Q758 212 775.5 176.5 Q793 141 810 108 Q827 75 841 46.5 Q855 18 864 0 L711 0 L524 371 L284 371 Q267 371 255.5 359.5 Q244 348 244 331 L244 0 L95 0 L95 875 L622 875 Q675 875 721.5 854.5 Q768 834 802.5 799 Q837 764 856.5 717 Q876 670 876 617 Z M604 497 Q629 497 652 507 Q675 517 692.5 534 Q710 551 720 573.5 Q730 596 730 622 Q730 649 720 672.5 Q710 696 693 713.5 Q676 731 652 740.5 Q628 750 601 750 L284 750 Q267 750 255.5 739 Q244 728 244 711 L244 536 Q244 519 255.5 508 Q267 497 284 497 L604 497 Z M396 -142 L527 -142 L505 -423 L396 -423 L396 -142 Z " />
<glyph glyph-name="r" unicode="r" horiz-adv-x="925" d="M876 617 Q876 548 841.5 490.5 Q807 433 747 402 Q736 397 727.5 393 Q719 389 710 383 Q702 378 696.5 369 Q691 360 695 345 Q698 337 710 311.5 Q722 286 739 251 Q756 216 775.5 176.5 Q795 137 813 101 Q831 65 845 37.5 Q859 10 864 0 L711 0 L524 371 L284 371 Q267 371 255.5 359.5 Q244 348 244 331 L244 0 L95 0 L95 875 L622 875 Q675 875 721.5 854.5 Q768 834 802.5 799 Q837 764 856.5 717 Q876 670 876 617 Z M604 497 Q629 497 652 507 Q675 517 692.5 534 Q710 551 720 573.5 Q730 596 730 622 Q730 649 720 672.5 Q710 696 693 713.5 Q676 731 652 740.5 Q628 750 601 750 L284 750 Q267 750 255.5 739 Q244 728 244 711 L244 536 Q244 519 255.5 508 Q267 497 284 497 L604 497 Z " />
<glyph glyph-name="racute" unicode="&#x155;" horiz-adv-x="925" d="M876 617 Q876 548 841.5 490.5 Q807 433 747 402 Q736 397 727.5 393 Q719 389 710 383 Q702 378 696.5 369 Q691 360 695 345 Q698 337 710 311.5 Q722 286 739 251 Q756 216 775.5 176.5 Q795 137 813 101 Q831 65 845 37.5 Q859 10 864 0 L711 0 L524 371 L284 371 Q267 371 255.5 359.5 Q244 348 244 331 L244 0 L95 0 L95 875 L622 875 Q675 875 721.5 854.5 Q768 834 802.5 799 Q837 764 856.5 717 Q876 670 876 617 Z M604 497 Q629 497 652 507 Q675 517 692.5 534 Q710 551 720 573.5 Q730 596 730 622 Q730 649 720 672.5 Q710 696 693 713.5 Q676 731 652 740.5 Q628 750 601 750 L284 750 Q267 750 255.5 739 Q244 728 244 711 L244 536 Q244 519 255.5 508 Q267 497 284 497 L604 497 Z M426 1006 L308 1006 L499 1333 L616 1256 L426 1006 Z " />
<glyph glyph-name="rcaron" unicode="&#x159;" horiz-adv-x="925" d="M876 617 Q876 548 841.5 490.5 Q807 433 747 402 Q736 397 727.5 393 Q719 389 710 383 Q702 378 696.5 369 Q691 360 695 345 Q701 329 714 302.5 Q727 276 742.5 244 Q758 212 775.5 176.5 Q793 141 810 108 Q827 75 841 46.5 Q855 18 864 0 L711 0 L524 371 L284 371 Q267 371 255.5 359.5 Q244 348 244 331 L244 0 L95 0 L95 875 L622 875 Q675 875 721.5 854.5 Q768 834 802.5 799 Q837 764 856.5 717 Q876 670 876 617 Z M622 1260 L698 1184 L462 948 L226 1184 L302 1260 L434 1128 Q445 1117 461.5 1117 Q478 1117 489 1128 L555 1194 Q580 1219 600.5 1239.5 Q621 1260 622 1260 Z M604 497 Q629 497 652 507 Q675 517 692.5 534 Q710 551 720 573.5 Q730 596 730 622 Q730 649 720 672.5 Q710 696 693 713.5 Q676 731 652 740.5 Q628 750 601 750 L284 750 Q267 750 255.5 739 Q244 728 244 711 L244 536 Q244 519 255.5 508 Q267 497 284 497 L604 497 Z " />
<glyph glyph-name="rcommaaccent" unicode="&#x157;" horiz-adv-x="925" d="M876 617 Q876 548 841.5 490.5 Q807 433 747 402 Q736 397 727.5 393 Q719 389 710 383 Q702 378 696.5 369 Q691 360 695 345 Q701 329 714 302.5 Q727 276 742.5 244 Q758 212 775.5 176.5 Q793 141 810 108 Q827 75 841 46.5 Q855 18 864 0 L711 0 L524 371 L284 371 Q267 371 255.5 359.5 Q244 348 244 331 L244 0 L95 0 L95 875 L622 875 Q675 875 721.5 854.5 Q768 834 802.5 799 Q837 764 856.5 717 Q876 670 876 617 Z M604 497 Q629 497 652 507 Q675 517 692.5 534 Q710 551 720 573.5 Q730 596 730 622 Q730 649 720 672.5 Q710 696 693 713.5 Q676 731 652 740.5 Q628 750 601 750 L284 750 Q267 750 255.5 739 Q244 728 244 711 L244 536 Q244 519 255.5 508 Q267 497 284 497 L604 497 Z M396 -142 L527 -142 L505 -423 L396 -423 L396 -142 Z " />
<glyph glyph-name="s" unicode="s" horiz-adv-x="848" d="M198 625 Q198 584 223.5 561.5 Q249 539 290.5 526.5 Q332 514 385 508.5 Q438 503 493 495.5 Q548 488 601 475.5 Q654 463 695.5 437 Q737 411 762.5 367.5 Q788 324 788 255 Q788 182 752 133 Q716 84 661 54.5 Q606 25 542 12.5 Q478 0 421 0 Q382 0 340 5 Q298 10 256.5 21.5 Q215 33 178 52.5 Q141 72 112.5 100.5 Q84 129 67.5 167.5 Q51 206 51 256 L185 256 Q185 218 208 194.5 Q231 171 266.5 157.5 Q302 144 343 139 Q384 134 420 134 Q459 134 498 139.5 Q537 145 568 159.5 Q599 174 618.5 198 Q638 222 638 258 Q638 295 613 314.5 Q588 334 546.5 344 Q505 354 452.5 359 Q400 364 345.5 371.5 Q291 379 238.5 392.5 Q186 406 144.5 434 Q103 462 78 508.5 Q53 555 53 627 Q53 700 88 747.5 Q123 795 177.5 823 Q232 851 298 862 Q364 873 426 873 Q484 873 546.5 859.5 Q609 846 661 815 Q713 784 746.5 733.5 Q780 683 780 608 L646 608 Q646 644 624.5 669 Q603 694 569.5 709.5 Q536 725 496.5 731.5 Q457 738 421 738 Q382 738 342 733.5 Q302 729 270 716.5 Q238 704 218 682 Q198 660 198 625 Z " />
<glyph glyph-name="sacute" unicode="&#x15b;" horiz-adv-x="848" d="M198 625 Q198 584 223.5 561.5 Q249 539 290.5 526.5 Q332 514 385 508.5 Q438 503 493 495.5 Q548 488 601 475.5 Q654 463 695.5 437 Q737 411 762.5 367.5 Q788 324 788 255 Q788 182 752 133 Q716 84 661 54.5 Q606 25 542 12.5 Q478 0 421 0 Q382 0 340 5 Q298 10 256.5 21.5 Q215 33 178 52.5 Q141 72 112.5 100.5 Q84 129 67.5 167.5 Q51 206 51 256 L185 256 Q185 218 208 194.5 Q231 171 266.5 157.5 Q302 144 343 139 Q384 134 420 134 Q459 134 498 139.5 Q537 145 568 159.5 Q599 174 618.5 198 Q638 222 638 258 Q638 295 613 314.5 Q588 334 546.5 344 Q505 354 452.5 359 Q400 364 345.5 371.5 Q291 379 238.5 392.5 Q186 406 144.5 434 Q103 462 78 508.5 Q53 555 53 627 Q53 700 88 747.5 Q123 795 177.5 823 Q232 851 298 862 Q364 873 426 873 Q484 873 546.5 859.5 Q609 846 661 815 Q713 784 746.5 733.5 Q780 683 780 608 L646 608 Q646 644 624.5 669 Q603 694 569.5 709.5 Q536 725 496.5 731.5 Q457 738 421 738 Q382 738 342 733.5 Q302 729 270 716.5 Q238 704 218 682 Q198 660 198 625 Z M427 1006 L310 1006 L500 1333 L617 1256 L427 1006 Z " />
<glyph glyph-name="scaron" unicode="&#x161;" horiz-adv-x="848" d="M198 625 Q198 584 223.5 561.5 Q249 539 290.5 526.5 Q332 514 385 508.5 Q438 503 493 495.5 Q548 488 601 475.5 Q654 463 695.5 437 Q737 411 762.5 367.5 Q788 324 788 255 Q788 182 752 133 Q716 84 661 54.5 Q606 25 542 12.5 Q478 0 421 0 Q382 0 340 5 Q298 10 256.5 21.5 Q215 33 178 52.5 Q141 72 112.5 100.5 Q84 129 67.5 167.5 Q51 206 51 256 L185 256 Q185 218 208 194.5 Q231 171 266.5 157.5 Q302 144 343 139 Q384 134 420 134 Q459 134 498 139.5 Q537 145 568 159.5 Q599 174 618.5 198 Q638 222 638 258 Q638 295 613 314.5 Q588 334 546.5 344 Q505 354 452.5 359 Q400 364 345.5 371.5 Q291 379 238.5 392.5 Q186 406 144.5 434 Q103 462 78 508.5 Q53 555 53 627 Q53 700 88 747.5 Q123 795 177.5 823 Q232 851 298 862 Q364 873 426 873 Q484 873 546.5 859.5 Q609 846 661 815 Q713 784 746.5 733.5 Q780 683 780 608 L646 608 Q646 644 624.5 669 Q603 694 569.5 709.5 Q536 725 496.5 731.5 Q457 738 421 738 Q382 738 342 733.5 Q302 729 270 716.5 Q238 704 218 682 Q198 660 198 625 Z M583 1260 L659 1184 L423 948 L187 1184 L263 1260 L395 1128 Q406 1117 422.5 1117 Q439 1117 450 1128 L516 1194 Q541 1219 561.5 1239.5 Q582 1260 583 1260 Z " />
<glyph glyph-name="scedilla" unicode="&#x15f;" horiz-adv-x="848" d="M516 -16 Q536 -36 546 -62.5 Q556 -89 556 -116 Q556 -143 545.5 -169.5 Q535 -196 515 -216 Q495 -236 469.5 -246.5 Q444 -257 417 -257 Q390 -257 364.5 -246.5 Q339 -236 318 -216 Q298 -195 287.5 -169 Q277 -143 277 -116 L361 -116 Q361 -138 378 -155 Q395 -172 418 -172 Q441 -172 458 -155 Q475 -138 475 -115 Q475 -92 458 -75 L382 1 Q326 4 267 18.5 Q208 33 160 62.5 Q112 92 81.5 139.5 Q51 187 51 256 L185 256 Q185 218 208 194.5 Q231 171 266.5 157.5 Q302 144 343 139 Q384 134 420 134 Q459 134 498 139.5 Q537 145 568 159.5 Q599 174 618.5 198 Q638 222 638 258 Q638 295 613 314.5 Q588 334 546.5 344 Q505 354 452.5 359 Q400 364 345.5 371.5 Q291 379 238.5 392.5 Q186 406 144.5 434 Q103 462 78 508.5 Q53 555 53 627 Q53 700 88 747.5 Q123 795 177.5 823 Q232 851 298 862 Q364 873 426 873 Q484 873 546.5 859.5 Q609 846 661 815 Q713 784 746.5 733.5 Q780 683 780 608 L646 608 Q646 644 624.5 669 Q603 694 569.5 709.5 Q536 725 496.5 731.5 Q457 738 421 738 Q382 738 342 733.5 Q302 729 270 716.5 Q238 704 218 682 Q198 660 198 625 Q198 584 223.5 561.5 Q249 539 290.5 526.5 Q332 514 385 508.5 Q438 503 493 495.5 Q548 488 601 475.5 Q654 463 695.5 437 Q737 411 762.5 367.5 Q788 324 788 255 Q788 193 761.5 149 Q735 105 693 75 Q651 45 598.5 28.5 Q546 12 494 5 L516 -16 Z " />
<glyph glyph-name="scircumflex" unicode="&#x15d;" horiz-adv-x="848" d="M198 625 Q198 584 223.5 561.5 Q249 539 290.5 526.5 Q332 514 385 508.5 Q438 503 493 495.5 Q548 488 601 475.5 Q654 463 695.5 437 Q737 411 762.5 367.5 Q788 324 788 255 Q788 182 752 133 Q716 84 661 54.5 Q606 25 542 12.5 Q478 0 421 0 Q382 0 340 5 Q298 10 256.5 21.5 Q215 33 178 52.5 Q141 72 112.5 100.5 Q84 129 67.5 167.5 Q51 206 51 256 L185 256 Q185 218 208 194.5 Q231 171 266.5 157.5 Q302 144 343 139 Q384 134 420 134 Q459 134 498 139.5 Q537 145 568 159.5 Q599 174 618.5 198 Q638 222 638 258 Q638 295 613 314.5 Q588 334 546.5 344 Q505 354 452.5 359 Q400 364 345.5 371.5 Q291 379 238.5 392.5 Q186 406 144.5 434 Q103 462 78 508.5 Q53 555 53 627 Q53 700 88 747.5 Q123 795 177.5 823 Q232 851 298 862 Q364 873 426 873 Q484 873 546.5 859.5 Q609 846 661 815 Q713 784 746.5 733.5 Q780 683 780 608 L646 608 Q646 644 624.5 669 Q603 694 569.5 709.5 Q536 725 496.5 731.5 Q457 738 421 738 Q382 738 342 733.5 Q302 729 270 716.5 Q238 704 218 682 Q198 660 198 625 Z M582 948 L450 1080 Q439 1091 422.5 1091 Q406 1091 395 1080 L263 948 L187 1024 L423 1260 L659 1024 L583 948 L582 948 Z " />
<glyph glyph-name="scommaaccent" unicode="&#x219;" horiz-adv-x="848" d="M198 625 Q198 584 223.5 561.5 Q249 539 290.5 526.5 Q332 514 385 508.5 Q438 503 493 495.5 Q548 488 601 475.5 Q654 463 695.5 437 Q737 411 762.5 367.5 Q788 324 788 255 Q788 182 752 133 Q716 84 661 54.5 Q606 25 542 12.5 Q478 0 421 0 Q382 0 340 5 Q298 10 256.5 21.5 Q215 33 178 52.5 Q141 72 112.5 100.5 Q84 129 67.5 167.5 Q51 206 51 256 L185 256 Q185 218 208 194.5 Q231 171 266.5 157.5 Q302 144 343 139 Q384 134 420 134 Q459 134 498 139.5 Q537 145 568 159.5 Q599 174 618.5 198 Q638 222 638 258 Q638 295 613 314.5 Q588 334 546.5 344 Q505 354 452.5 359 Q400 364 345.5 371.5 Q291 379 238.5 392.5 Q186 406 144.5 434 Q103 462 78 508.5 Q53 555 53 627 Q53 700 88 747.5 Q123 795 177.5 823 Q232 851 298 862 Q364 873 426 873 Q484 873 546.5 859.5 Q609 846 661 815 Q713 784 746.5 733.5 Q780 683 780 608 L646 608 Q646 644 624.5 669 Q603 694 569.5 709.5 Q536 725 496.5 731.5 Q457 738 421 738 Q382 738 342 733.5 Q302 729 270 716.5 Q238 704 218 682 Q198 660 198 625 Z M358 -142 L489 -142 L467 -423 L358 -423 L358 -142 Z " />
<glyph glyph-name="t" unicode="t" horiz-adv-x="819" d="M30 748 L30 875 L789 875 L789 748 L521 748 Q505 748 493.5 737 Q482 726 482 709 L482 0 L337 0 L337 709 Q337 726 325.5 737 Q314 748 297 748 L30 748 Z " />
<glyph glyph-name="tbar" unicode="&#x167;" horiz-adv-x="819" d="M196 369 L196 495 L337 495 L337 709 Q337 726 325.5 737 Q314 748 297 748 L30 748 L30 875 L789 875 L789 748 L521 748 Q505 748 493.5 737 Q482 726 482 709 L482 495 L623 495 L623 369 L482 369 L482 0 L337 0 L337 369 L196 369 Z " />
<glyph glyph-name="tcaron" unicode="&#x165;" horiz-adv-x="819" d="M30 748 L30 875 L789 875 L789 748 L521 748 Q505 748 493.5 737 Q482 726 482 709 L482 0 L337 0 L337 709 Q337 726 325.5 737 Q314 748 297 748 L30 748 Z M569 1260 L645 1184 L409 948 L173 1184 L249 1260 L381 1128 Q392 1117 408.5 1117 Q425 1117 436 1128 L502 1194 Q527 1219 547.5 1239.5 Q568 1260 569 1260 Z " />
<glyph glyph-name="tcommaaccent" unicode="&#x163;" horiz-adv-x="819" d="M30 748 L30 875 L789 875 L789 748 L521 748 Q505 748 493.5 737 Q482 726 482 709 L482 0 L337 0 L337 709 Q337 726 325.5 737 Q314 748 297 748 L30 748 Z M344 -142 L475 -142 L453 -423 L344 -423 L344 -142 Z " />
<glyph glyph-name="u" unicode="u" horiz-adv-x="886" d="M645 353 L645 874 L796 874 L796 353 Q796 280 768.5 215.5 Q741 151 693 103 Q645 55 580.5 27.5 Q516 0 443 0 Q370 0 305.5 27.5 Q241 55 193 103 Q145 151 117.5 215.5 Q90 280 90 353 L90 874 L240 874 L240 353 Q240 311 256 274 Q272 237 299.5 209.5 Q327 182 364 166 Q401 150 443 150 Q485 150 522 166 Q559 182 586 209.5 Q613 237 629 274 Q645 311 645 353 Z " />
<glyph glyph-name="uacute" unicode="&#xfa;" horiz-adv-x="886" d="M645 353 L645 874 L796 874 L796 353 Q796 280 768.5 215.5 Q741 151 693 103 Q645 55 580.5 27.5 Q516 0 443 0 Q370 0 305.5 27.5 Q241 55 193 103 Q145 151 117.5 215.5 Q90 280 90 353 L90 874 L240 874 L240 353 Q240 311 256 274 Q272 237 299.5 209.5 Q327 182 364 166 Q401 150 443 150 Q485 150 522 166 Q559 182 586 209.5 Q613 237 629 274 Q645 311 645 353 Z M446 1006 L329 1006 L519 1333 L636 1256 L446 1006 Z " />
<glyph glyph-name="ubreve" unicode="&#x16d;" horiz-adv-x="886" d="M645 353 L645 874 L796 874 L796 353 Q796 280 768.5 215.5 Q741 151 693 103 Q645 55 580.5 27.5 Q516 0 443 0 Q370 0 305.5 27.5 Q241 55 193 103 Q145 151 117.5 215.5 Q90 280 90 353 L90 874 L240 874 L240 353 Q240 311 256 274 Q272 237 299.5 209.5 Q327 182 364 166 Q401 150 443 150 Q485 150 522 166 Q559 182 586 209.5 Q613 237 629 274 Q645 311 645 353 Z M508 1175 L624 1175 Q624 1137 610 1104.5 Q596 1072 571 1047 Q546 1022 513 1008 Q480 994 443 994 Q405 994 372 1008 Q339 1022 314.5 1047 Q290 1072 275.5 1104.5 Q261 1137 261 1175 L378 1175 Q378 1148 397.5 1128.5 Q417 1109 444 1109 Q470 1110 489 1129.5 Q508 1149 508 1175 Z " />
<glyph glyph-name="ucircumflex" unicode="&#xfb;" horiz-adv-x="886" d="M645 353 L645 874 L796 874 L796 353 Q796 280 768.5 215.5 Q741 151 693 103 Q645 55 580.5 27.5 Q516 0 443 0 Q370 0 305.5 27.5 Q241 55 193 103 Q145 151 117.5 215.5 Q90 280 90 353 L90 874 L240 874 L240 353 Q240 311 256 274 Q272 237 299.5 209.5 Q327 182 364 166 Q401 150 443 150 Q485 150 522 166 Q559 182 586 209.5 Q613 237 629 274 Q645 311 645 353 Z M602 948 L470 1080 Q459 1091 442.5 1091 Q426 1091 415 1080 L283 948 L207 1024 L443 1260 L679 1024 L603 948 L602 948 Z " />
<glyph glyph-name="udieresis" unicode="&#xfc;" horiz-adv-x="886" d="M645 353 L645 874 L796 874 L796 353 Q796 280 768.5 215.5 Q741 151 693 103 Q645 55 580.5 27.5 Q516 0 443 0 Q370 0 305.5 27.5 Q241 55 193 103 Q145 151 117.5 215.5 Q90 280 90 353 L90 874 L240 874 L240 353 Q240 311 256 274 Q272 237 299.5 209.5 Q327 182 364 166 Q401 150 443 150 Q485 150 522 166 Q559 182 586 209.5 Q613 237 629 274 Q645 311 645 353 Z M375 1082 Q375 1047 350.5 1023 Q326 999 291 999 Q257 999 232.5 1023 Q208 1047 208 1082 Q208 1117 232.5 1141 Q257 1165 291 1165 Q326 1165 350.5 1141 Q375 1117 375 1082 Z M677 1082 Q677 1047 652.5 1023 Q628 999 593 999 Q559 999 534.5 1023 Q510 1047 510 1082 Q510 1117 534.5 1141 Q559 1165 593 1165 Q628 1165 652.5 1141 Q677 1117 677 1082 Z " />
<glyph glyph-name="uhungarumlaut" unicode="&#x171;" horiz-adv-x="886" d="M645 353 L645 874 L796 874 L796 353 Q796 280 768.5 215.5 Q741 151 693 103 Q645 55 580.5 27.5 Q516 0 443 0 Q370 0 305.5 27.5 Q241 55 193 103 Q145 151 117.5 215.5 Q90 280 90 353 L90 874 L240 874 L240 353 Q240 311 256 274 Q272 237 299.5 209.5 Q327 182 364 166 Q401 150 443 150 Q485 150 522 166 Q559 182 586 209.5 Q613 237 629 274 Q645 311 645 353 Z M228 1262 L358 1347 L557 1006 L423 1006 L228 1262 Z " />
<glyph glyph-name="ugrave" unicode="&#xf9;" horiz-adv-x="886" d="M645 353 L645 874 L796 874 L796 353 Q796 280 768.5 215.5 Q741 151 693 103 Q645 55 580.5 27.5 Q516 0 443 0 Q370 0 305.5 27.5 Q241 55 193 103 Q145 151 117.5 215.5 Q90 280 90 353 L90 874 L240 874 L240 353 Q240 311 256 274 Q272 237 299.5 209.5 Q327 182 364 166 Q401 150 443 150 Q485 150 522 166 Q559 182 586 209.5 Q613 237 629 274 Q645 311 645 353 Z M605 1006 L488 1006 L678 1333 L795 1256 L605 1006 Z M338 1006 L220 1006 L411 1333 L528 1256 L338 1006 Z " />
<glyph glyph-name="umacron" unicode="&#x16b;" horiz-adv-x="886" d="M645 353 L645 874 L796 874 L796 353 Q796 280 768.5 215.5 Q741 151 693 103 Q645 55 580.5 27.5 Q516 0 443 0 Q370 0 305.5 27.5 Q241 55 193 103 Q145 151 117.5 215.5 Q90 280 90 353 L90 874 L240 874 L240 353 Q240 311 256 274 Q272 237 299.5 209.5 Q327 182 364 166 Q401 150 443 150 Q485 150 522 166 Q559 182 586 209.5 Q613 237 629 274 Q645 311 645 353 Z M229 1036 L229 1162 L656 1162 L656 1036 L229 1036 Z " />
<glyph glyph-name="uogonek" unicode="&#x173;" horiz-adv-x="886" d="M575 -198 Q543 -230 507.5 -246.5 Q472 -263 435 -263 Q397 -263 363.5 -248.5 Q330 -234 305 -209 Q280 -184 265.5 -150 Q251 -116 251 -78 Q251 -11 293 37 Q248 57 210.5 89 Q173 121 146.5 162 Q120 203 105 251.5 Q90 300 90 353 L90 874 L240 874 L240 353 Q240 311 256 274 Q272 237 299.5 209.5 Q327 182 364 166 Q401 150 443 150 Q485 150 522 166 Q559 182 586 209.5 Q613 237 629 274 Q645 311 645 353 L645 874 L796 874 L796 353 Q796 280 768 215.5 Q740 151 692 103 Q644 55 579.5 27.5 Q515 0 442 0 Q406 0 380.5 -22.5 Q355 -45 355 -77 Q355 -109 377.5 -131 Q400 -153 432 -153 Q447 -153 463 -145.5 Q479 -138 493 -124 L575 -198 Z " />
<glyph glyph-name="uring" unicode="&#x16f;" horiz-adv-x="886" d="M645 353 L645 874 L796 874 L796 353 Q796 280 768.5 215.5 Q741 151 693 103 Q645 55 580.5 27.5 Q516 0 443 0 Q370 0 305.5 27.5 Q241 55 193 103 Q145 151 117.5 215.5 Q90 280 90 353 L90 874 L240 874 L240 353 Q240 311 256 274 Q272 237 299.5 209.5 Q327 182 364 166 Q401 150 443 150 Q485 150 522 166 Q559 182 586 209.5 Q613 237 629 274 Q645 311 645 353 Z M443 1260 Q473 1260 499 1248.5 Q525 1237 544.5 1217.5 Q564 1198 575.5 1171.5 Q587 1145 587 1115 Q587 1085 575.5 1058.5 Q564 1032 544.5 1012.5 Q525 993 499 982 Q473 971 443 971 Q413 971 386.5 982 Q360 993 340.5 1012.5 Q321 1032 309.5 1058.5 Q298 1085 298 1115 Q298 1145 309.5 1171.5 Q321 1198 340.5 1217.5 Q360 1237 386.5 1248.5 Q413 1260 443 1260 Z M443 1056 Q467 1056 484 1073.5 Q501 1091 501 1115 Q501 1139 484 1156.5 Q467 1174 443 1174 Q419 1174 401.5 1156.5 Q384 1139 384 1115 Q384 1091 401.5 1073.5 Q419 1056 443 1056 Z " />
<glyph glyph-name="utilde" unicode="&#x169;" horiz-adv-x="886" d="M645 353 L645 874 L796 874 L796 353 Q796 280 768.5 215.5 Q741 151 693 103 Q645 55 580.5 27.5 Q516 0 443 0 Q370 0 305.5 27.5 Q241 55 193 103 Q145 151 117.5 215.5 Q90 280 90 353 L90 874 L240 874 L240 353 Q240 311 256 274 Q272 237 299.5 209.5 Q327 182 364 166 Q401 150 443 150 Q485 150 522 166 Q559 182 586 209.5 Q613 237 629 274 Q645 311 645 353 Z M224 1154 Q260 1192 296.5 1196 Q333 1200 369.5 1187.5 Q406 1175 442.5 1153.5 Q479 1132 515.5 1119.5 Q552 1107 588 1111 Q624 1115 661 1153 L661 1024 Q624 986 588 982 Q552 978 515.5 990.5 Q479 1003 442.5 1024.5 Q406 1046 369.5 1058.5 Q333 1071 296.5 1067 Q260 1063 224 1025 L224 1154 Z " />
<glyph glyph-name="w" unicode="w" horiz-adv-x="1379" d="M981 234 L1197 875 L1349 875 L1058 0 L905 0 L690 647 L474 0 L322 0 L30 875 L183 875 L398 234 L613 875 L766 875 L981 234 Z " />
<glyph glyph-name="wacute" unicode="&#x1e83;" horiz-adv-x="1379" d="M981 234 L1197 875 L1349 875 L1058 0 L905 0 L690 647 L474 0 L322 0 L30 875 L183 875 L398 234 L613 875 L766 875 L981 234 Z M653 1006 L535 1006 L726 1333 L843 1256 L653 1006 Z " />
<glyph glyph-name="wcircumflex" unicode="&#x175;" horiz-adv-x="1379" d="M981 234 L1197 875 L1349 875 L1058 0 L905 0 L690 647 L474 0 L322 0 L30 875 L183 875 L398 234 L613 875 L766 875 L981 234 Z M848 948 L716 1080 Q705 1091 688.5 1091 Q672 1091 661 1080 L529 948 L453 1024 L689 1260 L925 1024 L849 948 L848 948 Z " />
<glyph glyph-name="wdieresis" unicode="&#x1e85;" horiz-adv-x="1379" d="M981 234 L1197 875 L1349 875 L1058 0 L905 0 L690 647 L474 0 L322 0 L30 875 L183 875 L398 234 L613 875 L766 875 L981 234 Z M621 1082 Q621 1047 597 1023 Q573 999 538 999 Q503 999 479 1023 Q455 1047 455 1082 Q455 1117 479 1141 Q503 1165 538 1165 Q573 1165 597 1141 Q621 1117 621 1082 Z M923 1082 Q923 1047 899 1023 Q875 999 840 999 Q805 999 781 1023 Q757 1047 757 1082 Q757 1117 781 1141 Q805 1165 840 1165 Q875 1165 899 1141 Q923 1117 923 1082 Z " />
<glyph glyph-name="wgrave" unicode="&#x1e81;" horiz-adv-x="1379" d="M981 234 L1197 875 L1349 875 L1058 0 L905 0 L690 647 L474 0 L322 0 L30 875 L183 875 L398 234 L613 875 L766 875 L981 234 Z M524 1262 L654 1347 L853 1006 L719 1006 L524 1262 Z " />
<glyph glyph-name="y" unicode="y" horiz-adv-x="996" d="M425 410 Q425 426 415 436 L30 874 L205 874 L498 542 L790 874 L966 874 L581 436 Q571 426 571 410 L571 0 L425 0 L425 410 Z " />
<glyph glyph-name="yacute" unicode="&#xfd;" horiz-adv-x="996" d="M425 410 Q425 426 415 436 L30 874 L205 874 L498 542 L790 874 L966 874 L581 436 Q571 426 571 410 L571 0 L425 0 L425 410 Z M546 1006 L429 1006 L619 1333 L736 1256 L546 1006 Z " />
<glyph glyph-name="ycircumflex" unicode="&#x177;" horiz-adv-x="996" d="M425 410 Q425 426 415 436 L30 874 L205 874 L498 542 L790 874 L966 874 L581 436 Q571 426 571 410 L571 0 L425 0 L425 410 Z M657 948 L525 1080 Q514 1091 497.5 1091 Q481 1091 470 1080 L338 948 L262 1024 L498 1260 L734 1024 L658 948 L657 948 Z " />
<glyph glyph-name="ydieresis" unicode="&#xff;" horiz-adv-x="996" d="M425 410 Q425 426 415 436 L30 874 L205 874 L498 542 L790 874 L966 874 L581 436 Q571 426 571 410 L571 0 L425 0 L425 410 Z M732 1082 Q732 1047 707.5 1023 Q683 999 648 999 Q614 999 589.5 1023 Q565 1047 565 1082 Q565 1117 589.5 1141 Q614 1165 648 1165 Q683 1165 707.5 1141 Q732 1117 732 1082 Z M430 1082 Q430 1047 405.5 1023 Q381 999 346 999 Q312 999 287.5 1023 Q263 1047 263 1082 Q263 1117 287.5 1141 Q312 1165 346 1165 Q381 1165 405.5 1141 Q430 1117 430 1082 Z " />
<glyph glyph-name="ygrave" unicode="&#x1ef3;" horiz-adv-x="996" d="M425 410 Q425 426 415 436 L30 874 L205 874 L498 542 L790 874 L966 874 L581 436 Q571 426 571 410 L571 0 L425 0 L425 410 Z M243 1262 L373 1347 L572 1006 L438 1006 L243 1262 Z " />
<glyph glyph-name="z" unicode="z" horiz-adv-x="879" d="M819 875 L819 750 L255 124 L799 124 L799 0 L52 0 L52 124 L614 750 L52 750 L52 875 L819 875 Z " />
<glyph glyph-name="zacute" unicode="&#x17a;" horiz-adv-x="879" d="M819 875 L819 750 L255 124 L799 124 L799 0 L52 0 L52 124 L614 750 L52 750 L52 875 L819 875 Z M473 1006 L355 1006 L546 1333 L663 1256 L473 1006 Z " />
<glyph glyph-name="zcaron" unicode="&#x17e;" horiz-adv-x="879" d="M819 875 L819 750 L255 124 L799 124 L799 0 L52 0 L52 124 L614 750 L52 750 L52 875 L819 875 Z M599 1260 L675 1184 L439 948 L203 1184 L279 1260 L411 1128 Q422 1117 438.5 1117 Q455 1117 466 1128 L532 1194 Q557 1219 577.5 1239.5 Q598 1260 599 1260 Z " />
<glyph glyph-name="zdotaccent" unicode="&#x17c;" horiz-adv-x="879" d="M819 875 L819 750 L255 124 L799 124 L799 0 L52 0 L52 124 L614 750 L52 750 L52 875 L819 875 Z M522 1052 Q522 1017 498 993 Q474 969 439 969 Q404 969 380 993 Q356 1017 356 1052 Q356 1087 380 1111 Q404 1135 439 1135 Q474 1135 498 1111 Q522 1087 522 1052 Z " />
<glyph glyph-name="yen" unicode="&#xa5;" horiz-adv-x="996" d="M243 135 L243 260 L425 260 L425 359 L425 375 L243 375 L243 500 L361 500 L30 874 L205 874 L498 542 L790 874 L966 874 L633 500 L751 500 L751 375 L571 375 L571 260 L751 260 L751 135 L571 135 L571 0 L425 0 L425 135 L243 135 Z " />
<glyph glyph-name="colon" unicode="&#x3a;" horiz-adv-x="335" d="M167 359 Q133 359 109 383 Q85 407 85 442 Q85 476 109 500 Q133 524 167 524 Q202 524 226 500 Q250 476 250 442 Q250 407 226 383 Q202 359 167 359 Z M167 -17 Q133 -17 109 7 Q85 31 85 66 Q85 100 109 124 Q133 148 167 148 Q202 148 226 124 Q250 100 250 66 Q250 31 226 7 Q202 -17 167 -17 Z " />
<glyph glyph-name="semicolon" unicode="&#x3b;" horiz-adv-x="295" d="M70 98 L201 98 L179 -183 L70 -183 L70 98 Z M127 359 Q93 359 69 383 Q45 407 45 442 Q45 476 69 500 Q93 524 127 524 Q162 524 186 500 Q210 476 210 442 Q210 407 186 383 Q162 359 127 359 Z " />
<glyph glyph-name="Eng" unicode="&#x14a;" horiz-adv-x="1019" d="M773 9 L246 656 L246 0 L95 0 L95 875 L239 875 L773 226 L773 494 L774 494 L774 875 L924 875 L924 -11 Q924 -84 896.5 -148.5 Q869 -213 821 -261 Q773 -309 708.5 -336.5 Q644 -364 571 -364 Q496 -364 432.5 -336.5 Q369 -309 321 -261 L423 -158 Q451 -186 488 -200 Q525 -214 568 -214 Q610 -214 647.5 -197.5 Q685 -181 713 -153.5 Q741 -126 757 -88.5 Q773 -51 773 -9 L773 9 Z " />
<glyph glyph-name="eng" unicode="&#x14b;" horiz-adv-x="1019" d="M773 9 L246 656 L246 0 L95 0 L95 875 L239 875 L773 226 L773 494 L774 494 L774 875 L924 875 L924 -11 Q924 -84 896.5 -148.5 Q869 -213 821 -261 Q773 -309 708.5 -336.5 Q644 -364 571 -364 Q496 -364 432.5 -336.5 Q369 -309 321 -261 L423 -158 Q451 -186 488 -200 Q525 -214 568 -214 Q610 -214 647.5 -197.5 Q685 -181 713 -153.5 Q741 -126 757 -88.5 Q773 -51 773 -9 L773 9 Z " />
<glyph glyph-name="x" unicode="x" horiz-adv-x="941" d="M740 874 L910 874 L581 462 Q573 451 573 436.5 Q573 422 581 411 L911 0 L740 0 L470 326 L200 0 L30 0 L359 411 Q368 422 368 436.5 Q368 451 359 462 L31 874 L210 874 L470 555 L740 874 Z " />
<glyph glyph-name="g" unicode="g" horiz-adv-x="1035" d="M496 475 L954 475 L954 0 L825 0 L825 166 Q801 128 765 97 Q729 66 686.5 44.5 Q644 23 595.5 11.5 Q547 0 497 0 Q407 0 327 34 Q247 68 188 127.5 Q129 187 94.5 266.5 Q60 346 60 437 Q60 527 94.5 607 Q129 687 188 746 Q247 805 327 839.5 Q407 874 497 874 Q588 874 667 840 Q746 806 806 746 L699 639 Q660 677 608.5 700 Q557 723 497 723 Q438 723 386 700.5 Q334 678 295 639 Q256 600 233.5 548 Q211 496 211 437 Q211 377 232 322 Q253 267 293 225 Q333 183 391.5 159 Q450 135 524 138 Q578 139 624.5 157 Q671 175 707 203.5 Q743 232 765.5 267.5 Q788 303 794 340 L496 340 L496 475 Z " />
<glyph glyph-name="gbreve" unicode="&#x11f;" horiz-adv-x="1035" d="M496 475 L954 475 L954 0 L825 0 L825 166 Q801 128 765 97 Q729 66 686.5 44.5 Q644 23 595.5 11.5 Q547 0 497 0 Q407 0 327 34 Q247 68 188 127.5 Q129 187 94.5 266.5 Q60 346 60 437 Q60 527 94.5 607 Q129 687 188 746 Q247 805 327 839.5 Q407 874 497 874 Q588 874 667 840 Q746 806 806 746 L699 639 Q660 677 608.5 700 Q557 723 497 723 Q438 723 386 700.5 Q334 678 295 639 Q256 600 233.5 548 Q211 496 211 437 Q211 377 232 322 Q253 267 293 225 Q333 183 391.5 159 Q450 135 524 138 Q578 139 624.5 157 Q671 175 707 203.5 Q743 232 765.5 267.5 Q788 303 794 340 L496 340 L496 475 Z M517 1109 Q544 1110 563 1129 Q582 1148 582 1175 L699 1175 Q699 1137 684.5 1104.5 Q670 1072 645.5 1047 Q621 1022 587.5 1008 Q554 994 517 994 Q479 994 446.5 1008 Q414 1022 389 1047 Q364 1072 350 1104.5 Q336 1137 336 1175 L452 1175 Q452 1148 471.5 1129 Q491 1110 517 1109 Z " />
<glyph glyph-name="gcircumflex" unicode="&#x11d;" horiz-adv-x="1035" d="M496 475 L954 475 L954 0 L825 0 L825 166 Q801 128 765 97 Q729 66 686.5 44.5 Q644 23 595.5 11.5 Q547 0 497 0 Q407 0 327 34 Q247 68 188 127.5 Q129 187 94.5 266.5 Q60 346 60 437 Q60 527 94.5 607 Q129 687 188 746 Q247 805 327 839.5 Q407 874 497 874 Q588 874 667 840 Q746 806 806 746 L699 639 Q660 677 608.5 700 Q557 723 497 723 Q438 723 386 700.5 Q334 678 295 639 Q256 600 233.5 548 Q211 496 211 437 Q211 377 232 322 Q253 267 293 225 Q333 183 391.5 159 Q450 135 524 138 Q578 139 624.5 157 Q671 175 707 203.5 Q743 232 765.5 267.5 Q788 303 794 340 L496 340 L496 475 Z M676 948 L558 1066 Q551 1073 542.5 1079 Q534 1085 525 1088 Q516 1091 507 1090 Q498 1089 489 1080 L357 948 L281 1024 L517 1260 L753 1024 L677 948 L676 948 Z " />
<glyph glyph-name="gcommaaccent" unicode="&#x123;" horiz-adv-x="1035" d="M496 475 L954 475 L954 0 L825 0 L825 166 Q801 128 765 97 Q729 66 686.5 44.5 Q644 23 595.5 11.5 Q547 0 497 0 Q407 0 327 34 Q247 68 188 127.5 Q129 187 94.5 266.5 Q60 346 60 437 Q60 527 94.5 607 Q129 687 188 746 Q247 805 327 839.5 Q407 874 497 874 Q588 874 667 840 Q746 806 806 746 L699 639 Q660 677 608.5 700 Q557 723 497 723 Q438 723 386 700.5 Q334 678 295 639 Q256 600 233.5 548 Q211 496 211 437 Q211 377 232 322 Q253 267 293 225 Q333 183 391.5 159 Q450 135 524 138 Q578 139 624.5 157 Q671 175 707 203.5 Q743 232 765.5 267.5 Q788 303 794 340 L496 340 L496 475 Z M452 -142 L583 -142 L561 -423 L452 -423 L452 -142 Z " />
<glyph glyph-name="gdotaccent" unicode="&#x121;" horiz-adv-x="1035" d="M496 475 L954 475 L954 0 L825 0 L825 166 Q801 128 765 97 Q729 66 686.5 44.5 Q644 23 595.5 11.5 Q547 0 497 0 Q407 0 327 34 Q247 68 188 127.5 Q129 187 94.5 266.5 Q60 346 60 437 Q60 527 94.5 607 Q129 687 188 746 Q247 805 327 839.5 Q407 874 497 874 Q588 874 667 840 Q746 806 806 746 L699 639 Q660 677 608.5 700 Q557 723 497 723 Q438 723 386 700.5 Q334 678 295 639 Q256 600 233.5 548 Q211 496 211 437 Q211 377 232 322 Q253 267 293 225 Q333 183 391.5 159 Q450 135 524 138 Q578 139 624.5 157 Q671 175 707 203.5 Q743 232 765.5 267.5 Q788 303 794 340 L496 340 L496 475 Z M601 1052 Q601 1017 576.5 993 Q552 969 517 969 Q483 969 458.5 993 Q434 1017 434 1052 Q434 1087 458.5 1111 Q483 1135 517 1135 Q552 1135 576.5 1111 Q601 1087 601 1052 Z " />
<glyph glyph-name="cent" unicode="&#xa2;" horiz-adv-x="847" d="M400 -109 L400 11 Q325 26 261 64.5 Q197 103 150 160 Q103 217 76.5 288 Q50 359 50 438 Q50 517 76.5 588 Q103 659 150 715.5 Q197 772 261 810.5 Q325 849 400 864 L400 984 L546 984 L546 869 Q616 860 681 829 Q746 798 797 747 L690 641 Q650 681 598 703 Q546 725 489 725 Q430 725 377.5 702.5 Q325 680 285.5 641 Q246 602 223 549.5 Q200 497 200 438 Q200 379 222.5 326.5 Q245 274 284 235 Q323 196 375 173 Q427 150 486 150 Q543 150 596 171.5 Q649 193 690 234 L797 128 Q746 77 681 45.5 Q616 14 546 5 L546 -109 L400 -109 Z " />
<glyph glyph-name="brokenbar" unicode="&#xa6;" horiz-adv-x="406" d="M130 -109 L130 338 L276 338 L276 -109 L130 -109 Z M276 543 L130 543 L130 984 L276 984 L276 543 Z " />
<glyph glyph-name="dollar" unicode="&#x24;" horiz-adv-x="848" d="M187 622 Q187 580 213 556 Q239 532 281 518.5 Q323 505 377 498 Q431 491 487.5 482.5 Q544 474 598 461 Q652 448 694 422 Q736 396 762 354 Q788 312 788 246 Q788 184 762 141 Q736 98 694 69.5 Q652 41 600 26 Q548 11 496 5 L496 -109 L350 -109 L350 4 Q297 9 243.5 23 Q190 37 147 65.5 Q104 94 77.5 138 Q51 182 51 247 L180 247 Q180 209 204 185.5 Q228 162 264 148.5 Q300 135 342 130 Q384 125 420 125 Q459 125 500.5 131 Q542 137 575.5 151.5 Q609 166 631 190.5 Q653 215 653 251 Q653 290 627 312 Q601 334 559 345.5 Q517 357 463 363.5 Q409 370 352.5 377.5 Q296 385 242 399 Q188 413 146 440.5 Q104 468 78 512.5 Q52 557 52 627 Q52 689 79 732.5 Q106 776 148.5 804.5 Q191 833 244 848 Q297 863 350 868 L350 984 L496 984 L496 867 Q548 861 598.5 844.5 Q649 828 689.5 798.5 Q730 769 754.5 724.5 Q779 680 779 617 L650 617 Q650 654 627.5 679 Q605 704 571 719.5 Q537 735 496.5 741.5 Q456 748 420 748 Q381 748 339.5 742 Q298 736 264 721 Q230 706 208.5 682 Q187 658 187 622 Z " />
<glyph glyph-name="braceright" unicode="&#x7d;" horiz-adv-x="599" d="M1 982 L1 1105 L53 1105 Q116 1105 171 1081 Q226 1057 267.5 1016 Q309 975 333 920 Q357 865 357 802 L357 681 Q357 645 371.5 614 Q386 583 410.5 560.5 Q435 538 467 525 Q499 512 535 512 L549 512 L549 368 L535 368 Q499 368 467 355 Q435 342 410.5 319.5 Q386 297 371.5 265.5 Q357 234 357 198 L357 46 Q357 -10 335.5 -59.5 Q314 -109 276.5 -146 Q239 -183 189 -204.5 Q139 -226 83 -226 L1 -226 L1 -102 L49 -102 Q85 -102 117 -89 Q149 -76 173.5 -53.5 Q198 -31 212.5 0.5 Q227 32 227 68 L227 238 Q227 303 259.5 356 Q292 409 345 440 Q292 471 260 524 Q228 577 228 642 L228 812 Q228 848 213.5 879.5 Q199 911 174.5 933.5 Q150 956 118 969 Q86 982 50 982 L1 982 Z " />
<glyph glyph-name="exclamdown" unicode="&#xa1;" horiz-adv-x="282" d="M141 1035 Q175 1035 199 1011 Q223 987 223 952 Q223 918 199 894 Q175 870 141 870 Q106 870 82 894 Q58 918 58 952 Q58 987 82 1011 Q106 1035 141 1035 Z M68 736 L213 736 L213 -17 L68 -17 L68 736 Z " />
<glyph glyph-name="questiondown" unicode="&#xbf;" horiz-adv-x="724" d="M15 246 Q15 304 30.5 346.5 Q46 389 73 423 Q100 457 136.5 485.5 Q173 514 215 544 Q239 561 253 575 Q267 589 274.5 609 Q282 629 284 658.5 Q286 688 286 736 L419 736 Q419 686 417.5 647 Q416 608 402 572 Q388 536 357 499.5 Q326 463 267 417 Q249 403 230.5 387 Q212 371 197 351.5 Q182 332 173 308 Q164 284 164 255 Q164 214 180.5 187.5 Q197 161 224 146 Q251 131 285 125.5 Q319 120 354 120 Q390 120 424.5 130.5 Q459 141 485.5 161 Q512 181 528 211.5 Q544 242 544 282 L694 282 Q694 210 666 154.5 Q638 99 591 61 Q544 23 482.5 3 Q421 -17 354 -17 Q289 -17 228 -4 Q167 9 119.5 39.5 Q72 70 43.5 120.5 Q15 171 15 246 Z M347 1035 Q381 1035 405 1011 Q429 987 429 952 Q429 918 405 894 Q381 870 347 870 Q312 870 288 894 Q264 918 264 952 Q264 987 288 1011 Q312 1035 347 1035 Z " />
<glyph glyph-name="guillemotright" unicode="&#xbb;" horiz-adv-x="939" d="M453 705 L538 805 L889 510 L889 420 L538 125 L453 225 Q522 283 568.5 322 Q615 361 647 387.5 Q679 414 700 432 Q721 450 739 465 L453 705 Z M50 705 L135 805 L485 510 L485 420 L135 125 L50 225 L335 465 L50 705 Z " />
<glyph glyph-name="ellipsis" unicode="&#x2026;" horiz-adv-x="1005" d="M167 -17 Q133 -17 109 7 Q85 31 85 66 Q85 100 109 124 Q133 148 167 148 Q202 148 226 124 Q250 100 250 66 Q250 31 226 7 Q202 -17 167 -17 Z M502 -17 Q468 -17 444 7 Q420 31 420 66 Q420 100 444 124 Q468 148 502 148 Q537 148 561 124 Q585 100 585 66 Q585 31 561 7 Q537 -17 502 -17 Z M837 -17 Q803 -17 779 7 Q755 31 755 66 Q755 100 779 124 Q803 148 837 148 Q872 148 896 124 Q920 100 920 66 Q920 31 896 7 Q872 -17 837 -17 Z " />
<glyph glyph-name="greater" unicode="&#x3e;" horiz-adv-x="402" d="M112 166 L20 259 L198 437 L20 624 L112 716 L382 436 L112 166 Z " />
<glyph glyph-name="greaterequal" unicode="&#x2265;" horiz-adv-x="518" d="M20 136 L20 269 L108 295 L269 438 L91 624 L183 716 L454 436 L253 269 L498 269 L498 136 L20 136 Z " />
<glyph glyph-name="approxequal" unicode="&#x2248;" horiz-adv-x="418" d="M20 540 Q51 573 83 576.5 Q115 580 146 569 Q177 558 209 539.5 Q241 521 272 510 Q303 499 335 502.5 Q367 506 398 539 L398 413 Q366 380 335 376.5 Q304 373 272 384 Q240 395 208.5 413.5 Q177 432 146 443 Q115 454 83 450.5 Q51 447 20 414 L20 540 Z M20 480 Q51 513 83 516.5 Q115 520 146 509 Q177 498 209 479.5 Q241 461 272 450 Q303 439 335 442.5 Q367 446 398 479 L398 353 Q366 320 335 316.5 Q304 313 272 324 Q240 335 208.5 353.5 Q177 372 146 383 Q115 394 83 390.5 Q51 387 20 354 L20 480 Z " />
<glyph glyph-name="dagger" unicode="&#x2020;" horiz-adv-x="454" d="M-2 371 L-2 506 L154 506 L154 984 L300 984 L300 506 L456 506 L456 371 L300 371 L300 -109 L154 -109 L154 371 L-2 371 Z " />
<glyph glyph-name="daggerdbl" unicode="&#x2021;" horiz-adv-x="454" d="M-2 226 L-2 361 L154 361 L154 516 L-2 516 L-2 651 L154 651 L154 984 L300 984 L300 651 L456 651 L456 516 L300 516 L300 361 L456 361 L456 226 L300 226 L300 -109 L154 -109 L154 226 L-2 226 Z " />
<glyph glyph-name="section" unicode="&#xa7;" horiz-adv-x="848" d="M187 877 Q187 834 213 810 Q239 786 281 772.5 Q323 759 377 752.5 Q431 746 487.5 738 Q544 730 598 717 Q652 704 694 677.5 Q736 651 762 607 Q788 563 788 493 Q788 458 776 428.5 Q764 399 744 375.5 Q724 352 696.5 333.5 Q669 315 638 302 Q669 290 696.5 273.5 Q724 257 744.5 233.5 Q765 210 776.5 179 Q788 148 788 106 Q788 57 771 20 Q754 -17 726 -44.5 Q698 -72 660.5 -90 Q623 -108 582.5 -119.5 Q542 -131 500 -135.5 Q458 -140 420 -140 Q381 -140 339 -135.5 Q297 -131 256 -120.5 Q215 -110 177.5 -92 Q140 -74 112 -46.5 Q84 -19 67.5 19 Q51 57 51 107 L180 107 Q180 69 204 45.5 Q228 22 264 8.5 Q300 -5 342 -10 Q384 -15 420 -15 Q459 -15 500.5 -9 Q542 -3 575.5 11.5 Q609 26 631 50.5 Q653 75 653 111 Q653 150 626 171.5 Q599 193 555 205 Q511 217 455.5 224 Q400 231 342 240 Q284 249 229.5 264 Q175 279 133.5 308 Q92 337 69 383.5 Q46 430 51 502 L52 502 Q56 570 93 612.5 Q130 655 184 679 Q155 692 131 710 Q107 728 89.5 752 Q72 776 62 808 Q52 840 52 882 Q52 931 69 968 Q86 1005 114 1032.5 Q142 1060 179.5 1078 Q217 1096 257.5 1107.5 Q298 1119 340 1123.5 Q382 1128 420 1128 Q478 1128 541.5 1116 Q605 1104 658 1074.5 Q711 1045 745 996 Q779 947 779 872 L650 872 Q650 909 627.5 934 Q605 959 571 974.5 Q537 990 496.5 996.5 Q456 1003 420 1003 Q381 1003 339.5 997 Q298 991 264 976 Q230 961 208.5 937 Q187 913 187 877 Z M420 625 Q381 625 338.5 618.5 Q296 612 261 596 Q226 580 203.5 553 Q181 526 183 484 Q184 443 209 418.5 Q234 394 269.5 380.5 Q305 367 346 362.5 Q387 358 420 358 Q455 358 494.5 363 Q534 368 567.5 381.5 Q601 395 624.5 420 Q648 445 650 484 Q653 524 631.5 551 Q610 578 575.5 594.5 Q541 611 499 618 Q457 625 420 625 Z " />
<glyph glyph-name="NULL" d="" />
<glyph glyph-name="nonmarkingreturn" unicode="&#xd;" horiz-adv-x="454" d="" />
<glyph glyph-name="A" unicode="A" horiz-adv-x="998" d="M968 0 L816 0 L707 241 Q702 254 690 261.5 Q678 269 664 269 L333 269 Q319 269 307 261.5 Q295 254 290 241 L182 0 L30 0 L423 875 L575 875 L968 0 Z M364 404 L634 404 L499 706 L364 404 Z " />
</font>
</svg>
