<?xml version="1.0" encoding="UTF-8"?>
<svg xmlns="http://www.w3.org/2000/svg" xmlns:xlink="http://www.w3.org/1999/xlink" version="1.2" >
<font id="Lorano Medium Oblique">
<font-face  font-family="Lorano" units-per-em="1000" ascent="875" descent="-179" font-style="italic" font-weight="500" font-stretch="normal" cap-height="875" x-height="875" underline-position="0" underline-thickness="0" />
<missing-glyph  horiz-adv-x="454" d="" />
<glyph glyph-name="B" unicode="B" horiz-adv-x="837" d="M860.582 640 Q852.478 574 813.471 521 Q774.463 468 717.657 437 Q766.973 407 792.904 353.5 Q818.835 300 810.732 234 Q804.838 186 781.058 143 Q757.278 100 721.411 68.5 Q685.543 37 640.772 18.5 Q596 0 547 0 L95 0 L202.436 875 L654.436 875 Q703.436 875 743.665 856.5 Q783.893 838 811.964 806 Q840.035 774 853.317 731.5 Q866.599 689 860.582 640 Z M666.959 244 Q670.152 270 663.037 293.5 Q655.923 317 640.571 334.5 Q625.22 352 603.448 362 Q581.676 372 555.676 372 L315.553 371 Q304.553 371 296.694 364 Q288.834 357 287.483 346 L262.558 143 Q261.208 132 267.348 125 Q273.489 118 284.489 118 L524.489 118 Q550.489 118 574.716 128 Q598.944 138 618.532 155 Q638.119 172 650.943 195 Q663.767 218 666.959 244 Z M571.761 503 Q597.761 503 621.988 513 Q646.216 523 665.365 540.5 Q684.514 558 697.338 581 Q710.162 604 713.354 630 Q716.669 657 709.494 680 Q702.318 703 687.405 720 Q672.492 737 650.72 747 Q628.948 757 602.948 757 L362.948 757 Q351.948 757 344.027 749.5 Q336.106 742 334.756 731 L309.953 529 Q308.602 518 314.743 511 Q320.883 504 331.883 504 L571.761 503 Z " />
<glyph glyph-name="C" unicode="C" horiz-adv-x="847" d="M578.019 725 Q519.019 725 463.756 702.5 Q408.494 680 364.205 641 Q319.916 602 290.47 549.5 Q261.024 497 253.78 438 Q246.535 379 262.589 326.5 Q278.643 274 312.854 235 Q347.066 196 396.242 173 Q445.418 150 504.418 150 Q561.418 150 617.058 171.5 Q672.697 193 718.732 234 L812.716 128 Q743.104 66 658.552 33 Q574 0 487 0 Q397 0 321.236 34.5 Q245.472 69 193.778 128.5 Q142.083 188 117.406 268 Q92.729 348 103.78 438 Q114.83 528 159.153 608 Q203.476 688 269.72 747 Q335.964 806 420.2 840.5 Q504.436 875 594.436 875 Q681.436 875 757.885 842 Q834.333 809 888.72 747 L768.705 641 Q733.616 681 684.318 703 Q635.019 725 578.019 725 Z " />
<glyph glyph-name="D" unicode="D" horiz-adv-x="917" d="M522.436 875 Q612.436 875 688.2 840.5 Q763.964 806 815.659 746.5 Q867.353 687 892.03 607 Q916.707 527 905.657 437 Q894.606 347 850.283 267 Q805.961 187 739.716 128 Q673.472 69 589.236 34.5 Q505 0 415 0 L95 0 L202.436 875 L522.436 875 Z M755.411 435 Q762.287 491 747.233 543.5 Q732.18 596 699.652 636.5 Q667.125 677 619.072 701 Q571.019 725 513.019 725 L359.019 725 Q348.019 725 340.098 717.5 Q332.177 710 330.826 699 L266.487 175 Q265.137 164 271.277 157 Q277.418 150 288.418 150 L442.418 150 Q499.418 150 552.803 173.5 Q606.189 197 649.1 237 Q692.011 277 720.273 328 Q748.535 379 755.411 435 Z " />
<glyph glyph-name="E" unicode="E" horiz-adv-x="808" d="M310.567 534 Q309.094 522 316.111 514 Q323.129 506 334.129 506 L805.129 506 L788.553 371 L317.553 371 Q306.553 371 297.571 363 Q288.589 355 287.238 344 L264.891 162 Q263.54 151 270.558 143 Q277.576 135 288.576 135 L759.576 135 L743 0 L95 0 L202.436 875 L850.314 874 L833.615 738 L362.615 738 Q351.615 738 342.571 729.5 Q333.528 721 332.177 710 L310.567 534 Z " />
<glyph glyph-name="F" unicode="F" horiz-adv-x="783" d="M310.567 534 Q309.094 522 316.111 514 Q323.129 506 334.129 506 L805.129 506 L788.553 371 L317.553 371 Q306.553 371 297.571 363 Q288.589 355 287.238 344 L245 0 L95 0 L202.436 875 L850.314 874 L833.738 739 L362.738 739 Q351.738 739 342.756 731 Q333.773 723 332.3 711 L310.567 534 Z " />
<glyph glyph-name="G" unicode="G" horiz-adv-x="1035" d="M554.323 475 L1012.32 475 L954 0 L825 0 L845.382 166 Q816.716 128 776.91 97 Q737.104 66 691.964 44.5 Q646.824 23 596.912 11.5 Q547 0 497 0 Q407 0 331.175 34 Q255.349 68 203.655 127.5 Q151.961 187 127.222 266.5 Q102.483 346 113.657 437 Q124.707 527 169.03 607 Q213.353 687 279.597 746 Q345.842 805 430.078 839.5 Q514.314 874 604.314 874 Q695.314 874 770.139 840 Q844.964 806 897.597 746 L777.459 639 Q743.125 677 694.449 700 Q645.773 723 585.773 723 Q526.773 723 472.011 700.5 Q417.248 678 373.459 639 Q329.671 600 300.786 548 Q271.901 496 264.657 437 Q257.29 377 271.537 322 Q285.783 267 320.627 225 Q355.47 183 411.023 159 Q466.576 135 540.944 138 Q595.067 139 643.9 158 Q692.733 177 732.294 206 Q771.854 235 798.836 271.5 Q825.818 308 836.361 345 L538.361 345 L554.323 475 Z " />
<glyph glyph-name="H" unicode="H" horiz-adv-x="974" d="M798.567 534 L840.436 875 L986.436 875 L879 0 L733 0 L775.115 343 Q776.466 354 769.509 362.5 Q762.553 371 751.553 371 L313.553 371 Q302.553 371 293.509 362.5 Q284.466 354 283.115 343 L241 0 L95 0 L202.436 875 L348.436 875 L306.567 534 Q305.216 523 312.173 514.5 Q319.129 506 330.129 506 L768.129 506 Q779.129 506 788.173 514.5 Q797.216 523 798.567 534 Z " />
<glyph glyph-name="I" unicode="I" horiz-adv-x="406" d="M130 0 L237.436 875 L383.436 875 L276 0 L130 0 Z " />
<glyph glyph-name="J" unicode="J" horiz-adv-x="728" d="M530.589 355 L594.314 874 L745.314 874 L681.343 353 Q672.38 280 636.96 215.5 Q601.54 151 547.647 103 Q493.753 55 425.877 27.5 Q358 0 285 0 Q211 0 150.377 27.5 Q89.7532 55 47.6468 103 L162.294 206 Q186.856 178 222.137 164 Q257.418 150 300.418 150 Q342.418 150 381.882 166 Q421.347 182 452.785 210 Q484.223 238 504.827 275.5 Q525.432 313 530.589 355 Z " />
<glyph glyph-name="K" unicode="K" horiz-adv-x="926" d="M993.436 875 L553.78 438 L886 0 L704 0 L430.834 357 Q421.553 371 403.553 371 L313.553 371 Q302.553 371 293.509 362.5 Q284.466 354 283.115 343 L241 0 L95 0 L202.436 875 L348.436 875 L306.567 534 Q305.216 523 312.173 514.5 Q319.129 506 330.129 506 L422.129 506 Q440.129 506 453.848 520 L810.436 875 L993.436 875 Z " />
<glyph glyph-name="L" unicode="L" horiz-adv-x="759" d="M352.436 875 L266.856 178 Q264.4 158 273.988 146.5 Q283.576 135 303.576 135 L740.576 135 L724 0 L95 0 L202.436 875 L352.436 875 Z " />
<glyph glyph-name="M" unicode="M" horiz-adv-x="1113" d="M975.436 875 L1125.44 875 L1018 0 L868 0 L951.739 682 L601.43 370 L328.739 682 L245 0 L95 0 L202.436 875 L352.436 875 L607.583 583 Q614.601 575 626.601 575 Q638.601 575 647.583 583 L975.436 875 Z " />
<glyph glyph-name="N" unicode="N" horiz-adv-x="1019" d="M801.749 226 L881.436 875 L1031.44 875 L924 0 L781 0 L326.547 656 L246 0 L95 0 L202.436 875 L346.436 875 L801.749 226 Z " />
<glyph glyph-name="O" unicode="O" horiz-adv-x="994" d="M515.295 149 Q574.295 149 629.558 171.5 Q684.82 194 728.609 233 Q772.397 272 801.844 324.5 Q831.29 377 838.657 437 Q845.901 496 829.347 548.5 Q812.794 601 778.582 640 Q744.371 679 694.633 701.5 Q644.896 724 585.896 724 Q525.896 724 471.133 701.5 Q416.371 679 372.582 640 Q328.794 601 299.847 548.5 Q270.901 496 263.657 437 Q256.29 377 272.344 324.5 Q288.397 272 322.609 233 Q356.82 194 406.058 171.5 Q455.295 149 515.295 149 Z M604.314 874 Q695.314 874 770.578 839.5 Q845.842 805 897.597 746 Q949.353 687 974.03 607 Q998.707 527 987.657 437 Q976.483 346 932.222 266.5 Q887.961 187 821.655 127.5 Q755.349 68 671.675 34 Q588 0 497 0 Q407 0 331.175 34 Q255.349 68 203.655 127.5 Q151.961 187 127.222 266.5 Q102.483 346 113.657 437 Q124.707 527 169.03 607 Q213.353 687 279.597 746 Q345.842 805 430.078 839.5 Q514.314 874 604.314 874 Z " />
<glyph glyph-name="P" unicode="P" horiz-adv-x="830" d="M564.901 496 Q591.901 496 617.068 505.5 Q642.234 515 662.383 532.5 Q682.532 550 695.856 573 Q709.18 596 712.495 623 Q715.687 649 708.511 672 Q701.335 695 686.484 712.5 Q671.633 730 649.861 740 Q628.088 750 602.088 750 L362.088 750 Q351.088 750 343.168 742.5 Q335.247 735 333.896 724 L309.339 524 Q307.988 513 314.945 504.5 Q321.901 496 332.901 496 L564.901 496 Z M627.436 875 Q679.436 875 724.542 855.5 Q769.648 836 801.473 802 Q833.299 768 849.15 722 Q865.002 676 858.495 623 Q852.11 571 826.462 525 Q800.814 479 762.139 445 Q723.464 411 675.57 391.5 Q627.676 372 575.676 372 L317.676 372 Q306.676 372 297.632 363.5 Q288.589 355 287.238 344 L245 0 L95 0 L202.436 875 L627.436 875 Z " />
<glyph glyph-name="Q" unicode="Q" horiz-adv-x="995" d="M588.191 873 Q681.682 877 760.63 844 Q839.578 811 893.773 751.5 Q947.967 692 974.021 611 Q1000.08 530 988.657 437 Q979.939 366 953.818 308 Q927.696 250 891.609 204.5 Q855.523 159 811.909 125.5 Q768.296 92 724.595 70 Q704.244 59 698.411 40 Q692.578 21 704.859 7 L791.704 -92 L694.144 -178 L536.123 1 Q527 0 517.5 0 Q508 0 498 0 Q405 0 328.42 36 Q251.84 72 199.892 133.5 Q147.943 195 125.073 277.5 Q102.202 360 116.744 454 Q130.058 538 173.767 613 Q217.476 688 281.474 745 Q345.473 802 424.648 836 Q503.823 870 588.191 873 Z M516.295 149 Q575.295 149 630.058 171.5 Q684.82 194 728.609 233 Q772.397 272 801.344 324.5 Q830.29 377 837.657 437 Q844.901 496 828.786 548 Q812.671 600 778.398 638.5 Q744.125 677 694.888 699.5 Q645.65 722 586.65 722 Q527.65 722 472.388 699.5 Q417.125 677 373.398 638.5 Q329.671 600 300.786 548 Q271.901 496 264.657 437 Q257.29 377 273.344 324.5 Q289.397 272 323.609 233 Q357.82 194 407.558 171.5 Q457.295 149 516.295 149 Z " />
<glyph glyph-name="S" unicode="S" horiz-adv-x="848" d="M274.74 625 Q269.706 584 292.444 561.5 Q315.181 539 355.146 526.5 Q395.111 514 447.436 508.5 Q499.761 503 553.84 495.5 Q607.919 488 659.384 475.5 Q710.849 463 749.157 437 Q787.464 411 807.623 367.5 Q827.782 324 819.31 255 Q810.347 182 768.33 133 Q726.314 84 667.692 54.5 Q609.07 25 543.535 12.5 Q478 0 421 0 Q382 0 340.614 5 Q299.228 10 259.14 21.5 Q219.052 33 184.446 52.5 Q149.84 72 124.84 100.5 Q99.8392 129 88.0664 167.5 Q76.2936 206 82.4328 256 L216.433 256 Q211.767 218 231.882 194.5 Q251.996 171 285.839 157.5 Q319.681 144 360.067 139 Q400.453 134 436.453 134 Q475.453 134 515.128 139.5 Q554.804 145 587.584 159.5 Q620.365 174 642.811 198 Q665.258 222 669.678 258 Q674.221 295 651.616 314.5 Q629.01 334 588.738 344 Q548.466 354 496.58 359 Q444.694 364 391.114 371.5 Q337.535 379 286.693 392.5 Q235.851 406 197.788 434 Q159.726 462 140.436 508.5 Q121.145 555 129.986 627 Q138.949 700 179.781 747.5 Q220.614 795 278.552 823 Q336.49 851 403.84 862 Q471.191 873 533.191 873 Q591.191 873 652.033 859.5 Q712.876 846 761.069 815 Q809.263 784 836.562 733.5 Q863.862 683 854.653 608 L720.653 608 Q725.073 644 706.643 669 Q688.212 694 656.616 709.5 Q625.019 725 586.317 731.5 Q547.615 738 511.615 738 Q472.615 738 432.062 733.5 Q391.51 729 357.975 716.5 Q324.44 704 301.739 682 Q279.038 660 274.74 625 Z " />
<glyph glyph-name="T" unicode="T" horiz-adv-x="819" d="M121.843 748 L137.436 875 L896.436 875 L880.843 748 L612.843 748 Q596.843 748 583.992 737 Q571.142 726 569.054 709 L482 0 L337 0 L424.054 709 Q426.142 726 415.992 737 Q405.843 748 388.843 748 L121.843 748 Z " />
<glyph glyph-name="U" unicode="U" horiz-adv-x="886" d="M688.343 353 L752.314 874 L903.314 874 L839.343 353 Q830.38 280 794.96 215.5 Q759.54 151 705.647 103 Q651.753 55 583.877 27.5 Q516 0 443 0 Q370 0 308.877 27.5 Q247.753 55 205.647 103 Q163.54 151 143.96 215.5 Q124.38 280 133.343 353 L197.314 874 L347.314 874 L283.343 353 Q278.186 311 289.643 274 Q301.1 237 325.223 209.5 Q349.347 182 384.382 166 Q419.418 150 461.418 150 Q503.418 150 542.382 166 Q581.347 182 611.723 209.5 Q642.1 237 662.643 274 Q683.186 311 688.343 353 Z " />
<glyph glyph-name="V" unicode="V" horiz-adv-x="999" d="M520.751 169 L924.436 875 L1076.44 875 L576 0 L423 0 L137.436 875 L290.436 875 L520.751 169 Z " />
<glyph glyph-name="W" unicode="W" horiz-adv-x="1379" d="M1009.73 234 L1304.44 875 L1456.44 875 L1058 0 L905 0 L769.442 647 L474 0 L322 0 L137.436 875 L290.436 875 L426.732 234 L720.436 875 L873.436 875 L1009.73 234 Z " />
<glyph glyph-name="X" unicode="X" horiz-adv-x="941" d="M847.314 874 L1017.31 874 L637.726 462 Q628.376 451 626.595 436.5 Q624.815 422 631.464 411 L911 0 L740 0 L510.028 326 L200 0 L30 0 L409.464 411 Q419.815 422 421.595 436.5 Q423.376 451 415.726 462 L138.314 874 L317.314 874 L538.145 555 L847.314 874 Z " />
<glyph glyph-name="Y" unicode="Y" horiz-adv-x="996" d="M475.342 410 Q477.306 426 468.534 436 L137.314 874 L312.314 874 L564.549 542 L897.314 874 L1073.31 874 L634.534 436 Q623.306 426 621.342 410 L571 0 L425 0 L475.342 410 Z " />
<glyph glyph-name="Z" unicode="Z" horiz-adv-x="879" d="M926.436 875 L911.088 750 L270.225 124 L814.225 124 L799 0 L52 0 L67.2253 124 L706.088 750 L144.088 750 L159.436 875 L926.436 875 Z " />
<glyph glyph-name="a" unicode="a" horiz-adv-x="932" d="M811.436 875 L872 0 L723 0 L706.363 231 Q705.205 246 703.415 264 Q701.625 282 697.467 297 Q693.309 312 684.537 322 Q675.764 332 660.764 332 L410.764 332 Q396.764 332 380.703 331.5 Q364.642 331 349.651 327 Q334.659 323 323.239 315.5 Q311.818 308 306.976 293 L213 0 L60 0 L337.436 875 L811.436 875 Z M361.832 471 L692.832 471 L672.334 752 L452.334 752 L361.832 471 Z " />
<glyph glyph-name="q" unicode="q" horiz-adv-x="994" d="M987.534 436 Q977.711 356 943.239 287 Q908.767 218 858.075 163.5 Q807.384 109 745.34 72 Q683.297 35 618.333 19 L721.967 -98 L625.022 -179 L519.633 -60 Q512.738 -51 505.106 -48 Q497.475 -45 492.475 -45 Q486.475 -45 477.668 -47.5 Q468.861 -50 459.756 -59 L325.022 -179 L254.09 -97 L383.21 18 Q321.175 34 267.718 71 Q214.261 108 176.452 162.5 Q138.644 217 121.178 286.5 Q103.711 356 113.534 436 Q124.585 526 168.907 606 Q213.23 686 279.474 745 Q345.719 804 429.955 838.5 Q514.191 873 604.191 873 Q695.191 873 770.455 838.5 Q845.719 804 897.474 745 Q949.23 686 973.907 606 Q998.585 526 987.534 436 Z M515.172 148 Q574.172 148 629.435 170.5 Q684.697 193 728.486 232 Q772.275 271 801.221 323.5 Q830.167 376 837.534 436 Q844.778 495 828.663 547 Q812.548 599 778.337 638 Q744.125 677 694.388 699.5 Q644.65 722 585.65 722 Q525.65 722 470.888 699.5 Q416.125 677 372.337 638 Q328.548 599 299.663 547 Q270.778 495 263.534 436 Q256.167 376 272.221 323.5 Q288.275 271 322.486 232 Q356.697 193 405.935 170.5 Q455.172 148 515.172 148 Z " />
<glyph glyph-name="zero" unicode="0" horiz-adv-x="840" d="M527.664 885 Q600.664 885 661.288 857.5 Q721.911 830 763.579 782.5 Q805.247 735 824.888 671 Q844.53 607 835.567 534 L811.747 340 Q802.906 268 767.548 204 Q732.19 140 678.858 92.5 Q625.525 45 558.149 17.5 Q490.772 -10 417.772 -10 Q345.772 -10 285.149 17.5 Q224.525 45 183.358 92.5 Q142.19 140 122.548 204 Q102.906 268 111.747 340 L135.567 534 Q144.53 607 179.888 671 Q215.247 735 268.079 782.5 Q320.911 830 388.288 857.5 Q455.664 885 527.664 885 Z M674.747 340 L698.567 534 Q703.969 578 691.697 616.5 Q679.424 655 653.985 684 Q628.545 713 591.633 730 Q554.72 747 510.72 747 Q466.72 747 426.133 730 Q385.545 713 352.985 684 Q320.424 655 298.697 616.5 Q276.969 578 271.567 534 L247.747 340 Q242.344 296 254.617 257.5 Q266.89 219 292.39 190.5 Q317.891 162 354.304 145 Q390.716 128 434.716 128 Q478.716 128 519.804 145 Q560.891 162 593.39 190.5 Q625.89 219 647.617 257.5 Q669.344 296 674.747 340 Z " />
<glyph glyph-name="one" unicode="1" horiz-adv-x="642" d="M355 0 L434.933 651 L193.675 429 L105.444 533 L488.314 874 L609.314 874 L502 0 L355 0 Z " />
<glyph glyph-name="two" unicode="2" horiz-adv-x="806" d="M826.021 611 Q818.654 551 792.568 505.5 Q766.481 460 728.999 423.5 Q691.518 387 646.334 357 Q601.151 327 555.59 298 L285.208 132 L767.208 132 L751 0 L55 0 L72.681 144 L492.482 403 Q516.447 419 548.464 439.5 Q580.481 460 609.173 486 Q637.866 512 659.611 542.5 Q681.356 573 685.776 609 Q694.248 678 644.905 720 Q595.562 762 496.562 762 Q454.562 762 414.211 751 Q373.861 740 340.975 716.5 Q308.09 693 285.608 656.5 Q263.126 620 256.864 569 L124.864 569 Q135.056 652 171.484 712.5 Q207.912 773 260.701 812 Q313.49 851 378.823 870 Q444.155 889 512.155 889 Q578.155 889 639.436 875 Q700.718 861 745.288 829 Q789.859 797 812.79 743.5 Q835.721 690 826.021 611 Z " />
<glyph glyph-name="three" unicode="3" horiz-adv-x="825" d="M837.723 633 Q832.811 593 816.321 560.5 Q799.83 528 774.699 502.5 Q749.568 477 716.358 459 Q683.148 441 645.92 431 Q707.324 418 745.658 380 Q783.992 342 787.994 285 Q789.292 263 786.591 241 Q783.89 219 779.189 197 Q763.576 135 726.665 95 Q689.753 55 639.429 32 Q589.105 9 529.939 -0.5 Q470.772 -10 410.772 -10 Q352.772 -10 292.746 2 Q232.719 14 185.903 44 Q139.086 74 112.787 124.5 Q86.4873 175 95.9417 252 L223.942 252 Q218.662 209 239.347 182 Q260.032 155 292.628 139.5 Q325.225 124 361.55 118.5 Q397.875 113 424.875 113 Q470.875 113 510.357 121 Q549.839 129 579.804 145 Q609.768 161 627.715 185 Q645.662 209 649.714 242 Q654.502 281 641.949 305 Q629.396 329 605.554 342.5 Q581.711 356 549.325 361 Q516.939 366 480.939 366 L371.939 366 L387.901 496 L496.901 496 Q530.901 496 564.945 504.5 Q598.988 513 627.076 530 Q655.163 547 674.417 573.5 Q693.671 600 697.968 635 Q706.195 702 653.878 732 Q601.562 762 505.562 762 Q465.562 762 426.641 754.5 Q387.72 747 355.756 731 Q323.791 715 302.66 689.5 Q281.529 664 276.986 627 L141.986 627 Q151.44 704 189.58 754 Q227.719 804 281.78 833 Q335.84 862 398.752 873.5 Q461.664 885 520.664 885 Q572.664 885 631.875 874.5 Q691.086 864 740.209 836.5 Q789.333 809 818.316 760 Q847.3 711 837.723 633 Z " />
<glyph glyph-name="four" unicode="4" horiz-adv-x="784" d="M731.436 875 L662.923 317 L787.923 317 L772.452 191 L647.452 191 L624 0 L479 0 L502.452 191 L33.4519 191 L46.467 297 L592.436 875 L731.436 875 Z M517.923 317 L563.967 692 L209.923 317 L517.923 317 Z " />
<glyph glyph-name="five" unicode="5" horiz-adv-x="766" d="M276.426 541 Q319.583 583 371.416 602 Q423.249 621 486.249 621 Q574.249 621 634.864 597.5 Q695.478 574 731.444 533 Q767.41 492 780.034 436 Q792.658 380 784.677 315 Q774.977 236 742.549 175.5 Q710.12 115 659.525 73.5 Q608.929 32 542.351 11 Q475.772 -10 396.772 -10 Q324.772 -10 265.228 10 Q205.684 30 163.981 65 Q122.278 100 100.295 149 Q78.3113 198 81.3101 255 L210.783 267 Q207.977 236 221.539 208 Q235.101 180 261.461 158.5 Q287.821 137 326.287 124.5 Q364.752 112 411.752 112 Q511.752 112 576.759 165 Q641.767 218 653.677 315 Q658.834 357 649.693 392.5 Q640.552 428 616.806 454.5 Q593.059 481 555.34 495.5 Q517.62 510 465.62 510 Q422.62 510 383.638 502 Q344.656 494 312.568 477 Q280.481 460 257.35 434.5 Q234.219 409 224.044 375 L98.2543 393 L242.314 874 L783.314 874 L768.948 757 L382.948 757 Q365.948 757 352.536 745.5 Q339.124 734 332.037 717 L276.426 541 Z " />
<glyph glyph-name="six" unicode="6" horiz-adv-x="826" d="M423.772 -10 Q346.772 -10 283.728 10 Q220.684 30 178.411 68.5 Q136.138 107 116.575 163.5 Q97.0126 220 105.976 293 L129.796 487 Q140.233 572 169.135 644.5 Q198.037 717 247.544 770 Q297.052 823 367.797 853.5 Q438.542 884 533.542 884 Q604.542 884 662.893 866.5 Q721.244 849 761.815 817 Q802.386 785 821.799 739.5 Q841.212 694 834.459 639 L698.459 639 Q705.704 698 656.94 732.5 Q608.176 767 516.176 767 Q453.176 767 408.413 744.5 Q363.65 722 334.546 684.5 Q305.442 647 288.987 598.5 Q272.532 550 266.147 498 L260.13 449 Q274.095 465 296.682 482 Q319.269 499 349.927 512.5 Q380.585 526 418.628 534.5 Q456.672 543 500.672 543 Q581.672 543 641.339 524 Q701.006 505 738.647 469.5 Q776.288 434 791.711 384.5 Q807.133 335 799.766 275 Q792.153 213 763.268 161 Q734.384 109 686.218 71 Q638.052 33 571.912 11.5 Q505.772 -10 423.772 -10 Z M475.675 429 Q429.675 429 389.508 419.5 Q349.342 410 319.009 391 Q288.676 372 269.299 344.5 Q249.923 317 245.38 280 Q241.205 246 249.96 215.5 Q258.715 185 281.83 161.5 Q304.944 138 343.287 124.5 Q381.629 111 436.629 111 Q531.629 111 590.654 156 Q649.68 201 658.766 275 Q667.361 345 620.018 387 Q572.675 429 475.675 429 Z " />
<glyph glyph-name="seven" unicode="7" horiz-adv-x="724" d="M811.314 874 L796.948 757 L308 0 L151 0 L622.492 737 L115.492 737 L132.314 874 L811.314 874 Z " />
<glyph glyph-name="eight" unicode="8" horiz-adv-x="822" d="M641.271 442 Q718.447 419 759.685 368 Q800.923 317 790.363 231 Q782.628 168 745.603 123 Q708.577 78 654.578 49.5 Q600.578 21 536.482 8 Q472.386 -5 410.386 -5 Q348.386 -5 287.044 8.5 Q225.701 22 179.201 50.5 Q132.7 79 106.664 123.5 Q80.6278 168 88.3632 231 Q98.9227 317 152.185 368 Q205.447 419 289.271 442 Q211.34 467 170.787 519.5 Q130.233 572 140.792 658 Q148.405 720 185.746 763.5 Q223.087 807 276.964 834.5 Q330.84 862 394.875 874.5 Q458.91 887 519.91 887 Q580.91 887 641.875 874.5 Q702.84 862 749.964 834.5 Q797.087 807 823.746 763.5 Q850.405 720 842.792 658 Q832.233 572 778.287 519.5 Q724.34 467 641.271 442 Z M289.319 646 Q284.53 607 300.899 581.5 Q317.268 556 345.426 541 Q373.585 526 408.287 519.5 Q442.988 513 473.988 513 Q504.988 513 541.287 519.5 Q577.585 526 609.426 541 Q641.268 556 663.899 581.5 Q686.53 607 691.319 646 Q695.494 680 679.256 702.5 Q663.019 725 635.238 739 Q607.457 753 572.693 759 Q537.93 765 504.93 765 Q471.93 765 435.693 759 Q399.457 753 368.238 739 Q337.019 725 315.256 702.5 Q293.494 680 289.319 646 Z M456.185 368 Q426.185 368 390.448 362 Q354.711 356 322.431 341.5 Q290.151 327 266.642 302.5 Q243.134 278 238.591 241 Q234.416 207 250.47 183 Q266.523 159 294.12 143.5 Q321.716 128 356.357 121 Q390.997 114 424.997 114 Q458.997 114 495.357 121 Q531.716 128 563.12 143.5 Q594.523 159 616.47 183 Q638.416 207 642.591 241 Q647.134 278 629.642 302.5 Q612.151 327 583.431 341.5 Q554.711 356 520.448 362 Q486.185 368 456.185 368 Z " />
<glyph glyph-name="nine" unicode="9" horiz-adv-x="826" d="M519.542 884 Q596.542 884 659.086 864 Q721.63 844 764.403 805.5 Q807.176 767 826.738 710.5 Q846.301 654 837.338 581 L813.518 387 Q803.081 302 774.179 229.5 Q745.277 157 695.708 103.5 Q646.139 50 574.956 20 Q503.772 -10 409.772 -10 Q338.772 -10 279.921 7.5 Q221.07 25 180.999 57 Q140.928 89 121.453 134 Q101.978 179 108.854 235 L244.854 235 Q237.487 175 286.313 141 Q335.138 107 427.138 107 Q490.138 107 534.401 129.5 Q578.663 152 607.768 189.5 Q636.872 227 653.327 275.5 Q669.782 324 676.167 376 L682.061 424 Q669.096 408 646.57 391.5 Q624.044 375 593.387 361.5 Q562.729 348 524.685 339.5 Q486.642 331 442.642 331 Q361.642 331 301.975 350 Q242.308 369 204.666 404.5 Q167.025 440 151.603 489.5 Q136.181 539 143.548 599 Q151.161 661 180.045 713 Q208.93 765 257.096 803 Q305.262 841 371.402 862.5 Q437.542 884 519.542 884 Z M467.516 444 Q513.516 444 553.183 453.5 Q592.849 463 623.621 481.5 Q654.392 500 673.83 528 Q693.268 556 697.811 593 Q701.986 627 693.292 658 Q684.599 689 661.423 712 Q638.247 735 599.966 749 Q561.685 763 506.685 763 Q411.685 763 352.598 717.5 Q293.511 672 284.548 599 Q275.83 528 322.673 486 Q369.516 444 467.516 444 Z " />
<glyph glyph-name="ampersand" unicode="&#x26;" horiz-adv-x="841" d="M343.156 99 Q394.156 99 439.55 118.5 Q484.944 138 520.996 171 Q484.89 219 445.397 272 Q405.905 325 368.43 370 Q346.448 362 320.29 348.5 Q294.133 335 270.423 317 Q246.713 299 229.889 276 Q213.064 253 209.627 225 Q202.382 166 239.769 132.5 Q277.156 99 343.156 99 Z M362.424 655 Q359.6 632 364.206 612.5 Q368.811 593 378.163 575.5 Q387.514 558 400.049 542 Q412.585 526 424.62 510 Q446.971 521 475.251 535.5 Q503.532 550 529.426 569.5 Q555.32 589 574.328 613.5 Q593.337 638 597.02 668 Q599.599 689 592.747 706.5 Q585.896 724 571.554 737.5 Q557.211 751 537.632 758.5 Q518.053 766 496.053 766 Q473.053 766 450.071 758 Q427.088 750 408.747 735 Q390.405 720 377.888 699.5 Q365.371 679 362.424 655 Z M818 0 L662 0 L597.7 79 Q578.613 62 551.525 45 Q524.438 28 489.842 15 Q455.246 2 413.263 -6 Q371.281 -14 321.281 -14 Q270.281 -14 222.807 2.5 Q175.333 19 141.016 49 Q106.7 79 88.3569 121 Q70.0139 163 76.3987 215 Q82.7835 267 104.449 305 Q126.115 343 157.614 371.5 Q189.114 400 227.07 420 Q265.025 440 303.113 457 Q284.059 481 268.322 503.5 Q252.585 526 242.093 550.5 Q231.601 575 227.6 603.5 Q223.6 632 228.897 667 Q235.791 715 261.764 755.5 Q287.737 796 326.359 825.5 Q364.981 855 413.507 871.5 Q462.033 888 513.033 888 Q569.033 888 611.823 870 Q654.612 852 682.99 822.5 Q711.368 793 723.764 755.5 Q736.159 718 731.371 679 Q724.986 627 701.075 587 Q677.163 547 642.857 516 Q608.551 485 567.165 461.5 Q525.78 438 485.447 419 L613.187 254 Q623.292 263 634.818 279.5 Q646.344 296 657.739 315.5 Q669.133 335 678.211 356 Q687.29 377 691.377 394 L815.254 393 Q811.571 363 799.642 331 Q787.713 299 770.468 268.5 Q753.223 238 731.908 211 Q710.592 184 689.014 163 L818 0 Z " />
<glyph glyph-name="germandbls" unicode="&#xdf;" horiz-adv-x="884" d="M713.058 538 Q700.216 523 703.69 506.5 Q707.164 490 735.673 486 Q756.059 481 786.402 467.5 Q816.744 454 843.49 427.5 Q870.237 401 886.58 359 Q902.923 317 895.31 255 Q888.802 202 863.593 155.5 Q838.384 109 799.647 74.5 Q760.911 40 711.956 20 Q663 0 609 0 L470 0 L487.576 135 L591.576 135 Q611.576 135 635.497 142.5 Q659.418 150 680.259 165 Q701.101 180 716.364 202.5 Q731.627 225 735.31 255 Q738.994 285 729.133 306.5 Q719.273 328 701.554 342.5 Q683.834 357 662.194 364 Q640.553 371 620.553 371 L516.553 371 L532.252 507 L706.597 746 L370.597 746 Q353.597 746 341.247 735 Q328.896 724 326.809 707 L240 0 L90 0 L197.436 875 L915.436 875 L905.245 792 L713.058 538 Z " />
<glyph glyph-name="parenleft" unicode="&#x28;" horiz-adv-x="525" d="M596.89 1009 Q447.682 877 366.764 727 Q285.847 577 271.991 399 Q259.468 240 305.69 111.5 Q351.913 -17 456.547 -134 L354.251 -226 Q232.949 -90 180.113 62 Q127.276 214 142.868 398 Q158.671 600 251.597 774.5 Q344.523 949 517.431 1103 L596.89 1009 Z " />
<glyph glyph-name="braceleft" unicode="&#x7b;" horiz-adv-x="599" d="M620.574 982 Q584.574 982 550.978 969 Q517.382 956 490.119 933.5 Q462.857 911 444.489 879.5 Q426.121 848 421.701 812 L400.828 642 Q392.847 577 354.339 524 Q315.832 471 259.025 440 Q308.219 409 334.211 356 Q360.204 303 352.223 238 L331.349 68 Q326.929 32 337.561 0.5 Q348.194 -31 369.931 -53.5 Q391.668 -76 422.072 -89 Q452.476 -102 488.476 -102 L536.476 -102 L521.251 -226 L438.251 -226 Q382.251 -226 334.891 -204.5 Q287.53 -183 255.073 -146 Q222.616 -109 207.194 -59.5 Q191.772 -10 198.648 46 L217.311 198 Q221.732 234 211.099 265.5 Q200.467 297 178.73 319.5 Q156.992 342 126.589 355 Q96.1847 368 60.1847 368 L46.1847 368 L63.8657 512 L77.8657 512 Q113.866 512 147.462 525 Q181.058 538 208.321 560.5 Q235.583 583 253.89 614 Q272.196 645 276.616 681 L291.473 802 Q299.209 865 329.962 920 Q360.715 975 407.249 1016 Q453.783 1057 511.73 1081 Q569.677 1105 632.677 1105 L684.677 1105 L669.574 982 L620.574 982 Z " />
<glyph glyph-name="bracketleft" unicode="&#x5b;" horiz-adv-x="407" d="M477.206 979 L246.206 979 L113.353 -103 L344.353 -103 L328.882 -229 L-28.1177 -229 L135.677 1105 L492.677 1105 L477.206 979 Z " />
<glyph glyph-name="bar" unicode="&#x7c;" horiz-adv-x="406" d="M262.616 -109 L116.616 -109 L250.82 984 L396.82 984 L262.616 -109 Z " />
<glyph glyph-name="ogonek" unicode="&#x2db;" horiz-adv-x="324" d="M299.689 -198 Q263.76 -230 226.234 -246.5 Q188.708 -263 151.708 -263 Q113.708 -263 81.988 -248.5 Q50.2684 -234 28.3994 -208.5 Q6.53043 -183 -3.85629 -149.5 Q-14.243 -116 -9.5772 -78 Q-4.91138 -40 13.7019 -6.5 Q32.3152 27 60.8234 51.5 Q89.3316 76 126.112 90.5 Q162.892 105 203.892 105 L191 0 Q155 0 126.737 -22.5 Q98.4747 -45 94.5456 -77 Q90.6165 -109 110.415 -131 Q130.214 -153 162.214 -153 Q194.214 -153 226.775 -124 L299.689 -198 Z " />
<glyph glyph-name="cedilla" unicode="&#xb8;" horiz-adv-x="279" d="M236.035 -16 Q254.58 -36 261.326 -62.5 Q268.072 -89 264.257 -116 Q260.442 -143 246.688 -169.5 Q232.934 -196 210.479 -216 Q188.023 -236 161.234 -246.5 Q134.444 -257 107.444 -257 Q80.4444 -257 56.2336 -246.5 Q32.0228 -236 14.4785 -216 Q-3.94299 -195 -10.7506 -169 Q-17.5582 -143 -14.243 -116 L69.757 -116 Q67.0557 -138 81.9684 -155 Q96.8811 -172 119.881 -172 Q142.881 -172 161.968 -155 Q181.056 -138 183.88 -115 Q186.704 -92 171.791 -75 L89.3329 19 L154.454 77 L236.035 -16 Z " />
<glyph glyph-name="period" unicode="&#x2e;" horiz-adv-x="335" d="M164.913 -17 Q130.913 -17 109.859 7 Q88.8063 31 93.1038 66 Q97.2785 100 124.225 124 Q151.172 148 185.172 148 Q220.172 148 241.225 124 Q262.278 100 258.104 66 Q253.806 31 226.859 7 Q199.913 -17 164.913 -17 Z " />
<glyph glyph-name="comma" unicode="&#x2c;" horiz-adv-x="281" d="M72.0329 98 L203.033 98 L146.53 -183 L37.5304 -183 L72.0329 98 Z " />
<glyph glyph-name="macron" unicode="&#xaf;" horiz-adv-x="347" d="M127.205 1036 L142.676 1162 L569.676 1162 L554.205 1036 L127.205 1036 Z " />
<glyph glyph-name="circumflex" unicode="&#x2c6;" horiz-adv-x="492" d="M521.4 948 L405.607 1080 Q395.958 1091 379.458 1091 Q362.958 1091 350.607 1080 L202.4 948 L135.731 1024 L400.709 1260 L607.731 1024 L522.4 948 L521.4 948 Z " />
<glyph glyph-name="breve" unicode="&#x2d8;" horiz-adv-x="363" d="M317.168 1109 Q344.291 1110 365.624 1129 Q386.957 1148 390.272 1175 L507.272 1175 Q502.606 1137 484.116 1104.5 Q465.625 1072 438.055 1047 Q410.486 1022 375.267 1008 Q340.048 994 303.048 994 Q265.048 994 234.267 1008 Q203.486 1022 181.555 1047 Q159.625 1072 149.616 1104.5 Q139.606 1137 144.272 1175 L260.272 1175 Q256.957 1148 274.124 1129 Q291.291 1110 317.168 1109 Z " />
<glyph glyph-name="dieresis" unicode="&#xa8;" horiz-adv-x="468" d="M600.853 1082 Q596.555 1047 569.609 1023 Q542.662 999 507.662 999 Q472.662 999 451.609 1023 Q430.555 1047 434.853 1082 Q439.15 1117 466.097 1141 Q493.044 1165 528.044 1165 Q563.044 1165 584.097 1141 Q605.15 1117 600.853 1082 Z M298.853 1082 Q294.555 1047 267.609 1023 Q240.662 999 205.662 999 Q170.662 999 149.609 1023 Q128.555 1047 132.853 1082 Q137.15 1117 164.097 1141 Q191.044 1165 226.044 1165 Q261.044 1165 282.097 1141 Q303.15 1117 298.853 1082 Z " />
<glyph glyph-name="ring" unicode="&#x2da;" horiz-adv-x="289" d="M273.66 1056 Q297.66 1056 317.309 1073.5 Q336.958 1091 339.905 1115 Q342.852 1139 327.5 1156.5 Q312.149 1174 288.149 1174 Q264.149 1174 244.5 1156.5 Q224.852 1139 221.905 1115 Q218.958 1091 234.309 1073.5 Q249.66 1056 273.66 1056 Z M298.709 1260 Q328.709 1260 353.797 1248.5 Q378.885 1237 395.99 1217.5 Q413.096 1198 421.342 1171.5 Q429.588 1145 425.905 1115 Q422.221 1085 407.467 1058.5 Q392.714 1032 370.819 1012.5 Q348.925 993 321.074 982 Q293.224 971 263.224 971 Q233.224 971 208.074 982 Q182.925 993 165.819 1012.5 Q148.714 1032 140.967 1058.5 Q133.221 1085 136.905 1115 Q140.588 1145 154.842 1171.5 Q169.096 1198 190.99 1217.5 Q212.885 1237 240.797 1248.5 Q268.709 1260 298.709 1260 Z " />
<glyph glyph-name="acute" unicode="&#xb4;" horiz-adv-x="307" d="M320.521 1006 L203.521 1006 L433.672 1333 L541.217 1256 L320.521 1006 Z " />
<glyph glyph-name="tilde" unicode="&#x2dc;" horiz-adv-x="437" d="M141.693 1154 Q182.359 1192 219.35 1196 Q256.341 1200 291.307 1187.5 Q326.272 1175 360.132 1153.5 Q393.992 1132 428.957 1119.5 Q463.923 1107 500.414 1111 Q536.905 1115 578.571 1153 L562.731 1024 Q521.066 986 484.574 982 Q448.083 978 413.118 990.5 Q378.153 1003 344.293 1024.5 Q310.433 1046 275.467 1058.5 Q240.502 1071 203.511 1067 Q166.52 1063 125.854 1025 L141.693 1154 Z " />
<glyph glyph-name="dotaccent" unicode="&#x2d9;" horiz-adv-x="166" d="M295.169 1052 Q290.872 1017 263.925 993 Q236.978 969 201.978 969 Q166.978 969 145.925 993 Q124.872 1017 129.169 1052 Q133.467 1087 160.414 1111 Q187.36 1135 222.36 1135 Q257.36 1135 278.414 1111 Q299.467 1087 295.169 1052 Z " />
<glyph glyph-name="bracketright" unicode="&#x5d;" horiz-adv-x="833" d="M135.677 1105 L492.677 1105 L328.882 -229 L-28.1177 -229 L-12.6468 -103 L218.353 -103 L351.206 979 L120.206 979 L135.677 1105 Z " />
<glyph glyph-name="parenright" unicode="&#x29;" horiz-adv-x="525" d="M278.431 1103 Q413.523 949 463.597 774.5 Q513.671 600 479.868 398 Q450.276 214 360.113 62 Q269.949 -90 115.251 -226 L35.5469 -134 Q167.913 -17 246.19 111.5 Q324.468 240 350.991 399 Q379.847 577 336.264 727 Q292.682 877 175.89 1009 L278.431 1103 Z " />
<glyph glyph-name="grave" unicode="&#x60;" horiz-adv-x="329" d="M74.9541 1262 L214.391 1347 L372.521 1006 L237.521 1006 L74.9541 1262 Z " />
<glyph glyph-name="slash" unicode="&#x2f;" horiz-adv-x="518" d="M-50.0139 -163 L559.835 1090 L675.819 1041 L65.9697 -212 L-50.0139 -163 Z " />
<glyph glyph-name="Adieresis" unicode="&#xc4;" horiz-adv-x="998" d="M968 0 L816 0 L736.591 241 Q733.187 254 722.108 261.5 Q711.029 269 697.029 269 L366.029 269 Q352.029 269 339.108 261.5 Q326.187 254 319.591 241 L182 0 L30 0 L530.436 875 L682.436 875 L968 0 Z M413.605 404 L683.605 404 L585.686 706 L413.605 404 Z M865.853 1082 Q861.555 1047 834.609 1023 Q807.662 999 772.662 999 Q737.662 999 716.609 1023 Q695.555 1047 699.853 1082 Q704.15 1117 731.097 1141 Q758.044 1165 793.044 1165 Q828.044 1165 849.097 1141 Q870.15 1117 865.853 1082 Z M563.853 1082 Q559.555 1047 532.609 1023 Q505.662 999 470.662 999 Q435.662 999 414.609 1023 Q393.555 1047 397.853 1082 Q402.15 1117 429.097 1141 Q456.044 1165 491.044 1165 Q526.044 1165 547.097 1141 Q568.15 1117 563.853 1082 Z " />
<glyph glyph-name="Aring" unicode="&#xc5;" horiz-adv-x="998" d="M968 0 L816 0 L736.591 241 Q733.187 254 722.108 261.5 Q711.029 269 697.029 269 L366.029 269 Q352.029 269 339.108 261.5 Q326.187 254 319.591 241 L182 0 L30 0 L530.436 875 L682.436 875 L968 0 Z M413.605 404 L683.605 404 L585.686 706 L413.605 404 Z M628.66 1056 Q652.66 1056 671.809 1073.5 Q690.958 1091 693.905 1115 Q696.852 1139 682 1156.5 Q667.149 1174 643.149 1174 Q619.149 1174 599.5 1156.5 Q579.852 1139 576.905 1115 Q573.958 1091 589.309 1073.5 Q604.66 1056 628.66 1056 Z M653.709 1260 Q683.709 1260 708.297 1248.5 Q732.885 1237 749.99 1217.5 Q767.096 1198 775.342 1171.5 Q783.588 1145 779.905 1115 Q776.221 1085 761.467 1058.5 Q746.714 1032 724.819 1012.5 Q702.925 993 675.574 982 Q648.224 971 618.224 971 Q588.224 971 563.074 982 Q537.925 993 520.819 1012.5 Q503.714 1032 495.467 1058.5 Q487.221 1085 490.905 1115 Q494.588 1145 509.342 1171.5 Q524.096 1198 545.99 1217.5 Q567.885 1237 595.797 1248.5 Q623.709 1260 653.709 1260 Z " />
<glyph glyph-name="ae" unicode="&#xe6;" horiz-adv-x="1130" d="M682.891 162 Q681.54 151 688.558 143 Q695.576 135 706.576 135 L1081.58 135 L1065 0 L517 0 L559.606 347 Q558.957 358 552.755 364.5 Q546.553 371 535.553 371 L331.553 371 Q314.553 371 299.702 360 Q284.852 349 278.764 332 L173 0 L30 0 L307.436 875 L624.436 875 L1172.31 874 L1155.62 738 L780.615 738 Q769.615 738 760.633 730 Q751.65 722 750.177 710 L728.567 534 Q727.094 522 734.111 514 Q741.129 506 752.129 506 L1127.13 506 L1110.55 371 L708.553 371 L682.891 162 Z M579.252 507 L604.914 716 Q604.264 727 598.062 733.5 Q591.861 740 580.861 740 L408.861 740 L333.252 507 L579.252 507 Z " />
<glyph glyph-name="AE" unicode="&#xc6;" horiz-adv-x="1177" d="M1219.31 874 L1202.62 738 L777.615 738 Q766.615 738 757.571 729.5 Q748.528 721 747.177 710 L725.567 534 Q724.094 522 731.111 514 Q738.129 506 749.129 506 L1174.13 506 L1157.55 371 L732.553 371 Q721.553 371 712.571 363 Q703.589 355 702.238 344 L679.891 162 Q678.54 151 685.558 143 Q692.576 135 703.576 135 L1128.58 135 L1112 0 L514 0 L547.029 269 L366.029 269 Q352.029 269 339.108 261.5 Q326.187 254 319.591 241 L182 0 L30 0 L530.436 875 L784.436 875 L1219.31 874 Z M561.518 387 L604.615 738 L404.518 387 L561.518 387 Z " />
<glyph glyph-name="paragraph" unicode="&#xb6;" horiz-adv-x="1149" d="M982.333 809 L890.333 809 Q881.333 809 874.228 800 Q867.123 791 866.14 783 L770 0 L624 0 L666.238 344 Q667.589 355 661.132 363.5 Q654.676 372 642.676 372 L337.676 372 Q285.676 372 242.07 391.5 Q198.464 411 168.639 445 Q138.814 479 124.462 525 Q110.11 571 116.495 623 Q123.002 676 149.65 722 Q176.299 768 216.473 802 Q256.648 836 306.542 855.5 Q356.436 875 408.436 875 L1161.44 875 L1054 0 L908 0 L1004.14 783 Q1005.49 794 999.412 801.5 Q993.333 809 982.333 809 Z M267.372 622 Q264.302 597 271.224 576 Q278.145 555 292.742 539.5 Q307.339 524 328.295 515.5 Q349.252 507 373.252 507 L659.129 506 Q670.129 506 679.173 514.5 Q688.216 523 689.567 534 L711.791 715 Q712.896 724 705.756 731 Q698.615 738 689.615 738 L396.615 738 Q372.615 738 350.51 729 Q328.405 720 310.94 704 Q293.476 688 281.897 667 Q270.319 646 267.372 622 Z " />
<glyph glyph-name="Agrave" unicode="&#xc0;" horiz-adv-x="998" d="M968 0 L816 0 L736.591 241 Q733.187 254 722.108 261.5 Q711.029 269 697.029 269 L366.029 269 Q352.029 269 339.108 261.5 Q326.187 254 319.591 241 L182 0 L30 0 L530.436 875 L682.436 875 L968 0 Z M413.605 404 L683.605 404 L585.686 706 L413.605 404 Z M378.954 1262 L519.391 1347 L676.521 1006 L542.521 1006 L378.954 1262 Z " />
<glyph glyph-name="Atilde" unicode="&#xc3;" horiz-adv-x="998" d="M968 0 L816 0 L736.591 241 Q733.187 254 722.108 261.5 Q711.029 269 697.029 269 L366.029 269 Q352.029 269 339.108 261.5 Q326.187 254 319.591 241 L182 0 L30 0 L530.436 875 L682.436 875 L968 0 Z M421.693 1154 Q462.359 1192 499.85 1196 Q537.341 1200 572.307 1187.5 Q607.272 1175 640.632 1153.5 Q673.992 1132 709.457 1119.5 Q744.923 1107 781.414 1111 Q817.905 1115 859.571 1153 L843.731 1024 Q802.066 986 765.574 982 Q729.083 978 693.618 990.5 Q658.153 1003 624.293 1024.5 Q590.433 1046 555.467 1058.5 Q520.502 1071 483.511 1067 Q446.52 1063 405.854 1025 L421.693 1154 Z M413.605 404 L683.605 404 L585.686 706 L413.605 404 Z " />
<glyph glyph-name="OE" unicode="&#x152;" horiz-adv-x="1250" d="M1292.31 874 L1275.62 738 L760.615 738 Q749.615 738 740.571 729.5 Q731.528 721 730.177 710 L708.567 534 Q707.094 522 714.111 514 Q721.129 506 732.129 506 L1247.13 506 L1230.55 371 L715.553 371 Q704.553 371 695.571 363 Q686.589 355 685.238 344 L662.891 162 Q661.54 151 668.558 143 Q675.576 135 686.576 135 L1201.58 135 L1185 0 L497 0 Q407 0 331.175 34 Q255.349 68 203.655 127.5 Q151.961 187 127.222 266.5 Q102.483 346 113.657 437 Q124.707 527 169.03 607 Q213.353 687 279.659 746.5 Q345.964 806 430.2 840.5 Q514.436 875 604.436 875 L1292.31 874 Z M587.861 740 Q524.861 740 466.914 716 Q408.967 692 362.433 651 Q315.899 610 285.645 555 Q255.392 500 247.657 437 Q239.921 374 256.607 318.5 Q273.292 263 309.697 221.5 Q346.101 180 398.216 156.5 Q450.33 133 513.33 133 L587.861 740 Z " />
<glyph glyph-name="hyphen" unicode="&#x2d;" horiz-adv-x="498" d="M65.5531 371 L82.129 506 L540.129 506 L523.553 371 L65.5531 371 Z " />
<glyph glyph-name="sterling" unicode="&#xa3;" horiz-adv-x="836" d="M667.08 359 L456.08 359 Q444.08 359 430.457 358 Q416.834 357 405.904 353.5 Q394.975 350 386.992 342 Q379.01 334 377.291 320 L359.856 178 Q357.4 158 366.988 146.5 Q376.576 135 396.576 135 L787.576 135 L771 0 L188 0 L222.748 283 Q224.221 295 224.879 308.5 Q225.537 322 223.387 333 Q221.238 344 214.159 351.5 Q207.08 359 194.08 359 L89.0797 359 L106.392 500 L249.392 500 Q258.969 578 292.003 647.5 Q325.037 717 377.483 769.5 Q429.929 822 499.235 853 Q568.542 884 649.542 884 Q720.542 884 781.788 857.5 Q843.034 831 886.895 781 L784.353 687 Q758.037 717 721.062 733.5 Q684.088 750 642.088 750 Q598.088 750 557.501 733 Q516.914 716 484.353 687 Q451.792 658 430.565 619.5 Q409.338 581 403.935 537 L399.392 500 L684.392 500 L667.08 359 Z " />
<glyph glyph-name="plus" unicode="&#x2b;" horiz-adv-x="483" d="M223.921 374 L65.9214 374 L81.3923 500 L239.392 500 L258.792 658 L384.792 658 L365.392 500 L524.392 500 L508.921 374 L349.921 374 L330.399 215 L204.399 215 L223.921 374 Z " />
<glyph glyph-name="multiply" unicode="&#xd7;" horiz-adv-x="484" d="M131.864 569 L184.635 616 L301.305 483 L450.758 617 L491.987 570 L341.534 436 L459.204 303 L406.433 256 L289.886 390 L140.556 257 L99.3265 304 L248.534 436 L131.864 569 Z " />
<glyph glyph-name="question" unicode="&#x3f;" horiz-adv-x="724" d="M788.79 772 Q781.545 713 760.888 671 Q740.231 629 709.057 595 Q677.882 561 637.883 532.5 Q597.883 504 552.2 474 Q526.113 457 510.394 443 Q494.675 429 484.719 409 Q474.763 389 469.141 359.5 Q463.519 330 457.625 282 L323.625 282 Q329.887 333 336.614 371.5 Q343.342 410 361.139 445 Q378.937 480 414.48 517 Q450.023 554 514.794 601 Q535.39 614 555.916 630.5 Q576.442 647 593.836 666.5 Q611.23 686 623.177 710 Q635.124 734 638.685 763 Q643.719 804 630.473 830.5 Q617.226 857 592.068 872 Q566.91 887 533.585 892.5 Q500.261 898 465.261 898 Q428.261 898 392.971 887.5 Q357.682 877 328.726 857 Q299.771 837 280.026 806.5 Q260.281 776 255.369 736 L105.369 736 Q114.21 808 149.024 863.5 Q183.839 919 235.505 957 Q287.171 995 351.126 1015 Q415.082 1035 482.082 1035 Q547.082 1035 606.486 1022 Q665.89 1009 709.645 978.5 Q753.4 948 775.699 897.5 Q797.999 847 788.79 772 Z M359.913 -17 Q324.913 -17 303.859 7 Q282.806 31 287.104 66 Q291.278 100 318.225 124 Q345.172 148 380.172 148 Q414.172 148 435.225 124 Q456.278 100 452.104 66 Q447.806 31 420.859 7 Q393.913 -17 359.913 -17 Z " />
<glyph glyph-name="exclam" unicode="&#x21;" horiz-adv-x="282" d="M195.082 1035 L340.082 1035 L247.625 282 L102.625 282 L195.082 1035 Z M138.913 -17 Q103.913 -17 82.8595 7 Q61.8063 31 66.1038 66 Q70.2785 100 97.2253 124 Q124.172 148 159.172 148 Q193.172 148 214.225 124 Q235.278 100 231.104 66 Q226.806 31 199.859 7 Q172.913 -17 138.913 -17 Z " />
<glyph glyph-name="equal" unicode="&#x3d;" horiz-adv-x="498" d="M83.3568 516 L99.9327 651 L557.933 651 L541.357 516 L83.3568 516 Z M47.7493 226 L64.3252 361 L522.325 361 L505.749 226 L47.7493 226 Z " />
<glyph glyph-name="Lslash" unicode="&#x141;" horiz-adv-x="759" d="M75.5531 371 L92.129 506 L157.129 506 L202.436 875 L352.436 875 L307.129 506 L550.129 506 L533.553 371 L290.553 371 L266.856 178 Q264.4 158 273.988 146.5 Q283.576 135 303.576 135 L740.576 135 L724 0 L95 0 L140.553 371 L75.5531 371 Z " />
<glyph glyph-name="Euro" unicode="&#x20ac;" horiz-adv-x="690" d="M495.664 885 Q566.664 885 625.411 858.5 Q684.157 832 725.386 785 L630.949 700 Q606.264 727 570.729 743 Q535.193 759 493.193 759 Q455.193 759 419.72 747 Q384.247 735 355.045 713 Q325.844 691 303.661 661 Q281.477 631 271.057 595 L554.057 595 L541.656 494 L312.656 494 Q290.656 494 273.042 489 Q255.428 484 253.095 465 L242.658 380 L527.658 380 L515.257 279 L232.257 279 Q233.837 243 248.215 213.5 Q262.592 184 286.452 162.5 Q310.313 141 342.339 129 Q374.366 117 411.366 117 Q453.366 117 491.83 133 Q530.295 149 561.61 176 L641.051 90 Q588.28 43 523.026 16.5 Q457.772 -10 385.772 -10 Q320.772 -10 265.912 11.5 Q211.052 33 170.779 71.5 Q130.506 110 107.014 163 Q83.5215 216 82.2569 279 L-38.7431 279 L-26.3419 380 L56.6581 380 Q72.6581 380 83.5702 391.5 Q94.4822 403 96.4467 419 L105.656 494 L-12.3444 494 L0.0568137 595 L121.057 595 Q137.792 658 173.8 711 Q209.807 764 259.535 802.5 Q309.262 841 369.963 863 Q430.664 885 495.664 885 Z " />
<glyph glyph-name="Aacute" unicode="&#xc1;" horiz-adv-x="998" d="M968 0 L816 0 L736.591 241 Q733.187 254 722.108 261.5 Q711.029 269 697.029 269 L366.029 269 Q352.029 269 339.108 261.5 Q326.187 254 319.591 241 L182 0 L30 0 L530.436 875 L682.436 875 L968 0 Z M413.605 404 L683.605 404 L585.686 706 L413.605 404 Z M686.521 1006 L568.521 1006 L799.672 1333 L907.217 1256 L686.521 1006 Z " />
<glyph glyph-name="Acircumflex" unicode="&#xc2;" horiz-adv-x="998" d="M968 0 L816 0 L736.591 241 Q733.187 254 722.108 261.5 Q711.029 269 697.029 269 L366.029 269 Q352.029 269 339.108 261.5 Q326.187 254 319.591 241 L182 0 L30 0 L530.436 875 L682.436 875 L968 0 Z M774.4 948 L658.607 1080 Q648.958 1091 632.458 1091 Q615.958 1091 603.607 1080 L455.4 948 L388.731 1024 L653.709 1260 L860.731 1024 L775.4 948 L774.4 948 Z M413.605 404 L683.605 404 L585.686 706 L413.605 404 Z " />
<glyph glyph-name="minus" unicode="&#x2212;" horiz-adv-x="483" d="M69.605 404 L77.7087 470 L520.709 470 L512.605 404 L69.605 404 Z " />
<glyph glyph-name="plusminus" unicode="&#xb1;" horiz-adv-x="483" d="M40.505 167 L52.9063 268 L210.906 268 L227.973 407 L69.9733 407 L85.4442 533 L243.444 533 L262.844 691 L388.844 691 L369.444 533 L528.444 533 L512.973 407 L353.973 407 L336.906 268 L495.906 268 L483.505 167 L40.505 167 Z " />
<glyph glyph-name="Cacute" unicode="&#x106;" horiz-adv-x="847" d="M578.019 725 Q519.019 725 463.756 702.5 Q408.494 680 364.205 641 Q319.916 602 290.47 549.5 Q261.024 497 253.78 438 Q246.535 379 262.589 326.5 Q278.643 274 312.854 235 Q347.066 196 396.242 173 Q445.418 150 504.418 150 Q561.418 150 617.058 171.5 Q672.697 193 718.732 234 L812.716 128 Q743.104 66 658.552 33 Q574 0 487 0 Q397 0 321.236 34.5 Q245.472 69 193.778 128.5 Q142.083 188 117.406 268 Q92.729 348 103.78 438 Q114.83 528 159.153 608 Q203.476 688 269.72 747 Q335.964 806 420.2 840.5 Q504.436 875 594.436 875 Q681.436 875 757.885 842 Q834.333 809 888.72 747 L768.705 641 Q733.616 681 684.318 703 Q635.019 725 578.019 725 Z M630.521 1006 L512.521 1006 L743.672 1333 L851.217 1256 L630.521 1006 Z " />
<glyph glyph-name="Ccircumflex" unicode="&#x108;" horiz-adv-x="847" d="M578.019 725 Q519.019 725 463.756 702.5 Q408.494 680 364.205 641 Q319.916 602 290.47 549.5 Q261.024 497 253.78 438 Q246.535 379 262.589 326.5 Q278.643 274 312.854 235 Q347.066 196 396.242 173 Q445.418 150 504.418 150 Q561.418 150 617.058 171.5 Q672.697 193 718.732 234 L812.716 128 Q743.104 66 658.552 33 Q574 0 487 0 Q397 0 321.236 34.5 Q245.472 69 193.778 128.5 Q142.083 188 117.406 268 Q92.729 348 103.78 438 Q114.83 528 159.153 608 Q203.476 688 269.72 747 Q335.964 806 420.2 840.5 Q504.436 875 594.436 875 Q681.436 875 757.885 842 Q834.333 809 888.72 747 L768.705 641 Q733.616 681 684.318 703 Q635.019 725 578.019 725 Z M753.4 948 L637.607 1080 Q627.958 1091 611.458 1091 Q594.958 1091 582.607 1080 L434.4 948 L367.731 1024 L632.709 1260 L839.731 1024 L754.4 948 L753.4 948 Z " />
<glyph glyph-name="Cdotaccent" unicode="&#x10a;" horiz-adv-x="847" d="M578.019 725 Q519.019 725 463.756 702.5 Q408.494 680 364.205 641 Q319.916 602 290.47 549.5 Q261.024 497 253.78 438 Q246.535 379 262.589 326.5 Q278.643 274 312.854 235 Q347.066 196 396.242 173 Q445.418 150 504.418 150 Q561.418 150 617.058 171.5 Q672.697 193 718.732 234 L812.716 128 Q743.104 66 658.552 33 Q574 0 487 0 Q397 0 321.236 34.5 Q245.472 69 193.778 128.5 Q142.083 188 117.406 268 Q92.729 348 103.78 438 Q114.83 528 159.153 608 Q203.476 688 269.72 747 Q335.964 806 420.2 840.5 Q504.436 875 594.436 875 Q681.436 875 757.885 842 Q834.333 809 888.72 747 L768.705 641 Q733.616 681 684.318 703 Q635.019 725 578.019 725 Z M685.169 1052 Q680.872 1017 653.925 993 Q626.978 969 591.978 969 Q556.978 969 535.925 993 Q514.872 1017 519.169 1052 Q523.467 1087 550.414 1111 Q577.36 1135 612.36 1135 Q647.36 1135 668.414 1111 Q689.467 1087 685.169 1052 Z " />
<glyph glyph-name="Aogonek" unicode="&#x104;" horiz-adv-x="998" d="M924.689 -198 Q888.76 -230 851.234 -246.5 Q813.708 -263 776.708 -263 Q738.708 -263 706.988 -248.5 Q675.268 -234 653.399 -208.5 Q631.53 -183 621.144 -149.5 Q610.757 -116 615.423 -78 Q619.475 -45 633.535 -16 Q647.596 13 669.982 36.5 Q692.367 60 721.332 76 Q750.296 92 783.156 99 L736.591 241 Q733.187 254 722.108 261.5 Q711.029 269 697.029 269 L366.029 269 Q352.029 269 339.108 261.5 Q326.187 254 319.591 241 L182 0 L30 0 L530.436 875 L682.436 875 L968 0 L816 0 Q780 0 751.737 -22.5 Q723.475 -45 719.546 -77 Q715.616 -109 735.415 -131 Q755.214 -153 787.214 -153 Q802.214 -153 819.135 -145.5 Q836.056 -138 851.775 -124 L924.689 -198 Z M413.605 404 L683.605 404 L585.686 706 L413.605 404 Z " />
<glyph glyph-name="Amacron" unicode="&#x100;" horiz-adv-x="998" d="M968 0 L816 0 L736.591 241 Q733.187 254 722.108 261.5 Q711.029 269 697.029 269 L366.029 269 Q352.029 269 339.108 261.5 Q326.187 254 319.591 241 L182 0 L30 0 L530.436 875 L682.436 875 L968 0 Z M412.205 1036 L427.676 1162 L854.676 1162 L839.205 1036 L412.205 1036 Z M413.605 404 L683.605 404 L585.686 706 L413.605 404 Z " />
<glyph glyph-name="Hbar" unicode="&#x126;" horiz-adv-x="974" d="M111.249 621 L127.825 756 L187.825 756 L202.436 875 L348.436 875 L333.825 756 L825.825 756 L840.436 875 L986.436 875 L971.825 756 L1031.83 756 L1015.25 621 L955.249 621 L879 0 L733 0 L775.115 343 Q776.466 354 769.509 362.5 Q762.553 371 751.553 371 L313.553 371 Q302.553 371 293.509 362.5 Q284.466 354 283.115 343 L241 0 L95 0 L171.249 621 L111.249 621 Z M798.567 534 L809.249 621 L317.249 621 L306.567 534 Q305.216 523 312.173 514.5 Q319.129 506 330.129 506 L768.129 506 Q779.129 506 788.173 514.5 Q797.216 523 798.567 534 Z " />
<glyph glyph-name="Lacute" unicode="&#x139;" horiz-adv-x="759" d="M352.436 875 L266.856 178 Q264.4 158 273.988 146.5 Q283.576 135 303.576 135 L740.576 135 L724 0 L95 0 L202.436 875 L352.436 875 Z M384.521 1006 L267.521 1006 L497.672 1333 L605.217 1256 L384.521 1006 Z " />
<glyph glyph-name="Jcircumflex" unicode="&#x134;" horiz-adv-x="728" d="M530.589 355 L594.314 874 L745.314 874 L681.343 353 Q672.38 280 636.96 215.5 Q601.54 151 547.647 103 Q493.753 55 425.877 27.5 Q358 0 285 0 Q211 0 150.377 27.5 Q89.7532 55 47.6468 103 L162.294 206 Q186.856 178 222.137 164 Q257.418 150 300.418 150 Q342.418 150 381.882 166 Q421.347 182 452.785 210 Q484.223 238 504.827 275.5 Q525.432 313 530.589 355 Z M840.4 948 L736.888 1066 Q724.607 1080 706.651 1088.5 Q688.695 1097 669.607 1080 L521.4 948 L454.731 1024 L719.709 1260 L926.731 1024 L841.4 948 L840.4 948 Z " />
<glyph glyph-name="aeacute" unicode="&#x1fd;" horiz-adv-x="1045" d="M682.891 162 Q681.54 151 688.558 143 Q695.576 135 706.576 135 L1081.58 135 L1065 0 L517 0 L559.606 347 Q558.957 358 552.755 364.5 Q546.553 371 535.553 371 L331.553 371 Q314.553 371 299.702 360 Q284.852 349 278.764 332 L173 0 L30 0 L307.436 875 L624.436 875 L1172.31 874 L1155.62 738 L780.615 738 Q769.615 738 760.633 730 Q751.65 722 750.177 710 L728.567 534 Q727.094 522 734.111 514 Q741.129 506 752.129 506 L1127.13 506 L1110.55 371 L708.553 371 L682.891 162 Z M579.252 507 L604.914 716 Q604.264 727 598.062 733.5 Q591.861 740 580.861 740 L408.861 740 L333.252 507 L579.252 507 Z M749.521 1006 L631.521 1006 L862.672 1333 L970.217 1256 L749.521 1006 Z " />
<glyph glyph-name="Eth" unicode="&#xd0;" horiz-adv-x="874" d="M75.5531 371 L92.129 506 L157.129 506 L202.436 875 L522.436 875 Q612.436 875 688.2 840.5 Q763.964 806 815.659 746.5 Q867.353 687 892.03 607 Q916.707 527 905.657 437 Q894.606 347 850.283 267 Q805.961 187 739.716 128 Q673.472 69 589.236 34.5 Q505 0 415 0 L95 0 L140.553 371 L75.5531 371 Z M755.411 435 Q762.287 491 747.233 543.5 Q732.18 596 699.652 636.5 Q667.125 677 619.072 701 Q571.019 725 513.019 725 L359.019 725 Q348.019 725 340.098 717.5 Q332.177 710 330.826 699 L307.129 506 L550.129 506 L533.553 371 L290.553 371 L266.487 175 Q265.137 164 271.277 157 Q277.418 150 288.418 150 L442.418 150 Q499.418 150 552.803 173.5 Q606.189 197 649.1 237 Q692.011 277 720.273 328 Q748.535 379 755.411 435 Z " />
<glyph glyph-name="commaaccent" unicode="&#xf6c3;" horiz-adv-x="454" d="M143.565 -142 L274.565 -142 L218.062 -423 L109.062 -423 L143.565 -142 Z " />
<glyph glyph-name="Lcommaaccent" unicode="&#x13b;" horiz-adv-x="759" d="M352.436 875 L266.856 178 Q264.4 158 273.988 146.5 Q283.576 135 303.576 135 L740.576 135 L724 0 L95 0 L202.436 875 L352.436 875 Z M266.565 -142 L397.565 -142 L341.062 -423 L232.062 -423 L266.565 -142 Z " />
<glyph glyph-name="Ldot" unicode="&#x13f;" horiz-adv-x="759" d="M352.436 875 L266.856 178 Q264.4 158 273.988 146.5 Q283.576 135 303.576 135 L740.576 135 L724 0 L95 0 L202.436 875 L352.436 875 Z M636.586 469 Q632.288 434 605.342 410 Q578.395 386 543.395 386 Q508.395 386 487.342 410 Q466.288 434 470.586 469 Q474.883 504 501.83 528 Q528.777 552 563.777 552 Q598.777 552 619.83 528 Q640.883 504 636.586 469 Z " />
<glyph glyph-name="Abreve" unicode="&#x102;" horiz-adv-x="998" d="M968 0 L816 0 L754.206 189 Q749.68 201 744.899 215 Q740.118 229 733.591 241 Q727.064 253 718.047 261 Q709.029 269 697.029 269 L366.029 269 Q352.029 269 339.108 261.5 Q326.187 254 319.591 241 L182 0 L30 0 L530.436 875 L682.436 875 L968 0 Z M708.272 1175 L824.272 1175 Q819.606 1137 801.616 1104.5 Q783.625 1072 755.555 1047 Q727.486 1022 692.767 1008 Q658.048 994 621.048 994 Q583.048 994 551.767 1008 Q520.486 1022 499.055 1047 Q477.625 1072 467.116 1104.5 Q456.606 1137 461.272 1175 L578.272 1175 Q574.957 1148 591.624 1129 Q608.291 1110 635.168 1109 Q661.168 1109 683.124 1129 Q705.079 1149 708.272 1175 Z M413.605 404 L683.605 404 L585.686 706 L413.605 404 Z " />
<glyph glyph-name="Thorn" unicode="&#xde;" horiz-adv-x="786" d="M202.314 874 L268.314 874 L246.458 696 Q246.107 685 252.748 678 Q259.388 671 270.388 671 L592.388 671 Q640.388 671 681.117 652.5 Q721.845 634 749.978 602.5 Q778.11 571 791.33 528 Q804.551 485 798.657 437 Q792.763 389 768.983 346 Q745.204 303 709.336 271.5 Q673.468 240 628.197 221.5 Q582.925 203 534.925 203 L212.925 203 Q201.925 203 193.566 196 Q185.206 189 182.856 178 L161 0 L95 0 L202.314 874 Z M732.657 437 Q737.077 473 726.445 504.5 Q715.813 536 694.575 558.5 Q673.338 581 642.934 594 Q612.53 607 576.53 607 L262.53 607 Q251.53 607 242.487 598.5 Q233.443 590 232.092 579 L197.221 295 Q195.871 284 202.827 275.5 Q209.783 267 220.783 267 L534.783 267 Q570.783 267 604.38 280 Q637.976 293 664.739 315.5 Q691.501 338 709.869 369.5 Q728.237 401 732.657 437 Z " />
<glyph glyph-name="space" unicode="&#x20;" horiz-adv-x="454" d="" />
<glyph glyph-name="at" unicode="&#x40;" horiz-adv-x="994" d="M760.29 377 Q758.483 346 776.721 323.5 Q794.958 301 826.958 301 Q858.958 301 883.659 323 Q908.361 345 912.29 377 L925.796 487 Q933.9 553 911.583 611.5 Q889.266 670 844.607 713.5 Q799.948 757 735.579 782.5 Q671.21 808 596.21 808 Q519.21 808 448.149 779 Q377.088 750 320.388 699.5 Q263.687 649 226.399 581.5 Q189.111 514 179.78 438 Q170.448 362 191.16 294.5 Q211.872 227 256.11 176 Q300.348 125 363.726 95.5 Q427.104 66 504.104 66 Q578.104 66 650.042 94 Q721.98 122 781.487 175 L822.716 128 Q753.104 66 668.552 33 Q584 0 497 0 Q407 0 331.236 34.5 Q255.472 69 203.716 128 Q151.961 187 127.283 267 Q102.606 347 113.657 437 Q124.707 527 169.03 607 Q213.353 687 279.597 746 Q345.842 805 430.078 839.5 Q514.314 874 604.314 874 Q695.314 874 770.946 842.5 Q846.578 811 898.948 757 Q951.318 703 976.977 631 Q1002.64 559 992.568 477 L980.29 377 Q976.729 348 962.037 322 Q947.344 296 925.45 276.5 Q903.556 257 876.144 245.5 Q848.732 234 818.732 234 Q777.732 234 747.249 254.5 Q716.766 275 701.818 308 Q670.52 273 626.626 253.5 Q582.732 234 525.732 234 Q472.732 234 434.819 251 Q396.906 268 373.467 297 Q350.028 326 340.878 365.5 Q331.728 405 337.13 449 Q343.761 503 365.295 544 Q386.829 585 418.767 613 Q450.705 641 491.985 655.5 Q533.266 670 579.266 670 Q621.266 670 657.792 658 Q694.319 646 720.995 623 Q747.671 600 761.935 565.5 Q776.199 531 772.673 486 L760.29 377 Z M702.13 449 Q711.094 522 674.444 561.5 Q637.794 601 570.916 602 Q503.794 601 457.444 561.5 Q411.094 522 402.13 449 Q397.71 413 406.211 384.5 Q414.711 356 432.317 336.5 Q449.923 317 476.195 307 Q502.467 297 533.467 297 Q564.467 297 593.195 307 Q621.923 317 644.317 336.5 Q666.711 356 682.211 384.5 Q697.71 413 702.13 449 Z " />
<glyph glyph-name="divide" unicode="&#xf7;" horiz-adv-x="282" d="M163.101 180 Q140.101 180 125.627 196.5 Q111.153 213 113.977 236 Q116.801 259 135.327 275.5 Q153.853 292 176.853 292 Q199.853 292 214.327 275.5 Q228.801 259 225.977 236 Q223.153 213 204.627 196.5 Q186.101 180 163.101 180 Z M211.847 577 Q188.847 577 174.373 593.5 Q159.899 610 162.723 633 Q165.547 656 184.073 672.5 Q202.599 689 225.599 689 Q248.599 689 263.073 672.5 Q277.547 656 274.723 633 Q271.899 610 253.373 593.5 Q234.847 577 211.847 577 Z M-30.395 404 L-22.2913 470 L420.709 470 L412.605 404 L-30.395 404 Z " />
<glyph glyph-name="thorn" unicode="&#xfe;" horiz-adv-x="786" d="M202.314 874 L352.314 874 L334.633 730 Q334.282 719 340.923 712 Q347.563 705 358.563 705 L594.44 704 Q651.44 704 699.985 684 Q748.529 664 782.109 628 Q815.688 592 831.672 543 Q847.656 494 840.657 437 Q833.658 380 805.642 331 Q777.625 282 735.205 246 Q692.785 210 639.268 189.5 Q585.751 169 528.751 169 L292.628 168 Q281.628 168 273.268 161 Q264.909 154 262.558 143 L245 0 L95 0 L202.314 874 Z M697.78 438 Q701.34 467 692.91 492 Q684.48 517 667.251 535.5 Q650.023 554 625.312 564.5 Q600.601 575 572.601 575 L342.601 575 Q331.601 575 322.557 566.5 Q313.514 558 312.163 547 L285.519 330 Q284.168 319 291.125 310.5 Q298.081 302 309.081 302 L539.081 302 Q567.081 302 594.37 312.5 Q621.659 323 643.37 341 Q665.08 359 679.649 384 Q694.219 409 697.78 438 Z " />
<glyph glyph-name="trademark" unicode="&#x2122;" horiz-adv-x="554" d="M602.436 875 L631.436 875 L601.231 629 L572.231 629 L597.402 834 L480.51 729 L389.402 834 L364.231 629 L335.231 629 L365.436 875 L394.436 875 L480.281 776 Q482.035 774 485.535 774 Q489.035 774 491.281 776 L602.436 875 Z M133.876 846 L137.436 875 L339.436 875 L335.876 846 L259.876 846 Q255.876 846 252.007 843 Q248.139 840 247.525 835 L222.231 629 L194.231 629 L219.525 835 Q220.876 846 209.876 846 L133.876 846 Z " />
<glyph glyph-name="registered" unicode="&#xae;" horiz-adv-x="520" d="M471.087 807 Q468.509 786 452.237 767.5 Q435.966 749 415.352 744 Q407.106 742 406.124 734 Q405.878 732 411.037 717 Q416.195 702 422.923 683.5 Q429.652 665 436.126 648.5 Q442.6 632 444.109 628 L403.109 628 L360.106 742 L300.106 742 Q288.106 742 286.756 731 L274.109 628 L237.109 628 L267.314 874 L413.314 874 Q441.314 874 457.919 854.5 Q474.525 835 471.087 807 Z M401.895 781 Q412.895 781 421.316 788.5 Q429.737 796 431.087 807 Q432.438 818 425.92 826 Q419.402 834 408.402 834 L304.402 834 Q297.402 834 296.543 827 L291.631 787 Q290.895 781 297.895 781 L401.895 781 Z M121.72 747 Q127.614 795 150.709 836.5 Q173.805 878 209.173 909.5 Q244.54 941 288.25 959 Q331.961 977 379.961 977 Q427.961 977 467.25 959 Q506.54 941 534.173 909.5 Q561.805 878 574.709 836.5 Q587.614 795 581.72 747 Q575.826 699 552.731 657.5 Q529.635 616 494.268 584.5 Q458.9 553 415.19 535 Q371.48 517 323.48 517 Q275.48 517 236.19 535 Q196.9 553 169.268 584.5 Q141.635 616 128.731 657.5 Q115.826 699 121.72 747 Z M159.72 747 Q154.809 707 165.511 672 Q176.214 637 199.021 611 Q221.829 585 254.987 570 Q288.145 555 328.145 555 Q367.145 555 403.987 570 Q440.829 585 470.021 611 Q499.214 637 518.511 672 Q537.809 707 542.72 747 Q547.509 786 536.806 821 Q526.104 856 503.296 882 Q480.488 908 447.33 923 Q414.172 938 375.172 938 Q335.172 938 298.33 923 Q261.488 908 232.296 882 Q203.104 856 183.806 821 Q164.509 786 159.72 747 Z " />
<glyph glyph-name="copyright" unicode="&#xa9;" horiz-adv-x="520" d="M121.72 747 Q127.614 795 150.709 836.5 Q173.805 878 209.173 909.5 Q244.54 941 288.25 959 Q331.961 977 379.961 977 Q427.961 977 467.25 959 Q506.54 941 534.173 909.5 Q561.805 878 574.709 836.5 Q587.614 795 581.72 747 Q575.826 699 552.731 657.5 Q529.635 616 494.268 584.5 Q458.9 553 415.19 535 Q371.48 517 323.48 517 Q275.48 517 236.19 535 Q196.9 553 169.268 584.5 Q141.635 616 128.731 657.5 Q115.826 699 121.72 747 Z M160.72 747 Q155.931 708 166.634 673 Q177.337 638 200.144 612 Q222.952 586 256.11 571 Q289.268 556 328.268 556 Q367.268 556 404.11 571 Q440.952 586 470.144 612 Q499.337 638 518.634 673 Q537.931 708 542.72 747 Q547.509 786 536.806 821 Q526.104 856 503.296 882 Q480.488 908 447.33 923 Q414.172 938 375.172 938 Q336.172 938 299.33 923 Q262.488 908 233.296 882 Q204.104 856 184.806 821 Q165.509 786 160.72 747 Z M371.052 823 Q339.052 823 313.85 801 Q288.649 779 284.72 747 Q280.791 715 300.028 692.5 Q319.266 670 350.266 670 Q383.266 670 407.967 692 L436.915 659 Q417.828 642 393.661 632.5 Q369.495 623 345.495 623 Q319.495 623 298.223 633 Q276.95 643 261.976 659.5 Q247.002 676 240.265 698.5 Q233.528 721 236.72 747 Q239.79 772 252.052 794.5 Q264.315 817 283.402 834 Q302.49 851 326.156 860.5 Q349.823 870 375.823 870 Q399.823 870 421.656 860.5 Q443.49 851 458.402 834 L421.473 802 Q401.052 823 371.052 823 Z " />
<glyph glyph-name="eth" unicode="&#xf0;" horiz-adv-x="839" d="M582.32 589 L537.494 680 L636.72 747 Q613.667 771 579.57 786.5 Q545.473 802 498.964 806 L542.524 892 Q607.664 885 655.902 862.5 Q704.139 840 737.842 805 L854.928 879 L899.754 788 L789.037 717 Q811.406 663 816.241 596.5 Q821.076 530 811.499 452 L791.976 293 Q783.013 220 749.575 163.5 Q716.138 107 663.911 68.5 Q611.684 30 544.228 10 Q476.772 -10 399.772 -10 Q317.772 -10 256.912 11.5 Q196.052 33 157.218 71 Q118.384 109 102.268 161 Q86.1531 213 93.7658 275 Q101.133 335 130.395 386 Q159.657 437 208.2 474 Q256.743 511 322.321 532 Q387.9 553 468.9 553 Q515.9 553 553.795 544 Q591.69 535 620.471 521 Q649.252 507 668.726 490.5 Q688.2 474 698.358 459 L704.375 508 Q709.532 550 706.259 588.5 Q702.986 627 690.038 660 L582.32 589 Z M455.288 434 Q355.288 434 295.947 390.5 Q236.606 347 227.766 275 Q223.1 237 233.794 206 Q244.487 175 268.786 153 Q293.085 131 330.05 118.5 Q367.015 106 415.015 106 Q472.015 106 514.734 120 Q557.453 134 587.4 158 Q617.347 182 634.215 213.5 Q651.082 245 655.38 280 Q660.045 318 647.106 347 Q634.167 376 607.561 395.5 Q580.956 415 542.122 424.5 Q503.288 434 455.288 434 Z " />
<glyph glyph-name="degree" unicode="&#xb0;" horiz-adv-x="306" d="M233.301 654 Q253.301 654 271.722 661.5 Q290.143 669 304.8 682.5 Q319.458 696 329.107 713.5 Q338.756 731 341.211 751 Q346.123 791 321.499 818.5 Q296.876 846 256.876 846 Q216.876 846 184.999 818.5 Q153.123 791 148.211 751 Q145.756 731 151.107 713.5 Q156.458 696 168.3 682.5 Q180.143 669 196.722 661.5 Q213.301 654 233.301 654 Z M260.314 874 Q285.314 874 306.647 864.5 Q327.981 855 342.893 838 Q357.806 821 364.543 798.5 Q371.281 776 368.211 751 Q365.019 725 352.818 703 Q340.616 681 321.529 664 Q302.442 647 278.775 637.5 Q255.109 628 230.109 628 Q204.109 628 183.275 637.5 Q162.442 647 147.529 664 Q132.616 681 125.818 703 Q119.019 725 122.211 751 Q125.281 776 137.543 798.5 Q149.806 821 168.893 838 Q187.981 855 211.147 864.5 Q234.314 874 260.314 874 Z " />
<glyph glyph-name="percent" unicode="&#x25;" horiz-adv-x="789" d="M835.44 704 L140.559 86 L65.9962 171 L760.877 789 L835.44 704 Z M622.571 363 Q651.571 363 676.22 352 Q700.87 341 717.475 321.5 Q734.081 302 741.889 276 Q749.696 250 746.135 221 Q742.575 192 728.382 166 Q714.19 140 692.857 121 Q671.524 102 644.173 91 Q616.823 80 587.823 80 Q558.823 80 534.173 91 Q509.524 102 492.357 121 Q475.19 140 467.382 166 Q459.575 192 463.135 221 Q466.696 250 480.889 276 Q495.081 302 516.975 321.5 Q538.87 341 566.22 352 Q593.571 363 622.571 363 Z M301.455 810 Q330.455 810 355.105 799 Q379.754 788 396.36 768.5 Q412.966 749 420.773 723 Q428.581 697 425.02 668 Q421.459 639 407.267 613 Q393.075 587 371.742 568 Q350.409 549 323.058 538 Q295.707 527 266.707 527 Q237.707 527 213.058 538 Q188.409 549 171.242 568 Q154.075 587 146.267 613 Q138.459 639 142.02 668 Q145.581 697 159.773 723 Q173.966 749 195.86 768.5 Q217.754 788 245.105 799 Q272.455 810 301.455 810 Z M597.014 163 Q621.014 163 639.101 180 Q657.189 197 660.013 220 Q663.082 245 648.985 260.5 Q634.889 276 610.889 276 Q586.889 276 567.985 260.5 Q549.082 245 546.013 220 Q543.189 197 558.101 180 Q573.014 163 597.014 163 Z M275.899 610 Q299.899 610 317.986 627 Q336.073 644 338.897 667 Q341.967 692 327.87 707.5 Q313.773 723 289.773 723 Q265.773 723 246.87 707.5 Q227.967 692 224.897 667 Q222.073 644 236.986 627 Q251.899 610 275.899 610 Z " />
<glyph glyph-name="less" unicode="&#x3c;" horiz-adv-x="402" d="M73.5341 436 L377.914 716 L458.618 624 L257.657 437 L413.801 259 L310.382 166 L73.5341 436 Z " />
<glyph glyph-name="lessequal" unicode="&#x2264;" horiz-adv-x="518" d="M36.6987 136 L53.029 269 L297.029 269 L117.534 436 L422.914 716 L503.618 624 L302.78 438 L446.221 295 L531.029 269 L514.699 136 L36.6987 136 Z " />
<glyph glyph-name="asciitilde" unicode="&#x7e;" horiz-adv-x="418" d="M83.848 520 Q118.9 553 151.33 556.5 Q183.759 560 213.409 549 Q243.058 538 272.787 519.5 Q302.515 501 332.164 490 Q361.814 479 394.244 482.5 Q426.673 486 461.725 519 L446.254 393 Q410.202 360 378.773 356.5 Q347.343 353 316.694 364 Q286.044 375 256.816 393.5 Q227.587 412 197.938 423 Q168.288 434 135.859 430.5 Q103.429 427 68.3771 394 L83.848 520 Z " />
<glyph glyph-name="notequal" unicode="&#x2260;" horiz-adv-x="483" d="M91.3835 109 L146.749 226 L47.7493 226 L64.3252 361 L207.325 361 L279.357 516 L83.3568 516 L99.9327 651 L340.933 651 L415.455 810 L519.281 776 L459.933 651 L557.933 651 L541.357 516 L398.357 516 L326.325 361 L522.325 361 L505.749 226 L265.749 226 L194.209 75 L91.3835 109 Z " />
<glyph glyph-name="middot" unicode="&#xb7;" horiz-adv-x="282" d="M187.413 378 Q152.413 378 131.359 402 Q110.306 426 114.604 461 Q118.778 495 145.725 519 Q172.672 543 207.672 543 Q241.672 543 262.725 519 Q283.778 495 279.604 461 Q275.306 426 248.359 402 Q221.413 378 187.413 378 Z " />
<glyph glyph-name="bullet" unicode="&#x2022;" horiz-adv-x="360" d="M221.87 341 Q181.87 341 157.746 368.5 Q133.623 396 138.534 436 Q143.445 476 174.322 503.5 Q205.199 531 245.199 531 Q285.199 531 309.322 503.5 Q333.445 476 328.534 436 Q323.623 396 292.746 368.5 Q261.87 341 221.87 341 Z " />
<glyph glyph-name="asterisk" unicode="&#x2a;" horiz-adv-x="543" d="M409.499 452 L339.25 564 L243.499 452 L163.48 517 L259.231 629 L132.634 673 L179.404 777 L306.124 734 L323.314 874 L433.314 874 L416.001 733 L555.404 777 L575.634 673 L438.231 629 Q454.671 600 472.671 571.5 Q490.672 543 506.48 517 L409.499 452 Z " />
<glyph glyph-name="guilsinglleft" unicode="&#x2039;" horiz-adv-x="536" d="M257.095 465 Q288.411 435 323.859 402 Q359.308 369 392.378 337 L513.627 225 L416.348 125 L101.57 420 L112.62 510 L499.842 805 L572.563 705 L257.095 465 Z " />
<glyph glyph-name="guilsinglright" unicode="&#x203a;" horiz-adv-x="535" d="M136.563 705 L233.842 805 L547.62 510 L536.57 420 L150.348 125 L77.6265 225 L392.095 465 L136.563 705 Z " />
<glyph glyph-name="guillemotleft" unicode="&#xab;" horiz-adv-x="939" d="M257.095 465 Q273.253 450 292.043 432 Q310.833 414 339.579 387.5 Q368.325 361 410.037 322 Q451.748 283 513.627 225 L416.348 125 L101.57 420 L112.62 510 L499.842 805 L572.563 705 L257.095 465 Z M661.095 465 L916.627 225 L819.348 125 L505.57 420 L516.62 510 L902.842 805 L975.563 705 L661.095 465 Z " />
<glyph glyph-name="partialdiff" unicode="&#x2202;" horiz-adv-x="826" d="M399.772 -10 Q317.772 -10 256.912 11.5 Q196.052 33 157.218 71 Q118.384 109 102.268 161 Q86.1531 213 93.7658 275 Q101.133 335 130.395 386 Q159.657 437 208.2 474 Q256.743 511 322.321 532 Q387.9 553 468.9 553 Q515.9 553 549.979 545.5 Q584.058 538 608.585 526 Q633.111 514 648.769 499 Q664.428 484 674.586 469 L679.375 508 Q685.391 557 680.539 603 Q675.687 649 654.23 686 Q632.773 723 592.72 747 Q552.667 771 488.404 777 L542.524 892 Q630.173 881 687.192 844.5 Q744.21 808 775.65 750.5 Q807.09 693 814.758 617 Q822.426 541 811.499 452 L791.976 293 Q783.013 220 749.575 163.5 Q716.138 107 663.911 68.5 Q611.684 30 544.228 10 Q476.772 -10 399.772 -10 Z M455.288 434 Q355.288 434 295.947 390.5 Q236.606 347 227.766 275 Q223.1 237 233.794 206 Q244.487 175 268.786 153 Q293.085 131 330.05 118.5 Q367.015 106 415.015 106 Q472.015 106 514.734 120 Q557.453 134 587.4 158 Q617.347 182 634.215 213.5 Q651.082 245 655.38 280 Q660.045 318 647.106 347 Q634.167 376 607.561 395.5 Q580.956 415 542.122 424.5 Q503.288 434 455.288 434 Z " />
<glyph glyph-name="quotedbl" unicode="&#x22;" horiz-adv-x="481" d="M397.109 628 L528.109 628 L471.606 347 L362.606 347 L397.109 628 Z M137.109 628 L268.109 628 L211.606 347 L102.606 347 L137.109 628 Z " />
<glyph glyph-name="quotedblleft" unicode="&#x201c;" horiz-adv-x="511" d="M102.606 347 L137.109 628 L246.109 628 L233.606 347 L102.606 347 Z M362.606 347 L397.109 628 L506.109 628 L493.606 347 L362.606 347 Z " />
<glyph glyph-name="quotedblright" unicode="&#x201d;" horiz-adv-x="511" d="M528.109 628 L493.606 347 L384.606 347 L397.109 628 L528.109 628 Z M268.109 628 L233.606 347 L124.606 347 L137.109 628 L268.109 628 Z " />
<glyph glyph-name="quotesingle" unicode="&#x27;" horiz-adv-x="251" d="M167.436 875 L298.436 875 L241.934 594 L132.934 594 L167.436 875 Z " />
<glyph glyph-name="quotesinglbase" unicode="&#x201a;" horiz-adv-x="251" d="M94.5025 281 L225.502 281 L169 0 L60 0 L94.5025 281 Z " />
<glyph glyph-name="quotedblbase" unicode="&#x201e;" horiz-adv-x="511" d="M354.502 281 L485.502 281 L429 0 L320 0 L354.502 281 Z M94.5025 281 L225.502 281 L169 0 L60 0 L94.5025 281 Z " />
<glyph glyph-name="quoteleft" unicode="&#x2018;" horiz-adv-x="251" d="M233.606 347 L102.606 347 L159.109 628 L268.109 628 L233.606 347 Z " />
<glyph glyph-name="quoteright" unicode="&#x2019;" horiz-adv-x="251" d="M137.109 628 L268.109 628 L211.606 347 L102.606 347 L137.109 628 Z " />
<glyph glyph-name="endash" unicode="&#x2013;" horiz-adv-x="926" d="M65.5531 371 L82.129 506 L968.129 506 L951.553 371 L65.5531 371 Z " />
<glyph glyph-name="emdash" unicode="&#x2014;" horiz-adv-x="1369" d="M65.4303 370 L82.2518 507 L1411.25 507 L1394.43 370 L65.4303 370 Z " />
<glyph glyph-name="fraction" unicode="&#x2044;" horiz-adv-x="522" d="M-63.9291 -32 L520.75 959 L632.997 904 L49.4405 -86 L-63.9291 -32 Z " />
<glyph glyph-name="b" unicode="b" horiz-adv-x="837" d="M860.582 640 Q852.478 574 813.471 521 Q774.463 468 717.657 437 Q766.973 407 792.904 353.5 Q818.835 300 810.732 234 Q804.838 186 781.058 143 Q757.278 100 721.411 68.5 Q685.543 37 640.772 18.5 Q596 0 547 0 L95 0 L202.436 875 L654.436 875 Q703.436 875 743.665 856.5 Q783.893 838 811.964 806 Q840.035 774 853.317 731.5 Q866.599 689 860.582 640 Z M666.959 244 Q670.152 270 663.037 293.5 Q655.923 317 640.571 334.5 Q625.22 352 603.448 362 Q581.676 372 555.676 372 L315.553 371 Q304.553 371 296.694 364 Q288.834 357 287.483 346 L262.558 143 Q261.208 132 267.348 125 Q273.489 118 284.489 118 L524.489 118 Q550.489 118 574.716 128 Q598.944 138 618.532 155 Q638.119 172 650.943 195 Q663.767 218 666.959 244 Z M571.761 503 Q597.761 503 621.988 513 Q646.216 523 665.365 540.5 Q684.514 558 697.338 581 Q710.162 604 713.354 630 Q716.669 657 709.494 680 Q702.318 703 687.405 720 Q672.492 737 650.72 747 Q628.948 757 602.948 757 L362.948 757 Q351.948 757 344.027 749.5 Q336.106 742 334.756 731 L309.953 529 Q308.602 518 314.743 511 Q320.883 504 331.883 504 L571.761 503 Z " />
<glyph glyph-name="f" unicode="f" horiz-adv-x="783" d="M310.567 534 Q309.094 522 316.111 514 Q323.129 506 334.129 506 L805.129 506 L788.553 371 L317.553 371 Q306.553 371 297.571 363 Q288.589 355 287.238 344 L245 0 L95 0 L202.436 875 L850.314 874 L833.738 739 L362.738 739 Q351.738 739 342.756 731 Q333.773 723 332.3 711 L310.567 534 Z " />
<glyph glyph-name="m" unicode="m" horiz-adv-x="1113" d="M975.436 875 L1125.44 875 L1018 0 L868 0 L951.739 682 L601.43 370 L328.739 682 L245 0 L95 0 L202.436 875 L352.436 875 L607.583 583 Q614.601 575 626.601 575 Q638.601 575 647.583 583 L975.436 875 Z " />
<glyph glyph-name="p" unicode="p" horiz-adv-x="830" d="M564.901 496 Q591.901 496 617.068 505.5 Q642.234 515 662.383 532.5 Q682.532 550 695.856 573 Q709.18 596 712.495 623 Q715.687 649 708.511 672 Q701.335 695 686.484 712.5 Q671.633 730 649.861 740 Q628.088 750 602.088 750 L362.088 750 Q351.088 750 343.168 742.5 Q335.247 735 333.896 724 L309.339 524 Q307.988 513 314.945 504.5 Q321.901 496 332.901 496 L564.901 496 Z M627.436 875 Q679.436 875 724.542 855.5 Q769.648 836 801.473 802 Q833.299 768 849.15 722 Q865.002 676 858.495 623 Q852.11 571 826.462 525 Q800.814 479 762.139 445 Q723.464 411 675.57 391.5 Q627.676 372 575.676 372 L317.676 372 Q306.676 372 297.632 363.5 Q288.589 355 287.238 344 L245 0 L95 0 L202.436 875 L627.436 875 Z " />
<glyph glyph-name="v" unicode="v" horiz-adv-x="999" d="M520.751 169 L924.436 875 L1076.44 875 L576 0 L423 0 L137.436 875 L290.436 875 L520.751 169 Z " />
<glyph glyph-name="caron" unicode="&#x2c7;" horiz-adv-x="492" d="M560.709 1260 L627.377 1184 L362.4 948 L155.377 1184 L240.709 1260 L356.501 1128 Q366.15 1117 382.65 1117 Q399.15 1117 411.501 1128 L485.605 1194 Q513.674 1219 536.691 1239.5 Q559.709 1260 560.709 1260 Z " />
<glyph glyph-name="Ccaron" unicode="&#x10c;" horiz-adv-x="847" d="M578.019 725 Q519.019 725 463.756 702.5 Q408.494 680 364.205 641 Q319.916 602 290.47 549.5 Q261.024 497 253.78 438 Q246.535 379 262.589 326.5 Q278.643 274 312.854 235 Q347.066 196 396.242 173 Q445.418 150 504.418 150 Q561.418 150 617.058 171.5 Q672.697 193 718.732 234 L812.716 128 Q743.104 66 658.552 33 Q574 0 487 0 Q397 0 321.236 34.5 Q245.472 69 193.778 128.5 Q142.083 188 117.406 268 Q92.729 348 103.78 438 Q114.83 528 159.153 608 Q203.476 688 269.72 747 Q335.964 806 420.2 840.5 Q504.436 875 594.436 875 Q681.436 875 757.885 842 Q834.333 809 888.72 747 L768.705 641 Q733.616 681 684.318 703 Q635.019 725 578.019 725 Z M762.709 1260 L829.377 1184 L564.4 948 L357.377 1184 L442.709 1260 L558.501 1128 Q568.15 1117 584.65 1117 Q601.15 1117 613.501 1128 L687.605 1194 Q715.674 1219 738.691 1239.5 Q761.709 1260 762.709 1260 Z " />
<glyph glyph-name="Ccedilla" unicode="&#xc7;" horiz-adv-x="847" d="M578.019 725 Q519.019 725 463.756 702.5 Q408.494 680 364.205 641 Q319.916 602 290.47 549.5 Q261.024 497 253.78 438 Q246.535 379 262.589 326.5 Q278.643 274 312.854 235 Q347.066 196 396.242 173 Q445.418 150 504.418 150 Q561.418 150 617.058 171.5 Q672.697 193 718.732 234 L812.716 128 Q761.068 82 700.946 52.5 Q640.824 23 577.351 11 Q596.422 -21 597.756 -59 Q604.686 -84 598.81 -111.5 Q592.933 -139 575.863 -164 Q555.425 -192 528.461 -208 Q494.005 -228 457.444 -228.5 Q420.882 -229 390.847 -213 Q360.811 -197 343.679 -165.5 Q326.547 -134 331.827 -91 L415.827 -91 Q413.494 -110 422.397 -123 Q431.301 -136 445.565 -142 Q459.828 -148 477.196 -145 Q494.565 -142 508.038 -130 Q527.125 -113 529.949 -90 Q532.773 -67 517.861 -50 L473.123 1 Q385.491 4 312.85 39.5 Q240.209 75 189.892 133.5 Q139.575 192 116.213 270.5 Q92.8518 349 103.78 438 Q114.83 528 159.153 608 Q203.476 688 269.72 747 Q335.964 806 420.2 840.5 Q504.436 875 594.436 875 Q681.436 875 757.885 842 Q834.333 809 888.72 747 L768.705 641 Q733.616 681 684.318 703 Q635.019 725 578.019 725 Z " />
<glyph glyph-name="Dcaron" unicode="&#x10e;" horiz-adv-x="917" d="M522.436 875 Q612.436 875 688.2 840.5 Q763.964 806 815.659 746.5 Q867.353 687 892.03 607 Q916.707 527 905.657 437 Q894.606 347 850.283 267 Q805.961 187 739.716 128 Q673.472 69 589.236 34.5 Q505 0 415 0 L95 0 L202.436 875 L522.436 875 Z M755.411 435 Q762.287 491 747.233 543.5 Q732.18 596 699.652 636.5 Q667.125 677 619.072 701 Q571.019 725 513.019 725 L359.019 725 Q348.019 725 340.098 717.5 Q332.177 710 330.826 699 L266.487 175 Q265.137 164 271.277 157 Q277.418 150 288.418 150 L442.418 150 Q499.418 150 552.803 173.5 Q606.189 197 649.1 237 Q692.011 277 720.273 328 Q748.535 379 755.411 435 Z M751.709 1260 L818.377 1184 L553.4 948 L346.377 1184 L431.709 1260 L547.501 1128 Q557.15 1117 573.65 1117 Q590.15 1117 602.501 1128 L676.605 1194 Q704.674 1219 727.691 1239.5 Q750.709 1260 751.709 1260 Z " />
<glyph glyph-name="Eacute" unicode="&#xc9;" horiz-adv-x="808" d="M310.567 534 Q309.094 522 316.111 514 Q323.129 506 334.129 506 L805.129 506 L788.553 371 L317.553 371 Q306.553 371 297.571 363 Q288.589 355 287.238 344 L264.891 162 Q263.54 151 270.558 143 Q277.576 135 288.576 135 L759.576 135 L743 0 L95 0 L202.436 875 L850.314 874 L833.615 738 L362.615 738 Q351.615 738 342.571 729.5 Q333.528 721 332.177 710 L310.567 534 Z M510.521 1006 L393.521 1006 L623.672 1333 L731.217 1256 L510.521 1006 Z " />
<glyph glyph-name="Ebreve" unicode="&#x114;" horiz-adv-x="808" d="M310.567 534 Q309.094 522 316.111 514 Q323.129 506 334.129 506 L805.129 506 L788.553 371 L369.553 371 Q358.553 371 344.992 370.5 Q331.43 370 319.185 368 Q306.939 366 297.702 360 Q288.466 354 287.238 344 L264.891 162 Q263.54 151 270.558 143 Q277.576 135 288.576 135 L759.576 135 L743 0 L95 0 L202.436 875 Q365.436 875 526.375 874.5 Q687.314 874 850.314 874 L833.615 738 L362.615 738 Q351.615 738 342.571 729.5 Q333.528 721 332.177 710 L310.567 534 Z M613.272 1175 L729.272 1175 Q724.606 1137 706.616 1104.5 Q688.625 1072 660.555 1047 Q632.486 1022 597.767 1008 Q563.048 994 526.048 994 Q488.048 994 456.767 1008 Q425.486 1022 404.055 1047 Q382.625 1072 372.116 1104.5 Q361.606 1137 366.272 1175 L483.272 1175 Q479.957 1148 496.624 1129 Q513.291 1110 540.168 1109 Q566.168 1109 588.124 1129 Q610.079 1149 613.272 1175 Z " />
<glyph glyph-name="Ecaron" unicode="&#x11a;" horiz-adv-x="808" d="M310.567 534 Q309.094 522 316.111 514 Q323.129 506 334.129 506 L805.129 506 L788.553 371 L317.553 371 Q306.553 371 297.571 363 Q288.589 355 287.238 344 L264.891 162 Q263.54 151 270.558 143 Q277.576 135 288.576 135 L759.576 135 L743 0 L95 0 L202.436 875 L850.314 874 L833.615 738 L362.615 738 Q351.615 738 342.571 729.5 Q333.528 721 332.177 710 L310.567 534 Z M718.709 1260 L785.377 1184 L520.4 948 L313.377 1184 L398.709 1260 L514.501 1128 Q524.15 1117 540.65 1117 Q557.15 1117 569.501 1128 L643.605 1194 Q671.674 1219 694.691 1239.5 Q717.709 1260 718.709 1260 Z " />
<glyph glyph-name="Ecircumflex" unicode="&#xca;" horiz-adv-x="808" d="M310.567 534 Q309.094 522 316.111 514 Q323.129 506 334.129 506 L805.129 506 L788.553 371 L317.553 371 Q306.553 371 297.571 363 Q288.589 355 287.238 344 L264.891 162 Q263.54 151 270.558 143 Q277.576 135 288.576 135 L759.576 135 L743 0 L95 0 L202.436 875 L850.314 874 L833.615 738 L362.615 738 Q351.615 738 342.571 729.5 Q333.528 721 332.177 710 L310.567 534 Z M679.4 948 L563.607 1080 Q553.958 1091 537.458 1091 Q520.958 1091 508.607 1080 L360.4 948 L293.731 1024 L558.709 1260 L765.731 1024 L680.4 948 L679.4 948 Z " />
<glyph glyph-name="Edieresis" unicode="&#xcb;" horiz-adv-x="808" d="M310.567 534 Q309.094 522 316.111 514 Q323.129 506 334.129 506 L805.129 506 L788.553 371 L317.553 371 Q306.553 371 297.571 363 Q288.589 355 287.238 344 L264.891 162 Q263.54 151 270.558 143 Q277.576 135 288.576 135 L759.576 135 L743 0 L95 0 L202.436 875 L850.314 874 L833.615 738 L362.615 738 Q351.615 738 342.571 729.5 Q333.528 721 332.177 710 L310.567 534 Z M770.853 1082 Q766.555 1047 739.109 1023 Q711.662 999 676.662 999 Q642.662 999 621.109 1023 Q599.555 1047 603.853 1082 Q608.15 1117 635.597 1141 Q663.044 1165 697.044 1165 Q732.044 1165 753.597 1141 Q775.15 1117 770.853 1082 Z M468.853 1082 Q464.555 1047 437.109 1023 Q409.662 999 374.662 999 Q340.662 999 319.109 1023 Q297.555 1047 301.853 1082 Q306.15 1117 333.597 1141 Q361.044 1165 395.044 1165 Q430.044 1165 451.597 1141 Q473.15 1117 468.853 1082 Z " />
<glyph glyph-name="Edotaccent" unicode="&#x116;" horiz-adv-x="808" d="M310.567 534 Q309.094 522 316.111 514 Q323.129 506 334.129 506 L805.129 506 L788.553 371 L317.553 371 Q306.553 371 297.571 363 Q288.589 355 287.238 344 L264.891 162 Q263.54 151 270.558 143 Q277.576 135 288.576 135 L759.576 135 L743 0 L95 0 L202.436 875 L850.314 874 L833.615 738 L362.615 738 Q351.615 738 342.571 729.5 Q333.528 721 332.177 710 L310.567 534 Z M616.169 1052 Q611.872 1017 584.425 993 Q556.978 969 521.978 969 Q487.978 969 466.425 993 Q444.872 1017 449.169 1052 Q453.467 1087 480.914 1111 Q508.36 1135 542.36 1135 Q577.36 1135 598.914 1111 Q620.467 1087 616.169 1052 Z " />
<glyph glyph-name="Egrave" unicode="&#xc8;" horiz-adv-x="808" d="M310.567 534 Q309.094 522 316.111 514 Q323.129 506 334.129 506 L805.129 506 L788.553 371 L317.553 371 Q306.553 371 297.571 363 Q288.589 355 287.238 344 L264.891 162 Q263.54 151 270.558 143 Q277.576 135 288.576 135 L759.576 135 L743 0 L95 0 L202.436 875 L850.314 874 L833.615 738 L362.615 738 Q351.615 738 342.571 729.5 Q333.528 721 332.177 710 L310.567 534 Z M343.954 1262 L484.391 1347 L641.521 1006 L507.521 1006 L343.954 1262 Z " />
<glyph glyph-name="Emacron" unicode="&#x112;" horiz-adv-x="808" d="M310.567 534 Q309.094 522 316.111 514 Q323.129 506 334.129 506 L805.129 506 L788.553 371 L317.553 371 Q306.553 371 297.571 363 Q288.589 355 287.238 344 L264.891 162 Q263.54 151 270.558 143 Q277.576 135 288.576 135 L759.576 135 L743 0 L95 0 L202.436 875 L850.314 874 L833.615 738 L362.615 738 Q351.615 738 342.571 729.5 Q333.528 721 332.177 710 L310.567 534 Z M317.205 1036 L332.676 1162 L759.676 1162 L744.205 1036 L317.205 1036 Z " />
<glyph glyph-name="Eogonek" unicode="&#x118;" horiz-adv-x="808" d="M718.689 -198 Q682.76 -230 645.234 -246.5 Q607.708 -263 570.708 -263 Q532.708 -263 500.988 -248.5 Q469.268 -234 447.399 -208.5 Q425.53 -183 415.144 -149.5 Q404.757 -116 409.423 -78 Q414.703 -35 439 0 L95 0 L202.436 875 L850.314 874 L833.615 738 L362.615 738 Q351.615 738 342.571 729.5 Q333.528 721 332.177 710 L310.567 534 Q309.094 522 316.111 514 Q323.129 506 334.129 506 L805.129 506 L788.553 371 L317.553 371 Q306.553 371 297.571 363 Q288.589 355 287.238 344 L264.891 162 Q263.54 151 270.558 143 Q277.576 135 288.576 135 L759.576 135 L743 0 L606 0 Q570.877 -1 544.176 -23 Q517.475 -45 513.546 -77 Q509.616 -109 529.415 -131 Q549.214 -153 581.214 -153 Q596.214 -153 613.135 -145.5 Q630.056 -138 645.775 -124 L718.689 -198 Z " />
<glyph glyph-name="Hcircumflex" unicode="&#x124;" horiz-adv-x="974" d="M798.567 534 L840.436 875 L986.436 875 L879 0 L733 0 L775.115 343 Q776.466 354 769.509 362.5 Q762.553 371 751.553 371 L313.553 371 Q302.553 371 293.509 362.5 Q284.466 354 283.115 343 L241 0 L95 0 L202.436 875 L348.436 875 L306.567 534 Q305.216 523 312.173 514.5 Q319.129 506 330.129 506 L768.129 506 Q779.129 506 788.173 514.5 Q797.216 523 798.567 534 Z M762.4 948 L646.607 1080 Q636.958 1091 620.458 1091 Q603.958 1091 591.607 1080 L443.4 948 L376.731 1024 L641.709 1260 L848.731 1024 L763.4 948 L762.4 948 Z " />
<glyph glyph-name="Iacute" unicode="&#xcd;" horiz-adv-x="406" d="M130 0 L237.436 875 L383.436 875 L276 0 L130 0 Z M350.521 1006 L232.521 1006 L463.672 1333 L571.217 1256 L350.521 1006 Z " />
<glyph glyph-name="Ibreve" unicode="&#x12c;" horiz-adv-x="406" d="M130 0 L237.436 875 L383.436 875 L276 0 L130 0 Z M339.168 1109 Q365.291 1110 387.124 1129 Q408.957 1148 412.272 1175 L528.272 1175 Q523.606 1137 505.616 1104.5 Q487.625 1072 459.555 1047 Q431.486 1022 396.767 1008 Q362.048 994 325.048 994 Q287.048 994 255.767 1008 Q224.486 1022 203.055 1047 Q181.625 1072 171.116 1104.5 Q160.606 1137 165.272 1175 L282.272 1175 Q278.957 1148 295.624 1129 Q312.291 1110 339.168 1109 Z " />
<glyph glyph-name="Icircumflex" unicode="&#xce;" horiz-adv-x="406" d="M130 0 L237.436 875 L383.436 875 L276 0 L130 0 Z M478.4 948 L362.607 1080 Q352.958 1091 336.458 1091 Q319.958 1091 307.607 1080 L159.4 948 L92.7314 1024 L357.709 1260 L564.731 1024 L479.4 948 L478.4 948 Z " />
<glyph glyph-name="Idieresis" unicode="&#xcf;" horiz-adv-x="406" d="M130 0 L237.436 875 L383.436 875 L276 0 L130 0 Z M267.853 1082 Q263.555 1047 236.109 1023 Q208.662 999 173.662 999 Q139.662 999 118.109 1023 Q96.5554 1047 100.853 1082 Q105.15 1117 132.597 1141 Q160.044 1165 194.044 1165 Q229.044 1165 250.597 1141 Q272.15 1117 267.853 1082 Z M569.853 1082 Q565.555 1047 538.109 1023 Q510.662 999 475.662 999 Q441.662 999 420.109 1023 Q398.555 1047 402.853 1082 Q407.15 1117 434.597 1141 Q462.044 1165 496.044 1165 Q531.044 1165 552.597 1141 Q574.15 1117 569.853 1082 Z " />
<glyph glyph-name="Idotaccent" unicode="&#x130;" horiz-adv-x="406" d="M130 0 L237.436 875 L383.436 875 L276 0 L130 0 Z M415.169 1052 Q410.872 1017 383.425 993 Q355.978 969 320.978 969 Q286.978 969 265.425 993 Q243.872 1017 248.169 1052 Q252.467 1087 279.914 1111 Q307.36 1135 341.36 1135 Q376.36 1135 397.914 1111 Q419.467 1087 415.169 1052 Z " />
<glyph glyph-name="Igrave" unicode="&#xcc;" horiz-adv-x="406" d="M130 0 L237.436 875 L383.436 875 L276 0 L130 0 Z M132.954 1262 L273.391 1347 L430.521 1006 L296.521 1006 L132.954 1262 Z " />
<glyph glyph-name="Imacron" unicode="&#x12a;" horiz-adv-x="406" d="M130 0 L237.436 875 L383.436 875 L276 0 L130 0 Z M117.205 1036 L132.676 1162 L559.676 1162 L544.205 1036 L117.205 1036 Z " />
<glyph glyph-name="Iogonek" unicode="&#x12e;" horiz-adv-x="406" d="M270.689 -198 Q235.76 -230 197.734 -246.5 Q159.708 -263 122.708 -263 Q84.7077 -263 52.988 -248.5 Q21.2684 -234 -0.600581 -208.5 Q-22.4696 -183 -32.8563 -149.5 Q-43.243 -116 -38.5772 -78 Q-34.4025 -44 -18.6576 -13.5 Q-2.91266 17 21.0342 41 Q44.981 65 75.8842 80.5 Q106.787 96 142.401 101 L237.436 875 L383.436 875 L276 0 L159 0 Q123.877 -1 97.176 -23 Q70.4747 -45 66.5456 -77 Q62.6165 -109 81.9152 -131 Q101.214 -153 133.214 -153 Q165.214 -153 197.775 -124 L270.689 -198 Z " />
<glyph glyph-name="Itilde" unicode="&#x128;" horiz-adv-x="406" d="M130 0 L237.436 875 L383.436 875 L276 0 L130 0 Z M125.693 1154 Q166.359 1192 203.85 1196 Q241.341 1200 275.807 1187.5 Q310.272 1175 344.132 1153.5 Q377.992 1132 412.957 1119.5 Q447.923 1107 484.914 1111 Q521.905 1115 563.571 1153 L547.731 1024 Q506.066 986 469.574 982 Q433.083 978 397.618 990.5 Q362.153 1003 328.293 1024.5 Q294.433 1046 259.967 1058.5 Q225.502 1071 188.011 1067 Q150.52 1063 109.854 1025 L125.693 1154 Z " />
<glyph glyph-name="Kcommaaccent" unicode="&#x136;" horiz-adv-x="926" d="M993.436 875 L553.78 438 L886 0 L704 0 L430.834 357 Q421.553 371 403.553 371 L313.553 371 Q302.553 371 293.509 362.5 Q284.466 354 283.115 343 L241 0 L95 0 L202.436 875 L348.436 875 L306.567 534 Q305.216 523 312.173 514.5 Q319.129 506 330.129 506 L422.129 506 Q440.129 506 453.848 520 L810.436 875 L993.436 875 Z M379.565 -142 L510.565 -142 L454.062 -423 L345.062 -423 L379.565 -142 Z " />
<glyph glyph-name="Lcaron" unicode="&#x13d;" horiz-adv-x="759" d="M352.436 875 L266.856 178 Q264.4 158 273.988 146.5 Q283.576 135 303.576 135 L740.576 135 L724 0 L95 0 L202.436 875 L352.436 875 Z M644.509 786 L775.509 786 L719.006 505 L610.006 505 L644.509 786 Z " />
<glyph glyph-name="AEacute" unicode="&#x1fc;" horiz-adv-x="1177" d="M1219.31 874 L1202.62 738 L777.615 738 Q766.615 738 757.571 729.5 Q748.528 721 747.177 710 L725.567 534 Q724.094 522 731.111 514 Q738.129 506 749.129 506 L1174.13 506 L1157.55 371 L732.553 371 Q721.553 371 712.571 363 Q703.589 355 702.238 344 L679.891 162 Q678.54 151 685.558 143 Q692.576 135 703.576 135 L1128.58 135 L1112 0 L514 0 L547.029 269 L366.029 269 Q352.029 269 339.108 261.5 Q326.187 254 319.591 241 L182 0 L30 0 L530.436 875 L784.436 875 L1219.31 874 Z M561.518 387 L604.615 738 L404.518 387 L561.518 387 Z M754.521 1006 L636.521 1006 L867.672 1333 L975.217 1256 L754.521 1006 Z " />
<glyph glyph-name="Dcroat" unicode="&#x110;" horiz-adv-x="917" d="M19.0619 367 L34.5328 493 L155.533 493 L202.436 875 L522.436 875 Q612.436 875 688.2 840.5 Q763.964 806 815.659 746.5 Q867.353 687 892.03 607 Q916.707 527 905.657 437 Q894.606 347 850.283 267 Q805.961 187 739.716 128 Q673.472 69 589.236 34.5 Q505 0 415 0 L95 0 L140.062 367 L19.0619 367 Z M755.411 435 Q762.287 491 747.233 543.5 Q732.18 596 699.652 636.5 Q667.125 677 619.072 701 Q571.019 725 513.019 725 L359.019 725 Q348.019 725 340.098 717.5 Q332.177 710 330.826 699 L305.533 493 L461.533 493 L446.062 367 L290.062 367 L266.487 175 Q265.137 164 271.277 157 Q277.418 150 288.418 150 L442.418 150 Q499.418 150 552.803 173.5 Q606.189 197 649.1 237 Q692.011 277 720.273 328 Q748.535 379 755.411 435 Z " />
<glyph glyph-name="Gbreve" unicode="&#x11e;" horiz-adv-x="1035" d="M554.323 475 L1012.32 475 L954 0 L825 0 L845.382 166 Q816.716 128 776.91 97 Q737.104 66 691.964 44.5 Q646.824 23 596.912 11.5 Q547 0 497 0 Q407 0 331.175 34 Q255.349 68 203.655 127.5 Q151.961 187 127.222 266.5 Q102.483 346 113.657 437 Q124.707 527 169.03 607 Q213.353 687 279.597 746 Q345.842 805 430.078 839.5 Q514.314 874 604.314 874 Q695.314 874 770.139 840 Q844.964 806 897.597 746 L777.459 639 Q743.125 677 694.449 700 Q645.773 723 585.773 723 Q526.773 723 472.011 700.5 Q417.248 678 373.459 639 Q329.671 600 300.786 548 Q271.901 496 264.657 437 Q257.29 377 271.537 322 Q285.783 267 320.627 225 Q355.47 183 411.023 159 Q466.576 135 540.944 138 Q595.067 139 643.9 158 Q692.733 177 732.294 206 Q771.854 235 798.836 271.5 Q825.818 308 836.361 345 L538.361 345 L554.323 475 Z M726.272 1175 L843.272 1175 Q838.606 1137 820.116 1104.5 Q801.625 1072 774.055 1047 Q746.486 1022 711.267 1008 Q676.048 994 639.048 994 Q601.048 994 570.267 1008 Q539.486 1022 517.555 1047 Q495.625 1072 485.616 1104.5 Q475.606 1137 480.272 1175 L596.272 1175 Q592.957 1148 610.062 1128.5 Q627.168 1109 654.168 1109 Q680.291 1110 701.685 1129.5 Q723.079 1149 726.272 1175 Z " />
<glyph glyph-name="Gcircumflex" unicode="&#x11c;" horiz-adv-x="1035" d="M554.323 475 L1012.32 475 L954 0 L825 0 L845.382 166 Q816.716 128 776.91 97 Q737.104 66 691.964 44.5 Q646.824 23 596.912 11.5 Q547 0 497 0 Q407 0 331.175 34 Q255.349 68 203.655 127.5 Q151.961 187 127.222 266.5 Q102.483 346 113.657 437 Q124.707 527 169.03 607 Q213.353 687 279.597 746 Q345.842 805 430.078 839.5 Q514.314 874 604.314 874 Q695.314 874 770.139 840 Q844.964 806 897.597 746 L777.459 639 Q743.125 677 694.449 700 Q645.773 723 585.773 723 Q526.773 723 472.011 700.5 Q417.248 678 373.459 639 Q329.671 600 300.786 548 Q271.901 496 264.657 437 Q257.29 377 271.537 322 Q285.783 267 320.627 225 Q355.47 183 411.023 159 Q466.576 135 540.944 138 Q595.067 139 643.9 158 Q692.733 177 732.294 206 Q771.854 235 798.836 271.5 Q825.818 308 836.361 345 L538.361 345 L554.323 475 Z M792.4 948 L688.888 1066 Q682.748 1073 674.985 1079 Q667.221 1085 658.59 1088 Q649.958 1091 640.835 1090 Q631.712 1089 621.607 1080 L473.4 948 L406.731 1024 L671.709 1260 L878.731 1024 L793.4 948 L792.4 948 Z " />
<glyph glyph-name="Gcommaaccent" unicode="&#x122;" horiz-adv-x="1035" d="M554.323 475 L1012.32 475 L954 0 L825 0 L845.382 166 Q816.716 128 776.91 97 Q737.104 66 691.964 44.5 Q646.824 23 596.912 11.5 Q547 0 497 0 Q407 0 331.175 34 Q255.349 68 203.655 127.5 Q151.961 187 127.222 266.5 Q102.483 346 113.657 437 Q124.707 527 169.03 607 Q213.353 687 279.597 746 Q345.842 805 430.078 839.5 Q514.314 874 604.314 874 Q695.314 874 770.139 840 Q844.964 806 897.597 746 L777.459 639 Q743.125 677 694.449 700 Q645.773 723 585.773 723 Q526.773 723 472.011 700.5 Q417.248 678 373.459 639 Q329.671 600 300.786 548 Q271.901 496 264.657 437 Q257.29 377 271.537 322 Q285.783 267 320.627 225 Q355.47 183 411.023 159 Q466.576 135 540.944 138 Q595.067 139 643.9 158 Q692.733 177 732.294 206 Q771.854 235 798.836 271.5 Q825.818 308 836.361 345 L538.361 345 L554.323 475 Z M434.565 -142 L565.565 -142 L509.062 -423 L400.062 -423 L434.565 -142 Z " />
<glyph glyph-name="Gdotaccent" unicode="&#x120;" horiz-adv-x="1035" d="M554.323 475 L1012.32 475 L954 0 L825 0 L845.382 166 Q816.716 128 776.91 97 Q737.104 66 691.964 44.5 Q646.824 23 596.912 11.5 Q547 0 497 0 Q407 0 331.175 34 Q255.349 68 203.655 127.5 Q151.961 187 127.222 266.5 Q102.483 346 113.657 437 Q124.707 527 169.03 607 Q213.353 687 279.597 746 Q345.842 805 430.078 839.5 Q514.314 874 604.314 874 Q695.314 874 770.139 840 Q844.964 806 897.597 746 L777.459 639 Q743.125 677 694.449 700 Q645.773 723 585.773 723 Q526.773 723 472.011 700.5 Q417.248 678 373.459 639 Q329.671 600 300.786 548 Q271.901 496 264.657 437 Q257.29 377 271.537 322 Q285.783 267 320.627 225 Q355.47 183 411.023 159 Q466.576 135 540.944 138 Q595.067 139 643.9 158 Q692.733 177 732.294 206 Q771.854 235 798.836 271.5 Q825.818 308 836.361 345 L538.361 345 L554.323 475 Z M730.169 1052 Q725.872 1017 698.425 993 Q670.978 969 635.978 969 Q601.978 969 580.425 993 Q558.872 1017 563.169 1052 Q567.467 1087 594.914 1111 Q622.36 1135 656.36 1135 Q691.36 1135 712.914 1111 Q734.467 1087 730.169 1052 Z " />
<glyph glyph-name="Nacute" unicode="&#x143;" horiz-adv-x="1019" d="M801.749 226 L881.436 875 L1031.44 875 L924 0 L781 0 L326.547 656 L246 0 L95 0 L202.436 875 L346.436 875 L801.749 226 Z M676.521 1006 L558.521 1006 L789.672 1333 L897.217 1256 L676.521 1006 Z " />
<glyph glyph-name="Ncaron" unicode="&#x147;" horiz-adv-x="1019" d="M801.749 226 L881.436 875 L1031.44 875 L924 0 L781 0 L326.547 656 L246 0 L95 0 L202.436 875 L346.436 875 L801.749 226 Z M823.709 1260 L890.377 1184 L625.4 948 L418.377 1184 L503.709 1260 L619.501 1128 Q629.15 1117 645.65 1117 Q662.15 1117 674.501 1128 L748.605 1194 Q776.674 1219 799.691 1239.5 Q822.709 1260 823.709 1260 Z " />
<glyph glyph-name="Ncommaaccent" unicode="&#x145;" horiz-adv-x="1019" d="M801.749 226 L881.436 875 L1031.44 875 L924 0 L781 0 L326.547 656 L246 0 L95 0 L202.436 875 L346.436 875 L801.749 226 Z M426.565 -142 L557.565 -142 L501.062 -423 L392.062 -423 L426.565 -142 Z " />
<glyph glyph-name="Ntilde" unicode="&#xd1;" horiz-adv-x="1019" d="M801.749 226 L881.436 875 L1031.44 875 L924 0 L781 0 L326.547 656 L246 0 L95 0 L202.436 875 L346.436 875 L801.749 226 Z M431.693 1154 Q472.359 1192 509.85 1196 Q547.341 1200 581.807 1187.5 Q616.272 1175 650.132 1153.5 Q683.992 1132 718.957 1119.5 Q753.923 1107 790.914 1111 Q827.905 1115 869.571 1153 L853.731 1024 Q812.066 986 775.574 982 Q739.083 978 703.618 990.5 Q668.153 1003 634.293 1024.5 Q600.433 1046 565.967 1058.5 Q531.502 1071 494.011 1067 Q456.52 1063 415.854 1025 L431.693 1154 Z " />
<glyph glyph-name="Oacute" unicode="&#xd3;" horiz-adv-x="994" d="M515.295 149 Q574.295 149 629.558 171.5 Q684.82 194 728.609 233 Q772.397 272 801.844 324.5 Q831.29 377 838.657 437 Q845.901 496 829.347 548.5 Q812.794 601 778.582 640 Q744.371 679 694.633 701.5 Q644.896 724 585.896 724 Q525.896 724 471.133 701.5 Q416.371 679 372.582 640 Q328.794 601 299.847 548.5 Q270.901 496 263.657 437 Q256.29 377 272.344 324.5 Q288.397 272 322.609 233 Q356.82 194 406.058 171.5 Q455.295 149 515.295 149 Z M604.314 874 Q695.314 874 770.578 839.5 Q845.842 805 897.597 746 Q949.353 687 974.03 607 Q998.707 527 987.657 437 Q976.483 346 932.222 266.5 Q887.961 187 821.655 127.5 Q755.349 68 671.675 34 Q588 0 497 0 Q407 0 331.175 34 Q255.349 68 203.655 127.5 Q151.961 187 127.222 266.5 Q102.483 346 113.657 437 Q124.707 527 169.03 607 Q213.353 687 279.597 746 Q345.842 805 430.078 839.5 Q514.314 874 604.314 874 Z M663.521 1006 L546.521 1006 L776.672 1333 L884.217 1256 L663.521 1006 Z " />
<glyph glyph-name="Obreve" unicode="&#x14e;" horiz-adv-x="994" d="M604.314 874 Q695.314 874 770.578 839.5 Q845.842 805 897.597 746 Q949.353 687 974.03 607 Q998.707 527 987.657 437 Q976.483 346 932.222 266.5 Q887.961 187 821.655 127.5 Q755.349 68 671.675 34 Q588 0 497 0 Q407 0 331.175 34 Q255.349 68 203.655 127.5 Q151.961 187 127.222 266.5 Q102.483 346 113.657 437 Q124.707 527 169.03 607 Q213.353 687 279.597 746 Q345.842 805 430.078 839.5 Q514.314 874 604.314 874 Z M515.295 149 Q574.295 149 629.558 171.5 Q684.82 194 728.609 233 Q772.397 272 801.844 324.5 Q831.29 377 838.657 437 Q845.901 496 829.347 548.5 Q812.794 601 778.582 640 Q744.371 679 694.633 701.5 Q644.896 724 585.896 724 Q525.896 724 471.133 701.5 Q416.371 679 372.582 640 Q328.794 601 299.847 548.5 Q270.901 496 263.657 437 Q256.29 377 272.344 324.5 Q288.397 272 322.609 233 Q356.82 194 406.058 171.5 Q455.295 149 515.295 149 Z M706.272 1175 L822.272 1175 Q817.606 1137 799.616 1104.5 Q781.625 1072 753.555 1047 Q725.486 1022 690.767 1008 Q656.048 994 619.048 994 Q581.048 994 549.767 1008 Q518.486 1022 497.055 1047 Q475.625 1072 465.116 1104.5 Q454.606 1137 459.272 1175 L576.272 1175 Q572.957 1148 590.062 1128.5 Q607.168 1109 634.168 1109 Q660.291 1110 681.624 1129 Q702.957 1148 706.272 1175 Z " />
<glyph glyph-name="Ocircumflex" unicode="&#xd4;" horiz-adv-x="994" d="M604.314 874 Q695.314 874 770.578 839.5 Q845.842 805 897.597 746 Q949.353 687 974.03 607 Q998.707 527 987.657 437 Q976.483 346 932.222 266.5 Q887.961 187 821.655 127.5 Q755.349 68 671.675 34 Q588 0 497 0 Q407 0 331.175 34 Q255.349 68 203.655 127.5 Q151.961 187 127.222 266.5 Q102.483 346 113.657 437 Q124.707 527 169.03 607 Q213.353 687 279.597 746 Q345.842 805 430.078 839.5 Q514.314 874 604.314 874 Z M515.295 149 Q574.295 149 629.558 171.5 Q684.82 194 728.609 233 Q772.397 272 801.844 324.5 Q831.29 377 838.657 437 Q845.901 496 829.347 548.5 Q812.794 601 778.582 640 Q744.371 679 694.633 701.5 Q644.896 724 585.896 724 Q525.896 724 471.133 701.5 Q416.371 679 372.582 640 Q328.794 601 299.847 548.5 Q270.901 496 263.657 437 Q256.29 377 272.344 324.5 Q288.397 272 322.609 233 Q356.82 194 406.058 171.5 Q455.295 149 515.295 149 Z M772.4 948 L656.607 1080 Q646.958 1091 630.458 1091 Q613.958 1091 601.607 1080 L453.4 948 L386.731 1024 L651.709 1260 L858.731 1024 L773.4 948 L772.4 948 Z " />
<glyph glyph-name="Odieresis" unicode="&#xd6;" horiz-adv-x="994" d="M515.295 149 Q574.295 149 629.558 171.5 Q684.82 194 728.609 233 Q772.397 272 801.844 324.5 Q831.29 377 838.657 437 Q845.901 496 829.347 548.5 Q812.794 601 778.582 640 Q744.371 679 694.633 701.5 Q644.896 724 585.896 724 Q525.896 724 471.133 701.5 Q416.371 679 372.582 640 Q328.794 601 299.847 548.5 Q270.901 496 263.657 437 Q256.29 377 272.344 324.5 Q288.397 272 322.609 233 Q356.82 194 406.058 171.5 Q455.295 149 515.295 149 Z M604.314 874 Q695.314 874 770.578 839.5 Q845.842 805 897.597 746 Q949.353 687 974.03 607 Q998.707 527 987.657 437 Q976.483 346 932.222 266.5 Q887.961 187 821.655 127.5 Q755.349 68 671.675 34 Q588 0 497 0 Q407 0 331.175 34 Q255.349 68 203.655 127.5 Q151.961 187 127.222 266.5 Q102.483 346 113.657 437 Q124.707 527 169.03 607 Q213.353 687 279.597 746 Q345.842 805 430.078 839.5 Q514.314 874 604.314 874 Z M863.853 1082 Q859.555 1047 832.109 1023 Q804.662 999 769.662 999 Q735.662 999 714.109 1023 Q692.555 1047 696.853 1082 Q701.15 1117 728.597 1141 Q756.044 1165 790.044 1165 Q825.044 1165 846.597 1141 Q868.15 1117 863.853 1082 Z M561.853 1082 Q557.555 1047 530.109 1023 Q502.662 999 467.662 999 Q433.662 999 412.109 1023 Q390.555 1047 394.853 1082 Q399.15 1117 426.597 1141 Q454.044 1165 488.044 1165 Q523.044 1165 544.597 1141 Q566.15 1117 561.853 1082 Z " />
<glyph glyph-name="Ograve" unicode="&#xd2;" horiz-adv-x="994" d="M515.295 149 Q574.295 149 629.558 171.5 Q684.82 194 728.609 233 Q772.397 272 801.844 324.5 Q831.29 377 838.657 437 Q845.901 496 829.347 548.5 Q812.794 601 778.582 640 Q744.371 679 694.633 701.5 Q644.896 724 585.896 724 Q525.896 724 471.133 701.5 Q416.371 679 372.582 640 Q328.794 601 299.847 548.5 Q270.901 496 263.657 437 Q256.29 377 272.344 324.5 Q288.397 272 322.609 233 Q356.82 194 406.058 171.5 Q455.295 149 515.295 149 Z M604.314 874 Q695.314 874 770.578 839.5 Q845.842 805 897.597 746 Q949.353 687 974.03 607 Q998.707 527 987.657 437 Q976.483 346 932.222 266.5 Q887.961 187 821.655 127.5 Q755.349 68 671.675 34 Q588 0 497 0 Q407 0 331.175 34 Q255.349 68 203.655 127.5 Q151.961 187 127.222 266.5 Q102.483 346 113.657 437 Q124.707 527 169.03 607 Q213.353 687 279.597 746 Q345.842 805 430.078 839.5 Q514.314 874 604.314 874 Z M406.954 1262 L547.391 1347 L704.521 1006 L570.521 1006 L406.954 1262 Z " />
<glyph glyph-name="hungarumlaut" unicode="&#x2dd;" horiz-adv-x="575" d="M320.521 1006 L203.521 1006 L433.672 1333 L541.217 1256 L320.521 1006 Z M588.521 1006 L470.521 1006 L701.672 1333 L809.217 1256 L588.521 1006 Z " />
<glyph glyph-name="Ohungarumlaut" unicode="&#x150;" horiz-adv-x="994" d="M515.295 149 Q574.295 149 629.558 171.5 Q684.82 194 728.609 233 Q772.397 272 801.844 324.5 Q831.29 377 838.657 437 Q845.901 496 829.347 548.5 Q812.794 601 778.582 640 Q744.371 679 694.633 701.5 Q644.896 724 585.896 724 Q525.896 724 471.133 701.5 Q416.371 679 372.582 640 Q328.794 601 299.847 548.5 Q270.901 496 263.657 437 Q256.29 377 272.344 324.5 Q288.397 272 322.609 233 Q356.82 194 406.058 171.5 Q455.295 149 515.295 149 Z M604.314 874 Q695.314 874 770.578 839.5 Q845.842 805 897.597 746 Q949.353 687 974.03 607 Q998.707 527 987.657 437 Q976.483 346 932.222 266.5 Q887.961 187 821.655 127.5 Q755.349 68 671.675 34 Q588 0 497 0 Q407 0 331.175 34 Q255.349 68 203.655 127.5 Q151.961 187 127.222 266.5 Q102.483 346 113.657 437 Q124.707 527 169.03 607 Q213.353 687 279.597 746 Q345.842 805 430.078 839.5 Q514.314 874 604.314 874 Z M530.521 1006 L412.521 1006 L643.672 1333 L751.217 1256 L530.521 1006 Z M797.521 1006 L680.521 1006 L910.672 1333 L1018.22 1256 L797.521 1006 Z " />
<glyph glyph-name="Omacron" unicode="&#x14c;" horiz-adv-x="994" d="M604.314 874 Q695.314 874 770.578 839.5 Q845.842 805 897.597 746 Q949.353 687 974.03 607 Q998.707 527 987.657 437 Q976.483 346 932.222 266.5 Q887.961 187 821.655 127.5 Q755.349 68 671.675 34 Q588 0 497 0 Q407 0 331.175 34 Q255.349 68 203.655 127.5 Q151.961 187 127.222 266.5 Q102.483 346 113.657 437 Q124.707 527 169.03 607 Q213.353 687 279.597 746 Q345.842 805 430.078 839.5 Q514.314 874 604.314 874 Z M515.295 149 Q574.295 149 629.558 171.5 Q684.82 194 728.609 233 Q772.397 272 801.844 324.5 Q831.29 377 838.657 437 Q845.901 496 829.347 548.5 Q812.794 601 778.582 640 Q744.371 679 694.633 701.5 Q644.896 724 585.896 724 Q525.896 724 471.133 701.5 Q416.371 679 372.582 640 Q328.794 601 299.847 548.5 Q270.901 496 263.657 437 Q256.29 377 272.344 324.5 Q288.397 272 322.609 233 Q356.82 194 406.058 171.5 Q455.295 149 515.295 149 Z M410.205 1036 L425.676 1162 L852.676 1162 L837.205 1036 L410.205 1036 Z " />
<glyph glyph-name="backslash" unicode="&#x5c;" horiz-adv-x="518" d="M399.97 -212 L97.8187 1041 L225.835 1090 L527.986 -163 L399.97 -212 Z " />
<glyph glyph-name="Oslash" unicode="&#xd8;" horiz-adv-x="994" d="M225.194 -31 L275.981 65 Q232.419 93 198.769 132.5 Q165.119 172 144.013 220 Q122.906 268 114.659 323 Q106.413 378 113.657 437 Q124.707 527 169.03 607 Q213.353 687 279.597 746 Q345.842 805 430.078 839.5 Q514.314 874 604.314 874 Q654.314 874 703.595 860 L762.101 970 L866.312 931 L806.561 819 Q854.245 792 891.334 752 Q928.423 712 952.345 662.5 Q976.267 613 985.768 556 Q995.269 499 987.657 437 Q976.483 346 932.222 266.5 Q887.961 187 821.655 127.5 Q755.349 68 671.675 34 Q588 0 497 0 Q432 0 377.21 18 L330.405 -70 L225.194 -31 Z M515.295 149 Q574.295 149 629.558 171.5 Q684.82 194 728.609 233 Q772.397 272 801.844 324.5 Q831.29 377 838.657 437 Q848.111 514 817.908 577.5 Q787.705 641 730.125 677 L452.523 159 Q466.909 154 482.602 151.5 Q498.295 149 515.295 149 Z M263.657 437 Q254.816 365 279.572 306 Q304.328 247 353.785 210 L624.791 715 Q585.528 721 543.791 715 Q491.054 709 443.107 685 Q395.161 661 357.618 624 Q320.075 587 295.181 539 Q270.287 491 263.657 437 Z " />
<glyph glyph-name="Oslashacute" unicode="&#x1fe;" horiz-adv-x="994" d="M225.194 -31 L275.981 65 Q232.419 93 198.769 132.5 Q165.119 172 144.013 220 Q122.906 268 114.659 323 Q106.413 378 113.657 437 Q124.707 527 169.03 607 Q213.353 687 279.597 746 Q345.842 805 430.078 839.5 Q514.314 874 604.314 874 Q654.314 874 703.595 860 L762.101 970 L866.312 931 L806.561 819 Q854.245 792 891.334 752 Q928.423 712 952.345 662.5 Q976.267 613 985.768 556 Q995.269 499 987.657 437 Q976.483 346 932.222 266.5 Q887.961 187 821.655 127.5 Q755.349 68 671.675 34 Q588 0 497 0 Q432 0 377.21 18 L330.405 -70 L225.194 -31 Z M583.521 1006 L466.521 1006 L696.672 1333 L804.217 1256 L583.521 1006 Z M515.295 149 Q574.295 149 629.558 171.5 Q684.82 194 728.609 233 Q772.397 272 801.844 324.5 Q831.29 377 838.657 437 Q848.111 514 817.908 577.5 Q787.705 641 730.125 677 L452.523 159 Q466.909 154 482.602 151.5 Q498.295 149 515.295 149 Z M263.657 437 Q254.816 365 279.572 306 Q304.328 247 353.785 210 L624.791 715 Q585.528 721 543.791 715 Q491.054 709 443.107 685 Q395.161 661 357.618 624 Q320.075 587 295.181 539 Q270.287 491 263.657 437 Z " />
<glyph glyph-name="Otilde" unicode="&#xd5;" horiz-adv-x="994" d="M604.314 874 Q695.314 874 770.578 839.5 Q845.842 805 897.597 746 Q949.353 687 974.03 607 Q998.707 527 987.657 437 Q976.483 346 932.222 266.5 Q887.961 187 821.655 127.5 Q755.349 68 671.675 34 Q588 0 497 0 Q407 0 331.175 34 Q255.349 68 203.655 127.5 Q151.961 187 127.222 266.5 Q102.483 346 113.657 437 Q124.707 527 169.03 607 Q213.353 687 279.597 746 Q345.842 805 430.078 839.5 Q514.314 874 604.314 874 Z M515.295 149 Q574.295 149 629.558 171.5 Q684.82 194 728.609 233 Q772.397 272 801.844 324.5 Q831.29 377 838.657 437 Q845.901 496 829.347 548.5 Q812.794 601 778.582 640 Q744.371 679 694.633 701.5 Q644.896 724 585.896 724 Q525.896 724 471.133 701.5 Q416.371 679 372.582 640 Q328.794 601 299.847 548.5 Q270.901 496 263.657 437 Q256.29 377 272.344 324.5 Q288.397 272 322.609 233 Q356.82 194 406.058 171.5 Q455.295 149 515.295 149 Z M419.693 1154 Q460.359 1192 497.35 1196 Q534.341 1200 569.307 1187.5 Q604.272 1175 638.132 1153.5 Q671.992 1132 706.957 1119.5 Q741.923 1107 778.414 1111 Q814.905 1115 856.571 1153 L840.731 1024 Q799.066 986 762.574 982 Q726.083 978 691.118 990.5 Q656.153 1003 622.293 1024.5 Q588.433 1046 553.467 1058.5 Q518.502 1071 481.511 1067 Q444.52 1063 403.854 1025 L419.693 1154 Z " />
<glyph glyph-name="Sacute" unicode="&#x15a;" horiz-adv-x="848" d="M273.74 625 Q268.706 584 291.444 561.5 Q314.181 539 354.146 526.5 Q394.111 514 446.436 508.5 Q498.761 503 552.84 495.5 Q606.919 488 658.384 475.5 Q709.849 463 748.157 437 Q786.464 411 806.623 367.5 Q826.782 324 818.31 255 Q809.347 182 767.33 133 Q725.314 84 666.692 54.5 Q608.07 25 542.535 12.5 Q477 0 420 0 Q381 0 339.614 5 Q298.228 10 258.14 21.5 Q218.052 33 183.446 52.5 Q148.84 72 123.84 100.5 Q98.8392 129 87.0664 167.5 Q75.2936 206 81.4328 256 L215.433 256 Q210.767 218 230.882 194.5 Q250.996 171 284.839 157.5 Q318.681 144 359.067 139 Q399.453 134 435.453 134 Q474.453 134 514.128 139.5 Q553.804 145 586.584 159.5 Q619.365 174 641.811 198 Q664.258 222 668.678 258 Q673.221 295 650.616 314.5 Q628.01 334 587.738 344 Q547.466 354 495.58 359 Q443.694 364 390.114 371.5 Q336.535 379 285.693 392.5 Q234.851 406 196.788 434 Q158.726 462 139.436 508.5 Q120.145 555 128.986 627 Q137.949 700 178.781 747.5 Q219.614 795 277.552 823 Q335.49 851 402.84 862 Q470.191 873 532.191 873 Q590.191 873 651.033 859.5 Q711.876 846 760.069 815 Q808.263 784 835.562 733.5 Q862.862 683 853.653 608 L719.653 608 Q724.073 644 705.643 669 Q687.212 694 655.616 709.5 Q624.019 725 585.317 731.5 Q546.615 738 510.615 738 Q471.615 738 431.062 733.5 Q390.51 729 356.975 716.5 Q323.44 704 300.739 682 Q278.038 660 273.74 625 Z M550.521 1006 L433.521 1006 L663.672 1333 L771.217 1256 L550.521 1006 Z " />
<glyph glyph-name="Scaron" unicode="&#x160;" horiz-adv-x="848" d="M273.74 625 Q268.706 584 291.444 561.5 Q314.181 539 354.146 526.5 Q394.111 514 446.436 508.5 Q498.761 503 552.84 495.5 Q606.919 488 658.384 475.5 Q709.849 463 748.157 437 Q786.464 411 806.623 367.5 Q826.782 324 818.31 255 Q809.347 182 767.33 133 Q725.314 84 666.692 54.5 Q608.07 25 542.535 12.5 Q477 0 420 0 Q381 0 339.614 5 Q298.228 10 258.14 21.5 Q218.052 33 183.446 52.5 Q148.84 72 123.84 100.5 Q98.8392 129 87.0664 167.5 Q75.2936 206 81.4328 256 L215.433 256 Q210.767 218 230.882 194.5 Q250.996 171 284.839 157.5 Q318.681 144 359.067 139 Q399.453 134 435.453 134 Q474.453 134 514.128 139.5 Q553.804 145 586.584 159.5 Q619.365 174 641.811 198 Q664.258 222 668.678 258 Q673.221 295 650.616 314.5 Q628.01 334 587.738 344 Q547.466 354 495.58 359 Q443.694 364 390.114 371.5 Q336.535 379 285.693 392.5 Q234.851 406 196.788 434 Q158.726 462 139.436 508.5 Q120.145 555 128.986 627 Q137.949 700 178.781 747.5 Q219.614 795 277.552 823 Q335.49 851 402.84 862 Q470.191 873 532.191 873 Q590.191 873 651.033 859.5 Q711.876 846 760.069 815 Q808.263 784 835.562 733.5 Q862.862 683 853.653 608 L719.653 608 Q724.073 644 705.643 669 Q687.212 694 655.616 709.5 Q624.019 725 585.317 731.5 Q546.615 738 510.615 738 Q471.615 738 431.062 733.5 Q390.51 729 356.975 716.5 Q323.44 704 300.739 682 Q278.038 660 273.74 625 Z M737.709 1260 L804.377 1184 L539.4 948 L332.377 1184 L417.709 1260 L533.501 1128 Q543.15 1117 559.65 1117 Q576.15 1117 588.501 1128 L662.605 1194 Q690.674 1219 713.691 1239.5 Q736.709 1260 737.709 1260 Z " />
<glyph glyph-name="Scedilla" unicode="&#x15e;" horiz-adv-x="848" d="M514.035 -16 Q531.58 -36 538.326 -62.5 Q545.072 -89 541.757 -116 Q538.442 -143 524.688 -169.5 Q510.934 -196 488.479 -216 Q466.023 -236 439.234 -246.5 Q412.444 -257 385.444 -257 Q358.444 -257 334.234 -246.5 Q310.023 -236 291.479 -216 Q274.057 -195 266.749 -169 Q259.442 -143 262.757 -116 L346.757 -116 Q344.056 -138 358.968 -155 Q373.881 -172 396.881 -172 Q419.881 -172 438.968 -155 Q458.056 -138 460.88 -115 Q463.704 -92 448.791 -75 L382.123 1 Q326.491 4 269.21 18 Q211.929 32 167.113 62 Q122.296 92 97.6284 139.5 Q72.9607 187 81.4328 256 L215.433 256 Q210.767 218 230.882 194.5 Q250.996 171 284.839 157.5 Q318.681 144 359.067 139 Q399.453 134 435.453 134 Q474.453 134 514.128 139.5 Q553.804 145 586.584 159.5 Q619.365 174 641.811 198 Q664.258 222 668.678 258 Q673.221 295 650.616 314.5 Q628.01 334 587.738 344 Q547.466 354 495.58 359 Q443.694 364 390.114 371.5 Q336.535 379 285.693 392.5 Q234.851 406 196.788 434 Q158.726 462 139.436 508.5 Q120.145 555 128.986 627 Q137.949 700 178.781 747.5 Q219.614 795 277.552 823 Q335.49 851 402.84 862 Q470.191 873 532.191 873 Q590.191 873 651.033 859.5 Q711.876 846 760.069 815 Q808.263 784 835.562 733.5 Q862.862 683 853.653 608 L719.653 608 Q724.073 644 705.643 669 Q687.212 694 655.616 709.5 Q624.019 725 585.317 731.5 Q546.615 738 510.615 738 Q471.615 738 431.062 733.5 Q390.51 729 356.975 716.5 Q323.44 704 300.739 682 Q278.038 660 273.74 625 Q268.706 584 291.444 561.5 Q314.181 539 354.146 526.5 Q394.111 514 446.436 508.5 Q498.761 503 552.84 495.5 Q606.919 488 658.384 475.5 Q709.849 463 748.157 437 Q786.464 411 806.623 367.5 Q826.782 324 818.31 255 Q810.697 193 779.295 149 Q747.892 105 702.209 75 Q656.525 45 601.999 28.5 Q547.473 12 494.614 5 L514.035 -16 Z " />
<glyph glyph-name="Scircumflex" unicode="&#x15c;" horiz-adv-x="848" d="M273.74 625 Q268.706 584 291.444 561.5 Q314.181 539 354.146 526.5 Q394.111 514 446.436 508.5 Q498.761 503 552.84 495.5 Q606.919 488 658.384 475.5 Q709.849 463 748.157 437 Q786.464 411 806.623 367.5 Q826.782 324 818.31 255 Q809.347 182 767.33 133 Q725.314 84 666.692 54.5 Q608.07 25 542.535 12.5 Q477 0 420 0 Q381 0 339.614 5 Q298.228 10 258.14 21.5 Q218.052 33 183.446 52.5 Q148.84 72 123.84 100.5 Q98.8392 129 87.0664 167.5 Q75.2936 206 81.4328 256 L215.433 256 Q210.767 218 230.882 194.5 Q250.996 171 284.839 157.5 Q318.681 144 359.067 139 Q399.453 134 435.453 134 Q474.453 134 514.128 139.5 Q553.804 145 586.584 159.5 Q619.365 174 641.811 198 Q664.258 222 668.678 258 Q673.221 295 650.616 314.5 Q628.01 334 587.738 344 Q547.466 354 495.58 359 Q443.694 364 390.114 371.5 Q336.535 379 285.693 392.5 Q234.851 406 196.788 434 Q158.726 462 139.436 508.5 Q120.145 555 128.986 627 Q137.949 700 178.781 747.5 Q219.614 795 277.552 823 Q335.49 851 402.84 862 Q470.191 873 532.191 873 Q590.191 873 651.033 859.5 Q711.876 846 760.069 815 Q808.263 784 835.562 733.5 Q862.862 683 853.653 608 L719.653 608 Q724.073 644 705.643 669 Q687.212 694 655.616 709.5 Q624.019 725 585.317 731.5 Q546.615 738 510.615 738 Q471.615 738 431.062 733.5 Q390.51 729 356.975 716.5 Q323.44 704 300.739 682 Q278.038 660 273.74 625 Z M698.4 948 L582.607 1080 Q572.958 1091 556.458 1091 Q539.958 1091 527.607 1080 L379.4 948 L312.731 1024 L577.709 1260 L784.731 1024 L699.4 948 L698.4 948 Z " />
<glyph glyph-name="Scommaaccent" unicode="&#x218;" horiz-adv-x="848" d="M273.74 625 Q268.706 584 291.444 561.5 Q314.181 539 354.146 526.5 Q394.111 514 446.436 508.5 Q498.761 503 552.84 495.5 Q606.919 488 658.384 475.5 Q709.849 463 748.157 437 Q786.464 411 806.623 367.5 Q826.782 324 818.31 255 Q809.347 182 767.33 133 Q725.314 84 666.692 54.5 Q608.07 25 542.535 12.5 Q477 0 420 0 Q381 0 339.614 5 Q298.228 10 258.14 21.5 Q218.052 33 183.446 52.5 Q148.84 72 123.84 100.5 Q98.8392 129 87.0664 167.5 Q75.2936 206 81.4328 256 L215.433 256 Q210.767 218 230.882 194.5 Q250.996 171 284.839 157.5 Q318.681 144 359.067 139 Q399.453 134 435.453 134 Q474.453 134 514.128 139.5 Q553.804 145 586.584 159.5 Q619.365 174 641.811 198 Q664.258 222 668.678 258 Q673.221 295 650.616 314.5 Q628.01 334 587.738 344 Q547.466 354 495.58 359 Q443.694 364 390.114 371.5 Q336.535 379 285.693 392.5 Q234.851 406 196.788 434 Q158.726 462 139.436 508.5 Q120.145 555 128.986 627 Q137.949 700 178.781 747.5 Q219.614 795 277.552 823 Q335.49 851 402.84 862 Q470.191 873 532.191 873 Q590.191 873 651.033 859.5 Q711.876 846 760.069 815 Q808.263 784 835.562 733.5 Q862.862 683 853.653 608 L719.653 608 Q724.073 644 705.643 669 Q687.212 694 655.616 709.5 Q624.019 725 585.317 731.5 Q546.615 738 510.615 738 Q471.615 738 431.062 733.5 Q390.51 729 356.975 716.5 Q323.44 704 300.739 682 Q278.038 660 273.74 625 Z M340.565 -142 L471.565 -142 L415.062 -423 L306.062 -423 L340.565 -142 Z " />
<glyph glyph-name="Tbar" unicode="&#x166;" horiz-adv-x="819" d="M241.308 369 L256.778 495 L397.778 495 L424.054 709 Q426.142 726 415.992 737 Q405.843 748 388.843 748 L121.843 748 L137.436 875 L896.436 875 L880.843 748 L612.843 748 Q596.843 748 583.992 737 Q571.142 726 569.054 709 L542.778 495 L683.778 495 L668.308 369 L527.308 369 L482 0 L337 0 L382.308 369 L241.308 369 Z " />
<glyph glyph-name="Tcaron" unicode="&#x164;" horiz-adv-x="819" d="M121.843 748 L137.436 875 L896.436 875 L880.843 748 L612.843 748 Q596.843 748 583.992 737 Q571.142 726 569.054 709 L482 0 L337 0 L424.054 709 Q426.142 726 415.992 737 Q405.843 748 388.843 748 L121.843 748 Z M723.709 1260 L790.377 1184 L525.4 948 L318.377 1184 L403.709 1260 L519.501 1128 Q529.15 1117 545.65 1117 Q562.15 1117 574.501 1128 L648.605 1194 Q676.674 1219 699.691 1239.5 Q722.709 1260 723.709 1260 Z " />
<glyph glyph-name="Tcommaaccent" unicode="&#x162;" horiz-adv-x="819" d="M121.843 748 L137.436 875 L896.436 875 L880.843 748 L612.843 748 Q596.843 748 583.992 737 Q571.142 726 569.054 709 L482 0 L337 0 L424.054 709 Q426.142 726 415.992 737 Q405.843 748 388.843 748 L121.843 748 Z M326.565 -142 L457.565 -142 L401.062 -423 L292.062 -423 L326.565 -142 Z " />
<glyph glyph-name="Uacute" unicode="&#xda;" horiz-adv-x="886" d="M688.343 353 L752.314 874 L903.314 874 L839.343 353 Q830.38 280 794.96 215.5 Q759.54 151 705.647 103 Q651.753 55 583.877 27.5 Q516 0 443 0 Q370 0 308.877 27.5 Q247.753 55 205.647 103 Q163.54 151 143.96 215.5 Q124.38 280 133.343 353 L197.314 874 L347.314 874 L283.343 353 Q278.186 311 289.643 274 Q301.1 237 325.223 209.5 Q349.347 182 384.382 166 Q419.418 150 461.418 150 Q503.418 150 542.382 166 Q581.347 182 611.723 209.5 Q642.1 237 662.643 274 Q683.186 311 688.343 353 Z M569.521 1006 L452.521 1006 L682.672 1333 L790.217 1256 L569.521 1006 Z " />
<glyph glyph-name="Ubreve" unicode="&#x16c;" horiz-adv-x="886" d="M688.343 353 L752.314 874 L903.314 874 L839.343 353 Q830.38 280 794.96 215.5 Q759.54 151 705.647 103 Q651.753 55 583.877 27.5 Q516 0 443 0 Q370 0 308.877 27.5 Q247.753 55 205.647 103 Q163.54 151 143.96 215.5 Q124.38 280 133.343 353 L197.314 874 L347.314 874 L283.343 353 Q278.186 311 289.643 274 Q301.1 237 325.223 209.5 Q349.347 182 384.382 166 Q419.418 150 461.418 150 Q503.418 150 542.382 166 Q581.347 182 611.723 209.5 Q642.1 237 662.643 274 Q683.186 311 688.343 353 Z M652.272 1175 L768.272 1175 Q763.606 1137 745.616 1104.5 Q727.625 1072 699.555 1047 Q671.486 1022 636.767 1008 Q602.048 994 565.048 994 Q527.048 994 495.767 1008 Q464.486 1022 443.055 1047 Q421.625 1072 411.116 1104.5 Q400.606 1137 405.272 1175 L522.272 1175 Q518.957 1148 536.062 1128.5 Q553.168 1109 580.168 1109 Q606.291 1110 627.685 1129.5 Q649.079 1149 652.272 1175 Z " />
<glyph glyph-name="Ucircumflex" unicode="&#xdb;" horiz-adv-x="886" d="M688.343 353 L752.314 874 L903.314 874 L839.343 353 Q830.38 280 794.96 215.5 Q759.54 151 705.647 103 Q651.753 55 583.877 27.5 Q516 0 443 0 Q370 0 308.877 27.5 Q247.753 55 205.647 103 Q163.54 151 143.96 215.5 Q124.38 280 133.343 353 L197.314 874 L347.314 874 L283.343 353 Q278.186 311 289.643 274 Q301.1 237 325.223 209.5 Q349.347 182 384.382 166 Q419.418 150 461.418 150 Q503.418 150 542.382 166 Q581.347 182 611.723 209.5 Q642.1 237 662.643 274 Q683.186 311 688.343 353 Z M718.4 948 L602.607 1080 Q592.958 1091 576.458 1091 Q559.958 1091 547.607 1080 L399.4 948 L332.731 1024 L597.709 1260 L804.731 1024 L719.4 948 L718.4 948 Z " />
<glyph glyph-name="Udieresis" unicode="&#xdc;" horiz-adv-x="886" d="M688.343 353 L752.314 874 L903.314 874 L839.343 353 Q830.38 280 794.96 215.5 Q759.54 151 705.647 103 Q651.753 55 583.877 27.5 Q516 0 443 0 Q370 0 308.877 27.5 Q247.753 55 205.647 103 Q163.54 151 143.96 215.5 Q124.38 280 133.343 353 L197.314 874 L347.314 874 L283.343 353 Q278.186 311 289.643 274 Q301.1 237 325.223 209.5 Q349.347 182 384.382 166 Q419.418 150 461.418 150 Q503.418 150 542.382 166 Q581.347 182 611.723 209.5 Q642.1 237 662.643 274 Q683.186 311 688.343 353 Z M507.853 1082 Q503.555 1047 476.109 1023 Q448.662 999 413.662 999 Q379.662 999 358.109 1023 Q336.555 1047 340.853 1082 Q345.15 1117 372.597 1141 Q400.044 1165 434.044 1165 Q469.044 1165 490.597 1141 Q512.15 1117 507.853 1082 Z M809.853 1082 Q805.555 1047 778.109 1023 Q750.662 999 715.662 999 Q681.662 999 660.109 1023 Q638.555 1047 642.853 1082 Q647.15 1117 674.597 1141 Q702.044 1165 736.044 1165 Q771.044 1165 792.597 1141 Q814.15 1117 809.853 1082 Z " />
<glyph glyph-name="Ugrave" unicode="&#xd9;" horiz-adv-x="886" d="M688.343 353 L752.314 874 L903.314 874 L839.343 353 Q830.38 280 794.96 215.5 Q759.54 151 705.647 103 Q651.753 55 583.877 27.5 Q516 0 443 0 Q370 0 308.877 27.5 Q247.753 55 205.647 103 Q163.54 151 143.96 215.5 Q124.38 280 133.343 353 L197.314 874 L347.314 874 L283.343 353 Q278.186 311 289.643 274 Q301.1 237 325.223 209.5 Q349.347 182 384.382 166 Q419.418 150 461.418 150 Q503.418 150 542.382 166 Q581.347 182 611.723 209.5 Q642.1 237 662.643 274 Q683.186 311 688.343 353 Z M382.954 1262 L523.391 1347 L680.521 1006 L546.521 1006 L382.954 1262 Z " />
<glyph glyph-name="Uhungarumlaut" unicode="&#x170;" horiz-adv-x="886" d="M688.343 353 L752.314 874 L903.314 874 L839.343 353 Q830.38 280 794.96 215.5 Q759.54 151 705.647 103 Q651.753 55 583.877 27.5 Q516 0 443 0 Q370 0 308.877 27.5 Q247.753 55 205.647 103 Q163.54 151 143.96 215.5 Q124.38 280 133.343 353 L197.314 874 L347.314 874 L283.343 353 Q278.186 311 289.643 274 Q301.1 237 325.223 209.5 Q349.347 182 384.382 166 Q419.418 150 461.418 150 Q503.418 150 542.382 166 Q581.347 182 611.723 209.5 Q642.1 237 662.643 274 Q683.186 311 688.343 353 Z M728.521 1006 L611.521 1006 L841.672 1333 L949.217 1256 L728.521 1006 Z M461.521 1006 L343.521 1006 L574.672 1333 L682.217 1256 L461.521 1006 Z " />
<glyph glyph-name="Umacron" unicode="&#x16a;" horiz-adv-x="886" d="M688.343 353 L752.314 874 L903.314 874 L839.343 353 Q830.38 280 794.96 215.5 Q759.54 151 705.647 103 Q651.753 55 583.877 27.5 Q516 0 443 0 Q370 0 308.877 27.5 Q247.753 55 205.647 103 Q163.54 151 143.96 215.5 Q124.38 280 133.343 353 L197.314 874 L347.314 874 L283.343 353 Q278.186 311 289.643 274 Q301.1 237 325.223 209.5 Q349.347 182 384.382 166 Q419.418 150 461.418 150 Q503.418 150 542.382 166 Q581.347 182 611.723 209.5 Q642.1 237 662.643 274 Q683.186 311 688.343 353 Z M356.205 1036 L371.676 1162 L798.676 1162 L783.205 1036 L356.205 1036 Z " />
<glyph glyph-name="Uogonek" unicode="&#x172;" horiz-adv-x="886" d="M550.689 -198 Q514.76 -230 477.234 -246.5 Q439.708 -263 402.708 -263 Q364.708 -263 332.988 -248.5 Q301.268 -234 279.338 -209 Q257.408 -184 247.082 -150 Q236.757 -116 241.423 -78 Q249.649 -11 297.543 37 Q254.999 57 221.428 89 Q187.857 121 166.391 162 Q144.925 203 135.88 251.5 Q126.835 300 133.343 353 L197.314 874 L347.314 874 L283.343 353 Q278.186 311 289.643 274 Q301.1 237 325.223 209.5 Q349.347 182 384.382 166 Q419.418 150 461.418 150 Q503.418 150 542.382 166 Q581.347 182 611.723 209.5 Q642.1 237 662.643 274 Q683.186 311 688.343 353 L752.314 874 L903.314 874 L839.343 353 Q830.38 280 794.46 215.5 Q758.54 151 704.647 103 Q650.753 55 582.877 27.5 Q515 0 442 0 Q406 0 377.737 -22.5 Q349.475 -45 345.546 -77 Q341.616 -109 361.415 -131 Q381.214 -153 413.214 -153 Q428.214 -153 445.135 -145.5 Q462.056 -138 477.775 -124 L550.689 -198 Z " />
<glyph glyph-name="Uring" unicode="&#x16e;" horiz-adv-x="886" d="M688.343 353 L752.314 874 L903.314 874 L839.343 353 Q830.38 280 794.96 215.5 Q759.54 151 705.647 103 Q651.753 55 583.877 27.5 Q516 0 443 0 Q370 0 308.877 27.5 Q247.753 55 205.647 103 Q163.54 151 143.96 215.5 Q124.38 280 133.343 353 L197.314 874 L347.314 874 L283.343 353 Q278.186 311 289.643 274 Q301.1 237 325.223 209.5 Q349.347 182 384.382 166 Q419.418 150 461.418 150 Q503.418 150 542.382 166 Q581.347 182 611.723 209.5 Q642.1 237 662.643 274 Q683.186 311 688.343 353 Z M597.709 1260 Q627.709 1260 652.297 1248.5 Q676.885 1237 693.99 1217.5 Q711.096 1198 719.342 1171.5 Q727.588 1145 723.905 1115 Q720.221 1085 705.467 1058.5 Q690.714 1032 668.819 1012.5 Q646.925 993 619.574 982 Q592.224 971 562.224 971 Q532.224 971 507.074 982 Q481.925 993 464.819 1012.5 Q447.714 1032 439.467 1058.5 Q431.221 1085 434.905 1115 Q438.588 1145 453.342 1171.5 Q468.096 1198 489.99 1217.5 Q511.885 1237 539.797 1248.5 Q567.709 1260 597.709 1260 Z M572.66 1056 Q596.66 1056 615.809 1073.5 Q634.958 1091 637.905 1115 Q640.852 1139 626 1156.5 Q611.149 1174 587.149 1174 Q563.149 1174 543.5 1156.5 Q523.852 1139 520.905 1115 Q517.958 1091 533.309 1073.5 Q548.66 1056 572.66 1056 Z " />
<glyph glyph-name="Utilde" unicode="&#x168;" horiz-adv-x="886" d="M688.343 353 L752.314 874 L903.314 874 L839.343 353 Q830.38 280 794.96 215.5 Q759.54 151 705.647 103 Q651.753 55 583.877 27.5 Q516 0 443 0 Q370 0 308.877 27.5 Q247.753 55 205.647 103 Q163.54 151 143.96 215.5 Q124.38 280 133.343 353 L197.314 874 L347.314 874 L283.343 353 Q278.186 311 289.643 274 Q301.1 237 325.223 209.5 Q349.347 182 384.382 166 Q419.418 150 461.418 150 Q503.418 150 542.382 166 Q581.347 182 611.723 209.5 Q642.1 237 662.643 274 Q683.186 311 688.343 353 Z M365.693 1154 Q406.359 1192 443.35 1196 Q480.341 1200 515.307 1187.5 Q550.272 1175 584.132 1153.5 Q617.992 1132 652.957 1119.5 Q687.923 1107 724.414 1111 Q760.905 1115 802.571 1153 L786.731 1024 Q745.066 986 708.574 982 Q672.083 978 637.118 990.5 Q602.153 1003 568.293 1024.5 Q534.433 1046 499.467 1058.5 Q464.502 1071 427.511 1067 Q390.52 1063 349.854 1025 L365.693 1154 Z " />
<glyph glyph-name="Wacute" unicode="&#x1e82;" horiz-adv-x="1379" d="M1009.73 234 L1304.44 875 L1456.44 875 L1058 0 L905 0 L769.442 647 L474 0 L322 0 L137.436 875 L290.436 875 L426.732 234 L720.436 875 L873.436 875 L1009.73 234 Z M776.521 1006 L658.521 1006 L889.672 1333 L997.217 1256 L776.521 1006 Z " />
<glyph glyph-name="Wcircumflex" unicode="&#x174;" horiz-adv-x="1379" d="M1009.73 234 L1304.44 875 L1456.44 875 L1058 0 L905 0 L769.442 647 L474 0 L322 0 L137.436 875 L290.436 875 L426.732 234 L720.436 875 L873.436 875 L1009.73 234 Z M964.4 948 L848.607 1080 Q838.958 1091 822.458 1091 Q805.958 1091 793.607 1080 L645.4 948 L578.731 1024 L843.709 1260 L1050.73 1024 L965.4 948 L964.4 948 Z " />
<glyph glyph-name="Wdieresis" unicode="&#x1e84;" horiz-adv-x="1379" d="M1009.73 234 L1304.44 875 L1456.44 875 L1058 0 L905 0 L769.442 647 L474 0 L322 0 L137.436 875 L290.436 875 L426.732 234 L720.436 875 L873.436 875 L1009.73 234 Z M753.853 1082 Q749.555 1047 722.609 1023 Q695.662 999 660.662 999 Q625.662 999 604.609 1023 Q583.555 1047 587.853 1082 Q592.15 1117 619.097 1141 Q646.044 1165 681.044 1165 Q716.044 1165 737.097 1141 Q758.15 1117 753.853 1082 Z M1055.85 1082 Q1051.56 1047 1024.61 1023 Q997.662 999 962.662 999 Q927.662 999 906.609 1023 Q885.555 1047 889.853 1082 Q894.15 1117 921.097 1141 Q948.044 1165 983.044 1165 Q1018.04 1165 1039.1 1141 Q1060.15 1117 1055.85 1082 Z " />
<glyph glyph-name="Wgrave" unicode="&#x1e80;" horiz-adv-x="1379" d="M1009.73 234 L1304.44 875 L1456.44 875 L1058 0 L905 0 L769.442 647 L474 0 L322 0 L137.436 875 L290.436 875 L426.732 234 L720.436 875 L873.436 875 L1009.73 234 Z M678.954 1262 L819.391 1347 L976.521 1006 L842.521 1006 L678.954 1262 Z " />
<glyph glyph-name="Yacute" unicode="&#xdd;" horiz-adv-x="996" d="M475.342 410 Q477.306 426 468.534 436 L137.314 874 L312.314 874 L564.549 542 L897.314 874 L1073.31 874 L634.534 436 Q623.306 426 621.342 410 L571 0 L425 0 L475.342 410 Z M669.521 1006 L552.521 1006 L782.672 1333 L890.217 1256 L669.521 1006 Z " />
<glyph glyph-name="Ycircumflex" unicode="&#x176;" horiz-adv-x="996" d="M475.342 410 Q477.306 426 468.534 436 L137.314 874 L312.314 874 L564.549 542 L897.314 874 L1073.31 874 L634.534 436 Q623.306 426 621.342 410 L571 0 L425 0 L475.342 410 Z M773.4 948 L657.607 1080 Q647.958 1091 631.458 1091 Q614.958 1091 602.607 1080 L454.4 948 L387.731 1024 L652.709 1260 L859.731 1024 L774.4 948 L773.4 948 Z " />
<glyph glyph-name="Ydieresis" unicode="&#x178;" horiz-adv-x="996" d="M475.342 410 Q477.306 426 468.534 436 L137.314 874 L312.314 874 L564.549 542 L897.314 874 L1073.31 874 L634.534 436 Q623.306 426 621.342 410 L571 0 L425 0 L475.342 410 Z M864.853 1082 Q860.555 1047 833.109 1023 Q805.662 999 770.662 999 Q736.662 999 715.109 1023 Q693.555 1047 697.853 1082 Q702.15 1117 729.597 1141 Q757.044 1165 791.044 1165 Q826.044 1165 847.597 1141 Q869.15 1117 864.853 1082 Z M562.853 1082 Q558.555 1047 531.109 1023 Q503.662 999 468.662 999 Q434.662 999 413.109 1023 Q391.555 1047 395.853 1082 Q400.15 1117 427.597 1141 Q455.044 1165 489.044 1165 Q524.044 1165 545.597 1141 Q567.15 1117 562.853 1082 Z " />
<glyph glyph-name="Ygrave" unicode="&#x1ef2;" horiz-adv-x="996" d="M475.342 410 Q477.306 426 468.534 436 L137.314 874 L312.314 874 L564.549 542 L897.314 874 L1073.31 874 L634.534 436 Q623.306 426 621.342 410 L571 0 L425 0 L475.342 410 Z M397.954 1262 L538.391 1347 L695.521 1006 L561.521 1006 L397.954 1262 Z " />
<glyph glyph-name="Zacute" unicode="&#x179;" horiz-adv-x="879" d="M926.436 875 L911.088 750 L270.225 124 L814.225 124 L799 0 L52 0 L67.2253 124 L706.088 750 L144.088 750 L159.436 875 L926.436 875 Z M596.521 1006 L478.521 1006 L709.672 1333 L817.217 1256 L596.521 1006 Z " />
<glyph glyph-name="Zcaron" unicode="&#x17d;" horiz-adv-x="879" d="M926.436 875 L911.088 750 L270.225 124 L814.225 124 L799 0 L52 0 L67.2253 124 L706.088 750 L144.088 750 L159.436 875 L926.436 875 Z M753.709 1260 L820.377 1184 L555.4 948 L348.377 1184 L433.709 1260 L549.501 1128 Q559.15 1117 575.65 1117 Q592.15 1117 604.501 1128 L678.605 1194 Q706.674 1219 729.691 1239.5 Q752.709 1260 753.709 1260 Z " />
<glyph glyph-name="Zdotaccent" unicode="&#x17b;" horiz-adv-x="879" d="M926.436 875 L911.088 750 L270.225 124 L814.225 124 L799 0 L52 0 L67.2253 124 L706.088 750 L144.088 750 L159.436 875 L926.436 875 Z M651.169 1052 Q646.872 1017 619.925 993 Q592.978 969 557.978 969 Q522.978 969 501.925 993 Q480.872 1017 485.169 1052 Q489.467 1087 516.414 1111 Q543.36 1135 578.36 1135 Q613.36 1135 634.414 1111 Q655.467 1087 651.169 1052 Z " />
<glyph glyph-name="c" unicode="c" horiz-adv-x="847" d="M578.019 725 Q519.019 725 463.756 702.5 Q408.494 680 364.205 641 Q319.916 602 290.47 549.5 Q261.024 497 253.78 438 Q246.535 379 262.589 326.5 Q278.643 274 312.854 235 Q347.066 196 396.242 173 Q445.418 150 504.418 150 Q561.418 150 617.058 171.5 Q672.697 193 718.732 234 L812.716 128 Q743.104 66 658.552 33 Q574 0 487 0 Q397 0 321.236 34.5 Q245.472 69 193.778 128.5 Q142.083 188 117.406 268 Q92.729 348 103.78 438 Q114.83 528 159.153 608 Q203.476 688 269.72 747 Q335.964 806 420.2 840.5 Q504.436 875 594.436 875 Q681.436 875 757.885 842 Q834.333 809 888.72 747 L768.705 641 Q733.616 681 684.318 703 Q635.019 725 578.019 725 Z " />
<glyph glyph-name="cacute" unicode="&#x107;" horiz-adv-x="847" d="M578.019 725 Q519.019 725 463.756 702.5 Q408.494 680 364.205 641 Q319.916 602 290.47 549.5 Q261.024 497 253.78 438 Q246.535 379 262.589 326.5 Q278.643 274 312.854 235 Q347.066 196 396.242 173 Q445.418 150 504.418 150 Q561.418 150 617.058 171.5 Q672.697 193 718.732 234 L812.716 128 Q743.104 66 658.552 33 Q574 0 487 0 Q397 0 321.236 34.5 Q245.472 69 193.778 128.5 Q142.083 188 117.406 268 Q92.729 348 103.78 438 Q114.83 528 159.153 608 Q203.476 688 269.72 747 Q335.964 806 420.2 840.5 Q504.436 875 594.436 875 Q681.436 875 757.885 842 Q834.333 809 888.72 747 L768.705 641 Q733.616 681 684.318 703 Q635.019 725 578.019 725 Z M630.521 1006 L512.521 1006 L743.672 1333 L851.217 1256 L630.521 1006 Z " />
<glyph glyph-name="ccaron" unicode="&#x10d;" horiz-adv-x="847" d="M578.019 725 Q519.019 725 463.756 702.5 Q408.494 680 364.205 641 Q319.916 602 290.47 549.5 Q261.024 497 253.78 438 Q246.535 379 262.589 326.5 Q278.643 274 312.854 235 Q347.066 196 396.242 173 Q445.418 150 504.418 150 Q561.418 150 617.058 171.5 Q672.697 193 718.732 234 L812.716 128 Q743.104 66 658.552 33 Q574 0 487 0 Q397 0 321.236 34.5 Q245.472 69 193.778 128.5 Q142.083 188 117.406 268 Q92.729 348 103.78 438 Q114.83 528 159.153 608 Q203.476 688 269.72 747 Q335.964 806 420.2 840.5 Q504.436 875 594.436 875 Q681.436 875 757.885 842 Q834.333 809 888.72 747 L768.705 641 Q733.616 681 684.318 703 Q635.019 725 578.019 725 Z M762.709 1260 L829.377 1184 L564.4 948 L357.377 1184 L442.709 1260 L558.501 1128 Q568.15 1117 584.65 1117 Q601.15 1117 613.501 1128 L687.605 1194 Q715.674 1219 738.691 1239.5 Q761.709 1260 762.709 1260 Z " />
<glyph glyph-name="ccedilla" unicode="&#xe7;" horiz-adv-x="847" d="M578.019 725 Q519.019 725 463.756 702.5 Q408.494 680 364.205 641 Q319.916 602 290.47 549.5 Q261.024 497 253.78 438 Q246.535 379 262.589 326.5 Q278.643 274 312.854 235 Q347.066 196 396.242 173 Q445.418 150 504.418 150 Q561.418 150 617.058 171.5 Q672.697 193 718.732 234 L812.716 128 Q761.068 82 700.946 52.5 Q640.824 23 577.351 11 Q596.422 -21 597.756 -59 Q604.686 -84 598.81 -111.5 Q592.933 -139 575.863 -164 Q555.425 -192 528.461 -208 Q494.005 -228 457.444 -228.5 Q420.882 -229 390.847 -213 Q360.811 -197 343.679 -165.5 Q326.547 -134 331.827 -91 L415.827 -91 Q413.494 -110 422.397 -123 Q431.301 -136 445.565 -142 Q459.828 -148 477.196 -145 Q494.565 -142 508.038 -130 Q527.125 -113 529.949 -90 Q532.773 -67 517.861 -50 L473.123 1 Q385.491 4 312.85 39.5 Q240.209 75 189.892 133.5 Q139.575 192 116.213 270.5 Q92.8518 349 103.78 438 Q114.83 528 159.153 608 Q203.476 688 269.72 747 Q335.964 806 420.2 840.5 Q504.436 875 594.436 875 Q681.436 875 757.885 842 Q834.333 809 888.72 747 L768.705 641 Q733.616 681 684.318 703 Q635.019 725 578.019 725 Z " />
<glyph glyph-name="ccircumflex" unicode="&#x109;" horiz-adv-x="847" d="M578.019 725 Q519.019 725 463.756 702.5 Q408.494 680 364.205 641 Q319.916 602 290.47 549.5 Q261.024 497 253.78 438 Q246.535 379 262.589 326.5 Q278.643 274 312.854 235 Q347.066 196 396.242 173 Q445.418 150 504.418 150 Q561.418 150 617.058 171.5 Q672.697 193 718.732 234 L812.716 128 Q743.104 66 658.552 33 Q574 0 487 0 Q397 0 321.236 34.5 Q245.472 69 193.778 128.5 Q142.083 188 117.406 268 Q92.729 348 103.78 438 Q114.83 528 159.153 608 Q203.476 688 269.72 747 Q335.964 806 420.2 840.5 Q504.436 875 594.436 875 Q681.436 875 757.885 842 Q834.333 809 888.72 747 L768.705 641 Q733.616 681 684.318 703 Q635.019 725 578.019 725 Z M753.4 948 L637.607 1080 Q627.958 1091 611.458 1091 Q594.958 1091 582.607 1080 L434.4 948 L367.731 1024 L632.709 1260 L839.731 1024 L754.4 948 L753.4 948 Z " />
<glyph glyph-name="cdotaccent" unicode="&#x10b;" horiz-adv-x="847" d="M578.019 725 Q519.019 725 463.756 702.5 Q408.494 680 364.205 641 Q319.916 602 290.47 549.5 Q261.024 497 253.78 438 Q246.535 379 262.589 326.5 Q278.643 274 312.854 235 Q347.066 196 396.242 173 Q445.418 150 504.418 150 Q561.418 150 617.058 171.5 Q672.697 193 718.732 234 L812.716 128 Q743.104 66 658.552 33 Q574 0 487 0 Q397 0 321.236 34.5 Q245.472 69 193.778 128.5 Q142.083 188 117.406 268 Q92.729 348 103.78 438 Q114.83 528 159.153 608 Q203.476 688 269.72 747 Q335.964 806 420.2 840.5 Q504.436 875 594.436 875 Q681.436 875 757.885 842 Q834.333 809 888.72 747 L768.705 641 Q733.616 681 684.318 703 Q635.019 725 578.019 725 Z M685.169 1052 Q680.872 1017 653.925 993 Q626.978 969 591.978 969 Q556.978 969 535.925 993 Q514.872 1017 519.169 1052 Q523.467 1087 550.414 1111 Q577.36 1135 612.36 1135 Q647.36 1135 668.414 1111 Q689.467 1087 685.169 1052 Z " />
<glyph glyph-name="d" unicode="d" horiz-adv-x="917" d="M522.436 875 Q612.436 875 688.2 840.5 Q763.964 806 815.659 746.5 Q867.353 687 892.03 607 Q916.707 527 905.657 437 Q894.606 347 850.283 267 Q805.961 187 739.716 128 Q673.472 69 589.236 34.5 Q505 0 415 0 L95 0 L202.436 875 L522.436 875 Z M755.411 435 Q762.287 491 747.233 543.5 Q732.18 596 699.652 636.5 Q667.125 677 619.072 701 Q571.019 725 513.019 725 L359.019 725 Q348.019 725 340.098 717.5 Q332.177 710 330.826 699 L266.487 175 Q265.137 164 271.277 157 Q277.418 150 288.418 150 L442.418 150 Q499.418 150 552.803 173.5 Q606.189 197 649.1 237 Q692.011 277 720.273 328 Q748.535 379 755.411 435 Z " />
<glyph glyph-name="dcaron" unicode="&#x10f;" horiz-adv-x="917" d="M522.436 875 Q612.436 875 688.2 840.5 Q763.964 806 815.659 746.5 Q867.353 687 892.03 607 Q916.707 527 905.657 437 Q894.606 347 850.283 267 Q805.961 187 739.716 128 Q673.472 69 589.236 34.5 Q505 0 415 0 L95 0 L202.436 875 L522.436 875 Z M755.411 435 Q762.287 491 747.233 543.5 Q732.18 596 699.652 636.5 Q667.125 677 619.072 701 Q571.019 725 513.019 725 L359.019 725 Q348.019 725 340.098 717.5 Q332.177 710 330.826 699 L266.487 175 Q265.137 164 271.277 157 Q277.418 150 288.418 150 L442.418 150 Q499.418 150 552.803 173.5 Q606.189 197 649.1 237 Q692.011 277 720.273 328 Q748.535 379 755.411 435 Z M751.709 1260 L818.377 1184 L553.4 948 L346.377 1184 L431.709 1260 L547.501 1128 Q557.15 1117 573.65 1117 Q590.15 1117 602.501 1128 L676.605 1194 Q704.674 1219 727.691 1239.5 Q750.709 1260 751.709 1260 Z " />
<glyph glyph-name="dcroat" unicode="&#x111;" horiz-adv-x="917" d="M19.0619 367 L34.5328 493 L155.533 493 L202.436 875 L522.436 875 Q612.436 875 688.2 840.5 Q763.964 806 815.659 746.5 Q867.353 687 892.03 607 Q916.707 527 905.657 437 Q894.606 347 850.283 267 Q805.961 187 739.716 128 Q673.472 69 589.236 34.5 Q505 0 415 0 L95 0 L140.062 367 L19.0619 367 Z M755.411 435 Q762.287 491 747.233 543.5 Q732.18 596 699.652 636.5 Q667.125 677 619.072 701 Q571.019 725 513.019 725 L359.019 725 Q348.019 725 340.098 717.5 Q332.177 710 330.826 699 L305.533 493 L461.533 493 L446.062 367 L290.062 367 L266.487 175 Q265.137 164 271.277 157 Q277.418 150 288.418 150 L442.418 150 Q499.418 150 552.803 173.5 Q606.189 197 649.1 237 Q692.011 277 720.273 328 Q748.535 379 755.411 435 Z " />
<glyph glyph-name="e" unicode="e" horiz-adv-x="808" d="M310.567 534 Q309.094 522 316.111 514 Q323.129 506 334.129 506 L805.129 506 L788.553 371 L317.553 371 Q306.553 371 297.571 363 Q288.589 355 287.238 344 L264.891 162 Q263.54 151 270.558 143 Q277.576 135 288.576 135 L759.576 135 L743 0 L95 0 L202.436 875 L850.314 874 L833.615 738 L362.615 738 Q351.615 738 342.571 729.5 Q333.528 721 332.177 710 L310.567 534 Z " />
<glyph glyph-name="eacute" unicode="&#xe9;" horiz-adv-x="808" d="M310.567 534 Q309.094 522 316.111 514 Q323.129 506 334.129 506 L805.129 506 L788.553 371 L317.553 371 Q306.553 371 297.571 363 Q288.589 355 287.238 344 L264.891 162 Q263.54 151 270.558 143 Q277.576 135 288.576 135 L759.576 135 L743 0 L95 0 L202.436 875 L850.314 874 L833.615 738 L362.615 738 Q351.615 738 342.571 729.5 Q333.528 721 332.177 710 L310.567 534 Z M510.521 1006 L393.521 1006 L623.672 1333 L731.217 1256 L510.521 1006 Z " />
<glyph glyph-name="ebreve" unicode="&#x115;" horiz-adv-x="808" d="M310.567 534 Q309.094 522 316.111 514 Q323.129 506 334.129 506 L805.129 506 L788.553 371 L369.553 371 Q358.553 371 344.992 370.5 Q331.43 370 319.185 368 Q306.939 366 297.702 360 Q288.466 354 287.238 344 L264.891 162 Q263.54 151 270.558 143 Q277.576 135 288.576 135 L759.576 135 L743 0 L95 0 L202.436 875 Q365.436 875 526.375 874.5 Q687.314 874 850.314 874 L833.615 738 L362.615 738 Q351.615 738 342.571 729.5 Q333.528 721 332.177 710 L310.567 534 Z M613.272 1175 L729.272 1175 Q724.606 1137 706.616 1104.5 Q688.625 1072 660.555 1047 Q632.486 1022 597.767 1008 Q563.048 994 526.048 994 Q488.048 994 456.767 1008 Q425.486 1022 404.055 1047 Q382.625 1072 372.116 1104.5 Q361.606 1137 366.272 1175 L483.272 1175 Q479.957 1148 496.624 1129 Q513.291 1110 540.168 1109 Q566.168 1109 588.124 1129 Q610.079 1149 613.272 1175 Z " />
<glyph glyph-name="ecaron" unicode="&#x11b;" horiz-adv-x="808" d="M310.567 534 Q309.094 522 316.111 514 Q323.129 506 334.129 506 L805.129 506 L788.553 371 L317.553 371 Q306.553 371 297.571 363 Q288.589 355 287.238 344 L264.891 162 Q263.54 151 270.558 143 Q277.576 135 288.576 135 L759.576 135 L743 0 L95 0 L202.436 875 L850.314 874 L833.615 738 L362.615 738 Q351.615 738 342.571 729.5 Q333.528 721 332.177 710 L310.567 534 Z M718.709 1260 L785.377 1184 L520.4 948 L313.377 1184 L398.709 1260 L514.501 1128 Q524.15 1117 540.65 1117 Q557.15 1117 569.501 1128 L643.605 1194 Q671.674 1219 694.691 1239.5 Q717.709 1260 718.709 1260 Z " />
<glyph glyph-name="ecircumflex" unicode="&#xea;" horiz-adv-x="808" d="M310.567 534 Q309.094 522 316.111 514 Q323.129 506 334.129 506 L805.129 506 L788.553 371 L317.553 371 Q306.553 371 297.571 363 Q288.589 355 287.238 344 L264.891 162 Q263.54 151 270.558 143 Q277.576 135 288.576 135 L759.576 135 L743 0 L95 0 L202.436 875 L850.314 874 L833.615 738 L362.615 738 Q351.615 738 342.571 729.5 Q333.528 721 332.177 710 L310.567 534 Z M679.4 948 L563.607 1080 Q553.958 1091 537.458 1091 Q520.958 1091 508.607 1080 L360.4 948 L293.731 1024 L558.709 1260 L765.731 1024 L680.4 948 L679.4 948 Z " />
<glyph glyph-name="edieresis" unicode="&#xeb;" horiz-adv-x="808" d="M310.567 534 Q309.094 522 316.111 514 Q323.129 506 334.129 506 L805.129 506 L788.553 371 L317.553 371 Q306.553 371 297.571 363 Q288.589 355 287.238 344 L264.891 162 Q263.54 151 270.558 143 Q277.576 135 288.576 135 L759.576 135 L743 0 L95 0 L202.436 875 L850.314 874 L833.615 738 L362.615 738 Q351.615 738 342.571 729.5 Q333.528 721 332.177 710 L310.567 534 Z M770.853 1082 Q766.555 1047 739.109 1023 Q711.662 999 676.662 999 Q642.662 999 621.109 1023 Q599.555 1047 603.853 1082 Q608.15 1117 635.597 1141 Q663.044 1165 697.044 1165 Q732.044 1165 753.597 1141 Q775.15 1117 770.853 1082 Z M468.853 1082 Q464.555 1047 437.109 1023 Q409.662 999 374.662 999 Q340.662 999 319.109 1023 Q297.555 1047 301.853 1082 Q306.15 1117 333.597 1141 Q361.044 1165 395.044 1165 Q430.044 1165 451.597 1141 Q473.15 1117 468.853 1082 Z " />
<glyph glyph-name="edotaccent" unicode="&#x117;" horiz-adv-x="808" d="M310.567 534 Q309.094 522 316.111 514 Q323.129 506 334.129 506 L805.129 506 L788.553 371 L317.553 371 Q306.553 371 297.571 363 Q288.589 355 287.238 344 L264.891 162 Q263.54 151 270.558 143 Q277.576 135 288.576 135 L759.576 135 L743 0 L95 0 L202.436 875 L850.314 874 L833.615 738 L362.615 738 Q351.615 738 342.571 729.5 Q333.528 721 332.177 710 L310.567 534 Z M616.169 1052 Q611.872 1017 584.425 993 Q556.978 969 521.978 969 Q487.978 969 466.425 993 Q444.872 1017 449.169 1052 Q453.467 1087 480.914 1111 Q508.36 1135 542.36 1135 Q577.36 1135 598.914 1111 Q620.467 1087 616.169 1052 Z " />
<glyph glyph-name="egrave" unicode="&#xe8;" horiz-adv-x="808" d="M310.567 534 Q309.094 522 316.111 514 Q323.129 506 334.129 506 L805.129 506 L788.553 371 L317.553 371 Q306.553 371 297.571 363 Q288.589 355 287.238 344 L264.891 162 Q263.54 151 270.558 143 Q277.576 135 288.576 135 L759.576 135 L743 0 L95 0 L202.436 875 L850.314 874 L833.615 738 L362.615 738 Q351.615 738 342.571 729.5 Q333.528 721 332.177 710 L310.567 534 Z M343.954 1262 L484.391 1347 L641.521 1006 L507.521 1006 L343.954 1262 Z " />
<glyph glyph-name="emacron" unicode="&#x113;" horiz-adv-x="808" d="M310.567 534 Q309.094 522 316.111 514 Q323.129 506 334.129 506 L805.129 506 L788.553 371 L317.553 371 Q306.553 371 297.571 363 Q288.589 355 287.238 344 L264.891 162 Q263.54 151 270.558 143 Q277.576 135 288.576 135 L759.576 135 L743 0 L95 0 L202.436 875 L850.314 874 L833.615 738 L362.615 738 Q351.615 738 342.571 729.5 Q333.528 721 332.177 710 L310.567 534 Z M317.205 1036 L332.676 1162 L759.676 1162 L744.205 1036 L317.205 1036 Z " />
<glyph glyph-name="eogonek" unicode="&#x119;" horiz-adv-x="808" d="M718.689 -198 Q682.76 -230 645.234 -246.5 Q607.708 -263 570.708 -263 Q532.708 -263 500.988 -248.5 Q469.268 -234 447.399 -208.5 Q425.53 -183 415.144 -149.5 Q404.757 -116 409.423 -78 Q414.703 -35 439 0 L95 0 L202.436 875 L850.314 874 L833.615 738 L362.615 738 Q351.615 738 342.571 729.5 Q333.528 721 332.177 710 L310.567 534 Q309.094 522 316.111 514 Q323.129 506 334.129 506 L805.129 506 L788.553 371 L317.553 371 Q306.553 371 297.571 363 Q288.589 355 287.238 344 L264.891 162 Q263.54 151 270.558 143 Q277.576 135 288.576 135 L759.576 135 L743 0 L606 0 Q570.877 -1 544.176 -23 Q517.475 -45 513.546 -77 Q509.616 -109 529.415 -131 Q549.214 -153 581.214 -153 Q596.214 -153 613.135 -145.5 Q630.056 -138 645.775 -124 L718.689 -198 Z " />
<glyph glyph-name="aacute" unicode="&#xe1;" horiz-adv-x="932" d="M811.436 875 L872 0 L723 0 L706.363 231 Q705.205 246 703.415 264 Q701.625 282 697.467 297 Q693.309 312 684.537 322 Q675.764 332 660.764 332 L410.764 332 Q396.764 332 380.703 331.5 Q364.642 331 349.651 327 Q334.659 323 323.239 315.5 Q311.818 308 306.976 293 L213 0 L60 0 L337.436 875 L811.436 875 Z M632.521 1006 L515.521 1006 L745.672 1333 L853.217 1256 L632.521 1006 Z M361.832 471 L692.832 471 L672.334 752 L452.334 752 L361.832 471 Z " />
<glyph glyph-name="abreve" unicode="&#x103;" horiz-adv-x="932" d="M811.436 875 L872 0 L723 0 L706.363 231 Q705.205 246 703.415 264 Q701.625 282 697.467 297 Q693.309 312 684.537 322 Q675.764 332 660.764 332 L410.764 332 Q396.764 332 380.703 331.5 Q364.642 331 349.651 327 Q334.659 323 323.239 315.5 Q311.818 308 306.976 293 L213 0 L60 0 L337.436 875 L811.436 875 Z M601.168 1109 Q628.291 1110 649.624 1129 Q670.957 1148 674.272 1175 L791.272 1175 Q786.606 1137 768.116 1104.5 Q749.625 1072 722.055 1047 Q694.486 1022 659.267 1008 Q624.048 994 587.048 994 Q549.048 994 518.267 1008 Q487.486 1022 465.555 1047 Q443.625 1072 433.616 1104.5 Q423.606 1137 428.272 1175 L544.272 1175 Q540.957 1148 558.124 1129 Q575.291 1110 601.168 1109 Z M361.832 471 L692.832 471 L672.334 752 L452.334 752 L361.832 471 Z " />
<glyph glyph-name="acircumflex" unicode="&#xe2;" horiz-adv-x="932" d="M811.436 875 L872 0 L723 0 L706.363 231 Q705.205 246 703.415 264 Q701.625 282 697.467 297 Q693.309 312 684.537 322 Q675.764 332 660.764 332 L410.764 332 Q396.764 332 380.703 331.5 Q364.642 331 349.651 327 Q334.659 323 323.239 315.5 Q311.818 308 306.976 293 L213 0 L60 0 L337.436 875 L811.436 875 Z M740.4 948 L636.888 1066 Q630.748 1073 622.985 1079 Q615.221 1085 606.59 1088 Q597.958 1091 588.835 1090 Q579.712 1089 569.607 1080 L421.4 948 L354.731 1024 L619.709 1260 L826.731 1024 L741.4 948 L740.4 948 Z M361.832 471 L692.832 471 L672.334 752 L452.334 752 L361.832 471 Z " />
<glyph glyph-name="adieresis" unicode="&#xe4;" horiz-adv-x="932" d="M811.436 875 L872 0 L723 0 L706.363 231 Q705.205 246 703.415 264 Q701.625 282 697.467 297 Q693.309 312 684.537 322 Q675.764 332 660.764 332 L410.764 332 Q396.764 332 380.703 331.5 Q364.642 331 349.651 327 Q334.659 323 323.239 315.5 Q311.818 308 306.976 293 L213 0 L60 0 L337.436 875 L811.436 875 Z M530.853 1082 Q526.555 1047 499.109 1023 Q471.662 999 436.662 999 Q402.662 999 381.109 1023 Q359.555 1047 363.853 1082 Q368.15 1117 395.597 1141 Q423.044 1165 457.044 1165 Q492.044 1165 513.597 1141 Q535.15 1117 530.853 1082 Z M832.853 1082 Q828.555 1047 801.109 1023 Q773.662 999 738.662 999 Q704.662 999 683.109 1023 Q661.555 1047 665.853 1082 Q670.15 1117 697.597 1141 Q725.044 1165 759.044 1165 Q794.044 1165 815.597 1141 Q837.15 1117 832.853 1082 Z M361.832 471 L692.832 471 L672.334 752 L452.334 752 L361.832 471 Z " />
<glyph glyph-name="agrave" unicode="&#xe0;" horiz-adv-x="932" d="M811.436 875 L872 0 L723 0 L706.363 231 Q705.205 246 703.415 264 Q701.625 282 697.467 297 Q693.309 312 684.537 322 Q675.764 332 660.764 332 L410.764 332 Q396.764 332 380.703 331.5 Q364.642 331 349.651 327 Q334.659 323 323.239 315.5 Q311.818 308 306.976 293 L213 0 L60 0 L337.436 875 L811.436 875 Z M370.954 1262 L510.391 1347 L668.521 1006 L533.521 1006 L370.954 1262 Z M361.832 471 L692.832 471 L672.334 752 L452.334 752 L361.832 471 Z " />
<glyph glyph-name="amacron" unicode="&#x101;" horiz-adv-x="932" d="M811.436 875 L872 0 L723 0 L706.363 231 Q705.205 246 703.415 264 Q701.625 282 697.467 297 Q693.309 312 684.537 322 Q675.764 332 660.764 332 L410.764 332 Q396.764 332 380.703 331.5 Q364.642 331 349.651 327 Q334.659 323 323.239 315.5 Q311.818 308 306.976 293 L213 0 L60 0 L337.436 875 L811.436 875 Z M379.205 1036 L394.676 1162 L821.676 1162 L806.205 1036 L379.205 1036 Z M361.832 471 L692.832 471 L672.334 752 L452.334 752 L361.832 471 Z " />
<glyph glyph-name="aogonek" unicode="&#x105;" horiz-adv-x="932" d="M831.689 -198 Q795.76 -230 758.234 -246.5 Q720.708 -263 683.708 -263 Q645.708 -263 613.988 -248.5 Q582.268 -234 560.399 -208.5 Q538.53 -183 528.144 -149.5 Q517.757 -116 522.423 -78 Q526.843 -42 543.711 -10.5 Q560.578 21 586.025 45 Q611.472 69 644.375 84.5 Q677.278 100 714.647 103 L702.853 292 Q701.94 309 689.852 320.5 Q677.764 332 660.764 332 L359.764 332 Q342.764 332 327.914 321 Q313.063 310 306.976 293 L213 0 L60 0 L337.436 875 L811.436 875 L872 0 L723 0 Q687 0 658.737 -22.5 Q630.475 -45 626.546 -77 Q622.616 -109 642.415 -131 Q662.214 -153 694.214 -153 Q709.214 -153 726.135 -145.5 Q743.056 -138 758.775 -124 L831.689 -198 Z M361.832 471 L692.832 471 L672.334 752 L452.334 752 L361.832 471 Z " />
<glyph glyph-name="aring" unicode="&#xe5;" horiz-adv-x="932" d="M811.436 875 L872 0 L723 0 L706.363 231 Q705.205 246 703.415 264 Q701.625 282 697.467 297 Q693.309 312 684.537 322 Q675.764 332 660.764 332 L410.764 332 Q396.764 332 380.703 331.5 Q364.642 331 349.651 327 Q334.659 323 323.239 315.5 Q311.818 308 306.976 293 L213 0 L60 0 L337.436 875 L811.436 875 Z M619.709 1260 Q649.709 1260 674.797 1248.5 Q699.885 1237 716.99 1217.5 Q734.096 1198 742.342 1171.5 Q750.588 1145 746.905 1115 Q743.221 1085 728.467 1058.5 Q713.714 1032 691.819 1012.5 Q669.925 993 642.074 982 Q614.224 971 584.224 971 Q554.224 971 529.074 982 Q503.925 993 486.819 1012.5 Q469.714 1032 461.967 1058.5 Q454.221 1085 457.905 1115 Q461.588 1145 475.842 1171.5 Q490.096 1198 511.99 1217.5 Q533.885 1237 561.797 1248.5 Q589.709 1260 619.709 1260 Z M361.832 471 L692.832 471 L672.334 752 L452.334 752 L361.832 471 Z M594.66 1056 Q618.66 1056 638.309 1073.5 Q657.958 1091 660.905 1115 Q663.852 1139 648.5 1156.5 Q633.149 1174 609.149 1174 Q585.149 1174 565.5 1156.5 Q545.852 1139 542.905 1115 Q539.958 1091 555.309 1073.5 Q570.66 1056 594.66 1056 Z " />
<glyph glyph-name="atilde" unicode="&#xe3;" horiz-adv-x="932" d="M811.436 875 L872 0 L723 0 L706.363 231 Q705.205 246 703.415 264 Q701.625 282 697.467 297 Q693.309 312 684.537 322 Q675.764 332 660.764 332 L410.764 332 Q396.764 332 380.703 331.5 Q364.642 331 349.651 327 Q334.659 323 323.239 315.5 Q311.818 308 306.976 293 L213 0 L60 0 L337.436 875 L811.436 875 Z M388.693 1154 Q429.359 1192 466.35 1196 Q503.341 1200 538.307 1187.5 Q573.272 1175 607.132 1153.5 Q640.992 1132 675.957 1119.5 Q710.923 1107 747.914 1111 Q784.905 1115 825.571 1153 L809.731 1024 Q768.066 986 731.574 982 Q695.083 978 660.118 990.5 Q625.153 1003 591.293 1024.5 Q557.433 1046 522.467 1058.5 Q487.502 1071 450.511 1067 Q413.52 1063 372.854 1025 L388.693 1154 Z M361.832 471 L692.832 471 L672.334 752 L452.334 752 L361.832 471 Z " />
<glyph glyph-name="h" unicode="h" horiz-adv-x="974" d="M798.567 534 L840.436 875 L986.436 875 L879 0 L733 0 L775.115 343 Q776.466 354 769.509 362.5 Q762.553 371 751.553 371 L313.553 371 Q302.553 371 293.509 362.5 Q284.466 354 283.115 343 L241 0 L95 0 L202.436 875 L348.436 875 L306.567 534 Q305.216 523 312.173 514.5 Q319.129 506 330.129 506 L768.129 506 Q779.129 506 788.173 514.5 Q797.216 523 798.567 534 Z " />
<glyph glyph-name="hbar" unicode="&#x127;" horiz-adv-x="974" d="M111.249 621 L127.825 756 L187.825 756 L202.436 875 L348.436 875 L333.825 756 L825.825 756 L840.436 875 L986.436 875 L971.825 756 L1031.83 756 L1015.25 621 L955.249 621 L879 0 L733 0 L775.115 343 Q776.466 354 769.509 362.5 Q762.553 371 751.553 371 L313.553 371 Q302.553 371 293.509 362.5 Q284.466 354 283.115 343 L241 0 L95 0 L171.249 621 L111.249 621 Z M798.567 534 L809.249 621 L317.249 621 L306.567 534 Q305.216 523 312.173 514.5 Q319.129 506 330.129 506 L768.129 506 Q779.129 506 788.173 514.5 Q797.216 523 798.567 534 Z " />
<glyph glyph-name="hcircumflex" unicode="&#x125;" horiz-adv-x="974" d="M798.567 534 L840.436 875 L986.436 875 L879 0 L733 0 L775.115 343 Q776.466 354 769.509 362.5 Q762.553 371 751.553 371 L313.553 371 Q302.553 371 293.509 362.5 Q284.466 354 283.115 343 L241 0 L95 0 L202.436 875 L348.436 875 L306.567 534 Q305.216 523 312.173 514.5 Q319.129 506 330.129 506 L768.129 506 Q779.129 506 788.173 514.5 Q797.216 523 798.567 534 Z M762.4 948 L646.607 1080 Q636.958 1091 620.458 1091 Q603.958 1091 591.607 1080 L443.4 948 L376.731 1024 L641.709 1260 L848.731 1024 L763.4 948 L762.4 948 Z " />
<glyph glyph-name="i" unicode="i" horiz-adv-x="406" d="M130 0 L237.436 875 L383.436 875 L276 0 L130 0 Z " />
<glyph glyph-name="iacute" unicode="&#xed;" horiz-adv-x="406" d="M130 0 L237.436 875 L383.436 875 L276 0 L130 0 Z M350.521 1006 L232.521 1006 L463.672 1333 L571.217 1256 L350.521 1006 Z " />
<glyph glyph-name="ibreve" unicode="&#x12d;" horiz-adv-x="406" d="M130 0 L237.436 875 L383.436 875 L276 0 L130 0 Z M339.168 1109 Q365.291 1110 387.124 1129 Q408.957 1148 412.272 1175 L528.272 1175 Q523.606 1137 505.616 1104.5 Q487.625 1072 459.555 1047 Q431.486 1022 396.767 1008 Q362.048 994 325.048 994 Q287.048 994 255.767 1008 Q224.486 1022 203.055 1047 Q181.625 1072 171.116 1104.5 Q160.606 1137 165.272 1175 L282.272 1175 Q278.957 1148 295.624 1129 Q312.291 1110 339.168 1109 Z " />
<glyph glyph-name="icircumflex" unicode="&#xee;" horiz-adv-x="406" d="M130 0 L237.436 875 L383.436 875 L276 0 L130 0 Z M478.4 948 L362.607 1080 Q352.958 1091 336.458 1091 Q319.958 1091 307.607 1080 L159.4 948 L92.7314 1024 L357.709 1260 L564.731 1024 L479.4 948 L478.4 948 Z " />
<glyph glyph-name="idieresis" unicode="&#xef;" horiz-adv-x="406" d="M130 0 L237.436 875 L383.436 875 L276 0 L130 0 Z M267.853 1082 Q263.555 1047 236.109 1023 Q208.662 999 173.662 999 Q139.662 999 118.109 1023 Q96.5554 1047 100.853 1082 Q105.15 1117 132.597 1141 Q160.044 1165 194.044 1165 Q229.044 1165 250.597 1141 Q272.15 1117 267.853 1082 Z M569.853 1082 Q565.555 1047 538.109 1023 Q510.662 999 475.662 999 Q441.662 999 420.109 1023 Q398.555 1047 402.853 1082 Q407.15 1117 434.597 1141 Q462.044 1165 496.044 1165 Q531.044 1165 552.597 1141 Q574.15 1117 569.853 1082 Z " />
<glyph glyph-name="igrave" unicode="&#xec;" horiz-adv-x="406" d="M130 0 L237.436 875 L383.436 875 L276 0 L130 0 Z M415.169 1052 Q410.872 1017 383.425 993 Q355.978 969 320.978 969 Q286.978 969 265.425 993 Q243.872 1017 248.169 1052 Q252.467 1087 279.914 1111 Q307.36 1135 341.36 1135 Q376.36 1135 397.914 1111 Q419.467 1087 415.169 1052 Z " />
<glyph glyph-name="imacron" unicode="&#x12b;" horiz-adv-x="406" d="M130 0 L237.436 875 L383.436 875 L276 0 L130 0 Z M132.954 1262 L273.391 1347 L430.521 1006 L296.521 1006 L132.954 1262 Z " />
<glyph glyph-name="iogonek" unicode="&#x12f;" horiz-adv-x="406" d="M130 0 L237.436 875 L383.436 875 L276 0 L130 0 Z M117.205 1036 L132.676 1162 L559.676 1162 L544.205 1036 L117.205 1036 Z " />
<glyph glyph-name="itilde" unicode="&#x129;" horiz-adv-x="406" d="M270.689 -198 Q235.76 -230 197.734 -246.5 Q159.708 -263 122.708 -263 Q84.7077 -263 52.988 -248.5 Q21.2684 -234 -0.600581 -208.5 Q-22.4696 -183 -32.8563 -149.5 Q-43.243 -116 -38.5772 -78 Q-34.4025 -44 -18.6576 -13.5 Q-2.91266 17 21.0342 41 Q44.981 65 75.8842 80.5 Q106.787 96 142.401 101 L237.436 875 L383.436 875 L276 0 L159 0 Q123.877 -1 97.176 -23 Q70.4747 -45 66.5456 -77 Q62.6165 -109 81.9152 -131 Q101.214 -153 133.214 -153 Q165.214 -153 197.775 -124 L270.689 -198 Z " />
<glyph glyph-name="ij" unicode="&#x133;" horiz-adv-x="406" d="M130 0 L237.436 875 L383.436 875 L276 0 L130 0 Z M125.693 1154 Q166.359 1192 203.85 1196 Q241.341 1200 275.807 1187.5 Q310.272 1175 344.132 1153.5 Q377.992 1132 412.957 1119.5 Q447.923 1107 484.914 1111 Q521.905 1115 563.571 1153 L547.731 1024 Q506.066 986 469.574 982 Q433.083 978 397.618 990.5 Q362.153 1003 328.293 1024.5 Q294.433 1046 259.967 1058.5 Q225.502 1071 188.011 1067 Q150.52 1063 109.854 1025 L125.693 1154 Z " />
<glyph glyph-name="j" unicode="j" horiz-adv-x="728" d="M530.589 355 L594.314 874 L745.314 874 L681.343 353 Q672.38 280 636.96 215.5 Q601.54 151 547.647 103 Q493.753 55 425.877 27.5 Q358 0 285 0 Q211 0 150.377 27.5 Q89.7532 55 47.6468 103 L162.294 206 Q186.856 178 222.137 164 Q257.418 150 300.418 150 Q342.418 150 381.882 166 Q421.347 182 452.785 210 Q484.223 238 504.827 275.5 Q525.432 313 530.589 355 Z " />
<glyph glyph-name="jcircumflex" unicode="&#x135;" horiz-adv-x="728" d="M530.589 355 L594.314 874 L745.314 874 L681.343 353 Q672.38 280 636.96 215.5 Q601.54 151 547.647 103 Q493.753 55 425.877 27.5 Q358 0 285 0 Q211 0 150.377 27.5 Q89.7532 55 47.6468 103 L162.294 206 Q186.856 178 222.137 164 Q257.418 150 300.418 150 Q342.418 150 381.882 166 Q421.347 182 452.785 210 Q484.223 238 504.827 275.5 Q525.432 313 530.589 355 Z M840.4 948 L736.888 1066 Q724.607 1080 706.651 1088.5 Q688.695 1097 669.607 1080 L521.4 948 L454.731 1024 L719.709 1260 L926.731 1024 L841.4 948 L840.4 948 Z " />
<glyph glyph-name="k" unicode="k" horiz-adv-x="926" d="M993.436 875 L553.78 438 L886 0 L704 0 L430.834 357 Q421.553 371 403.553 371 L313.553 371 Q302.553 371 293.509 362.5 Q284.466 354 283.115 343 L241 0 L95 0 L202.436 875 L348.436 875 L306.567 534 Q305.216 523 312.173 514.5 Q319.129 506 330.129 506 L422.129 506 Q440.129 506 453.848 520 L810.436 875 L993.436 875 Z " />
<glyph glyph-name="kcommaaccent" unicode="&#x137;" horiz-adv-x="926" d="M993.436 875 L553.78 438 L886 0 L704 0 L430.834 357 Q421.553 371 403.553 371 L313.553 371 Q302.553 371 293.509 362.5 Q284.466 354 283.115 343 L241 0 L95 0 L202.436 875 L348.436 875 L306.567 534 Q305.216 523 312.173 514.5 Q319.129 506 330.129 506 L422.129 506 Q440.129 506 453.848 520 L810.436 875 L993.436 875 Z M379.565 -142 L510.565 -142 L454.062 -423 L345.062 -423 L379.565 -142 Z " />
<glyph glyph-name="l" unicode="l" horiz-adv-x="759" d="M352.436 875 L266.856 178 Q264.4 158 273.988 146.5 Q283.576 135 303.576 135 L740.576 135 L724 0 L95 0 L202.436 875 L352.436 875 Z " />
<glyph glyph-name="lacute" unicode="&#x13a;" horiz-adv-x="759" d="M352.436 875 L266.856 178 Q264.4 158 273.988 146.5 Q283.576 135 303.576 135 L740.576 135 L724 0 L95 0 L202.436 875 L352.436 875 Z M384.521 1006 L267.521 1006 L497.672 1333 L605.217 1256 L384.521 1006 Z " />
<glyph glyph-name="lcaron" unicode="&#x13e;" horiz-adv-x="759" d="M352.436 875 L266.856 178 Q264.4 158 273.988 146.5 Q283.576 135 303.576 135 L740.576 135 L724 0 L95 0 L202.436 875 L352.436 875 Z M644.509 786 L775.509 786 L719.006 505 L610.006 505 L644.509 786 Z " />
<glyph glyph-name="lcommaaccent" unicode="&#x13c;" horiz-adv-x="759" d="M352.436 875 L266.856 178 Q264.4 158 273.988 146.5 Q283.576 135 303.576 135 L740.576 135 L724 0 L95 0 L202.436 875 L352.436 875 Z M266.565 -142 L397.565 -142 L341.062 -423 L232.062 -423 L266.565 -142 Z " />
<glyph glyph-name="ldot" unicode="&#x140;" horiz-adv-x="759" d="M352.436 875 L266.856 178 Q264.4 158 273.988 146.5 Q283.576 135 303.576 135 L740.576 135 L724 0 L95 0 L202.436 875 L352.436 875 Z M636.586 469 Q632.288 434 605.342 410 Q578.395 386 543.395 386 Q508.395 386 487.342 410 Q466.288 434 470.586 469 Q474.883 504 501.83 528 Q528.777 552 563.777 552 Q598.777 552 619.83 528 Q640.883 504 636.586 469 Z " />
<glyph glyph-name="lslash" unicode="&#x142;" horiz-adv-x="759" d="M75.5531 371 L92.129 506 L157.129 506 L202.436 875 L352.436 875 L307.129 506 L550.129 506 L533.553 371 L290.553 371 L266.856 178 Q264.4 158 273.988 146.5 Q283.576 135 303.576 135 L740.576 135 L724 0 L95 0 L140.553 371 L75.5531 371 Z " />
<glyph glyph-name="n" unicode="n" horiz-adv-x="1019" d="M801.749 226 L881.436 875 L1031.44 875 L924 0 L781 0 L326.547 656 L246 0 L95 0 L202.436 875 L346.436 875 L801.749 226 Z " />
<glyph glyph-name="nacute" unicode="&#x144;" horiz-adv-x="1019" d="M801.749 226 L881.436 875 L1031.44 875 L924 0 L781 0 L326.547 656 L246 0 L95 0 L202.436 875 L346.436 875 L801.749 226 Z M676.521 1006 L558.521 1006 L789.672 1333 L897.217 1256 L676.521 1006 Z " />
<glyph glyph-name="ntilde" unicode="&#xf1;" horiz-adv-x="1019" d="M801.749 226 L881.436 875 L1031.44 875 L924 0 L781 0 L326.547 656 L246 0 L95 0 L202.436 875 L346.436 875 L801.749 226 Z M431.693 1154 Q472.359 1192 509.85 1196 Q547.341 1200 581.807 1187.5 Q616.272 1175 650.132 1153.5 Q683.992 1132 718.957 1119.5 Q753.923 1107 790.914 1111 Q827.905 1115 869.571 1153 L853.731 1024 Q812.066 986 775.574 982 Q739.083 978 703.618 990.5 Q668.153 1003 634.293 1024.5 Q600.433 1046 565.967 1058.5 Q531.502 1071 494.011 1067 Q456.52 1063 415.854 1025 L431.693 1154 Z " />
<glyph glyph-name="ncommaaccent" unicode="&#x146;" horiz-adv-x="1019" d="M801.749 226 L881.436 875 L1031.44 875 L924 0 L781 0 L326.547 656 L246 0 L95 0 L202.436 875 L346.436 875 L801.749 226 Z M426.565 -142 L557.565 -142 L501.062 -423 L392.062 -423 L426.565 -142 Z " />
<glyph glyph-name="ncaron" unicode="&#x148;" horiz-adv-x="1019" d="M801.749 226 L881.436 875 L1031.44 875 L924 0 L781 0 L326.547 656 L246 0 L95 0 L202.436 875 L346.436 875 L801.749 226 Z M823.709 1260 L890.377 1184 L625.4 948 L418.377 1184 L503.709 1260 L619.501 1128 Q629.15 1117 645.65 1117 Q662.15 1117 674.501 1128 L748.605 1194 Q776.674 1219 799.691 1239.5 Q822.709 1260 823.709 1260 Z " />
<glyph glyph-name="napostrophe" unicode="&#x149;" horiz-adv-x="1019" d="M801.749 226 L881.436 875 L1031.44 875 L924 0 L781 0 L326.547 656 L246 0 L95 0 L202.436 875 L346.436 875 L801.749 226 Z M77.5646 -142 L208.565 -142 L152.062 -423 L43.0621 -423 L77.5646 -142 Z " />
<glyph glyph-name="o" unicode="o" horiz-adv-x="994" d="M515.295 149 Q574.295 149 629.558 171.5 Q684.82 194 728.609 233 Q772.397 272 801.844 324.5 Q831.29 377 838.657 437 Q845.901 496 829.347 548.5 Q812.794 601 778.582 640 Q744.371 679 694.633 701.5 Q644.896 724 585.896 724 Q525.896 724 471.133 701.5 Q416.371 679 372.582 640 Q328.794 601 299.847 548.5 Q270.901 496 263.657 437 Q256.29 377 272.344 324.5 Q288.397 272 322.609 233 Q356.82 194 406.058 171.5 Q455.295 149 515.295 149 Z M604.314 874 Q695.314 874 770.578 839.5 Q845.842 805 897.597 746 Q949.353 687 974.03 607 Q998.707 527 987.657 437 Q976.483 346 932.222 266.5 Q887.961 187 821.655 127.5 Q755.349 68 671.675 34 Q588 0 497 0 Q407 0 331.175 34 Q255.349 68 203.655 127.5 Q151.961 187 127.222 266.5 Q102.483 346 113.657 437 Q124.707 527 169.03 607 Q213.353 687 279.597 746 Q345.842 805 430.078 839.5 Q514.314 874 604.314 874 Z " />
<glyph glyph-name="oacute" unicode="&#xf3;" horiz-adv-x="994" d="M515.295 149 Q574.295 149 629.558 171.5 Q684.82 194 728.609 233 Q772.397 272 801.844 324.5 Q831.29 377 838.657 437 Q845.901 496 829.347 548.5 Q812.794 601 778.582 640 Q744.371 679 694.633 701.5 Q644.896 724 585.896 724 Q525.896 724 471.133 701.5 Q416.371 679 372.582 640 Q328.794 601 299.847 548.5 Q270.901 496 263.657 437 Q256.29 377 272.344 324.5 Q288.397 272 322.609 233 Q356.82 194 406.058 171.5 Q455.295 149 515.295 149 Z M604.314 874 Q695.314 874 770.578 839.5 Q845.842 805 897.597 746 Q949.353 687 974.03 607 Q998.707 527 987.657 437 Q976.483 346 932.222 266.5 Q887.961 187 821.655 127.5 Q755.349 68 671.675 34 Q588 0 497 0 Q407 0 331.175 34 Q255.349 68 203.655 127.5 Q151.961 187 127.222 266.5 Q102.483 346 113.657 437 Q124.707 527 169.03 607 Q213.353 687 279.597 746 Q345.842 805 430.078 839.5 Q514.314 874 604.314 874 Z M663.521 1006 L546.521 1006 L776.672 1333 L884.217 1256 L663.521 1006 Z " />
<glyph glyph-name="obreve" unicode="&#x14f;" horiz-adv-x="994" d="M604.314 874 Q695.314 874 770.578 839.5 Q845.842 805 897.597 746 Q949.353 687 974.03 607 Q998.707 527 987.657 437 Q976.483 346 932.222 266.5 Q887.961 187 821.655 127.5 Q755.349 68 671.675 34 Q588 0 497 0 Q407 0 331.175 34 Q255.349 68 203.655 127.5 Q151.961 187 127.222 266.5 Q102.483 346 113.657 437 Q124.707 527 169.03 607 Q213.353 687 279.597 746 Q345.842 805 430.078 839.5 Q514.314 874 604.314 874 Z M515.295 149 Q574.295 149 629.558 171.5 Q684.82 194 728.609 233 Q772.397 272 801.844 324.5 Q831.29 377 838.657 437 Q845.901 496 829.347 548.5 Q812.794 601 778.582 640 Q744.371 679 694.633 701.5 Q644.896 724 585.896 724 Q525.896 724 471.133 701.5 Q416.371 679 372.582 640 Q328.794 601 299.847 548.5 Q270.901 496 263.657 437 Q256.29 377 272.344 324.5 Q288.397 272 322.609 233 Q356.82 194 406.058 171.5 Q455.295 149 515.295 149 Z M706.272 1175 L822.272 1175 Q817.606 1137 799.616 1104.5 Q781.625 1072 753.555 1047 Q725.486 1022 690.767 1008 Q656.048 994 619.048 994 Q581.048 994 549.767 1008 Q518.486 1022 497.055 1047 Q475.625 1072 465.116 1104.5 Q454.606 1137 459.272 1175 L576.272 1175 Q572.957 1148 590.062 1128.5 Q607.168 1109 634.168 1109 Q660.291 1110 681.624 1129 Q702.957 1148 706.272 1175 Z " />
<glyph glyph-name="ocircumflex" unicode="&#xf4;" horiz-adv-x="994" d="M604.314 874 Q695.314 874 770.578 839.5 Q845.842 805 897.597 746 Q949.353 687 974.03 607 Q998.707 527 987.657 437 Q976.483 346 932.222 266.5 Q887.961 187 821.655 127.5 Q755.349 68 671.675 34 Q588 0 497 0 Q407 0 331.175 34 Q255.349 68 203.655 127.5 Q151.961 187 127.222 266.5 Q102.483 346 113.657 437 Q124.707 527 169.03 607 Q213.353 687 279.597 746 Q345.842 805 430.078 839.5 Q514.314 874 604.314 874 Z M515.295 149 Q574.295 149 629.558 171.5 Q684.82 194 728.609 233 Q772.397 272 801.844 324.5 Q831.29 377 838.657 437 Q845.901 496 829.347 548.5 Q812.794 601 778.582 640 Q744.371 679 694.633 701.5 Q644.896 724 585.896 724 Q525.896 724 471.133 701.5 Q416.371 679 372.582 640 Q328.794 601 299.847 548.5 Q270.901 496 263.657 437 Q256.29 377 272.344 324.5 Q288.397 272 322.609 233 Q356.82 194 406.058 171.5 Q455.295 149 515.295 149 Z M772.4 948 L656.607 1080 Q646.958 1091 630.458 1091 Q613.958 1091 601.607 1080 L453.4 948 L386.731 1024 L651.709 1260 L858.731 1024 L773.4 948 L772.4 948 Z " />
<glyph glyph-name="odieresis" unicode="&#xf6;" horiz-adv-x="994" d="M515.295 149 Q574.295 149 629.558 171.5 Q684.82 194 728.609 233 Q772.397 272 801.844 324.5 Q831.29 377 838.657 437 Q845.901 496 829.347 548.5 Q812.794 601 778.582 640 Q744.371 679 694.633 701.5 Q644.896 724 585.896 724 Q525.896 724 471.133 701.5 Q416.371 679 372.582 640 Q328.794 601 299.847 548.5 Q270.901 496 263.657 437 Q256.29 377 272.344 324.5 Q288.397 272 322.609 233 Q356.82 194 406.058 171.5 Q455.295 149 515.295 149 Z M604.314 874 Q695.314 874 770.578 839.5 Q845.842 805 897.597 746 Q949.353 687 974.03 607 Q998.707 527 987.657 437 Q976.483 346 932.222 266.5 Q887.961 187 821.655 127.5 Q755.349 68 671.675 34 Q588 0 497 0 Q407 0 331.175 34 Q255.349 68 203.655 127.5 Q151.961 187 127.222 266.5 Q102.483 346 113.657 437 Q124.707 527 169.03 607 Q213.353 687 279.597 746 Q345.842 805 430.078 839.5 Q514.314 874 604.314 874 Z M863.853 1082 Q859.555 1047 832.109 1023 Q804.662 999 769.662 999 Q735.662 999 714.109 1023 Q692.555 1047 696.853 1082 Q701.15 1117 728.597 1141 Q756.044 1165 790.044 1165 Q825.044 1165 846.597 1141 Q868.15 1117 863.853 1082 Z M561.853 1082 Q557.555 1047 530.109 1023 Q502.662 999 467.662 999 Q433.662 999 412.109 1023 Q390.555 1047 394.853 1082 Q399.15 1117 426.597 1141 Q454.044 1165 488.044 1165 Q523.044 1165 544.597 1141 Q566.15 1117 561.853 1082 Z " />
<glyph glyph-name="ograve" unicode="&#xf2;" horiz-adv-x="994" d="M515.295 149 Q574.295 149 629.558 171.5 Q684.82 194 728.609 233 Q772.397 272 801.844 324.5 Q831.29 377 838.657 437 Q845.901 496 829.347 548.5 Q812.794 601 778.582 640 Q744.371 679 694.633 701.5 Q644.896 724 585.896 724 Q525.896 724 471.133 701.5 Q416.371 679 372.582 640 Q328.794 601 299.847 548.5 Q270.901 496 263.657 437 Q256.29 377 272.344 324.5 Q288.397 272 322.609 233 Q356.82 194 406.058 171.5 Q455.295 149 515.295 149 Z M604.314 874 Q695.314 874 770.578 839.5 Q845.842 805 897.597 746 Q949.353 687 974.03 607 Q998.707 527 987.657 437 Q976.483 346 932.222 266.5 Q887.961 187 821.655 127.5 Q755.349 68 671.675 34 Q588 0 497 0 Q407 0 331.175 34 Q255.349 68 203.655 127.5 Q151.961 187 127.222 266.5 Q102.483 346 113.657 437 Q124.707 527 169.03 607 Q213.353 687 279.597 746 Q345.842 805 430.078 839.5 Q514.314 874 604.314 874 Z M406.954 1262 L547.391 1347 L704.521 1006 L570.521 1006 L406.954 1262 Z " />
<glyph glyph-name="ohungarumlaut" unicode="&#x151;" horiz-adv-x="994" d="M515.295 149 Q574.295 149 629.558 171.5 Q684.82 194 728.609 233 Q772.397 272 801.844 324.5 Q831.29 377 838.657 437 Q845.901 496 829.347 548.5 Q812.794 601 778.582 640 Q744.371 679 694.633 701.5 Q644.896 724 585.896 724 Q525.896 724 471.133 701.5 Q416.371 679 372.582 640 Q328.794 601 299.847 548.5 Q270.901 496 263.657 437 Q256.29 377 272.344 324.5 Q288.397 272 322.609 233 Q356.82 194 406.058 171.5 Q455.295 149 515.295 149 Z M604.314 874 Q695.314 874 770.578 839.5 Q845.842 805 897.597 746 Q949.353 687 974.03 607 Q998.707 527 987.657 437 Q976.483 346 932.222 266.5 Q887.961 187 821.655 127.5 Q755.349 68 671.675 34 Q588 0 497 0 Q407 0 331.175 34 Q255.349 68 203.655 127.5 Q151.961 187 127.222 266.5 Q102.483 346 113.657 437 Q124.707 527 169.03 607 Q213.353 687 279.597 746 Q345.842 805 430.078 839.5 Q514.314 874 604.314 874 Z M530.521 1006 L412.521 1006 L643.672 1333 L751.217 1256 L530.521 1006 Z M797.521 1006 L680.521 1006 L910.672 1333 L1018.22 1256 L797.521 1006 Z " />
<glyph glyph-name="omacron" unicode="&#x14d;" horiz-adv-x="994" d="M604.314 874 Q695.314 874 770.578 839.5 Q845.842 805 897.597 746 Q949.353 687 974.03 607 Q998.707 527 987.657 437 Q976.483 346 932.222 266.5 Q887.961 187 821.655 127.5 Q755.349 68 671.675 34 Q588 0 497 0 Q407 0 331.175 34 Q255.349 68 203.655 127.5 Q151.961 187 127.222 266.5 Q102.483 346 113.657 437 Q124.707 527 169.03 607 Q213.353 687 279.597 746 Q345.842 805 430.078 839.5 Q514.314 874 604.314 874 Z M515.295 149 Q574.295 149 629.558 171.5 Q684.82 194 728.609 233 Q772.397 272 801.844 324.5 Q831.29 377 838.657 437 Q845.901 496 829.347 548.5 Q812.794 601 778.582 640 Q744.371 679 694.633 701.5 Q644.896 724 585.896 724 Q525.896 724 471.133 701.5 Q416.371 679 372.582 640 Q328.794 601 299.847 548.5 Q270.901 496 263.657 437 Q256.29 377 272.344 324.5 Q288.397 272 322.609 233 Q356.82 194 406.058 171.5 Q455.295 149 515.295 149 Z M410.205 1036 L425.676 1162 L852.676 1162 L837.205 1036 L410.205 1036 Z " />
<glyph glyph-name="oslash" unicode="&#xf8;" horiz-adv-x="994" d="M225.194 -31 L275.981 65 Q232.419 93 198.769 132.5 Q165.119 172 144.013 220 Q122.906 268 114.659 323 Q106.413 378 113.657 437 Q124.707 527 169.03 607 Q213.353 687 279.597 746 Q345.842 805 430.078 839.5 Q514.314 874 604.314 874 Q654.314 874 703.595 860 L762.101 970 L866.312 931 L806.561 819 Q854.245 792 891.334 752 Q928.423 712 952.345 662.5 Q976.267 613 985.768 556 Q995.269 499 987.657 437 Q976.483 346 932.222 266.5 Q887.961 187 821.655 127.5 Q755.349 68 671.675 34 Q588 0 497 0 Q432 0 377.21 18 L330.405 -70 L225.194 -31 Z M515.295 149 Q574.295 149 629.558 171.5 Q684.82 194 728.609 233 Q772.397 272 801.844 324.5 Q831.29 377 838.657 437 Q848.111 514 817.908 577.5 Q787.705 641 730.125 677 L452.523 159 Q466.909 154 482.602 151.5 Q498.295 149 515.295 149 Z M263.657 437 Q254.816 365 279.572 306 Q304.328 247 353.785 210 L624.791 715 Q585.528 721 543.791 715 Q491.054 709 443.107 685 Q395.161 661 357.618 624 Q320.075 587 295.181 539 Q270.287 491 263.657 437 Z " />
<glyph glyph-name="oslashacute" unicode="&#x1ff;" horiz-adv-x="994" d="M225.194 -31 L275.981 65 Q232.419 93 198.769 132.5 Q165.119 172 144.013 220 Q122.906 268 114.659 323 Q106.413 378 113.657 437 Q124.707 527 169.03 607 Q213.353 687 279.597 746 Q345.842 805 430.078 839.5 Q514.314 874 604.314 874 Q654.314 874 703.595 860 L762.101 970 L866.312 931 L806.561 819 Q854.245 792 891.334 752 Q928.423 712 952.345 662.5 Q976.267 613 985.768 556 Q995.269 499 987.657 437 Q976.483 346 932.222 266.5 Q887.961 187 821.655 127.5 Q755.349 68 671.675 34 Q588 0 497 0 Q432 0 377.21 18 L330.405 -70 L225.194 -31 Z M583.521 1006 L466.521 1006 L696.672 1333 L804.217 1256 L583.521 1006 Z M515.295 149 Q574.295 149 629.558 171.5 Q684.82 194 728.609 233 Q772.397 272 801.844 324.5 Q831.29 377 838.657 437 Q848.111 514 817.908 577.5 Q787.705 641 730.125 677 L452.523 159 Q466.909 154 482.602 151.5 Q498.295 149 515.295 149 Z M263.657 437 Q254.816 365 279.572 306 Q304.328 247 353.785 210 L624.791 715 Q585.528 721 543.791 715 Q491.054 709 443.107 685 Q395.161 661 357.618 624 Q320.075 587 295.181 539 Q270.287 491 263.657 437 Z " />
<glyph glyph-name="otilde" unicode="&#xf5;" horiz-adv-x="994" d="M604.314 874 Q695.314 874 770.578 839.5 Q845.842 805 897.597 746 Q949.353 687 974.03 607 Q998.707 527 987.657 437 Q976.483 346 932.222 266.5 Q887.961 187 821.655 127.5 Q755.349 68 671.675 34 Q588 0 497 0 Q407 0 331.175 34 Q255.349 68 203.655 127.5 Q151.961 187 127.222 266.5 Q102.483 346 113.657 437 Q124.707 527 169.03 607 Q213.353 687 279.597 746 Q345.842 805 430.078 839.5 Q514.314 874 604.314 874 Z M515.295 149 Q574.295 149 629.558 171.5 Q684.82 194 728.609 233 Q772.397 272 801.844 324.5 Q831.29 377 838.657 437 Q845.901 496 829.347 548.5 Q812.794 601 778.582 640 Q744.371 679 694.633 701.5 Q644.896 724 585.896 724 Q525.896 724 471.133 701.5 Q416.371 679 372.582 640 Q328.794 601 299.847 548.5 Q270.901 496 263.657 437 Q256.29 377 272.344 324.5 Q288.397 272 322.609 233 Q356.82 194 406.058 171.5 Q455.295 149 515.295 149 Z M419.693 1154 Q460.359 1192 497.35 1196 Q534.341 1200 569.307 1187.5 Q604.272 1175 638.132 1153.5 Q671.992 1132 706.957 1119.5 Q741.923 1107 778.414 1111 Q814.905 1115 856.571 1153 L840.731 1024 Q799.066 986 762.574 982 Q726.083 978 691.118 990.5 Q656.153 1003 622.293 1024.5 Q588.433 1046 553.467 1058.5 Q518.502 1071 481.511 1067 Q444.52 1063 403.854 1025 L419.693 1154 Z " />
<glyph glyph-name="oe" unicode="&#x153;" horiz-adv-x="1250" d="M1292.31 874 L1275.62 738 L760.615 738 Q749.615 738 740.571 729.5 Q731.528 721 730.177 710 L708.567 534 Q707.094 522 714.111 514 Q721.129 506 732.129 506 L1247.13 506 L1230.55 371 L715.553 371 Q704.553 371 695.571 363 Q686.589 355 685.238 344 L662.891 162 Q661.54 151 668.558 143 Q675.576 135 686.576 135 L1201.58 135 L1185 0 L497 0 Q407 0 331.175 34 Q255.349 68 203.655 127.5 Q151.961 187 127.222 266.5 Q102.483 346 113.657 437 Q124.707 527 169.03 607 Q213.353 687 279.659 746.5 Q345.964 806 430.2 840.5 Q514.436 875 604.436 875 L1292.31 874 Z M587.861 740 Q524.861 740 466.914 716 Q408.967 692 362.433 651 Q315.899 610 285.645 555 Q255.392 500 247.657 437 Q239.921 374 256.607 318.5 Q273.292 263 309.697 221.5 Q346.101 180 398.216 156.5 Q450.33 133 513.33 133 L587.861 740 Z " />
<glyph glyph-name="R" unicode="R" horiz-adv-x="925" d="M951.758 617 Q943.286 548 901.726 490.5 Q860.166 433 796.359 402 Q784.745 397 775.754 393 Q766.763 389 757.026 383 Q748.413 378 741.808 369 Q735.202 360 737.361 345 Q739.378 337 748.247 311.5 Q757.116 286 769.819 251 Q782.521 216 797.171 176.5 Q811.821 137 825.401 101 Q838.981 65 849.604 37.5 Q860.228 10 864 0 L711 0 L569.553 371 L329.553 371 Q312.553 371 299.641 359.5 Q286.729 348 284.642 331 L244 0 L95 0 L202.436 875 L729.436 875 Q782.436 875 826.419 854.5 Q870.402 834 900.605 799 Q930.807 764 944.537 717 Q958.266 670 951.758 617 Z M665.024 497 Q690.024 497 714.252 507 Q738.48 517 758.067 534 Q777.654 551 790.417 573.5 Q803.18 596 806.372 622 Q809.687 649 802.573 672.5 Q795.458 696 780.607 713.5 Q765.756 731 742.922 740.5 Q720.088 750 693.088 750 L376.088 750 Q359.088 750 346.238 739 Q333.387 728 331.3 711 L309.813 536 Q307.725 519 317.875 508 Q328.024 497 345.024 497 L665.024 497 Z " />
<glyph glyph-name="Racute" unicode="&#x154;" horiz-adv-x="925" d="M951.758 617 Q943.286 548 901.726 490.5 Q860.166 433 796.359 402 Q784.745 397 775.754 393 Q766.763 389 757.026 383 Q748.413 378 741.808 369 Q735.202 360 737.361 345 Q739.378 337 748.247 311.5 Q757.116 286 769.819 251 Q782.521 216 797.171 176.5 Q811.821 137 825.401 101 Q838.981 65 849.604 37.5 Q860.228 10 864 0 L711 0 L569.553 371 L329.553 371 Q312.553 371 299.641 359.5 Q286.729 348 284.642 331 L244 0 L95 0 L202.436 875 L729.436 875 Q782.436 875 826.419 854.5 Q870.402 834 900.605 799 Q930.807 764 944.537 717 Q958.266 670 951.758 617 Z M665.024 497 Q690.024 497 714.252 507 Q738.48 517 758.067 534 Q777.654 551 790.417 573.5 Q803.18 596 806.372 622 Q809.687 649 802.573 672.5 Q795.458 696 780.607 713.5 Q765.756 731 742.922 740.5 Q720.088 750 693.088 750 L376.088 750 Q359.088 750 346.238 739 Q333.387 728 331.3 711 L309.813 536 Q307.725 519 317.875 508 Q328.024 497 345.024 497 L665.024 497 Z M549.521 1006 L431.521 1006 L662.672 1333 L770.217 1256 L549.521 1006 Z " />
<glyph glyph-name="Rcaron" unicode="&#x158;" horiz-adv-x="925" d="M951.758 617 Q943.286 548 901.726 490.5 Q860.166 433 796.359 402 Q784.745 397 775.754 393 Q766.763 389 757.026 383 Q748.413 378 741.808 369 Q735.202 360 737.361 345 Q741.396 329 751.142 302.5 Q760.889 276 772.459 244 Q784.03 212 797.171 176.5 Q810.313 141 823.261 108 Q836.209 75 846.709 46.5 Q857.21 18 864 0 L711 0 L569.553 371 L329.553 371 Q312.553 371 299.641 359.5 Q286.729 348 284.642 331 L244 0 L95 0 L202.436 875 L729.436 875 Q782.436 875 826.419 854.5 Q870.402 834 900.605 799 Q930.807 764 944.537 717 Q958.266 670 951.758 617 Z M776.709 1260 L843.377 1184 L578.4 948 L371.377 1184 L456.709 1260 L572.501 1128 Q582.15 1117 598.65 1117 Q615.15 1117 627.501 1128 L701.605 1194 Q729.674 1219 752.691 1239.5 Q775.709 1260 776.709 1260 Z M665.024 497 Q690.024 497 714.252 507 Q738.48 517 758.067 534 Q777.654 551 790.417 573.5 Q803.18 596 806.372 622 Q809.687 649 802.573 672.5 Q795.458 696 780.607 713.5 Q765.756 731 742.922 740.5 Q720.088 750 693.088 750 L376.088 750 Q359.088 750 346.238 739 Q333.387 728 331.3 711 L309.813 536 Q307.725 519 317.875 508 Q328.024 497 345.024 497 L665.024 497 Z " />
<glyph glyph-name="Rcommaaccent" unicode="&#x156;" horiz-adv-x="925" d="M951.758 617 Q943.286 548 901.726 490.5 Q860.166 433 796.359 402 Q784.745 397 775.754 393 Q766.763 389 757.026 383 Q748.413 378 741.808 369 Q735.202 360 737.361 345 Q741.396 329 751.142 302.5 Q760.889 276 772.459 244 Q784.03 212 797.171 176.5 Q810.313 141 823.261 108 Q836.209 75 846.709 46.5 Q857.21 18 864 0 L711 0 L569.553 371 L329.553 371 Q312.553 371 299.641 359.5 Q286.729 348 284.642 331 L244 0 L95 0 L202.436 875 L729.436 875 Q782.436 875 826.419 854.5 Q870.402 834 900.605 799 Q930.807 764 944.537 717 Q958.266 670 951.758 617 Z M665.024 497 Q690.024 497 714.252 507 Q738.48 517 758.067 534 Q777.654 551 790.417 573.5 Q803.18 596 806.372 622 Q809.687 649 802.573 672.5 Q795.458 696 780.607 713.5 Q765.756 731 742.922 740.5 Q720.088 750 693.088 750 L376.088 750 Q359.088 750 346.238 739 Q333.387 728 331.3 711 L309.813 536 Q307.725 519 317.875 508 Q328.024 497 345.024 497 L665.024 497 Z M378.565 -142 L509.565 -142 L453.062 -423 L344.062 -423 L378.565 -142 Z " />
<glyph glyph-name="r" unicode="r" horiz-adv-x="925" d="M951.758 617 Q943.286 548 901.726 490.5 Q860.166 433 796.359 402 Q784.745 397 775.754 393 Q766.763 389 757.026 383 Q748.413 378 741.808 369 Q735.202 360 737.361 345 Q739.378 337 748.247 311.5 Q757.116 286 769.819 251 Q782.521 216 797.171 176.5 Q811.821 137 825.401 101 Q838.981 65 849.604 37.5 Q860.228 10 864 0 L711 0 L569.553 371 L329.553 371 Q312.553 371 299.641 359.5 Q286.729 348 284.642 331 L244 0 L95 0 L202.436 875 L729.436 875 Q782.436 875 826.419 854.5 Q870.402 834 900.605 799 Q930.807 764 944.537 717 Q958.266 670 951.758 617 Z M665.024 497 Q690.024 497 714.252 507 Q738.48 517 758.067 534 Q777.654 551 790.417 573.5 Q803.18 596 806.372 622 Q809.687 649 802.573 672.5 Q795.458 696 780.607 713.5 Q765.756 731 742.922 740.5 Q720.088 750 693.088 750 L376.088 750 Q359.088 750 346.238 739 Q333.387 728 331.3 711 L309.813 536 Q307.725 519 317.875 508 Q328.024 497 345.024 497 L665.024 497 Z " />
<glyph glyph-name="racute" unicode="&#x155;" horiz-adv-x="925" d="M951.758 617 Q943.286 548 901.726 490.5 Q860.166 433 796.359 402 Q784.745 397 775.754 393 Q766.763 389 757.026 383 Q748.413 378 741.808 369 Q735.202 360 737.361 345 Q739.378 337 748.247 311.5 Q757.116 286 769.819 251 Q782.521 216 797.171 176.5 Q811.821 137 825.401 101 Q838.981 65 849.604 37.5 Q860.228 10 864 0 L711 0 L569.553 371 L329.553 371 Q312.553 371 299.641 359.5 Q286.729 348 284.642 331 L244 0 L95 0 L202.436 875 L729.436 875 Q782.436 875 826.419 854.5 Q870.402 834 900.605 799 Q930.807 764 944.537 717 Q958.266 670 951.758 617 Z M665.024 497 Q690.024 497 714.252 507 Q738.48 517 758.067 534 Q777.654 551 790.417 573.5 Q803.18 596 806.372 622 Q809.687 649 802.573 672.5 Q795.458 696 780.607 713.5 Q765.756 731 742.922 740.5 Q720.088 750 693.088 750 L376.088 750 Q359.088 750 346.238 739 Q333.387 728 331.3 711 L309.813 536 Q307.725 519 317.875 508 Q328.024 497 345.024 497 L665.024 497 Z M549.521 1006 L431.521 1006 L662.672 1333 L770.217 1256 L549.521 1006 Z " />
<glyph glyph-name="rcaron" unicode="&#x159;" horiz-adv-x="925" d="M951.758 617 Q943.286 548 901.726 490.5 Q860.166 433 796.359 402 Q784.745 397 775.754 393 Q766.763 389 757.026 383 Q748.413 378 741.808 369 Q735.202 360 737.361 345 Q741.396 329 751.142 302.5 Q760.889 276 772.459 244 Q784.03 212 797.171 176.5 Q810.313 141 823.261 108 Q836.209 75 846.709 46.5 Q857.21 18 864 0 L711 0 L569.553 371 L329.553 371 Q312.553 371 299.641 359.5 Q286.729 348 284.642 331 L244 0 L95 0 L202.436 875 L729.436 875 Q782.436 875 826.419 854.5 Q870.402 834 900.605 799 Q930.807 764 944.537 717 Q958.266 670 951.758 617 Z M776.709 1260 L843.377 1184 L578.4 948 L371.377 1184 L456.709 1260 L572.501 1128 Q582.15 1117 598.65 1117 Q615.15 1117 627.501 1128 L701.605 1194 Q729.674 1219 752.691 1239.5 Q775.709 1260 776.709 1260 Z M665.024 497 Q690.024 497 714.252 507 Q738.48 517 758.067 534 Q777.654 551 790.417 573.5 Q803.18 596 806.372 622 Q809.687 649 802.573 672.5 Q795.458 696 780.607 713.5 Q765.756 731 742.922 740.5 Q720.088 750 693.088 750 L376.088 750 Q359.088 750 346.238 739 Q333.387 728 331.3 711 L309.813 536 Q307.725 519 317.875 508 Q328.024 497 345.024 497 L665.024 497 Z " />
<glyph glyph-name="rcommaaccent" unicode="&#x157;" horiz-adv-x="925" d="M951.758 617 Q943.286 548 901.726 490.5 Q860.166 433 796.359 402 Q784.745 397 775.754 393 Q766.763 389 757.026 383 Q748.413 378 741.808 369 Q735.202 360 737.361 345 Q741.396 329 751.142 302.5 Q760.889 276 772.459 244 Q784.03 212 797.171 176.5 Q810.313 141 823.261 108 Q836.209 75 846.709 46.5 Q857.21 18 864 0 L711 0 L569.553 371 L329.553 371 Q312.553 371 299.641 359.5 Q286.729 348 284.642 331 L244 0 L95 0 L202.436 875 L729.436 875 Q782.436 875 826.419 854.5 Q870.402 834 900.605 799 Q930.807 764 944.537 717 Q958.266 670 951.758 617 Z M665.024 497 Q690.024 497 714.252 507 Q738.48 517 758.067 534 Q777.654 551 790.417 573.5 Q803.18 596 806.372 622 Q809.687 649 802.573 672.5 Q795.458 696 780.607 713.5 Q765.756 731 742.922 740.5 Q720.088 750 693.088 750 L376.088 750 Q359.088 750 346.238 739 Q333.387 728 331.3 711 L309.813 536 Q307.725 519 317.875 508 Q328.024 497 345.024 497 L665.024 497 Z M378.565 -142 L509.565 -142 L453.062 -423 L344.062 -423 L378.565 -142 Z " />
<glyph glyph-name="s" unicode="s" horiz-adv-x="848" d="M274.74 625 Q269.706 584 292.444 561.5 Q315.181 539 355.146 526.5 Q395.111 514 447.436 508.5 Q499.761 503 553.84 495.5 Q607.919 488 659.384 475.5 Q710.849 463 749.157 437 Q787.464 411 807.623 367.5 Q827.782 324 819.31 255 Q810.347 182 768.33 133 Q726.314 84 667.692 54.5 Q609.07 25 543.535 12.5 Q478 0 421 0 Q382 0 340.614 5 Q299.228 10 259.14 21.5 Q219.052 33 184.446 52.5 Q149.84 72 124.84 100.5 Q99.8392 129 88.0664 167.5 Q76.2936 206 82.4328 256 L216.433 256 Q211.767 218 231.882 194.5 Q251.996 171 285.839 157.5 Q319.681 144 360.067 139 Q400.453 134 436.453 134 Q475.453 134 515.128 139.5 Q554.804 145 587.584 159.5 Q620.365 174 642.811 198 Q665.258 222 669.678 258 Q674.221 295 651.616 314.5 Q629.01 334 588.738 344 Q548.466 354 496.58 359 Q444.694 364 391.114 371.5 Q337.535 379 286.693 392.5 Q235.851 406 197.788 434 Q159.726 462 140.436 508.5 Q121.145 555 129.986 627 Q138.949 700 179.781 747.5 Q220.614 795 278.552 823 Q336.49 851 403.84 862 Q471.191 873 533.191 873 Q591.191 873 652.033 859.5 Q712.876 846 761.069 815 Q809.263 784 836.562 733.5 Q863.862 683 854.653 608 L720.653 608 Q725.073 644 706.643 669 Q688.212 694 656.616 709.5 Q625.019 725 586.317 731.5 Q547.615 738 511.615 738 Q472.615 738 432.062 733.5 Q391.51 729 357.975 716.5 Q324.44 704 301.739 682 Q279.038 660 274.74 625 Z " />
<glyph glyph-name="sacute" unicode="&#x15b;" horiz-adv-x="848" d="M274.74 625 Q269.706 584 292.444 561.5 Q315.181 539 355.146 526.5 Q395.111 514 447.436 508.5 Q499.761 503 553.84 495.5 Q607.919 488 659.384 475.5 Q710.849 463 749.157 437 Q787.464 411 807.623 367.5 Q827.782 324 819.31 255 Q810.347 182 768.33 133 Q726.314 84 667.692 54.5 Q609.07 25 543.535 12.5 Q478 0 421 0 Q382 0 340.614 5 Q299.228 10 259.14 21.5 Q219.052 33 184.446 52.5 Q149.84 72 124.84 100.5 Q99.8392 129 88.0664 167.5 Q76.2936 206 82.4328 256 L216.433 256 Q211.767 218 231.882 194.5 Q251.996 171 285.839 157.5 Q319.681 144 360.067 139 Q400.453 134 436.453 134 Q475.453 134 515.128 139.5 Q554.804 145 587.584 159.5 Q620.365 174 642.811 198 Q665.258 222 669.678 258 Q674.221 295 651.616 314.5 Q629.01 334 588.738 344 Q548.466 354 496.58 359 Q444.694 364 391.114 371.5 Q337.535 379 286.693 392.5 Q235.851 406 197.788 434 Q159.726 462 140.436 508.5 Q121.145 555 129.986 627 Q138.949 700 179.781 747.5 Q220.614 795 278.552 823 Q336.49 851 403.84 862 Q471.191 873 533.191 873 Q591.191 873 652.033 859.5 Q712.876 846 761.069 815 Q809.263 784 836.562 733.5 Q863.862 683 854.653 608 L720.653 608 Q725.073 644 706.643 669 Q688.212 694 656.616 709.5 Q625.019 725 586.317 731.5 Q547.615 738 511.615 738 Q472.615 738 432.062 733.5 Q391.51 729 357.975 716.5 Q324.44 704 301.739 682 Q279.038 660 274.74 625 Z M550.521 1006 L433.521 1006 L663.672 1333 L771.217 1256 L550.521 1006 Z " />
<glyph glyph-name="scaron" unicode="&#x161;" horiz-adv-x="848" d="M274.74 625 Q269.706 584 292.444 561.5 Q315.181 539 355.146 526.5 Q395.111 514 447.436 508.5 Q499.761 503 553.84 495.5 Q607.919 488 659.384 475.5 Q710.849 463 749.157 437 Q787.464 411 807.623 367.5 Q827.782 324 819.31 255 Q810.347 182 768.33 133 Q726.314 84 667.692 54.5 Q609.07 25 543.535 12.5 Q478 0 421 0 Q382 0 340.614 5 Q299.228 10 259.14 21.5 Q219.052 33 184.446 52.5 Q149.84 72 124.84 100.5 Q99.8392 129 88.0664 167.5 Q76.2936 206 82.4328 256 L216.433 256 Q211.767 218 231.882 194.5 Q251.996 171 285.839 157.5 Q319.681 144 360.067 139 Q400.453 134 436.453 134 Q475.453 134 515.128 139.5 Q554.804 145 587.584 159.5 Q620.365 174 642.811 198 Q665.258 222 669.678 258 Q674.221 295 651.616 314.5 Q629.01 334 588.738 344 Q548.466 354 496.58 359 Q444.694 364 391.114 371.5 Q337.535 379 286.693 392.5 Q235.851 406 197.788 434 Q159.726 462 140.436 508.5 Q121.145 555 129.986 627 Q138.949 700 179.781 747.5 Q220.614 795 278.552 823 Q336.49 851 403.84 862 Q471.191 873 533.191 873 Q591.191 873 652.033 859.5 Q712.876 846 761.069 815 Q809.263 784 836.562 733.5 Q863.862 683 854.653 608 L720.653 608 Q725.073 644 706.643 669 Q688.212 694 656.616 709.5 Q625.019 725 586.317 731.5 Q547.615 738 511.615 738 Q472.615 738 432.062 733.5 Q391.51 729 357.975 716.5 Q324.44 704 301.739 682 Q279.038 660 274.74 625 Z M737.709 1260 L804.377 1184 L539.4 948 L332.377 1184 L417.709 1260 L533.501 1128 Q543.15 1117 559.65 1117 Q576.15 1117 588.501 1128 L662.605 1194 Q690.674 1219 713.691 1239.5 Q736.709 1260 737.709 1260 Z " />
<glyph glyph-name="scedilla" unicode="&#x15f;" horiz-adv-x="848" d="M514.035 -16 Q531.58 -36 538.326 -62.5 Q545.072 -89 541.757 -116 Q538.442 -143 524.688 -169.5 Q510.934 -196 488.479 -216 Q466.023 -236 439.234 -246.5 Q412.444 -257 385.444 -257 Q358.444 -257 334.234 -246.5 Q310.023 -236 291.479 -216 Q274.057 -195 266.749 -169 Q259.442 -143 262.757 -116 L346.757 -116 Q344.056 -138 358.968 -155 Q373.881 -172 396.881 -172 Q419.881 -172 438.968 -155 Q458.056 -138 460.88 -115 Q463.704 -92 448.791 -75 L382.123 1 Q326.491 4 269.272 18.5 Q212.052 33 167.674 62.5 Q123.296 92 98.6284 139.5 Q73.9607 187 82.4328 256 L216.433 256 Q211.767 218 231.882 194.5 Q251.996 171 285.839 157.5 Q319.681 144 360.067 139 Q400.453 134 436.453 134 Q475.453 134 515.128 139.5 Q554.804 145 587.584 159.5 Q620.365 174 642.811 198 Q665.258 222 669.678 258 Q674.221 295 651.616 314.5 Q629.01 334 588.738 344 Q548.466 354 496.58 359 Q444.694 364 391.114 371.5 Q337.535 379 286.693 392.5 Q235.851 406 197.788 434 Q159.726 462 140.436 508.5 Q121.145 555 129.986 627 Q138.949 700 179.781 747.5 Q220.614 795 278.552 823 Q336.49 851 403.84 862 Q471.191 873 533.191 873 Q591.191 873 652.033 859.5 Q712.876 846 761.069 815 Q809.263 784 836.562 733.5 Q863.862 683 854.653 608 L720.653 608 Q725.073 644 706.643 669 Q688.212 694 656.616 709.5 Q625.019 725 586.317 731.5 Q547.615 738 511.615 738 Q472.615 738 432.062 733.5 Q391.51 729 357.975 716.5 Q324.44 704 301.739 682 Q279.038 660 274.74 625 Q269.706 584 292.444 561.5 Q315.181 539 355.146 526.5 Q395.111 514 447.436 508.5 Q499.761 503 553.84 495.5 Q607.919 488 659.384 475.5 Q710.849 463 749.157 437 Q787.464 411 807.623 367.5 Q827.782 324 819.31 255 Q811.697 193 779.795 149 Q747.892 105 702.209 75 Q656.525 45 601.999 28.5 Q547.473 12 494.614 5 L514.035 -16 Z " />
<glyph glyph-name="scircumflex" unicode="&#x15d;" horiz-adv-x="848" d="M274.74 625 Q269.706 584 292.444 561.5 Q315.181 539 355.146 526.5 Q395.111 514 447.436 508.5 Q499.761 503 553.84 495.5 Q607.919 488 659.384 475.5 Q710.849 463 749.157 437 Q787.464 411 807.623 367.5 Q827.782 324 819.31 255 Q810.347 182 768.33 133 Q726.314 84 667.692 54.5 Q609.07 25 543.535 12.5 Q478 0 421 0 Q382 0 340.614 5 Q299.228 10 259.14 21.5 Q219.052 33 184.446 52.5 Q149.84 72 124.84 100.5 Q99.8392 129 88.0664 167.5 Q76.2936 206 82.4328 256 L216.433 256 Q211.767 218 231.882 194.5 Q251.996 171 285.839 157.5 Q319.681 144 360.067 139 Q400.453 134 436.453 134 Q475.453 134 515.128 139.5 Q554.804 145 587.584 159.5 Q620.365 174 642.811 198 Q665.258 222 669.678 258 Q674.221 295 651.616 314.5 Q629.01 334 588.738 344 Q548.466 354 496.58 359 Q444.694 364 391.114 371.5 Q337.535 379 286.693 392.5 Q235.851 406 197.788 434 Q159.726 462 140.436 508.5 Q121.145 555 129.986 627 Q138.949 700 179.781 747.5 Q220.614 795 278.552 823 Q336.49 851 403.84 862 Q471.191 873 533.191 873 Q591.191 873 652.033 859.5 Q712.876 846 761.069 815 Q809.263 784 836.562 733.5 Q863.862 683 854.653 608 L720.653 608 Q725.073 644 706.643 669 Q688.212 694 656.616 709.5 Q625.019 725 586.317 731.5 Q547.615 738 511.615 738 Q472.615 738 432.062 733.5 Q391.51 729 357.975 716.5 Q324.44 704 301.739 682 Q279.038 660 274.74 625 Z M698.4 948 L582.607 1080 Q572.958 1091 556.458 1091 Q539.958 1091 527.607 1080 L379.4 948 L312.731 1024 L577.709 1260 L784.731 1024 L699.4 948 L698.4 948 Z " />
<glyph glyph-name="scommaaccent" unicode="&#x219;" horiz-adv-x="848" d="M274.74 625 Q269.706 584 292.444 561.5 Q315.181 539 355.146 526.5 Q395.111 514 447.436 508.5 Q499.761 503 553.84 495.5 Q607.919 488 659.384 475.5 Q710.849 463 749.157 437 Q787.464 411 807.623 367.5 Q827.782 324 819.31 255 Q810.347 182 768.33 133 Q726.314 84 667.692 54.5 Q609.07 25 543.535 12.5 Q478 0 421 0 Q382 0 340.614 5 Q299.228 10 259.14 21.5 Q219.052 33 184.446 52.5 Q149.84 72 124.84 100.5 Q99.8392 129 88.0664 167.5 Q76.2936 206 82.4328 256 L216.433 256 Q211.767 218 231.882 194.5 Q251.996 171 285.839 157.5 Q319.681 144 360.067 139 Q400.453 134 436.453 134 Q475.453 134 515.128 139.5 Q554.804 145 587.584 159.5 Q620.365 174 642.811 198 Q665.258 222 669.678 258 Q674.221 295 651.616 314.5 Q629.01 334 588.738 344 Q548.466 354 496.58 359 Q444.694 364 391.114 371.5 Q337.535 379 286.693 392.5 Q235.851 406 197.788 434 Q159.726 462 140.436 508.5 Q121.145 555 129.986 627 Q138.949 700 179.781 747.5 Q220.614 795 278.552 823 Q336.49 851 403.84 862 Q471.191 873 533.191 873 Q591.191 873 652.033 859.5 Q712.876 846 761.069 815 Q809.263 784 836.562 733.5 Q863.862 683 854.653 608 L720.653 608 Q725.073 644 706.643 669 Q688.212 694 656.616 709.5 Q625.019 725 586.317 731.5 Q547.615 738 511.615 738 Q472.615 738 432.062 733.5 Q391.51 729 357.975 716.5 Q324.44 704 301.739 682 Q279.038 660 274.74 625 Z M340.565 -142 L471.565 -142 L415.062 -423 L306.062 -423 L340.565 -142 Z " />
<glyph glyph-name="t" unicode="t" horiz-adv-x="819" d="M121.843 748 L137.436 875 L896.436 875 L880.843 748 L612.843 748 Q596.843 748 583.992 737 Q571.142 726 569.054 709 L482 0 L337 0 L424.054 709 Q426.142 726 415.992 737 Q405.843 748 388.843 748 L121.843 748 Z " />
<glyph glyph-name="tbar" unicode="&#x167;" horiz-adv-x="819" d="M241.308 369 L256.778 495 L397.778 495 L424.054 709 Q426.142 726 415.992 737 Q405.843 748 388.843 748 L121.843 748 L137.436 875 L896.436 875 L880.843 748 L612.843 748 Q596.843 748 583.992 737 Q571.142 726 569.054 709 L542.778 495 L683.778 495 L668.308 369 L527.308 369 L482 0 L337 0 L382.308 369 L241.308 369 Z " />
<glyph glyph-name="tcaron" unicode="&#x165;" horiz-adv-x="819" d="M121.843 748 L137.436 875 L896.436 875 L880.843 748 L612.843 748 Q596.843 748 583.992 737 Q571.142 726 569.054 709 L482 0 L337 0 L424.054 709 Q426.142 726 415.992 737 Q405.843 748 388.843 748 L121.843 748 Z M723.709 1260 L790.377 1184 L525.4 948 L318.377 1184 L403.709 1260 L519.501 1128 Q529.15 1117 545.65 1117 Q562.15 1117 574.501 1128 L648.605 1194 Q676.674 1219 699.691 1239.5 Q722.709 1260 723.709 1260 Z " />
<glyph glyph-name="tcommaaccent" unicode="&#x163;" horiz-adv-x="819" d="M121.843 748 L137.436 875 L896.436 875 L880.843 748 L612.843 748 Q596.843 748 583.992 737 Q571.142 726 569.054 709 L482 0 L337 0 L424.054 709 Q426.142 726 415.992 737 Q405.843 748 388.843 748 L121.843 748 Z M326.565 -142 L457.565 -142 L401.062 -423 L292.062 -423 L326.565 -142 Z " />
<glyph glyph-name="u" unicode="u" horiz-adv-x="886" d="M688.343 353 L752.314 874 L903.314 874 L839.343 353 Q830.38 280 794.96 215.5 Q759.54 151 705.647 103 Q651.753 55 583.877 27.5 Q516 0 443 0 Q370 0 308.877 27.5 Q247.753 55 205.647 103 Q163.54 151 143.96 215.5 Q124.38 280 133.343 353 L197.314 874 L347.314 874 L283.343 353 Q278.186 311 289.643 274 Q301.1 237 325.223 209.5 Q349.347 182 384.382 166 Q419.418 150 461.418 150 Q503.418 150 542.382 166 Q581.347 182 611.723 209.5 Q642.1 237 662.643 274 Q683.186 311 688.343 353 Z " />
<glyph glyph-name="uacute" unicode="&#xfa;" horiz-adv-x="886" d="M688.343 353 L752.314 874 L903.314 874 L839.343 353 Q830.38 280 794.96 215.5 Q759.54 151 705.647 103 Q651.753 55 583.877 27.5 Q516 0 443 0 Q370 0 308.877 27.5 Q247.753 55 205.647 103 Q163.54 151 143.96 215.5 Q124.38 280 133.343 353 L197.314 874 L347.314 874 L283.343 353 Q278.186 311 289.643 274 Q301.1 237 325.223 209.5 Q349.347 182 384.382 166 Q419.418 150 461.418 150 Q503.418 150 542.382 166 Q581.347 182 611.723 209.5 Q642.1 237 662.643 274 Q683.186 311 688.343 353 Z M569.521 1006 L452.521 1006 L682.672 1333 L790.217 1256 L569.521 1006 Z " />
<glyph glyph-name="ubreve" unicode="&#x16d;" horiz-adv-x="886" d="M688.343 353 L752.314 874 L903.314 874 L839.343 353 Q830.38 280 794.96 215.5 Q759.54 151 705.647 103 Q651.753 55 583.877 27.5 Q516 0 443 0 Q370 0 308.877 27.5 Q247.753 55 205.647 103 Q163.54 151 143.96 215.5 Q124.38 280 133.343 353 L197.314 874 L347.314 874 L283.343 353 Q278.186 311 289.643 274 Q301.1 237 325.223 209.5 Q349.347 182 384.382 166 Q419.418 150 461.418 150 Q503.418 150 542.382 166 Q581.347 182 611.723 209.5 Q642.1 237 662.643 274 Q683.186 311 688.343 353 Z M652.272 1175 L768.272 1175 Q763.606 1137 745.616 1104.5 Q727.625 1072 699.555 1047 Q671.486 1022 636.767 1008 Q602.048 994 565.048 994 Q527.048 994 495.767 1008 Q464.486 1022 443.055 1047 Q421.625 1072 411.116 1104.5 Q400.606 1137 405.272 1175 L522.272 1175 Q518.957 1148 536.062 1128.5 Q553.168 1109 580.168 1109 Q606.291 1110 627.685 1129.5 Q649.079 1149 652.272 1175 Z " />
<glyph glyph-name="ucircumflex" unicode="&#xfb;" horiz-adv-x="886" d="M688.343 353 L752.314 874 L903.314 874 L839.343 353 Q830.38 280 794.96 215.5 Q759.54 151 705.647 103 Q651.753 55 583.877 27.5 Q516 0 443 0 Q370 0 308.877 27.5 Q247.753 55 205.647 103 Q163.54 151 143.96 215.5 Q124.38 280 133.343 353 L197.314 874 L347.314 874 L283.343 353 Q278.186 311 289.643 274 Q301.1 237 325.223 209.5 Q349.347 182 384.382 166 Q419.418 150 461.418 150 Q503.418 150 542.382 166 Q581.347 182 611.723 209.5 Q642.1 237 662.643 274 Q683.186 311 688.343 353 Z M718.4 948 L602.607 1080 Q592.958 1091 576.458 1091 Q559.958 1091 547.607 1080 L399.4 948 L332.731 1024 L597.709 1260 L804.731 1024 L719.4 948 L718.4 948 Z " />
<glyph glyph-name="udieresis" unicode="&#xfc;" horiz-adv-x="886" d="M688.343 353 L752.314 874 L903.314 874 L839.343 353 Q830.38 280 794.96 215.5 Q759.54 151 705.647 103 Q651.753 55 583.877 27.5 Q516 0 443 0 Q370 0 308.877 27.5 Q247.753 55 205.647 103 Q163.54 151 143.96 215.5 Q124.38 280 133.343 353 L197.314 874 L347.314 874 L283.343 353 Q278.186 311 289.643 274 Q301.1 237 325.223 209.5 Q349.347 182 384.382 166 Q419.418 150 461.418 150 Q503.418 150 542.382 166 Q581.347 182 611.723 209.5 Q642.1 237 662.643 274 Q683.186 311 688.343 353 Z M507.853 1082 Q503.555 1047 476.109 1023 Q448.662 999 413.662 999 Q379.662 999 358.109 1023 Q336.555 1047 340.853 1082 Q345.15 1117 372.597 1141 Q400.044 1165 434.044 1165 Q469.044 1165 490.597 1141 Q512.15 1117 507.853 1082 Z M809.853 1082 Q805.555 1047 778.109 1023 Q750.662 999 715.662 999 Q681.662 999 660.109 1023 Q638.555 1047 642.853 1082 Q647.15 1117 674.597 1141 Q702.044 1165 736.044 1165 Q771.044 1165 792.597 1141 Q814.15 1117 809.853 1082 Z " />
<glyph glyph-name="uhungarumlaut" unicode="&#x171;" horiz-adv-x="886" d="M688.343 353 L752.314 874 L903.314 874 L839.343 353 Q830.38 280 794.96 215.5 Q759.54 151 705.647 103 Q651.753 55 583.877 27.5 Q516 0 443 0 Q370 0 308.877 27.5 Q247.753 55 205.647 103 Q163.54 151 143.96 215.5 Q124.38 280 133.343 353 L197.314 874 L347.314 874 L283.343 353 Q278.186 311 289.643 274 Q301.1 237 325.223 209.5 Q349.347 182 384.382 166 Q419.418 150 461.418 150 Q503.418 150 542.382 166 Q581.347 182 611.723 209.5 Q642.1 237 662.643 274 Q683.186 311 688.343 353 Z M382.954 1262 L523.391 1347 L680.521 1006 L546.521 1006 L382.954 1262 Z " />
<glyph glyph-name="ugrave" unicode="&#xf9;" horiz-adv-x="886" d="M688.343 353 L752.314 874 L903.314 874 L839.343 353 Q830.38 280 794.96 215.5 Q759.54 151 705.647 103 Q651.753 55 583.877 27.5 Q516 0 443 0 Q370 0 308.877 27.5 Q247.753 55 205.647 103 Q163.54 151 143.96 215.5 Q124.38 280 133.343 353 L197.314 874 L347.314 874 L283.343 353 Q278.186 311 289.643 274 Q301.1 237 325.223 209.5 Q349.347 182 384.382 166 Q419.418 150 461.418 150 Q503.418 150 542.382 166 Q581.347 182 611.723 209.5 Q642.1 237 662.643 274 Q683.186 311 688.343 353 Z M728.521 1006 L611.521 1006 L841.672 1333 L949.217 1256 L728.521 1006 Z M461.521 1006 L343.521 1006 L574.672 1333 L682.217 1256 L461.521 1006 Z " />
<glyph glyph-name="umacron" unicode="&#x16b;" horiz-adv-x="886" d="M688.343 353 L752.314 874 L903.314 874 L839.343 353 Q830.38 280 794.96 215.5 Q759.54 151 705.647 103 Q651.753 55 583.877 27.5 Q516 0 443 0 Q370 0 308.877 27.5 Q247.753 55 205.647 103 Q163.54 151 143.96 215.5 Q124.38 280 133.343 353 L197.314 874 L347.314 874 L283.343 353 Q278.186 311 289.643 274 Q301.1 237 325.223 209.5 Q349.347 182 384.382 166 Q419.418 150 461.418 150 Q503.418 150 542.382 166 Q581.347 182 611.723 209.5 Q642.1 237 662.643 274 Q683.186 311 688.343 353 Z M356.205 1036 L371.676 1162 L798.676 1162 L783.205 1036 L356.205 1036 Z " />
<glyph glyph-name="uogonek" unicode="&#x173;" horiz-adv-x="886" d="M550.689 -198 Q514.76 -230 477.234 -246.5 Q439.708 -263 402.708 -263 Q364.708 -263 332.988 -248.5 Q301.268 -234 279.338 -209 Q257.408 -184 247.082 -150 Q236.757 -116 241.423 -78 Q249.649 -11 297.543 37 Q254.999 57 221.428 89 Q187.857 121 166.391 162 Q144.925 203 135.88 251.5 Q126.835 300 133.343 353 L197.314 874 L347.314 874 L283.343 353 Q278.186 311 289.643 274 Q301.1 237 325.223 209.5 Q349.347 182 384.382 166 Q419.418 150 461.418 150 Q503.418 150 542.382 166 Q581.347 182 611.723 209.5 Q642.1 237 662.643 274 Q683.186 311 688.343 353 L752.314 874 L903.314 874 L839.343 353 Q830.38 280 794.46 215.5 Q758.54 151 704.647 103 Q650.753 55 582.877 27.5 Q515 0 442 0 Q406 0 377.737 -22.5 Q349.475 -45 345.546 -77 Q341.616 -109 361.415 -131 Q381.214 -153 413.214 -153 Q428.214 -153 445.135 -145.5 Q462.056 -138 477.775 -124 L550.689 -198 Z " />
<glyph glyph-name="uring" unicode="&#x16f;" horiz-adv-x="886" d="M688.343 353 L752.314 874 L903.314 874 L839.343 353 Q830.38 280 794.96 215.5 Q759.54 151 705.647 103 Q651.753 55 583.877 27.5 Q516 0 443 0 Q370 0 308.877 27.5 Q247.753 55 205.647 103 Q163.54 151 143.96 215.5 Q124.38 280 133.343 353 L197.314 874 L347.314 874 L283.343 353 Q278.186 311 289.643 274 Q301.1 237 325.223 209.5 Q349.347 182 384.382 166 Q419.418 150 461.418 150 Q503.418 150 542.382 166 Q581.347 182 611.723 209.5 Q642.1 237 662.643 274 Q683.186 311 688.343 353 Z M597.709 1260 Q627.709 1260 652.297 1248.5 Q676.885 1237 693.99 1217.5 Q711.096 1198 719.342 1171.5 Q727.588 1145 723.905 1115 Q720.221 1085 705.467 1058.5 Q690.714 1032 668.819 1012.5 Q646.925 993 619.574 982 Q592.224 971 562.224 971 Q532.224 971 507.074 982 Q481.925 993 464.819 1012.5 Q447.714 1032 439.467 1058.5 Q431.221 1085 434.905 1115 Q438.588 1145 453.342 1171.5 Q468.096 1198 489.99 1217.5 Q511.885 1237 539.797 1248.5 Q567.709 1260 597.709 1260 Z M572.66 1056 Q596.66 1056 615.809 1073.5 Q634.958 1091 637.905 1115 Q640.852 1139 626 1156.5 Q611.149 1174 587.149 1174 Q563.149 1174 543.5 1156.5 Q523.852 1139 520.905 1115 Q517.958 1091 533.309 1073.5 Q548.66 1056 572.66 1056 Z " />
<glyph glyph-name="utilde" unicode="&#x169;" horiz-adv-x="886" d="M688.343 353 L752.314 874 L903.314 874 L839.343 353 Q830.38 280 794.96 215.5 Q759.54 151 705.647 103 Q651.753 55 583.877 27.5 Q516 0 443 0 Q370 0 308.877 27.5 Q247.753 55 205.647 103 Q163.54 151 143.96 215.5 Q124.38 280 133.343 353 L197.314 874 L347.314 874 L283.343 353 Q278.186 311 289.643 274 Q301.1 237 325.223 209.5 Q349.347 182 384.382 166 Q419.418 150 461.418 150 Q503.418 150 542.382 166 Q581.347 182 611.723 209.5 Q642.1 237 662.643 274 Q683.186 311 688.343 353 Z M365.693 1154 Q406.359 1192 443.35 1196 Q480.341 1200 515.307 1187.5 Q550.272 1175 584.132 1153.5 Q617.992 1132 652.957 1119.5 Q687.923 1107 724.414 1111 Q760.905 1115 802.571 1153 L786.731 1024 Q745.066 986 708.574 982 Q672.083 978 637.118 990.5 Q602.153 1003 568.293 1024.5 Q534.433 1046 499.467 1058.5 Q464.502 1071 427.511 1067 Q390.52 1063 349.854 1025 L365.693 1154 Z " />
<glyph glyph-name="w" unicode="w" horiz-adv-x="1379" d="M1009.73 234 L1304.44 875 L1456.44 875 L1058 0 L905 0 L769.442 647 L474 0 L322 0 L137.436 875 L290.436 875 L426.732 234 L720.436 875 L873.436 875 L1009.73 234 Z " />
<glyph glyph-name="wacute" unicode="&#x1e83;" horiz-adv-x="1379" d="M1009.73 234 L1304.44 875 L1456.44 875 L1058 0 L905 0 L769.442 647 L474 0 L322 0 L137.436 875 L290.436 875 L426.732 234 L720.436 875 L873.436 875 L1009.73 234 Z M776.521 1006 L658.521 1006 L889.672 1333 L997.217 1256 L776.521 1006 Z " />
<glyph glyph-name="wcircumflex" unicode="&#x175;" horiz-adv-x="1379" d="M1009.73 234 L1304.44 875 L1456.44 875 L1058 0 L905 0 L769.442 647 L474 0 L322 0 L137.436 875 L290.436 875 L426.732 234 L720.436 875 L873.436 875 L1009.73 234 Z M964.4 948 L848.607 1080 Q838.958 1091 822.458 1091 Q805.958 1091 793.607 1080 L645.4 948 L578.731 1024 L843.709 1260 L1050.73 1024 L965.4 948 L964.4 948 Z " />
<glyph glyph-name="wdieresis" unicode="&#x1e85;" horiz-adv-x="1379" d="M1009.73 234 L1304.44 875 L1456.44 875 L1058 0 L905 0 L769.442 647 L474 0 L322 0 L137.436 875 L290.436 875 L426.732 234 L720.436 875 L873.436 875 L1009.73 234 Z M753.853 1082 Q749.555 1047 722.609 1023 Q695.662 999 660.662 999 Q625.662 999 604.609 1023 Q583.555 1047 587.853 1082 Q592.15 1117 619.097 1141 Q646.044 1165 681.044 1165 Q716.044 1165 737.097 1141 Q758.15 1117 753.853 1082 Z M1055.85 1082 Q1051.56 1047 1024.61 1023 Q997.662 999 962.662 999 Q927.662 999 906.609 1023 Q885.555 1047 889.853 1082 Q894.15 1117 921.097 1141 Q948.044 1165 983.044 1165 Q1018.04 1165 1039.1 1141 Q1060.15 1117 1055.85 1082 Z " />
<glyph glyph-name="wgrave" unicode="&#x1e81;" horiz-adv-x="1379" d="M1009.73 234 L1304.44 875 L1456.44 875 L1058 0 L905 0 L769.442 647 L474 0 L322 0 L137.436 875 L290.436 875 L426.732 234 L720.436 875 L873.436 875 L1009.73 234 Z M678.954 1262 L819.391 1347 L976.521 1006 L842.521 1006 L678.954 1262 Z " />
<glyph glyph-name="y" unicode="y" horiz-adv-x="996" d="M475.342 410 Q477.306 426 468.534 436 L137.314 874 L312.314 874 L564.549 542 L897.314 874 L1073.31 874 L634.534 436 Q623.306 426 621.342 410 L571 0 L425 0 L475.342 410 Z " />
<glyph glyph-name="yacute" unicode="&#xfd;" horiz-adv-x="996" d="M475.342 410 Q477.306 426 468.534 436 L137.314 874 L312.314 874 L564.549 542 L897.314 874 L1073.31 874 L634.534 436 Q623.306 426 621.342 410 L571 0 L425 0 L475.342 410 Z M669.521 1006 L552.521 1006 L782.672 1333 L890.217 1256 L669.521 1006 Z " />
<glyph glyph-name="ycircumflex" unicode="&#x177;" horiz-adv-x="996" d="M475.342 410 Q477.306 426 468.534 436 L137.314 874 L312.314 874 L564.549 542 L897.314 874 L1073.31 874 L634.534 436 Q623.306 426 621.342 410 L571 0 L425 0 L475.342 410 Z M773.4 948 L657.607 1080 Q647.958 1091 631.458 1091 Q614.958 1091 602.607 1080 L454.4 948 L387.731 1024 L652.709 1260 L859.731 1024 L774.4 948 L773.4 948 Z " />
<glyph glyph-name="ydieresis" unicode="&#xff;" horiz-adv-x="996" d="M475.342 410 Q477.306 426 468.534 436 L137.314 874 L312.314 874 L564.549 542 L897.314 874 L1073.31 874 L634.534 436 Q623.306 426 621.342 410 L571 0 L425 0 L475.342 410 Z M864.853 1082 Q860.555 1047 833.109 1023 Q805.662 999 770.662 999 Q736.662 999 715.109 1023 Q693.555 1047 697.853 1082 Q702.15 1117 729.597 1141 Q757.044 1165 791.044 1165 Q826.044 1165 847.597 1141 Q869.15 1117 864.853 1082 Z M562.853 1082 Q558.555 1047 531.109 1023 Q503.662 999 468.662 999 Q434.662 999 413.109 1023 Q391.555 1047 395.853 1082 Q400.15 1117 427.597 1141 Q455.044 1165 489.044 1165 Q524.044 1165 545.597 1141 Q567.15 1117 562.853 1082 Z " />
</font>
</svg>
