<?xml version="1.0" encoding="UTF-8"?>
<svg xmlns="http://www.w3.org/2000/svg" xmlns:xlink="http://www.w3.org/1999/xlink" version="1.2" >
<font id="Adon Bold">
<font-face  font-family="Adon" units-per-em="1024" ascent="1051" descent="-300" font-style="normal" font-weight="700" font-stretch="normal" cap-height="809" x-height="552" underline-position="0" underline-thickness="0" />
<missing-glyph  horiz-adv-x="472" d="M0 700 C0 700 432 700 432 700 C432 700 432 0 432 0 C432 0 0 0 0 0 C0 0 0 700 0 700 L0 700 Z M50 50 C50 50 382 50 382 50 C382 50 382 650 382 650 C382 650 50 650 50 650 C50 650 50 50 50 50 L50 50 Z " />
<glyph glyph-name="NULL" d="" />
<glyph glyph-name="CR" unicode="&#xd;" horiz-adv-x="256" d="" />
<glyph glyph-name="space" unicode="&#x20;" horiz-adv-x="250" d="" />
<glyph glyph-name="exclam" unicode="&#x21;" horiz-adv-x="225" d="M50 0 C50 0 175 0 175 0 C175 0 175 125 175 125 C175 125 50 125 50 125 C50 125 50 0 50 0 L50 0 Z M45 809 C45 809 45 474 45 474 C45 474 95 210 95 210 C95 210 130 210 130 210 C130 210 180 474 180 474 C180 474 180 809 180 809 C180 809 45 809 45 809 L45 809 Z " />
<glyph glyph-name="quotedbl" unicode="&#x22;" horiz-adv-x="465" d="M268 809 C268 809 268 689 268 689 C268 689 298 579 298 579 C298 579 353 579 353 579 C353 579 383 689 383 689 C383 689 383 809 383 809 C383 809 268 809 268 809 L268 809 Z M80 809 C80 809 80 689 80 689 C80 689 110 579 110 579 C110 579 165 579 165 579 C165 579 195 689 195 689 C195 689 195 809 195 809 C195 809 80 809 80 809 L80 809 Z " />
<glyph glyph-name="numbersign" unicode="&#x23;" horiz-adv-x="724" d="M484 780 C484 780 460 597 460 597 C460 597 323 597 323 597 C323 597 347 780 347 780 C347 780 231 780 231 780 C231 780 207 597 207 597 C207 597 80 597 80 597 C80 597 67 503 67 503 C67 503 194 503 194 503 C194 503 165 277 165 277 C165 277 29 277 29 277 C29 277 15 183 15 183 C15 183 152 183 152 183 C152 183 128 0 128 0 C128 0 243 0 243 0 C243 0 267 183 267 183 C267 183 405 183 405 183 C405 183 381 0 381 0 C381 0 496 0 496 0 C496 0 520 183 520 183 C520 183 639 183 639 183 C639 183 653 277 653 277 C653 277 533 277 533 277 C533 277 563 503 563 503 C563 503 691 503 691 503 C691 503 704 597 704 597 C704 597 576 597 576 597 C576 597 600 780 600 780 C600 780 484 780 484 780 L484 780 Z M310 503 C310 503 447 503 447 503 C447 503 418 277 418 277 C418 277 280 277 280 277 C280 277 310 503 310 503 L310 503 Z " />
<glyph glyph-name="dollar" unicode="&#x24;" horiz-adv-x="625" d="M330 884 C330 884 330 818 330 818 C314 818 297 819 280 819 C280 819 280 884 280 884 C280 884 205 884 205 884 C205 884 205 816 205 816 C72 804 37 748 37 588 C37 451 59 410 205 372 C205 372 205 139 205 139 C156 156 110 174 87 184 C87 184 56 48 56 48 C78 39 136 19 205 5 C205 5 205 -75 205 -75 C205 -75 280 -75 280 -75 C280 -75 280 -6 280 -6 C297 -8 313 -9 330 -10 C330 -10 330 -75 330 -75 C330 -75 405 -75 405 -75 C405 -75 405 -8 405 -8 C567 1 590 56 590 227 C590 382 566 424 405 464 C405 464 405 686 405 686 C454 677 494 666 510 660 C510 660 532 720 532 720 C532 720 554 780 554 780 C553 781 551 781 549 782 C549 782 549 782 549 782 C549 782 549 782 549 782 C527 789 474 802 405 811 C405 811 405 884 405 884 C405 884 330 884 330 884 L330 884 Z M280 492 C280 492 280 699 280 699 C297 699 314 698 330 696 C330 696 330 481 330 481 C311 485 295 488 280 492 L280 492 Z M205 517 C175 535 169 558 169 602 C169 651 177 677 205 689 C205 689 205 517 205 517 L205 517 Z M280 354 C285 353 290 352 295 351 C308 348 319 346 330 344 C330 344 330 108 330 108 C316 109 298 113 280 117 C280 117 280 354 280 354 L280 354 Z M405 322 C453 303 462 277 462 222 C462 152 454 122 405 112 C405 112 405 322 405 322 L405 322 Z " />
<glyph glyph-name="percent" unicode="&#x25;" horiz-adv-x="780" d="M656 140 C656 70 649 53 594 53 C540 53 533 70 533 140 C533 210 540 227 594 227 C649 227 656 210 656 140 L656 140 Z M594 -10 C706 -10 721 20 721 140 C721 260 706 290 594 290 C483 290 468 260 468 140 C468 20 483 -10 594 -10 L594 -10 Z M124 669 C124 739 131 756 186 756 C240 756 247 739 247 669 C247 599 240 581 186 581 C131 581 124 599 124 669 L124 669 Z M186 819 C74 818 59 789 59 669 C59 548 74 518 186 519 C297 518 312 548 312 669 C312 789 297 818 186 819 L186 819 Z M160 0 C160 0 200 0 200 0 C200 0 620 809 620 809 C620 809 580 809 580 809 C580 809 160 0 160 0 L160 0 Z " />
<glyph glyph-name="ampersand" unicode="&#x26;" horiz-adv-x="701" d="M642 2 C642 2 625 103 625 103 C618 100 612 99 596 99 C567 99 550 102 537 109 C561 168 569 253 567 372 C567 372 456 397 456 397 C458 321 455 264 446 220 C388 297 349 350 322 384 C436 444 465 481 465 565 C465 712 432 749 301 749 C162 749 128 713 128 569 C128 471 136 430 165 398 C61 344 35 302 35 194 C35 23 78 -20 253 -20 C346 -20 414 -10 462 18 C490 -3 524 -10 587 -10 C607 -10 618 -8 642 2 L642 2 Z M266 453 C242 477 236 505 236 579 C236 636 249 650 301 650 C353 650 366 632 366 559 C366 515 347 494 269 455 C269 455 266 453 266 453 L266 453 Z M220 330 C246 296 287 240 352 154 C362 141 371 129 379 117 C352 103 316 98 269 98 C178 98 155 120 155 209 C155 280 164 302 200 320 C200 320 220 330 220 330 L220 330 Z " />
<glyph glyph-name="quotesingle" unicode="&#x27;" horiz-adv-x="245" d="M80 809 C80 809 80 689 80 689 C80 689 110 579 110 579 C110 579 165 579 165 579 C165 579 195 689 195 689 C195 689 195 809 195 809 C195 809 80 809 80 809 L80 809 Z " />
<glyph glyph-name="parenleft" unicode="&#x28;" horiz-adv-x="360" d="M300 854 C124 706 100 647 100 361 C100 90 124 33 300 -115 C300 -115 340 -70 340 -70 C195 52 175 103 175 361 C175 633 195 687 340 809 C340 809 300 854 300 854 L300 854 Z " />
<glyph glyph-name="parenright" unicode="&#x29;" horiz-adv-x="320" d="M60 -115 C237 33 260 91 260 377 C260 649 237 706 60 854 C60 854 20 809 20 809 C166 687 185 636 185 377 C185 105 166 52 20 -70 C20 -70 60 -115 60 -115 L60 -115 Z " />
<glyph glyph-name="asterisk" unicode="&#x2a;" horiz-adv-x="406" d="M340 754 C340 754 237 706 237 706 C237 706 251 819 251 819 C251 819 155 819 155 819 C155 819 169 706 169 706 C169 706 66 754 66 754 C66 754 36 662 36 662 C36 662 148 641 148 641 C148 641 70 557 70 557 C70 557 148 501 148 501 C148 501 203 600 203 600 C203 600 258 501 258 501 C258 501 336 557 336 557 C336 557 258 641 258 641 C258 641 370 662 370 662 C370 662 340 754 340 754 L340 754 Z M203 659 C203 659 203 659 203 659 C203 659 203 659 203 659 C203 659 203 659 203 659 C203 659 203 659 203 659 L203 659 Z " />
<glyph glyph-name="plus" unicode="&#x2b;" horiz-adv-x="620" d="M273 242 C273 242 273 0 273 0 C273 0 348 0 348 0 C348 0 348 242 348 242 C348 242 595 242 595 242 C595 242 595 312 595 312 C595 312 348 312 348 312 C348 312 348 550 348 550 C348 550 273 550 273 550 C273 550 273 312 273 312 C273 312 25 312 25 312 C25 312 25 242 25 242 C25 242 273 242 273 242 L273 242 Z " />
<glyph glyph-name="comma" unicode="&#x2c;" horiz-adv-x="225" d="M50 125 C50 125 50 0 50 0 C50 0 100 0 100 0 C100 -58 98 -60 50 -60 C50 -60 50 -120 50 -120 C170 -120 175 -115 175 0 C175 0 175 125 175 125 C175 125 50 125 50 125 L50 125 Z " />
<glyph glyph-name="hyphen" unicode="&#x2d;" horiz-adv-x="365" d="M50 236 C50 236 315 236 315 236 C315 236 315 331 315 331 C315 331 50 331 50 331 C50 331 50 236 50 236 L50 236 Z " />
<glyph glyph-name="period" unicode="&#x2e;" horiz-adv-x="225" d="M50 0 C50 0 175 0 175 0 C175 0 175 125 175 125 C175 125 50 125 50 125 C50 125 50 0 50 0 L50 0 Z " />
<glyph glyph-name="slash" unicode="&#x2f;" horiz-adv-x="320" d="M0 0 C0 0 50 0 50 0 C50 0 320 809 320 809 C320 809 270 809 270 809 C270 809 0 0 0 0 L0 0 Z " />
<glyph glyph-name="zero" unicode="0" horiz-adv-x="700" d="M348 99 C204 99 185 135 185 404 C185 661 211 709 348 709 C486 709 512 661 512 404 C512 135 493 99 348 99 L348 99 Z M52 404 C52 39 87 -10 348 -10 C610 -10 645 39 645 404 C645 753 598 819 348 819 C99 819 52 753 52 404 L52 404 Z " />
<glyph glyph-name="one" unicode="1" horiz-adv-x="430" d="M266 0 C266 0 330 0 330 0 C330 0 330 5 330 5 C330 5 330 809 330 809 C330 809 230 809 230 809 C230 809 50 625 50 625 C50 625 50 461 50 461 C50 461 202 619 202 619 C202 619 202 5 202 5 C202 5 202 0 202 0 C202 0 266 0 266 0 L266 0 Z " />
<glyph glyph-name="two" unicode="2" horiz-adv-x="597" d="M43 0 C43 0 187 0 187 0 C187 0 563 0 563 0 C563 0 563 62 563 62 C563 62 563 124 563 124 C563 124 558 124 558 124 C558 124 191 124 191 124 C200 219 237 227 370 309 C513 397 548 447 548 560 C548 767 498 819 297 819 C96 819 46 771 46 577 C46 493 55 461 90 415 C90 415 209 475 209 475 C182 510 175 531 175 577 C175 687 200 714 300 714 C396 714 420 686 420 572 C420 485 378 437 211 335 C49 235 43 259 43 0 L43 0 Z " />
<glyph glyph-name="three" unicode="3" horiz-adv-x="599" d="M46 264 C46 45 96 -10 300 -10 C503 -10 554 37 554 225 C554 353 526 401 421 436 C502 463 523 503 523 609 C523 777 478 819 298 819 C118 819 73 772 73 582 C73 582 201 582 201 582 C201 684 220 709 294 709 C383 709 405 687 405 599 C405 500 383 476 295 476 C295 476 215 476 215 476 C215 476 215 447 215 447 C215 447 215 427 215 427 C215 427 215 377 215 377 C215 377 275 377 275 377 C389 377 417 348 417 230 C417 133 394 109 300 109 C203 109 179 140 179 264 C179 264 46 264 46 264 L46 264 Z " />
<glyph glyph-name="four" unicode="4" horiz-adv-x="595" d="M25 345 C25 345 25 241 25 241 C25 241 137 242 137 242 C137 242 341 242 341 242 C341 242 341 5 341 5 C341 5 341 0 341 0 C341 0 405 0 405 0 C405 0 470 0 470 0 C470 0 470 3 470 3 C470 3 470 5 470 5 C470 5 470 242 470 242 C470 242 575 242 575 242 C575 242 575 361 575 361 C575 361 470 361 470 361 C470 361 470 776 470 776 C470 776 474 781 474 781 C474 781 470 782 470 782 C470 782 470 809 470 809 C470 809 370 809 370 809 C370 809 25 345 25 345 L25 345 Z M159 361 C159 361 342 606 342 606 C342 606 341 596 341 596 C341 596 341 361 341 361 C341 361 159 361 159 361 L159 361 Z " />
<glyph glyph-name="five" unicode="5" horiz-adv-x="595" d="M73 378 C73 378 201 348 201 348 C255 407 275 422 302 422 C394 422 417 388 417 253 C417 138 394 109 301 109 C204 109 180 140 180 264 C180 264 47 264 47 264 C47 45 97 -10 301 -10 C504 -10 555 42 555 253 C555 472 510 526 326 526 C279 526 251 517 215 486 C215 486 237 693 237 693 C237 693 507 685 507 685 C507 685 507 685 507 685 C507 685 512 685 512 685 C513 703 514 714 515 727 C515 727 521 809 521 809 C521 809 107 809 107 809 C107 809 73 378 73 378 L73 378 Z " />
<glyph glyph-name="six" unicode="6" horiz-adv-x="605" d="M556 685 C492 792 447 819 331 819 C89 819 56 735 56 398 C56 38 88 -10 323 -10 C529 -10 580 45 580 264 C580 484 532 538 340 538 C241 538 256 566 189 421 C189 421 189 422 189 422 C189 656 206 714 331 714 C387 714 412 695 456 620 C456 620 556 685 556 685 L556 685 Z M194 247 C194 247 194 247 194 247 C193 363 170 429 314 429 C417 429 442 396 442 264 C442 132 418 99 323 99 C235 99 204 120 194 247 L194 247 Z " />
<glyph glyph-name="seven" unicode="7" horiz-adv-x="490" d="M30 809 C30 809 30 747 30 747 C30 747 30 685 30 685 C30 685 35 685 35 685 C35 685 366 685 366 685 C127 454 117 428 117 0 C117 0 259 0 259 0 C259 454 268 480 480 685 C480 685 480 809 480 809 C480 809 30 809 30 809 L30 809 Z " />
<glyph glyph-name="eight" unicode="8" horiz-adv-x="628" d="M315 491 C214 491 205 512 205 598 C205 696 227 709 315 709 C414 709 427 687 427 598 C427 499 405 491 315 491 L315 491 Z M86 609 C86 513 93 461 144 435 C77 411 57 354 57 219 C57 35 77 -10 315 -10 C523 -10 574 8 574 218 C574 344 565 406 486 433 C531 457 545 507 545 609 C545 777 518 819 315 819 C132 819 86 794 86 609 L86 609 Z M315 99 C204 99 194 125 194 228 C194 361 218 372 315 372 C427 372 437 344 437 230 C437 109 413 99 315 99 L315 99 Z " />
<glyph glyph-name="nine" unicode="9" horiz-adv-x="605" d="M75 124 C138 16 183 -10 300 -10 C542 -10 574 73 574 410 C574 770 543 819 307 819 C101 819 50 764 50 544 C50 325 98 271 291 270 C389 271 374 243 442 388 C442 388 442 387 442 387 C441 153 424 95 300 94 C243 95 218 113 174 188 C174 188 75 124 75 124 L75 124 Z M437 558 C437 444 458 380 316 380 C214 380 188 412 188 544 C188 677 212 710 307 709 C395 710 426 688 437 558 C437 558 437 558 437 558 L437 558 Z " />
<glyph glyph-name="colon" unicode="&#x3a;" horiz-adv-x="225" d="M50 425 C50 425 175 425 175 425 C175 425 175 550 175 550 C175 550 50 550 50 550 C50 550 50 425 50 425 L50 425 Z M50 0 C50 0 175 0 175 0 C175 0 175 125 175 125 C175 125 50 125 50 125 C50 125 50 0 50 0 L50 0 Z " />
<glyph glyph-name="semicolon" unicode="&#x3b;" horiz-adv-x="225" d="M50 425 C50 425 175 425 175 425 C175 425 175 550 175 550 C175 550 50 550 50 550 C50 550 50 425 50 425 L50 425 Z M50 125 C50 125 50 0 50 0 C50 0 100 0 100 0 C100 -58 98 -60 50 -60 C50 -60 50 -120 50 -120 C170 -120 175 -115 175 0 C175 0 175 125 175 125 C175 125 50 125 50 125 L50 125 Z " />
<glyph glyph-name="less" unicode="&#x3c;" horiz-adv-x="555" d="M495 521 C495 521 45 318 45 318 C45 318 45 233 45 233 C45 233 495 29 495 29 C495 29 495 124 495 124 C495 124 144 275 144 275 C144 275 495 426 495 426 C495 426 495 521 495 521 L495 521 Z " />
<glyph glyph-name="equal" unicode="&#x3d;" horiz-adv-x="604" d="M39 212 C39 212 39 142 39 142 C39 142 554 142 554 142 C554 142 554 212 554 212 C554 212 39 212 39 212 L39 212 Z M39 423 C39 423 39 353 39 353 C39 353 554 353 554 353 C554 353 554 423 554 423 C554 423 39 423 39 423 L39 423 Z " />
<glyph glyph-name="greater" unicode="&#x3e;" horiz-adv-x="555" d="M411 275 C411 275 60 124 60 124 C60 124 60 29 60 29 C60 29 510 233 510 233 C510 233 510 318 510 318 C510 318 60 521 60 521 C60 521 60 426 60 426 C60 426 411 275 411 275 L411 275 Z " />
<glyph glyph-name="question" unicode="&#x3f;" horiz-adv-x="565" d="M204 0 C204 0 329 0 329 0 C329 0 329 125 329 125 C329 125 204 125 204 125 C204 125 204 0 204 0 L204 0 Z M15 604 C15 604 126 584 126 584 C136 700 165 729 274 729 C371 729 395 703 395 599 C395 541 392 537 311 480 C199 402 211 434 211 210 C211 210 321 210 321 210 C321 373 312 349 391 405 C510 489 515 496 515 599 C515 775 467 819 274 819 C82 819 30 776 15 604 L15 604 Z " />
<glyph glyph-name="at" unicode="&#x40;" horiz-adv-x="1251" d="M1033 -115 C911 -201 836 -222 656 -222 C246 -222 144 -121 144 284 C144 690 244 791 649 791 C1020 791 1112 709 1112 378 C1112 117 1082 52 959 52 C862 52 842 85 857 220 C857 220 892 528 892 528 C892 528 787 528 787 528 C787 528 784 501 784 501 C756 536 706 539 628 539 C424 539 367 488 344 284 C317 52 362 -6 568 -6 C665 -6 722 9 756 56 C776 0 826 -17 922 -17 C1142 -17 1197 61 1197 378 C1197 771 1088 869 649 869 C176 869 59 753 59 284 C59 -185 178 -301 656 -301 C848 -301 932 -276 1075 -175 C1075 -175 1033 -115 1033 -115 L1033 -115 Z M752 220 C741 122 707 98 580 98 C465 98 441 135 459 284 C473 405 504 435 616 435 C744 435 775 427 752 220 L752 220 Z " />
<glyph glyph-name="A" unicode="A" horiz-adv-x="723" d="M712 5 C712 5 711 5 711 5 C711 5 433 809 433 809 C433 809 430 809 430 809 C430 809 362 809 362 809 C362 809 299 809 299 809 C299 809 294 809 294 809 C293 808 293 808 293 806 C293 806 293 806 293 806 C293 806 292 804 292 804 C292 804 292 804 292 804 C292 804 9 2 9 2 C8 1 8 1 8 0 C8 0 80 0 80 0 C80 0 152 0 152 0 C152 0 152 1 152 1 C153 3 153 4 154 5 C154 5 154 5 154 5 C154 5 206 158 206 158 C206 158 522 158 522 158 C522 158 574 5 574 5 C574 5 574 5 574 5 C575 4 575 2 576 1 C576 1 576 0 576 0 C576 0 645 0 645 0 C645 0 713 0 713 0 C713 0 713 2 713 2 C713 2 712 5 712 5 L712 5 Z M242 262 C242 262 364 618 364 618 C364 618 513 184 513 184 C513 184 486 262 486 262 C486 262 242 262 242 262 L242 262 Z " />
<glyph glyph-name="B" unicode="B" horiz-adv-x="656" d="M523 417 C598 439 620 490 620 595 C620 801 609 809 345 809 C345 809 215 809 215 809 C215 809 151 809 151 809 C151 809 87 809 87 809 C87 809 87 804 87 804 C87 804 87 5 87 5 C87 5 87 0 87 0 C87 0 151 0 151 0 C151 0 215 0 215 0 C215 0 346 0 346 0 C610 0 621 10 621 248 C621 348 599 396 523 417 C523 417 523 417 523 417 L523 417 Z M215 457 C215 457 215 704 215 704 C215 704 351 704 351 704 C482 704 487 699 487 586 C487 483 454 457 320 457 C320 457 215 457 215 457 L215 457 Z M215 104 C215 104 215 356 215 356 C215 356 287 356 287 356 C444 356 483 337 483 262 C483 111 476 105 308 105 C271 105 253 104 215 104 L215 104 Z " />
<glyph glyph-name="C" unicode="C" horiz-adv-x="695" d="M657 163 C542 112 496 99 423 99 C236 99 189 184 189 404 C189 624 236 709 423 709 C488 709 534 699 657 659 C657 659 675 786 675 786 C673 787 672 787 670 788 C670 788 670 788 670 788 C670 788 670 788 670 788 C594 813 543 819 423 819 C126 819 52 703 52 404 C52 106 126 -10 423 -10 C542 -10 592 -1 675 36 C675 36 657 163 657 163 L657 163 Z " />
<glyph glyph-name="D" unicode="D" horiz-adv-x="765" d="M151 0 C151 0 215 0 215 0 C215 0 350 0 350 0 C676 0 710 38 710 404 C710 761 664 809 320 809 C320 809 215 809 215 809 C215 809 151 809 151 809 C151 809 87 809 87 809 C87 809 87 804 87 804 C87 804 87 5 87 5 C87 5 87 0 87 0 C87 0 151 0 151 0 L151 0 Z M215 104 C215 104 215 704 215 704 C215 704 326 704 326 704 C544 704 573 668 573 404 C573 132 551 104 341 104 C341 104 215 104 215 104 L215 104 Z " />
<glyph glyph-name="E" unicode="E" horiz-adv-x="640" d="M590 55 C590 55 590 109 590 109 C590 110 590 110 588 109 C586 108 585 110 585 109 C585 109 215 109 215 109 C215 109 215 337 215 337 C215 337 550 337 550 337 C550 337 555 337 555 337 C555 337 555 390 555 390 C555 390 555 442 555 442 C555 442 553 442 553 442 C553 442 550 442 550 442 C550 442 215 442 215 442 C215 442 215 699 215 699 C215 699 570 699 570 699 C570 699 575 699 575 699 C575 699 575 754 575 754 C575 754 575 809 575 809 C575 809 215 809 215 809 C215 809 214 809 214 809 C214 809 151 809 151 809 C151 809 87 809 87 809 C87 809 87 804 87 804 C87 804 87 5 87 5 C87 5 87 0 87 0 C87 0 151 0 151 0 C151 0 214 0 214 0 C214 0 215 0 215 0 C215 0 590 0 590 0 C590 0 590 55 590 55 L590 55 Z " />
<glyph glyph-name="F" unicode="F" horiz-adv-x="605" d="M540 337 C540 337 545 337 545 337 C545 337 545 390 545 390 C545 390 545 442 545 442 C545 442 543 442 543 442 C543 442 540 442 540 442 C540 442 215 442 215 442 C215 442 215 699 215 699 C215 699 570 699 570 699 C570 699 575 699 575 699 C575 699 575 754 575 754 C575 754 575 809 575 809 C575 809 215 809 215 809 C215 809 214 809 214 809 C214 809 151 809 151 809 C151 809 87 809 87 809 C87 809 87 804 87 804 C87 804 87 5 87 5 C87 5 87 0 87 0 C87 0 151 0 151 0 C151 0 215 0 215 0 C215 0 215 5 215 5 C215 5 215 337 215 337 C215 337 540 337 540 337 L540 337 Z " />
<glyph glyph-name="G" unicode="G" horiz-adv-x="772" d="M369 327 C369 327 599 327 599 327 C599 327 599 155 599 155 C546 110 524 99 460 99 C243 99 189 160 189 404 C189 648 243 709 460 709 C515 709 559 699 682 659 C682 659 700 786 700 786 C698 787 697 787 695 788 C695 788 695 788 695 788 C695 788 695 788 695 788 C619 813 571 819 460 819 C133 819 52 737 52 404 C52 72 133 -10 460 -10 C591 -10 633 10 728 90 C728 90 728 436 728 436 C728 436 369 436 369 436 C369 436 369 327 369 327 L369 327 Z " />
<glyph glyph-name="H" unicode="H" horiz-adv-x="778" d="M629 0 C629 0 693 0 693 0 C693 0 693 5 693 5 C693 5 693 804 693 804 C693 804 693 809 693 809 C693 809 629 809 629 809 C629 809 565 809 565 809 C565 809 565 804 565 804 C565 804 565 453 565 453 C565 453 215 453 215 453 C215 453 215 804 215 804 C215 804 215 809 215 809 C215 809 151 809 151 809 C151 809 87 809 87 809 C87 809 87 804 87 804 C87 804 87 5 87 5 C87 5 87 0 87 0 C87 0 151 0 151 0 C151 0 215 0 215 0 C215 0 215 5 215 5 C215 5 215 343 215 343 C215 343 565 343 565 343 C565 343 565 5 565 5 C565 5 565 0 565 0 C565 0 629 0 629 0 L629 0 Z " />
<glyph glyph-name="I" unicode="I" horiz-adv-x="301" d="M152 0 C152 0 216 0 216 0 C216 0 216 5 216 5 C216 5 216 804 216 804 C216 804 216 809 216 809 C216 809 152 809 152 809 C152 809 88 809 88 809 C88 809 88 804 88 804 C88 804 88 5 88 5 C88 5 88 0 88 0 C88 0 152 0 152 0 L152 0 Z " />
<glyph glyph-name="J" unicode="J" horiz-adv-x="565" d="M49 279 C49 279 49 216 49 216 C49 8 66 -10 265 -10 C454 -10 480 39 480 237 C480 237 480 804 480 804 C480 804 480 809 480 809 C480 809 416 809 416 809 C416 809 352 809 352 809 C352 809 352 804 352 804 C352 804 352 237 352 237 C352 138 342 114 265 114 C184 114 177 125 177 252 C177 252 177 302 177 302 C177 302 49 279 49 279 L49 279 Z " />
<glyph glyph-name="K" unicode="K" horiz-adv-x="683" d="M671 5 C671 5 671 5 671 5 C671 5 414 523 414 523 C414 523 346 442 346 442 C346 442 649 804 649 804 C649 804 649 804 649 804 C649 802 653 809 653 809 C653 809 571 809 571 809 C571 809 489 809 489 809 C489 809 485 804 485 804 C485 804 486 804 486 804 C485 804 485 804 485 804 C485 804 215 464 215 464 C215 464 215 804 215 804 C215 804 215 809 215 809 C215 809 151 809 151 809 C151 809 87 809 87 809 C87 809 87 804 87 804 C87 804 87 5 87 5 C87 5 87 0 87 0 C87 0 151 0 151 0 C151 0 215 0 215 0 C215 0 215 5 215 5 C215 5 215 290 215 290 C215 290 218 289 218 289 C218 289 325 417 325 417 C325 417 521 0 521 0 C521 0 597 0 597 0 C597 0 673 0 673 0 C673 0 672 3 672 3 C672 3 671 5 671 5 L671 5 Z M485 804 C485 804 485 804 485 804 C485 804 485 804 485 804 C485 804 485 804 485 804 L485 804 Z " />
<glyph glyph-name="L" unicode="L" horiz-adv-x="571" d="M541 55 C541 55 541 109 541 109 C541 110 541 110 539 109 C537 108 536 110 536 109 C536 109 216 109 216 109 C216 109 216 804 216 804 C216 804 216 809 216 809 C216 809 152 809 152 809 C152 809 88 809 88 809 C88 809 88 804 88 804 C88 804 88 5 88 5 C88 5 88 0 88 0 C88 0 152 0 152 0 C152 0 216 0 216 0 C216 0 541 0 541 0 C541 0 541 55 541 55 L541 55 Z " />
<glyph glyph-name="M" unicode="M" horiz-adv-x="907" d="M761 0 C761 0 823 0 823 0 C823 0 823 5 823 5 C823 5 823 804 823 804 C823 804 823 809 823 809 C823 809 761 809 761 809 C761 809 743 809 743 809 C743 809 699 809 699 809 C699 809 619 809 619 809 C619 809 454 214 454 214 C454 214 285 809 285 809 C285 809 216 809 216 809 C216 809 166 809 166 809 C166 809 151 809 151 809 C151 809 87 809 87 809 C87 809 87 804 87 804 C87 804 87 5 87 5 C87 5 87 0 87 0 C87 0 151 0 151 0 C151 0 216 0 216 0 C216 0 216 5 216 5 C216 5 216 637 216 637 C216 637 398 11 398 11 C398 11 395 0 395 0 C395 0 401 0 401 0 C401 0 515 0 515 0 C515 0 699 653 699 653 C699 653 699 5 699 5 C699 5 699 0 699 0 C699 0 761 0 761 0 L761 0 Z " />
<glyph glyph-name="N" unicode="N" horiz-adv-x="752" d="M667 804 C667 804 668 804 668 804 C667 803 667 804 667 804 L667 804 Z M533 804 C533 804 533 194 533 194 C533 194 228 809 228 809 C228 809 220 809 220 809 C220 809 153 809 153 809 C153 809 85 809 85 809 C85 809 85 804 85 804 C85 804 85 5 85 5 C85 5 85 0 85 0 C85 0 153 0 153 0 C153 0 220 0 220 0 C220 0 220 3 220 3 C220 3 220 5 220 5 C220 5 220 537 220 537 C220 537 487 0 487 0 C487 0 533 0 533 0 C533 0 629 0 629 0 C629 0 668 0 668 0 C668 0 668 804 668 804 C668 804 668 806 668 806 C668 806 668 809 668 809 C668 809 601 809 601 809 C601 809 533 809 533 809 C533 809 533 804 533 804 L533 804 Z " />
<glyph glyph-name="O" unicode="O" horiz-adv-x="814" d="M408 99 C237 99 194 160 194 404 C194 636 245 709 408 709 C570 709 621 636 621 404 C621 160 579 99 408 99 L408 99 Z M57 404 C57 72 127 -10 408 -10 C689 -10 759 72 759 404 C759 720 675 819 408 819 C141 819 57 720 57 404 L57 404 Z " />
<glyph glyph-name="P" unicode="P" horiz-adv-x="624" d="M151 0 C151 0 215 0 215 0 C215 0 215 5 215 5 C215 5 215 302 215 302 C215 302 326 302 326 302 C558 302 589 333 589 566 C589 780 558 809 326 809 C326 809 215 809 215 809 C215 809 151 809 151 809 C151 809 119 809 119 809 C119 809 87 809 87 809 C87 809 87 804 87 804 C87 804 87 5 87 5 C87 5 87 0 87 0 C87 0 151 0 151 0 L151 0 Z M215 406 C215 406 215 704 215 704 C215 704 320 704 320 704 C444 704 461 688 461 566 C461 425 446 406 331 406 C331 406 215 406 215 406 L215 406 Z " />
<glyph glyph-name="Q" unicode="Q" horiz-adv-x="814" d="M57 404 C57 72 127 -10 408 -10 C460 -10 505 -7 544 0 C544 0 584 -60 584 -60 C584 -60 663 9 663 9 C663 9 646 35 646 35 C732 89 759 199 759 404 C759 720 675 819 408 819 C141 819 57 720 57 404 L57 404 Z M474 103 C454 100 432 99 408 99 C237 99 194 160 194 404 C194 636 245 709 408 709 C570 709 621 636 621 404 C621 273 609 195 571 150 C571 150 515 237 515 237 C515 237 432 165 432 165 C432 165 474 103 474 103 L474 103 Z " />
<glyph glyph-name="R" unicode="R" horiz-adv-x="624" d="M616 5 C616 5 615 5 615 5 C615 5 435 326 435 326 C568 339 589 391 589 566 C589 780 558 809 326 809 C326 809 215 809 215 809 C215 809 151 809 151 809 C151 809 119 809 119 809 C119 809 87 809 87 809 C87 809 87 804 87 804 C87 804 87 5 87 5 C87 5 87 0 87 0 C87 0 151 0 151 0 C151 0 215 0 215 0 C215 0 215 5 215 5 C215 5 215 322 215 322 C215 322 290 322 290 322 C290 322 471 0 471 0 C471 0 545 0 545 0 C545 0 618 0 618 0 C618 0 617 3 617 3 C617 3 616 5 616 5 L616 5 Z M215 426 C215 426 215 704 215 704 C215 704 320 704 320 704 C444 704 461 688 461 566 C461 443 445 426 330 426 C330 426 215 426 215 426 L215 426 Z " />
<glyph glyph-name="S" unicode="S" horiz-adv-x="625" d="M532 720 C532 720 554 780 554 780 C553 781 551 781 549 782 C549 782 549 782 549 782 C549 782 549 782 549 782 C514 793 407 819 275 819 C84 819 37 773 37 588 C37 427 68 399 295 351 C442 321 462 306 462 222 C462 130 448 107 345 107 C282 107 135 163 87 184 C87 184 56 48 56 48 C92 33 223 -10 345 -10 C561 -10 590 37 590 227 C590 403 559 433 330 481 C188 510 169 524 169 602 C169 680 190 699 275 699 C376 699 481 670 510 660 C510 660 532 720 532 720 L532 720 Z " />
<glyph glyph-name="T" unicode="T" horiz-adv-x="595" d="M298 0 C298 0 362 0 362 0 C362 0 362 3 362 3 C362 3 362 5 362 5 C362 5 362 699 362 699 C362 699 580 699 580 699 C580 699 585 699 585 699 C585 699 585 754 585 754 C585 754 585 809 585 809 C585 809 362 809 362 809 C362 809 233 809 233 809 C233 809 10 809 10 809 C10 809 10 754 10 754 C10 754 10 699 10 699 C10 699 15 699 15 699 C15 699 233 699 233 699 C233 699 233 5 233 5 C233 5 233 0 233 0 C233 0 298 0 298 0 L298 0 Z " />
<glyph glyph-name="U" unicode="U" horiz-adv-x="732" d="M80 804 C80 804 80 312 80 312 C80 28 114 -10 366 -10 C619 -10 653 28 653 312 C653 312 653 804 653 804 C653 804 653 809 653 809 C653 809 586 809 586 809 C586 809 519 809 519 809 C519 809 519 804 519 804 C519 804 519 336 519 336 C519 140 501 114 366 114 C227 114 208 140 208 335 C208 335 208 804 208 804 C208 804 208 809 208 809 C208 809 144 809 144 809 C144 809 80 809 80 809 C80 809 80 804 80 804 L80 804 Z " />
<glyph glyph-name="V" unicode="V" horiz-adv-x="644" d="M623 804 C623 804 623 804 623 804 C624 806 625 808 624 809 C624 809 552 809 552 809 C552 809 480 809 480 809 C480 809 317 214 317 214 C317 214 150 804 150 804 C150 804 151 804 151 804 C151 804 150 806 150 806 C150 808 150 808 149 809 C149 809 80 809 80 809 C80 809 12 809 12 809 C11 808 12 806 13 804 C13 804 14 804 14 804 C14 804 258 2 258 2 C258 2 258 0 258 0 C258 0 259 0 259 0 C259 0 377 0 377 0 C377 0 382 0 382 0 C382 0 623 804 623 804 L623 804 Z " />
<glyph glyph-name="W" unicode="W" horiz-adv-x="903" d="M862 804 C862 803 863 804 863 806 C864 808 864 808 863 809 C863 809 791 809 791 809 C791 809 719 809 719 809 C719 809 718 804 718 804 C718 804 718 804 718 804 C718 804 718 804 718 804 C718 804 634 304 634 304 C634 304 524 796 524 796 C524 796 527 809 527 809 C527 809 521 809 521 809 C521 809 397 809 397 809 C397 809 287 303 287 303 C287 303 199 804 199 804 C199 804 199 804 199 804 C200 803 199 804 199 806 C199 808 199 808 198 809 C198 809 129 809 129 809 C129 809 61 809 61 809 C60 808 60 808 61 806 C61 804 61 803 62 804 C62 804 217 0 217 0 C217 0 221 0 221 0 C221 0 340 0 340 0 C340 0 461 524 461 524 C461 524 579 0 579 0 C579 0 583 0 583 0 C583 0 702 0 702 0 C702 0 862 804 862 804 L862 804 Z " />
<glyph glyph-name="X" unicode="X" horiz-adv-x="651" d="M605 5 C605 5 604 5 604 5 C604 5 392 405 392 405 C392 405 617 804 617 804 C617 802 620 808 620 809 C620 809 546 809 546 809 C546 809 473 809 473 809 C473 809 472 807 472 807 C471 806 470 805 470 804 C470 804 470 804 470 804 C470 804 320 539 320 539 C320 539 180 804 180 804 C180 804 180 804 179 804 C179 804 180 804 180 804 C180 804 177 809 177 809 C177 809 112 809 112 809 C112 809 47 809 47 809 C46 808 48 806 49 804 C49 804 50 804 50 804 C50 804 253 421 253 421 C253 421 15 0 15 0 C15 0 89 0 89 0 C89 0 162 0 162 0 C163 2 164 3 165 5 C165 5 165 5 165 5 C165 5 324 287 324 287 C324 287 474 5 474 5 C474 5 474 5 474 5 C474 5 475 4 475 4 C475 4 477 0 477 0 C477 0 542 0 542 0 C542 0 607 0 607 0 C607 0 606 3 606 3 C606 3 605 5 605 5 L605 5 Z M180 804 C180 804 180 804 180 804 C180 804 180 804 180 804 C180 804 180 804 180 804 L180 804 Z " />
<glyph glyph-name="Y" unicode="Y" horiz-adv-x="658" d="M254 5 C254 5 254 0 254 0 C254 0 318 0 318 0 C318 0 382 0 382 0 C382 0 382 5 382 5 C382 5 382 347 382 347 C382 347 616 804 616 804 C618 803 619 808 619 809 C619 809 553 809 553 809 C553 809 487 809 487 809 C487 809 316 469 316 469 C316 469 147 804 147 804 C147 804 147 804 147 804 C146 806 145 808 144 809 C144 809 81 809 81 809 C81 809 19 809 19 809 C18 808 18 808 20 806 C20 806 21 804 21 804 C21 804 22 804 22 804 C22 804 254 349 254 349 C254 349 254 5 254 5 L254 5 Z " />
<glyph glyph-name="Z" unicode="Z" horiz-adv-x="655" d="M610 55 C610 55 610 109 610 109 C610 110 610 110 608 109 C605 110 605 110 605 109 C605 109 203 109 203 109 C203 109 610 699 610 699 C610 699 610 809 610 809 C610 809 60 809 60 809 C60 809 60 754 60 754 C60 754 60 699 60 699 C60 699 65 699 65 699 C65 699 452 699 452 699 C452 699 45 109 45 109 C45 109 45 0 45 0 C45 0 610 0 610 0 C610 0 610 55 610 55 L610 55 Z " />
<glyph glyph-name="bracketleft" unicode="&#x5b;" horiz-adv-x="360" d="M200 744 C200 744 330 744 330 744 C330 744 330 809 330 809 C330 809 200 809 200 809 C200 809 125 809 125 809 C125 809 125 -115 125 -115 C125 -115 200 -115 200 -115 C200 -115 330 -115 330 -115 C330 -115 330 -50 330 -50 C330 -50 200 -50 200 -50 C200 -50 200 744 200 744 L200 744 Z " />
<glyph glyph-name="backslash" unicode="&#x5c;" horiz-adv-x="340" d="M290 0 C290 0 340 0 340 0 C340 0 50 809 50 809 C50 809 0 809 0 809 C0 809 290 0 290 0 L290 0 Z " />
<glyph glyph-name="bracketright" unicode="&#x5d;" horiz-adv-x="360" d="M160 744 C160 744 160 -50 160 -50 C160 -50 30 -50 30 -50 C30 -50 30 -115 30 -115 C30 -115 160 -115 160 -115 C160 -115 235 -115 235 -115 C235 -115 235 809 235 809 C235 809 160 809 160 809 C160 809 30 809 30 809 C30 809 30 744 30 744 C30 744 160 744 160 744 L160 744 Z " />
<glyph glyph-name="underscore" unicode="&#x5f;" horiz-adv-x="680" d="M50 -135 C50 -135 630 -135 630 -135 C630 -135 630 -65 630 -65 C630 -65 50 -65 50 -65 C50 -65 50 -135 50 -135 L50 -135 Z " />
<glyph glyph-name="a" unicode="a" horiz-adv-x="550" d="M67 528 C67 528 124 429 124 429 C169 455 198 461 271 461 C342 461 360 459 360 407 C360 407 360 380 360 380 C360 311 327 308 193 285 C70 263 40 235 40 142 C40 20 46 -10 206 -10 C281 -10 328 -12 357 11 C363 -11 395 0 520 0 C520 0 520 85 520 85 C462 85 475 78 475 110 C475 110 475 358 475 358 C475 552 434 560 271 560 C152 560 111 554 67 528 L67 528 Z M360 228 C360 228 360 163 360 163 C355 69 327 73 243 73 C158 73 155 88 155 146 C155 181 177 193 264 208 C306 215 337 220 360 228 L360 228 Z " />
<glyph glyph-name="b" unicode="b" horiz-adv-x="599" d="M302 88 C208 88 185 103 185 275 C185 446 208 461 301 461 C400 461 425 424 425 275 C425 125 400 88 302 88 L302 88 Z M128 0 C128 0 185 0 185 0 C185 0 185 23 185 23 C217 -6 266 -10 341 -10 C508 -10 550 47 550 275 C550 503 508 560 341 560 C266 560 217 556 185 527 C185 527 185 770 185 770 C185 770 185 780 185 780 C185 780 128 780 128 780 C105 781 93 781 70 780 C70 780 70 775 70 775 C70 775 70 770 70 770 C70 770 70 5 70 5 C70 5 70 0 70 0 C70 0 128 0 128 0 L128 0 Z " />
<glyph glyph-name="c" unicode="c" horiz-adv-x="539" d="M464 128 C406 97 378 89 319 89 C204 89 175 104 175 275 C175 451 204 466 319 466 C354 466 377 457 465 422 C465 422 487 476 487 476 C487 476 487 476 487 476 C487 476 509 531 509 531 C507 532 506 532 504 533 C504 533 504 533 504 533 C504 533 504 533 504 533 C449 554 428 560 319 560 C104 560 50 538 50 275 C50 12 104 -10 319 -10 C432 -10 470 -5 509 16 C509 16 464 128 464 128 L464 128 Z " />
<glyph glyph-name="d" unicode="d" horiz-adv-x="598" d="M413 775 C413 775 414 775 414 775 C414 775 414 770 414 770 C414 770 414 516 414 516 C382 549 333 560 258 560 C91 560 50 503 50 275 C50 47 91 -10 258 -10 C333 -10 382 1 414 34 C414 34 414 10 414 10 C414 10 414 0 414 0 C414 0 471 0 471 0 C471 0 529 0 529 0 C529 0 529 5 529 5 C529 5 529 10 529 10 C529 10 529 770 529 770 C529 770 529 780 529 780 C529 780 471 780 471 780 C448 781 436 781 413 780 C413 780 413 775 413 775 L413 775 Z M414 275 C414 126 391 89 298 89 C199 89 175 126 175 275 C175 424 199 461 298 461 C391 461 414 424 414 275 L414 275 Z " />
<glyph glyph-name="e" unicode="e" horiz-adv-x="547" d="M463 124 C420 96 384 89 284 89 C202 89 178 102 175 247 C175 247 419 247 419 247 C419 247 534 247 534 247 C534 498 525 560 292 560 C98 560 50 538 50 275 C50 12 96 -10 284 -10 C438 -10 484 -5 517 17 C517 17 463 124 463 124 L463 124 Z M418 331 C418 331 176 331 176 331 C181 454 209 466 292 466 C392 466 413 437 418 331 C418 331 418 331 418 331 L418 331 Z " />
<glyph glyph-name="f" unicode="f" horiz-adv-x="410" d="M168 0 C168 0 225 0 225 0 C225 0 225 5 225 5 C225 5 225 456 225 456 C225 456 340 456 340 456 C340 456 340 550 340 550 C340 550 225 550 225 550 C225 550 225 630 225 630 C225 681 227 683 277 682 C277 682 335 681 335 681 C335 681 335 681 335 681 C335 681 340 681 340 681 C340 681 340 731 340 731 C340 731 340 780 340 780 C340 780 245 780 245 780 C115 780 110 774 110 630 C110 630 110 550 110 550 C110 550 30 550 30 550 C30 550 30 456 30 456 C30 456 110 456 110 456 C110 456 110 5 110 5 C110 5 110 0 110 0 C110 0 168 0 168 0 L168 0 Z " />
<glyph glyph-name="g" unicode="g" horiz-adv-x="588" d="M71 -178 C78 -185 135 -204 298 -204 C510 -204 519 -154 519 49 C519 49 519 545 519 545 C519 545 519 550 519 550 C496 551 484 551 461 550 C461 550 404 550 404 550 C404 550 404 517 404 517 C373 549 325 560 253 560 C90 560 50 549 50 275 C50 11 90 0 253 0 C325 0 373 11 404 42 C404 42 404 0 404 0 C404 -85 399 -106 287 -106 C172 -106 120 -79 111 -68 C111 -68 71 -178 71 -178 L71 -178 Z M293 461 C382 461 404 424 404 275 C404 134 382 99 293 99 C198 99 175 106 175 275 C175 454 198 461 293 461 L293 461 Z " />
<glyph glyph-name="h" unicode="h" horiz-adv-x="555" d="M428 0 C428 0 485 0 485 0 C485 0 485 5 485 5 C485 5 485 345 485 345 C485 530 455 555 332 555 C259 555 213 545 185 517 C185 517 185 770 185 770 C185 770 185 780 185 780 C185 780 128 780 128 780 C105 781 93 781 70 780 C70 780 70 775 70 775 C70 775 70 5 70 5 C70 5 70 0 70 0 C70 0 128 0 128 0 C128 0 185 0 185 0 C185 0 185 5 185 5 C185 5 185 350 185 350 C185 428 205 447 286 447 C353 447 370 435 370 345 C370 345 370 5 370 5 C370 5 370 0 370 0 C370 0 428 0 428 0 L428 0 Z " />
<glyph glyph-name="i" unicode="i" horiz-adv-x="254" d="M69 545 C69 545 70 545 70 545 C70 545 70 5 70 5 C70 5 69 5 69 5 C69 5 69 0 69 0 C69 0 70 0 70 0 C70 0 127 0 127 0 C127 0 185 0 185 0 C185 0 185 5 185 5 C185 5 185 540 185 540 C185 540 185 550 185 550 C185 550 127 550 127 550 C104 551 92 551 69 550 C69 550 69 545 69 545 L69 545 Z M65 630 C65 630 190 630 190 630 C190 630 190 755 190 755 C190 755 65 755 65 755 C65 755 65 630 65 630 L65 630 Z " />
<glyph glyph-name="j" unicode="j" horiz-adv-x="254" d="M69 545 C69 545 70 545 70 545 C70 545 70 0 70 0 C70 -78 72 -75 20 -75 C20 -75 -15 -75 -15 -75 C-15 -75 -15 -174 -15 -174 C-15 -174 52 -175 52 -175 C191 -175 185 -182 185 0 C185 0 185 540 185 540 C185 540 185 550 185 550 C185 550 127 550 127 550 C104 551 92 551 69 550 C69 550 69 545 69 545 L69 545 Z M65 630 C65 630 190 630 190 630 C190 630 190 755 190 755 C190 755 65 755 65 755 C65 755 65 630 65 630 L65 630 Z " />
<glyph glyph-name="k" unicode="k" horiz-adv-x="519" d="M372 0 C372 0 441 0 441 0 C441 0 510 0 510 0 C510 0 509 3 509 3 C509 3 508 4 508 4 C508 4 336 373 336 373 C336 373 491 545 491 545 C491 545 492 545 492 545 C492 545 492 546 492 546 C492 546 496 550 496 550 C467 551 452 551 423 550 C394 549 379 551 350 550 C350 551 348 548 346 546 C346 546 185 353 185 353 C185 353 185 770 185 770 C185 770 185 780 185 780 C185 780 128 780 128 780 C105 781 93 781 70 780 C70 780 70 775 70 775 C70 775 70 5 70 5 C70 5 70 0 70 0 C70 0 128 0 128 0 C128 0 185 0 185 0 C185 0 185 5 185 5 C185 5 185 205 185 205 C185 205 273 303 273 303 C273 303 251 278 251 278 C251 278 372 0 372 0 L372 0 Z " />
<glyph glyph-name="l" unicode="l" horiz-adv-x="254" d="M127 0 C127 0 185 0 185 0 C185 0 185 3 185 3 C185 3 185 5 185 5 C185 5 185 770 185 770 C185 770 185 780 185 780 C185 780 127 780 127 780 C104 781 92 781 70 780 C70 780 70 775 70 775 C70 775 70 5 70 5 C70 5 70 0 70 0 C70 0 127 0 127 0 L127 0 Z " />
<glyph glyph-name="m" unicode="m" horiz-adv-x="838" d="M658 0 C658 0 659 0 659 0 C659 0 716 0 716 0 C716 0 774 0 774 0 C774 0 774 5 774 5 C774 5 774 345 774 345 C774 530 744 555 623 555 C536 555 487 541 462 495 C443 545 403 555 329 555 C258 555 213 545 185 517 C185 517 185 540 185 540 C185 540 185 550 185 550 C185 550 128 550 128 550 C105 551 93 551 70 550 C70 550 70 545 70 545 C70 545 70 5 70 5 C70 5 70 0 70 0 C70 0 128 0 128 0 C128 0 185 0 185 0 C185 0 185 5 185 5 C185 5 185 350 185 350 C185 428 204 447 282 447 C348 447 364 435 364 345 C364 345 364 5 364 5 C364 5 364 0 364 0 C364 0 421 0 421 0 C421 0 479 0 479 0 C479 0 479 5 479 5 C479 5 479 345 479 345 C479 347 479 348 479 350 C479 350 479 350 479 350 C479 428 498 447 577 447 C643 447 659 435 659 345 C659 345 659 5 659 5 C659 5 658 5 658 5 C658 5 658 0 658 0 L658 0 Z " />
<glyph glyph-name="n" unicode="n" horiz-adv-x="550" d="M428 0 C428 0 485 0 485 0 C485 0 485 5 485 5 C485 5 485 345 485 345 C485 530 455 555 332 555 C259 555 213 545 185 517 C185 517 185 540 185 540 C185 540 185 550 185 550 C185 550 128 550 128 550 C105 551 93 551 70 550 C70 550 70 545 70 545 C70 545 70 5 70 5 C70 5 70 0 70 0 C70 0 128 0 128 0 C128 0 185 0 185 0 C185 0 185 5 185 5 C185 5 185 350 185 350 C185 428 205 447 286 447 C353 447 370 435 370 345 C370 345 370 5 370 5 C370 5 370 0 370 0 C370 0 428 0 428 0 L428 0 Z " />
<glyph glyph-name="o" unicode="o" horiz-adv-x="590" d="M295 79 C184 79 175 118 175 275 C175 456 199 471 295 471 C406 471 415 432 415 275 C415 94 391 79 295 79 L295 79 Z M50 275 C50 47 69 -10 295 -10 C491 -10 540 12 540 275 C540 503 521 560 295 560 C99 560 50 538 50 275 L50 275 Z " />
<glyph glyph-name="p" unicode="p" horiz-adv-x="599" d="M301 89 C208 89 185 104 185 275 C185 446 208 461 301 461 C400 461 425 424 425 275 C425 126 400 89 301 89 L301 89 Z M128 -155 C128 -155 185 -155 185 -155 C185 -155 185 -150 185 -150 C185 -150 185 23 185 23 C217 -6 266 -10 341 -10 C508 -10 550 47 550 275 C550 503 508 560 341 560 C266 560 217 556 185 527 C185 527 185 540 185 540 C185 540 185 550 185 550 C185 550 128 550 128 550 C105 551 93 551 70 550 C70 550 70 545 70 545 C70 545 70 -150 70 -150 C70 -150 70 -155 70 -155 C70 -155 128 -155 128 -155 L128 -155 Z " />
<glyph glyph-name="q" unicode="q" horiz-adv-x="598" d="M413 -155 C413 -155 414 -155 414 -155 C414 -155 471 -155 471 -155 C471 -155 529 -155 529 -155 C529 -155 529 -150 529 -150 C529 -150 529 545 529 545 C529 545 529 550 529 550 C506 551 494 551 471 550 C471 550 414 550 414 550 C414 550 414 516 414 516 C382 549 333 560 258 560 C91 560 50 503 50 275 C50 47 91 -10 258 -10 C333 -10 382 1 414 34 C414 34 414 -150 414 -150 C414 -150 413 -150 413 -150 C413 -150 413 -155 413 -155 L413 -155 Z M414 275 C414 126 391 89 298 89 C199 89 175 126 175 275 C175 424 199 461 298 461 C391 461 414 424 414 275 L414 275 Z " />
<glyph glyph-name="r" unicode="r" horiz-adv-x="370" d="M350 420 C350 420 350 550 350 550 C350 550 340 550 340 550 C260 550 213 539 185 509 C185 509 185 540 185 540 C185 540 185 550 185 550 C185 550 128 550 128 550 C105 551 93 551 70 550 C70 550 70 545 70 545 C70 545 70 5 70 5 C70 5 70 0 70 0 C70 0 128 0 128 0 C128 0 185 0 185 0 C185 0 185 5 185 5 C185 5 185 260 185 260 C185 388 191 420 329 420 C329 420 350 420 350 420 L350 420 Z " />
<glyph glyph-name="s" unicode="s" horiz-adv-x="514" d="M49 28 C49 28 58 64 58 64 C58 64 66 61 66 61 C66 61 49 28 49 28 L49 28 Z M49 28 C49 28 40 9 40 9 C46 6 108 -5 271 -5 C442 -5 484 26 484 151 C484 265 460 297 279 326 C181 342 168 357 168 409 C168 455 186 466 258 466 C334 466 398 446 413 440 C413 440 435 489 435 489 C435 489 441 503 441 503 C441 503 437 488 437 488 C437 488 435 489 435 489 C435 489 441 503 441 503 C441 503 457 538 457 538 C456 538 454 539 452 540 C452 540 452 540 452 540 C452 540 452 540 452 540 C433 545 372 555 258 555 C98 555 59 524 59 400 C59 285 82 252 251 224 C356 207 370 192 370 141 C370 99 350 89 271 89 C166 89 104 107 93 113 C93 113 49 27 49 27 C49 27 49 28 49 28 L49 28 Z " />
<glyph glyph-name="t" unicode="t" horiz-adv-x="345" d="M315 550 C315 550 205 550 205 550 C205 550 205 790 205 790 C205 790 90 693 90 693 C90 693 90 550 90 550 C90 550 10 550 10 550 C10 550 10 456 10 456 C10 456 90 456 90 456 C90 456 90 145 90 145 C90 0 58 0 202 0 C202 0 315 0 315 0 C315 0 315 99 315 99 C315 99 255 99 255 99 C191 99 205 99 205 145 C205 145 205 456 205 456 C205 456 315 456 315 456 C315 456 315 550 315 550 L315 550 Z " />
<glyph glyph-name="u" unicode="u" horiz-adv-x="550" d="M365 545 C365 545 366 545 366 545 C366 545 366 217 366 217 C366 122 346 99 265 99 C176 99 180 111 180 200 C180 200 180 550 180 550 C180 550 123 550 123 550 C100 551 88 551 65 550 C65 550 65 545 65 545 C65 545 65 200 65 200 C65 15 58 -10 227 -10 C298 -10 341 2 366 39 C366 39 366 10 366 10 C366 10 366 0 366 0 C366 0 423 0 423 0 C423 0 481 0 481 0 C481 0 481 5 481 5 C481 5 481 10 481 10 C481 10 481 550 481 550 C481 550 423 550 423 550 C400 551 388 551 365 550 C365 550 365 545 365 545 L365 545 Z " />
<glyph glyph-name="v" unicode="v" horiz-adv-x="506" d="M346 550 C346 550 346 550 346 550 C346 550 345 550 345 550 C345 550 241 153 241 153 C241 153 140 550 140 550 C113 551 101 551 75 550 C48 551 36 551 10 550 C9 551 9 550 10 548 C11 546 11 546 11 545 C11 545 12 545 12 545 C12 545 180 0 180 0 C180 0 201 0 201 0 C201 0 280 0 280 0 C280 0 306 0 306 0 C306 0 482 550 482 550 C482 550 481 550 481 550 C481 550 481 551 482 550 C482 550 481 550 481 550 C481 550 481 550 481 550 C454 551 440 551 413 550 C387 551 373 551 346 550 C346 550 346 550 346 550 L346 550 Z M346 550 C345 550 345 550 345 550 C346 551 346 550 346 550 C346 550 346 550 346 550 L346 550 Z " />
<glyph glyph-name="w" unicode="w" horiz-adv-x="750" d="M724 545 C724 545 724 545 724 545 C724 546 724 546 725 548 C726 550 726 551 725 550 C700 551 687 551 662 550 C636 551 623 551 598 550 C598 550 597 550 597 548 C597 548 597 545 597 545 C597 545 515 151 515 151 C515 151 421 540 421 540 C421 540 424 550 424 550 C424 550 419 550 419 550 C419 550 319 550 319 550 C319 550 223 151 223 151 C223 151 141 545 141 545 C141 546 141 546 141 546 C141 546 140 550 140 550 C115 551 103 551 79 550 C54 551 42 551 18 550 C17 551 17 550 18 548 C19 546 19 546 19 545 C19 545 19 545 19 545 C19 545 165 0 165 0 C165 0 187 0 187 0 C187 0 255 0 255 0 C255 0 281 0 281 0 C281 0 372 348 372 348 C372 348 462 0 462 0 C462 0 484 0 484 0 C484 0 552 0 552 0 C552 0 578 0 578 0 C578 0 724 545 724 545 L724 545 Z " />
<glyph glyph-name="x" unicode="x" horiz-adv-x="542" d="M480 550 C481 550 481 550 481 550 C481 550 481 550 480 550 L480 550 Z M480 550 C451 551 437 551 409 550 C380 551 365 551 337 550 C337 552 335 547 334 546 C334 546 247 410 247 410 C247 410 158 546 158 546 C157 548 155 552 155 550 C128 551 114 551 86 550 C59 551 45 551 18 550 C19 548 21 546 21 545 C21 545 21 545 21 545 C21 545 179 304 179 304 C179 304 -17 0 -17 0 C-17 0 55 0 55 0 C55 0 127 0 127 0 C128 1 128 2 129 3 C129 3 251 193 251 193 C251 193 375 5 375 5 C375 5 374 5 374 5 C376 3 377 2 378 0 C378 0 446 0 446 0 C446 0 515 0 515 0 C515 0 513 3 513 3 C513 3 512 5 512 5 C512 5 512 5 512 5 C512 5 319 299 319 299 C319 299 481 550 481 550 C481 550 480 550 480 550 C480 550 480 550 480 550 C480 550 480 550 480 550 L480 550 Z " />
<glyph glyph-name="y" unicode="y" horiz-adv-x="520" d="M52 -200 C52 -200 102 -200 102 -200 C255 -200 248 -205 284 -84 C284 -84 488 550 488 550 C488 550 487 550 487 550 C487 550 487 551 488 550 C488 550 487 550 487 550 C487 550 487 550 487 550 C460 551 446 551 419 550 C393 551 379 551 352 550 C352 550 352 550 352 550 C352 550 351 550 351 550 C351 550 244 160 244 160 C244 160 147 550 147 550 C120 551 108 551 82 550 C55 551 43 551 17 550 C16 551 16 550 17 548 C18 546 18 546 18 545 C18 545 19 545 19 545 C19 545 196 -19 196 -19 C196 -19 190 -39 190 -39 C172 -97 176 -95 102 -95 C102 -95 52 -95 52 -95 C52 -95 52 -200 52 -200 L52 -200 Z M352 550 C351 550 351 550 351 550 C352 551 352 550 352 550 C352 550 352 550 352 550 L352 550 Z " />
<glyph glyph-name="z" unicode="z" horiz-adv-x="460" d="M45 550 C45 550 45 503 45 503 C45 503 45 456 45 456 C45 456 50 456 50 456 C50 456 278 456 278 456 C278 456 30 73 30 73 C30 73 30 0 30 0 C30 0 440 0 440 0 C440 0 440 47 440 47 C440 47 440 94 440 94 C440 94 435 94 435 94 C435 94 170 94 170 94 C170 94 424 477 424 477 C424 477 424 550 424 550 C424 550 45 550 45 550 L45 550 Z " />
<glyph glyph-name="braceleft" unicode="&#x7b;" horiz-adv-x="341" d="M312 809 C312 809 242 809 242 809 C148 809 125 784 125 681 C125 681 125 435 125 435 C125 386 113 374 65 374 C65 374 55 374 55 374 C55 374 55 319 55 319 C55 319 65 319 65 319 C113 319 125 307 125 258 C125 258 125 13 125 13 C125 -90 148 -115 242 -115 C242 -115 312 -115 312 -115 C312 -115 312 -50 312 -50 C312 -50 242 -50 242 -50 C208 -50 200 -38 200 13 C200 13 200 244 200 244 C200 308 188 330 141 347 C188 363 200 385 200 450 C200 450 200 681 200 681 C200 731 208 744 242 744 C242 744 312 744 312 744 C312 744 312 809 312 809 L312 809 Z " />
<glyph glyph-name="bar" unicode="&#x7c;" horiz-adv-x="165" d="M45 830 C45 830 45 -250 45 -250 C45 -250 120 -250 120 -250 C120 -250 120 830 120 830 C120 830 45 830 45 830 L45 830 Z " />
<glyph glyph-name="braceright" unicode="&#x7d;" horiz-adv-x="341" d="M30 809 C30 809 100 809 100 809 C193 809 216 784 216 681 C216 681 216 435 216 435 C216 386 228 374 277 374 C277 374 287 374 287 374 C287 374 287 319 287 319 C287 319 277 319 277 319 C228 319 216 307 216 258 C216 258 216 13 216 13 C216 -90 193 -115 100 -115 C100 -115 30 -115 30 -115 C30 -115 30 -50 30 -50 C30 -50 100 -50 100 -50 C133 -50 141 -38 141 13 C141 13 142 244 142 244 C142 308 153 330 201 347 C153 363 142 385 142 450 C142 450 141 494 141 681 C141 731 133 744 100 744 C100 744 30 744 30 744 C30 744 30 809 30 809 L30 809 Z " />
<glyph glyph-name="[namenotfound]" unicode="&#xa0;" horiz-adv-x="220" d="" />
<glyph glyph-name="exclamdown" unicode="&#xa1;" horiz-adv-x="225" d="M175 550 C175 550 50 550 50 550 C50 550 50 425 50 425 C50 425 175 425 175 425 C175 425 175 550 175 550 L175 550 Z M180 -258 C180 -258 180 76 180 76 C180 76 130 340 130 340 C130 340 95 340 95 340 C95 340 45 76 45 76 C45 76 45 -258 45 -258 C45 -258 180 -258 180 -258 L180 -258 Z " />
<glyph glyph-name="cent" unicode="&#xa2;" horiz-adv-x="535" d="M280 625 C280 625 280 560 280 560 C97 556 50 522 50 275 C50 28 97 -6 280 -10 C280 -10 280 -75 280 -75 C280 -75 355 -75 355 -75 C355 -75 355 -10 355 -10 C437 -9 471 -2 505 16 C505 16 460 128 460 128 C416 105 390 94 355 91 C355 91 355 461 355 461 C362 458 368 455 374 450 C363 438 359 416 359 379 C359 312 373 296 429 296 C525 296 543 317 520 401 C488 517 473 553 355 559 C355 559 355 625 355 625 C355 625 280 625 280 625 L280 625 Z M280 90 C197 95 175 124 175 275 C175 430 197 460 280 465 C280 465 280 90 280 90 L280 90 Z " />
<glyph glyph-name="guillemotleft" unicode="&#xab;" horiz-adv-x="565" d="M395 497 C395 497 255 275 255 275 C255 275 395 53 395 53 C395 53 495 53 495 53 C495 53 355 275 355 275 C355 275 495 497 495 497 C495 497 395 497 395 497 L395 497 Z M210 497 C210 497 70 275 70 275 C70 275 210 53 210 53 C210 53 310 53 310 53 C310 53 170 275 170 275 C170 275 310 497 310 497 C310 497 210 497 210 497 L210 497 Z " />
<glyph glyph-name="logicalnot" unicode="&#xac;" horiz-adv-x="520" d="M470 84 C470 84 470 234 470 234 C470 234 470 333 470 333 C470 333 350 333 350 333 C350 333 50 333 50 333 C50 333 50 234 50 234 C50 234 350 234 350 234 C350 234 350 84 350 84 C350 84 470 84 470 84 L470 84 Z " />
<glyph glyph-name="periodcentered" unicode="&#xb7;" horiz-adv-x="225" d="M50 213 C50 213 175 213 175 213 C175 213 175 338 175 338 C175 338 50 338 50 338 C50 338 50 213 50 213 L50 213 Z " />
<glyph glyph-name="guillemotright" unicode="&#xbb;" horiz-adv-x="547" d="M237 497 C237 497 377 275 377 275 C377 275 237 53 237 53 C237 53 337 53 337 53 C337 53 477 275 477 275 C477 275 337 497 337 497 C337 497 237 497 237 497 L237 497 Z M52 497 C52 497 192 275 192 275 C192 275 52 53 52 53 C52 53 152 53 152 53 C152 53 292 275 292 275 C292 275 152 497 152 497 C152 497 52 497 52 497 L52 497 Z " />
<glyph glyph-name="questiondown" unicode="&#xbf;" horiz-adv-x="550" d="M347 550 C347 550 222 550 222 550 C222 550 222 425 222 425 C222 425 347 425 347 425 C347 425 347 550 347 550 L347 550 Z M535 -53 C535 -53 425 -34 425 -34 C415 -150 385 -179 276 -178 C179 -179 155 -153 155 -48 C155 9 159 14 240 71 C352 149 339 116 339 340 C339 340 229 340 229 340 C229 178 238 201 159 146 C40 62 35 54 35 -48 C35 -225 83 -269 276 -268 C469 -267 520 -226 535 -53 L535 -53 Z " />
<glyph glyph-name="Agrave" unicode="&#xc0;" horiz-adv-x="723" d="M314 889 C314 889 419 889 419 889 C419 889 366 1039 366 1039 C366 1039 216 1039 216 1039 C216 1039 314 889 314 889 L314 889 Z M712 5 C712 5 711 5 711 5 C711 5 433 809 433 809 C433 809 430 809 430 809 C430 809 362 809 362 809 C362 809 299 809 299 809 C299 809 294 809 294 809 C293 808 293 808 293 806 C293 806 293 806 293 806 C293 806 292 804 292 804 C292 804 292 804 292 804 C292 804 9 2 9 2 C8 1 8 1 8 0 C8 0 80 0 80 0 C80 0 152 0 152 0 C152 0 152 1 152 1 C153 3 153 4 154 5 C154 5 154 5 154 5 C154 5 206 158 206 158 C206 158 522 158 522 158 C522 158 574 5 574 5 C574 5 574 5 574 5 C575 4 575 2 576 1 C576 1 576 0 576 0 C576 0 645 0 645 0 C645 0 713 0 713 0 C713 0 713 2 713 2 C713 2 712 5 712 5 L712 5 Z M242 262 C242 262 364 618 364 618 C364 618 513 184 513 184 C513 184 486 262 486 262 C486 262 242 262 242 262 L242 262 Z " />
<glyph glyph-name="Aacute" unicode="&#xc1;" horiz-adv-x="723" d="M314 889 C314 889 419 889 419 889 C419 889 516 1039 516 1039 C516 1039 366 1039 366 1039 C366 1039 314 889 314 889 L314 889 Z M712 5 C712 5 711 5 711 5 C711 5 433 809 433 809 C433 809 430 809 430 809 C430 809 362 809 362 809 C362 809 299 809 299 809 C299 809 294 809 294 809 C293 808 293 808 293 806 C293 806 293 806 293 806 C293 806 292 804 292 804 C292 804 292 804 292 804 C292 804 9 2 9 2 C8 1 8 1 8 0 C8 0 80 0 80 0 C80 0 152 0 152 0 C152 0 152 1 152 1 C153 3 153 4 154 5 C154 5 154 5 154 5 C154 5 206 158 206 158 C206 158 522 158 522 158 C522 158 574 5 574 5 C574 5 574 5 574 5 C575 4 575 2 576 1 C576 1 576 0 576 0 C576 0 645 0 645 0 C645 0 713 0 713 0 C713 0 713 2 713 2 C713 2 712 5 712 5 L712 5 Z M242 262 C242 262 364 618 364 618 C364 618 513 184 513 184 C513 184 486 262 486 262 C486 262 242 262 242 262 L242 262 Z " />
<glyph glyph-name="Acircumflex" unicode="&#xc2;" horiz-adv-x="723" d="M366 949 C366 949 431 889 431 889 C431 889 536 889 536 889 C536 889 424 1039 424 1039 C424 1039 308 1039 308 1039 C308 1039 196 889 196 889 C196 889 301 889 301 889 C301 889 366 949 366 949 L366 949 Z M712 5 C712 5 711 5 711 5 C711 5 433 809 433 809 C433 809 430 809 430 809 C430 809 362 809 362 809 C362 809 299 809 299 809 C299 809 294 809 294 809 C293 808 293 808 293 806 C293 806 293 806 293 806 C293 806 292 804 292 804 C292 804 292 804 292 804 C292 804 9 2 9 2 C8 1 8 1 8 0 C8 0 80 0 80 0 C80 0 152 0 152 0 C152 0 152 1 152 1 C153 3 153 4 154 5 C154 5 154 5 154 5 C154 5 206 158 206 158 C206 158 522 158 522 158 C522 158 574 5 574 5 C574 5 574 5 574 5 C575 4 575 2 576 1 C576 1 576 0 576 0 C576 0 645 0 645 0 C645 0 713 0 713 0 C713 0 713 2 713 2 C713 2 712 5 712 5 L712 5 Z M242 262 C242 262 364 618 364 618 C364 618 513 184 513 184 C513 184 486 262 486 262 C486 262 242 262 242 262 L242 262 Z " />
<glyph glyph-name="Atilde" unicode="&#xc3;" horiz-adv-x="723" d="M286 889 C286 945 290 959 307 959 C371 959 334 879 433 879 C512 879 531 911 531 1039 C531 1039 446 1039 446 1039 C446 982 442 968 425 968 C362 968 399 1049 299 1049 C221 1049 201 1017 201 889 C201 889 286 889 286 889 L286 889 Z M712 5 C712 5 711 5 711 5 C711 5 433 809 433 809 C433 809 430 809 430 809 C430 809 362 809 362 809 C362 809 299 809 299 809 C299 809 294 809 294 809 C293 808 293 808 293 806 C293 806 293 806 293 806 C293 806 292 804 292 804 C292 804 292 804 292 804 C292 804 9 2 9 2 C8 1 8 1 8 0 C8 0 80 0 80 0 C80 0 152 0 152 0 C152 0 152 1 152 1 C153 3 153 4 154 5 C154 5 154 5 154 5 C154 5 206 158 206 158 C206 158 522 158 522 158 C522 158 574 5 574 5 C574 5 574 5 574 5 C575 4 575 2 576 1 C576 1 576 0 576 0 C576 0 645 0 645 0 C645 0 713 0 713 0 C713 0 713 2 713 2 C713 2 712 5 712 5 L712 5 Z M242 262 C242 262 364 618 364 618 C364 618 513 184 513 184 C513 184 486 262 486 262 C486 262 242 262 242 262 L242 262 Z " />
<glyph glyph-name="Adieresis" unicode="&#xc4;" horiz-adv-x="723" d="M384 889 C384 889 509 889 509 889 C509 889 509 1014 509 1014 C509 1014 384 1014 384 1014 C384 1014 384 889 384 889 L384 889 Z M223 889 C223 889 348 889 348 889 C348 889 348 1014 348 1014 C348 1014 223 1014 223 1014 C223 1014 223 889 223 889 L223 889 Z M712 5 C712 5 711 5 711 5 C711 5 433 809 433 809 C433 809 430 809 430 809 C430 809 362 809 362 809 C362 809 299 809 299 809 C299 809 294 809 294 809 C293 808 293 808 293 806 C293 806 293 806 293 806 C293 806 292 804 292 804 C292 804 292 804 292 804 C292 804 9 2 9 2 C8 1 8 1 8 0 C8 0 80 0 80 0 C80 0 152 0 152 0 C152 0 152 1 152 1 C153 3 153 4 154 5 C154 5 154 5 154 5 C154 5 206 158 206 158 C206 158 522 158 522 158 C522 158 574 5 574 5 C574 5 574 5 574 5 C575 4 575 2 576 1 C576 1 576 0 576 0 C576 0 645 0 645 0 C645 0 713 0 713 0 C713 0 713 2 713 2 C713 2 712 5 712 5 L712 5 Z M242 262 C242 262 364 618 364 618 C364 618 513 184 513 184 C513 184 486 262 486 262 C486 262 242 262 242 262 L242 262 Z " />
<glyph glyph-name="Aring" unicode="&#xc5;" horiz-adv-x="723" d="M366 942 C340 942 337 946 337 974 C337 1001 342 1006 366 1006 C390 1006 395 1001 395 974 C395 946 392 942 366 942 L366 942 Z M280 974 C280 899 290 889 366 889 C442 889 452 899 452 974 C452 1045 438 1059 366 1059 C294 1059 280 1045 280 974 L280 974 Z M712 5 C712 5 711 5 711 5 C711 5 433 809 433 809 C433 809 430 809 430 809 C430 809 362 809 362 809 C362 809 299 809 299 809 C299 809 294 809 294 809 C293 808 293 808 293 806 C293 806 293 806 293 806 C293 806 292 804 292 804 C292 804 292 804 292 804 C292 804 9 2 9 2 C8 1 8 1 8 0 C8 0 80 0 80 0 C80 0 152 0 152 0 C152 0 152 1 152 1 C153 3 153 4 154 5 C154 5 154 5 154 5 C154 5 206 158 206 158 C206 158 522 158 522 158 C522 158 574 5 574 5 C574 5 574 5 574 5 C575 4 575 2 576 1 C576 1 576 0 576 0 C576 0 645 0 645 0 C645 0 713 0 713 0 C713 0 713 2 713 2 C713 2 712 5 712 5 L712 5 Z M242 262 C242 262 364 618 364 618 C364 618 513 184 513 184 C513 184 486 262 486 262 C486 262 242 262 242 262 L242 262 Z " />
<glyph glyph-name="Ccedilla" unicode="&#xc7;" horiz-adv-x="695" d="M657 163 C542 112 496 99 423 99 C236 99 189 184 189 404 C189 624 236 709 423 709 C488 709 534 699 657 659 C657 659 675 786 675 786 C673 787 672 787 670 788 C670 788 670 788 670 788 C670 788 670 788 670 788 C594 813 543 819 423 819 C126 819 52 703 52 404 C52 140 110 18 331 -5 C331 -5 304 -100 304 -100 C304 -100 340 -121 340 -121 C344 -107 350 -104 370 -104 C398 -104 405 -113 405 -150 C405 -186 398 -195 368 -195 C348 -195 340 -187 328 -154 C328 -154 281 -191 281 -191 C298 -238 316 -250 370 -250 C450 -250 470 -230 470 -150 C470 -67 452 -47 381 -47 C372 -47 365 -48 360 -50 C360 -50 372 -9 372 -9 C388 -10 405 -10 423 -10 C542 -10 592 -1 675 36 C675 36 657 163 657 163 L657 163 Z " />
<glyph glyph-name="Egrave" unicode="&#xc8;" horiz-adv-x="640" d="M279 889 C279 889 384 889 384 889 C384 889 331 1039 331 1039 C331 1039 181 1039 181 1039 C181 1039 279 889 279 889 L279 889 Z M590 55 C590 55 590 109 590 109 C590 110 590 110 588 109 C586 108 585 110 585 109 C585 109 215 109 215 109 C215 109 215 337 215 337 C215 337 550 337 550 337 C550 337 555 337 555 337 C555 337 555 390 555 390 C555 390 555 442 555 442 C555 442 553 442 553 442 C553 442 550 442 550 442 C550 442 215 442 215 442 C215 442 215 699 215 699 C215 699 570 699 570 699 C570 699 575 699 575 699 C575 699 575 754 575 754 C575 754 575 809 575 809 C575 809 215 809 215 809 C215 809 214 809 214 809 C214 809 151 809 151 809 C151 809 87 809 87 809 C87 809 87 804 87 804 C87 804 87 5 87 5 C87 5 87 0 87 0 C87 0 151 0 151 0 C151 0 214 0 214 0 C214 0 215 0 215 0 C215 0 590 0 590 0 C590 0 590 55 590 55 L590 55 Z " />
<glyph glyph-name="Eacute" unicode="&#xc9;" horiz-adv-x="640" d="M279 889 C279 889 384 889 384 889 C384 889 481 1039 481 1039 C481 1039 331 1039 331 1039 C331 1039 279 889 279 889 L279 889 Z M590 55 C590 55 590 109 590 109 C590 110 590 110 588 109 C586 108 585 110 585 109 C585 109 215 109 215 109 C215 109 215 337 215 337 C215 337 550 337 550 337 C550 337 555 337 555 337 C555 337 555 390 555 390 C555 390 555 442 555 442 C555 442 553 442 553 442 C553 442 550 442 550 442 C550 442 215 442 215 442 C215 442 215 699 215 699 C215 699 570 699 570 699 C570 699 575 699 575 699 C575 699 575 754 575 754 C575 754 575 809 575 809 C575 809 215 809 215 809 C215 809 214 809 214 809 C214 809 151 809 151 809 C151 809 87 809 87 809 C87 809 87 804 87 804 C87 804 87 5 87 5 C87 5 87 0 87 0 C87 0 151 0 151 0 C151 0 214 0 214 0 C214 0 215 0 215 0 C215 0 590 0 590 0 C590 0 590 55 590 55 L590 55 Z " />
<glyph glyph-name="Ecircumflex" unicode="&#xca;" horiz-adv-x="640" d="M331 949 C331 949 396 889 396 889 C396 889 501 889 501 889 C501 889 389 1039 389 1039 C389 1039 273 1039 273 1039 C273 1039 161 889 161 889 C161 889 266 889 266 889 C266 889 331 949 331 949 L331 949 Z M590 55 C590 55 590 109 590 109 C590 110 590 110 588 109 C586 108 585 110 585 109 C585 109 215 109 215 109 C215 109 215 337 215 337 C215 337 550 337 550 337 C550 337 555 337 555 337 C555 337 555 390 555 390 C555 390 555 442 555 442 C555 442 553 442 553 442 C553 442 550 442 550 442 C550 442 215 442 215 442 C215 442 215 699 215 699 C215 699 570 699 570 699 C570 699 575 699 575 699 C575 699 575 754 575 754 C575 754 575 809 575 809 C575 809 215 809 215 809 C215 809 214 809 214 809 C214 809 151 809 151 809 C151 809 87 809 87 809 C87 809 87 804 87 804 C87 804 87 5 87 5 C87 5 87 0 87 0 C87 0 151 0 151 0 C151 0 214 0 214 0 C214 0 215 0 215 0 C215 0 590 0 590 0 C590 0 590 55 590 55 L590 55 Z " />
<glyph glyph-name="Edieresis" unicode="&#xcb;" horiz-adv-x="640" d="M349 889 C349 889 474 889 474 889 C474 889 474 1014 474 1014 C474 1014 349 1014 349 1014 C349 1014 349 889 349 889 L349 889 Z M188 889 C188 889 313 889 313 889 C313 889 313 1014 313 1014 C313 1014 188 1014 188 1014 C188 1014 188 889 188 889 L188 889 Z M590 55 C590 55 590 109 590 109 C590 110 590 110 588 109 C586 108 585 110 585 109 C585 109 215 109 215 109 C215 109 215 337 215 337 C215 337 550 337 550 337 C550 337 555 337 555 337 C555 337 555 390 555 390 C555 390 555 442 555 442 C555 442 553 442 553 442 C553 442 550 442 550 442 C550 442 215 442 215 442 C215 442 215 699 215 699 C215 699 570 699 570 699 C570 699 575 699 575 699 C575 699 575 754 575 754 C575 754 575 809 575 809 C575 809 215 809 215 809 C215 809 214 809 214 809 C214 809 151 809 151 809 C151 809 87 809 87 809 C87 809 87 804 87 804 C87 804 87 5 87 5 C87 5 87 0 87 0 C87 0 151 0 151 0 C151 0 214 0 214 0 C214 0 215 0 215 0 C215 0 590 0 590 0 C590 0 590 55 590 55 L590 55 Z " />
<glyph glyph-name="Igrave" unicode="&#xcc;" horiz-adv-x="301" d="M100 889 C100 889 205 889 205 889 C205 889 152 1039 152 1039 C152 1039 2 1039 2 1039 C2 1039 100 889 100 889 L100 889 Z M152 0 C152 0 216 0 216 0 C216 0 216 5 216 5 C216 5 216 804 216 804 C216 804 216 809 216 809 C216 809 152 809 152 809 C152 809 88 809 88 809 C88 809 88 804 88 804 C88 804 88 5 88 5 C88 5 88 0 88 0 C88 0 152 0 152 0 L152 0 Z " />
<glyph glyph-name="Iacute" unicode="&#xcd;" horiz-adv-x="301" d="M100 889 C100 889 205 889 205 889 C205 889 302 1039 302 1039 C302 1039 152 1039 152 1039 C152 1039 100 889 100 889 L100 889 Z M152 0 C152 0 216 0 216 0 C216 0 216 5 216 5 C216 5 216 804 216 804 C216 804 216 809 216 809 C216 809 152 809 152 809 C152 809 88 809 88 809 C88 809 88 804 88 804 C88 804 88 5 88 5 C88 5 88 0 88 0 C88 0 152 0 152 0 L152 0 Z " />
<glyph glyph-name="Icircumflex" unicode="&#xce;" horiz-adv-x="301" d="M152 949 C152 949 217 889 217 889 C217 889 322 889 322 889 C322 889 210 1039 210 1039 C210 1039 94 1039 94 1039 C94 1039 -18 889 -18 889 C-18 889 87 889 87 889 C87 889 152 949 152 949 L152 949 Z M152 0 C152 0 216 0 216 0 C216 0 216 5 216 5 C216 5 216 804 216 804 C216 804 216 809 216 809 C216 809 152 809 152 809 C152 809 88 809 88 809 C88 809 88 804 88 804 C88 804 88 5 88 5 C88 5 88 0 88 0 C88 0 152 0 152 0 L152 0 Z " />
<glyph glyph-name="Idieresis" unicode="&#xcf;" horiz-adv-x="301" d="M170 889 C170 889 295 889 295 889 C295 889 295 1014 295 1014 C295 1014 170 1014 170 1014 C170 1014 170 889 170 889 L170 889 Z M9 889 C9 889 134 889 134 889 C134 889 134 1014 134 1014 C134 1014 9 1014 9 1014 C9 1014 9 889 9 889 L9 889 Z M152 0 C152 0 216 0 216 0 C216 0 216 5 216 5 C216 5 216 804 216 804 C216 804 216 809 216 809 C216 809 152 809 152 809 C152 809 88 809 88 809 C88 809 88 804 88 804 C88 804 88 5 88 5 C88 5 88 0 88 0 C88 0 152 0 152 0 L152 0 Z " />
<glyph glyph-name="Ntilde" unicode="&#xd1;" horiz-adv-x="752" d="M297 889 C297 945 301 959 317 959 C381 959 344 879 444 879 C522 879 542 911 542 1039 C542 1039 457 1039 457 1039 C457 982 453 968 436 968 C372 968 409 1049 310 1049 C231 1049 212 1017 212 889 C212 889 297 889 297 889 L297 889 Z M667 804 C667 804 668 804 668 804 C667 803 667 804 667 804 L667 804 Z M533 804 C533 804 533 194 533 194 C533 194 228 809 228 809 C228 809 220 809 220 809 C220 809 153 809 153 809 C153 809 85 809 85 809 C85 809 85 804 85 804 C85 804 85 5 85 5 C85 5 85 0 85 0 C85 0 153 0 153 0 C153 0 220 0 220 0 C220 0 220 3 220 3 C220 3 220 5 220 5 C220 5 220 537 220 537 C220 537 487 0 487 0 C487 0 533 0 533 0 C533 0 629 0 629 0 C629 0 668 0 668 0 C668 0 668 804 668 804 C668 804 668 806 668 806 C668 806 668 809 668 809 C668 809 601 809 601 809 C601 809 533 809 533 809 C533 809 533 804 533 804 L533 804 Z " />
<glyph glyph-name="Ograve" unicode="&#xd2;" horiz-adv-x="814" d="M355 889 C355 889 460 889 460 889 C460 889 408 1039 408 1039 C408 1039 258 1039 258 1039 C258 1039 355 889 355 889 L355 889 Z M408 99 C237 99 194 160 194 404 C194 636 245 709 408 709 C570 709 621 636 621 404 C621 160 579 99 408 99 L408 99 Z M57 404 C57 72 127 -10 408 -10 C689 -10 759 72 759 404 C759 720 675 819 408 819 C141 819 57 720 57 404 L57 404 Z " />
<glyph glyph-name="Oacute" unicode="&#xd3;" horiz-adv-x="814" d="M355 889 C355 889 460 889 460 889 C460 889 558 1039 558 1039 C558 1039 408 1039 408 1039 C408 1039 355 889 355 889 L355 889 Z M408 99 C237 99 194 160 194 404 C194 636 245 709 408 709 C570 709 621 636 621 404 C621 160 579 99 408 99 L408 99 Z M57 404 C57 72 127 -10 408 -10 C689 -10 759 72 759 404 C759 720 675 819 408 819 C141 819 57 720 57 404 L57 404 Z " />
<glyph glyph-name="Ocircumflex" unicode="&#xd4;" horiz-adv-x="814" d="M408 949 C408 949 473 889 473 889 C473 889 578 889 578 889 C578 889 466 1039 466 1039 C466 1039 350 1039 350 1039 C350 1039 238 889 238 889 C238 889 343 889 343 889 C343 889 408 949 408 949 L408 949 Z M408 99 C237 99 194 160 194 404 C194 636 245 709 408 709 C570 709 621 636 621 404 C621 160 579 99 408 99 L408 99 Z M57 404 C57 72 127 -10 408 -10 C689 -10 759 72 759 404 C759 720 675 819 408 819 C141 819 57 720 57 404 L57 404 Z " />
<glyph glyph-name="Otilde" unicode="&#xd5;" horiz-adv-x="814" d="M328 889 C328 945 332 959 349 959 C412 959 375 879 475 879 C553 879 573 911 573 1039 C573 1039 488 1039 488 1039 C488 982 484 968 467 968 C403 968 440 1049 341 1049 C262 1049 243 1017 243 889 C243 889 328 889 328 889 L328 889 Z M408 99 C237 99 194 160 194 404 C194 636 245 709 408 709 C570 709 621 636 621 404 C621 160 579 99 408 99 L408 99 Z M57 404 C57 72 127 -10 408 -10 C689 -10 759 72 759 404 C759 720 675 819 408 819 C141 819 57 720 57 404 L57 404 Z " />
<glyph glyph-name="Odieresis" unicode="&#xd6;" horiz-adv-x="814" d="M426 889 C426 889 551 889 551 889 C551 889 551 1014 551 1014 C551 1014 426 1014 426 1014 C426 1014 426 889 426 889 L426 889 Z M265 889 C265 889 390 889 390 889 C390 889 390 1014 390 1014 C390 1014 265 1014 265 1014 C265 1014 265 889 265 889 L265 889 Z M408 99 C237 99 194 160 194 404 C194 636 245 709 408 709 C570 709 621 636 621 404 C621 160 579 99 408 99 L408 99 Z M57 404 C57 72 127 -10 408 -10 C689 -10 759 72 759 404 C759 720 675 819 408 819 C141 819 57 720 57 404 L57 404 Z " />
<glyph glyph-name="Oslash" unicode="&#xd8;" horiz-adv-x="814" d="M408 99 C331 99 280 111 247 147 C247 147 596 604 596 604 C614 557 621 492 621 404 C621 160 579 99 408 99 C408 99 408 99 408 99 L408 99 Z M57 404 C57 242 74 140 123 77 C123 77 57 -10 57 -10 C57 -10 128 -10 128 -10 C128 -10 165 39 165 39 C219 3 297 -10 408 -10 C689 -10 759 72 759 404 C759 558 739 661 688 725 C688 725 759 819 759 819 C759 819 688 819 688 819 C688 819 646 764 646 764 C592 803 514 819 408 819 C141 819 57 720 57 404 C57 404 57 404 57 404 L57 404 Z M217 200 C200 246 194 312 194 404 C194 636 245 709 408 709 C481 709 531 694 565 657 C565 657 217 200 217 200 L217 200 Z " />
<glyph glyph-name="Ugrave" unicode="&#xd9;" horiz-adv-x="732" d="M314 879 C314 879 419 879 419 879 C419 879 366 1029 366 1029 C366 1029 216 1029 216 1029 C216 1029 314 879 314 879 L314 879 Z M80 804 C80 804 80 312 80 312 C80 28 114 -10 366 -10 C619 -10 653 28 653 312 C653 312 653 804 653 804 C653 804 653 809 653 809 C653 809 586 809 586 809 C586 809 519 809 519 809 C519 809 519 804 519 804 C519 804 519 336 519 336 C519 140 501 114 366 114 C227 114 208 140 208 335 C208 335 208 804 208 804 C208 804 208 809 208 809 C208 809 144 809 144 809 C144 809 80 809 80 809 C80 809 80 804 80 804 L80 804 Z " />
<glyph glyph-name="Uacute" unicode="&#xda;" horiz-adv-x="732" d="M314 879 C314 879 419 879 419 879 C419 879 516 1029 516 1029 C516 1029 366 1029 366 1029 C366 1029 314 879 314 879 L314 879 Z M80 804 C80 804 80 312 80 312 C80 28 114 -10 366 -10 C619 -10 653 28 653 312 C653 312 653 804 653 804 C653 804 653 809 653 809 C653 809 586 809 586 809 C586 809 519 809 519 809 C519 809 519 804 519 804 C519 804 519 336 519 336 C519 140 501 114 366 114 C227 114 208 140 208 335 C208 335 208 804 208 804 C208 804 208 809 208 809 C208 809 144 809 144 809 C144 809 80 809 80 809 C80 809 80 804 80 804 L80 804 Z " />
<glyph glyph-name="Ucircumflex" unicode="&#xdb;" horiz-adv-x="732" d="M366 939 C366 939 431 879 431 879 C431 879 536 879 536 879 C536 879 424 1029 424 1029 C424 1029 308 1029 308 1029 C308 1029 196 879 196 879 C196 879 301 879 301 879 C301 879 366 939 366 939 L366 939 Z M80 804 C80 804 80 312 80 312 C80 28 114 -10 366 -10 C619 -10 653 28 653 312 C653 312 653 804 653 804 C653 804 653 809 653 809 C653 809 586 809 586 809 C586 809 519 809 519 809 C519 809 519 804 519 804 C519 804 519 336 519 336 C519 140 501 114 366 114 C227 114 208 140 208 335 C208 335 208 804 208 804 C208 804 208 809 208 809 C208 809 144 809 144 809 C144 809 80 809 80 809 C80 809 80 804 80 804 L80 804 Z " />
<glyph glyph-name="Udieresis" unicode="&#xdc;" horiz-adv-x="732" d="M384 879 C384 879 509 879 509 879 C509 879 509 1004 509 1004 C509 1004 384 1004 384 1004 C384 1004 384 879 384 879 L384 879 Z M224 879 C224 879 349 879 349 879 C349 879 349 1004 349 1004 C349 1004 224 1004 224 1004 C224 1004 224 879 224 879 L224 879 Z M80 804 C80 804 80 312 80 312 C80 28 114 -10 366 -10 C619 -10 653 28 653 312 C653 312 653 804 653 804 C653 804 653 809 653 809 C653 809 586 809 586 809 C586 809 519 809 519 809 C519 809 519 804 519 804 C519 804 519 336 519 336 C519 140 501 114 366 114 C227 114 208 140 208 335 C208 335 208 804 208 804 C208 804 208 809 208 809 C208 809 144 809 144 809 C144 809 80 809 80 809 C80 809 80 804 80 804 L80 804 Z " />
<glyph glyph-name="Yacute" unicode="&#xdd;" horiz-adv-x="627" d="M265 889 C265 889 370 889 370 889 C370 889 468 1039 468 1039 C468 1039 318 1039 318 1039 C318 1039 265 889 265 889 L265 889 Z M253 5 C253 5 253 0 253 0 C253 0 317 0 317 0 C317 0 381 0 381 0 C381 0 381 5 381 5 C381 5 381 347 381 347 C381 347 615 804 615 804 C617 803 618 808 618 809 C618 809 552 809 552 809 C552 809 486 809 486 809 C486 809 315 469 315 469 C315 469 146 804 146 804 C146 804 146 804 146 804 C145 806 144 808 143 809 C143 809 80 809 80 809 C80 809 18 809 18 809 C17 808 17 808 19 806 C19 806 20 804 20 804 C20 804 21 804 21 804 C21 804 253 349 253 349 C253 349 253 5 253 5 L253 5 Z " />
<glyph glyph-name="Thorn" unicode="&#xde;" horiz-adv-x="624" d="M151 0 C151 0 215 0 215 0 C215 0 215 5 215 5 C215 5 215 162 215 162 C215 162 326 162 326 162 C558 162 589 191 589 404 C589 618 558 647 326 647 C326 647 215 647 215 647 C215 647 215 804 215 804 C215 804 215 809 215 809 C215 809 151 809 151 809 C151 809 87 809 87 809 C87 809 87 804 87 804 C87 804 87 5 87 5 C87 5 87 0 87 0 C87 0 151 0 151 0 L151 0 Z M215 266 C215 266 215 543 215 543 C215 543 320 543 320 543 C444 543 461 527 461 404 C461 282 446 266 331 266 C331 266 215 266 215 266 L215 266 Z " />
<glyph glyph-name="agrave" unicode="&#xe0;" horiz-adv-x="550" d="M218 630 C218 630 323 630 323 630 C323 630 271 780 271 780 C271 780 121 780 121 780 C121 780 218 630 218 630 L218 630 Z M67 528 C67 528 124 429 124 429 C169 455 198 461 271 461 C342 461 360 459 360 407 C360 407 360 380 360 380 C360 311 327 308 193 285 C70 263 40 235 40 142 C40 20 46 -10 206 -10 C281 -10 328 -12 357 11 C363 -11 395 0 520 0 C520 0 520 85 520 85 C462 85 475 78 475 110 C475 110 475 358 475 358 C475 552 434 560 271 560 C152 560 111 554 67 528 L67 528 Z M360 228 C360 228 360 163 360 163 C355 69 327 73 243 73 C158 73 155 88 155 146 C155 181 177 193 264 208 C306 215 337 220 360 228 L360 228 Z " />
<glyph glyph-name="aacute" unicode="&#xe1;" horiz-adv-x="550" d="M218 630 C218 630 323 630 323 630 C323 630 421 780 421 780 C421 780 271 780 271 780 C271 780 218 630 218 630 L218 630 Z M67 528 C67 528 124 429 124 429 C169 455 198 461 271 461 C342 461 360 459 360 407 C360 407 360 380 360 380 C360 311 327 308 193 285 C70 263 40 235 40 142 C40 20 46 -10 206 -10 C281 -10 328 -12 357 11 C363 -11 395 0 520 0 C520 0 520 85 520 85 C462 85 475 78 475 110 C475 110 475 358 475 358 C475 552 434 560 271 560 C152 560 111 554 67 528 L67 528 Z M360 228 C360 228 360 163 360 163 C355 69 327 73 243 73 C158 73 155 88 155 146 C155 181 177 193 264 208 C306 215 337 220 360 228 L360 228 Z " />
<glyph glyph-name="acircumflex" unicode="&#xe2;" horiz-adv-x="550" d="M271 690 C271 690 336 630 336 630 C336 630 441 630 441 630 C441 630 329 780 329 780 C329 780 213 780 213 780 C213 780 101 630 101 630 C101 630 206 630 206 630 C206 630 271 690 271 690 L271 690 Z M67 528 C67 528 124 429 124 429 C169 455 198 461 271 461 C342 461 360 459 360 407 C360 407 360 380 360 380 C360 311 327 308 193 285 C70 263 40 235 40 142 C40 20 46 -10 206 -10 C281 -10 328 -12 357 11 C363 -11 395 0 520 0 C520 0 520 85 520 85 C462 85 475 78 475 110 C475 110 475 358 475 358 C475 552 434 560 271 560 C152 560 111 554 67 528 L67 528 Z M360 228 C360 228 360 163 360 163 C355 69 327 73 243 73 C158 73 155 88 155 146 C155 181 177 193 264 208 C306 215 337 220 360 228 L360 228 Z " />
<glyph glyph-name="atilde" unicode="&#xe3;" horiz-adv-x="648" d="M234 630 C234 687 238 701 255 701 C319 701 281 620 381 620 C460 620 479 652 479 780 C479 780 394 780 394 780 C394 724 390 710 373 710 C310 710 347 790 247 790 C169 790 149 758 149 630 C149 630 234 630 234 630 L234 630 Z M50 275 C50 47 101 -10 306 -10 C382 -10 432 2 464 35 C464 35 464 0 464 0 C464 0 579 0 579 0 C579 0 579 550 579 550 C579 550 464 550 464 550 C464 550 464 515 464 515 C432 548 382 560 306 560 C101 560 50 503 50 275 L50 275 Z M464 275 C464 126 441 89 346 89 C209 89 175 126 175 275 C175 424 209 461 346 461 C441 461 464 424 464 275 L464 275 Z " />
<glyph glyph-name="adieresis" unicode="&#xe4;" horiz-adv-x="550" d="M318 630 C318 630 443 630 443 630 C443 630 443 755 443 755 C443 755 318 755 318 755 C318 755 318 630 318 630 L318 630 Z M98 630 C98 630 223 630 223 630 C223 630 223 755 223 755 C223 755 98 755 98 755 C98 755 98 630 98 630 L98 630 Z M67 528 C67 528 124 429 124 429 C169 455 198 461 271 461 C342 461 360 459 360 407 C360 407 360 380 360 380 C360 311 327 308 193 285 C70 263 40 235 40 142 C40 20 46 -10 206 -10 C281 -10 328 -12 357 11 C363 -11 395 0 520 0 C520 0 520 85 520 85 C462 85 475 78 475 110 C475 110 475 358 475 358 C475 552 434 560 271 560 C152 560 111 554 67 528 L67 528 Z M360 228 C360 228 360 163 360 163 C355 69 327 73 243 73 C158 73 155 88 155 146 C155 181 177 193 264 208 C306 215 337 220 360 228 L360 228 Z " />
<glyph glyph-name="aring" unicode="&#xe5;" horiz-adv-x="550" d="M271 683 C245 683 242 687 242 715 C242 742 247 747 271 747 C295 747 300 742 300 715 C300 687 297 683 271 683 L271 683 Z M185 715 C185 640 195 630 271 630 C347 630 357 640 357 715 C357 787 343 800 271 800 C199 800 185 787 185 715 L185 715 Z M67 528 C67 528 124 429 124 429 C169 455 198 461 271 461 C342 461 360 459 360 407 C360 407 360 380 360 380 C360 311 327 308 193 285 C70 263 40 235 40 142 C40 20 46 -10 206 -10 C281 -10 328 -12 357 11 C363 -11 395 0 520 0 C520 0 520 85 520 85 C462 85 475 78 475 110 C475 110 475 358 475 358 C475 552 434 560 271 560 C152 560 111 554 67 528 L67 528 Z M360 228 C360 228 360 163 360 163 C355 69 327 73 243 73 C158 73 155 88 155 146 C155 181 177 193 264 208 C306 215 337 220 360 228 L360 228 Z " />
<glyph glyph-name="ccedilla" unicode="&#xe7;" horiz-adv-x="539" d="M464 128 C406 97 378 89 319 89 C204 89 175 104 175 275 C175 451 204 466 319 466 C354 466 377 457 465 422 C465 422 509 531 509 531 C450 554 431 560 319 560 C104 560 50 538 50 275 C50 44 92 -1 247 -9 C247 -9 220 -100 220 -100 C220 -100 257 -121 257 -121 C257 -121 259 -115 259 -115 C262 -106 269 -104 287 -104 C315 -104 322 -113 322 -150 C322 -186 314 -195 284 -195 C264 -195 256 -187 244 -154 C244 -154 197 -191 197 -191 C214 -238 232 -250 287 -250 C367 -250 387 -230 387 -150 C387 -67 369 -47 297 -47 C289 -47 282 -48 277 -49 C277 -49 289 -10 289 -10 C298 -10 309 -10 319 -10 C432 -10 470 -5 509 16 C509 16 464 128 464 128 L464 128 Z " />
<glyph glyph-name="egrave" unicode="&#xe8;" horiz-adv-x="547" d="M239 630 C239 630 344 630 344 630 C344 630 292 780 292 780 C292 780 142 780 142 780 C142 780 239 630 239 630 L239 630 Z M463 124 C420 96 384 89 284 89 C202 89 178 102 175 247 C175 247 419 247 419 247 C419 247 534 247 534 247 C534 498 525 560 292 560 C98 560 50 538 50 275 C50 12 96 -10 284 -10 C438 -10 484 -5 517 17 C517 17 463 124 463 124 L463 124 Z M418 331 C418 331 176 331 176 331 C181 454 209 466 292 466 C392 466 413 437 418 331 C418 331 418 331 418 331 L418 331 Z " />
<glyph glyph-name="eacute" unicode="&#xe9;" horiz-adv-x="547" d="M239 630 C239 630 344 630 344 630 C344 630 442 780 442 780 C442 780 292 780 292 780 C292 780 239 630 239 630 L239 630 Z M463 124 C420 96 384 89 284 89 C202 89 178 102 175 247 C175 247 419 247 419 247 C419 247 534 247 534 247 C534 498 525 560 292 560 C98 560 50 538 50 275 C50 12 96 -10 284 -10 C438 -10 484 -5 517 17 C517 17 463 124 463 124 L463 124 Z M418 331 C418 331 176 331 176 331 C181 454 209 466 292 466 C392 466 413 437 418 331 C418 331 418 331 418 331 L418 331 Z " />
<glyph glyph-name="ecircumflex" unicode="&#xea;" horiz-adv-x="547" d="M292 690 C292 690 357 630 357 630 C357 630 462 630 462 630 C462 630 350 780 350 780 C350 780 234 780 234 780 C234 780 122 630 122 630 C122 630 227 630 227 630 C227 630 292 690 292 690 L292 690 Z M463 124 C420 96 384 89 284 89 C202 89 178 102 175 247 C175 247 419 247 419 247 C419 247 534 247 534 247 C534 498 525 560 292 560 C98 560 50 538 50 275 C50 12 96 -10 284 -10 C438 -10 484 -5 517 17 C517 17 463 124 463 124 L463 124 Z M418 331 C418 331 176 331 176 331 C181 454 209 466 292 466 C392 466 413 437 418 331 C418 331 418 331 418 331 L418 331 Z " />
<glyph glyph-name="edieresis" unicode="&#xeb;" horiz-adv-x="547" d="M309 630 C309 630 434 630 434 630 C434 630 434 755 434 755 C434 755 309 755 309 755 C309 755 309 630 309 630 L309 630 Z M149 630 C149 630 274 630 274 630 C274 630 274 755 274 755 C274 755 149 755 149 755 C149 755 149 630 149 630 L149 630 Z M463 124 C420 96 384 89 284 89 C202 89 178 102 175 247 C175 247 419 247 419 247 C419 247 534 247 534 247 C534 498 525 560 292 560 C98 560 50 538 50 275 C50 12 96 -10 284 -10 C438 -10 484 -5 517 17 C517 17 463 124 463 124 L463 124 Z M418 331 C418 331 176 331 176 331 C181 454 209 466 292 466 C392 466 413 437 418 331 C418 331 418 331 418 331 L418 331 Z " />
<glyph glyph-name="igrave" unicode="&#xec;" horiz-adv-x="197" d="M12 545 C12 545 13 545 13 545 C13 545 13 5 13 5 C13 5 12 5 12 5 C12 5 12 0 12 0 C12 0 13 0 13 0 C13 0 70 0 70 0 C70 0 128 0 128 0 C128 0 128 5 128 5 C128 5 128 550 128 550 C128 550 70 550 70 550 C47 551 35 551 12 550 C12 550 12 545 12 545 L12 545 Z M18 630 C18 630 123 630 123 630 C123 630 70 780 70 780 C70 780 -80 780 -80 780 C-80 780 18 630 18 630 L18 630 Z " />
<glyph glyph-name="iacute" unicode="&#xed;" horiz-adv-x="197" d="M12 545 C12 545 13 545 13 545 C13 545 13 5 13 5 C13 5 12 5 12 5 C12 5 12 0 12 0 C12 0 13 0 13 0 C13 0 70 0 70 0 C70 0 128 0 128 0 C128 0 128 5 128 5 C128 5 128 550 128 550 C128 550 70 550 70 550 C47 551 35 551 12 550 C12 550 12 545 12 545 L12 545 Z M18 630 C18 630 123 630 123 630 C123 630 220 780 220 780 C220 780 70 780 70 780 C70 780 18 630 18 630 L18 630 Z " />
<glyph glyph-name="icircumflex" unicode="&#xee;" horiz-adv-x="197" d="M12 545 C12 545 13 545 13 545 C13 545 13 5 13 5 C13 5 12 5 12 5 C12 5 12 0 12 0 C12 0 13 0 13 0 C13 0 70 0 70 0 C70 0 128 0 128 0 C128 0 128 5 128 5 C128 5 128 550 128 550 C128 550 70 550 70 550 C47 551 35 551 12 550 C12 550 12 545 12 545 L12 545 Z M70 690 C70 690 135 630 135 630 C135 630 240 630 240 630 C240 630 128 780 128 780 C128 780 12 780 12 780 C12 780 -100 630 -100 630 C-100 630 5 630 5 630 C5 630 70 690 70 690 L70 690 Z " />
<glyph glyph-name="idieresis" unicode="&#xef;" horiz-adv-x="197" d="M12 545 C12 545 13 545 13 545 C13 545 13 5 13 5 C13 5 12 5 12 5 C12 5 12 0 12 0 C12 0 13 0 13 0 C13 0 70 0 70 0 C70 0 128 0 128 0 C128 0 128 5 128 5 C128 5 128 550 128 550 C128 550 70 550 70 550 C47 551 35 551 12 550 C12 550 12 545 12 545 L12 545 Z M118 630 C118 630 243 630 243 630 C243 630 243 755 243 755 C243 755 118 755 118 755 C118 755 118 630 118 630 L118 630 Z M-102 630 C-102 630 23 630 23 630 C23 630 23 755 23 755 C23 755 -102 755 -102 755 C-102 755 -102 630 -102 630 L-102 630 Z " />
<glyph glyph-name="ntilde" unicode="&#xf1;" horiz-adv-x="550" d="M198 630 C198 687 202 701 218 701 C282 701 245 620 345 620 C423 620 443 652 443 780 C443 780 358 780 358 780 C358 724 354 710 337 710 C273 710 310 790 211 790 C132 790 113 758 113 630 C113 630 198 630 198 630 L198 630 Z M428 0 C428 0 485 0 485 0 C485 0 485 5 485 5 C485 5 485 345 485 345 C485 530 455 555 332 555 C259 555 213 545 185 517 C185 517 185 540 185 540 C185 540 185 550 185 550 C185 550 128 550 128 550 C105 551 93 551 70 550 C70 550 70 545 70 545 C70 545 70 5 70 5 C70 5 70 0 70 0 C70 0 128 0 128 0 C128 0 185 0 185 0 C185 0 185 5 185 5 C185 5 185 350 185 350 C185 428 205 447 286 447 C353 447 370 435 370 345 C370 345 370 5 370 5 C370 5 370 0 370 0 C370 0 428 0 428 0 L428 0 Z " />
<glyph glyph-name="ograve" unicode="&#xf2;" horiz-adv-x="590" d="M242 630 C242 630 347 630 347 630 C347 630 295 780 295 780 C295 780 145 780 145 780 C145 780 242 630 242 630 L242 630 Z M295 79 C184 79 175 118 175 275 C175 456 199 471 295 471 C406 471 415 432 415 275 C415 94 391 79 295 79 L295 79 Z M50 275 C50 47 69 -10 295 -10 C491 -10 540 12 540 275 C540 503 521 560 295 560 C99 560 50 538 50 275 L50 275 Z " />
<glyph glyph-name="oacute" unicode="&#xf3;" horiz-adv-x="590" d="M242 630 C242 630 347 630 347 630 C347 630 445 780 445 780 C445 780 295 780 295 780 C295 780 242 630 242 630 L242 630 Z M295 79 C184 79 175 118 175 275 C175 456 199 471 295 471 C406 471 415 432 415 275 C415 94 391 79 295 79 L295 79 Z M50 275 C50 47 69 -10 295 -10 C491 -10 540 12 540 275 C540 503 521 560 295 560 C99 560 50 538 50 275 L50 275 Z " />
<glyph glyph-name="ocircumflex" unicode="&#xf4;" horiz-adv-x="590" d="M295 690 C295 690 360 630 360 630 C360 630 465 630 465 630 C465 630 353 780 353 780 C353 780 237 780 237 780 C237 780 125 630 125 630 C125 630 230 630 230 630 C230 630 295 690 295 690 L295 690 Z M295 79 C184 79 175 118 175 275 C175 456 199 471 295 471 C406 471 415 432 415 275 C415 94 391 79 295 79 L295 79 Z M50 275 C50 47 69 -10 295 -10 C491 -10 540 12 540 275 C540 503 521 560 295 560 C99 560 50 538 50 275 L50 275 Z " />
<glyph glyph-name="otilde" unicode="&#xf5;" horiz-adv-x="590" d="M215 630 C215 687 219 701 236 701 C299 701 262 620 362 620 C440 620 460 652 460 780 C460 780 375 780 375 780 C375 724 371 710 354 710 C290 710 328 790 228 790 C149 790 130 758 130 630 C130 630 215 630 215 630 L215 630 Z M295 79 C184 79 175 118 175 275 C175 456 199 471 295 471 C406 471 415 432 415 275 C415 94 391 79 295 79 L295 79 Z M50 275 C50 47 69 -10 295 -10 C491 -10 540 12 540 275 C540 503 521 560 295 560 C99 560 50 538 50 275 L50 275 Z " />
<glyph glyph-name="odieresis" unicode="&#xf6;" horiz-adv-x="590" d="M313 630 C313 630 438 630 438 630 C438 630 438 755 438 755 C438 755 313 755 313 755 C313 755 313 630 313 630 L313 630 Z M152 630 C152 630 277 630 277 630 C277 630 277 755 277 755 C277 755 152 755 152 755 C152 755 152 630 152 630 L152 630 Z M295 79 C184 79 175 118 175 275 C175 456 199 471 295 471 C406 471 415 432 415 275 C415 94 391 79 295 79 L295 79 Z M50 275 C50 47 69 -10 295 -10 C491 -10 540 12 540 275 C540 503 521 560 295 560 C99 560 50 538 50 275 L50 275 Z " />
<glyph glyph-name="oslash" unicode="&#xf8;" horiz-adv-x="590" d="M295 79 C242 79 212 88 196 114 C196 114 409 391 409 391 C414 362 415 325 415 275 C415 94 391 79 295 79 C295 79 295 79 295 79 L295 79 Z M50 275 C50 157 55 85 91 43 C91 43 50 -10 50 -10 C50 -10 100 -10 100 -10 C100 -10 122 18 122 18 C158 -2 213 -10 295 -10 C491 -10 540 12 540 275 C540 393 535 465 499 507 C499 507 540 560 540 560 C540 560 490 560 490 560 C490 560 468 532 468 532 C432 552 377 560 295 560 C99 560 50 538 50 275 L50 275 Z M181 159 C176 188 175 225 175 275 C175 456 199 471 295 471 C348 471 378 462 394 436 C394 436 181 159 181 159 L181 159 Z " />
<glyph glyph-name="ugrave" unicode="&#xf9;" horiz-adv-x="550" d="M220 630 C220 630 325 630 325 630 C325 630 273 780 273 780 C273 780 123 780 123 780 C123 780 220 630 220 630 L220 630 Z M365 545 C365 545 366 545 366 545 C366 545 366 217 366 217 C366 122 346 99 265 99 C176 99 180 111 180 200 C180 200 180 550 180 550 C180 550 123 550 123 550 C100 551 88 551 65 550 C65 550 65 545 65 545 C65 545 65 200 65 200 C65 15 58 -10 227 -10 C298 -10 341 2 366 39 C366 39 366 10 366 10 C366 10 366 0 366 0 C366 0 423 0 423 0 C423 0 481 0 481 0 C481 0 481 5 481 5 C481 5 481 10 481 10 C481 10 481 550 481 550 C481 550 423 550 423 550 C400 551 388 551 365 550 C365 550 365 545 365 545 L365 545 Z " />
<glyph glyph-name="uacute" unicode="&#xfa;" horiz-adv-x="550" d="M220 630 C220 630 325 630 325 630 C325 630 423 780 423 780 C423 780 273 780 273 780 C273 780 220 630 220 630 L220 630 Z M365 545 C365 545 366 545 366 545 C366 545 366 217 366 217 C366 122 346 99 265 99 C176 99 180 111 180 200 C180 200 180 550 180 550 C180 550 123 550 123 550 C100 551 88 551 65 550 C65 550 65 545 65 545 C65 545 65 200 65 200 C65 15 58 -10 227 -10 C298 -10 341 2 366 39 C366 39 366 10 366 10 C366 10 366 0 366 0 C366 0 423 0 423 0 C423 0 481 0 481 0 C481 0 481 5 481 5 C481 5 481 10 481 10 C481 10 481 550 481 550 C481 550 423 550 423 550 C400 551 388 551 365 550 C365 550 365 545 365 545 L365 545 Z " />
<glyph glyph-name="ucircumflex" unicode="&#xfb;" horiz-adv-x="550" d="M273 690 C273 690 338 630 338 630 C338 630 443 630 443 630 C443 630 331 780 331 780 C331 780 215 780 215 780 C215 780 103 630 103 630 C103 630 208 630 208 630 C208 630 273 690 273 690 L273 690 Z M365 545 C365 545 366 545 366 545 C366 545 366 217 366 217 C366 122 346 99 265 99 C176 99 180 111 180 200 C180 200 180 550 180 550 C180 550 123 550 123 550 C100 551 88 551 65 550 C65 550 65 545 65 545 C65 545 65 200 65 200 C65 15 58 -10 227 -10 C298 -10 341 2 366 39 C366 39 366 10 366 10 C366 10 366 0 366 0 C366 0 423 0 423 0 C423 0 481 0 481 0 C481 0 481 5 481 5 C481 5 481 10 481 10 C481 10 481 550 481 550 C481 550 423 550 423 550 C400 551 388 551 365 550 C365 550 365 545 365 545 L365 545 Z " />
<glyph glyph-name="udieresis" unicode="&#xfc;" horiz-adv-x="550" d="M291 630 C291 630 416 630 416 630 C416 630 416 755 416 755 C416 755 291 755 291 755 C291 755 291 630 291 630 L291 630 Z M130 630 C130 630 255 630 255 630 C255 630 255 755 255 755 C255 755 130 755 130 755 C130 755 130 630 130 630 L130 630 Z M365 545 C365 545 366 545 366 545 C366 545 366 217 366 217 C366 122 346 99 265 99 C176 99 180 111 180 200 C180 200 180 550 180 550 C180 550 123 550 123 550 C100 551 88 551 65 550 C65 550 65 545 65 545 C65 545 65 200 65 200 C65 15 58 -10 227 -10 C298 -10 341 2 366 39 C366 39 366 10 366 10 C366 10 366 0 366 0 C366 0 423 0 423 0 C423 0 481 0 481 0 C481 0 481 5 481 5 C481 5 481 10 481 10 C481 10 481 550 481 550 C481 550 423 550 423 550 C400 551 388 551 365 550 C365 550 365 545 365 545 L365 545 Z " />
<glyph glyph-name="yacute" unicode="&#xfd;" horiz-adv-x="490" d="M193 630 C193 630 298 630 298 630 C298 630 395 780 395 780 C395 780 245 780 245 780 C245 780 193 630 193 630 L193 630 Z M45 -200 C45 -200 95 -200 95 -200 C248 -200 241 -205 277 -84 C277 -84 481 550 481 550 C481 550 480 550 480 550 C480 550 480 551 481 550 C481 550 480 550 480 550 C480 550 480 550 480 550 C453 551 439 551 412 550 C386 551 372 551 345 550 C345 550 345 550 345 550 C345 550 344 550 344 550 C344 550 237 160 237 160 C237 160 140 550 140 550 C113 551 101 551 75 550 C48 551 36 551 10 550 C9 551 9 550 10 548 C11 546 11 546 11 545 C11 545 12 545 12 545 C12 545 189 -19 189 -19 C189 -19 183 -39 183 -39 C165 -97 169 -95 95 -95 C95 -95 45 -95 45 -95 C45 -95 45 -200 45 -200 L45 -200 Z M345 550 C344 550 344 550 344 550 C345 551 345 550 345 550 C345 550 345 550 345 550 L345 550 Z " />
<glyph glyph-name="thorn" unicode="&#xfe;" horiz-adv-x="599" d="M302 88 C208 88 185 103 185 275 C185 446 208 461 301 461 C400 461 425 424 425 275 C425 125 400 88 302 88 L302 88 Z M128 -250 C128 -250 185 -250 185 -250 C185 -250 185 -245 185 -245 C185 -245 185 23 185 23 C217 -6 266 -10 341 -10 C508 -10 550 47 550 275 C550 503 508 560 341 560 C266 560 217 556 185 527 C185 527 185 780 185 780 C185 780 128 780 128 780 C105 781 93 781 70 780 C70 780 70 775 70 775 C70 775 70 -245 70 -245 C70 -245 70 -250 70 -250 C70 -250 128 -250 128 -250 L128 -250 Z " />
<glyph glyph-name="ydieresis" unicode="&#xff;" horiz-adv-x="490" d="M263 630 C263 630 388 630 388 630 C388 630 388 755 388 755 C388 755 263 755 263 755 C263 755 263 630 263 630 L263 630 Z M102 630 C102 630 227 630 227 630 C227 630 227 755 227 755 C227 755 102 755 102 755 C102 755 102 630 102 630 L102 630 Z M45 -200 C45 -200 95 -200 95 -200 C248 -200 241 -205 277 -84 C277 -84 481 550 481 550 C481 550 480 550 480 550 C480 550 480 551 481 550 C481 550 480 550 480 550 C480 550 480 550 480 550 C453 551 439 551 412 550 C386 551 372 551 345 550 C345 550 345 550 345 550 C345 550 344 550 344 550 C344 550 237 160 237 160 C237 160 140 550 140 550 C113 551 101 551 75 550 C48 551 36 551 10 550 C9 551 9 550 10 548 C11 546 11 546 11 545 C11 545 12 545 12 545 C12 545 189 -19 189 -19 C189 -19 183 -39 183 -39 C165 -97 169 -95 95 -95 C95 -95 45 -95 45 -95 C45 -95 45 -200 45 -200 L45 -200 Z M345 550 C344 550 344 550 344 550 C345 551 345 550 345 550 C345 550 345 550 345 550 L345 550 Z " />
<glyph glyph-name="Amacron" unicode="&#x100;" horiz-adv-x="723" d="M226 889 C226 889 506 889 506 889 C506 889 506 969 506 969 C506 969 226 969 226 969 C226 969 226 889 226 889 L226 889 Z M712 5 C712 5 711 5 711 5 C711 5 433 809 433 809 C433 809 430 809 430 809 C430 809 362 809 362 809 C362 809 299 809 299 809 C299 809 294 809 294 809 C293 808 293 808 293 806 C293 806 293 806 293 806 C293 806 292 804 292 804 C292 804 292 804 292 804 C292 804 9 2 9 2 C8 1 8 1 8 0 C8 0 80 0 80 0 C80 0 152 0 152 0 C152 0 152 1 152 1 C153 3 153 4 154 5 C154 5 154 5 154 5 C154 5 206 158 206 158 C206 158 522 158 522 158 C522 158 574 5 574 5 C574 5 574 5 574 5 C575 4 575 2 576 1 C576 1 576 0 576 0 C576 0 645 0 645 0 C645 0 713 0 713 0 C713 0 713 2 713 2 C713 2 712 5 712 5 L712 5 Z M242 262 C242 262 364 618 364 618 C364 618 513 184 513 184 C513 184 486 262 486 262 C486 262 242 262 242 262 L242 262 Z " />
<glyph glyph-name="amacron" unicode="&#x101;" horiz-adv-x="550" d="M131 630 C131 630 411 630 411 630 C411 630 411 710 411 710 C411 710 131 710 131 710 C131 710 131 630 131 630 L131 630 Z M67 528 C67 528 124 429 124 429 C169 455 198 461 271 461 C342 461 360 459 360 407 C360 407 360 380 360 380 C360 311 327 308 193 285 C70 263 40 235 40 142 C40 20 46 -10 206 -10 C281 -10 328 -12 357 11 C363 -11 395 0 520 0 C520 0 520 85 520 85 C462 85 475 78 475 110 C475 110 475 358 475 358 C475 552 434 560 271 560 C152 560 111 554 67 528 L67 528 Z M360 228 C360 228 360 163 360 163 C355 69 327 73 243 73 C158 73 155 88 155 146 C155 181 177 193 264 208 C306 215 337 220 360 228 L360 228 Z " />
<glyph glyph-name="Abreve" unicode="&#x102;" horiz-adv-x="723" d="M215 1024 C215 908 245 879 366 879 C487 879 517 908 517 1024 C517 1024 432 1024 432 1024 C432 972 419 959 366 959 C313 959 300 972 300 1024 C300 1024 215 1024 215 1024 L215 1024 Z M712 5 C712 5 711 5 711 5 C711 5 433 809 433 809 C433 809 430 809 430 809 C430 809 362 809 362 809 C362 809 299 809 299 809 C299 809 294 809 294 809 C293 808 293 808 293 806 C293 806 293 806 293 806 C293 806 292 804 292 804 C292 804 292 804 292 804 C292 804 9 2 9 2 C8 1 8 1 8 0 C8 0 80 0 80 0 C80 0 152 0 152 0 C152 0 152 1 152 1 C153 3 153 4 154 5 C154 5 154 5 154 5 C154 5 206 158 206 158 C206 158 522 158 522 158 C522 158 574 5 574 5 C574 5 574 5 574 5 C575 4 575 2 576 1 C576 1 576 0 576 0 C576 0 645 0 645 0 C645 0 713 0 713 0 C713 0 713 2 713 2 C713 2 712 5 712 5 L712 5 Z M242 262 C242 262 364 618 364 618 C364 618 513 184 513 184 C513 184 486 262 486 262 C486 262 242 262 242 262 L242 262 Z " />
<glyph glyph-name="abreve" unicode="&#x103;" horiz-adv-x="550" d="M120 765 C120 649 150 620 271 620 C392 620 422 649 422 765 C422 765 337 765 337 765 C337 713 324 700 271 700 C218 700 205 713 205 765 C205 765 120 765 120 765 L120 765 Z M67 528 C67 528 124 429 124 429 C169 455 198 461 271 461 C342 461 360 459 360 407 C360 407 360 380 360 380 C360 311 327 308 193 285 C70 263 40 235 40 142 C40 20 46 -10 206 -10 C281 -10 328 -12 357 11 C363 -11 395 0 520 0 C520 0 520 85 520 85 C462 85 475 78 475 110 C475 110 475 358 475 358 C475 552 434 560 271 560 C152 560 111 554 67 528 L67 528 Z M360 228 C360 228 360 163 360 163 C355 69 327 73 243 73 C158 73 155 88 155 146 C155 181 177 193 264 208 C306 215 337 220 360 228 L360 228 Z " />
<glyph glyph-name="Aogonek" unicode="&#x104;" horiz-adv-x="723" d="M712 5 C712 5 711 5 711 5 C711 5 433 809 433 809 C433 809 430 809 430 809 C430 809 362 809 362 809 C362 809 299 809 299 809 C299 809 294 809 294 809 C293 808 293 808 293 806 C293 806 293 806 293 806 C293 806 292 804 292 804 C292 804 292 804 292 804 C292 804 9 2 9 2 C8 1 8 1 8 0 C8 0 80 0 80 0 C80 0 152 0 152 0 C152 0 152 1 152 1 C153 3 153 4 154 5 C154 5 154 5 154 5 C154 5 206 158 206 158 C206 158 522 158 522 158 C522 158 574 5 574 5 C574 5 574 5 574 5 C575 4 575 2 576 1 C576 1 576 0 576 0 C576 0 644 0 644 0 C618 -25 595 -57 595 -93 C595 -191 622 -215 730 -215 C779 -215 796 -209 814 -187 C814 -187 803 -121 803 -121 C789 -137 776 -141 736 -141 C674 -141 659 -129 659 -82 C659 -41 692 -12 713 0 C713 0 713 2 713 2 C713 2 712 5 712 5 L712 5 Z M242 262 C242 262 364 618 364 618 C364 618 513 184 513 184 C513 184 486 262 486 262 C486 262 242 262 242 262 L242 262 Z " />
<glyph glyph-name="aogonek" unicode="&#x105;" horiz-adv-x="599" d="M50 275 C50 47 96 -10 279 -10 C343 -10 386 0 415 29 C415 29 415 0 415 0 C415 0 469 0 469 0 C438 -27 411 -59 411 -91 C411 -190 438 -215 546 -215 C595 -215 612 -209 630 -187 C630 -187 619 -121 619 -121 C605 -137 592 -141 552 -141 C491 -141 476 -129 476 -79 C476 -41 508 -12 530 0 C530 0 530 5 530 5 C530 5 530 42 530 42 C530 42 530 545 530 545 C530 545 530 550 530 550 C507 551 495 551 472 550 C472 550 415 550 415 550 C415 550 415 521 415 521 C386 550 343 560 279 560 C96 560 50 503 50 275 C50 275 50 275 50 275 L50 275 Z M415 275 C415 126 396 89 319 89 C204 89 175 126 175 275 C175 424 204 461 319 461 C396 461 415 424 415 275 L415 275 Z " />
<glyph glyph-name="Cacute" unicode="&#x106;" horiz-adv-x="695" d="M311 889 C311 889 416 889 416 889 C416 889 513 1039 513 1039 C513 1039 363 1039 363 1039 C363 1039 311 889 311 889 L311 889 Z M657 163 C542 112 496 99 423 99 C236 99 189 184 189 404 C189 624 236 709 423 709 C488 709 534 699 657 659 C657 659 675 786 675 786 C673 787 672 787 670 788 C670 788 670 788 670 788 C670 788 670 788 670 788 C594 813 543 819 423 819 C126 819 52 703 52 404 C52 106 126 -10 423 -10 C542 -10 592 -1 675 36 C675 36 657 163 657 163 L657 163 Z " />
<glyph glyph-name="cacute" unicode="&#x107;" horiz-adv-x="539" d="M267 630 C267 630 372 630 372 630 C372 630 469 780 469 780 C469 780 319 780 319 780 C319 780 267 630 267 630 L267 630 Z M464 128 C406 97 378 89 319 89 C204 89 175 104 175 275 C175 451 204 466 319 466 C354 466 377 457 465 422 C465 422 509 531 509 531 C450 554 431 560 319 560 C104 560 50 538 50 275 C50 12 104 -10 319 -10 C432 -10 470 -5 509 16 C509 16 464 128 464 128 L464 128 Z " />
<glyph glyph-name="Ccircumflex" unicode="&#x108;" horiz-adv-x="695" d="M363 949 C363 949 428 889 428 889 C428 889 533 889 533 889 C533 889 421 1039 421 1039 C421 1039 305 1039 305 1039 C305 1039 193 889 193 889 C193 889 298 889 298 889 C298 889 363 949 363 949 L363 949 Z M657 163 C542 112 496 99 423 99 C236 99 189 184 189 404 C189 624 236 709 423 709 C488 709 534 699 657 659 C657 659 675 786 675 786 C673 787 672 787 670 788 C670 788 670 788 670 788 C670 788 670 788 670 788 C594 813 543 819 423 819 C126 819 52 703 52 404 C52 106 126 -10 423 -10 C542 -10 592 -1 675 36 C675 36 657 163 657 163 L657 163 Z " />
<glyph glyph-name="Cdotaccent" unicode="&#x10a;" horiz-adv-x="695" d="M301 889 C301 889 426 889 426 889 C426 889 426 1014 426 1014 C426 1014 301 1014 301 1014 C301 1014 301 889 301 889 L301 889 Z M657 163 C542 112 496 99 423 99 C236 99 189 184 189 404 C189 624 236 709 423 709 C488 709 534 699 657 659 C657 659 675 786 675 786 C673 787 672 787 670 788 C670 788 670 788 670 788 C670 788 670 788 670 788 C594 813 543 819 423 819 C126 819 52 703 52 404 C52 106 126 -10 423 -10 C542 -10 592 -1 675 36 C675 36 657 163 657 163 L657 163 Z " />
<glyph glyph-name="cdotaccent" unicode="&#x10b;" horiz-adv-x="539" d="M257 630 C257 630 382 630 382 630 C382 630 382 755 382 755 C382 755 257 755 257 755 C257 755 257 630 257 630 L257 630 Z M464 128 C406 97 378 89 319 89 C204 89 175 104 175 275 C175 451 204 466 319 466 C354 466 377 457 465 422 C465 422 509 531 509 531 C450 554 431 560 319 560 C104 560 50 538 50 275 C50 12 104 -10 319 -10 C432 -10 470 -5 509 16 C509 16 464 128 464 128 L464 128 Z " />
<glyph glyph-name="Ccaron" unicode="&#x10c;" horiz-adv-x="695" d="M363 979 C363 979 428 1039 428 1039 C428 1039 533 1039 533 1039 C533 1039 421 889 421 889 C421 889 305 889 305 889 C305 889 193 1039 193 1039 C193 1039 298 1039 298 1039 C298 1039 363 979 363 979 L363 979 Z M657 163 C542 112 496 99 423 99 C236 99 189 184 189 404 C189 624 236 709 423 709 C488 709 534 699 657 659 C657 659 675 786 675 786 C673 787 672 787 670 788 C670 788 670 788 670 788 C670 788 670 788 670 788 C594 813 543 819 423 819 C126 819 52 703 52 404 C52 106 126 -10 423 -10 C542 -10 592 -1 675 36 C675 36 657 163 657 163 L657 163 Z " />
<glyph glyph-name="ccaron" unicode="&#x10d;" horiz-adv-x="539" d="M319 720 C319 720 384 780 384 780 C384 780 489 780 489 780 C489 780 377 630 377 630 C377 630 261 630 261 630 C261 630 149 780 149 780 C149 780 254 780 254 780 C254 780 319 720 319 720 L319 720 Z M464 128 C406 97 378 89 319 89 C204 89 175 104 175 275 C175 451 204 466 319 466 C354 466 377 457 465 422 C465 422 509 531 509 531 C450 554 431 560 319 560 C104 560 50 538 50 275 C50 12 104 -10 319 -10 C432 -10 470 -5 509 16 C509 16 464 128 464 128 L464 128 Z " />
<glyph glyph-name="Dcaron" unicode="&#x10e;" horiz-adv-x="765" d="M330 979 C330 979 395 1039 395 1039 C395 1039 500 1039 500 1039 C500 1039 388 889 388 889 C388 889 272 889 272 889 C272 889 160 1039 160 1039 C160 1039 265 1039 265 1039 C265 1039 330 979 330 979 L330 979 Z M151 0 C151 0 215 0 215 0 C215 0 350 0 350 0 C676 0 710 38 710 404 C710 761 664 809 320 809 C320 809 215 809 215 809 C215 809 151 809 151 809 C151 809 87 809 87 809 C87 809 87 804 87 804 C87 804 87 5 87 5 C87 5 87 0 87 0 C87 0 151 0 151 0 L151 0 Z M215 104 C215 104 215 704 215 704 C215 704 326 704 326 704 C544 704 573 668 573 404 C573 132 551 104 341 104 C341 104 215 104 215 104 L215 104 Z " />
<glyph glyph-name="dcaron" unicode="&#x10f;" horiz-adv-x="598" d="M579 790 C579 790 579 640 579 640 C579 640 664 640 664 640 C664 640 704 790 704 790 C704 790 579 790 579 790 L579 790 Z M413 775 C413 775 414 775 414 775 C414 775 414 770 414 770 C414 770 414 516 414 516 C382 549 333 560 258 560 C91 560 50 503 50 275 C50 47 91 -10 258 -10 C333 -10 382 1 414 34 C414 34 414 10 414 10 C414 10 414 0 414 0 C414 0 471 0 471 0 C471 0 529 0 529 0 C529 0 529 5 529 5 C529 5 529 10 529 10 C529 10 529 770 529 770 C529 770 529 780 529 780 C529 780 471 780 471 780 C448 781 436 781 413 780 C413 780 413 775 413 775 L413 775 Z M414 275 C414 126 391 89 298 89 C199 89 175 126 175 275 C175 424 199 461 298 461 C391 461 414 424 414 275 L414 275 Z " />
<glyph glyph-name="Dcroat" unicode="&#x110;" horiz-adv-x="765" d="M7 362 C7 362 87 362 87 362 C87 362 87 5 87 5 C87 5 87 0 87 0 C87 0 151 0 151 0 C151 0 215 0 215 0 C215 0 350 0 350 0 C676 0 710 38 710 404 C710 761 664 809 320 809 C320 809 215 809 215 809 C215 809 151 809 151 809 C151 809 87 809 87 809 C87 809 87 804 87 804 C87 804 87 446 87 446 C87 446 7 446 7 446 C7 446 7 362 7 362 L7 362 Z M215 104 C215 104 215 362 215 362 C215 362 330 362 330 362 C330 362 330 446 330 446 C330 446 215 446 215 446 C215 446 215 704 215 704 C215 704 326 704 326 704 C544 704 573 668 573 404 C573 132 551 104 341 104 C341 104 215 104 215 104 L215 104 Z " />
<glyph glyph-name="dcroat" unicode="&#x111;" horiz-adv-x="598" d="M258 629 C258 629 414 629 414 629 C414 629 414 516 414 516 C382 549 333 560 258 560 C91 560 50 503 50 275 C50 47 91 -10 258 -10 C333 -10 382 1 414 34 C414 34 414 10 414 10 C414 10 414 0 414 0 C414 0 471 0 471 0 C471 0 529 0 529 0 C529 0 529 5 529 5 C529 5 529 10 529 10 C529 10 529 629 529 629 C529 629 641 629 641 629 C641 629 641 712 641 712 C641 712 529 712 529 712 C529 712 529 770 529 770 C529 770 529 780 529 780 C529 780 471 780 471 780 C448 781 436 781 413 780 C413 780 413 775 413 775 C413 775 414 775 414 775 C414 775 414 770 414 770 C414 770 414 712 414 712 C414 712 258 712 258 712 C258 712 258 629 258 629 L258 629 Z M414 275 C414 126 391 89 298 89 C199 89 175 126 175 275 C175 424 199 461 298 461 C391 461 414 424 414 275 L414 275 Z " />
<glyph glyph-name="Emacron" unicode="&#x112;" horiz-adv-x="640" d="M191 889 C191 889 471 889 471 889 C471 889 471 969 471 969 C471 969 191 969 191 969 C191 969 191 889 191 889 L191 889 Z M590 55 C590 55 590 109 590 109 C590 110 590 110 588 109 C586 108 585 110 585 109 C585 109 215 109 215 109 C215 109 215 337 215 337 C215 337 550 337 550 337 C550 337 555 337 555 337 C555 337 555 390 555 390 C555 390 555 442 555 442 C555 442 553 442 553 442 C553 442 550 442 550 442 C550 442 215 442 215 442 C215 442 215 699 215 699 C215 699 570 699 570 699 C570 699 575 699 575 699 C575 699 575 754 575 754 C575 754 575 809 575 809 C575 809 215 809 215 809 C215 809 214 809 214 809 C214 809 151 809 151 809 C151 809 87 809 87 809 C87 809 87 804 87 804 C87 804 87 5 87 5 C87 5 87 0 87 0 C87 0 151 0 151 0 C151 0 214 0 214 0 C214 0 215 0 215 0 C215 0 590 0 590 0 C590 0 590 55 590 55 L590 55 Z " />
<glyph glyph-name="emacron" unicode="&#x113;" horiz-adv-x="547" d="M152 630 C152 630 432 630 432 630 C432 630 432 710 432 710 C432 710 152 710 152 710 C152 710 152 630 152 630 L152 630 Z M463 124 C420 96 384 89 284 89 C202 89 178 102 175 247 C175 247 419 247 419 247 C419 247 534 247 534 247 C534 498 525 560 292 560 C98 560 50 538 50 275 C50 12 96 -10 284 -10 C438 -10 484 -5 517 17 C517 17 463 124 463 124 L463 124 Z M418 331 C418 331 176 331 176 331 C181 454 209 466 292 466 C392 466 413 437 418 331 C418 331 418 331 418 331 L418 331 Z " />
<glyph glyph-name="Ebreve" unicode="&#x114;" horiz-adv-x="640" d="M180 1024 C180 908 210 879 331 879 C452 879 482 908 482 1024 C482 1024 397 1024 397 1024 C397 972 384 959 331 959 C278 959 265 972 265 1024 C265 1024 180 1024 180 1024 L180 1024 Z M590 55 C590 55 590 109 590 109 C590 110 590 110 588 109 C586 108 585 110 585 109 C585 109 215 109 215 109 C215 109 215 337 215 337 C215 337 550 337 550 337 C550 337 555 337 555 337 C555 337 555 390 555 390 C555 390 555 442 555 442 C555 442 553 442 553 442 C553 442 550 442 550 442 C550 442 215 442 215 442 C215 442 215 699 215 699 C215 699 570 699 570 699 C570 699 575 699 575 699 C575 699 575 754 575 754 C575 754 575 809 575 809 C575 809 215 809 215 809 C215 809 214 809 214 809 C214 809 151 809 151 809 C151 809 87 809 87 809 C87 809 87 804 87 804 C87 804 87 5 87 5 C87 5 87 0 87 0 C87 0 151 0 151 0 C151 0 214 0 214 0 C214 0 215 0 215 0 C215 0 590 0 590 0 C590 0 590 55 590 55 L590 55 Z " />
<glyph glyph-name="ebreve" unicode="&#x115;" horiz-adv-x="547" d="M140 765 C140 649 170 620 292 620 C413 620 443 649 443 765 C443 765 358 765 358 765 C358 713 345 700 292 700 C238 700 225 713 225 765 C225 765 140 765 140 765 L140 765 Z M463 124 C420 96 384 89 284 89 C202 89 178 102 175 247 C175 247 419 247 419 247 C419 247 534 247 534 247 C534 498 525 560 292 560 C98 560 50 538 50 275 C50 12 96 -10 284 -10 C438 -10 484 -5 517 17 C517 17 463 124 463 124 L463 124 Z M418 331 C418 331 176 331 176 331 C181 454 209 466 292 466 C392 466 413 437 418 331 C418 331 418 331 418 331 L418 331 Z " />
<glyph glyph-name="Edotaccent" unicode="&#x116;" horiz-adv-x="640" d="M269 889 C269 889 394 889 394 889 C394 889 394 1014 394 1014 C394 1014 269 1014 269 1014 C269 1014 269 889 269 889 L269 889 Z M590 55 C590 55 590 109 590 109 C590 110 590 110 588 109 C586 108 585 110 585 109 C585 109 215 109 215 109 C215 109 215 337 215 337 C215 337 550 337 550 337 C550 337 555 337 555 337 C555 337 555 390 555 390 C555 390 555 442 555 442 C555 442 553 442 553 442 C553 442 550 442 550 442 C550 442 215 442 215 442 C215 442 215 699 215 699 C215 699 570 699 570 699 C570 699 575 699 575 699 C575 699 575 754 575 754 C575 754 575 809 575 809 C575 809 215 809 215 809 C215 809 214 809 214 809 C214 809 151 809 151 809 C151 809 87 809 87 809 C87 809 87 804 87 804 C87 804 87 5 87 5 C87 5 87 0 87 0 C87 0 151 0 151 0 C151 0 214 0 214 0 C214 0 215 0 215 0 C215 0 590 0 590 0 C590 0 590 55 590 55 L590 55 Z " />
<glyph glyph-name="edotaccent" unicode="&#x117;" horiz-adv-x="547" d="M229 630 C229 630 354 630 354 630 C354 630 354 755 354 755 C354 755 229 755 229 755 C229 755 229 630 229 630 L229 630 Z M463 124 C420 96 384 89 284 89 C202 89 178 102 175 247 C175 247 419 247 419 247 C419 247 534 247 534 247 C534 498 525 560 292 560 C98 560 50 538 50 275 C50 12 96 -10 284 -10 C438 -10 484 -5 517 17 C517 17 463 124 463 124 L463 124 Z M418 331 C418 331 176 331 176 331 C181 454 209 466 292 466 C392 466 413 437 418 331 C418 331 418 331 418 331 L418 331 Z " />
<glyph glyph-name="Eogonek" unicode="&#x118;" horiz-adv-x="640" d="M294 0 C263 -27 237 -59 237 -91 C237 -190 264 -215 371 -215 C420 -215 437 -209 456 -187 C456 -187 444 -121 444 -121 C430 -137 417 -141 377 -141 C316 -141 301 -129 301 -79 C301 -41 333 -12 355 0 C355 0 590 0 590 0 C590 0 590 55 590 55 C590 55 590 109 590 109 C590 110 590 110 588 109 C586 108 585 110 585 109 C585 109 215 109 215 109 C215 109 215 337 215 337 C215 337 550 337 550 337 C550 337 555 337 555 337 C555 337 555 390 555 390 C555 390 555 442 555 442 C555 442 553 442 553 442 C553 442 550 442 550 442 C550 442 215 442 215 442 C215 442 215 699 215 699 C215 699 570 699 570 699 C570 699 575 699 575 699 C575 699 575 754 575 754 C575 754 575 809 575 809 C575 809 215 809 215 809 C215 809 214 809 214 809 C214 809 151 809 151 809 C151 809 87 809 87 809 C87 809 87 804 87 804 C87 804 87 5 87 5 C87 5 87 0 87 0 C87 0 151 0 151 0 C151 0 214 0 214 0 C214 0 215 0 215 0 C215 0 294 0 294 0 L294 0 Z " />
<glyph glyph-name="eogonek" unicode="&#x119;" horiz-adv-x="547" d="M424 -7 C424 -7 424 -7 424 -7 C473 -3 497 4 517 17 C517 17 463 124 463 124 C420 96 384 89 284 89 C202 89 178 102 175 247 C175 247 419 247 419 247 C419 247 534 247 534 247 C534 498 525 560 292 560 C98 560 50 538 50 275 C50 12 96 -10 284 -10 C313 -10 338 -10 360 -9 C331 -35 306 -65 306 -94 C306 -191 333 -215 441 -215 C490 -215 507 -209 525 -187 C525 -187 514 -121 514 -121 C500 -137 487 -141 447 -141 C385 -141 370 -129 370 -83 C370 -47 403 -19 424 -7 L424 -7 Z M418 331 C418 331 176 331 176 331 C181 454 209 466 292 466 C392 466 413 437 418 331 C418 331 418 331 418 331 L418 331 Z " />
<glyph glyph-name="Ecaron" unicode="&#x11a;" horiz-adv-x="640" d="M331 979 C331 979 396 1039 396 1039 C396 1039 501 1039 501 1039 C501 1039 389 889 389 889 C389 889 273 889 273 889 C273 889 161 1039 161 1039 C161 1039 266 1039 266 1039 C266 1039 331 979 331 979 L331 979 Z M590 55 C590 55 590 109 590 109 C590 110 590 110 588 109 C586 108 585 110 585 109 C585 109 215 109 215 109 C215 109 215 337 215 337 C215 337 550 337 550 337 C550 337 555 337 555 337 C555 337 555 390 555 390 C555 390 555 442 555 442 C555 442 553 442 553 442 C553 442 550 442 550 442 C550 442 215 442 215 442 C215 442 215 699 215 699 C215 699 570 699 570 699 C570 699 575 699 575 699 C575 699 575 754 575 754 C575 754 575 809 575 809 C575 809 215 809 215 809 C215 809 214 809 214 809 C214 809 151 809 151 809 C151 809 87 809 87 809 C87 809 87 804 87 804 C87 804 87 5 87 5 C87 5 87 0 87 0 C87 0 151 0 151 0 C151 0 214 0 214 0 C214 0 215 0 215 0 C215 0 590 0 590 0 C590 0 590 55 590 55 L590 55 Z " />
<glyph glyph-name="ecaron" unicode="&#x11b;" horiz-adv-x="547" d="M292 720 C292 720 357 780 357 780 C357 780 462 780 462 780 C462 780 350 630 350 630 C350 630 234 630 234 630 C234 630 122 780 122 780 C122 780 227 780 227 780 C227 780 292 720 292 720 L292 720 Z M463 124 C420 96 384 89 284 89 C202 89 178 102 175 247 C175 247 419 247 419 247 C419 247 534 247 534 247 C534 498 525 560 292 560 C98 560 50 538 50 275 C50 12 96 -10 284 -10 C438 -10 484 -5 517 17 C517 17 463 124 463 124 L463 124 Z M418 331 C418 331 176 331 176 331 C181 454 209 466 292 466 C392 466 413 437 418 331 C418 331 418 331 418 331 L418 331 Z " />
<glyph glyph-name="Gcircumflex" unicode="&#x11c;" horiz-adv-x="772" d="M460 949 C460 949 525 889 525 889 C525 889 630 889 630 889 C630 889 518 1039 518 1039 C518 1039 402 1039 402 1039 C402 1039 290 889 290 889 C290 889 395 889 395 889 C395 889 460 949 460 949 L460 949 Z M369 327 C369 327 599 327 599 327 C599 327 599 155 599 155 C546 110 524 99 460 99 C243 99 189 160 189 404 C189 648 243 709 460 709 C515 709 559 699 682 659 C682 659 700 786 700 786 C698 787 697 787 695 788 C695 788 695 788 695 788 C695 788 695 788 695 788 C619 813 571 819 460 819 C133 819 52 737 52 404 C52 72 133 -10 460 -10 C591 -10 633 10 728 90 C728 90 728 436 728 436 C728 436 369 436 369 436 C369 436 369 327 369 327 L369 327 Z " />
<glyph glyph-name="Gbreve" unicode="&#x11e;" horiz-adv-x="772" d="M309 1024 C309 908 339 879 460 879 C582 879 612 908 612 1024 C612 1024 527 1024 527 1024 C527 972 514 959 460 959 C407 959 394 972 394 1024 C394 1024 309 1024 309 1024 L309 1024 Z M369 327 C369 327 599 327 599 327 C599 327 599 155 599 155 C546 110 524 99 460 99 C243 99 189 160 189 404 C189 648 243 709 460 709 C515 709 559 699 682 659 C682 659 700 786 700 786 C698 787 697 787 695 788 C695 788 695 788 695 788 C695 788 695 788 695 788 C619 813 571 819 460 819 C133 819 52 737 52 404 C52 72 133 -10 460 -10 C591 -10 633 10 728 90 C728 90 728 436 728 436 C728 436 369 436 369 436 C369 436 369 327 369 327 L369 327 Z " />
<glyph glyph-name="gbreve" unicode="&#x11f;" horiz-adv-x="588" d="M133 765 C133 649 163 620 284 620 C405 620 435 649 435 765 C435 765 350 765 350 765 C350 713 337 700 284 700 C231 700 218 713 218 765 C218 765 133 765 133 765 L133 765 Z M71 -178 C78 -185 135 -204 298 -204 C510 -204 519 -154 519 49 C519 49 519 545 519 545 C519 545 519 550 519 550 C496 551 484 551 461 550 C461 550 404 550 404 550 C404 550 404 517 404 517 C373 549 325 560 253 560 C90 560 50 549 50 275 C50 11 90 0 253 0 C325 0 373 11 404 42 C404 42 404 0 404 0 C404 -85 399 -106 287 -106 C172 -106 120 -79 111 -68 C111 -68 71 -178 71 -178 L71 -178 Z M293 461 C382 461 404 424 404 275 C404 134 382 99 293 99 C198 99 175 106 175 275 C175 454 198 461 293 461 L293 461 Z " />
<glyph glyph-name="Gdotaccent" unicode="&#x120;" horiz-adv-x="772" d="M398 889 C398 889 523 889 523 889 C523 889 523 1014 523 1014 C523 1014 398 1014 398 1014 C398 1014 398 889 398 889 L398 889 Z M369 327 C369 327 599 327 599 327 C599 327 599 155 599 155 C546 110 524 99 460 99 C243 99 189 160 189 404 C189 648 243 709 460 709 C515 709 559 699 682 659 C682 659 700 786 700 786 C698 787 697 787 695 788 C695 788 695 788 695 788 C695 788 695 788 695 788 C619 813 571 819 460 819 C133 819 52 737 52 404 C52 72 133 -10 460 -10 C591 -10 633 10 728 90 C728 90 728 436 728 436 C728 436 369 436 369 436 C369 436 369 327 369 327 L369 327 Z " />
<glyph glyph-name="gdotaccent" unicode="&#x121;" horiz-adv-x="588" d="M222 630 C222 630 347 630 347 630 C347 630 347 755 347 755 C347 755 222 755 222 755 C222 755 222 630 222 630 L222 630 Z M71 -178 C78 -185 135 -204 298 -204 C510 -204 519 -154 519 49 C519 49 519 545 519 545 C519 545 519 550 519 550 C496 551 484 551 461 550 C461 550 404 550 404 550 C404 550 404 517 404 517 C373 549 325 560 253 560 C90 560 50 549 50 275 C50 11 90 0 253 0 C325 0 373 11 404 42 C404 42 404 0 404 0 C404 -85 399 -106 287 -106 C172 -106 120 -79 111 -68 C111 -68 71 -178 71 -178 L71 -178 Z M293 461 C382 461 404 424 404 275 C404 134 382 99 293 99 C198 99 175 106 175 275 C175 454 198 461 293 461 L293 461 Z " />
<glyph glyph-name="Hcircumflex" unicode="&#x124;" horiz-adv-x="778" d="M390 949 C390 949 455 889 455 889 C455 889 560 889 560 889 C560 889 448 1039 448 1039 C448 1039 332 1039 332 1039 C332 1039 220 889 220 889 C220 889 325 889 325 889 C325 889 390 949 390 949 L390 949 Z M629 0 C629 0 693 0 693 0 C693 0 693 5 693 5 C693 5 693 804 693 804 C693 804 693 809 693 809 C693 809 629 809 629 809 C629 809 565 809 565 809 C565 809 565 804 565 804 C565 804 565 453 565 453 C565 453 215 453 215 453 C215 453 215 804 215 804 C215 804 215 809 215 809 C215 809 151 809 151 809 C151 809 87 809 87 809 C87 809 87 804 87 804 C87 804 87 5 87 5 C87 5 87 0 87 0 C87 0 151 0 151 0 C151 0 215 0 215 0 C215 0 215 5 215 5 C215 5 215 343 215 343 C215 343 565 343 565 343 C565 343 565 5 565 5 C565 5 565 0 565 0 C565 0 629 0 629 0 L629 0 Z " />
<glyph glyph-name="Itilde" unicode="&#x128;" horiz-adv-x="301" d="M72 889 C72 945 76 959 93 959 C157 959 119 879 219 879 C298 879 317 911 317 1039 C317 1039 232 1039 232 1039 C232 982 228 968 211 968 C147 968 185 1049 85 1049 C6 1049 -13 1017 -13 889 C-13 889 72 889 72 889 L72 889 Z M152 0 C152 0 216 0 216 0 C216 0 216 5 216 5 C216 5 216 804 216 804 C216 804 216 809 216 809 C216 809 152 809 152 809 C152 809 88 809 88 809 C88 809 88 804 88 804 C88 804 88 5 88 5 C88 5 88 0 88 0 C88 0 152 0 152 0 L152 0 Z " />
<glyph glyph-name="itilde" unicode="&#x129;" horiz-adv-x="197" d="M12 545 C12 545 13 545 13 545 C13 545 13 0 13 0 C13 0 128 0 128 0 C128 0 128 550 128 550 C128 550 70 550 70 550 C47 551 35 551 12 550 C12 550 12 545 12 545 L12 545 Z M-10 630 C-10 687 -6 701 11 701 C75 701 37 620 137 620 C216 620 235 652 235 780 C235 780 150 780 150 780 C150 724 146 710 129 710 C65 710 103 790 3 790 C-76 790 -95 758 -95 630 C-95 630 -10 630 -10 630 L-10 630 Z " />
<glyph glyph-name="Imacron" unicode="&#x12a;" horiz-adv-x="301" d="M12 889 C12 889 292 889 292 889 C292 889 292 969 292 969 C292 969 12 969 12 969 C12 969 12 889 12 889 L12 889 Z M152 0 C152 0 216 0 216 0 C216 0 216 5 216 5 C216 5 216 804 216 804 C216 804 216 809 216 809 C216 809 152 809 152 809 C152 809 88 809 88 809 C88 809 88 804 88 804 C88 804 88 5 88 5 C88 5 88 0 88 0 C88 0 152 0 152 0 L152 0 Z " />
<glyph glyph-name="imacron" unicode="&#x12b;" horiz-adv-x="197" d="M12 545 C12 545 13 545 13 545 C13 545 13 5 13 5 C13 5 12 5 12 5 C12 5 12 0 12 0 C12 0 13 0 13 0 C13 0 70 0 70 0 C70 0 128 0 128 0 C128 0 128 5 128 5 C128 5 128 550 128 550 C128 550 70 550 70 550 C47 551 35 551 12 550 C12 550 12 545 12 545 L12 545 Z M-70 630 C-70 630 210 630 210 630 C210 630 210 710 210 710 C210 710 -70 710 -70 710 C-70 710 -70 630 -70 630 L-70 630 Z " />
<glyph glyph-name="Ibreve" unicode="&#x12c;" horiz-adv-x="301" d="M1 1024 C1 908 31 879 152 879 C273 879 303 908 303 1024 C303 1024 218 1024 218 1024 C218 972 205 959 152 959 C99 959 86 972 86 1024 C86 1024 1 1024 1 1024 L1 1024 Z M152 0 C152 0 216 0 216 0 C216 0 216 5 216 5 C216 5 216 804 216 804 C216 804 216 809 216 809 C216 809 152 809 152 809 C152 809 88 809 88 809 C88 809 88 804 88 804 C88 804 88 5 88 5 C88 5 88 0 88 0 C88 0 152 0 152 0 L152 0 Z " />
<glyph glyph-name="ibreve" unicode="&#x12d;" horiz-adv-x="197" d="M12 545 C12 545 13 545 13 545 C13 545 13 5 13 5 C13 5 12 5 12 5 C12 5 12 0 12 0 C12 0 13 0 13 0 C13 0 70 0 70 0 C70 0 128 0 128 0 C128 0 128 5 128 5 C128 5 128 550 128 550 C128 550 70 550 70 550 C47 551 35 551 12 550 C12 550 12 545 12 545 L12 545 Z M-81 765 C-81 649 -51 620 70 620 C191 620 221 649 221 765 C221 765 136 765 136 765 C136 713 123 700 70 700 C17 700 4 713 4 765 C4 765 -81 765 -81 765 L-81 765 Z " />
<glyph glyph-name="Idotaccent" unicode="&#x130;" horiz-adv-x="301" d="M90 889 C90 889 215 889 215 889 C215 889 215 1014 215 1014 C215 1014 90 1014 90 1014 C90 1014 90 889 90 889 L90 889 Z M152 0 C152 0 216 0 216 0 C216 0 216 5 216 5 C216 5 216 804 216 804 C216 804 216 809 216 809 C216 809 152 809 152 809 C152 809 88 809 88 809 C88 809 88 804 88 804 C88 804 88 5 88 5 C88 5 88 0 88 0 C88 0 152 0 152 0 L152 0 Z " />
<glyph glyph-name="dotlessi" unicode="&#x131;" horiz-adv-x="294" d="M110 0 C110 0 225 0 225 0 C225 0 225 550 225 550 C225 550 110 550 110 550 C110 550 110 0 110 0 L110 0 Z " />
<glyph glyph-name="Jcircumflex" unicode="&#x134;" horiz-adv-x="565" d="M416 949 C416 949 481 889 481 889 C481 889 586 889 586 889 C586 889 474 1039 474 1039 C474 1039 358 1039 358 1039 C358 1039 246 889 246 889 C246 889 351 889 351 889 C351 889 416 949 416 949 L416 949 Z M49 279 C49 279 49 216 49 216 C49 8 66 -10 265 -10 C454 -10 480 39 480 237 C480 237 480 804 480 804 C480 804 480 809 480 809 C480 809 416 809 416 809 C416 809 352 809 352 809 C352 809 352 804 352 804 C352 804 352 237 352 237 C352 138 342 114 265 114 C184 114 177 125 177 252 C177 252 177 302 177 302 C177 302 49 279 49 279 L49 279 Z " />
<glyph glyph-name="Lacute" unicode="&#x139;" horiz-adv-x="571" d="M100 889 C100 889 205 889 205 889 C205 889 302 1039 302 1039 C302 1039 152 1039 152 1039 C152 1039 100 889 100 889 L100 889 Z M541 55 C541 55 541 109 541 109 C541 110 541 110 539 109 C537 108 536 110 536 109 C536 109 216 109 216 109 C216 109 216 804 216 804 C216 804 216 809 216 809 C216 809 152 809 152 809 C152 809 88 809 88 809 C88 809 88 804 88 804 C88 804 88 5 88 5 C88 5 88 0 88 0 C88 0 152 0 152 0 C152 0 216 0 216 0 C216 0 541 0 541 0 C541 0 541 55 541 55 L541 55 Z " />
<glyph glyph-name="lacute" unicode="&#x13a;" horiz-adv-x="254" d="M46 820 C46 820 151 820 151 820 C151 820 248 970 248 970 C248 970 98 970 98 970 C98 970 46 820 46 820 L46 820 Z M127 0 C127 0 185 0 185 0 C185 0 185 3 185 3 C185 3 185 5 185 5 C185 5 185 770 185 770 C185 770 185 780 185 780 C185 780 127 780 127 780 C104 781 92 781 70 780 C70 780 70 775 70 775 C70 775 70 5 70 5 C70 5 70 0 70 0 C70 0 127 0 127 0 L127 0 Z " />
<glyph glyph-name="Lcaron" unicode="&#x13d;" horiz-adv-x="571" d="M316 819 C316 819 316 669 316 669 C316 669 401 669 401 669 C401 669 441 819 441 819 C441 819 316 819 316 819 L316 819 Z M541 55 C541 55 541 109 541 109 C541 110 541 110 539 109 C537 108 536 110 536 109 C536 109 216 109 216 109 C216 109 216 804 216 804 C216 804 216 809 216 809 C216 809 152 809 152 809 C152 809 88 809 88 809 C88 809 88 804 88 804 C88 804 88 5 88 5 C88 5 88 0 88 0 C88 0 152 0 152 0 C152 0 216 0 216 0 C216 0 541 0 541 0 C541 0 541 55 541 55 L541 55 Z " />
<glyph glyph-name="lcaron" unicode="&#x13e;" horiz-adv-x="254" d="M235 790 C235 790 235 640 235 640 C235 640 320 640 320 640 C320 640 360 790 360 790 C360 790 235 790 235 790 L235 790 Z M127 0 C127 0 185 0 185 0 C185 0 185 3 185 3 C185 3 185 5 185 5 C185 5 185 770 185 770 C185 770 185 780 185 780 C185 780 127 780 127 780 C104 781 92 781 70 780 C70 780 70 775 70 775 C70 775 70 5 70 5 C70 5 70 0 70 0 C70 0 127 0 127 0 L127 0 Z " />
<glyph glyph-name="Lslash" unicode="&#x141;" horiz-adv-x="571" d="M8 310 C8 310 88 332 88 332 C88 332 88 5 88 5 C88 5 88 0 88 0 C88 0 152 0 152 0 C152 0 216 0 216 0 C216 0 541 0 541 0 C541 0 541 55 541 55 C541 55 541 109 541 109 C541 110 541 110 539 109 C537 108 536 110 536 109 C536 109 216 109 216 109 C216 109 216 366 216 366 C216 366 379 410 379 410 C379 410 379 499 379 499 C379 499 216 455 216 455 C216 455 216 804 216 804 C216 804 216 809 216 809 C216 809 152 809 152 809 C152 809 88 809 88 809 C88 809 88 804 88 804 C88 804 88 421 88 421 C88 421 8 399 8 399 C8 399 8 310 8 310 L8 310 Z " />
<glyph glyph-name="lslash" unicode="&#x142;" horiz-adv-x="254" d="M-10 296 C-10 296 70 325 70 325 C70 325 70 5 70 5 C70 5 70 0 70 0 C70 0 127 0 127 0 C127 0 185 0 185 0 C185 0 185 3 185 3 C185 3 185 5 185 5 C185 5 185 367 185 367 C185 367 265 396 265 396 C265 396 265 485 265 485 C265 485 185 456 185 456 C185 456 185 770 185 770 C185 770 185 780 185 780 C185 780 127 780 127 780 C104 781 92 781 70 780 C70 780 70 775 70 775 C70 775 70 414 70 414 C70 414 -10 385 -10 385 C-10 385 -10 296 -10 296 L-10 296 Z " />
<glyph glyph-name="Nacute" unicode="&#x143;" horiz-adv-x="752" d="M224 889 C224 889 329 889 329 889 C329 889 427 1039 427 1039 C427 1039 277 1039 277 1039 C277 1039 224 889 224 889 L224 889 Z M667 804 C667 804 668 804 668 804 C667 803 667 804 667 804 L667 804 Z M533 804 C533 804 533 194 533 194 C533 194 228 809 228 809 C228 809 220 809 220 809 C220 809 153 809 153 809 C153 809 85 809 85 809 C85 809 85 804 85 804 C85 804 85 5 85 5 C85 5 85 0 85 0 C85 0 153 0 153 0 C153 0 220 0 220 0 C220 0 220 3 220 3 C220 3 220 5 220 5 C220 5 220 537 220 537 C220 537 487 0 487 0 C487 0 533 0 533 0 C533 0 629 0 629 0 C629 0 668 0 668 0 C668 0 668 804 668 804 C668 804 668 806 668 806 C668 806 668 809 668 809 C668 809 601 809 601 809 C601 809 533 809 533 809 C533 809 533 804 533 804 L533 804 Z " />
<glyph glyph-name="nacute" unicode="&#x144;" horiz-adv-x="550" d="M225 630 C225 630 330 630 330 630 C330 630 428 780 428 780 C428 780 278 780 278 780 C278 780 225 630 225 630 L225 630 Z M428 0 C428 0 485 0 485 0 C485 0 485 5 485 5 C485 5 485 345 485 345 C485 530 455 555 332 555 C259 555 213 545 185 517 C185 517 185 540 185 540 C185 540 185 550 185 550 C185 550 128 550 128 550 C105 551 93 551 70 550 C70 550 70 545 70 545 C70 545 70 5 70 5 C70 5 70 0 70 0 C70 0 128 0 128 0 C128 0 185 0 185 0 C185 0 185 5 185 5 C185 5 185 350 185 350 C185 428 205 447 286 447 C353 447 370 435 370 345 C370 345 370 5 370 5 C370 5 370 0 370 0 C370 0 428 0 428 0 L428 0 Z " />
<glyph glyph-name="Ncaron" unicode="&#x147;" horiz-adv-x="752" d="M377 979 C377 979 442 1039 442 1039 C442 1039 547 1039 547 1039 C547 1039 435 889 435 889 C435 889 319 889 319 889 C319 889 207 1039 207 1039 C207 1039 312 1039 312 1039 C312 1039 377 979 377 979 L377 979 Z M667 804 C667 804 668 804 668 804 C667 803 667 804 667 804 L667 804 Z M533 804 C533 804 533 194 533 194 C533 194 228 809 228 809 C228 809 220 809 220 809 C220 809 153 809 153 809 C153 809 85 809 85 809 C85 809 85 804 85 804 C85 804 85 5 85 5 C85 5 85 0 85 0 C85 0 153 0 153 0 C153 0 220 0 220 0 C220 0 220 3 220 3 C220 3 220 5 220 5 C220 5 220 537 220 537 C220 537 487 0 487 0 C487 0 533 0 533 0 C533 0 629 0 629 0 C629 0 668 0 668 0 C668 0 668 804 668 804 C668 804 668 806 668 806 C668 806 668 809 668 809 C668 809 601 809 601 809 C601 809 533 809 533 809 C533 809 533 804 533 804 L533 804 Z " />
<glyph glyph-name="ncaron" unicode="&#x148;" horiz-adv-x="550" d="M278 720 C278 720 343 780 343 780 C343 780 448 780 448 780 C448 780 336 630 336 630 C336 630 220 630 220 630 C220 630 108 780 108 780 C108 780 213 780 213 780 C213 780 278 720 278 720 L278 720 Z M428 0 C428 0 485 0 485 0 C485 0 485 5 485 5 C485 5 485 345 485 345 C485 530 455 555 332 555 C259 555 213 545 185 517 C185 517 185 540 185 540 C185 540 185 550 185 550 C185 550 128 550 128 550 C105 551 93 551 70 550 C70 550 70 545 70 545 C70 545 70 5 70 5 C70 5 70 0 70 0 C70 0 128 0 128 0 C128 0 185 0 185 0 C185 0 185 5 185 5 C185 5 185 350 185 350 C185 428 205 447 286 447 C353 447 370 435 370 345 C370 345 370 5 370 5 C370 5 370 0 370 0 C370 0 428 0 428 0 L428 0 Z " />
<glyph glyph-name="Omacron" unicode="&#x14c;" horiz-adv-x="814" d="M268 889 C268 889 548 889 548 889 C548 889 548 969 548 969 C548 969 268 969 268 969 C268 969 268 889 268 889 L268 889 Z M408 99 C237 99 194 160 194 404 C194 636 245 709 408 709 C570 709 621 636 621 404 C621 160 579 99 408 99 L408 99 Z M57 404 C57 72 127 -10 408 -10 C689 -10 759 72 759 404 C759 720 675 819 408 819 C141 819 57 720 57 404 L57 404 Z " />
<glyph glyph-name="omacron" unicode="&#x14d;" horiz-adv-x="590" d="M155 630 C155 630 435 630 435 630 C435 630 435 710 435 710 C435 710 155 710 155 710 C155 710 155 630 155 630 L155 630 Z M295 79 C184 79 175 118 175 275 C175 456 199 471 295 471 C406 471 415 432 415 275 C415 94 391 79 295 79 L295 79 Z M50 275 C50 47 69 -10 295 -10 C491 -10 540 12 540 275 C540 503 521 560 295 560 C99 560 50 538 50 275 L50 275 Z " />
<glyph glyph-name="Obreve" unicode="&#x14e;" horiz-adv-x="814" d="M257 1024 C257 908 287 879 408 879 C529 879 559 908 559 1024 C559 1024 474 1024 474 1024 C474 972 461 959 408 959 C355 959 342 972 342 1024 C342 1024 257 1024 257 1024 L257 1024 Z M408 99 C237 99 194 160 194 404 C194 636 245 709 408 709 C570 709 621 636 621 404 C621 160 579 99 408 99 L408 99 Z M57 404 C57 72 127 -10 408 -10 C689 -10 759 72 759 404 C759 720 675 819 408 819 C141 819 57 720 57 404 L57 404 Z " />
<glyph glyph-name="obreve" unicode="&#x14f;" horiz-adv-x="590" d="M144 765 C144 649 174 620 295 620 C416 620 446 649 446 765 C446 765 361 765 361 765 C361 713 348 700 295 700 C242 700 229 713 229 765 C229 765 144 765 144 765 L144 765 Z M295 79 C184 79 175 118 175 275 C175 456 199 471 295 471 C406 471 415 432 415 275 C415 94 391 79 295 79 L295 79 Z M50 275 C50 47 69 -10 295 -10 C491 -10 540 12 540 275 C540 503 521 560 295 560 C99 560 50 538 50 275 L50 275 Z " />
<glyph glyph-name="Racute" unicode="&#x154;" horiz-adv-x="624" d="M285 889 C285 889 390 889 390 889 C390 889 488 1039 488 1039 C488 1039 338 1039 338 1039 C338 1039 285 889 285 889 L285 889 Z M616 5 C616 5 615 5 615 5 C615 5 435 326 435 326 C568 339 589 391 589 566 C589 780 558 809 326 809 C326 809 215 809 215 809 C215 809 151 809 151 809 C151 809 119 809 119 809 C119 809 87 809 87 809 C87 809 87 804 87 804 C87 804 87 5 87 5 C87 5 87 0 87 0 C87 0 151 0 151 0 C151 0 215 0 215 0 C215 0 215 5 215 5 C215 5 215 322 215 322 C215 322 290 322 290 322 C290 322 471 0 471 0 C471 0 545 0 545 0 C545 0 618 0 618 0 C618 0 617 3 617 3 C617 3 616 5 616 5 L616 5 Z M215 426 C215 426 215 704 215 704 C215 704 320 704 320 704 C444 704 461 688 461 566 C461 443 445 426 330 426 C330 426 215 426 215 426 L215 426 Z " />
<glyph glyph-name="racute" unicode="&#x155;" horiz-adv-x="370" d="M158 630 C158 630 263 630 263 630 C263 630 360 780 360 780 C360 780 210 780 210 780 C210 780 158 630 158 630 L158 630 Z M350 420 C350 420 350 550 350 550 C350 550 340 550 340 550 C260 550 213 539 185 509 C185 509 185 540 185 540 C185 540 185 550 185 550 C185 550 128 550 128 550 C105 551 93 551 70 550 C70 550 70 545 70 545 C70 545 70 5 70 5 C70 5 70 0 70 0 C70 0 128 0 128 0 C128 0 185 0 185 0 C185 0 185 5 185 5 C185 5 185 260 185 260 C185 388 191 420 329 420 C329 420 350 420 350 420 L350 420 Z " />
<glyph glyph-name="Rcaron" unicode="&#x158;" horiz-adv-x="624" d="M338 979 C338 979 403 1039 403 1039 C403 1039 508 1039 508 1039 C508 1039 396 889 396 889 C396 889 280 889 280 889 C280 889 168 1039 168 1039 C168 1039 273 1039 273 1039 C273 1039 338 979 338 979 L338 979 Z M616 5 C616 5 615 5 615 5 C615 5 435 326 435 326 C568 339 589 391 589 566 C589 780 558 809 326 809 C326 809 215 809 215 809 C215 809 151 809 151 809 C151 809 119 809 119 809 C119 809 87 809 87 809 C87 809 87 804 87 804 C87 804 87 5 87 5 C87 5 87 0 87 0 C87 0 151 0 151 0 C151 0 215 0 215 0 C215 0 215 5 215 5 C215 5 215 322 215 322 C215 322 290 322 290 322 C290 322 471 0 471 0 C471 0 545 0 545 0 C545 0 618 0 618 0 C618 0 617 3 617 3 C617 3 616 5 616 5 L616 5 Z M215 426 C215 426 215 704 215 704 C215 704 320 704 320 704 C444 704 461 688 461 566 C461 443 445 426 330 426 C330 426 215 426 215 426 L215 426 Z " />
<glyph glyph-name="rcaron" unicode="&#x159;" horiz-adv-x="370" d="M210 720 C210 720 275 780 275 780 C275 780 380 780 380 780 C380 780 268 630 268 630 C268 630 152 630 152 630 C152 630 40 780 40 780 C40 780 145 780 145 780 C145 780 210 720 210 720 L210 720 Z M350 420 C350 420 350 550 350 550 C350 550 340 550 340 550 C260 550 213 539 185 509 C185 509 185 540 185 540 C185 540 185 550 185 550 C185 550 128 550 128 550 C105 551 93 551 70 550 C70 550 70 545 70 545 C70 545 70 5 70 5 C70 5 70 0 70 0 C70 0 128 0 128 0 C128 0 185 0 185 0 C185 0 185 5 185 5 C185 5 185 260 185 260 C185 388 191 420 329 420 C329 420 350 420 350 420 L350 420 Z " />
<glyph glyph-name="Sacute" unicode="&#x15a;" horiz-adv-x="625" d="M253 889 C253 889 358 889 358 889 C358 889 455 1039 455 1039 C455 1039 305 1039 305 1039 C305 1039 253 889 253 889 L253 889 Z M532 720 C532 720 554 780 554 780 C553 781 551 781 549 782 C549 782 549 782 549 782 C549 782 549 782 549 782 C514 793 407 819 275 819 C84 819 37 773 37 588 C37 427 68 399 295 351 C442 321 462 306 462 222 C462 130 448 107 345 107 C282 107 135 163 87 184 C87 184 56 48 56 48 C92 33 223 -10 345 -10 C561 -10 590 37 590 227 C590 403 559 433 330 481 C188 510 169 524 169 602 C169 680 190 699 275 699 C376 699 481 670 510 660 C510 660 532 720 532 720 L532 720 Z " />
<glyph glyph-name="sacute" unicode="&#x15b;" horiz-adv-x="514" d="M205 630 C205 630 310 630 310 630 C310 630 408 780 408 780 C408 780 258 780 258 780 C258 780 205 630 205 630 L205 630 Z M49 28 C49 28 58 64 58 64 C58 64 66 61 66 61 C66 61 49 28 49 28 L49 28 Z M49 28 C49 28 40 9 40 9 C46 6 108 -5 271 -5 C442 -5 484 26 484 151 C484 265 460 297 279 326 C181 342 168 357 168 409 C168 455 186 466 258 466 C334 466 398 446 413 440 C413 440 435 489 435 489 C435 489 441 503 441 503 C441 503 437 488 437 488 C437 488 435 489 435 489 C435 489 441 503 441 503 C441 503 457 538 457 538 C456 538 454 539 452 540 C452 540 452 540 452 540 C452 540 452 540 452 540 C433 545 372 555 258 555 C98 555 59 524 59 400 C59 285 82 252 251 224 C356 207 370 192 370 141 C370 99 350 89 271 89 C166 89 104 107 93 113 C93 113 49 27 49 27 C49 27 49 28 49 28 L49 28 Z " />
<glyph glyph-name="Scircumflex" unicode="&#x15c;" horiz-adv-x="625" d="M305 949 C305 949 370 889 370 889 C370 889 475 889 475 889 C475 889 363 1039 363 1039 C363 1039 247 1039 247 1039 C247 1039 135 889 135 889 C135 889 240 889 240 889 C240 889 305 949 305 949 L305 949 Z M532 720 C532 720 554 780 554 780 C553 781 551 781 549 782 C549 782 549 782 549 782 C549 782 549 782 549 782 C514 793 407 819 275 819 C84 819 37 773 37 588 C37 427 68 399 295 351 C442 321 462 306 462 222 C462 130 448 107 345 107 C282 107 135 163 87 184 C87 184 56 48 56 48 C92 33 223 -10 345 -10 C561 -10 590 37 590 227 C590 403 559 433 330 481 C188 510 169 524 169 602 C169 680 190 699 275 699 C376 699 481 670 510 660 C510 660 532 720 532 720 L532 720 Z " />
<glyph glyph-name="Scedilla" unicode="&#x15e;" horiz-adv-x="625" d="M339 -50 C339 -50 349 -10 349 -10 C561 -9 590 38 590 227 C590 403 559 433 330 481 C188 510 169 524 169 602 C169 680 190 699 275 699 C376 699 481 670 510 660 C510 660 532 720 532 720 C532 720 554 780 554 780 C553 781 551 781 549 782 C549 782 549 782 549 782 C549 782 549 782 549 782 C514 793 407 819 275 819 C84 819 37 773 37 588 C37 427 68 399 295 351 C442 321 462 306 462 222 C462 130 448 107 345 107 C282 107 135 163 87 184 C87 184 56 48 56 48 C88 35 197 -2 308 -9 C308 -9 286 -100 286 -100 C286 -100 322 -121 322 -121 C322 -121 323 -118 323 -118 C326 -107 332 -104 352 -104 C380 -104 387 -113 387 -150 C387 -186 379 -195 349 -195 C329 -195 321 -187 309 -154 C309 -154 262 -191 262 -191 C280 -238 297 -250 352 -250 C432 -250 452 -230 452 -150 C452 -67 434 -47 362 -47 C352 -47 345 -48 339 -50 C339 -50 339 -50 339 -50 L339 -50 Z " />
<glyph glyph-name="scedilla" unicode="&#x15f;" horiz-adv-x="514" d="M266 -50 C266 -50 278 -5 278 -5 C443 -4 484 28 484 151 C484 265 460 297 279 326 C181 342 168 357 168 409 C168 455 186 466 258 466 C334 466 398 446 413 440 C413 440 435 489 435 489 C435 489 441 503 441 503 C441 503 437 488 437 488 C437 488 435 489 435 489 C435 489 441 503 441 503 C441 503 457 538 457 538 C456 538 454 539 452 540 C452 540 452 540 452 540 C452 540 452 540 452 540 C433 545 372 555 258 555 C98 555 59 524 59 400 C59 285 82 252 251 224 C356 207 370 192 370 141 C370 99 350 89 271 89 C166 89 104 107 93 113 C93 113 49 27 49 27 C49 27 49 28 49 28 C49 28 40 9 40 9 C46 6 99 -3 236 -5 C236 -5 212 -100 212 -100 C212 -100 248 -121 248 -121 C248 -121 249 -117 249 -117 C252 -106 259 -104 278 -104 C306 -104 313 -113 313 -150 C313 -186 305 -195 275 -195 C255 -195 247 -187 235 -154 C235 -154 188 -191 188 -191 C206 -238 224 -250 278 -250 C358 -250 378 -230 378 -150 C378 -67 360 -47 288 -47 C278 -47 271 -48 266 -50 C266 -50 266 -50 266 -50 L266 -50 Z M49 28 C49 28 58 64 58 64 C58 64 66 61 66 61 C66 61 49 28 49 28 L49 28 Z " />
<glyph glyph-name="Scaron" unicode="&#x160;" horiz-adv-x="625" d="M305 979 C305 979 370 1039 370 1039 C370 1039 475 1039 475 1039 C475 1039 363 889 363 889 C363 889 247 889 247 889 C247 889 135 1039 135 1039 C135 1039 240 1039 240 1039 C240 1039 305 979 305 979 L305 979 Z M532 720 C532 720 554 780 554 780 C553 781 551 781 549 782 C549 782 549 782 549 782 C549 782 549 782 549 782 C514 793 407 819 275 819 C84 819 37 773 37 588 C37 427 68 399 295 351 C442 321 462 306 462 222 C462 130 448 107 345 107 C282 107 135 163 87 184 C87 184 56 48 56 48 C92 33 223 -10 345 -10 C561 -10 590 37 590 227 C590 403 559 433 330 481 C188 510 169 524 169 602 C169 680 190 699 275 699 C376 699 481 670 510 660 C510 660 532 720 532 720 L532 720 Z " />
<glyph glyph-name="scaron" unicode="&#x161;" horiz-adv-x="514" d="M258 720 C258 720 323 780 323 780 C323 780 428 780 428 780 C428 780 316 630 316 630 C316 630 200 630 200 630 C200 630 88 780 88 780 C88 780 193 780 193 780 C193 780 258 720 258 720 L258 720 Z M49 28 C49 28 58 64 58 64 C58 64 66 61 66 61 C66 61 49 28 49 28 L49 28 Z M49 28 C49 28 40 9 40 9 C46 6 108 -5 271 -5 C442 -5 484 26 484 151 C484 265 460 297 279 326 C181 342 168 357 168 409 C168 455 186 466 258 466 C334 466 398 446 413 440 C413 440 435 489 435 489 C435 489 441 503 441 503 C441 503 437 488 437 488 C437 488 435 489 435 489 C435 489 441 503 441 503 C441 503 457 538 457 538 C456 538 454 539 452 540 C452 540 452 540 452 540 C452 540 452 540 452 540 C433 545 372 555 258 555 C98 555 59 524 59 400 C59 285 82 252 251 224 C356 207 370 192 370 141 C370 99 350 89 271 89 C166 89 104 107 93 113 C93 113 49 27 49 27 C49 27 49 28 49 28 L49 28 Z " />
<glyph glyph-name="Tcaron" unicode="&#x164;" horiz-adv-x="595" d="M298 979 C298 979 363 1039 363 1039 C363 1039 468 1039 468 1039 C468 1039 356 889 356 889 C356 889 240 889 240 889 C240 889 128 1039 128 1039 C128 1039 233 1039 233 1039 C233 1039 298 979 298 979 L298 979 Z M298 0 C298 0 362 0 362 0 C362 0 362 3 362 3 C362 3 362 5 362 5 C362 5 362 699 362 699 C362 699 580 699 580 699 C580 699 585 699 585 699 C585 699 585 754 585 754 C585 754 585 809 585 809 C585 809 362 809 362 809 C362 809 233 809 233 809 C233 809 10 809 10 809 C10 809 10 754 10 754 C10 754 10 699 10 699 C10 699 15 699 15 699 C15 699 233 699 233 699 C233 699 233 5 233 5 C233 5 233 0 233 0 C233 0 298 0 298 0 L298 0 Z " />
<glyph glyph-name="tcaron" unicode="&#x165;" horiz-adv-x="345" d="M255 790 C255 790 255 640 255 640 C255 640 340 640 340 640 C340 640 380 790 380 790 C380 790 255 790 255 790 L255 790 Z M315 550 C315 550 205 550 205 550 C205 550 205 790 205 790 C205 790 90 693 90 693 C90 693 90 550 90 550 C90 550 10 550 10 550 C10 550 10 456 10 456 C10 456 90 456 90 456 C90 456 90 145 90 145 C90 0 58 0 202 0 C202 0 315 0 315 0 C315 0 315 99 315 99 C315 99 255 99 255 99 C191 99 205 99 205 145 C205 145 205 456 205 456 C205 456 315 456 315 456 C315 456 315 550 315 550 L315 550 Z " />
<glyph glyph-name="Utilde" unicode="&#x168;" horiz-adv-x="732" d="M286 879 C286 935 290 949 307 949 C371 949 334 869 433 869 C512 869 531 901 531 1029 C531 1029 446 1029 446 1029 C446 972 442 958 425 958 C362 958 399 1039 299 1039 C221 1039 201 1007 201 879 C201 879 286 879 286 879 L286 879 Z M80 804 C80 804 80 312 80 312 C80 28 114 -10 366 -10 C619 -10 653 28 653 312 C653 312 653 804 653 804 C653 804 653 809 653 809 C653 809 586 809 586 809 C586 809 519 809 519 809 C519 809 519 804 519 804 C519 804 519 336 519 336 C519 140 501 114 366 114 C227 114 208 140 208 335 C208 335 208 804 208 804 C208 804 208 809 208 809 C208 809 144 809 144 809 C144 809 80 809 80 809 C80 809 80 804 80 804 L80 804 Z " />
<glyph glyph-name="utilde" unicode="&#x169;" horiz-adv-x="550" d="M193 630 C193 687 197 701 214 701 C277 701 240 620 340 620 C418 620 438 652 438 780 C438 780 353 780 353 780 C353 724 349 710 332 710 C268 710 306 790 206 790 C127 790 108 758 108 630 C108 630 193 630 193 630 L193 630 Z M365 545 C365 545 366 545 366 545 C366 545 366 217 366 217 C366 122 346 99 265 99 C176 99 180 111 180 200 C180 200 180 550 180 550 C180 550 123 550 123 550 C100 551 88 551 65 550 C65 550 65 545 65 545 C65 545 65 200 65 200 C65 15 58 -10 227 -10 C298 -10 341 2 366 39 C366 39 366 10 366 10 C366 10 366 0 366 0 C366 0 423 0 423 0 C423 0 481 0 481 0 C481 0 481 5 481 5 C481 5 481 10 481 10 C481 10 481 550 481 550 C481 550 423 550 423 550 C400 551 388 551 365 550 C365 550 365 545 365 545 L365 545 Z " />
<glyph glyph-name="Umacron" unicode="&#x16a;" horiz-adv-x="732" d="M226 879 C226 879 506 879 506 879 C506 879 506 959 506 959 C506 959 226 959 226 959 C226 959 226 879 226 879 L226 879 Z M80 804 C80 804 80 312 80 312 C80 28 114 -10 366 -10 C619 -10 653 28 653 312 C653 312 653 804 653 804 C653 804 653 809 653 809 C653 809 586 809 586 809 C586 809 519 809 519 809 C519 809 519 804 519 804 C519 804 519 336 519 336 C519 140 501 114 366 114 C227 114 208 140 208 335 C208 335 208 804 208 804 C208 804 208 809 208 809 C208 809 144 809 144 809 C144 809 80 809 80 809 C80 809 80 804 80 804 L80 804 Z " />
<glyph glyph-name="umacron" unicode="&#x16b;" horiz-adv-x="550" d="M133 630 C133 630 413 630 413 630 C413 630 413 710 413 710 C413 710 133 710 133 710 C133 710 133 630 133 630 L133 630 Z M365 545 C365 545 366 545 366 545 C366 545 366 217 366 217 C366 122 346 99 265 99 C176 99 180 111 180 200 C180 200 180 550 180 550 C180 550 123 550 123 550 C100 551 88 551 65 550 C65 550 65 545 65 545 C65 545 65 200 65 200 C65 15 58 -10 227 -10 C298 -10 341 2 366 39 C366 39 366 10 366 10 C366 10 366 0 366 0 C366 0 423 0 423 0 C423 0 481 0 481 0 C481 0 481 5 481 5 C481 5 481 10 481 10 C481 10 481 550 481 550 C481 550 423 550 423 550 C400 551 388 551 365 550 C365 550 365 545 365 545 L365 545 Z " />
<glyph glyph-name="Ubreve" unicode="&#x16c;" horiz-adv-x="732" d="M215 1014 C215 898 245 869 366 869 C488 869 518 898 518 1014 C518 1014 433 1014 433 1014 C433 962 420 949 366 949 C313 949 300 962 300 1014 C300 1014 215 1014 215 1014 L215 1014 Z M80 804 C80 804 80 312 80 312 C80 28 114 -10 366 -10 C619 -10 653 28 653 312 C653 312 653 804 653 804 C653 804 653 809 653 809 C653 809 586 809 586 809 C586 809 519 809 519 809 C519 809 519 804 519 804 C519 804 519 336 519 336 C519 140 501 114 366 114 C227 114 208 140 208 335 C208 335 208 804 208 804 C208 804 208 809 208 809 C208 809 144 809 144 809 C144 809 80 809 80 809 C80 809 80 804 80 804 L80 804 Z " />
<glyph glyph-name="ubreve" unicode="&#x16d;" horiz-adv-x="550" d="M122 765 C122 649 152 620 273 620 C394 620 424 649 424 765 C424 765 339 765 339 765 C339 713 326 700 273 700 C220 700 207 713 207 765 C207 765 122 765 122 765 L122 765 Z M365 545 C365 545 366 545 366 545 C366 545 366 217 366 217 C366 122 346 99 265 99 C176 99 180 111 180 200 C180 200 180 550 180 550 C180 550 123 550 123 550 C100 551 88 551 65 550 C65 550 65 545 65 545 C65 545 65 200 65 200 C65 15 58 -10 227 -10 C298 -10 341 2 366 39 C366 39 366 10 366 10 C366 10 366 0 366 0 C366 0 423 0 423 0 C423 0 481 0 481 0 C481 0 481 5 481 5 C481 5 481 10 481 10 C481 10 481 550 481 550 C481 550 423 550 423 550 C400 551 388 551 365 550 C365 550 365 545 365 545 L365 545 Z " />
<glyph glyph-name="Uring" unicode="&#x16e;" horiz-adv-x="732" d="M366 932 C340 932 337 936 337 964 C337 991 342 996 366 996 C390 996 395 991 395 964 C395 936 392 932 366 932 L366 932 Z M280 964 C280 889 290 879 366 879 C442 879 452 889 452 964 C452 1035 438 1049 366 1049 C294 1049 280 1035 280 964 L280 964 Z M80 804 C80 804 80 312 80 312 C80 28 114 -10 366 -10 C619 -10 653 28 653 312 C653 312 653 804 653 804 C653 804 653 809 653 809 C653 809 586 809 586 809 C586 809 519 809 519 809 C519 809 519 804 519 804 C519 804 519 336 519 336 C519 140 501 114 366 114 C227 114 208 140 208 335 C208 335 208 804 208 804 C208 804 208 809 208 809 C208 809 144 809 144 809 C144 809 80 809 80 809 C80 809 80 804 80 804 L80 804 Z " />
<glyph glyph-name="uring" unicode="&#x16f;" horiz-adv-x="550" d="M273 683 C247 683 244 687 244 715 C244 742 249 747 273 747 C297 747 302 742 302 715 C302 687 299 683 273 683 L273 683 Z M187 715 C187 640 197 630 273 630 C349 630 359 640 359 715 C359 787 345 800 273 800 C201 800 187 787 187 715 L187 715 Z M365 545 C365 545 366 545 366 545 C366 545 366 217 366 217 C366 122 346 99 265 99 C176 99 180 111 180 200 C180 200 180 550 180 550 C180 550 123 550 123 550 C100 551 88 551 65 550 C65 550 65 545 65 545 C65 545 65 200 65 200 C65 15 58 -10 227 -10 C298 -10 341 2 366 39 C366 39 366 10 366 10 C366 10 366 0 366 0 C366 0 423 0 423 0 C423 0 481 0 481 0 C481 0 481 5 481 5 C481 5 481 10 481 10 C481 10 481 550 481 550 C481 550 423 550 423 550 C400 551 388 551 365 550 C365 550 365 545 365 545 L365 545 Z " />
<glyph glyph-name="Wcircumflex" unicode="&#x174;" horiz-adv-x="824" d="M413 949 C413 949 478 889 478 889 C478 889 583 889 583 889 C583 889 471 1039 471 1039 C471 1039 355 1039 355 1039 C355 1039 243 889 243 889 C243 889 348 889 348 889 C348 889 413 949 413 949 L413 949 Z M813 804 C813 803 814 804 814 806 C815 808 815 808 814 809 C814 809 742 809 742 809 C742 809 670 809 670 809 C670 809 669 804 669 804 C669 804 669 804 669 804 C669 804 669 804 669 804 C669 804 585 304 585 304 C585 304 475 796 475 796 C475 796 478 809 478 809 C478 809 472 809 472 809 C472 809 348 809 348 809 C348 809 238 303 238 303 C238 303 150 804 150 804 C150 804 150 804 150 804 C151 803 150 804 150 806 C150 808 150 808 149 809 C149 809 80 809 80 809 C80 809 12 809 12 809 C11 808 11 808 12 806 C12 804 12 803 13 804 C13 804 168 0 168 0 C168 0 172 0 172 0 C172 0 291 0 291 0 C291 0 412 524 412 524 C412 524 530 0 530 0 C530 0 534 0 534 0 C534 0 653 0 653 0 C653 0 813 804 813 804 L813 804 Z " />
<glyph glyph-name="Ycircumflex" unicode="&#x176;" horiz-adv-x="627" d="M318 949 C318 949 383 889 383 889 C383 889 488 889 488 889 C488 889 376 1039 376 1039 C376 1039 260 1039 260 1039 C260 1039 148 889 148 889 C148 889 253 889 253 889 C253 889 318 949 318 949 L318 949 Z M253 5 C253 5 253 0 253 0 C253 0 317 0 317 0 C317 0 381 0 381 0 C381 0 381 5 381 5 C381 5 381 347 381 347 C381 347 615 804 615 804 C617 803 618 808 618 809 C618 809 552 809 552 809 C552 809 486 809 486 809 C486 809 315 469 315 469 C315 469 146 804 146 804 C146 804 146 804 146 804 C145 806 144 808 143 809 C143 809 80 809 80 809 C80 809 18 809 18 809 C17 808 17 808 19 806 C19 806 20 804 20 804 C20 804 21 804 21 804 C21 804 253 349 253 349 C253 349 253 5 253 5 L253 5 Z " />
<glyph glyph-name="Ydieresis" unicode="&#x178;" horiz-adv-x="627" d="M336 889 C336 889 461 889 461 889 C461 889 461 1014 461 1014 C461 1014 336 1014 336 1014 C336 1014 336 889 336 889 L336 889 Z M175 889 C175 889 300 889 300 889 C300 889 300 1014 300 1014 C300 1014 175 1014 175 1014 C175 1014 175 889 175 889 L175 889 Z M253 5 C253 5 253 0 253 0 C253 0 317 0 317 0 C317 0 381 0 381 0 C381 0 381 5 381 5 C381 5 381 347 381 347 C381 347 615 804 615 804 C617 803 618 808 618 809 C618 809 552 809 552 809 C552 809 486 809 486 809 C486 809 315 469 315 469 C315 469 146 804 146 804 C146 804 146 804 146 804 C145 806 144 808 143 809 C143 809 80 809 80 809 C80 809 18 809 18 809 C17 808 17 808 19 806 C19 806 20 804 20 804 C20 804 21 804 21 804 C21 804 253 349 253 349 C253 349 253 5 253 5 L253 5 Z " />
<glyph glyph-name="Zacute" unicode="&#x179;" horiz-adv-x="655" d="M283 889 C283 889 388 889 388 889 C388 889 485 1039 485 1039 C485 1039 335 1039 335 1039 C335 1039 283 889 283 889 L283 889 Z M610 55 C610 55 610 109 610 109 C610 110 610 110 608 109 C605 110 605 110 605 109 C605 109 203 109 203 109 C203 109 610 699 610 699 C610 699 610 809 610 809 C610 809 60 809 60 809 C60 809 60 754 60 754 C60 754 60 699 60 699 C60 699 65 699 65 699 C65 699 452 699 452 699 C452 699 45 109 45 109 C45 109 45 0 45 0 C45 0 610 0 610 0 C610 0 610 55 610 55 L610 55 Z " />
<glyph glyph-name="zacute" unicode="&#x17a;" horiz-adv-x="460" d="M190 630 C190 630 295 630 295 630 C295 630 393 780 393 780 C393 780 243 780 243 780 C243 780 190 630 190 630 L190 630 Z M45 550 C45 550 45 503 45 503 C45 503 45 456 45 456 C45 456 50 456 50 456 C50 456 278 456 278 456 C278 456 30 73 30 73 C30 73 30 0 30 0 C30 0 440 0 440 0 C440 0 440 47 440 47 C440 47 440 94 440 94 C440 94 435 94 435 94 C435 94 170 94 170 94 C170 94 424 477 424 477 C424 477 424 550 424 550 C424 550 45 550 45 550 L45 550 Z " />
<glyph glyph-name="Zdotaccent" unicode="&#x17b;" horiz-adv-x="655" d="M273 889 C273 889 398 889 398 889 C398 889 398 1014 398 1014 C398 1014 273 1014 273 1014 C273 1014 273 889 273 889 L273 889 Z M610 55 C610 55 610 109 610 109 C610 110 610 110 608 109 C605 110 605 110 605 109 C605 109 203 109 203 109 C203 109 610 699 610 699 C610 699 610 809 610 809 C610 809 60 809 60 809 C60 809 60 754 60 754 C60 754 60 699 60 699 C60 699 65 699 65 699 C65 699 452 699 452 699 C452 699 45 109 45 109 C45 109 45 0 45 0 C45 0 610 0 610 0 C610 0 610 55 610 55 L610 55 Z " />
<glyph glyph-name="zdotaccent" unicode="&#x17c;" horiz-adv-x="460" d="M180 630 C180 630 305 630 305 630 C305 630 305 755 305 755 C305 755 180 755 180 755 C180 755 180 630 180 630 L180 630 Z M45 550 C45 550 45 503 45 503 C45 503 45 456 45 456 C45 456 50 456 50 456 C50 456 278 456 278 456 C278 456 30 73 30 73 C30 73 30 0 30 0 C30 0 440 0 440 0 C440 0 440 47 440 47 C440 47 440 94 440 94 C440 94 435 94 435 94 C435 94 170 94 170 94 C170 94 424 477 424 477 C424 477 424 550 424 550 C424 550 45 550 45 550 L45 550 Z " />
<glyph glyph-name="Zcaron" unicode="&#x17d;" horiz-adv-x="655" d="M335 979 C335 979 400 1039 400 1039 C400 1039 505 1039 505 1039 C505 1039 393 889 393 889 C393 889 277 889 277 889 C277 889 165 1039 165 1039 C165 1039 270 1039 270 1039 C270 1039 335 979 335 979 L335 979 Z M610 55 C610 55 610 109 610 109 C610 110 610 110 608 109 C605 110 605 110 605 109 C605 109 203 109 203 109 C203 109 610 699 610 699 C610 699 610 809 610 809 C610 809 60 809 60 809 C60 809 60 754 60 754 C60 754 60 699 60 699 C60 699 65 699 65 699 C65 699 452 699 452 699 C452 699 45 109 45 109 C45 109 45 0 45 0 C45 0 610 0 610 0 C610 0 610 55 610 55 L610 55 Z " />
<glyph glyph-name="zcaron" unicode="&#x17e;" horiz-adv-x="460" d="M243 720 C243 720 308 780 308 780 C308 780 413 780 413 780 C413 780 301 630 301 630 C301 630 185 630 185 630 C185 630 73 780 73 780 C73 780 178 780 178 780 C178 780 243 720 243 720 L243 720 Z M45 550 C45 550 45 503 45 503 C45 503 45 456 45 456 C45 456 50 456 50 456 C50 456 278 456 278 456 C278 456 30 73 30 73 C30 73 30 0 30 0 C30 0 440 0 440 0 C440 0 440 47 440 47 C440 47 440 94 440 94 C440 94 435 94 435 94 C435 94 170 94 170 94 C170 94 424 477 424 477 C424 477 424 550 424 550 C424 550 45 550 45 550 L45 550 Z " />
<glyph glyph-name="SmallLetterOwithogon" unicode="&#x1eb;" horiz-adv-x="754" d="M60 318 C60 55 124 -10 380 -10 C429 -10 472 -8 508 -2 C508 -2 570 -90 570 -90 C570 -90 646 -35 646 -35 C646 -35 602 29 602 29 C676 73 699 160 699 318 C699 568 623 646 380 646 C136 646 60 568 60 318 C60 318 60 318 60 318 L60 318 Z M442 91 C424 89 403 88 380 88 C223 88 184 134 184 318 C184 493 231 548 380 548 C528 548 575 493 575 318 C575 223 565 165 533 131 C533 131 466 229 466 229 C466 229 386 171 386 171 C386 171 442 91 442 91 L442 91 Z " />
<glyph glyph-name="CapitalLetterAwithdo" unicode="&#x226;" horiz-adv-x="723" d="M304 889 C304 889 429 889 429 889 C429 889 429 1014 429 1014 C429 1014 304 1014 304 1014 C304 1014 304 889 304 889 L304 889 Z M712 5 C712 5 711 5 711 5 C711 5 433 809 433 809 C433 809 430 809 430 809 C430 809 362 809 362 809 C362 809 299 809 299 809 C299 809 294 809 294 809 C293 808 293 808 293 806 C293 806 293 806 293 806 C293 806 292 804 292 804 C292 804 292 804 292 804 C292 804 9 2 9 2 C8 1 8 1 8 0 C8 0 80 0 80 0 C80 0 152 0 152 0 C152 0 152 1 152 1 C153 3 153 4 154 5 C154 5 154 5 154 5 C154 5 206 158 206 158 C206 158 522 158 522 158 C522 158 574 5 574 5 C574 5 574 5 574 5 C575 4 575 2 576 1 C576 1 576 0 576 0 C576 0 645 0 645 0 C645 0 713 0 713 0 C713 0 713 2 713 2 C713 2 712 5 712 5 L712 5 Z M242 262 C242 262 364 618 364 618 C364 618 513 184 513 184 C513 184 486 262 486 262 C486 262 242 262 242 262 L242 262 Z " />
<glyph glyph-name="LETTERSMALLCAPITALG" unicode="&#x262;" horiz-adv-x="712" d="M352 266 C352 266 552 266 552 266 C552 266 552 150 552 150 C494 100 473 88 424 88 C228 88 179 134 179 318 C179 502 228 548 424 548 C459 548 498 538 625 497 C625 497 633 554 633 554 C633 554 641 611 641 611 C639 612 638 612 636 613 C636 613 636 613 636 613 C636 613 636 613 636 613 C552 639 509 646 424 646 C128 646 55 581 55 318 C55 55 128 -10 424 -10 C532 -10 571 10 668 91 C668 91 668 364 668 364 C668 364 352 364 352 364 C352 364 352 266 352 266 L352 266 Z " />
<glyph glyph-name="LETTERSMALLCAPITALI" unicode="&#x26a;" horiz-adv-x="294" d="M209 636 C209 636 209 637 210 636 C210 636 209 636 209 636 C209 636 209 636 209 636 L209 636 Z M209 636 C186 637 175 637 152 636 C129 637 117 637 94 636 C94 636 94 631 94 631 C94 631 94 5 94 5 C94 5 94 0 94 0 C94 0 152 0 152 0 C152 0 210 0 210 0 C210 0 210 3 210 3 C210 3 210 5 210 5 C210 5 210 631 210 631 C210 631 210 634 210 634 C210 634 210 636 210 636 C210 636 210 636 209 636 L209 636 Z " />
<glyph glyph-name="LETTERSMALLCAPITALN" unicode="&#x274;" horiz-adv-x="659" d="M453 631 C453 631 453 168 453 168 C453 168 211 636 211 636 C211 636 210 636 210 636 C210 636 149 636 149 636 C125 637 113 637 89 636 C89 636 89 631 89 631 C89 631 89 5 89 5 C89 5 89 0 89 0 C89 0 149 0 149 0 C149 0 210 0 210 0 C210 0 210 3 210 3 C210 3 210 5 210 5 C210 5 210 401 210 401 C210 401 417 0 417 0 C417 0 453 0 453 0 C453 0 540 0 540 0 C540 0 574 0 574 0 C574 0 574 631 574 631 C574 631 574 636 574 636 C550 637 538 637 514 636 C490 635 478 637 453 636 C453 636 453 631 453 631 L453 631 Z " />
<glyph glyph-name="LETTERSMALLCAPITALR" unicode="&#x280;" horiz-adv-x="564" d="M489 0 C489 0 556 0 556 0 C556 0 554 3 554 3 C554 3 554 3 554 3 C554 3 378 259 378 259 C509 268 529 308 529 446 C529 613 499 636 279 636 C279 636 206 636 206 636 C206 636 148 636 148 636 C125 637 113 637 90 636 C90 636 90 631 90 631 C90 631 90 5 90 5 C90 5 90 0 90 0 C90 0 148 0 148 0 C148 0 206 0 206 0 C206 0 206 3 206 3 C206 3 206 5 206 5 C206 5 206 256 206 256 C206 256 247 256 247 256 C247 256 423 0 423 0 C423 0 489 0 489 0 L489 0 Z M206 350 C206 350 206 543 206 543 C206 543 274 543 274 543 C397 543 414 531 414 446 C414 361 398 350 282 350 C282 350 206 350 206 350 L206 350 Z " />
<glyph glyph-name="LETTERSMALLCAPITALY" unicode="&#x28f;" horiz-adv-x="566" d="M425 631 C425 631 425 631 425 631 C425 631 285 440 285 440 C285 440 141 636 141 636 C116 637 104 637 80 636 C55 637 43 637 19 636 C19 636 19 636 19 636 C19 636 18 636 18 636 C18 636 229 349 229 349 C229 349 229 5 229 5 C229 5 229 0 229 0 C229 0 287 0 287 0 C287 0 345 0 345 0 C345 0 345 3 345 3 C345 3 345 5 345 5 C345 5 345 347 345 347 C345 347 557 636 557 636 C557 636 556 636 556 636 C556 636 556 636 556 636 C531 637 519 637 493 636 C468 637 455 637 429 636 C429 638 425 631 425 631 C425 631 425 631 425 631 L425 631 Z M556 636 C557 636 557 636 557 636 C557 636 557 636 556 636 L556 636 Z M19 636 C18 636 18 636 18 636 C18 636 18 636 19 636 C19 636 19 636 19 636 L19 636 Z " />
<glyph glyph-name="LETTERSMALLCAPITALB" unicode="&#x299;" horiz-adv-x="665" d="M502 340 C546 361 560 400 560 469 C560 630 551 636 315 636 C315 636 206 636 206 636 C206 636 148 636 148 636 C125 637 113 637 90 636 C90 636 90 631 90 631 C90 631 90 5 90 5 C90 5 90 0 90 0 C90 0 148 0 148 0 C148 0 206 0 206 0 C206 0 385 0 385 0 C621 0 630 7 630 183 C630 287 602 328 502 340 C502 340 502 340 502 340 L502 340 Z M206 367 C206 367 206 543 206 543 C206 543 320 543 320 543 C436 543 441 540 441 460 C441 386 412 367 295 367 C295 367 206 367 206 367 L206 367 Z M206 94 C206 94 206 277 206 277 C206 277 335 276 335 276 C472 276 506 260 506 196 C506 98 500 94 351 94 C351 94 206 94 206 94 L206 94 Z " />
<glyph glyph-name="LETTERSMALLCAPITALH" unicode="&#x29c;" horiz-adv-x="691" d="M491 631 C491 631 492 631 492 631 C492 631 492 351 492 351 C492 351 206 351 206 351 C206 351 206 631 206 631 C206 631 206 634 206 634 C206 634 206 636 206 636 C206 636 206 636 205 636 C205 636 205 637 206 636 C206 636 205 636 205 636 C205 636 205 636 205 636 C183 637 171 637 148 636 C125 637 113 637 90 636 C90 636 90 631 90 631 C90 631 90 5 90 5 C90 5 90 0 90 0 C90 0 148 0 148 0 C148 0 206 0 206 0 C206 0 206 3 206 3 C206 3 206 5 206 5 C206 5 206 252 206 252 C206 252 492 252 492 252 C492 252 492 5 492 5 C492 5 491 5 491 5 C491 5 491 0 491 0 C491 0 492 0 492 0 C492 0 549 0 549 0 C549 0 607 0 607 0 C607 0 607 5 607 5 C607 5 607 631 607 631 C607 631 607 636 607 636 C584 637 572 637 549 636 C526 635 514 637 491 636 C491 636 491 631 491 631 L491 631 Z " />
<glyph glyph-name="LETTERSMALLCAPITALL" unicode="&#x29f;" horiz-adv-x="504" d="M209 636 C209 636 209 637 210 636 C210 636 209 636 209 636 C209 636 209 636 209 636 L209 636 Z M209 636 C186 637 175 637 152 636 C129 637 117 637 94 636 C94 636 94 631 94 631 C94 631 94 5 94 5 C94 5 94 0 94 0 C94 0 152 0 152 0 C152 0 210 0 210 0 C210 0 475 0 475 0 C475 0 475 49 475 49 C475 49 475 98 475 98 C475 99 474 99 472 98 C470 97 470 99 470 98 C470 98 210 98 210 98 C210 98 210 631 210 631 C210 631 210 634 210 634 C210 634 210 636 210 636 C210 636 210 636 209 636 L209 636 Z " />
<glyph glyph-name="LETTERSMALLCAPITALA" unicode="&#x1d00;" horiz-adv-x="663" d="M75 0 C75 0 138 0 138 0 C138 0 140 5 140 5 C140 5 140 5 140 5 C140 5 140 5 140 5 C140 5 192 134 192 134 C192 134 184 115 184 115 C184 115 488 115 488 115 C488 115 534 0 534 0 C534 0 594 0 594 0 C594 0 654 0 654 0 C654 0 652 5 652 5 C652 5 652 5 652 5 C652 5 652 5 652 5 C652 5 396 636 396 636 C396 636 392 636 392 636 C392 636 332 636 332 636 C308 637 296 637 272 636 C272 636 271 634 271 634 C271 634 271 634 271 633 C271 633 270 632 270 632 C270 632 270 631 270 631 C270 631 15 5 15 5 C15 5 15 5 15 5 C14 3 14 2 13 0 C13 0 75 0 75 0 L75 0 Z M220 206 C220 206 336 495 336 495 C336 495 480 134 480 134 C480 134 451 206 451 206 C451 206 220 206 220 206 L220 206 Z " />
<glyph glyph-name="LETTERSMALLCAPITALC" unicode="&#x1d04;" horiz-adv-x="638" d="M602 154 C484 101 442 88 390 88 C221 88 179 152 179 318 C179 484 221 548 390 548 C433 548 475 538 602 497 C602 497 610 554 610 554 C610 554 618 611 618 611 C616 612 615 612 613 613 C613 613 613 613 613 613 C613 613 613 613 613 613 C529 639 483 646 390 646 C122 646 55 555 55 318 C55 82 122 -10 390 -10 C484 -10 529 0 618 39 C618 39 602 154 602 154 L602 154 Z " />
<glyph glyph-name="LETTERSMALLCAPITALD" unicode="&#x1d05;" horiz-adv-x="705" d="M148 0 C148 0 206 0 206 0 C206 0 320 0 320 0 C619 0 650 30 650 318 C650 598 607 636 290 636 C290 636 206 636 206 636 C206 636 148 636 148 636 C125 637 113 637 90 636 C90 636 90 631 90 631 C90 631 90 5 90 5 C90 5 90 0 90 0 C90 0 148 0 148 0 L148 0 Z M206 94 C206 94 206 543 206 543 C206 543 295 543 295 543 C499 543 526 516 526 318 C526 115 506 94 312 94 C312 94 206 94 206 94 L206 94 Z " />
<glyph glyph-name="LETTERSMALLCAPITALE" unicode="&#x1d07;" horiz-adv-x="570" d="M521 49 C521 49 521 98 521 98 C521 99 520 99 518 98 C516 97 516 99 516 98 C516 98 206 98 206 98 C206 98 206 260 206 260 C206 260 481 260 481 260 C481 260 486 260 486 260 C486 260 486 307 486 307 C486 307 486 354 486 354 C486 354 483 354 483 354 C483 354 481 354 481 354 C481 354 206 354 206 354 C206 354 206 538 206 538 C206 538 501 538 501 538 C501 538 506 538 506 538 C506 538 506 587 506 587 C506 587 506 636 506 636 C506 636 206 636 206 636 C206 636 205 636 205 636 C205 636 148 636 148 636 C125 637 113 637 90 636 C90 636 90 631 90 631 C90 631 90 5 90 5 C90 5 90 0 90 0 C90 0 148 0 148 0 C148 0 205 0 205 0 C205 0 206 0 206 0 C206 0 521 0 521 0 C521 0 521 49 521 49 L521 49 Z " />
<glyph glyph-name="LETTERSMALLCAPITALJ" unicode="&#x1d0a;" horiz-adv-x="492" d="M52 280 C52 280 52 217 52 217 C52 8 66 -10 230 -10 C386 -10 407 29 407 187 C407 187 407 631 407 631 C408 632 408 632 407 634 C408 636 408 637 407 636 C384 637 373 637 350 636 C327 635 315 637 292 636 C292 636 292 631 292 631 C292 631 292 187 292 187 C292 119 285 102 230 102 C172 102 167 114 167 250 C167 250 168 300 168 300 C168 300 52 280 52 280 L52 280 Z " />
<glyph glyph-name="LETTERSMALLCAPITALK" unicode="&#x1d0b;" horiz-adv-x="608" d="M205 636 C205 636 205 637 206 636 C206 636 205 636 205 636 C205 636 205 636 205 636 C205 636 205 636 205 636 L205 636 Z M205 636 C183 637 171 637 148 636 C125 637 113 637 90 636 C90 636 90 631 90 631 C90 631 90 5 90 5 C90 5 90 0 90 0 C90 0 148 0 148 0 C148 0 206 0 206 0 C206 0 206 3 206 3 C206 3 206 5 206 5 C206 5 206 228 206 228 C206 228 208 228 208 228 C208 228 568 631 568 631 C568 631 568 631 568 631 C568 631 568 632 568 632 C568 632 572 636 572 636 C544 637 531 637 502 636 C474 637 460 637 432 636 C432 637 430 634 429 632 C429 632 206 374 206 374 C206 374 206 631 206 631 C206 631 206 634 206 634 C206 634 206 636 206 636 C206 636 206 636 205 636 C205 636 205 636 205 636 L205 636 Z M533 0 C533 0 598 0 598 0 C598 0 597 3 597 3 C597 3 595 5 595 5 C595 5 368 407 368 407 C368 407 285 314 285 314 C285 314 465 5 465 5 C465 5 465 5 465 5 C466 3 467 2 468 0 C468 0 533 0 533 0 L533 0 Z " />
<glyph glyph-name="LETTERSMALLCAPITALM" unicode="&#x1d0d;" horiz-adv-x="835" d="M694 0 C694 0 750 0 750 0 C750 0 750 5 750 5 C750 5 750 631 750 631 C750 631 750 636 750 636 C728 637 717 637 694 636 C694 636 678 636 678 636 C678 636 639 636 639 636 C639 636 566 636 566 636 C566 636 419 169 419 169 C419 169 268 636 268 636 C268 636 206 636 206 636 C206 636 162 636 162 636 C162 636 148 636 148 636 C125 637 113 637 90 636 C90 636 90 631 90 631 C90 631 90 5 90 5 C90 5 90 0 90 0 C90 0 148 0 148 0 C148 0 206 0 206 0 C206 0 206 5 206 5 C206 5 206 502 206 502 C206 502 368 8 368 8 C368 8 366 0 366 0 C366 0 371 0 371 0 C371 0 474 0 474 0 C474 0 639 514 639 514 C639 514 639 5 639 5 C639 5 639 0 639 0 C639 0 694 0 694 0 L694 0 Z " />
<glyph glyph-name="LETTERSMALLCAPITALO" unicode="&#x1d0f;" horiz-adv-x="754" d="M380 88 C223 88 184 134 184 318 C184 493 231 548 380 548 C528 548 575 493 575 318 C575 134 536 88 380 88 L380 88 Z M60 318 C60 55 124 -10 380 -10 C635 -10 699 55 699 318 C699 568 623 646 380 646 C136 646 60 568 60 318 L60 318 Z " />
<glyph glyph-name="LETTERSMALLCAPITALP" unicode="&#x1d18;" horiz-adv-x="564" d="M148 0 C148 0 206 0 206 0 C206 0 206 3 206 3 C206 3 206 5 206 5 C206 5 206 240 206 240 C206 240 279 240 279 240 C499 240 529 264 529 446 C529 613 499 636 279 636 C279 636 206 636 206 636 C206 636 148 636 148 636 C125 637 113 637 90 636 C90 636 90 631 90 631 C90 631 90 5 90 5 C90 5 90 0 90 0 C90 0 148 0 148 0 L148 0 Z M206 334 C206 334 206 543 206 543 C206 543 274 543 274 543 C397 543 414 531 414 446 C414 347 399 334 283 334 C283 334 206 334 206 334 L206 334 Z " />
<glyph glyph-name="LETTERSMALLCAPITALT" unicode="&#x1d1b;" horiz-adv-x="535" d="M268 0 C268 0 325 0 325 0 C325 0 325 5 325 5 C325 5 325 538 325 538 C325 538 520 538 520 538 C520 538 525 538 525 538 C525 538 525 587 525 587 C525 587 525 636 525 636 C525 636 325 636 325 636 C325 636 210 636 210 636 C210 636 10 636 10 636 C10 636 10 587 10 587 C10 587 10 538 10 538 C10 538 15 538 15 538 C15 538 210 538 210 538 C210 538 210 5 210 5 C210 5 210 0 210 0 C210 0 267 0 267 0 C267 0 268 0 268 0 L268 0 Z " />
<glyph glyph-name="LETTERSMALLCAPITALU" unicode="&#x1d1c;" horiz-adv-x="659" d="M198 636 C198 636 198 637 199 636 C199 636 198 636 198 636 C198 636 198 636 198 636 C198 636 198 636 198 636 L198 636 Z M198 636 C176 637 164 637 141 636 C118 637 106 637 83 636 C83 636 83 631 83 631 C83 631 83 245 83 245 C83 20 112 -10 331 -10 C550 -10 580 20 580 245 C580 245 580 631 580 631 C580 631 580 636 580 636 C556 637 544 637 519 636 C495 637 483 637 459 636 C459 636 459 631 459 631 C459 631 459 266 459 266 C459 122 444 102 331 102 C215 102 199 121 199 266 C199 266 199 631 199 631 C199 631 199 634 199 634 C199 634 199 636 199 636 C199 636 199 636 198 636 C198 636 198 636 198 636 L198 636 Z " />
<glyph glyph-name="LETTERSMALLCAPITALV" unicode="&#x1d20;" horiz-adv-x="560" d="M548 631 C548 631 549 631 549 631 C549 632 549 632 550 634 C551 636 551 637 550 636 C524 637 511 637 486 636 C460 637 447 637 421 636 C420 637 420 636 420 634 C419 632 419 632 419 631 C419 631 419 631 419 631 C419 631 282 175 282 175 C282 175 141 631 141 631 C141 631 141 631 141 631 C141 632 140 635 139 636 C114 637 102 637 77 636 C52 635 40 637 15 636 C15 636 229 0 229 0 C229 0 336 0 336 0 C336 0 341 0 341 0 C341 0 548 631 548 631 L548 631 Z " />
<glyph glyph-name="LETTERSMALLCAPITALW" unicode="&#x1d21;" horiz-adv-x="750" d="M610 631 C610 631 610 631 610 631 C610 631 534 239 534 239 C534 239 433 626 433 626 C433 626 436 636 436 636 C436 636 431 636 431 636 C431 636 320 636 320 636 C320 636 220 238 220 238 C220 238 140 631 140 631 C140 631 140 634 140 634 C140 634 139 636 139 636 C114 637 102 637 77 636 C52 635 40 637 15 636 C15 636 16 631 16 631 C16 631 16 631 16 631 C16 631 16 631 16 631 C16 631 156 0 156 0 C156 0 160 0 160 0 C160 0 268 0 268 0 C268 0 377 413 377 413 C377 413 483 0 483 0 C483 0 487 0 487 0 C487 0 595 0 595 0 C595 0 739 631 739 631 C739 631 739 631 739 631 C739 631 739 632 739 632 C739 632 739 632 739 632 C739 632 739 633 740 634 C741 636 741 637 740 636 C714 637 701 637 676 636 C650 637 637 637 611 636 C610 637 610 636 610 634 C610 632 609 632 610 631 C610 631 610 631 610 631 L610 631 Z " />
<glyph glyph-name="LETTERSMALLCAPITALZ" unicode="&#x1d22;" horiz-adv-x="595" d="M550 49 C550 49 550 98 550 98 C550 99 550 99 548 98 C545 99 545 99 545 98 C545 98 183 98 183 98 C183 98 550 538 550 538 C550 538 550 636 550 636 C550 636 60 636 60 636 C60 636 60 587 60 587 C60 587 60 538 60 538 C60 538 65 538 65 538 C65 538 411 538 411 538 C411 538 45 98 45 98 C45 98 45 0 45 0 C45 0 550 0 550 0 C550 0 550 49 550 49 L550 49 Z " />
<glyph glyph-name="Wgrave" unicode="&#x1e80;" horiz-adv-x="824" d="M360 889 C360 889 465 889 465 889 C465 889 413 1039 413 1039 C413 1039 263 1039 263 1039 C263 1039 360 889 360 889 L360 889 Z M813 804 C813 803 814 804 814 806 C815 808 815 808 814 809 C814 809 742 809 742 809 C742 809 670 809 670 809 C670 809 669 804 669 804 C669 804 669 804 669 804 C669 804 669 804 669 804 C669 804 585 304 585 304 C585 304 475 796 475 796 C475 796 478 809 478 809 C478 809 472 809 472 809 C472 809 348 809 348 809 C348 809 238 303 238 303 C238 303 150 804 150 804 C150 804 150 804 150 804 C151 803 150 804 150 806 C150 808 150 808 149 809 C149 809 80 809 80 809 C80 809 12 809 12 809 C11 808 11 808 12 806 C12 804 12 803 13 804 C13 804 168 0 168 0 C168 0 172 0 172 0 C172 0 291 0 291 0 C291 0 412 524 412 524 C412 524 530 0 530 0 C530 0 534 0 534 0 C534 0 653 0 653 0 C653 0 813 804 813 804 L813 804 Z " />
<glyph glyph-name="Wacute" unicode="&#x1e82;" horiz-adv-x="824" d="M360 889 C360 889 465 889 465 889 C465 889 563 1039 563 1039 C563 1039 413 1039 413 1039 C413 1039 360 889 360 889 L360 889 Z M813 804 C813 803 814 804 814 806 C815 808 815 808 814 809 C814 809 742 809 742 809 C742 809 670 809 670 809 C670 809 669 804 669 804 C669 804 669 804 669 804 C669 804 669 804 669 804 C669 804 585 304 585 304 C585 304 475 796 475 796 C475 796 478 809 478 809 C478 809 472 809 472 809 C472 809 348 809 348 809 C348 809 238 303 238 303 C238 303 150 804 150 804 C150 804 150 804 150 804 C151 803 150 804 150 806 C150 808 150 808 149 809 C149 809 80 809 80 809 C80 809 12 809 12 809 C11 808 11 808 12 806 C12 804 12 803 13 804 C13 804 168 0 168 0 C168 0 172 0 172 0 C172 0 291 0 291 0 C291 0 412 524 412 524 C412 524 530 0 530 0 C530 0 534 0 534 0 C534 0 653 0 653 0 C653 0 813 804 813 804 L813 804 Z " />
<glyph glyph-name="Wdieresis" unicode="&#x1e84;" horiz-adv-x="824" d="M431 889 C431 889 556 889 556 889 C556 889 556 1014 556 1014 C556 1014 431 1014 431 1014 C431 1014 431 889 431 889 L431 889 Z M270 889 C270 889 395 889 395 889 C395 889 395 1014 395 1014 C395 1014 270 1014 270 1014 C270 1014 270 889 270 889 L270 889 Z M813 804 C813 803 814 804 814 806 C815 808 815 808 814 809 C814 809 742 809 742 809 C742 809 670 809 670 809 C670 809 669 804 669 804 C669 804 669 804 669 804 C669 804 669 804 669 804 C669 804 585 304 585 304 C585 304 475 796 475 796 C475 796 478 809 478 809 C478 809 472 809 472 809 C472 809 348 809 348 809 C348 809 238 303 238 303 C238 303 150 804 150 804 C150 804 150 804 150 804 C151 803 150 804 150 806 C150 808 150 808 149 809 C149 809 80 809 80 809 C80 809 12 809 12 809 C11 808 11 808 12 806 C12 804 12 803 13 804 C13 804 168 0 168 0 C168 0 172 0 172 0 C172 0 291 0 291 0 C291 0 412 524 412 524 C412 524 530 0 530 0 C530 0 534 0 534 0 C534 0 653 0 653 0 C653 0 813 804 813 804 L813 804 Z " />
<glyph glyph-name="CapitalLetterEWITHTI" unicode="&#x1ebc;" horiz-adv-x="640" d="M251 889 C251 945 255 959 272 959 C336 959 298 879 398 879 C477 879 496 911 496 1039 C496 1039 411 1039 411 1039 C411 982 407 968 390 968 C327 968 364 1049 264 1049 C185 1049 166 1017 166 889 C166 889 251 889 251 889 L251 889 Z M590 55 C590 55 590 109 590 109 C590 110 590 110 588 109 C586 108 585 110 585 109 C585 109 215 109 215 109 C215 109 215 337 215 337 C215 337 550 337 550 337 C550 337 555 337 555 337 C555 337 555 390 555 390 C555 390 555 442 555 442 C555 442 553 442 553 442 C553 442 550 442 550 442 C550 442 215 442 215 442 C215 442 215 699 215 699 C215 699 570 699 570 699 C570 699 575 699 575 699 C575 699 575 754 575 754 C575 754 575 809 575 809 C575 809 215 809 215 809 C215 809 214 809 214 809 C214 809 151 809 151 809 C151 809 87 809 87 809 C87 809 87 804 87 804 C87 804 87 5 87 5 C87 5 87 0 87 0 C87 0 151 0 151 0 C151 0 214 0 214 0 C214 0 215 0 215 0 C215 0 590 0 590 0 C590 0 590 55 590 55 L590 55 Z " />
<glyph glyph-name="Ygrave" unicode="&#x1ef2;" horiz-adv-x="627" d="M265 889 C265 889 370 889 370 889 C370 889 318 1039 318 1039 C318 1039 168 1039 168 1039 C168 1039 265 889 265 889 L265 889 Z M253 5 C253 5 253 0 253 0 C253 0 317 0 317 0 C317 0 381 0 381 0 C381 0 381 5 381 5 C381 5 381 347 381 347 C381 347 615 804 615 804 C617 803 618 808 618 809 C618 809 552 809 552 809 C552 809 486 809 486 809 C486 809 315 469 315 469 C315 469 146 804 146 804 C146 804 146 804 146 804 C145 806 144 808 143 809 C143 809 80 809 80 809 C80 809 18 809 18 809 C17 808 17 808 19 806 C19 806 20 804 20 804 C20 804 21 804 21 804 C21 804 253 349 253 349 C253 349 253 5 253 5 L253 5 Z " />
<glyph glyph-name="endash" unicode="&#x2013;" horiz-adv-x="410" d="M5 236 C5 236 405 236 405 236 C405 236 405 331 405 331 C405 331 5 331 5 331 C5 331 5 236 5 236 L5 236 Z " />
<glyph glyph-name="emdash" unicode="&#x2014;" horiz-adv-x="700" d="M50 236 C50 236 650 236 650 236 C650 236 650 331 650 331 C650 331 50 331 50 331 C50 331 50 236 50 236 L50 236 Z " />
<glyph glyph-name="quoteleft" unicode="&#x2018;" horiz-adv-x="225" d="M175 819 C55 819 50 795 50 699 C50 699 50 574 50 574 C50 574 175 574 175 574 C175 574 175 699 175 699 C175 699 125 699 125 699 C125 747 127 759 175 759 C175 759 175 819 175 819 L175 819 Z " />
<glyph glyph-name="quoteright" unicode="&#x2019;" horiz-adv-x="225" d="M113 819 C113 819 113 694 113 694 C113 694 163 694 163 694 C163 636 161 634 113 634 C113 634 113 574 113 574 C233 574 238 579 238 694 C238 694 238 819 238 819 C238 819 113 819 113 819 L113 819 Z " />
<glyph glyph-name="quotedblleft" unicode="&#x201c;" horiz-adv-x="475" d="M425 819 C305 819 300 795 300 699 C300 699 300 574 300 574 C300 574 425 574 425 574 C425 574 425 699 425 699 C425 699 375 699 375 699 C375 747 377 759 425 759 C425 759 425 819 425 819 L425 819 Z M238 819 C118 819 113 795 113 699 C113 699 113 574 113 574 C113 574 238 574 238 574 C238 574 238 699 238 699 C238 699 188 699 188 699 C188 747 190 759 238 759 C238 759 238 819 238 819 L238 819 Z " />
<glyph glyph-name="quotedblright" unicode="&#x201d;" horiz-adv-x="475" d="M300 819 C300 819 300 694 300 694 C300 694 350 694 350 694 C350 636 348 634 300 634 C300 634 300 574 300 574 C420 574 425 579 425 694 C425 694 425 819 425 819 C425 819 300 819 300 819 L300 819 Z M113 819 C113 819 113 694 113 694 C113 694 163 694 163 694 C163 636 161 634 113 634 C113 634 113 574 113 574 C233 574 238 579 238 694 C238 694 238 819 238 819 C238 819 113 819 113 819 L113 819 Z " />
<glyph glyph-name="dagger" unicode="&#x2020;" horiz-adv-x="575" d="M515 610 C515 610 345 610 345 610 C345 610 345 780 345 780 C345 780 230 780 230 780 C230 780 230 610 230 610 C230 610 60 610 60 610 C60 610 60 510 60 510 C60 510 230 510 230 510 C230 510 230 -50 230 -50 C230 -50 345 -50 345 -50 C345 -50 345 510 345 510 C345 510 515 510 515 510 C515 510 515 610 515 610 L515 610 Z " />
<glyph glyph-name="daggerdbl" unicode="&#x2021;" horiz-adv-x="575" d="M60 120 C60 120 230 120 230 120 C230 120 230 -50 230 -50 C230 -50 345 -50 345 -50 C345 -50 345 120 345 120 C345 120 515 120 515 120 C515 120 515 220 515 220 C515 220 345 220 345 220 C345 220 345 510 345 510 C345 510 515 510 515 510 C515 510 515 610 515 610 C515 610 345 610 345 610 C345 610 345 780 345 780 C345 780 230 780 230 780 C230 780 230 610 230 610 C230 610 60 610 60 610 C60 610 60 510 60 510 C60 510 230 510 230 510 C230 510 230 220 230 220 C230 220 60 220 60 220 C60 220 60 120 60 120 L60 120 Z " />
<glyph glyph-name="bullet" unicode="&#x2022;" horiz-adv-x="225" d="M34 213 C34 213 191 213 191 213 C191 213 191 369 191 369 C191 369 34 369 34 369 C34 369 34 213 34 213 L34 213 Z " />
<glyph glyph-name="ellipsis" unicode="&#x2026;" horiz-adv-x="625" d="M450 0 C450 0 575 0 575 0 C575 0 575 125 575 125 C575 125 450 125 450 125 C450 125 450 0 450 0 L450 0 Z M250 0 C250 0 375 0 375 0 C375 0 375 125 375 125 C375 125 250 125 250 125 C250 125 250 0 250 0 L250 0 Z M50 0 C50 0 175 0 175 0 C175 0 175 125 175 125 C175 125 50 125 50 125 C50 125 50 0 50 0 L50 0 Z " />
<glyph glyph-name="perthousand" unicode="&#x2030;" horiz-adv-x="780" d="M941 140 C941 70 934 53 879 53 C825 53 818 70 818 140 C818 210 825 227 879 227 C934 227 941 210 941 140 L941 140 Z M879 -10 C991 -10 1006 20 1006 140 C1006 260 991 290 879 290 C768 290 753 260 753 140 C753 20 768 -10 879 -10 L879 -10 Z M656 140 C656 70 649 53 594 53 C540 53 533 70 533 140 C533 210 540 227 594 227 C649 227 656 210 656 140 L656 140 Z M594 -10 C706 -10 721 20 721 140 C721 260 706 290 594 290 C483 290 468 260 468 140 C468 20 483 -10 594 -10 L594 -10 Z M124 669 C124 739 131 756 186 756 C240 756 247 739 247 669 C247 599 240 581 186 581 C131 581 124 599 124 669 L124 669 Z M186 819 C74 818 59 789 59 669 C59 548 74 518 186 519 C297 518 312 548 312 669 C312 789 297 818 186 819 L186 819 Z M160 0 C160 0 200 0 200 0 C200 0 620 809 620 809 C620 809 580 809 580 809 C580 809 160 0 160 0 L160 0 Z " />
<glyph glyph-name="guilsinglleft" unicode="&#x2039;" horiz-adv-x="265" d="M190 497 C190 497 50 275 50 275 C50 275 190 53 190 53 C190 53 290 53 290 53 C290 53 150 275 150 275 C150 275 290 497 290 497 C290 497 190 497 190 497 L190 497 Z " />
<glyph glyph-name="guilsinglright" unicode="&#x203a;" horiz-adv-x="265" d="M50 497 C50 497 190 275 190 275 C190 275 50 53 50 53 C50 53 150 53 150 53 C150 53 290 275 290 275 C290 275 150 497 150 497 C150 497 50 497 50 497 L50 497 Z " />
<glyph glyph-name="fraction" unicode="&#x2044;" horiz-adv-x="580" d="M60 0 C60 0 100 0 100 0 C100 0 520 809 520 809 C520 809 480 809 480 809 C480 809 60 0 60 0 L60 0 Z " />
<glyph glyph-name="Euro" unicode="&#x20ac;" horiz-adv-x="695" d="M-7 310 C-7 310 55 310 55 310 C72 81 160 -10 423 -10 C542 -10 592 -1 675 36 C675 36 657 163 657 163 C542 112 496 99 423 99 C265 99 207 159 193 310 C193 310 461 310 461 310 C461 310 470 374 470 374 C470 374 189 374 189 374 C189 384 189 394 189 404 C189 414 189 424 189 434 C189 434 470 434 470 434 C470 434 479 499 479 499 C479 499 193 499 193 499 C208 649 266 709 423 709 C488 709 534 699 657 659 C657 659 675 786 675 786 C596 813 546 819 423 819 C160 819 72 728 55 499 C55 499 11 499 11 499 C11 499 2 434 2 434 C2 434 52 434 52 434 C52 424 52 414 52 404 C52 394 52 384 52 374 C52 374 2 374 2 374 C2 374 -7 310 -7 310 L-7 310 Z " />
<glyph glyph-name="minus" unicode="&#x2212;" horiz-adv-x="615" d="M50 248 C50 248 565 248 565 248 C565 248 565 318 565 318 C565 318 50 318 50 318 C50 318 50 248 50 248 L50 248 Z " />
<glyph glyph-name="DIVISIONSLASH" unicode="&#x2215;" horiz-adv-x="460" d="M0 0 C0 0 40 0 40 0 C40 0 460 809 460 809 C460 809 420 809 420 809 C420 809 0 0 0 0 L0 0 Z " />
<glyph glyph-name="BULLETOPERATOR" unicode="&#x2219;" horiz-adv-x="225" d="M50 213 C50 213 175 213 175 213 C175 213 175 338 175 338 C175 338 50 338 50 338 C50 338 50 213 50 213 L50 213 Z " />
<glyph glyph-name="LETTERSMALLCAPITALF" unicode="&#xa730;" horiz-adv-x="535" d="M471 260 C471 260 476 260 476 260 C476 260 476 307 476 307 C476 307 476 354 476 354 C476 354 473 354 473 354 C473 354 471 354 471 354 C471 354 206 354 206 354 C206 354 206 538 206 538 C206 538 501 538 501 538 C501 538 506 538 506 538 C506 538 506 587 506 587 C506 587 506 636 506 636 C506 636 206 636 206 636 C206 636 205 636 205 636 C205 636 148 636 148 636 C125 637 113 637 90 636 C90 636 90 631 90 631 C90 631 90 5 90 5 C90 5 90 0 90 0 C90 0 148 0 148 0 C148 0 206 0 206 0 C206 0 206 3 206 3 C206 3 206 5 206 5 C206 5 206 260 206 260 C206 260 471 260 471 260 L471 260 Z " />
<glyph glyph-name="LETTERSMALLCAPITALS" unicode="&#xa731;" horiz-adv-x="552" d="M475 607 C475 607 475 607 475 607 C475 607 475 607 475 607 C439 619 336 646 243 646 C80 646 40 610 40 463 C40 326 66 303 261 269 C385 248 402 237 402 174 C402 112 391 96 305 96 C276 96 134 153 85 174 C85 174 71 113 71 113 C71 113 71 113 71 113 C71 113 57 51 57 51 C95 35 223 -10 305 -10 C492 -10 517 27 517 178 C517 327 490 352 292 386 C175 406 159 417 159 476 C159 526 176 539 243 539 C307 539 409 508 441 496 C441 496 480 605 480 605 C479 606 477 606 475 607 C475 607 475 607 475 607 L475 607 Z " />
<glyph glyph-name="[namenotfound]001" unicode="&#xf078;" horiz-adv-x="558" d="M553 636 C525 637 512 637 484 636 C457 637 443 637 415 636 C415 638 413 633 412 631 C412 631 289 434 289 434 C289 434 174 631 174 631 C174 631 174 631 174 631 C174 632 172 637 171 636 C148 637 136 637 112 636 C87 637 75 637 52 636 C53 634 54 632 55 631 C55 631 227 335 227 335 C227 335 21 5 21 5 C21 5 21 5 21 5 C19 3 19 2 18 0 C18 0 86 0 86 0 C86 0 155 0 155 0 C156 1 157 2 157 4 C157 4 294 222 294 222 C294 222 420 5 420 5 C420 5 420 5 420 5 C420 5 420 5 420 5 C420 5 423 0 423 0 C423 0 483 0 483 0 C483 0 543 0 543 0 C543 0 542 3 542 3 C542 3 540 5 540 5 C540 5 356 320 356 320 C356 320 550 631 550 631 C550 631 550 631 550 631 C550 631 550 631 550 631 C550 631 553 636 553 636 C553 636 553 636 553 636 C553 636 553 636 553 636 L553 636 Z M553 636 C553 636 553 636 553 636 C553 636 553 636 553 636 L553 636 Z " />
</font>
</svg>
