<?xml version="1.0" encoding="UTF-8"?>
<svg xmlns="http://www.w3.org/2000/svg" xmlns:xlink="http://www.w3.org/1999/xlink" version="1.2" >
<font id="Lorano SemiBold Oblique">
<font-face  font-family="Lorano" units-per-em="1000" ascent="875" descent="-179" font-style="italic" font-weight="600" font-stretch="normal" cap-height="875" x-height="875" underline-position="0" underline-thickness="0" />
<missing-glyph  horiz-adv-x="454" d="" />
<glyph glyph-name="B" unicode="B" horiz-adv-x="844" d="M867.582 640 Q859.478 574 820.471 521 Q781.463 468 724.657 437 Q773.973 407 799.904 353.5 Q825.835 300 817.732 234 Q811.838 186 788.058 143 Q764.278 100 728.411 68.5 Q692.543 37 647.772 18.5 Q603 0 554 0 L95 0 L202.436 875 L661.436 875 Q710.436 875 750.665 856.5 Q790.893 838 818.964 806 Q847.035 774 860.317 731.5 Q873.599 689 867.582 640 Z M659.205 246 Q662.152 270 655.353 292 Q648.554 314 634.58 330.5 Q620.606 347 600.273 356.5 Q579.939 366 554.939 366 L331.816 365 Q320.816 365 312.957 358 Q305.097 351 303.747 340 L280.786 153 Q279.435 142 285.576 135 Q291.716 128 302.716 128 L525.716 128 Q550.716 128 573.383 137.5 Q596.049 147 614.014 163 Q631.978 179 644.118 200.5 Q656.258 222 659.205 246 Z M572.62 510 Q597.62 510 620.287 519.5 Q642.953 529 660.918 545 Q678.882 561 690.583 583 Q702.285 605 705.231 629 Q708.178 653 701.818 674.5 Q695.458 696 681.423 712 Q667.387 728 647.054 737.5 Q626.72 747 601.72 747 L378.72 747 Q367.72 747 359.799 739.5 Q351.878 732 350.528 721 L327.813 536 Q326.462 525 332.602 518 Q338.743 511 349.743 511 L572.62 510 Z " />
<glyph glyph-name="C" unicode="C" horiz-adv-x="847" d="M575.931 708 Q519.931 708 467.853 687 Q415.775 666 374.231 629 Q332.688 592 305.172 543 Q277.656 494 270.78 438 Q263.904 382 278.887 333 Q293.871 284 326.328 247 Q358.785 210 405.145 188.5 Q451.505 167 507.505 167 Q561.505 167 614.022 187.5 Q666.539 208 709.205 246 L812.716 128 Q743.104 66 658.552 33 Q574 0 487 0 Q397 0 321.236 34.5 Q245.472 69 193.778 128.5 Q142.083 188 117.406 268 Q92.729 348 103.78 438 Q114.83 528 159.153 608 Q203.476 688 269.72 747 Q335.964 806 420.2 840.5 Q504.436 875 594.436 875 Q681.436 875 757.885 842 Q834.333 809 888.72 747 L756.231 629 Q722.897 667 676.414 687.5 Q629.931 708 575.931 708 Z " />
<glyph glyph-name="D" unicode="D" horiz-adv-x="926" d="M531.436 875 Q621.436 875 697.2 840.5 Q772.964 806 824.659 746.5 Q876.353 687 901.03 607 Q925.707 527 914.657 437 Q903.606 347 859.283 267 Q814.961 187 748.716 128 Q682.472 69 598.236 34.5 Q514 0 424 0 L95 0 L202.436 875 L531.436 875 Z M747.534 436 Q754.042 489 739.558 538 Q725.075 587 694.74 625 Q664.406 663 619.669 685.5 Q574.931 708 519.931 708 L373.931 708 Q362.931 708 355.011 700.5 Q347.09 693 345.739 682 L285.575 192 Q284.224 181 290.365 174 Q296.505 167 307.505 167 L453.505 167 Q506.505 167 556.768 189.5 Q607.03 212 647.073 249 Q687.116 286 714.071 334.5 Q741.026 383 747.534 436 Z " />
<glyph glyph-name="E" unicode="E" horiz-adv-x="816" d="M328.549 542 Q327.076 530 334.094 522 Q341.111 514 352.111 514 L814.111 514 L795.694 364 L333.694 364 Q322.694 364 313.711 356 Q304.729 348 303.378 337 L283.61 176 Q282.259 165 289.277 157 Q296.295 149 307.295 149 L769.295 149 L751 0 L95 0 L202.436 875 L858.314 874 L839.896 724 L377.896 724 Q366.896 724 357.852 715.5 Q348.809 707 347.458 696 L328.549 542 Z " />
<glyph glyph-name="F" unicode="F" horiz-adv-x="791" d="M328.549 542 Q327.076 530 334.094 522 Q341.111 514 352.111 514 L814.111 514 L795.694 364 L333.694 364 Q322.694 364 313.711 356 Q304.729 348 303.378 337 L262 0 L95 0 L202.436 875 L858.314 874 L840.019 725 L378.019 725 Q367.019 725 358.037 717 Q349.054 709 347.581 697 L328.549 542 Z " />
<glyph glyph-name="G" unicode="G" horiz-adv-x="1039" d="M556.305 483 L1018.3 483 L959 0 L817 0 L836.4 158 Q807.857 121 769.296 92 Q730.735 63 686.218 42.5 Q641.701 22 593.351 11 Q545 0 497 0 Q407 0 331.175 34 Q255.349 68 203.655 127.5 Q151.961 187 127.222 266.5 Q102.483 346 113.657 437 Q124.707 527 169.03 607 Q213.353 687 279.597 746 Q345.842 805 430.078 839.5 Q514.314 874 604.314 874 Q695.314 874 770.139 840 Q844.964 806 897.597 746 L764.986 627 Q732.406 663 686.046 684.5 Q639.686 706 583.686 706 Q527.686 706 476.107 685 Q424.529 664 383.547 627.5 Q342.566 591 315.549 542 Q288.533 493 281.657 437 Q274.781 381 287.773 328 Q300.766 275 333.854 235 Q366.943 195 420.68 172.5 Q474.418 150 548.786 153 Q598.909 154 645.119 172 Q691.329 190 727.583 216.5 Q763.837 243 788.827 275.5 Q813.818 308 822.747 340 L538.747 340 L556.305 483 Z " />
<glyph glyph-name="H" unicode="H" horiz-adv-x="982" d="M791.549 542 L832.436 875 L994.436 875 L887 0 L725 0 L766.378 337 Q767.729 348 760.773 356.5 Q753.816 365 742.816 365 L328.816 365 Q317.816 365 308.773 356.5 Q299.729 348 298.378 337 L257 0 L95 0 L202.436 875 L364.436 875 L323.549 542 Q322.199 531 329.155 522.5 Q336.111 514 347.111 514 L761.111 514 Q772.111 514 781.155 522.5 Q790.199 531 791.549 542 Z " />
<glyph glyph-name="I" unicode="I" horiz-adv-x="422" d="M130 0 L237.436 875 L399.436 875 L292 0 L130 0 Z " />
<glyph glyph-name="J" unicode="J" horiz-adv-x="728" d="M514.589 355 L578.314 874 L745.314 874 L681.343 353 Q672.38 280 636.96 215.5 Q601.54 151 547.647 103 Q493.753 55 425.877 27.5 Q358 0 285 0 Q211 0 150.377 27.5 Q89.7532 55 47.6468 103 L175.644 217 Q198.452 191 230.478 179 Q262.505 167 301.505 167 Q340.505 167 376.847 182 Q413.189 197 442.32 222.5 Q471.451 248 490.625 282 Q509.8 316 514.589 355 Z " />
<glyph glyph-name="K" unicode="K" horiz-adv-x="947" d="M1014.44 875 L574.78 438 L907 0 L706 0 L438.097 351 Q428.816 365 410.816 365 L328.816 365 Q317.816 365 308.773 356.5 Q299.729 348 298.378 337 L257 0 L95 0 L202.436 875 L364.436 875 L323.549 542 Q322.199 531 329.155 522.5 Q336.111 514 347.111 514 L432.111 514 Q450.111 514 463.83 528 L812.436 875 L1014.44 875 Z " />
<glyph glyph-name="L" unicode="L" horiz-adv-x="771" d="M369.436 875 L285.575 192 Q283.119 172 292.707 160.5 Q302.295 149 322.295 149 L754.295 149 L736 0 L95 0 L202.436 875 L369.436 875 Z " />
<glyph glyph-name="M" unicode="M" horiz-adv-x="1123" d="M968.436 875 L1135.44 875 L1028 0 L861 0 L942.283 662 L605.448 362 L343.283 662 L262 0 L95 0 L202.436 875 L369.436 875 L614.057 595 Q621.075 587 633.075 587 Q645.075 587 654.057 595 L968.436 875 Z " />
<glyph glyph-name="N" unicode="N" horiz-adv-x="1029" d="M797.696 250 L874.436 875 L1041.44 875 L934 0 L774 0 L340.6 632 L263 0 L95 0 L202.436 875 L363.436 875 L797.696 250 Z " />
<glyph glyph-name="O" unicode="O" horiz-adv-x="994" d="M517.382 166 Q573.382 166 625.461 187 Q677.539 208 718.582 245 Q759.625 282 787.203 331.5 Q814.781 381 821.657 437 Q828.533 493 813.049 542 Q797.566 591 765.609 628 Q733.652 665 686.73 686 Q639.809 707 583.809 707 Q527.809 707 476.23 686 Q424.652 665 383.109 628 Q341.566 591 314.549 542 Q287.533 493 280.657 437 Q273.781 381 288.703 331.5 Q303.625 282 336.082 245 Q368.539 208 414.961 187 Q461.382 166 517.382 166 Z M604.314 874 Q695.314 874 770.578 839.5 Q845.842 805 897.597 746 Q949.353 687 974.03 607 Q998.707 527 987.657 437 Q976.483 346 932.222 266.5 Q887.961 187 821.655 127.5 Q755.349 68 671.675 34 Q588 0 497 0 Q407 0 331.175 34 Q255.349 68 203.655 127.5 Q151.961 187 127.222 266.5 Q102.483 346 113.657 437 Q124.707 527 169.03 607 Q213.353 687 279.597 746 Q345.842 805 430.078 839.5 Q514.314 874 604.314 874 Z " />
<glyph glyph-name="P" unicode="P" horiz-adv-x="839" d="M566.638 502 Q591.638 502 614.743 511 Q637.848 520 656.813 536 Q675.777 552 688.417 573.5 Q701.057 595 704.126 620 Q707.196 645 700.336 666.5 Q693.476 688 679.94 704 Q666.405 720 646.01 729 Q625.615 738 601.615 738 L377.615 738 Q366.615 738 358.694 730.5 Q350.773 723 349.423 712 L327.076 530 Q325.725 519 332.682 510.5 Q339.638 502 350.638 502 L566.638 502 Z M631.436 875 Q684.436 875 730.042 855.5 Q775.648 836 807.912 801.5 Q840.176 767 855.966 720.5 Q871.757 674 865.126 620 Q858.619 567 832.909 520.5 Q807.2 474 767.964 439.5 Q728.728 405 679.772 385 Q630.816 365 578.816 365 L333.816 365 Q322.816 365 313.773 356.5 Q304.729 348 303.378 337 L262 0 L95 0 L202.436 875 L631.436 875 Z " />
<glyph glyph-name="Q" unicode="Q" horiz-adv-x="995" d="M588.191 873 Q681.682 877 760.63 844 Q839.578 811 893.773 751.5 Q947.967 692 974.021 611 Q1000.08 530 988.657 437 Q979.939 366 954.379 308.5 Q928.819 251 893.416 207 Q858.014 163 816.523 130.5 Q775.033 98 734.454 77 Q715.104 66 708.771 47 Q702.438 28 714.719 14 L800.686 -84 L694.144 -178 L536.123 1 Q527 0 517.5 0 Q508 0 498 0 Q405 0 328.42 36 Q251.84 72 199.892 133.5 Q147.943 195 125.073 277.5 Q102.202 360 116.744 454 Q130.058 538 173.767 613 Q217.476 688 281.474 745 Q345.473 802 424.648 836 Q503.823 870 588.191 873 Z M518.382 166 Q574.382 166 625.961 187 Q677.539 208 718.582 245 Q759.625 282 786.703 331.5 Q813.781 381 820.657 437 Q827.41 492 812.426 541 Q797.443 590 765.425 626.5 Q733.406 663 686.985 684 Q640.563 705 584.563 705 Q528.563 705 476.985 684 Q425.406 663 383.925 626.5 Q342.443 590 315.426 541 Q288.41 492 281.657 437 Q274.781 381 289.703 331.5 Q304.625 282 337.082 245 Q369.539 208 415.961 187 Q462.382 166 518.382 166 Z " />
<glyph glyph-name="S" unicode="S" horiz-adv-x="859" d="M289.249 621 Q284.583 583 307.005 562 Q329.426 541 369.637 530.5 Q409.848 520 461.795 515.5 Q513.743 511 567.883 504 Q622.024 497 672.989 484.5 Q723.954 472 762.201 445.5 Q800.447 419 820.044 375 Q839.642 331 831.047 261 Q825.03 212 803.303 173.5 Q781.576 135 749.515 106 Q717.454 77 676.937 56.5 Q636.42 36 593.885 23.5 Q551.351 11 508.175 5.5 Q465 0 427 0 Q369 0 304.473 12 Q239.947 24 187.13 54 Q134.314 84 104.015 134.5 Q73.7151 185 83.1696 262 L232.17 262 Q227.872 227 247.171 205 Q266.47 183 298.435 170.5 Q330.4 158 369.847 153.5 Q409.295 149 444.295 149 Q484.295 149 521.97 154.5 Q559.646 160 590.303 173.5 Q620.961 187 641.162 209 Q661.363 231 665.415 264 Q669.59 298 646.8 316 Q624.01 334 584.554 342.5 Q545.097 351 493.089 355 Q441.08 359 387.878 365.5 Q334.676 372 283.895 386 Q233.114 400 196.052 428 Q158.99 456 139.761 503 Q120.532 550 129.618 624 Q135.634 673 156.738 710.5 Q177.843 748 209.281 776 Q240.719 804 280.99 822.5 Q321.262 841 364.612 852 Q407.963 863 453.077 868 Q498.191 873 540.191 873 Q598.191 873 659.472 859 Q720.753 845 769.385 813.5 Q818.018 782 845.133 730 Q872.248 678 863.039 603 L715.039 603 Q719.091 636 701.976 659.5 Q684.862 683 655.081 697 Q625.3 711 588.098 717.5 Q550.896 724 515.896 724 Q475.896 724 436.843 719.5 Q397.791 715 366.44 704 Q335.09 693 314.073 672.5 Q293.056 652 289.249 621 Z " />
<glyph glyph-name="T" unicode="T" horiz-adv-x="827" d="M120.369 736 L137.436 875 L904.436 875 L887.369 736 L623.369 736 Q607.369 736 594.519 725 Q581.668 714 579.581 697 L494 0 L333 0 L418.581 697 Q420.668 714 410.519 725 Q400.369 736 383.369 736 L120.369 736 Z " />
<glyph glyph-name="U" unicode="U" horiz-adv-x="886" d="M672.343 353 L736.314 874 L903.314 874 L839.343 353 Q830.38 280 794.96 215.5 Q759.54 151 705.647 103 Q651.753 55 583.877 27.5 Q516 0 443 0 Q370 0 308.877 27.5 Q247.753 55 205.647 103 Q163.54 151 143.96 215.5 Q124.38 280 133.343 353 L197.314 874 L364.314 874 L300.343 353 Q295.554 314 305.941 280.5 Q316.328 247 338.697 221.5 Q361.066 196 393.285 181.5 Q425.505 167 463.505 167 Q502.505 167 537.785 181.5 Q573.066 196 601.697 221.5 Q630.328 247 648.941 280.5 Q667.554 314 672.343 353 Z " />
<glyph glyph-name="V" unicode="V" horiz-adv-x="1015" d="M530.961 187 L924.436 875 L1092.44 875 L592 0 L423 0 L137.436 875 L306.436 875 L530.961 187 Z " />
<glyph glyph-name="W" unicode="W" horiz-adv-x="1395" d="M1020.68 258 L1304.44 875 L1472.44 875 L1074 0 L905 0 L774.495 623 L490 0 L322 0 L137.436 875 L306.436 875 L437.678 258 L720.436 875 L889.436 875 L1020.68 258 Z " />
<glyph glyph-name="X" unicode="X" horiz-adv-x="945" d="M835.314 874 L1021.31 874 L648.726 462 Q639.376 451 637.595 436.5 Q635.815 422 642.464 411 L915 0 L728 0 L510.554 314 L217 0 L30 0 L403.464 411 Q412.815 422 414.595 436.5 Q416.376 451 409.726 462 L138.314 874 L336.314 874 L541.864 569 L835.314 874 Z " />
<glyph glyph-name="Y" unicode="Y" horiz-adv-x="1012" d="M475.342 410 Q477.306 426 468.534 436 L137.314 874 L330.314 874 L573.9 553 L896.314 874 L1089.31 874 L650.534 436 Q639.306 426 637.342 410 L587 0 L425 0 L475.342 410 Z " />
<glyph glyph-name="Z" unicode="Z" horiz-adv-x="891" d="M938.436 875 L921.615 738 L295.699 136 L823.699 136 L807 0 L52 0 L68.6987 136 L692.615 738 L142.615 738 L159.436 875 L938.436 875 Z " />
<glyph glyph-name="a" unicode="a" horiz-adv-x="941" d="M820.436 875 L881 0 L715 0 L699.118 229 Q697.837 243 695.74 258.5 Q693.643 274 688.801 287.5 Q683.958 301 675.502 309.5 Q667.045 318 653.045 318 L414.045 318 Q401.045 318 386.923 317 Q372.8 316 359.809 312 Q346.818 308 336.335 300 Q325.853 292 321.257 279 L231 0 L60 0 L337.436 875 L820.436 875 Z M379.832 471 L684.832 471 L664.861 740 L466.861 740 L379.832 471 Z " />
<glyph glyph-name="q" unicode="q" horiz-adv-x="994" d="M987.534 436 Q977.834 357 943.923 288.5 Q910.013 220 860.944 166.5 Q811.875 113 752.332 76 Q692.789 39 630.824 23 L730.827 -91 L625.022 -179 L519.633 -60 Q512.738 -51 505.106 -48 Q497.475 -45 492.475 -45 Q486.475 -45 477.668 -47.5 Q468.861 -50 459.756 -59 L325.022 -179 L247.949 -90 L372.578 21 Q313.666 38 262.209 75 Q210.752 112 174.382 166 Q138.013 220 120.923 288.5 Q103.834 357 113.534 436 Q124.585 526 168.907 606 Q213.23 686 279.474 745 Q345.719 804 429.955 838.5 Q514.191 873 604.191 873 Q695.191 873 770.455 838.5 Q845.719 804 897.474 745 Q949.23 686 973.907 606 Q998.585 526 987.534 436 Z M517.259 165 Q573.259 165 625.338 186 Q677.416 207 718.459 244 Q759.502 281 787.08 330.5 Q814.658 380 821.534 436 Q828.41 492 812.926 541 Q797.443 590 765.486 627 Q733.529 664 686.607 685 Q639.686 706 583.686 706 Q527.686 706 476.107 685 Q424.529 664 382.986 627 Q341.443 590 314.426 541 Q287.41 492 280.534 436 Q273.658 380 288.58 330.5 Q303.502 281 335.959 244 Q368.416 207 414.838 186 Q461.259 165 517.259 165 Z " />
<glyph glyph-name="zero" unicode="0" horiz-adv-x="843" d="M529.664 885 Q602.664 885 663.288 857.5 Q723.911 830 766.018 782 Q808.124 734 827.766 670 Q847.407 606 838.444 533 L814.992 342 Q806.029 269 770.671 205 Q735.313 141 681.419 93 Q627.525 45 560.149 17.5 Q492.772 -10 419.772 -10 Q346.772 -10 286.149 17.5 Q225.525 45 183.919 93 Q142.313 141 122.671 205 Q103.029 269 111.992 342 L135.444 533 Q144.407 606 179.766 670 Q215.124 734 268.518 782 Q321.911 830 389.288 857.5 Q456.664 885 529.664 885 Z M664.992 342 L688.444 533 Q693.478 574 681.96 610.5 Q670.442 647 646.318 674.5 Q622.195 702 587.659 718 Q553.124 734 511.124 734 Q469.124 734 430.659 718 Q392.195 702 361.318 674.5 Q330.442 647 309.96 610.5 Q289.478 574 284.444 533 L260.992 342 Q255.958 301 267.477 264.5 Q278.995 228 303.118 200.5 Q327.242 173 361.777 157 Q396.313 141 438.313 141 Q480.313 141 518.777 157 Q557.242 173 588.118 200.5 Q618.995 228 639.477 264.5 Q659.958 301 664.992 342 Z " />
<glyph glyph-name="one" unicode="1" horiz-adv-x="656" d="M350 0 L426.863 626 L204.324 418 L105.567 534 L489.314 874 L621.314 874 L514 0 L350 0 Z " />
<glyph glyph-name="two" unicode="2" horiz-adv-x="809" d="M828.776 609 Q821.409 549 795.261 503 Q769.113 457 732.131 420.5 Q695.149 384 649.966 354 Q604.782 324 559.221 295 L313.804 145 L771.804 145 L754 0 L55 0 L74.2772 157 L490.464 411 Q512.183 425 542.139 445 Q572.095 465 600.103 489.5 Q628.111 514 649.233 543.5 Q670.356 573 674.53 607 Q678.091 636 668.845 662.5 Q659.599 689 637.493 708.5 Q615.387 728 580.299 739.5 Q545.211 751 497.211 751 Q458.211 751 419.922 740.5 Q381.633 730 350.37 707.5 Q319.107 685 297.31 650 Q275.513 615 269.496 566 L124.496 566 Q134.933 651 171.484 712.5 Q208.035 774 261.885 813.5 Q315.735 853 381.007 871.5 Q446.278 890 514.278 890 Q581.278 890 642.059 876 Q702.84 862 747.85 829.5 Q792.859 797 815.729 743 Q838.599 689 828.776 609 Z " />
<glyph glyph-name="three" unicode="3" horiz-adv-x="828" d="M841.109 628 Q836.443 590 820.575 558.5 Q804.707 527 779.638 502 Q754.568 477 722.92 459.5 Q691.271 442 654.043 432 Q715.324 418 752.913 378 Q790.501 338 792.502 281 Q792.678 258 789.477 236 Q786.276 214 780.697 193 Q764.208 132 726.858 92.5 Q689.508 53 639.245 30.5 Q588.982 8 530.377 -1 Q471.772 -10 412.772 -10 Q354.772 -10 294.246 2 Q233.719 14 186.525 45 Q139.332 76 113.155 127.5 Q86.9784 179 96.8012 259 L238.801 259 Q233.644 217 252.952 191 Q272.259 165 302.918 150 Q333.576 135 367.962 130 Q402.348 125 428.348 125 Q521.348 125 577.154 156 Q632.961 187 640.328 247 Q644.748 283 632.949 305 Q621.151 327 598.624 339 Q576.097 351 545.15 355.5 Q514.202 360 480.202 360 L373.202 360 L390.883 504 L497.883 504 Q529.883 504 561.804 511.5 Q593.725 519 620.69 535 Q647.654 551 665.54 574.5 Q683.425 598 687.477 631 Q695.09 693 647.65 722 Q600.211 751 505.211 751 Q465.211 751 428.29 743.5 Q391.369 736 362.466 720.5 Q333.563 705 314.555 680.5 Q295.547 656 291.372 622 L141.372 622 Q151.072 701 189.895 752.5 Q228.719 804 283.28 833 Q337.84 862 401.252 873.5 Q464.664 885 522.664 885 Q555.664 885 594.173 881 Q632.682 877 670.393 866.5 Q708.104 856 741.832 837.5 Q775.561 819 800.061 790.5 Q824.562 762 836.15 722 Q847.739 682 841.109 628 Z " />
<glyph glyph-name="four" unicode="4" horiz-adv-x="796" d="M743.436 875 L676.519 330 L801.519 330 L784.452 191 L659.452 191 L636 0 L475 0 L498.452 191 L33.4519 191 L47.5721 306 L588.436 875 L743.436 875 Z M515.519 330 L558.371 679 L227.519 330 L515.519 330 Z " />
<glyph glyph-name="five" unicode="5" horiz-adv-x="766" d="M290.672 543 Q370.004 619 488.004 619 Q576.004 619 636.68 596 Q697.356 573 732.883 532.5 Q768.41 492 780.534 436 Q792.658 380 784.677 315 Q774.977 236 742.549 175.5 Q710.12 115 659.525 73.5 Q608.929 32 542.351 11 Q475.772 -10 396.772 -10 Q324.772 -10 265.228 10 Q205.684 30 163.981 65 Q122.278 100 100.295 149 Q78.3113 198 81.3101 255 L224.029 269 Q221.468 240 234.215 213.5 Q246.961 187 271.505 167 Q296.049 147 332.076 135 Q368.103 123 413.103 123 Q508.103 123 569.242 173 Q630.381 223 641.677 315 Q646.589 355 637.702 388.5 Q628.815 422 606.823 446.5 Q584.832 471 549.051 485 Q513.269 499 464.269 499 Q423.269 499 386.287 491 Q349.305 483 319.402 467.5 Q289.499 452 268.052 428 Q246.605 404 236.676 372 L98.2543 393 L242.314 874 L783.314 874 L767.72 747 L394.72 747 Q377.72 747 364.308 735.5 Q350.896 724 343.809 707 L290.672 543 Z " />
<glyph glyph-name="six" unicode="6" horiz-adv-x="826" d="M423.772 -10 Q346.772 -10 283.728 10 Q220.684 30 178.411 68.5 Q136.138 107 116.575 163.5 Q97.0126 220 105.976 293 L129.796 487 Q140.233 572 169.135 644.5 Q198.037 717 247.544 770 Q297.052 823 367.797 853.5 Q438.542 884 533.542 884 Q604.542 884 662.893 866.5 Q721.244 849 761.815 817 Q802.386 785 821.799 739.5 Q841.212 694 834.459 639 L684.459 639 Q691.09 693 645.957 724.5 Q600.825 756 513.825 756 Q454.825 756 413.624 734 Q372.423 712 344.502 676 Q316.582 640 301.434 594 Q286.286 548 280.392 500 L274.621 453 Q287.463 468 308.866 483.5 Q330.269 499 359.366 512 Q388.462 525 424.444 533 Q460.426 541 502.426 541 Q583.426 541 642.594 522 Q701.761 503 739.025 468.5 Q776.288 434 791.711 384.5 Q807.133 335 799.766 275 Q792.153 213 763.268 161 Q734.384 109 686.218 71 Q638.052 33 571.912 11.5 Q505.772 -10 423.772 -10 Z M474.324 418 Q431.324 418 394.219 409 Q357.114 400 328.526 383 Q299.939 366 282.247 340 Q264.554 314 260.38 280 Q256.451 248 264.451 219.5 Q272.452 191 293.751 169 Q315.049 147 351.015 134.5 Q386.98 122 437.98 122 Q525.98 122 580.637 164 Q635.294 206 643.766 275 Q651.87 341 608.597 379.5 Q565.324 418 474.324 418 Z " />
<glyph glyph-name="seven" unicode="7" horiz-adv-x="724" d="M811.314 874 L795.72 747 L312 0 L139 0 L601.773 723 L113.773 723 L132.314 874 L811.314 874 Z " />
<glyph glyph-name="eight" unicode="8" horiz-adv-x="826" d="M644.394 443 Q721.57 420 763.246 368.5 Q804.923 317 794.486 232 Q786.751 169 749.287 124.5 Q711.823 80 657.823 51.5 Q603.824 23 539.228 10 Q474.632 -3 412.632 -3 Q350.632 -3 289.228 10 Q227.824 23 180.823 51.5 Q133.823 80 107.287 124.5 Q80.7506 169 88.486 232 Q98.9227 317 153.246 368.5 Q207.57 420 290.394 443 Q213.463 468 171.909 520.5 Q130.356 573 140.915 659 Q148.528 721 185.869 764.5 Q223.21 808 277.525 835 Q331.84 862 396.375 874.5 Q460.91 887 521.91 887 Q582.91 887 644.375 874.5 Q705.84 862 753.525 835 Q801.21 808 827.869 764.5 Q854.528 721 846.915 659 Q836.356 573 781.909 520.5 Q727.463 468 644.394 443 Z M306.073 644 Q301.653 608 316.768 584.5 Q331.882 561 358.163 547 Q384.444 533 416.207 527 Q447.971 521 476.971 521 Q505.971 521 539.707 527 Q573.444 533 602.663 547 Q631.882 561 653.268 584.5 Q674.653 608 679.073 644 Q682.88 675 667.958 696 Q653.037 717 627.133 730 Q601.229 743 568.904 748.5 Q536.58 754 505.58 754 Q474.58 754 440.904 748.5 Q407.229 743 378.633 730 Q350.037 717 329.958 696 Q309.88 675 306.073 644 Z M457.325 361 Q429.325 361 396.15 355.5 Q362.975 350 332.878 337 Q302.782 324 280.958 301 Q259.134 278 254.959 244 Q251.03 212 265.829 190 Q280.628 168 306.409 154 Q332.19 140 364.892 133.5 Q397.594 127 428.594 127 Q459.594 127 493.892 133.5 Q528.19 140 557.409 154 Q586.628 168 606.829 190 Q627.03 212 630.959 244 Q635.134 278 618.958 301 Q602.782 324 575.878 337 Q548.975 350 517.15 355.5 Q485.325 361 457.325 361 Z " />
<glyph glyph-name="nine" unicode="9" horiz-adv-x="826" d="M519.542 884 Q596.542 884 659.086 864 Q721.63 844 764.403 805.5 Q807.176 767 826.738 710.5 Q846.301 654 837.338 581 L813.518 387 Q803.081 302 774.179 229.5 Q745.277 157 695.708 103.5 Q646.139 50 574.956 20 Q503.772 -10 409.772 -10 Q338.772 -10 279.921 7.5 Q221.07 25 180.999 57 Q140.928 89 121.453 134 Q101.978 179 108.854 235 L258.854 235 Q252.224 181 297.356 149.5 Q342.489 118 429.489 118 Q487.489 118 529.19 140 Q570.891 162 598.811 198 Q626.732 234 641.88 280 Q657.028 326 662.921 374 L668.692 421 Q655.851 406 634.447 390.5 Q613.044 375 583.948 362 Q554.852 349 518.87 341 Q482.887 333 440.887 333 Q359.887 333 300.72 352 Q241.553 371 204.289 405.5 Q167.025 440 151.603 489.5 Q136.181 539 143.548 599 Q151.161 661 180.045 713 Q208.93 765 257.096 803 Q305.262 841 371.402 862.5 Q437.542 884 519.542 884 Z M468.99 456 Q511.99 456 549.095 465 Q586.2 474 614.287 491 Q642.375 508 660.567 534 Q678.759 560 682.934 594 Q686.863 626 678.862 654.5 Q670.862 683 649.563 705 Q628.264 727 592.299 739.5 Q556.334 752 505.334 752 Q417.334 752 362.677 710 Q308.02 668 299.548 599 Q291.444 533 334.717 494.5 Q377.99 456 468.99 456 Z " />
<glyph glyph-name="ampersand" unicode="&#x26;" horiz-adv-x="855" d="M351.261 108 Q399.261 108 440.909 125.5 Q482.558 143 517.365 174 Q483.89 219 445.713 270.5 Q407.537 322 372.694 364 Q351.711 356 326.738 344 Q301.764 332 279.677 315 Q257.59 298 241.889 276 Q226.187 254 222.995 228 Q216.242 173 252.251 140.5 Q288.261 108 351.261 108 Z M377.056 652 Q374.477 631 379.267 613 Q384.057 595 392.531 578.5 Q401.005 562 412.163 547 Q423.321 532 434.48 517 Q455.707 527 482.426 541 Q509.145 555 533.356 573 Q557.566 591 575.328 613.5 Q593.091 636 596.529 664 Q598.862 683 592.388 699.5 Q585.914 716 572.449 728.5 Q558.983 741 540.843 748 Q522.702 755 501.702 755 Q480.702 755 459.281 747.5 Q437.861 740 420.703 726.5 Q403.545 713 391.712 694 Q379.88 675 377.056 652 Z M833 0 L663 0 L602.086 74 Q585.244 59 559.28 43 Q533.315 27 498.719 14 Q464.123 1 421.141 -7 Q378.158 -15 326.158 -15 Q274.158 -15 226.184 1.5 Q178.21 18 142.894 48 Q107.577 78 88.7955 120.5 Q70.0139 163 76.3987 215 Q82.7835 267 104.011 305.5 Q125.238 344 156.237 372.5 Q187.237 401 224.754 421.5 Q262.271 442 301.358 459 Q282.305 483 266.506 505 Q250.707 527 241.216 551.5 Q231.724 576 228.162 604 Q224.6 632 229.897 667 Q236.791 715 263.325 756 Q289.859 797 329.481 826.5 Q369.104 856 418.13 872.5 Q467.155 889 520.155 889 Q578.155 889 622.384 870.5 Q666.612 852 695.429 822 Q724.245 792 736.58 754 Q748.914 716 744.125 677 Q737.74 625 714.329 585 Q690.918 545 657.173 514.5 Q623.428 484 582.481 460 Q541.534 436 500.201 417 L618.415 264 Q627.275 271 639.301 287.5 Q651.327 304 662.782 324 Q674.238 344 683.878 365.5 Q693.518 387 698.605 404 L835.482 403 Q831.676 372 819.063 338.5 Q806.449 305 788.082 273.5 Q769.714 242 747.276 214 Q724.838 186 702.382 166 L833 0 Z " />
<glyph glyph-name="germandbls" unicode="&#xdf;" horiz-adv-x="904" d="M730.163 547 Q723.181 539 720.576 530 Q717.971 521 719.927 512.5 Q721.883 504 729.647 498 Q737.41 492 751.287 491 Q768.796 487 799.823 475 Q830.849 463 859.157 437 Q887.464 411 905.685 368 Q923.905 325 915.801 259 Q909.171 205 883.4 158 Q857.629 111 818.332 76 Q779.034 41 729.017 20.5 Q679 0 625 0 L470 0 L489.295 149 L602.295 149 Q619.295 149 641.032 155 Q662.768 161 682.426 174.5 Q702.083 188 717.101 208.5 Q732.118 229 735.801 259 Q739.239 287 729.256 307.5 Q719.273 328 702.308 340.5 Q685.343 353 665.08 359 Q644.816 365 628.816 365 L515.816 365 L533.111 514 L700.124 734 L385.124 734 Q368.124 734 355.773 723 Q343.423 712 341.335 695 L256 0 L90 0 L197.436 875 L926.436 875 L915.018 782 L730.163 547 Z " />
<glyph glyph-name="parenleft" unicode="&#x28;" horiz-adv-x="537" d="M607.662 999 Q534.681 934 477.893 866.5 Q421.105 799 381.142 726 Q341.178 653 317.478 574 Q293.778 495 285.973 407 Q279.028 326 286.81 255 Q294.592 184 318.173 119.5 Q341.753 55 379.386 -5 Q417.019 -65 469.775 -124 L357.373 -225 Q294.968 -155 250.809 -83 Q206.649 -11 179.604 66 Q152.558 143 143.933 227.5 Q135.309 312 143.851 406 Q160.653 608 254.026 778 Q347.4 948 520.309 1102 L607.662 999 Z " />
<glyph glyph-name="braceleft" unicode="&#x7b;" horiz-adv-x="612" d="M632.101 970 Q596.101 970 562.505 957 Q528.909 944 501.646 921.5 Q474.383 899 456.016 867.5 Q437.648 836 433.228 800 L413.828 642 Q405.847 577 367.339 524 Q328.832 471 272.025 440 Q321.219 409 347.211 356 Q373.204 303 365.223 238 L345.823 80 Q341.403 44 352.035 12.5 Q362.667 -19 384.404 -41.5 Q406.142 -64 436.546 -77 Q466.949 -90 502.949 -90 L550.949 -90 L534.251 -226 L446.251 -226 Q388.251 -226 339.952 -204 Q291.653 -182 257.819 -144 Q223.985 -106 208.247 -55 Q192.509 -4 199.63 54 L216.329 190 Q220.749 226 210.117 257.5 Q199.485 289 177.747 311.5 Q156.01 334 125.606 347 Q95.2024 360 59.2024 360 L45.2024 360 L64.848 520 L78.848 520 Q114.848 520 148.444 533 Q182.04 546 209.303 568.5 Q236.566 591 254.872 622 Q273.178 653 277.599 689 L289.877 789 Q297.858 854 329.918 911.5 Q361.978 969 410.758 1012 Q459.538 1055 520.107 1080 Q580.677 1105 646.677 1105 L697.677 1105 L681.101 970 L632.101 970 Z " />
<glyph glyph-name="bracketleft" unicode="&#x5b;" horiz-adv-x="415" d="M483.733 967 L256.733 967 L126.827 -91 L353.827 -91 L336.882 -229 L-28.1177 -229 L135.677 1105 L500.677 1105 L483.733 967 Z " />
<glyph glyph-name="bar" unicode="&#x7c;" horiz-adv-x="422" d="M278.616 -109 L116.616 -109 L250.82 984 L412.82 984 L278.616 -109 Z " />
<glyph glyph-name="ogonek" unicode="&#x2db;" horiz-adv-x="338" d="M313.566 -199 Q276.514 -232 236.365 -249.5 Q196.217 -267 158.217 -267 Q119.217 -267 86.0583 -252 Q52.9001 -237 30.0925 -211 Q7.28486 -185 -3.41768 -150 Q-14.1202 -115 -9.20884 -75 Q-4.42024 -36 14.8158 -1.5 Q34.0519 33 63.6829 58.5 Q93.3139 84 131.656 99 Q169.997 114 212.997 114 L199 0 Q181 0 164.763 -6 Q148.527 -12 135.799 -22 Q123.071 -32 114.413 -45.5 Q105.756 -59 103.914 -74 Q100.108 -105 118.968 -126.5 Q137.828 -148 168.828 -148 Q200.828 -148 233.389 -119 L313.566 -199 Z " />
<glyph glyph-name="cedilla" unicode="&#xb8;" horiz-adv-x="289" d="M245.404 -13 Q263.825 -34 270.572 -60.5 Q277.318 -87 273.818 -115.5 Q270.319 -144 256.504 -171 Q242.689 -198 219.11 -219 Q195.532 -240 167.742 -250.5 Q139.953 -261 112.453 -261 Q84.9532 -261 59.2425 -250.5 Q33.5317 -240 15.1102 -219 Q-3.18856 -197 -10.4348 -170.5 Q-17.681 -144 -14.243 -116 L74.757 -116 Q72.0557 -138 86.9684 -155 Q101.881 -172 124.881 -172 Q147.881 -172 166.968 -155 Q186.056 -138 188.88 -115 Q191.704 -92 176.791 -75 L94.3329 19 L163.823 80 L245.404 -13 Z " />
<glyph glyph-name="period" unicode="&#x2e;" horiz-adv-x="346" d="M170.913 -17 Q133.913 -17 111.605 9 Q89.2975 35 93.7177 71 Q98.1379 107 126.83 133 Q155.523 159 192.523 159 Q228.523 159 251.33 133 Q274.138 107 269.718 71 Q267.508 53 258.543 37 Q249.578 21 236.105 9 Q222.632 -3 205.772 -10 Q188.913 -17 170.913 -17 Z " />
<glyph glyph-name="comma" unicode="&#x2c;" horiz-adv-x="293" d="M72.0329 98 L215.033 98 L158.53 -183 L37.5304 -183 L72.0329 98 Z " />
<glyph glyph-name="macron" unicode="&#xaf;" horiz-adv-x="347" d="M126.714 1032 L143.658 1170 L586.658 1170 L569.714 1032 L126.714 1032 Z " />
<glyph glyph-name="circumflex" unicode="&#x2c6;" horiz-adv-x="516" d="M537.4 948 L418.098 1084 Q408.449 1095 391.949 1095 Q375.449 1095 363.098 1084 L210.4 948 L138.468 1030 L414.673 1276 L630.468 1030 L538.4 948 L537.4 948 Z " />
<glyph glyph-name="breve" unicode="&#x2d8;" horiz-adv-x="386" d="M330.519 1120 Q357.519 1120 379.413 1139.5 Q401.307 1159 404.745 1187 L531.745 1187 Q526.834 1147 507.036 1112 Q487.239 1077 457.985 1050.5 Q428.731 1024 391.89 1009 Q355.048 994 315.048 994 Q275.048 994 241.89 1009 Q208.731 1024 185.485 1050.5 Q162.239 1077 151.536 1112 Q140.834 1147 145.745 1187 L272.745 1187 Q269.307 1159 286.413 1139.5 Q303.519 1120 330.519 1120 Z " />
<glyph glyph-name="dieresis" unicode="&#xa8;" horiz-adv-x="500" d="M633.712 1089 Q629.169 1052 599.416 1025.5 Q569.662 999 532.662 999 Q494.662 999 471.916 1025.5 Q449.169 1052 453.712 1089 Q458.378 1127 487.571 1153 Q516.763 1179 554.763 1179 Q591.763 1179 615.071 1153 Q638.378 1127 633.712 1089 Z M313.712 1089 Q309.169 1052 279.916 1025.5 Q250.662 999 212.662 999 Q175.662 999 152.416 1025.5 Q129.169 1052 133.712 1089 Q138.378 1127 168.071 1153 Q197.763 1179 234.763 1179 Q272.763 1179 295.571 1153 Q318.378 1127 313.712 1089 Z " />
<glyph glyph-name="ring" unicode="&#x2da;" horiz-adv-x="300" d="M280.397 1062 Q304.397 1062 324.046 1079.5 Q343.695 1097 346.641 1121 Q349.588 1145 334.237 1162.5 Q318.886 1180 294.886 1180 Q270.886 1180 251.237 1162.5 Q231.588 1145 228.641 1121 Q225.695 1097 241.046 1079.5 Q256.397 1062 280.397 1062 Z M306.059 1271 Q337.059 1271 363.086 1259 Q389.112 1247 406.657 1227 Q424.201 1207 432.824 1179.5 Q441.448 1152 437.641 1121 Q433.835 1090 418.459 1062.5 Q403.082 1035 380.626 1015 Q358.171 995 329.197 983 Q300.224 971 269.224 971 Q238.224 971 212.197 983 Q186.171 995 168.626 1015 Q151.082 1035 142.459 1062.5 Q133.835 1090 137.641 1121 Q141.448 1152 156.824 1179.5 Q172.201 1207 194.657 1227 Q217.112 1247 246.086 1259 Q275.059 1271 306.059 1271 Z " />
<glyph glyph-name="acute" unicode="&#xb4;" horiz-adv-x="323" d="M332.521 1006 L203.521 1006 L440.268 1346 L557.831 1261 L332.521 1006 Z " />
<glyph glyph-name="tilde" unicode="&#x2dc;" horiz-adv-x="449" d="M142.798 1163 Q184.587 1202 222.64 1206.5 Q260.692 1211 296.535 1197.5 Q332.377 1184 367.237 1162.5 Q402.097 1141 437.94 1127.5 Q473.782 1114 511.835 1118.5 Q549.887 1123 591.676 1162 L574.24 1020 Q531.452 981 493.961 977 Q456.469 973 420.566 986 Q384.662 999 349.863 1021 Q315.064 1043 279.16 1056 Q243.257 1069 205.766 1065 Q168.274 1061 125.486 1022 L142.798 1163 Z " />
<glyph glyph-name="dotaccent" unicode="&#x2d9;" horiz-adv-x="180" d="M310.029 1059 Q305.486 1022 276.232 995.5 Q246.978 969 208.978 969 Q171.978 969 148.732 995.5 Q125.486 1022 130.029 1059 Q134.695 1097 164.387 1123 Q194.079 1149 231.079 1149 Q269.079 1149 291.887 1123 Q314.695 1097 310.029 1059 Z " />
<glyph glyph-name="bracketright" unicode="&#x5d;" horiz-adv-x="833" d="M135.677 1105 L500.677 1105 L336.882 -229 L-28.1177 -229 L-11.1734 -91 L215.827 -91 L345.733 967 L118.733 967 L135.677 1105 Z " />
<glyph glyph-name="parenright" unicode="&#x29;" horiz-adv-x="537" d="M288.309 1102 Q422.4 948 474.026 778 Q525.653 608 493.851 406 Q479.309 312 449.433 227.5 Q419.558 143 374.104 66 Q328.649 -11 266.309 -83 Q203.968 -155 125.373 -225 L36.7747 -124 Q104.019 -65 156.886 -5 Q209.753 55 248.673 119.5 Q287.592 184 312.81 255 Q338.028 326 350.973 407 Q364.778 495 360.478 574 Q356.178 653 334.142 726 Q312.105 799 271.893 866.5 Q231.681 934 174.662 999 L288.309 1102 Z " />
<glyph glyph-name="grave" unicode="&#x60;" horiz-adv-x="349" d="M75.6908 1268 L231.355 1363 L392.521 1006 L242.521 1006 L75.6908 1268 Z " />
<glyph glyph-name="slash" unicode="&#x2f;" horiz-adv-x="530" d="M-49.6455 -160 L560.204 1093 L687.573 1039 L77.7241 -214 L-49.6455 -160 Z " />
<glyph glyph-name="Adieresis" unicode="&#xc4;" horiz-adv-x="1014" d="M984 0 L816 0 L741.995 228 Q738.591 241 727.512 248.5 Q716.433 256 702.433 256 L374.433 256 Q360.433 256 347.512 248.5 Q334.591 241 327.995 228 L198 0 L30 0 L530.436 875 L698.436 875 L984 0 Z M429.605 404 L683.605 404 L591.476 688 L429.605 404 Z M890.712 1089 Q886.169 1052 856.916 1025.5 Q827.662 999 789.662 999 Q752.662 999 729.416 1025.5 Q706.169 1052 710.712 1089 Q715.378 1127 745.071 1153 Q774.763 1179 811.763 1179 Q849.763 1179 872.571 1153 Q895.378 1127 890.712 1089 Z M570.712 1089 Q566.169 1052 536.916 1025.5 Q507.662 999 469.662 999 Q432.662 999 409.416 1025.5 Q386.169 1052 390.712 1089 Q395.378 1127 425.071 1153 Q454.763 1179 491.763 1179 Q529.763 1179 552.571 1153 Q575.378 1127 570.712 1089 Z " />
<glyph glyph-name="Aring" unicode="&#xc5;" horiz-adv-x="1014" d="M984 0 L816 0 L741.995 228 Q738.591 241 727.512 248.5 Q716.433 256 702.433 256 L374.433 256 Q360.433 256 347.512 248.5 Q334.591 241 327.995 228 L198 0 L30 0 L530.436 875 L698.436 875 L984 0 Z M429.605 404 L683.605 404 L591.476 688 L429.605 404 Z M637.397 1062 Q661.397 1062 681.046 1079.5 Q700.695 1097 703.641 1121 Q706.588 1145 691.237 1162.5 Q675.886 1180 651.886 1180 Q627.886 1180 607.737 1162.5 Q587.588 1145 584.641 1121 Q581.695 1097 597.546 1079.5 Q613.397 1062 637.397 1062 Z M663.059 1271 Q694.059 1271 720.086 1259 Q746.112 1247 763.657 1227 Q781.201 1207 789.824 1179.5 Q798.448 1152 794.641 1121 Q790.835 1090 775.459 1062.5 Q760.082 1035 737.626 1015 Q715.171 995 686.197 983 Q657.224 971 626.224 971 Q595.224 971 569.197 983 Q543.171 995 525.626 1015 Q508.082 1035 499.459 1062.5 Q490.835 1090 494.641 1121 Q498.448 1152 513.824 1179.5 Q529.201 1207 551.657 1227 Q574.112 1247 603.086 1259 Q632.059 1271 663.059 1271 Z " />
<glyph glyph-name="ae" unicode="&#xe6;" horiz-adv-x="1147" d="M701.61 176 Q700.259 165 707.277 157 Q714.295 149 725.295 149 L1100.29 149 L1082 0 L518 0 L559.87 341 Q559.22 352 553.018 358.5 Q546.816 365 535.816 365 L345.816 365 Q328.816 365 313.966 354 Q299.115 343 293.028 326 L189 0 L30 0 L307.436 875 L625.436 875 L1189.31 874 L1170.9 724 L795.896 724 Q784.896 724 775.914 716 Q766.931 708 765.458 696 L746.549 542 Q745.076 530 752.094 522 Q759.111 514 770.111 514 L1145.11 514 L1126.69 364 L724.694 364 L701.61 176 Z M581.111 514 L604.195 702 Q603.545 713 597.343 719.5 Q591.142 726 580.142 726 L420.142 726 L352.111 514 L581.111 514 Z " />
<glyph glyph-name="AE" unicode="&#xc6;" horiz-adv-x="1203" d="M1245.31 874 L1226.9 724 L801.896 724 Q790.896 724 781.852 715.5 Q772.809 707 771.458 696 L752.549 542 Q751.076 530 758.094 522 Q765.111 514 776.111 514 L1201.11 514 L1182.69 364 L757.694 364 Q746.694 364 737.711 356 Q728.729 348 727.378 337 L707.61 176 Q706.259 165 713.277 157 Q720.295 149 731.295 149 L1156.29 149 L1138 0 L524 0 L555.31 255 L374.31 255 Q360.31 255 347.389 247.5 Q334.468 240 327.872 227 L198 0 L30 0 L530.436 875 L810.436 875 L1245.31 874 Z M571.149 384 L612.896 724 L419.149 384 L571.149 384 Z " />
<glyph glyph-name="paragraph" unicode="&#xb6;" horiz-adv-x="1180" d="M997.333 809 L907.333 809 Q898.333 809 891.228 800 Q884.123 791 883.14 783 L787 0 L625 0 L666.378 337 Q667.729 348 661.273 356.5 Q654.816 365 642.816 365 L339.816 365 Q286.816 365 243.272 385 Q199.728 405 168.964 439.5 Q138.2 474 123.909 520.5 Q109.619 567 116.126 620 Q122.757 674 149.966 720.5 Q177.176 767 217.912 801.5 Q258.648 836 309.042 855.5 Q359.436 875 412.436 875 L1192.44 875 L1085 0 L923 0 L1019.14 783 Q1020.49 794 1014.41 801.5 Q1008.33 809 997.333 809 Z M284.004 619 Q281.18 596 287.347 577 Q293.514 558 306.795 544 Q320.076 530 339.094 522 Q358.111 514 380.111 514 L661.111 514 Q672.111 514 681.155 522.5 Q690.199 531 691.549 542 L711.072 701 Q712.177 710 705.037 717 Q697.896 724 688.896 724 L400.896 724 Q379.896 724 359.852 715.5 Q339.809 707 323.59 693 Q307.371 679 297.038 660 Q286.705 641 284.004 619 Z " />
<glyph glyph-name="Agrave" unicode="&#xc0;" horiz-adv-x="1014" d="M984 0 L816 0 L741.995 228 Q738.591 241 727.512 248.5 Q716.433 256 702.433 256 L374.433 256 Q360.433 256 347.512 248.5 Q334.591 241 327.995 228 L198 0 L30 0 L530.436 875 L698.436 875 L984 0 Z M429.605 404 L683.605 404 L591.476 688 L429.605 404 Z M371.691 1268 L527.355 1363 L689.521 1006 L539.521 1006 L371.691 1268 Z " />
<glyph glyph-name="Atilde" unicode="&#xc3;" horiz-adv-x="1014" d="M984 0 L816 0 L741.995 228 Q738.591 241 727.512 248.5 Q716.433 256 702.433 256 L374.433 256 Q360.433 256 347.512 248.5 Q334.591 241 327.995 228 L198 0 L30 0 L530.436 875 L698.436 875 L984 0 Z M425.798 1163 Q467.587 1202 505.64 1206.5 Q543.692 1211 579.535 1197.5 Q615.377 1184 650.237 1162.5 Q685.097 1141 720.94 1127.5 Q756.782 1114 794.835 1118.5 Q832.887 1123 874.676 1162 L857.24 1020 Q814.452 981 776.961 977 Q739.469 973 703.566 986 Q667.662 999 632.863 1021 Q598.064 1043 562.16 1056 Q526.257 1069 488.266 1065 Q450.274 1061 408.486 1022 L425.798 1163 Z M429.605 404 L683.605 404 L591.476 688 L429.605 404 Z " />
<glyph glyph-name="OE" unicode="&#x152;" horiz-adv-x="1266" d="M1308.31 874 L1289.9 724 L774.896 724 Q763.896 724 754.852 715.5 Q745.809 707 744.458 696 L725.549 542 Q724.076 530 731.094 522 Q738.111 514 749.111 514 L1264.11 514 L1245.69 364 L730.694 364 Q719.694 364 710.711 356 Q701.729 348 700.378 337 L680.61 176 Q679.259 165 686.277 157 Q693.295 149 704.295 149 L1219.29 149 L1201 0 L497 0 Q407 0 331.175 34 Q255.349 68 203.655 127.5 Q151.961 187 127.222 266.5 Q102.483 346 113.657 437 Q124.707 527 169.03 607 Q213.353 687 279.659 746.5 Q345.964 806 430.2 840.5 Q514.436 875 604.436 875 L1308.31 874 Z M586.142 726 Q526.142 726 470.818 703 Q415.494 680 371.205 641 Q326.916 602 297.97 549.5 Q269.024 497 261.657 437 Q254.29 377 270.282 324 Q286.275 271 320.925 231.5 Q355.575 192 405.312 169.5 Q455.049 147 515.049 147 L586.142 726 Z " />
<glyph glyph-name="hyphen" unicode="&#x2d;" horiz-adv-x="501" d="M64.6936 364 L83.1113 514 L544.111 514 L525.694 364 L64.6936 364 Z " />
<glyph glyph-name="sterling" unicode="&#xa3;" horiz-adv-x="836" d="M674.975 350 L464.975 350 Q452.975 350 441.29 348.5 Q429.606 347 419.115 343 Q408.624 339 401.703 331.5 Q394.782 324 393.186 311 L378.575 192 Q376.119 172 385.707 160.5 Q395.295 149 415.295 149 L789.295 149 L771 0 L188 0 L222.625 282 Q223.976 293 224.449 305 Q224.923 317 222.151 327 Q219.378 337 212.676 343.5 Q205.975 350 192.975 350 L87.9746 350 L107.129 506 L250.129 506 Q259.583 583 293.056 652 Q326.528 721 379.351 772.5 Q432.174 824 500.858 854 Q569.542 884 649.542 884 Q720.542 884 781.788 857.5 Q843.034 831 886.895 781 L775.248 678 Q750.686 706 716.089 721.5 Q681.492 737 642.492 737 Q601.492 737 564.028 721 Q526.563 705 496.248 678 Q465.933 651 446.013 615 Q426.092 579 421.058 538 L417.129 506 L694.129 506 L674.975 350 Z " />
<glyph glyph-name="plus" unicode="&#x2b;" horiz-adv-x="483" d="M217.185 368 L65.1847 368 L82.129 506 L234.129 506 L252.792 658 L390.792 658 L372.129 506 L525.129 506 L508.185 368 L355.185 368 L336.399 215 L198.399 215 L217.185 368 Z " />
<glyph glyph-name="multiply" unicode="&#xd7;" horiz-adv-x="484" d="M131.864 569 L184.635 616 L301.305 483 L450.758 617 L491.987 570 L341.534 436 L459.204 303 L406.433 256 L289.886 390 L140.556 257 L99.3265 304 L248.534 436 L131.864 569 Z " />
<glyph glyph-name="question" unicode="&#x3f;" horiz-adv-x="724" d="M788.79 772 Q781.545 713 761.888 671 Q742.231 629 712.557 595 Q682.882 561 643.883 532.5 Q604.883 504 559.2 474 Q533.113 457 517.455 443.5 Q501.797 430 491.903 410.5 Q482.009 391 476.448 362 Q470.887 333 464.994 285 L317.994 285 Q324.256 336 330.544 375 Q336.833 414 354.753 450 Q372.673 486 407.155 522.5 Q441.637 559 504.407 606 Q523.004 619 542.345 634 Q561.687 649 578.02 668 Q594.353 687 606.177 710 Q618.001 733 621.439 761 Q625.982 798 613.929 822 Q601.876 846 579.095 860 Q556.314 874 525.928 879 Q495.542 884 463.542 884 Q430.542 884 397.875 874.5 Q365.209 865 338.937 846.5 Q312.666 828 294.789 800.5 Q276.912 773 272.492 737 Q230.492 737 188.931 736.5 Q147.369 736 105.369 736 Q114.21 808 149.024 863.5 Q183.839 919 235.505 957 Q287.171 995 351.126 1015 Q415.082 1035 482.082 1035 Q547.082 1035 606.486 1022 Q665.89 1009 709.645 978.5 Q753.4 948 775.699 897.5 Q797.999 847 788.79 772 Z M359.913 -17 Q341.913 -17 326.772 -10 Q311.632 -3 301.105 9 Q290.578 21 285.543 37 Q280.508 53 282.718 71 Q284.928 89 293.892 105 Q302.857 121 316.33 133 Q329.804 145 346.663 152 Q363.523 159 381.523 159 Q399.523 159 414.663 152 Q429.804 145 440.33 133 Q450.857 121 455.892 105 Q460.928 89 458.718 71 Q456.508 53 447.543 37 Q438.578 21 425.105 9 Q411.632 -3 394.772 -10 Q377.913 -17 359.913 -17 Z " />
<glyph glyph-name="exclam" unicode="&#x21;" horiz-adv-x="282" d="M187.082 1035 L348.082 1035 L255.994 285 L94.9936 285 L187.082 1035 Z M138.913 -17 Q120.913 -17 105.772 -10 Q90.6316 -3 80.1051 9 Q69.5785 21 64.543 37 Q59.5076 53 61.7177 71 Q63.9278 89 72.8924 105 Q81.8569 121 95.3303 133 Q108.804 145 125.663 152 Q142.523 159 160.523 159 Q196.523 159 219.33 133 Q242.138 107 237.718 71 Q235.508 53 226.543 37 Q217.578 21 204.105 9 Q190.632 -3 173.772 -10 Q156.913 -17 138.913 -17 Z " />
<glyph glyph-name="equal" unicode="&#x3d;" horiz-adv-x="501" d="M83.1113 514 L101.529 664 L562.529 664 L544.111 514 L83.1113 514 Z M46.2759 214 L64.6936 364 L525.694 364 L507.276 214 L46.2759 214 Z " />
<glyph glyph-name="Lslash" unicode="&#x141;" horiz-adv-x="771" d="M74.6936 364 L93.1113 514 L158.111 514 L202.436 875 L369.436 875 L325.111 514 L554.111 514 L535.694 364 L306.694 364 L285.575 192 Q283.119 172 292.707 160.5 Q302.295 149 322.295 149 L754.295 149 L736 0 L95 0 L139.694 364 L74.6936 364 Z " />
<glyph glyph-name="Euro" unicode="&#x20ac;" horiz-adv-x="685" d="M490.664 885 Q561.664 885 620.411 858.5 Q679.157 832 720.386 785 L619.09 693 Q596.282 719 562.562 733.5 Q528.843 748 489.843 748 Q454.843 748 421.492 737 Q388.142 726 360.686 706 Q333.23 686 312.792 658 Q292.354 630 282.18 596 L558.18 596 L544.919 488 L315.919 488 Q295.919 488 280.744 482.5 Q265.568 477 263.481 460 L254.395 386 L532.395 386 L519.134 278 L243.134 278 Q245.082 245 258.206 217.5 Q271.329 190 293.935 170.5 Q316.54 151 345.69 140 Q374.839 129 409.839 129 Q448.839 129 485.12 143.5 Q521.4 158 550.592 184 L636.051 90 Q583.28 43 518.026 16.5 Q452.772 -10 380.772 -10 Q315.772 -10 260.912 11.5 Q206.052 33 165.779 71.5 Q125.506 110 101.952 162.5 Q78.3987 215 77.1341 278 L-38.8659 278 L-25.6052 386 L52.3948 386 Q68.3948 386 79.3683 398 Q90.3417 410 92.1834 425 L99.9189 488 L-13.0811 488 L0.179598 596 L116.18 596 Q132.915 659 168.923 712 Q204.93 765 254.657 803.5 Q304.385 842 365.024 863.5 Q425.664 885 490.664 885 Z " />
<glyph glyph-name="Aacute" unicode="&#xc1;" horiz-adv-x="1014" d="M984 0 L816 0 L741.995 228 Q738.591 241 727.512 248.5 Q716.433 256 702.433 256 L374.433 256 Q360.433 256 347.512 248.5 Q334.591 241 327.995 228 L198 0 L30 0 L530.436 875 L698.436 875 L984 0 Z M429.605 404 L683.605 404 L591.476 688 L429.605 404 Z M702.521 1006 L573.521 1006 L809.268 1346 L927.831 1261 L702.521 1006 Z " />
<glyph glyph-name="Acircumflex" unicode="&#xc2;" horiz-adv-x="1014" d="M984 0 L816 0 L741.995 228 Q738.591 241 727.512 248.5 Q716.433 256 702.433 256 L374.433 256 Q360.433 256 347.512 248.5 Q334.591 241 327.995 228 L198 0 L30 0 L530.436 875 L698.436 875 L984 0 Z M786.4 948 L667.098 1084 Q657.449 1095 640.949 1095 Q624.449 1095 612.098 1084 L459.4 948 L387.468 1030 L663.673 1276 L879.468 1030 L787.4 948 L786.4 948 Z M429.605 404 L683.605 404 L591.476 688 L429.605 404 Z " />
<glyph glyph-name="minus" unicode="&#x2212;" horiz-adv-x="483" d="M69.605 404 L77.7087 470 L520.709 470 L512.605 404 L69.605 404 Z " />
<glyph glyph-name="plusminus" unicode="&#xb1;" horiz-adv-x="483" d="M39.8911 162 L53.1518 270 L205.152 270 L221.237 401 L69.2366 401 L86.1809 539 L238.181 539 L256.844 691 L394.844 691 L376.181 539 L529.181 539 L512.237 401 L359.237 401 L343.152 270 L496.152 270 L482.891 162 L39.8911 162 Z " />
<glyph glyph-name="Cacute" unicode="&#x106;" horiz-adv-x="847" d="M575.931 708 Q519.931 708 467.853 687 Q415.775 666 374.231 629 Q332.688 592 305.172 543 Q277.656 494 270.78 438 Q263.904 382 278.887 333 Q293.871 284 326.328 247 Q358.785 210 405.145 188.5 Q451.505 167 507.505 167 Q561.505 167 614.022 187.5 Q666.539 208 709.205 246 L812.716 128 Q743.104 66 658.552 33 Q574 0 487 0 Q397 0 321.236 34.5 Q245.472 69 193.778 128.5 Q142.083 188 117.406 268 Q92.729 348 103.78 438 Q114.83 528 159.153 608 Q203.476 688 269.72 747 Q335.964 806 420.2 840.5 Q504.436 875 594.436 875 Q681.436 875 757.885 842 Q834.333 809 888.72 747 L756.231 629 Q722.897 667 676.414 687.5 Q629.931 708 575.931 708 Z M642.521 1006 L513.521 1006 L749.268 1346 L867.831 1261 L642.521 1006 Z " />
<glyph glyph-name="Ccircumflex" unicode="&#x108;" horiz-adv-x="847" d="M575.931 708 Q519.931 708 467.853 687 Q415.775 666 374.231 629 Q332.688 592 305.172 543 Q277.656 494 270.78 438 Q263.904 382 278.887 333 Q293.871 284 326.328 247 Q358.785 210 405.145 188.5 Q451.505 167 507.505 167 Q561.505 167 614.022 187.5 Q666.539 208 709.205 246 L812.716 128 Q743.104 66 658.552 33 Q574 0 487 0 Q397 0 321.236 34.5 Q245.472 69 193.778 128.5 Q142.083 188 117.406 268 Q92.729 348 103.78 438 Q114.83 528 159.153 608 Q203.476 688 269.72 747 Q335.964 806 420.2 840.5 Q504.436 875 594.436 875 Q681.436 875 757.885 842 Q834.333 809 888.72 747 L756.231 629 Q722.897 667 676.414 687.5 Q629.931 708 575.931 708 Z M762.4 948 L643.098 1084 Q633.449 1095 616.949 1095 Q600.449 1095 588.098 1084 L435.4 948 L363.468 1030 L639.673 1276 L855.468 1030 L763.4 948 L762.4 948 Z " />
<glyph glyph-name="Cdotaccent" unicode="&#x10a;" horiz-adv-x="847" d="M575.931 708 Q519.931 708 467.853 687 Q415.775 666 374.231 629 Q332.688 592 305.172 543 Q277.656 494 270.78 438 Q263.904 382 278.887 333 Q293.871 284 326.328 247 Q358.785 210 405.145 188.5 Q451.505 167 507.505 167 Q561.505 167 614.022 187.5 Q666.539 208 709.205 246 L812.716 128 Q743.104 66 658.552 33 Q574 0 487 0 Q397 0 321.236 34.5 Q245.472 69 193.778 128.5 Q142.083 188 117.406 268 Q92.729 348 103.78 438 Q114.83 528 159.153 608 Q203.476 688 269.72 747 Q335.964 806 420.2 840.5 Q504.436 875 594.436 875 Q681.436 875 757.885 842 Q834.333 809 888.72 747 L756.231 629 Q722.897 667 676.414 687.5 Q629.931 708 575.931 708 Z M691.029 1059 Q686.486 1022 657.232 995.5 Q627.978 969 589.978 969 Q552.978 969 529.732 995.5 Q506.486 1022 511.029 1059 Q515.695 1097 545.387 1123 Q575.079 1149 612.079 1149 Q650.079 1149 672.887 1123 Q695.695 1097 691.029 1059 Z " />
<glyph glyph-name="Aogonek" unicode="&#x104;" horiz-adv-x="1014" d="M930.566 -199 Q892.514 -232 852.865 -249.5 Q813.217 -267 775.217 -267 Q736.217 -267 703.058 -252 Q669.9 -237 647.092 -211 Q624.285 -185 613.582 -150 Q602.88 -115 607.791 -75 Q611.966 -41 626.649 -11 Q641.333 19 663.78 43 Q686.227 67 716.253 83.5 Q746.278 100 780.261 108 L741.995 228 Q738.591 241 727.512 248.5 Q716.433 256 702.433 256 L374.433 256 Q360.433 256 347.512 248.5 Q334.591 241 327.995 228 L198 0 L30 0 L530.436 875 L698.436 875 L984 0 L816 0 Q780 0 752.36 -21.5 Q724.72 -43 720.914 -74 Q717.108 -105 735.968 -126.5 Q754.828 -148 785.828 -148 Q800.828 -148 817.749 -140.5 Q834.67 -133 850.389 -119 L930.566 -199 Z M429.605 404 L683.605 404 L591.476 688 L429.605 404 Z " />
<glyph glyph-name="Amacron" unicode="&#x100;" horiz-adv-x="1014" d="M984 0 L816 0 L741.995 228 Q738.591 241 727.512 248.5 Q716.433 256 702.433 256 L374.433 256 Q360.433 256 347.512 248.5 Q334.591 241 327.995 228 L198 0 L30 0 L530.436 875 L698.436 875 L984 0 Z M411.714 1032 L428.658 1170 L871.658 1170 L854.714 1032 L411.714 1032 Z M429.605 404 L683.605 404 L591.476 688 L429.605 404 Z " />
<glyph glyph-name="Hbar" unicode="&#x126;" horiz-adv-x="982" d="M111.635 616 L130.053 766 L189.053 766 L202.436 875 L364.436 875 L351.053 766 L819.053 766 L832.436 875 L994.436 875 L981.053 766 L1040.05 766 L1021.64 616 L962.635 616 L887 0 L725 0 L766.378 337 Q767.729 348 760.773 356.5 Q753.816 365 742.816 365 L328.816 365 Q317.816 365 308.773 356.5 Q299.729 348 298.378 337 L257 0 L95 0 L170.635 616 L111.635 616 Z M791.549 542 L800.635 616 L332.635 616 L323.549 542 Q322.199 531 329.155 522.5 Q336.111 514 347.111 514 L761.111 514 Q772.111 514 781.155 522.5 Q790.199 531 791.549 542 Z " />
<glyph glyph-name="Lacute" unicode="&#x139;" horiz-adv-x="771" d="M369.436 875 L285.575 192 Q283.119 172 292.707 160.5 Q302.295 149 322.295 149 L754.295 149 L736 0 L95 0 L202.436 875 L369.436 875 Z M399.521 1006 L270.521 1006 L506.268 1346 L624.831 1261 L399.521 1006 Z " />
<glyph glyph-name="Jcircumflex" unicode="&#x134;" horiz-adv-x="728" d="M514.589 355 L578.314 874 L745.314 874 L681.343 353 Q672.38 280 636.96 215.5 Q601.54 151 547.647 103 Q493.753 55 425.877 27.5 Q358 0 285 0 Q211 0 150.377 27.5 Q89.7532 55 47.6468 103 L175.644 217 Q198.452 191 230.478 179 Q262.505 167 301.505 167 Q340.505 167 376.847 182 Q413.189 197 442.32 222.5 Q471.451 248 490.625 282 Q509.8 316 514.589 355 Z M836.4 948 L726.748 1073 Q714.467 1087 697.265 1093.5 Q680.063 1100 662.098 1084 L509.4 948 L437.468 1030 L713.673 1276 L929.468 1030 L837.4 948 L836.4 948 Z " />
<glyph glyph-name="aeacute" unicode="&#x1fd;" horiz-adv-x="1045" d="M701.61 176 Q700.259 165 707.277 157 Q714.295 149 725.295 149 L1100.29 149 L1082 0 L518 0 L559.87 341 Q559.22 352 553.018 358.5 Q546.816 365 535.816 365 L345.816 365 Q328.816 365 313.966 354 Q299.115 343 293.028 326 L189 0 L30 0 L307.436 875 L625.436 875 L1189.31 874 L1170.9 724 L795.896 724 Q784.896 724 775.914 716 Q766.931 708 765.458 696 L746.549 542 Q745.076 530 752.094 522 Q759.111 514 770.111 514 L1145.11 514 L1126.69 364 L724.694 364 L701.61 176 Z M581.111 514 L604.195 702 Q603.545 713 597.343 719.5 Q591.142 726 580.142 726 L420.142 726 L352.111 514 L581.111 514 Z M765.521 1006 L636.521 1006 L872.268 1346 L990.831 1261 L765.521 1006 Z " />
<glyph glyph-name="Eth" unicode="&#xd0;" horiz-adv-x="874" d="M74.6936 364 L93.1113 514 L158.111 514 L202.436 875 L531.436 875 Q621.436 875 697.2 840.5 Q772.964 806 824.659 746.5 Q876.353 687 901.03 607 Q925.707 527 914.657 437 Q903.606 347 859.283 267 Q814.961 187 748.716 128 Q682.472 69 598.236 34.5 Q514 0 424 0 L95 0 L139.694 364 L74.6936 364 Z M747.534 436 Q754.042 489 739.558 538 Q725.075 587 694.74 625 Q664.406 663 619.669 685.5 Q574.931 708 519.931 708 L373.931 708 Q362.931 708 355.011 700.5 Q347.09 693 345.739 682 L325.111 514 L554.111 514 L535.694 364 L306.694 364 L285.575 192 Q284.224 181 290.365 174 Q296.505 167 307.505 167 L453.505 167 Q506.505 167 556.768 189.5 Q607.03 212 647.073 249 Q687.116 286 714.071 334.5 Q741.026 383 747.534 436 Z " />
<glyph glyph-name="commaaccent" unicode="&#xf6c3;" horiz-adv-x="454" d="M137.565 -142 L280.565 -142 L224.062 -423 L103.062 -423 L137.565 -142 Z " />
<glyph glyph-name="Lcommaaccent" unicode="&#x13b;" horiz-adv-x="771" d="M369.436 875 L285.575 192 Q283.119 172 292.707 160.5 Q302.295 149 322.295 149 L754.295 149 L736 0 L95 0 L202.436 875 L369.436 875 Z M260.565 -142 L403.565 -142 L347.062 -423 L226.062 -423 L260.565 -142 Z " />
<glyph glyph-name="Ldot" unicode="&#x13f;" horiz-adv-x="771" d="M369.436 875 L285.575 192 Q283.119 172 292.707 160.5 Q302.295 149 322.295 149 L754.295 149 L736 0 L95 0 L202.436 875 L369.436 875 Z M651.445 476 Q646.902 439 617.649 412.5 Q588.395 386 550.395 386 Q513.395 386 490.149 412.5 Q466.902 439 471.445 476 Q476.111 514 505.804 540 Q535.496 566 572.496 566 Q610.496 566 633.304 540 Q656.111 514 651.445 476 Z " />
<glyph glyph-name="Abreve" unicode="&#x102;" horiz-adv-x="1014" d="M984 0 L816 0 L755.838 186 Q752.189 197 747.162 209 Q742.135 221 735.925 231.5 Q729.714 242 721.573 249 Q713.433 256 702.433 256 L374.433 256 Q360.433 256 347.512 248.5 Q334.591 241 327.995 228 L198 0 L30 0 L530.436 875 L698.436 875 L984 0 Z M718.745 1187 L845.745 1187 Q840.834 1147 821.036 1112 Q801.239 1077 771.985 1050.5 Q742.731 1024 705.89 1009 Q669.048 994 629.048 994 Q589.048 994 555.89 1009 Q522.731 1024 499.485 1050.5 Q476.239 1077 465.536 1112 Q454.834 1147 459.745 1187 L586.745 1187 Q583.307 1159 600.413 1139.5 Q617.519 1120 644.519 1120 Q671.519 1120 693.474 1140 Q715.43 1160 718.745 1187 Z M429.605 404 L683.605 404 L591.476 688 L429.605 404 Z " />
<glyph glyph-name="Thorn" unicode="&#xde;" horiz-adv-x="786" d="M202.314 874 L268.314 874 L246.458 696 Q246.107 685 252.748 678 Q259.388 671 270.388 671 L592.388 671 Q640.388 671 681.117 652.5 Q721.845 634 749.978 602.5 Q778.11 571 791.33 528 Q804.551 485 798.657 437 Q792.763 389 768.983 346 Q745.204 303 709.336 271.5 Q673.468 240 628.197 221.5 Q582.925 203 534.925 203 L212.925 203 Q201.925 203 193.566 196 Q185.206 189 182.856 178 L161 0 L95 0 L202.314 874 Z M732.657 437 Q737.077 473 726.445 504.5 Q715.813 536 694.575 558.5 Q673.338 581 642.934 594 Q612.53 607 576.53 607 L262.53 607 Q251.53 607 242.487 598.5 Q233.443 590 232.092 579 L197.221 295 Q195.871 284 202.827 275.5 Q209.783 267 220.783 267 L534.783 267 Q570.783 267 604.38 280 Q637.976 293 664.739 315.5 Q691.501 338 709.869 369.5 Q728.237 401 732.657 437 Z " />
<glyph glyph-name="space" unicode="&#x20;" horiz-adv-x="454" d="" />
<glyph glyph-name="at" unicode="&#x40;" horiz-adv-x="994" d="M760.29 377 Q758.483 346 776.721 323.5 Q794.958 301 826.958 301 Q858.958 301 883.659 323 Q908.361 345 912.29 377 L925.796 487 Q933.9 553 911.583 611.5 Q889.266 670 844.607 713.5 Q799.948 757 735.579 782.5 Q671.21 808 596.21 808 Q519.21 808 448.149 779 Q377.088 750 320.388 699.5 Q263.687 649 226.399 581.5 Q189.111 514 179.78 438 Q170.448 362 191.16 294.5 Q211.872 227 256.11 176 Q300.348 125 363.726 95.5 Q427.104 66 504.104 66 Q578.104 66 650.042 94 Q721.98 122 781.487 175 L822.716 128 Q753.104 66 668.552 33 Q584 0 497 0 Q407 0 331.236 34.5 Q255.472 69 203.716 128 Q151.961 187 127.283 267 Q102.606 347 113.657 437 Q124.707 527 169.03 607 Q213.353 687 279.597 746 Q345.842 805 430.078 839.5 Q514.314 874 604.314 874 Q695.314 874 770.946 842.5 Q846.578 811 898.948 757 Q951.318 703 976.977 631 Q1002.64 559 992.568 477 L980.29 377 Q976.729 348 962.037 322 Q947.344 296 925.45 276.5 Q903.556 257 876.144 245.5 Q848.732 234 818.732 234 Q777.732 234 747.249 254.5 Q716.766 275 701.818 308 Q670.52 273 626.626 253.5 Q582.732 234 525.732 234 Q472.732 234 434.819 251 Q396.906 268 373.467 297 Q350.028 326 340.878 365.5 Q331.728 405 337.13 449 Q343.761 503 365.295 544 Q386.829 585 418.767 613 Q450.705 641 491.985 655.5 Q533.266 670 579.266 670 Q621.266 670 657.792 658 Q694.319 646 720.995 623 Q747.671 600 761.935 565.5 Q776.199 531 772.673 486 L760.29 377 Z M702.13 449 Q711.094 522 674.444 561.5 Q637.794 601 570.916 602 Q503.794 601 457.444 561.5 Q411.094 522 402.13 449 Q397.71 413 406.211 384.5 Q414.711 356 432.317 336.5 Q449.923 317 476.195 307 Q502.467 297 533.467 297 Q564.467 297 593.195 307 Q621.923 317 644.317 336.5 Q666.711 356 682.211 384.5 Q697.71 413 702.13 449 Z " />
<glyph glyph-name="divide" unicode="&#xf7;" horiz-adv-x="282" d="M163.101 180 Q140.101 180 125.627 196.5 Q111.153 213 113.977 236 Q116.801 259 135.327 275.5 Q153.853 292 176.853 292 Q199.853 292 214.327 275.5 Q228.801 259 225.977 236 Q223.153 213 204.627 196.5 Q186.101 180 163.101 180 Z M211.847 577 Q188.847 577 174.373 593.5 Q159.899 610 162.723 633 Q165.547 656 184.073 672.5 Q202.599 689 225.599 689 Q248.599 689 263.073 672.5 Q277.547 656 274.723 633 Q271.899 610 253.373 593.5 Q234.847 577 211.847 577 Z M-30.395 404 L-22.2913 470 L420.709 470 L412.605 404 L-30.395 404 Z " />
<glyph glyph-name="thorn" unicode="&#xfe;" horiz-adv-x="786" d="M202.314 874 L369.314 874 L352.492 737 Q352.142 726 358.782 719 Q365.423 712 376.423 712 L595.3 711 Q654.3 711 703.783 690.5 Q753.266 670 787.784 633.5 Q822.302 597 839.102 546.5 Q855.901 496 848.657 437 Q841.413 378 812.212 327.5 Q783.011 277 739.468 240 Q695.925 203 641.408 182.5 Q586.891 162 527.891 162 L308.891 162 Q297.891 162 289.532 155 Q281.172 148 278.821 137 L262 0 L95 0 L202.314 874 Z M690.902 439 Q694.34 467 686.226 490.5 Q678.111 514 661.76 531.5 Q645.409 549 622.137 559 Q598.864 569 571.864 569 L358.864 569 Q347.864 569 338.821 560.5 Q329.777 552 328.426 541 L303.501 338 Q302.151 327 309.107 318.5 Q316.063 310 327.063 310 L539.94 309 Q566.94 309 592.668 319 Q618.396 329 639.045 346.5 Q659.694 364 673.579 387.5 Q687.464 411 690.902 439 Z " />
<glyph glyph-name="trademark" unicode="&#x2122;" horiz-adv-x="554" d="M602.436 875 L631.436 875 L601.231 629 L572.231 629 L597.402 834 L480.51 729 L389.402 834 L364.231 629 L335.231 629 L365.436 875 L394.436 875 L480.281 776 Q482.035 774 485.535 774 Q489.035 774 491.281 776 L602.436 875 Z M133.876 846 L137.436 875 L339.436 875 L335.876 846 L259.876 846 Q255.876 846 252.007 843 Q248.139 840 247.525 835 L222.231 629 L194.231 629 L219.525 835 Q220.876 846 209.876 846 L133.876 846 Z " />
<glyph glyph-name="registered" unicode="&#xae;" horiz-adv-x="520" d="M470.087 807 Q467.509 786 451.237 767.5 Q434.966 749 414.352 744 Q406.106 742 405.124 734 Q404.878 732 410.037 717 Q415.195 702 421.923 683.5 Q428.652 665 435.126 648.5 Q441.6 632 443.109 628 L400.109 628 L357.106 742 L302.106 742 Q290.106 742 288.756 731 L276.109 628 L237.109 628 L267.314 874 L412.314 874 Q440.314 874 456.919 854.5 Q473.525 835 470.087 807 Z M401.14 783 Q411.14 783 419 790 Q426.859 797 428.087 807 Q429.438 818 423.797 825 Q418.157 832 407.157 832 L305.157 832 Q299.157 832 298.42 826 L293.877 789 Q293.14 783 299.14 783 L401.14 783 Z M121.72 747 Q127.614 795 150.709 836.5 Q173.805 878 209.173 909.5 Q244.54 941 288.25 959 Q331.961 977 379.961 977 Q427.961 977 467.25 959 Q506.54 941 534.173 909.5 Q561.805 878 574.709 836.5 Q587.614 795 581.72 747 Q575.826 699 552.731 657.5 Q529.635 616 494.268 584.5 Q458.9 553 415.19 535 Q371.48 517 323.48 517 Q275.48 517 236.19 535 Q196.9 553 169.268 584.5 Q141.635 616 128.731 657.5 Q115.826 699 121.72 747 Z M161.72 747 Q156.931 708 167.634 673 Q178.337 638 200.706 612.5 Q223.075 587 256.233 572 Q289.391 557 328.391 557 Q367.391 557 404.233 572 Q441.075 587 469.706 612.5 Q498.337 638 517.634 673 Q536.931 708 541.72 747 Q546.509 786 535.806 821 Q525.104 856 502.735 881.5 Q480.366 907 447.207 922 Q414.049 937 375.049 937 Q336.049 937 299.207 922 Q262.366 907 233.735 881.5 Q205.104 856 185.806 821 Q166.509 786 161.72 747 Z " />
<glyph glyph-name="copyright" unicode="&#xa9;" horiz-adv-x="520" d="M121.72 747 Q127.614 795 150.709 836.5 Q173.805 878 209.173 909.5 Q244.54 941 288.25 959 Q331.961 977 379.961 977 Q427.961 977 467.25 959 Q506.54 941 534.173 909.5 Q561.805 878 574.709 836.5 Q587.614 795 581.72 747 Q575.826 699 552.731 657.5 Q529.635 616 494.268 584.5 Q458.9 553 415.19 535 Q371.48 517 323.48 517 Q275.48 517 236.19 535 Q196.9 553 169.268 584.5 Q141.635 616 128.731 657.5 Q115.826 699 121.72 747 Z M162.72 747 Q157.931 708 168.695 673.5 Q179.459 639 201.828 613.5 Q224.197 588 256.856 573 Q289.514 558 328.514 558 Q367.514 558 403.856 573 Q440.197 588 468.828 613.5 Q497.459 639 516.695 673.5 Q535.931 708 540.72 747 Q545.509 786 534.745 820.5 Q523.981 855 501.612 880.5 Q479.243 906 446.585 921 Q413.926 936 374.926 936 Q335.926 936 299.585 921 Q263.243 906 234.612 880.5 Q205.981 855 186.745 820.5 Q167.509 786 162.72 747 Z M371.683 820 Q341.683 820 317.043 798.5 Q292.404 777 288.72 747 Q284.914 716 303.835 695 Q322.757 674 351.757 674 Q382.757 674 407.212 694 L436.915 659 Q417.828 642 393.661 632.5 Q369.495 623 345.495 623 Q319.495 623 298.223 633 Q276.95 643 261.976 659.5 Q247.002 676 240.265 698.5 Q233.528 721 236.72 747 Q239.79 772 252.052 794.5 Q264.315 817 283.402 834 Q302.49 851 326.156 860.5 Q349.823 870 375.823 870 Q399.823 870 421.656 860.5 Q443.49 851 458.402 834 L420.228 800 Q399.683 820 371.683 820 Z " />
<glyph glyph-name="eth" unicode="&#xf0;" horiz-adv-x="842" d="M578.952 586 L533.107 685 L626.474 745 Q604.299 768 572.64 783 Q540.982 798 498.596 803 L548.769 894 Q611.787 886 658.024 863.5 Q704.262 841 737.087 807 L854.928 879 L901.772 780 L791.423 712 Q812.792 658 816.688 592 Q820.585 526 811.13 449 L791.976 293 Q783.013 220 749.575 163.5 Q716.138 107 663.911 68.5 Q611.684 30 544.228 10 Q476.772 -10 399.772 -10 Q317.772 -10 256.912 11.5 Q196.052 33 157.218 71 Q118.384 109 102.268 161 Q86.1531 213 93.7658 275 Q101.133 335 130.395 386 Q159.657 437 208.2 474 Q256.743 511 322.321 532 Q387.9 553 468.9 553 Q513.9 553 550.856 544.5 Q587.813 536 615.655 522.5 Q643.497 509 662.094 493.5 Q680.691 478 689.972 464 L696.48 517 Q700.777 552 698.013 586.5 Q695.249 621 682.933 651 L578.952 586 Z M455.061 424 Q361.061 424 305.588 383.5 Q250.115 343 241.766 275 Q233.048 204 279.146 160 Q325.243 116 417.243 116 Q470.243 116 510.339 129 Q550.435 142 578.698 164.5 Q606.961 187 622.644 217 Q638.328 247 642.38 280 Q646.8 316 634.615 343 Q622.43 370 597.14 388 Q571.851 406 535.456 415 Q499.061 424 455.061 424 Z " />
<glyph glyph-name="degree" unicode="&#xb0;" horiz-adv-x="306" d="M233.301 654 Q253.301 654 271.722 661.5 Q290.143 669 304.8 682.5 Q319.458 696 329.107 713.5 Q338.756 731 341.211 751 Q346.123 791 321.499 818.5 Q296.876 846 256.876 846 Q216.876 846 184.999 818.5 Q153.123 791 148.211 751 Q145.756 731 151.107 713.5 Q156.458 696 168.3 682.5 Q180.143 669 196.722 661.5 Q213.301 654 233.301 654 Z M260.314 874 Q285.314 874 306.647 864.5 Q327.981 855 342.893 838 Q357.806 821 364.543 798.5 Q371.281 776 368.211 751 Q365.019 725 352.818 703 Q340.616 681 321.529 664 Q302.442 647 278.775 637.5 Q255.109 628 230.109 628 Q204.109 628 183.275 637.5 Q162.442 647 147.529 664 Q132.616 681 125.818 703 Q119.019 725 122.211 751 Q125.281 776 137.543 798.5 Q149.806 821 168.893 838 Q187.981 855 211.147 864.5 Q234.314 874 260.314 874 Z " />
<glyph glyph-name="percent" unicode="&#x25;" horiz-adv-x="789" d="M838.949 700 L144.068 82 L62.4873 175 L757.368 793 L838.949 700 Z M622.571 363 Q651.571 363 676.22 352 Q700.87 341 717.475 321.5 Q734.081 302 741.889 276 Q749.696 250 746.135 221 Q742.575 192 728.382 166 Q714.19 140 692.857 121 Q671.524 102 644.173 91 Q616.823 80 587.823 80 Q558.823 80 534.173 91 Q509.524 102 492.357 121 Q475.19 140 467.382 166 Q459.575 192 463.135 221 Q466.696 250 480.889 276 Q495.081 302 516.975 321.5 Q538.87 341 566.22 352 Q593.571 363 622.571 363 Z M301.455 810 Q330.455 810 355.105 799 Q379.754 788 396.36 768.5 Q412.966 749 420.773 723 Q428.581 697 425.02 668 Q421.459 639 407.267 613 Q393.075 587 371.742 568 Q350.409 549 323.058 538 Q295.707 527 266.707 527 Q237.707 527 213.058 538 Q188.409 549 171.242 568 Q154.075 587 146.267 613 Q138.459 639 142.02 668 Q145.581 697 159.773 723 Q173.966 749 195.86 768.5 Q217.754 788 245.105 799 Q272.455 810 301.455 810 Z M597.628 168 Q619.628 168 636.531 183.5 Q653.434 199 656.013 220 Q658.837 243 645.617 257.5 Q632.397 272 610.397 272 Q588.397 272 571.117 257.5 Q553.837 243 551.013 220 Q548.434 199 562.031 183.5 Q575.628 168 597.628 168 Z M276.513 615 Q298.513 615 314.916 630.5 Q331.319 646 333.897 667 Q336.721 690 324.002 704.5 Q311.282 719 289.282 719 Q267.282 719 250.002 704.5 Q232.721 690 229.897 667 Q227.319 646 240.916 630.5 Q254.513 615 276.513 615 Z " />
<glyph glyph-name="less" unicode="&#x3c;" horiz-adv-x="418" d="M73.5341 436 L385.65 722 L474.249 621 L276.78 438 L430.292 263 L316.646 160 L73.5341 436 Z " />
<glyph glyph-name="lessequal" unicode="&#x2264;" horiz-adv-x="526" d="M35.3481 125 L53.2746 271 L298.275 271 L114.534 436 L425.65 722 L515.249 621 L317.78 438 L458.204 303 L539.275 271 L521.348 125 L35.3481 125 Z " />
<glyph glyph-name="asciitilde" unicode="&#x7e;" horiz-adv-x="418" d="M84.8302 528 Q119.882 561 152.312 564.5 Q184.742 568 214.391 557 Q244.04 546 273.769 527.5 Q303.497 509 333.147 498 Q362.796 487 395.226 490.5 Q427.656 494 462.707 527 L445.763 389 Q409.711 356 378.282 352.5 Q346.852 349 316.202 360 Q285.553 371 256.325 389.5 Q227.096 408 197.447 419 Q167.797 430 135.368 426.5 Q102.938 423 67.886 390 L84.8302 528 Z " />
<glyph glyph-name="notequal" unicode="&#x2260;" horiz-adv-x="483" d="M88.0152 106 L139.276 214 L46.2759 214 L64.6936 364 L205.694 364 L275.111 514 L83.1113 514 L101.529 664 L342.529 664 L414.315 817 L526.895 781 L471.529 664 L562.529 664 L544.111 514 L404.111 514 L334.694 364 L525.694 364 L507.276 214 L268.276 214 L200.595 70 L88.0152 106 Z " />
<glyph glyph-name="middot" unicode="&#xb7;" horiz-adv-x="282" d="M187.413 378 Q169.413 378 154.272 385 Q139.132 392 128.605 404 Q118.078 416 113.043 432 Q108.007 448 110.218 466 Q112.428 484 121.392 500 Q130.357 516 143.83 528 Q157.304 540 174.163 547 Q191.023 554 209.023 554 Q227.023 554 242.163 547 Q257.304 540 267.83 528 Q278.357 516 283.392 500 Q288.428 484 286.218 466 Q284.007 448 275.043 432 Q266.078 416 252.605 404 Q239.132 392 222.272 385 Q205.413 378 187.413 378 Z " />
<glyph glyph-name="bullet" unicode="&#x2022;" horiz-adv-x="360" d="M221.87 341 Q181.87 341 157.746 368.5 Q133.623 396 138.534 436 Q143.445 476 174.322 503.5 Q205.199 531 245.199 531 Q285.199 531 309.322 503.5 Q333.445 476 328.534 436 Q323.623 396 292.746 368.5 Q261.87 341 221.87 341 Z " />
<glyph glyph-name="asterisk" unicode="&#x2a;" horiz-adv-x="557" d="M414.025 440 L344.654 551 L248.902 439 L162.62 510 L258.372 622 L131.652 665 L182.526 778 L308.247 735 L325.314 874 L445.314 874 L428.124 734 L566.526 778 L588.652 665 L451.372 622 Q467.811 593 485.812 564.5 Q503.813 536 519.62 510 L414.025 440 Z " />
<glyph glyph-name="guilsinglleft" unicode="&#x2039;" horiz-adv-x="547" d="M275.095 465 Q306.411 435 340.921 402.5 Q375.43 370 408.501 338 L525.24 230 L417.734 120 L101.201 417 L112.866 512 L502.333 809 L582.826 699 L275.095 465 Z " />
<glyph glyph-name="guilsinglright" unicode="&#x203a;" horiz-adv-x="546" d="M135.826 699 L243.333 809 L558.866 512 L547.201 417 L158.734 120 L78.2404 230 L386.095 465 L135.826 699 Z " />
<glyph glyph-name="guillemotleft" unicode="&#xab;" horiz-adv-x="969" d="M275.095 465 Q291.253 450 309.604 432.5 Q327.956 415 355.702 388.5 Q383.448 362 424.282 324 Q465.116 286 525.24 230 L417.734 120 L101.201 417 L112.866 512 L502.333 809 L582.826 699 L275.095 465 Z M697.095 465 L947.24 230 L840.734 120 L524.201 417 L535.866 512 L925.333 809 L1004.83 699 L697.095 465 Z " />
<glyph glyph-name="partialdiff" unicode="&#x2202;" horiz-adv-x="826" d="M399.772 -10 Q317.772 -10 256.912 11.5 Q196.052 33 157.218 71 Q118.384 109 102.268 161 Q86.1531 213 93.7658 275 Q101.133 335 130.395 386 Q159.657 437 208.2 474 Q256.743 511 322.321 532 Q387.9 553 468.9 553 Q513.9 553 546.04 546 Q578.181 539 600.83 528 Q623.48 517 637.822 503.5 Q652.164 490 661.445 476 L666.48 517 Q671.882 561 667.039 603 Q662.196 645 641.932 679.5 Q621.668 714 583.554 737.5 Q545.439 761 485.299 768 L548.769 894 Q635.173 881 691.007 843 Q746.842 805 777.281 747.5 Q807.721 690 814.89 614 Q822.058 538 811.13 449 L791.976 293 Q783.013 220 749.575 163.5 Q716.138 107 663.911 68.5 Q611.684 30 544.228 10 Q476.772 -10 399.772 -10 Z M455.061 424 Q361.061 424 305.588 383.5 Q250.115 343 241.766 275 Q233.048 204 279.146 160 Q325.243 116 417.243 116 Q470.243 116 510.339 129 Q550.435 142 578.698 164.5 Q606.961 187 622.644 217 Q638.328 247 642.38 280 Q646.8 316 634.615 343 Q622.43 370 597.14 388 Q571.851 406 535.456 415 Q499.061 424 455.061 424 Z " />
<glyph glyph-name="quotedbl" unicode="&#x22;" horiz-adv-x="499" d="M409.109 628 L552.109 628 L495.606 347 L374.606 347 L409.109 628 Z M137.109 628 L280.109 628 L223.606 347 L102.606 347 L137.109 628 Z " />
<glyph glyph-name="quotedblleft" unicode="&#x201c;" horiz-adv-x="535" d="M102.606 347 L137.109 628 L258.109 628 L245.606 347 L102.606 347 Z M374.606 347 L409.109 628 L530.109 628 L517.606 347 L374.606 347 Z " />
<glyph glyph-name="quotedblright" unicode="&#x201d;" horiz-adv-x="535" d="M552.109 628 L517.606 347 L396.606 347 L409.109 628 L552.109 628 Z M280.109 628 L245.606 347 L124.606 347 L137.109 628 L280.109 628 Z " />
<glyph glyph-name="quotesingle" unicode="&#x27;" horiz-adv-x="263" d="M167.436 875 L310.436 875 L253.934 594 L132.934 594 L167.436 875 Z " />
<glyph glyph-name="quotesinglbase" unicode="&#x201a;" horiz-adv-x="263" d="M94.5025 281 L237.502 281 L181 0 L60 0 L94.5025 281 Z " />
<glyph glyph-name="quotedblbase" unicode="&#x201e;" horiz-adv-x="535" d="M366.502 281 L509.502 281 L453 0 L332 0 L366.502 281 Z M94.5025 281 L237.502 281 L181 0 L60 0 L94.5025 281 Z " />
<glyph glyph-name="quoteleft" unicode="&#x2018;" horiz-adv-x="263" d="M245.606 347 L102.606 347 L159.109 628 L280.109 628 L245.606 347 Z " />
<glyph glyph-name="quoteright" unicode="&#x2019;" horiz-adv-x="263" d="M137.109 628 L280.109 628 L223.606 347 L102.606 347 L137.109 628 Z " />
<glyph glyph-name="endash" unicode="&#x2013;" horiz-adv-x="926" d="M64.6936 364 L83.1113 514 L969.111 514 L950.694 364 L64.6936 364 Z " />
<glyph glyph-name="emdash" unicode="&#x2014;" horiz-adv-x="1369" d="M64.6936 364 L83.1113 514 L1412.11 514 L1393.69 364 L64.6936 364 Z " />
<glyph glyph-name="fraction" unicode="&#x2044;" horiz-adv-x="522" d="M-69.5608 -29 L515.996 961 L639.629 901 L55.0722 -89 L-69.5608 -29 Z " />
<glyph glyph-name="b" unicode="b" horiz-adv-x="844" d="M867.582 640 Q859.478 574 820.471 521 Q781.463 468 724.657 437 Q773.973 407 799.904 353.5 Q825.835 300 817.732 234 Q811.838 186 788.058 143 Q764.278 100 728.411 68.5 Q692.543 37 647.772 18.5 Q603 0 554 0 L95 0 L202.436 875 L661.436 875 Q710.436 875 750.665 856.5 Q790.893 838 818.964 806 Q847.035 774 860.317 731.5 Q873.599 689 867.582 640 Z M659.205 246 Q662.152 270 655.353 292 Q648.554 314 634.58 330.5 Q620.606 347 600.273 356.5 Q579.939 366 554.939 366 L331.816 365 Q320.816 365 312.957 358 Q305.097 351 303.747 340 L280.786 153 Q279.435 142 285.576 135 Q291.716 128 302.716 128 L525.716 128 Q550.716 128 573.383 137.5 Q596.049 147 614.014 163 Q631.978 179 644.118 200.5 Q656.258 222 659.205 246 Z M572.62 510 Q597.62 510 620.287 519.5 Q642.953 529 660.918 545 Q678.882 561 690.583 583 Q702.285 605 705.231 629 Q708.178 653 701.818 674.5 Q695.458 696 681.423 712 Q667.387 728 647.054 737.5 Q626.72 747 601.72 747 L378.72 747 Q367.72 747 359.799 739.5 Q351.878 732 350.528 721 L327.813 536 Q326.462 525 332.602 518 Q338.743 511 349.743 511 L572.62 510 Z " />
<glyph glyph-name="f" unicode="f" horiz-adv-x="791" d="M328.549 542 Q327.076 530 334.094 522 Q341.111 514 352.111 514 L814.111 514 L795.694 364 L333.694 364 Q322.694 364 313.711 356 Q304.729 348 303.378 337 L262 0 L95 0 L202.436 875 L858.314 874 L840.019 725 L378.019 725 Q367.019 725 358.037 717 Q349.054 709 347.581 697 L328.549 542 Z " />
<glyph glyph-name="m" unicode="m" horiz-adv-x="1123" d="M968.436 875 L1135.44 875 L1028 0 L861 0 L942.283 662 L605.448 362 L343.283 662 L262 0 L95 0 L202.436 875 L369.436 875 L614.057 595 Q621.075 587 633.075 587 Q645.075 587 654.057 595 L968.436 875 Z " />
<glyph glyph-name="p" unicode="p" horiz-adv-x="839" d="M566.638 502 Q591.638 502 614.743 511 Q637.848 520 656.813 536 Q675.777 552 688.417 573.5 Q701.057 595 704.126 620 Q707.196 645 700.336 666.5 Q693.476 688 679.94 704 Q666.405 720 646.01 729 Q625.615 738 601.615 738 L377.615 738 Q366.615 738 358.694 730.5 Q350.773 723 349.423 712 L327.076 530 Q325.725 519 332.682 510.5 Q339.638 502 350.638 502 L566.638 502 Z M631.436 875 Q684.436 875 730.042 855.5 Q775.648 836 807.912 801.5 Q840.176 767 855.966 720.5 Q871.757 674 865.126 620 Q858.619 567 832.909 520.5 Q807.2 474 767.964 439.5 Q728.728 405 679.772 385 Q630.816 365 578.816 365 L333.816 365 Q322.816 365 313.773 356.5 Q304.729 348 303.378 337 L262 0 L95 0 L202.436 875 L631.436 875 Z " />
<glyph glyph-name="v" unicode="v" horiz-adv-x="1015" d="M530.961 187 L924.436 875 L1092.44 875 L592 0 L423 0 L137.436 875 L306.436 875 L530.961 187 Z " />
<glyph glyph-name="caron" unicode="&#x2c7;" horiz-adv-x="516" d="M578.673 1276 L650.605 1194 L374.4 948 L158.605 1194 L250.673 1276 L369.974 1140 Q379.624 1129 396.124 1129 Q412.624 1129 424.974 1140 L501.324 1208 Q515.92 1221 529.393 1233 Q542.867 1245 554.033 1254.5 Q565.2 1264 571.936 1270 Q578.673 1276 578.673 1276 Z " />
<glyph glyph-name="Ccaron" unicode="&#x10c;" horiz-adv-x="847" d="M575.931 708 Q519.931 708 467.853 687 Q415.775 666 374.231 629 Q332.688 592 305.172 543 Q277.656 494 270.78 438 Q263.904 382 278.887 333 Q293.871 284 326.328 247 Q358.785 210 405.145 188.5 Q451.505 167 507.505 167 Q561.505 167 614.022 187.5 Q666.539 208 709.205 246 L812.716 128 Q743.104 66 658.552 33 Q574 0 487 0 Q397 0 321.236 34.5 Q245.472 69 193.778 128.5 Q142.083 188 117.406 268 Q92.729 348 103.78 438 Q114.83 528 159.153 608 Q203.476 688 269.72 747 Q335.964 806 420.2 840.5 Q504.436 875 594.436 875 Q681.436 875 757.885 842 Q834.333 809 888.72 747 L756.231 629 Q722.897 667 676.414 687.5 Q629.931 708 575.931 708 Z M773.673 1276 L845.605 1194 L569.4 948 L353.605 1194 L445.673 1276 L564.974 1140 Q574.624 1129 591.124 1129 Q607.624 1129 619.974 1140 L696.324 1208 Q710.92 1221 724.393 1233 Q737.867 1245 749.033 1254.5 Q760.2 1264 766.936 1270 Q773.673 1276 773.673 1276 Z " />
<glyph glyph-name="Ccedilla" unicode="&#xc7;" horiz-adv-x="847" d="M575.931 708 Q519.931 708 467.853 687 Q415.775 666 374.231 629 Q332.688 592 305.172 543 Q277.656 494 270.78 438 Q263.904 382 278.887 333 Q293.871 284 326.328 247 Q358.785 210 405.145 188.5 Q451.505 167 507.505 167 Q561.505 167 614.022 187.5 Q666.539 208 709.205 246 L812.716 128 Q763.314 84 705.753 55 Q648.192 26 586.596 13 Q607.176 -23 605.142 -64 Q610.072 -89 602.196 -116.5 Q594.319 -144 575.372 -168 Q556.303 -193 526.215 -210 Q490.882 -229 453.944 -228.5 Q417.005 -228 387.154 -210.5 Q357.303 -193 340.17 -161.5 Q323.038 -130 328.441 -86 L417.441 -86 Q415.108 -105 424.011 -118 Q432.915 -131 447.179 -137 Q461.442 -143 478.81 -140 Q496.179 -137 509.652 -125 Q528.739 -108 531.563 -85 Q534.387 -62 519.475 -45 L478.123 1 Q389.491 4 316.227 38.5 Q242.963 73 191.646 131.5 Q140.329 190 116.529 269 Q92.729 348 103.78 438 Q114.83 528 159.153 608 Q203.476 688 269.72 747 Q335.964 806 420.2 840.5 Q504.436 875 594.436 875 Q681.436 875 757.885 842 Q834.333 809 888.72 747 L756.231 629 Q722.897 667 676.414 687.5 Q629.931 708 575.931 708 Z " />
<glyph glyph-name="Dcaron" unicode="&#x10e;" horiz-adv-x="926" d="M531.436 875 Q621.436 875 697.2 840.5 Q772.964 806 824.659 746.5 Q876.353 687 901.03 607 Q925.707 527 914.657 437 Q903.606 347 859.283 267 Q814.961 187 748.716 128 Q682.472 69 598.236 34.5 Q514 0 424 0 L95 0 L202.436 875 L531.436 875 Z M747.534 436 Q754.042 489 739.558 538 Q725.075 587 694.74 625 Q664.406 663 619.669 685.5 Q574.931 708 519.931 708 L373.931 708 Q362.931 708 355.011 700.5 Q347.09 693 345.739 682 L285.575 192 Q284.224 181 290.365 174 Q296.505 167 307.505 167 L453.505 167 Q506.505 167 556.768 189.5 Q607.03 212 647.073 249 Q687.116 286 714.071 334.5 Q741.026 383 747.534 436 Z M758.673 1276 L830.605 1194 L554.4 948 L338.605 1194 L430.673 1276 L549.974 1140 Q559.624 1129 576.124 1129 Q592.624 1129 604.974 1140 L681.324 1208 Q695.92 1221 709.393 1233 Q722.867 1245 734.033 1254.5 Q745.2 1264 751.936 1270 Q758.673 1276 758.673 1276 Z " />
<glyph glyph-name="Eacute" unicode="&#xc9;" horiz-adv-x="816" d="M328.549 542 Q327.076 530 334.094 522 Q341.111 514 352.111 514 L814.111 514 L795.694 364 L333.694 364 Q322.694 364 313.711 356 Q304.729 348 303.378 337 L283.61 176 Q282.259 165 289.277 157 Q296.295 149 307.295 149 L769.295 149 L751 0 L95 0 L202.436 875 L858.314 874 L839.896 724 L377.896 724 Q366.896 724 357.852 715.5 Q348.809 707 347.458 696 L328.549 542 Z M522.521 1006 L393.521 1006 L630.268 1346 L747.831 1261 L522.521 1006 Z " />
<glyph glyph-name="Ebreve" unicode="&#x114;" horiz-adv-x="816" d="M328.549 542 Q327.076 530 334.094 522 Q341.111 514 352.111 514 L814.111 514 L795.694 364 L375.694 364 Q365.694 364 353.632 363.5 Q341.571 363 330.764 360.5 Q319.957 358 312.282 352.5 Q304.606 347 303.378 337 L283.61 176 Q282.259 165 289.277 157 Q296.295 149 307.295 149 L769.295 149 L751 0 L95 0 L202.436 875 Q367.436 875 530.375 874.5 Q693.314 874 858.314 874 L839.896 724 L377.896 724 Q366.896 724 357.852 715.5 Q348.809 707 347.458 696 L328.549 542 Z M619.745 1187 L746.745 1187 Q741.834 1147 722.036 1112 Q702.239 1077 672.985 1050.5 Q643.731 1024 606.89 1009 Q570.048 994 530.048 994 Q490.048 994 456.89 1009 Q423.731 1024 400.485 1050.5 Q377.239 1077 366.536 1112 Q355.834 1147 360.745 1187 L487.745 1187 Q484.307 1159 501.413 1139.5 Q518.519 1120 545.519 1120 Q572.519 1120 594.474 1140 Q616.43 1160 619.745 1187 Z " />
<glyph glyph-name="Ecaron" unicode="&#x11a;" horiz-adv-x="816" d="M328.549 542 Q327.076 530 334.094 522 Q341.111 514 352.111 514 L814.111 514 L795.694 364 L333.694 364 Q322.694 364 313.711 356 Q304.729 348 303.378 337 L283.61 176 Q282.259 165 289.277 157 Q296.295 149 307.295 149 L769.295 149 L751 0 L95 0 L202.436 875 L858.314 874 L839.896 724 L377.896 724 Q366.896 724 357.852 715.5 Q348.809 707 347.458 696 L328.549 542 Z M728.673 1276 L800.605 1194 L524.4 948 L308.605 1194 L400.673 1276 L519.974 1140 Q529.624 1129 546.124 1129 Q562.624 1129 574.974 1140 L651.324 1208 Q665.92 1221 679.393 1233 Q692.867 1245 704.033 1254.5 Q715.2 1264 721.936 1270 Q728.673 1276 728.673 1276 Z " />
<glyph glyph-name="Ecircumflex" unicode="&#xca;" horiz-adv-x="816" d="M328.549 542 Q327.076 530 334.094 522 Q341.111 514 352.111 514 L814.111 514 L795.694 364 L333.694 364 Q322.694 364 313.711 356 Q304.729 348 303.378 337 L283.61 176 Q282.259 165 289.277 157 Q296.295 149 307.295 149 L769.295 149 L751 0 L95 0 L202.436 875 L858.314 874 L839.896 724 L377.896 724 Q366.896 724 357.852 715.5 Q348.809 707 347.458 696 L328.549 542 Z M687.4 948 L568.098 1084 Q558.449 1095 541.949 1095 Q525.449 1095 513.098 1084 L360.4 948 L288.468 1030 L564.673 1276 L780.468 1030 L688.4 948 L687.4 948 Z " />
<glyph glyph-name="Edieresis" unicode="&#xcb;" horiz-adv-x="816" d="M328.549 542 Q327.076 530 334.094 522 Q341.111 514 352.111 514 L814.111 514 L795.694 364 L333.694 364 Q322.694 364 313.711 356 Q304.729 348 303.378 337 L283.61 176 Q282.259 165 289.277 157 Q296.295 149 307.295 149 L769.295 149 L751 0 L95 0 L202.436 875 L858.314 874 L839.896 724 L377.896 724 Q366.896 724 357.852 715.5 Q348.809 707 347.458 696 L328.549 542 Z M791.712 1089 Q787.169 1052 757.416 1025.5 Q727.662 999 689.662 999 Q652.662 999 629.916 1025.5 Q607.169 1052 611.712 1089 Q616.378 1127 645.571 1153 Q674.763 1179 711.763 1179 Q749.763 1179 773.071 1153 Q796.378 1127 791.712 1089 Z M471.712 1089 Q467.169 1052 437.416 1025.5 Q407.662 999 370.662 999 Q332.662 999 309.916 1025.5 Q287.169 1052 291.712 1089 Q296.378 1127 325.571 1153 Q354.763 1179 392.763 1179 Q429.763 1179 453.071 1153 Q476.378 1127 471.712 1089 Z " />
<glyph glyph-name="Edotaccent" unicode="&#x116;" horiz-adv-x="816" d="M328.549 542 Q327.076 530 334.094 522 Q341.111 514 352.111 514 L814.111 514 L795.694 364 L333.694 364 Q322.694 364 313.711 356 Q304.729 348 303.378 337 L283.61 176 Q282.259 165 289.277 157 Q296.295 149 307.295 149 L769.295 149 L751 0 L95 0 L202.436 875 L858.314 874 L839.896 724 L377.896 724 Q366.896 724 357.852 715.5 Q348.809 707 347.458 696 L328.549 542 Z M628.029 1059 Q623.486 1022 593.732 995.5 Q563.978 969 525.978 969 Q488.978 969 466.232 995.5 Q443.486 1022 448.029 1059 Q452.695 1097 481.887 1123 Q511.079 1149 548.079 1149 Q586.079 1149 609.387 1123 Q632.695 1097 628.029 1059 Z " />
<glyph glyph-name="Egrave" unicode="&#xc8;" horiz-adv-x="816" d="M328.549 542 Q327.076 530 334.094 522 Q341.111 514 352.111 514 L814.111 514 L795.694 364 L333.694 364 Q322.694 364 313.711 356 Q304.729 348 303.378 337 L283.61 176 Q282.259 165 289.277 157 Q296.295 149 307.295 149 L769.295 149 L751 0 L95 0 L202.436 875 L858.314 874 L839.896 724 L377.896 724 Q366.896 724 357.852 715.5 Q348.809 707 347.458 696 L328.549 542 Z M328.691 1268 L484.355 1363 L646.521 1006 L496.521 1006 L328.691 1268 Z " />
<glyph glyph-name="Emacron" unicode="&#x112;" horiz-adv-x="816" d="M328.549 542 Q327.076 530 334.094 522 Q341.111 514 352.111 514 L814.111 514 L795.694 364 L333.694 364 Q322.694 364 313.711 356 Q304.729 348 303.378 337 L283.61 176 Q282.259 165 289.277 157 Q296.295 149 307.295 149 L769.295 149 L751 0 L95 0 L202.436 875 L858.314 874 L839.896 724 L377.896 724 Q366.896 724 357.852 715.5 Q348.809 707 347.458 696 L328.549 542 Z M312.714 1032 L329.658 1170 L772.658 1170 L755.714 1032 L312.714 1032 Z " />
<glyph glyph-name="Eogonek" unicode="&#x118;" horiz-adv-x="816" d="M726.566 -199 Q689.514 -232 649.365 -249.5 Q609.217 -267 571.217 -267 Q532.217 -267 499.058 -252 Q465.9 -237 443.092 -211 Q420.285 -185 409.582 -150 Q398.88 -115 403.791 -75 Q408.948 -33 431 0 L95 0 L202.436 875 L858.314 874 L839.896 724 L377.896 724 Q366.896 724 357.852 715.5 Q348.809 707 347.458 696 L328.549 542 Q327.076 530 334.094 522 Q341.111 514 352.111 514 L814.111 514 L795.694 364 L333.694 364 Q322.694 364 313.711 356 Q304.729 348 303.378 337 L283.61 176 Q282.259 165 289.277 157 Q296.295 149 307.295 149 L769.295 149 L751 0 L608 0 Q572.877 -1 546.737 -22.5 Q520.597 -44 516.914 -74 Q513.108 -105 531.968 -126.5 Q550.828 -148 581.828 -148 Q596.828 -148 613.749 -140.5 Q630.67 -133 646.389 -119 L726.566 -199 Z " />
<glyph glyph-name="Hcircumflex" unicode="&#x124;" horiz-adv-x="982" d="M791.549 542 L832.436 875 L994.436 875 L887 0 L725 0 L766.378 337 Q767.729 348 760.773 356.5 Q753.816 365 742.816 365 L328.816 365 Q317.816 365 308.773 356.5 Q299.729 348 298.378 337 L257 0 L95 0 L202.436 875 L364.436 875 L323.549 542 Q322.199 531 329.155 522.5 Q336.111 514 347.111 514 L761.111 514 Q772.111 514 781.155 522.5 Q790.199 531 791.549 542 Z M770.4 948 L651.098 1084 Q641.449 1095 624.949 1095 Q608.449 1095 596.098 1084 L443.4 948 L371.468 1030 L647.673 1276 L863.468 1030 L771.4 948 L770.4 948 Z " />
<glyph glyph-name="Iacute" unicode="&#xcd;" horiz-adv-x="422" d="M130 0 L237.436 875 L399.436 875 L292 0 L130 0 Z M374.521 1006 L245.521 1006 L481.268 1346 L599.831 1261 L374.521 1006 Z " />
<glyph glyph-name="Ibreve" unicode="&#x12c;" horiz-adv-x="422" d="M130 0 L237.436 875 L399.436 875 L292 0 L130 0 Z M348.519 1120 Q375.519 1120 397.413 1139.5 Q419.307 1159 422.745 1187 L549.745 1187 Q544.834 1147 525.036 1112 Q505.239 1077 475.985 1050.5 Q446.731 1024 409.89 1009 Q373.048 994 333.048 994 Q293.048 994 259.89 1009 Q226.731 1024 203.485 1050.5 Q180.239 1077 169.536 1112 Q158.834 1147 163.745 1187 L290.745 1187 Q287.307 1159 304.413 1139.5 Q321.519 1120 348.519 1120 Z " />
<glyph glyph-name="Icircumflex" unicode="&#xce;" horiz-adv-x="422" d="M130 0 L237.436 875 L399.436 875 L292 0 L130 0 Z M490.4 948 L371.098 1084 Q361.449 1095 344.949 1095 Q328.449 1095 316.098 1084 L163.4 948 L91.4681 1030 L367.673 1276 L583.468 1030 L491.4 948 L490.4 948 Z " />
<glyph glyph-name="Idieresis" unicode="&#xcf;" horiz-adv-x="422" d="M130 0 L237.436 875 L399.436 875 L292 0 L130 0 Z M274.712 1089 Q270.169 1052 240.416 1025.5 Q210.662 999 173.662 999 Q135.662 999 112.916 1025.5 Q90.1694 1052 94.7124 1089 Q99.3782 1127 128.571 1153 Q157.763 1179 195.763 1179 Q232.763 1179 256.071 1153 Q279.378 1127 274.712 1089 Z M594.712 1089 Q590.169 1052 560.416 1025.5 Q530.662 999 492.662 999 Q455.662 999 432.916 1025.5 Q410.169 1052 414.712 1089 Q419.378 1127 448.571 1153 Q477.763 1179 514.763 1179 Q552.763 1179 576.071 1153 Q599.378 1127 594.712 1089 Z " />
<glyph glyph-name="Idotaccent" unicode="&#x130;" horiz-adv-x="422" d="M130 0 L237.436 875 L399.436 875 L292 0 L130 0 Z M431.029 1059 Q426.486 1022 396.732 995.5 Q366.978 969 328.978 969 Q291.978 969 269.232 995.5 Q246.486 1022 251.029 1059 Q255.695 1097 284.887 1123 Q314.079 1149 351.079 1149 Q389.079 1149 412.387 1123 Q435.695 1097 431.029 1059 Z " />
<glyph glyph-name="Igrave" unicode="&#xcc;" horiz-adv-x="422" d="M130 0 L237.436 875 L399.436 875 L292 0 L130 0 Z M119.691 1268 L275.355 1363 L437.521 1006 L287.521 1006 L119.691 1268 Z " />
<glyph glyph-name="Imacron" unicode="&#x12a;" horiz-adv-x="422" d="M130 0 L237.436 875 L399.436 875 L292 0 L130 0 Z M116.714 1032 L133.658 1170 L576.658 1170 L559.714 1032 L116.714 1032 Z " />
<glyph glyph-name="Iogonek" unicode="&#x12e;" horiz-adv-x="422" d="M283.566 -199 Q245.514 -232 205.865 -249.5 Q166.217 -267 128.217 -267 Q89.2165 -267 56.0583 -252 Q22.9001 -237 0.0924576 -211 Q-22.7151 -185 -33.4177 -150 Q-44.1202 -115 -39.2088 -75 Q-34.9114 -40 -19.1051 -9 Q-3.29874 22 20.7095 46.5 Q44.7177 71 76.1823 87 Q107.647 103 143.384 109 L237.436 875 L399.436 875 L292 0 L165 0 Q129.877 -1 103.737 -22.5 Q77.5975 -44 73.9139 -74 Q70.1076 -105 88.9678 -126.5 Q107.828 -148 138.828 -148 Q153.828 -148 170.749 -140.5 Q187.67 -133 203.389 -119 L283.566 -199 Z " />
<glyph glyph-name="Itilde" unicode="&#x128;" horiz-adv-x="422" d="M130 0 L237.436 875 L399.436 875 L292 0 L130 0 Z M129.798 1163 Q171.587 1202 209.64 1206.5 Q247.692 1211 283.535 1197.5 Q319.377 1184 354.237 1162.5 Q389.097 1141 424.94 1127.5 Q460.782 1114 498.835 1118.5 Q536.887 1123 578.676 1162 L561.24 1020 Q518.452 981 480.961 977 Q443.469 973 407.566 986 Q371.662 999 336.863 1021 Q302.064 1043 266.16 1056 Q230.257 1069 192.266 1065 Q154.274 1061 112.486 1022 L129.798 1163 Z " />
<glyph glyph-name="Kcommaaccent" unicode="&#x136;" horiz-adv-x="947" d="M1014.44 875 L574.78 438 L907 0 L706 0 L438.097 351 Q428.816 365 410.816 365 L328.816 365 Q317.816 365 308.773 356.5 Q299.729 348 298.378 337 L257 0 L95 0 L202.436 875 L364.436 875 L323.549 542 Q322.199 531 329.155 522.5 Q336.111 514 347.111 514 L432.111 514 Q450.111 514 463.83 528 L812.436 875 L1014.44 875 Z M384.565 -142 L527.565 -142 L471.062 -423 L350.062 -423 L384.565 -142 Z " />
<glyph glyph-name="Lcaron" unicode="&#x13d;" horiz-adv-x="771" d="M369.436 875 L285.575 192 Q283.119 172 292.707 160.5 Q302.295 149 322.295 149 L754.295 149 L736 0 L95 0 L202.436 875 L369.436 875 Z M652.509 786 L795.509 786 L739.006 505 L618.006 505 L652.509 786 Z " />
<glyph glyph-name="AEacute" unicode="&#x1fc;" horiz-adv-x="1203" d="M1245.31 874 L1226.9 724 L801.896 724 Q790.896 724 781.852 715.5 Q772.809 707 771.458 696 L752.549 542 Q751.076 530 758.094 522 Q765.111 514 776.111 514 L1201.11 514 L1182.69 364 L757.694 364 Q746.694 364 737.711 356 Q728.729 348 727.378 337 L707.61 176 Q706.259 165 713.277 157 Q720.295 149 731.295 149 L1156.29 149 L1138 0 L524 0 L555.31 255 L374.31 255 Q360.31 255 347.389 247.5 Q334.468 240 327.872 227 L198 0 L30 0 L530.436 875 L810.436 875 L1245.31 874 Z M571.149 384 L612.896 724 L419.149 384 L571.149 384 Z M755.521 1006 L626.521 1006 L862.268 1346 L980.831 1261 L755.521 1006 Z " />
<glyph glyph-name="Dcroat" unicode="&#x110;" horiz-adv-x="926" d="M21.3252 361 L38.2695 499 L156.269 499 L202.436 875 L531.436 875 Q621.436 875 697.2 840.5 Q772.964 806 824.659 746.5 Q876.353 687 901.03 607 Q925.707 527 914.657 437 Q903.606 347 859.283 267 Q814.961 187 748.716 128 Q682.472 69 598.236 34.5 Q514 0 424 0 L95 0 L139.325 361 L21.3252 361 Z M747.534 436 Q754.042 489 739.558 538 Q725.075 587 694.74 625 Q664.406 663 619.669 685.5 Q574.931 708 519.931 708 L373.931 708 Q362.931 708 355.011 700.5 Q347.09 693 345.739 682 L323.269 499 L481.269 499 L464.325 361 L306.325 361 L285.575 192 Q284.224 181 290.365 174 Q296.505 167 307.505 167 L453.505 167 Q506.505 167 556.768 189.5 Q607.03 212 647.073 249 Q687.116 286 714.071 334.5 Q741.026 383 747.534 436 Z " />
<glyph glyph-name="Gbreve" unicode="&#x11e;" horiz-adv-x="1039" d="M556.305 483 L1018.3 483 L959 0 L817 0 L836.4 158 Q807.857 121 769.296 92 Q730.735 63 686.218 42.5 Q641.701 22 593.351 11 Q545 0 497 0 Q407 0 331.175 34 Q255.349 68 203.655 127.5 Q151.961 187 127.222 266.5 Q102.483 346 113.657 437 Q124.707 527 169.03 607 Q213.353 687 279.597 746 Q345.842 805 430.078 839.5 Q514.314 874 604.314 874 Q695.314 874 770.139 840 Q844.964 806 897.597 746 L764.986 627 Q732.406 663 686.046 684.5 Q639.686 706 583.686 706 Q527.686 706 476.107 685 Q424.529 664 383.547 627.5 Q342.566 591 315.549 542 Q288.533 493 281.657 437 Q274.781 381 287.773 328 Q300.766 275 333.854 235 Q366.943 195 420.68 172.5 Q474.418 150 548.786 153 Q598.909 154 645.119 172 Q691.329 190 727.583 216.5 Q763.837 243 788.827 275.5 Q813.818 308 822.747 340 L538.747 340 L556.305 483 Z M730.745 1187 L857.745 1187 Q852.834 1147 833.036 1112 Q813.239 1077 783.985 1050.5 Q754.731 1024 717.89 1009 Q681.048 994 641.048 994 Q601.048 994 567.89 1009 Q534.731 1024 511.485 1050.5 Q488.239 1077 477.536 1112 Q466.834 1147 471.745 1187 L598.745 1187 Q595.307 1159 612.413 1139.5 Q629.519 1120 657.519 1120 Q684.519 1120 705.974 1140 Q727.43 1160 730.745 1187 Z " />
<glyph glyph-name="Gcircumflex" unicode="&#x11c;" horiz-adv-x="1039" d="M556.305 483 L1018.3 483 L959 0 L817 0 L836.4 158 Q807.857 121 769.296 92 Q730.735 63 686.218 42.5 Q641.701 22 593.351 11 Q545 0 497 0 Q407 0 331.175 34 Q255.349 68 203.655 127.5 Q151.961 187 127.222 266.5 Q102.483 346 113.657 437 Q124.707 527 169.03 607 Q213.353 687 279.597 746 Q345.842 805 430.078 839.5 Q514.314 874 604.314 874 Q695.314 874 770.139 840 Q844.964 806 897.597 746 L764.986 627 Q732.406 663 686.046 684.5 Q639.686 706 583.686 706 Q527.686 706 476.107 685 Q424.529 664 383.547 627.5 Q342.566 591 315.549 542 Q288.533 493 281.657 437 Q274.781 381 287.773 328 Q300.766 275 333.854 235 Q366.943 195 420.68 172.5 Q474.418 150 548.786 153 Q598.909 154 645.119 172 Q691.329 190 727.583 216.5 Q763.837 243 788.827 275.5 Q813.818 308 822.747 340 L538.747 340 L556.305 483 Z M798.4 948 L688.748 1073 Q676.467 1087 659.265 1093.5 Q642.063 1100 624.098 1084 L471.4 948 L399.468 1030 L675.673 1276 L891.468 1030 L799.4 948 L798.4 948 Z " />
<glyph glyph-name="Gcommaaccent" unicode="&#x122;" horiz-adv-x="1039" d="M556.305 483 L1018.3 483 L959 0 L817 0 L836.4 158 Q807.857 121 769.296 92 Q730.735 63 686.218 42.5 Q641.701 22 593.351 11 Q545 0 497 0 Q407 0 331.175 34 Q255.349 68 203.655 127.5 Q151.961 187 127.222 266.5 Q102.483 346 113.657 437 Q124.707 527 169.03 607 Q213.353 687 279.597 746 Q345.842 805 430.078 839.5 Q514.314 874 604.314 874 Q695.314 874 770.139 840 Q844.964 806 897.597 746 L764.986 627 Q732.406 663 686.046 684.5 Q639.686 706 583.686 706 Q527.686 706 476.107 685 Q424.529 664 383.547 627.5 Q342.566 591 315.549 542 Q288.533 493 281.657 437 Q274.781 381 287.773 328 Q300.766 275 333.854 235 Q366.943 195 420.68 172.5 Q474.418 150 548.786 153 Q598.909 154 645.119 172 Q691.329 190 727.583 216.5 Q763.837 243 788.827 275.5 Q813.818 308 822.747 340 L538.747 340 L556.305 483 Z M430.565 -142 L573.565 -142 L517.062 -423 L396.062 -423 L430.565 -142 Z " />
<glyph glyph-name="Gdotaccent" unicode="&#x120;" horiz-adv-x="1039" d="M556.305 483 L1018.3 483 L959 0 L817 0 L836.4 158 Q807.857 121 769.296 92 Q730.735 63 686.218 42.5 Q641.701 22 593.351 11 Q545 0 497 0 Q407 0 331.175 34 Q255.349 68 203.655 127.5 Q151.961 187 127.222 266.5 Q102.483 346 113.657 437 Q124.707 527 169.03 607 Q213.353 687 279.597 746 Q345.842 805 430.078 839.5 Q514.314 874 604.314 874 Q695.314 874 770.139 840 Q844.964 806 897.597 746 L764.986 627 Q732.406 663 686.046 684.5 Q639.686 706 583.686 706 Q527.686 706 476.107 685 Q424.529 664 383.547 627.5 Q342.566 591 315.549 542 Q288.533 493 281.657 437 Q274.781 381 287.773 328 Q300.766 275 333.854 235 Q366.943 195 420.68 172.5 Q474.418 150 548.786 153 Q598.909 154 645.119 172 Q691.329 190 727.583 216.5 Q763.837 243 788.827 275.5 Q813.818 308 822.747 340 L538.747 340 L556.305 483 Z M739.029 1059 Q734.486 1022 705.232 995.5 Q675.978 969 637.978 969 Q600.978 969 577.732 995.5 Q554.486 1022 559.029 1059 Q563.695 1097 593.387 1123 Q623.079 1149 660.079 1149 Q698.079 1149 720.887 1123 Q743.695 1097 739.029 1059 Z " />
<glyph glyph-name="Nacute" unicode="&#x143;" horiz-adv-x="1029" d="M797.696 250 L874.436 875 L1041.44 875 L934 0 L774 0 L340.6 632 L263 0 L95 0 L202.436 875 L363.436 875 L797.696 250 Z M685.521 1006 L556.521 1006 L792.268 1346 L910.831 1261 L685.521 1006 Z " />
<glyph glyph-name="Ncaron" unicode="&#x147;" horiz-adv-x="1029" d="M797.696 250 L874.436 875 L1041.44 875 L934 0 L774 0 L340.6 632 L263 0 L95 0 L202.436 875 L363.436 875 L797.696 250 Z M834.673 1276 L906.605 1194 L630.4 948 L414.605 1194 L506.673 1276 L625.974 1140 Q635.624 1129 652.124 1129 Q668.624 1129 680.974 1140 L757.324 1208 Q771.92 1221 785.393 1233 Q798.867 1245 810.033 1254.5 Q821.2 1264 827.936 1270 Q834.673 1276 834.673 1276 Z " />
<glyph glyph-name="Ncommaaccent" unicode="&#x145;" horiz-adv-x="1029" d="M797.696 250 L874.436 875 L1041.44 875 L934 0 L774 0 L340.6 632 L263 0 L95 0 L202.436 875 L363.436 875 L797.696 250 Z M425.565 -142 L568.565 -142 L512.062 -423 L391.062 -423 L425.565 -142 Z " />
<glyph glyph-name="Ntilde" unicode="&#xd1;" horiz-adv-x="1029" d="M797.696 250 L874.436 875 L1041.44 875 L934 0 L774 0 L340.6 632 L263 0 L95 0 L202.436 875 L363.436 875 L797.696 250 Z M432.798 1163 Q474.587 1202 512.64 1206.5 Q550.692 1211 586.535 1197.5 Q622.377 1184 657.237 1162.5 Q692.097 1141 727.94 1127.5 Q763.782 1114 801.835 1118.5 Q839.887 1123 881.676 1162 L864.24 1020 Q821.452 981 783.961 977 Q746.469 973 710.566 986 Q674.662 999 639.863 1021 Q605.064 1043 569.16 1056 Q533.257 1069 495.266 1065 Q457.274 1061 415.486 1022 L432.798 1163 Z " />
<glyph glyph-name="Oacute" unicode="&#xd3;" horiz-adv-x="994" d="M517.382 166 Q573.382 166 625.461 187 Q677.539 208 718.582 245 Q759.625 282 787.203 331.5 Q814.781 381 821.657 437 Q828.533 493 813.049 542 Q797.566 591 765.609 628 Q733.652 665 686.73 686 Q639.809 707 583.809 707 Q527.809 707 476.23 686 Q424.652 665 383.109 628 Q341.566 591 314.549 542 Q287.533 493 280.657 437 Q273.781 381 288.703 331.5 Q303.625 282 336.082 245 Q368.539 208 414.961 187 Q461.382 166 517.382 166 Z M604.314 874 Q695.314 874 770.578 839.5 Q845.842 805 897.597 746 Q949.353 687 974.03 607 Q998.707 527 987.657 437 Q976.483 346 932.222 266.5 Q887.961 187 821.655 127.5 Q755.349 68 671.675 34 Q588 0 497 0 Q407 0 331.175 34 Q255.349 68 203.655 127.5 Q151.961 187 127.222 266.5 Q102.483 346 113.657 437 Q124.707 527 169.03 607 Q213.353 687 279.597 746 Q345.842 805 430.078 839.5 Q514.314 874 604.314 874 Z M667.521 1006 L538.521 1006 L775.268 1346 L892.831 1261 L667.521 1006 Z " />
<glyph glyph-name="Obreve" unicode="&#x14e;" horiz-adv-x="994" d="M604.314 874 Q695.314 874 770.578 839.5 Q845.842 805 897.597 746 Q949.353 687 974.03 607 Q998.707 527 987.657 437 Q976.483 346 932.222 266.5 Q887.961 187 821.655 127.5 Q755.349 68 671.675 34 Q588 0 497 0 Q407 0 331.175 34 Q255.349 68 203.655 127.5 Q151.961 187 127.222 266.5 Q102.483 346 113.657 437 Q124.707 527 169.03 607 Q213.353 687 279.597 746 Q345.842 805 430.078 839.5 Q514.314 874 604.314 874 Z M517.382 166 Q573.382 166 625.461 187 Q677.539 208 718.582 245 Q759.625 282 787.203 331.5 Q814.781 381 821.657 437 Q828.533 493 813.049 542 Q797.566 591 765.609 628 Q733.652 665 686.73 686 Q639.809 707 583.809 707 Q527.809 707 476.23 686 Q424.652 665 383.109 628 Q341.566 591 314.549 542 Q287.533 493 280.657 437 Q273.781 381 288.703 331.5 Q303.625 282 336.082 245 Q368.539 208 414.961 187 Q461.382 166 517.382 166 Z M708.745 1187 L835.745 1187 Q830.834 1147 811.036 1112 Q791.239 1077 761.985 1050.5 Q732.731 1024 695.89 1009 Q659.048 994 619.048 994 Q579.048 994 545.89 1009 Q512.731 1024 489.485 1050.5 Q466.239 1077 455.536 1112 Q444.834 1147 449.745 1187 L576.745 1187 Q573.307 1159 590.413 1139.5 Q607.519 1120 635.519 1120 Q662.641 1121 683.974 1140 Q705.307 1159 708.745 1187 Z " />
<glyph glyph-name="Ocircumflex" unicode="&#xd4;" horiz-adv-x="994" d="M604.314 874 Q695.314 874 770.578 839.5 Q845.842 805 897.597 746 Q949.353 687 974.03 607 Q998.707 527 987.657 437 Q976.483 346 932.222 266.5 Q887.961 187 821.655 127.5 Q755.349 68 671.675 34 Q588 0 497 0 Q407 0 331.175 34 Q255.349 68 203.655 127.5 Q151.961 187 127.222 266.5 Q102.483 346 113.657 437 Q124.707 527 169.03 607 Q213.353 687 279.597 746 Q345.842 805 430.078 839.5 Q514.314 874 604.314 874 Z M517.382 166 Q573.382 166 625.461 187 Q677.539 208 718.582 245 Q759.625 282 787.203 331.5 Q814.781 381 821.657 437 Q828.533 493 813.049 542 Q797.566 591 765.609 628 Q733.652 665 686.73 686 Q639.809 707 583.809 707 Q527.809 707 476.23 686 Q424.652 665 383.109 628 Q341.566 591 314.549 542 Q287.533 493 280.657 437 Q273.781 381 288.703 331.5 Q303.625 282 336.082 245 Q368.539 208 414.961 187 Q461.382 166 517.382 166 Z M776.4 948 L657.098 1084 Q647.449 1095 630.949 1095 Q614.449 1095 602.098 1084 L449.4 948 L377.468 1030 L653.673 1276 L869.468 1030 L777.4 948 L776.4 948 Z " />
<glyph glyph-name="Odieresis" unicode="&#xd6;" horiz-adv-x="994" d="M517.382 166 Q573.382 166 625.461 187 Q677.539 208 718.582 245 Q759.625 282 787.203 331.5 Q814.781 381 821.657 437 Q828.533 493 813.049 542 Q797.566 591 765.609 628 Q733.652 665 686.73 686 Q639.809 707 583.809 707 Q527.809 707 476.23 686 Q424.652 665 383.109 628 Q341.566 591 314.549 542 Q287.533 493 280.657 437 Q273.781 381 288.703 331.5 Q303.625 282 336.082 245 Q368.539 208 414.961 187 Q461.382 166 517.382 166 Z M604.314 874 Q695.314 874 770.578 839.5 Q845.842 805 897.597 746 Q949.353 687 974.03 607 Q998.707 527 987.657 437 Q976.483 346 932.222 266.5 Q887.961 187 821.655 127.5 Q755.349 68 671.675 34 Q588 0 497 0 Q407 0 331.175 34 Q255.349 68 203.655 127.5 Q151.961 187 127.222 266.5 Q102.483 346 113.657 437 Q124.707 527 169.03 607 Q213.353 687 279.597 746 Q345.842 805 430.078 839.5 Q514.314 874 604.314 874 Z M880.712 1089 Q876.169 1052 846.416 1025.5 Q816.662 999 778.662 999 Q741.662 999 718.916 1025.5 Q696.169 1052 700.712 1089 Q705.378 1127 734.571 1153 Q763.763 1179 800.763 1179 Q838.763 1179 862.071 1153 Q885.378 1127 880.712 1089 Z M560.712 1089 Q556.169 1052 526.416 1025.5 Q496.662 999 459.662 999 Q421.662 999 398.916 1025.5 Q376.169 1052 380.712 1089 Q385.378 1127 414.571 1153 Q443.763 1179 481.763 1179 Q518.763 1179 542.071 1153 Q565.378 1127 560.712 1089 Z " />
<glyph glyph-name="Ograve" unicode="&#xd2;" horiz-adv-x="994" d="M517.382 166 Q573.382 166 625.461 187 Q677.539 208 718.582 245 Q759.625 282 787.203 331.5 Q814.781 381 821.657 437 Q828.533 493 813.049 542 Q797.566 591 765.609 628 Q733.652 665 686.73 686 Q639.809 707 583.809 707 Q527.809 707 476.23 686 Q424.652 665 383.109 628 Q341.566 591 314.549 542 Q287.533 493 280.657 437 Q273.781 381 288.703 331.5 Q303.625 282 336.082 245 Q368.539 208 414.961 187 Q461.382 166 517.382 166 Z M604.314 874 Q695.314 874 770.578 839.5 Q845.842 805 897.597 746 Q949.353 687 974.03 607 Q998.707 527 987.657 437 Q976.483 346 932.222 266.5 Q887.961 187 821.655 127.5 Q755.349 68 671.675 34 Q588 0 497 0 Q407 0 331.175 34 Q255.349 68 203.655 127.5 Q151.961 187 127.222 266.5 Q102.483 346 113.657 437 Q124.707 527 169.03 607 Q213.353 687 279.597 746 Q345.842 805 430.078 839.5 Q514.314 874 604.314 874 Z M397.691 1268 L553.355 1363 L715.521 1006 L565.521 1006 L397.691 1268 Z " />
<glyph glyph-name="hungarumlaut" unicode="&#x2dd;" horiz-adv-x="599" d="M332.521 1006 L203.521 1006 L440.268 1346 L557.831 1261 L332.521 1006 Z M608.521 1006 L478.521 1006 L715.268 1346 L833.831 1261 L608.521 1006 Z " />
<glyph glyph-name="Ohungarumlaut" unicode="&#x150;" horiz-adv-x="994" d="M517.382 166 Q573.382 166 625.461 187 Q677.539 208 718.582 245 Q759.625 282 787.203 331.5 Q814.781 381 821.657 437 Q828.533 493 813.049 542 Q797.566 591 765.609 628 Q733.652 665 686.73 686 Q639.809 707 583.809 707 Q527.809 707 476.23 686 Q424.652 665 383.109 628 Q341.566 591 314.549 542 Q287.533 493 280.657 437 Q273.781 381 288.703 331.5 Q303.625 282 336.082 245 Q368.539 208 414.961 187 Q461.382 166 517.382 166 Z M604.314 874 Q695.314 874 770.578 839.5 Q845.842 805 897.597 746 Q949.353 687 974.03 607 Q998.707 527 987.657 437 Q976.483 346 932.222 266.5 Q887.961 187 821.655 127.5 Q755.349 68 671.675 34 Q588 0 497 0 Q407 0 331.175 34 Q255.349 68 203.655 127.5 Q151.961 187 127.222 266.5 Q102.483 346 113.657 437 Q124.707 527 169.03 607 Q213.353 687 279.597 746 Q345.842 805 430.078 839.5 Q514.314 874 604.314 874 Z M530.521 1006 L401.521 1006 L637.268 1346 L755.831 1261 L530.521 1006 Z M805.521 1006 L676.521 1006 L913.268 1346 L1030.83 1261 L805.521 1006 Z " />
<glyph glyph-name="Omacron" unicode="&#x14c;" horiz-adv-x="994" d="M604.314 874 Q695.314 874 770.578 839.5 Q845.842 805 897.597 746 Q949.353 687 974.03 607 Q998.707 527 987.657 437 Q976.483 346 932.222 266.5 Q887.961 187 821.655 127.5 Q755.349 68 671.675 34 Q588 0 497 0 Q407 0 331.175 34 Q255.349 68 203.655 127.5 Q151.961 187 127.222 266.5 Q102.483 346 113.657 437 Q124.707 527 169.03 607 Q213.353 687 279.597 746 Q345.842 805 430.078 839.5 Q514.314 874 604.314 874 Z M517.382 166 Q573.382 166 625.461 187 Q677.539 208 718.582 245 Q759.625 282 787.203 331.5 Q814.781 381 821.657 437 Q828.533 493 813.049 542 Q797.566 591 765.609 628 Q733.652 665 686.73 686 Q639.809 707 583.809 707 Q527.809 707 476.23 686 Q424.652 665 383.109 628 Q341.566 591 314.549 542 Q287.533 493 280.657 437 Q273.781 381 288.703 331.5 Q303.625 282 336.082 245 Q368.539 208 414.961 187 Q461.382 166 517.382 166 Z M401.714 1032 L418.658 1170 L861.658 1170 L844.714 1032 L401.714 1032 Z " />
<glyph glyph-name="backslash" unicode="&#x5c;" horiz-adv-x="530" d="M399.724 -214 L97.5732 1039 L238.204 1093 L540.354 -160 L399.724 -214 Z " />
<glyph glyph-name="Oslash" unicode="&#xd8;" horiz-adv-x="994" d="M220.439 -29 L272.349 68 Q229.91 97 197.26 136.5 Q164.61 176 143.381 223 Q122.152 270 114.282 324 Q106.413 378 113.657 437 Q124.707 527 169.03 607 Q213.353 687 279.597 746 Q345.842 805 430.078 839.5 Q514.314 874 604.314 874 Q652.314 874 697.84 862 L756.347 972 L871.067 929 L811.315 817 Q857.877 789 893.966 749 Q930.054 709 953.538 660 Q977.021 611 986.084 554.5 Q995.147 498 987.657 437 Q976.483 346 932.222 266.5 Q887.961 187 821.655 127.5 Q755.349 68 671.675 34 Q588 0 497 0 Q466 0 437.491 4 Q408.982 8 382.965 16 L335.16 -72 L220.439 -29 Z M517.382 166 Q573.382 166 625.461 187 Q677.539 208 718.582 245 Q759.625 282 787.203 331.5 Q814.781 381 821.657 437 Q830.375 508 803.996 566 Q777.618 624 725.915 659 L467.365 174 Q492.382 166 517.382 166 Z M280.657 437 Q272.799 373 294.168 319 Q315.538 265 358.24 230 L609.949 700 Q570.318 703 533.458 696 Q485.599 689 442.336 666.5 Q399.073 644 365.337 609.5 Q331.601 575 309.137 530.5 Q286.673 486 280.657 437 Z " />
<glyph glyph-name="Oslashacute" unicode="&#x1fe;" horiz-adv-x="994" d="M220.439 -29 L272.349 68 Q229.91 97 197.26 136.5 Q164.61 176 143.381 223 Q122.152 270 114.282 324 Q106.413 378 113.657 437 Q124.707 527 169.03 607 Q213.353 687 279.597 746 Q345.842 805 430.078 839.5 Q514.314 874 604.314 874 Q652.314 874 697.84 862 L756.347 972 L871.067 929 L811.315 817 Q857.877 789 893.966 749 Q930.054 709 953.538 660 Q977.021 611 986.084 554.5 Q995.147 498 987.657 437 Q976.483 346 932.222 266.5 Q887.961 187 821.655 127.5 Q755.349 68 671.675 34 Q588 0 497 0 Q466 0 437.491 4 Q408.982 8 382.965 16 L335.16 -72 L220.439 -29 Z M587.521 1006 L458.521 1006 L695.268 1346 L812.831 1261 L587.521 1006 Z M517.382 166 Q573.382 166 625.461 187 Q677.539 208 718.582 245 Q759.625 282 787.203 331.5 Q814.781 381 821.657 437 Q830.375 508 803.996 566 Q777.618 624 725.915 659 L467.365 174 Q492.382 166 517.382 166 Z M280.657 437 Q272.799 373 294.168 319 Q315.538 265 358.24 230 L609.949 700 Q570.318 703 533.458 696 Q485.599 689 442.336 666.5 Q399.073 644 365.337 609.5 Q331.601 575 309.137 530.5 Q286.673 486 280.657 437 Z " />
<glyph glyph-name="Otilde" unicode="&#xd5;" horiz-adv-x="994" d="M604.314 874 Q695.314 874 770.578 839.5 Q845.842 805 897.597 746 Q949.353 687 974.03 607 Q998.707 527 987.657 437 Q976.483 346 932.222 266.5 Q887.961 187 821.655 127.5 Q755.349 68 671.675 34 Q588 0 497 0 Q407 0 331.175 34 Q255.349 68 203.655 127.5 Q151.961 187 127.222 266.5 Q102.483 346 113.657 437 Q124.707 527 169.03 607 Q213.353 687 279.597 746 Q345.842 805 430.078 839.5 Q514.314 874 604.314 874 Z M517.382 166 Q573.382 166 625.461 187 Q677.539 208 718.582 245 Q759.625 282 787.203 331.5 Q814.781 381 821.657 437 Q828.533 493 813.049 542 Q797.566 591 765.609 628 Q733.652 665 686.73 686 Q639.809 707 583.809 707 Q527.809 707 476.23 686 Q424.652 665 383.109 628 Q341.566 591 314.549 542 Q287.533 493 280.657 437 Q273.781 381 288.703 331.5 Q303.625 282 336.082 245 Q368.539 208 414.961 187 Q461.382 166 517.382 166 Z M414.798 1163 Q456.587 1202 494.64 1206.5 Q532.692 1211 568.535 1197.5 Q604.377 1184 639.237 1162.5 Q674.097 1141 709.94 1127.5 Q745.782 1114 783.335 1118.5 Q820.887 1123 863.676 1162 L846.24 1020 Q803.452 981 765.961 977 Q728.469 973 692.566 986 Q656.662 999 621.863 1021 Q587.064 1043 551.16 1056 Q515.257 1069 477.266 1065 Q439.274 1061 397.486 1022 L414.798 1163 Z " />
<glyph glyph-name="Sacute" unicode="&#x15a;" horiz-adv-x="859" d="M288.249 621 Q283.583 583 306.005 562 Q328.426 541 368.637 530.5 Q408.848 520 460.795 515.5 Q512.743 511 566.883 504 Q621.024 497 671.989 484.5 Q722.954 472 761.201 445.5 Q799.447 419 819.044 375 Q838.642 331 830.047 261 Q820.961 187 777.821 137 Q734.682 87 675.437 56.5 Q616.192 26 549.596 13 Q483 0 426 0 Q368 0 303.473 12 Q238.947 24 186.13 54 Q133.314 84 103.015 134.5 Q72.7151 185 82.1696 262 L231.17 262 Q226.872 227 246.171 205 Q265.47 183 297.435 170.5 Q329.4 158 368.347 153.5 Q407.295 149 442.295 149 Q482.295 149 520.47 154.5 Q558.646 160 589.303 173.5 Q619.961 187 640.162 209 Q660.363 231 664.415 264 Q668.59 298 645.8 316 Q623.01 334 583.554 342.5 Q544.097 351 492.089 355 Q440.08 359 386.878 365.5 Q333.676 372 282.895 386 Q232.114 400 195.052 428 Q157.99 456 138.761 503 Q119.532 550 128.618 624 Q134.634 673 155.738 710.5 Q176.843 748 208.281 776 Q239.719 804 279.99 822.5 Q320.262 841 363.612 852 Q406.963 863 452.077 868 Q497.191 873 539.191 873 Q597.191 873 658.472 859 Q719.753 845 768.385 813.5 Q817.018 782 844.133 730 Q871.248 678 862.039 603 L714.039 603 Q718.091 636 700.976 659.5 Q683.862 683 654.081 697 Q624.3 711 587.098 717.5 Q549.896 724 514.896 724 Q474.896 724 435.843 719.5 Q396.791 715 365.44 704 Q334.09 693 313.073 672.5 Q292.056 652 288.249 621 Z M568.521 1006 L439.521 1006 L675.268 1346 L793.831 1261 L568.521 1006 Z " />
<glyph glyph-name="Scaron" unicode="&#x160;" horiz-adv-x="859" d="M288.249 621 Q283.583 583 306.005 562 Q328.426 541 368.637 530.5 Q408.848 520 460.795 515.5 Q512.743 511 566.883 504 Q621.024 497 671.989 484.5 Q722.954 472 761.201 445.5 Q799.447 419 819.044 375 Q838.642 331 830.047 261 Q820.961 187 777.821 137 Q734.682 87 675.437 56.5 Q616.192 26 549.596 13 Q483 0 426 0 Q368 0 303.473 12 Q238.947 24 186.13 54 Q133.314 84 103.015 134.5 Q72.7151 185 82.1696 262 L231.17 262 Q226.872 227 246.171 205 Q265.47 183 297.435 170.5 Q329.4 158 368.347 153.5 Q407.295 149 442.295 149 Q482.295 149 520.47 154.5 Q558.646 160 589.303 173.5 Q619.961 187 640.162 209 Q660.363 231 664.415 264 Q668.59 298 645.8 316 Q623.01 334 583.554 342.5 Q544.097 351 492.089 355 Q440.08 359 386.878 365.5 Q333.676 372 282.895 386 Q232.114 400 195.052 428 Q157.99 456 138.761 503 Q119.532 550 128.618 624 Q134.634 673 155.738 710.5 Q176.843 748 208.281 776 Q239.719 804 279.99 822.5 Q320.262 841 363.612 852 Q406.963 863 452.077 868 Q497.191 873 539.191 873 Q597.191 873 658.472 859 Q719.753 845 768.385 813.5 Q817.018 782 844.133 730 Q871.248 678 862.039 603 L714.039 603 Q718.091 636 700.976 659.5 Q683.862 683 654.081 697 Q624.3 711 587.098 717.5 Q549.896 724 514.896 724 Q474.896 724 435.843 719.5 Q396.791 715 365.44 704 Q334.09 693 313.073 672.5 Q292.056 652 288.249 621 Z M749.673 1276 L821.605 1194 L545.4 948 L329.605 1194 L421.673 1276 L540.974 1140 Q550.624 1129 567.124 1129 Q583.624 1129 595.974 1140 L672.324 1208 Q686.92 1221 700.393 1233 Q713.867 1245 725.033 1254.5 Q736.2 1264 742.936 1270 Q749.673 1276 749.673 1276 Z " />
<glyph glyph-name="Scedilla" unicode="&#x15e;" horiz-adv-x="859" d="M523.404 -13 Q541.825 -34 548.572 -60.5 Q555.318 -87 551.818 -115.5 Q548.319 -144 534.504 -171 Q520.689 -198 497.11 -219 Q473.532 -240 445.742 -250.5 Q417.953 -261 390.453 -261 Q362.953 -261 337.242 -250.5 Q311.532 -240 293.11 -219 Q274.811 -197 267.565 -170.5 Q260.319 -144 263.757 -116 L352.757 -116 Q350.056 -138 364.968 -155 Q379.881 -172 402.881 -172 Q425.881 -172 444.968 -155 Q464.056 -138 466.88 -115 Q469.704 -92 454.791 -75 L388.123 1 Q331.491 4 273.333 19 Q215.175 34 169.92 64.5 Q124.665 95 99.0582 143 Q73.4519 191 82.1696 262 L231.17 262 Q226.872 227 246.171 205 Q265.47 183 297.435 170.5 Q329.4 158 368.347 153.5 Q407.295 149 442.295 149 Q482.295 149 520.47 154.5 Q558.646 160 589.303 173.5 Q619.961 187 640.162 209 Q660.363 231 664.415 264 Q668.59 298 645.8 316 Q623.01 334 583.554 342.5 Q544.097 351 492.089 355 Q440.08 359 386.878 365.5 Q333.676 372 282.895 386 Q232.114 400 195.052 428 Q157.99 456 138.761 503 Q119.532 550 128.618 624 Q134.634 673 155.738 710.5 Q176.843 748 208.281 776 Q239.719 804 279.99 822.5 Q320.262 841 363.612 852 Q406.963 863 452.077 868 Q497.191 873 539.191 873 Q597.191 873 658.472 859 Q719.753 845 768.385 813.5 Q817.018 782 844.133 730 Q871.248 678 862.039 603 L714.039 603 Q718.091 636 700.976 659.5 Q683.862 683 654.081 697 Q624.3 711 587.098 717.5 Q549.896 724 514.896 724 Q474.896 724 435.843 719.5 Q396.791 715 365.44 704 Q334.09 693 313.073 672.5 Q292.056 652 288.249 621 Q283.583 583 306.005 562 Q328.426 541 368.637 530.5 Q408.848 520 460.795 515.5 Q512.743 511 566.883 504 Q621.024 497 671.989 484.5 Q722.954 472 761.201 445.5 Q799.447 419 819.044 375 Q838.642 331 830.047 261 Q822.434 199 790.97 154.5 Q759.506 110 713.761 79.5 Q668.016 49 613.306 31 Q558.596 13 505.737 6 L523.404 -13 Z " />
<glyph glyph-name="Scircumflex" unicode="&#x15c;" horiz-adv-x="859" d="M288.249 621 Q283.583 583 306.005 562 Q328.426 541 368.637 530.5 Q408.848 520 460.795 515.5 Q512.743 511 566.883 504 Q621.024 497 671.989 484.5 Q722.954 472 761.201 445.5 Q799.447 419 819.044 375 Q838.642 331 830.047 261 Q820.961 187 777.821 137 Q734.682 87 675.437 56.5 Q616.192 26 549.596 13 Q483 0 426 0 Q368 0 303.473 12 Q238.947 24 186.13 54 Q133.314 84 103.015 134.5 Q72.7151 185 82.1696 262 L231.17 262 Q226.872 227 246.171 205 Q265.47 183 297.435 170.5 Q329.4 158 368.347 153.5 Q407.295 149 442.295 149 Q482.295 149 520.47 154.5 Q558.646 160 589.303 173.5 Q619.961 187 640.162 209 Q660.363 231 664.415 264 Q668.59 298 645.8 316 Q623.01 334 583.554 342.5 Q544.097 351 492.089 355 Q440.08 359 386.878 365.5 Q333.676 372 282.895 386 Q232.114 400 195.052 428 Q157.99 456 138.761 503 Q119.532 550 128.618 624 Q134.634 673 155.738 710.5 Q176.843 748 208.281 776 Q239.719 804 279.99 822.5 Q320.262 841 363.612 852 Q406.963 863 452.077 868 Q497.191 873 539.191 873 Q597.191 873 658.472 859 Q719.753 845 768.385 813.5 Q817.018 782 844.133 730 Q871.248 678 862.039 603 L714.039 603 Q718.091 636 700.976 659.5 Q683.862 683 654.081 697 Q624.3 711 587.098 717.5 Q549.896 724 514.896 724 Q474.896 724 435.843 719.5 Q396.791 715 365.44 704 Q334.09 693 313.073 672.5 Q292.056 652 288.249 621 Z M708.4 948 L589.098 1084 Q579.449 1095 562.949 1095 Q546.449 1095 534.098 1084 L381.4 948 L309.468 1030 L585.673 1276 L801.468 1030 L709.4 948 L708.4 948 Z " />
<glyph glyph-name="Scommaaccent" unicode="&#x218;" horiz-adv-x="859" d="M288.249 621 Q283.583 583 306.005 562 Q328.426 541 368.637 530.5 Q408.848 520 460.795 515.5 Q512.743 511 566.883 504 Q621.024 497 671.989 484.5 Q722.954 472 761.201 445.5 Q799.447 419 819.044 375 Q838.642 331 830.047 261 Q820.961 187 777.821 137 Q734.682 87 675.437 56.5 Q616.192 26 549.596 13 Q483 0 426 0 Q368 0 303.473 12 Q238.947 24 186.13 54 Q133.314 84 103.015 134.5 Q72.7151 185 82.1696 262 L231.17 262 Q226.872 227 246.171 205 Q265.47 183 297.435 170.5 Q329.4 158 368.347 153.5 Q407.295 149 442.295 149 Q482.295 149 520.47 154.5 Q558.646 160 589.303 173.5 Q619.961 187 640.162 209 Q660.363 231 664.415 264 Q668.59 298 645.8 316 Q623.01 334 583.554 342.5 Q544.097 351 492.089 355 Q440.08 359 386.878 365.5 Q333.676 372 282.895 386 Q232.114 400 195.052 428 Q157.99 456 138.761 503 Q119.532 550 128.618 624 Q134.634 673 155.738 710.5 Q176.843 748 208.281 776 Q239.719 804 279.99 822.5 Q320.262 841 363.612 852 Q406.963 863 452.077 868 Q497.191 873 539.191 873 Q597.191 873 658.472 859 Q719.753 845 768.385 813.5 Q817.018 782 844.133 730 Q871.248 678 862.039 603 L714.039 603 Q718.091 636 700.976 659.5 Q683.862 683 654.081 697 Q624.3 711 587.098 717.5 Q549.896 724 514.896 724 Q474.896 724 435.843 719.5 Q396.791 715 365.44 704 Q334.09 693 313.073 672.5 Q292.056 652 288.249 621 Z M340.565 -142 L483.565 -142 L427.062 -423 L306.062 -423 L340.565 -142 Z " />
<glyph glyph-name="Tbar" unicode="&#x166;" horiz-adv-x="827" d="M236.448 362 L253.392 500 L394.392 500 L418.581 697 Q420.668 714 410.519 725 Q400.369 736 383.369 736 L120.369 736 L137.436 875 L904.436 875 L887.369 736 L623.369 736 Q607.369 736 594.519 725 Q581.668 714 579.581 697 L555.392 500 L696.392 500 L679.448 362 L538.448 362 L494 0 L333 0 L377.448 362 L236.448 362 Z " />
<glyph glyph-name="Tcaron" unicode="&#x164;" horiz-adv-x="827" d="M120.369 736 L137.436 875 L904.436 875 L887.369 736 L623.369 736 Q607.369 736 594.519 725 Q581.668 714 579.581 697 L494 0 L333 0 L418.581 697 Q420.668 714 410.519 725 Q400.369 736 383.369 736 L120.369 736 Z M733.673 1276 L805.605 1194 L529.4 948 L313.605 1194 L405.673 1276 L524.974 1140 Q534.624 1129 551.124 1129 Q567.624 1129 579.974 1140 L656.324 1208 Q670.92 1221 684.393 1233 Q697.867 1245 709.033 1254.5 Q720.2 1264 726.936 1270 Q733.673 1276 733.673 1276 Z " />
<glyph glyph-name="Tcommaaccent" unicode="&#x162;" horiz-adv-x="827" d="M120.369 736 L137.436 875 L904.436 875 L887.369 736 L623.369 736 Q607.369 736 594.519 725 Q581.668 714 579.581 697 L494 0 L333 0 L418.581 697 Q420.668 714 410.519 725 Q400.369 736 383.369 736 L120.369 736 Z M324.565 -142 L467.565 -142 L411.062 -423 L290.062 -423 L324.565 -142 Z " />
<glyph glyph-name="Uacute" unicode="&#xda;" horiz-adv-x="886" d="M672.343 353 L736.314 874 L903.314 874 L839.343 353 Q830.38 280 794.96 215.5 Q759.54 151 705.647 103 Q651.753 55 583.877 27.5 Q516 0 443 0 Q370 0 308.877 27.5 Q247.753 55 205.647 103 Q163.54 151 143.96 215.5 Q124.38 280 133.343 353 L197.314 874 L364.314 874 L300.343 353 Q295.554 314 305.941 280.5 Q316.328 247 338.697 221.5 Q361.066 196 393.285 181.5 Q425.505 167 463.505 167 Q502.505 167 537.785 181.5 Q573.066 196 601.697 221.5 Q630.328 247 648.941 280.5 Q667.554 314 672.343 353 Z M581.521 1006 L452.521 1006 L689.268 1346 L806.831 1261 L581.521 1006 Z " />
<glyph glyph-name="Ubreve" unicode="&#x16c;" horiz-adv-x="886" d="M672.343 353 L736.314 874 L903.314 874 L839.343 353 Q830.38 280 794.96 215.5 Q759.54 151 705.647 103 Q651.753 55 583.877 27.5 Q516 0 443 0 Q370 0 308.877 27.5 Q247.753 55 205.647 103 Q163.54 151 143.96 215.5 Q124.38 280 133.343 353 L197.314 874 L364.314 874 L300.343 353 Q295.554 314 305.941 280.5 Q316.328 247 338.697 221.5 Q361.066 196 393.285 181.5 Q425.505 167 463.505 167 Q502.505 167 537.785 181.5 Q573.066 196 601.697 221.5 Q630.328 247 648.941 280.5 Q667.554 314 672.343 353 Z M654.745 1187 L781.745 1187 Q776.834 1147 757.036 1112 Q737.239 1077 707.985 1050.5 Q678.731 1024 641.89 1009 Q605.048 994 565.048 994 Q525.048 994 491.89 1009 Q458.731 1024 435.485 1050.5 Q412.239 1077 401.536 1112 Q390.834 1147 395.745 1187 L522.745 1187 Q519.307 1159 536.413 1139.5 Q553.519 1120 581.519 1120 Q608.519 1120 629.974 1140 Q651.43 1160 654.745 1187 Z " />
<glyph glyph-name="Ucircumflex" unicode="&#xdb;" horiz-adv-x="886" d="M672.343 353 L736.314 874 L903.314 874 L839.343 353 Q830.38 280 794.96 215.5 Q759.54 151 705.647 103 Q651.753 55 583.877 27.5 Q516 0 443 0 Q370 0 308.877 27.5 Q247.753 55 205.647 103 Q163.54 151 143.96 215.5 Q124.38 280 133.343 353 L197.314 874 L364.314 874 L300.343 353 Q295.554 314 305.941 280.5 Q316.328 247 338.697 221.5 Q361.066 196 393.285 181.5 Q425.505 167 463.505 167 Q502.505 167 537.785 181.5 Q573.066 196 601.697 221.5 Q630.328 247 648.941 280.5 Q667.554 314 672.343 353 Z M722.4 948 L603.098 1084 Q593.449 1095 576.949 1095 Q560.449 1095 548.098 1084 L395.4 948 L323.468 1030 L599.673 1276 L815.468 1030 L723.4 948 L722.4 948 Z " />
<glyph glyph-name="Udieresis" unicode="&#xdc;" horiz-adv-x="886" d="M672.343 353 L736.314 874 L903.314 874 L839.343 353 Q830.38 280 794.96 215.5 Q759.54 151 705.647 103 Q651.753 55 583.877 27.5 Q516 0 443 0 Q370 0 308.877 27.5 Q247.753 55 205.647 103 Q163.54 151 143.96 215.5 Q124.38 280 133.343 353 L197.314 874 L364.314 874 L300.343 353 Q295.554 314 305.941 280.5 Q316.328 247 338.697 221.5 Q361.066 196 393.285 181.5 Q425.505 167 463.505 167 Q502.505 167 537.785 181.5 Q573.066 196 601.697 221.5 Q630.328 247 648.941 280.5 Q667.554 314 672.343 353 Z M506.712 1089 Q502.169 1052 472.416 1025.5 Q442.662 999 405.662 999 Q367.662 999 344.916 1025.5 Q322.169 1052 326.712 1089 Q331.378 1127 360.571 1153 Q389.763 1179 427.763 1179 Q464.763 1179 488.071 1153 Q511.378 1127 506.712 1089 Z M826.712 1089 Q822.169 1052 792.416 1025.5 Q762.662 999 724.662 999 Q687.662 999 664.916 1025.5 Q642.169 1052 646.712 1089 Q651.378 1127 680.571 1153 Q709.763 1179 746.763 1179 Q784.763 1179 808.071 1153 Q831.378 1127 826.712 1089 Z " />
<glyph glyph-name="Ugrave" unicode="&#xd9;" horiz-adv-x="886" d="M672.343 353 L736.314 874 L903.314 874 L839.343 353 Q830.38 280 794.96 215.5 Q759.54 151 705.647 103 Q651.753 55 583.877 27.5 Q516 0 443 0 Q370 0 308.877 27.5 Q247.753 55 205.647 103 Q163.54 151 143.96 215.5 Q124.38 280 133.343 353 L197.314 874 L364.314 874 L300.343 353 Q295.554 314 305.941 280.5 Q316.328 247 338.697 221.5 Q361.066 196 393.285 181.5 Q425.505 167 463.505 167 Q502.505 167 537.785 181.5 Q573.066 196 601.697 221.5 Q630.328 247 648.941 280.5 Q667.554 314 672.343 353 Z M363.691 1268 L519.355 1363 L681.521 1006 L531.521 1006 L363.691 1268 Z " />
<glyph glyph-name="Uhungarumlaut" unicode="&#x170;" horiz-adv-x="886" d="M672.343 353 L736.314 874 L903.314 874 L839.343 353 Q830.38 280 794.96 215.5 Q759.54 151 705.647 103 Q651.753 55 583.877 27.5 Q516 0 443 0 Q370 0 308.877 27.5 Q247.753 55 205.647 103 Q163.54 151 143.96 215.5 Q124.38 280 133.343 353 L197.314 874 L364.314 874 L300.343 353 Q295.554 314 305.941 280.5 Q316.328 247 338.697 221.5 Q361.066 196 393.285 181.5 Q425.505 167 463.505 167 Q502.505 167 537.785 181.5 Q573.066 196 601.697 221.5 Q630.328 247 648.941 280.5 Q667.554 314 672.343 353 Z M739.521 1006 L610.521 1006 L847.268 1346 L964.831 1261 L739.521 1006 Z M464.521 1006 L335.521 1006 L571.268 1346 L689.831 1261 L464.521 1006 Z " />
<glyph glyph-name="Umacron" unicode="&#x16a;" horiz-adv-x="886" d="M672.343 353 L736.314 874 L903.314 874 L839.343 353 Q830.38 280 794.96 215.5 Q759.54 151 705.647 103 Q651.753 55 583.877 27.5 Q516 0 443 0 Q370 0 308.877 27.5 Q247.753 55 205.647 103 Q163.54 151 143.96 215.5 Q124.38 280 133.343 353 L197.314 874 L364.314 874 L300.343 353 Q295.554 314 305.941 280.5 Q316.328 247 338.697 221.5 Q361.066 196 393.285 181.5 Q425.505 167 463.505 167 Q502.505 167 537.785 181.5 Q573.066 196 601.697 221.5 Q630.328 247 648.941 280.5 Q667.554 314 672.343 353 Z M347.714 1032 L364.658 1170 L807.658 1170 L790.714 1032 L347.714 1032 Z " />
<glyph glyph-name="Uogonek" unicode="&#x172;" horiz-adv-x="886" d="M556.566 -199 Q518.514 -232 478.865 -249.5 Q439.217 -267 401.217 -267 Q361.217 -267 328.558 -252 Q295.9 -237 273.092 -211 Q250.285 -185 239.582 -150 Q228.88 -115 233.791 -75 Q237.843 -42 251.965 -12.5 Q266.087 17 289.034 41 Q248.613 62 216.542 94 Q184.471 126 163.944 166.5 Q143.416 207 135.187 254 Q126.958 301 133.343 353 L197.314 874 L364.314 874 L300.343 353 Q295.554 314 305.941 280.5 Q316.328 247 338.697 221.5 Q361.066 196 393.285 181.5 Q425.505 167 463.505 167 Q502.505 167 537.785 181.5 Q573.066 196 601.697 221.5 Q630.328 247 648.941 280.5 Q667.554 314 672.343 353 L736.314 874 L903.314 874 L839.343 353 Q830.38 280 794.46 215.5 Q758.54 151 704.647 103 Q650.753 55 582.877 27.5 Q515 0 442 0 Q406 0 378.36 -21.5 Q350.72 -43 346.914 -74 Q343.108 -105 361.968 -126.5 Q380.828 -148 411.828 -148 Q426.828 -148 443.749 -140.5 Q460.67 -133 476.389 -119 L556.566 -199 Z " />
<glyph glyph-name="Uring" unicode="&#x16e;" horiz-adv-x="886" d="M672.343 353 L736.314 874 L903.314 874 L839.343 353 Q830.38 280 794.96 215.5 Q759.54 151 705.647 103 Q651.753 55 583.877 27.5 Q516 0 443 0 Q370 0 308.877 27.5 Q247.753 55 205.647 103 Q163.54 151 143.96 215.5 Q124.38 280 133.343 353 L197.314 874 L364.314 874 L300.343 353 Q295.554 314 305.941 280.5 Q316.328 247 338.697 221.5 Q361.066 196 393.285 181.5 Q425.505 167 463.505 167 Q502.505 167 537.785 181.5 Q573.066 196 601.697 221.5 Q630.328 247 648.941 280.5 Q667.554 314 672.343 353 Z M599.059 1271 Q630.059 1271 656.086 1259 Q682.112 1247 699.657 1227 Q717.201 1207 725.824 1179.5 Q734.448 1152 730.641 1121 Q726.835 1090 711.459 1062.5 Q696.082 1035 673.626 1015 Q651.171 995 622.197 983 Q593.224 971 562.224 971 Q531.224 971 505.197 983 Q479.171 995 461.626 1015 Q444.082 1035 435.459 1062.5 Q426.835 1090 430.641 1121 Q434.448 1152 449.824 1179.5 Q465.201 1207 487.657 1227 Q510.112 1247 539.086 1259 Q568.059 1271 599.059 1271 Z M573.397 1062 Q597.397 1062 617.046 1079.5 Q636.695 1097 639.641 1121 Q642.588 1145 627.237 1162.5 Q611.886 1180 587.886 1180 Q563.886 1180 543.737 1162.5 Q523.588 1145 520.641 1121 Q517.695 1097 533.546 1079.5 Q549.397 1062 573.397 1062 Z " />
<glyph glyph-name="Utilde" unicode="&#x168;" horiz-adv-x="886" d="M672.343 353 L736.314 874 L903.314 874 L839.343 353 Q830.38 280 794.96 215.5 Q759.54 151 705.647 103 Q651.753 55 583.877 27.5 Q516 0 443 0 Q370 0 308.877 27.5 Q247.753 55 205.647 103 Q163.54 151 143.96 215.5 Q124.38 280 133.343 353 L197.314 874 L364.314 874 L300.343 353 Q295.554 314 305.941 280.5 Q316.328 247 338.697 221.5 Q361.066 196 393.285 181.5 Q425.505 167 463.505 167 Q502.505 167 537.785 181.5 Q573.066 196 601.697 221.5 Q630.328 247 648.941 280.5 Q667.554 314 672.343 353 Z M360.798 1163 Q402.587 1202 440.64 1206.5 Q478.692 1211 514.535 1197.5 Q550.377 1184 585.237 1162.5 Q620.097 1141 655.94 1127.5 Q691.782 1114 729.335 1118.5 Q766.887 1123 809.676 1162 L792.24 1020 Q749.452 981 711.961 977 Q674.469 973 638.566 986 Q602.662 999 567.863 1021 Q533.064 1043 497.16 1056 Q461.257 1069 423.266 1065 Q385.274 1061 343.486 1022 L360.798 1163 Z " />
<glyph glyph-name="Wacute" unicode="&#x1e82;" horiz-adv-x="1395" d="M1020.68 258 L1304.44 875 L1472.44 875 L1074 0 L905 0 L774.495 623 L490 0 L322 0 L137.436 875 L306.436 875 L437.678 258 L720.436 875 L889.436 875 L1020.68 258 Z M788.521 1006 L659.521 1006 L895.268 1346 L1013.83 1261 L788.521 1006 Z " />
<glyph glyph-name="Wcircumflex" unicode="&#x174;" horiz-adv-x="1395" d="M1020.68 258 L1304.44 875 L1472.44 875 L1074 0 L905 0 L774.495 623 L490 0 L322 0 L137.436 875 L306.436 875 L437.678 258 L720.436 875 L889.436 875 L1020.68 258 Z M976.4 948 L857.098 1084 Q847.449 1095 830.949 1095 Q814.449 1095 802.098 1084 L649.4 948 L577.468 1030 L853.673 1276 L1069.47 1030 L977.4 948 L976.4 948 Z " />
<glyph glyph-name="Wdieresis" unicode="&#x1e84;" horiz-adv-x="1395" d="M1020.68 258 L1304.44 875 L1472.44 875 L1074 0 L905 0 L774.495 623 L490 0 L322 0 L137.436 875 L306.436 875 L437.678 258 L720.436 875 L889.436 875 L1020.68 258 Z M760.712 1089 Q756.169 1052 726.916 1025.5 Q697.662 999 659.662 999 Q622.662 999 599.416 1025.5 Q576.169 1052 580.712 1089 Q585.378 1127 615.071 1153 Q644.763 1179 681.763 1179 Q719.763 1179 742.571 1153 Q765.378 1127 760.712 1089 Z M1080.71 1089 Q1076.17 1052 1046.92 1025.5 Q1017.66 999 979.662 999 Q942.662 999 919.416 1025.5 Q896.169 1052 900.712 1089 Q905.378 1127 935.071 1153 Q964.763 1179 1001.76 1179 Q1039.76 1179 1062.57 1153 Q1085.38 1127 1080.71 1089 Z " />
<glyph glyph-name="Wgrave" unicode="&#x1e80;" horiz-adv-x="1395" d="M1020.68 258 L1304.44 875 L1472.44 875 L1074 0 L905 0 L774.495 623 L490 0 L322 0 L137.436 875 L306.436 875 L437.678 258 L720.436 875 L889.436 875 L1020.68 258 Z M677.691 1268 L833.355 1363 L995.521 1006 L845.521 1006 L677.691 1268 Z " />
<glyph glyph-name="Yacute" unicode="&#xdd;" horiz-adv-x="1012" d="M475.342 410 Q477.306 426 468.534 436 L137.314 874 L330.314 874 L573.9 553 L896.314 874 L1089.31 874 L650.534 436 Q639.306 426 637.342 410 L587 0 L425 0 L475.342 410 Z M682.521 1006 L553.521 1006 L790.268 1346 L907.831 1261 L682.521 1006 Z " />
<glyph glyph-name="Ycircumflex" unicode="&#x176;" horiz-adv-x="1012" d="M475.342 410 Q477.306 426 468.534 436 L137.314 874 L330.314 874 L573.9 553 L896.314 874 L1089.31 874 L650.534 436 Q639.306 426 637.342 410 L587 0 L425 0 L475.342 410 Z M785.4 948 L666.098 1084 Q656.449 1095 639.949 1095 Q623.449 1095 611.098 1084 L458.4 948 L386.468 1030 L662.673 1276 L878.468 1030 L786.4 948 L785.4 948 Z " />
<glyph glyph-name="Ydieresis" unicode="&#x178;" horiz-adv-x="1012" d="M475.342 410 Q477.306 426 468.534 436 L137.314 874 L330.314 874 L573.9 553 L896.314 874 L1089.31 874 L650.534 436 Q639.306 426 637.342 410 L587 0 L425 0 L475.342 410 Z M889.712 1089 Q885.169 1052 855.416 1025.5 Q825.662 999 787.662 999 Q750.662 999 727.916 1025.5 Q705.169 1052 709.712 1089 Q714.378 1127 743.571 1153 Q772.763 1179 809.763 1179 Q847.763 1179 871.071 1153 Q894.378 1127 889.712 1089 Z M569.712 1089 Q565.169 1052 535.416 1025.5 Q505.662 999 468.662 999 Q430.662 999 407.916 1025.5 Q385.169 1052 389.712 1089 Q394.378 1127 423.571 1153 Q452.763 1179 490.763 1179 Q527.763 1179 551.071 1153 Q574.378 1127 569.712 1089 Z " />
<glyph glyph-name="Ygrave" unicode="&#x1ef2;" horiz-adv-x="1012" d="M475.342 410 Q477.306 426 468.534 436 L137.314 874 L330.314 874 L573.9 553 L896.314 874 L1089.31 874 L650.534 436 Q639.306 426 637.342 410 L587 0 L425 0 L475.342 410 Z M394.691 1268 L550.355 1363 L712.521 1006 L562.521 1006 L394.691 1268 Z " />
<glyph glyph-name="Zacute" unicode="&#x179;" horiz-adv-x="891" d="M938.436 875 L921.615 738 L295.699 136 L823.699 136 L807 0 L52 0 L68.6987 136 L692.615 738 L142.615 738 L159.436 875 L938.436 875 Z M608.521 1006 L479.521 1006 L715.268 1346 L833.831 1261 L608.521 1006 Z " />
<glyph glyph-name="Zcaron" unicode="&#x17d;" horiz-adv-x="891" d="M938.436 875 L921.615 738 L295.699 136 L823.699 136 L807 0 L52 0 L68.6987 136 L692.615 738 L142.615 738 L159.436 875 L938.436 875 Z M765.673 1276 L837.605 1194 L561.4 948 L345.605 1194 L437.673 1276 L556.974 1140 Q566.624 1129 583.124 1129 Q599.624 1129 611.974 1140 L688.324 1208 Q702.92 1221 716.393 1233 Q729.867 1245 741.033 1254.5 Q752.2 1264 758.936 1270 Q765.673 1276 765.673 1276 Z " />
<glyph glyph-name="Zdotaccent" unicode="&#x17b;" horiz-adv-x="891" d="M938.436 875 L921.615 738 L295.699 136 L823.699 136 L807 0 L52 0 L68.6987 136 L692.615 738 L142.615 738 L159.436 875 L938.436 875 Z M665.029 1059 Q660.486 1022 631.232 995.5 Q601.978 969 563.978 969 Q526.978 969 503.732 995.5 Q480.486 1022 485.029 1059 Q489.695 1097 519.387 1123 Q549.079 1149 586.079 1149 Q624.079 1149 646.887 1123 Q669.695 1097 665.029 1059 Z " />
<glyph glyph-name="c" unicode="c" horiz-adv-x="847" d="M575.931 708 Q519.931 708 467.853 687 Q415.775 666 374.231 629 Q332.688 592 305.172 543 Q277.656 494 270.78 438 Q263.904 382 278.887 333 Q293.871 284 326.328 247 Q358.785 210 405.145 188.5 Q451.505 167 507.505 167 Q561.505 167 614.022 187.5 Q666.539 208 709.205 246 L812.716 128 Q743.104 66 658.552 33 Q574 0 487 0 Q397 0 321.236 34.5 Q245.472 69 193.778 128.5 Q142.083 188 117.406 268 Q92.729 348 103.78 438 Q114.83 528 159.153 608 Q203.476 688 269.72 747 Q335.964 806 420.2 840.5 Q504.436 875 594.436 875 Q681.436 875 757.885 842 Q834.333 809 888.72 747 L756.231 629 Q722.897 667 676.414 687.5 Q629.931 708 575.931 708 Z " />
<glyph glyph-name="cacute" unicode="&#x107;" horiz-adv-x="847" d="M575.931 708 Q519.931 708 467.853 687 Q415.775 666 374.231 629 Q332.688 592 305.172 543 Q277.656 494 270.78 438 Q263.904 382 278.887 333 Q293.871 284 326.328 247 Q358.785 210 405.145 188.5 Q451.505 167 507.505 167 Q561.505 167 614.022 187.5 Q666.539 208 709.205 246 L812.716 128 Q743.104 66 658.552 33 Q574 0 487 0 Q397 0 321.236 34.5 Q245.472 69 193.778 128.5 Q142.083 188 117.406 268 Q92.729 348 103.78 438 Q114.83 528 159.153 608 Q203.476 688 269.72 747 Q335.964 806 420.2 840.5 Q504.436 875 594.436 875 Q681.436 875 757.885 842 Q834.333 809 888.72 747 L756.231 629 Q722.897 667 676.414 687.5 Q629.931 708 575.931 708 Z M642.521 1006 L513.521 1006 L749.268 1346 L867.831 1261 L642.521 1006 Z " />
<glyph glyph-name="ccaron" unicode="&#x10d;" horiz-adv-x="847" d="M575.931 708 Q519.931 708 467.853 687 Q415.775 666 374.231 629 Q332.688 592 305.172 543 Q277.656 494 270.78 438 Q263.904 382 278.887 333 Q293.871 284 326.328 247 Q358.785 210 405.145 188.5 Q451.505 167 507.505 167 Q561.505 167 614.022 187.5 Q666.539 208 709.205 246 L812.716 128 Q743.104 66 658.552 33 Q574 0 487 0 Q397 0 321.236 34.5 Q245.472 69 193.778 128.5 Q142.083 188 117.406 268 Q92.729 348 103.78 438 Q114.83 528 159.153 608 Q203.476 688 269.72 747 Q335.964 806 420.2 840.5 Q504.436 875 594.436 875 Q681.436 875 757.885 842 Q834.333 809 888.72 747 L756.231 629 Q722.897 667 676.414 687.5 Q629.931 708 575.931 708 Z M773.673 1276 L845.605 1194 L569.4 948 L353.605 1194 L445.673 1276 L564.974 1140 Q574.624 1129 591.124 1129 Q607.624 1129 619.974 1140 L696.324 1208 Q710.92 1221 724.393 1233 Q737.867 1245 749.033 1254.5 Q760.2 1264 766.936 1270 Q773.673 1276 773.673 1276 Z " />
<glyph glyph-name="ccedilla" unicode="&#xe7;" horiz-adv-x="847" d="M575.931 708 Q519.931 708 467.853 687 Q415.775 666 374.231 629 Q332.688 592 305.172 543 Q277.656 494 270.78 438 Q263.904 382 278.887 333 Q293.871 284 326.328 247 Q358.785 210 405.145 188.5 Q451.505 167 507.505 167 Q561.505 167 614.022 187.5 Q666.539 208 709.205 246 L812.716 128 Q763.314 84 705.753 55 Q648.192 26 586.596 13 Q607.176 -23 605.142 -64 Q610.072 -89 602.196 -116.5 Q594.319 -144 575.372 -168 Q556.303 -193 526.215 -210 Q490.882 -229 453.944 -228.5 Q417.005 -228 387.154 -210.5 Q357.303 -193 340.17 -161.5 Q323.038 -130 328.441 -86 L417.441 -86 Q415.108 -105 424.011 -118 Q432.915 -131 447.179 -137 Q461.442 -143 478.81 -140 Q496.179 -137 509.652 -125 Q528.739 -108 531.563 -85 Q534.387 -62 519.475 -45 L478.123 1 Q389.491 4 316.227 38.5 Q242.963 73 191.646 131.5 Q140.329 190 116.529 269 Q92.729 348 103.78 438 Q114.83 528 159.153 608 Q203.476 688 269.72 747 Q335.964 806 420.2 840.5 Q504.436 875 594.436 875 Q681.436 875 757.885 842 Q834.333 809 888.72 747 L756.231 629 Q722.897 667 676.414 687.5 Q629.931 708 575.931 708 Z " />
<glyph glyph-name="ccircumflex" unicode="&#x109;" horiz-adv-x="847" d="M575.931 708 Q519.931 708 467.853 687 Q415.775 666 374.231 629 Q332.688 592 305.172 543 Q277.656 494 270.78 438 Q263.904 382 278.887 333 Q293.871 284 326.328 247 Q358.785 210 405.145 188.5 Q451.505 167 507.505 167 Q561.505 167 614.022 187.5 Q666.539 208 709.205 246 L812.716 128 Q743.104 66 658.552 33 Q574 0 487 0 Q397 0 321.236 34.5 Q245.472 69 193.778 128.5 Q142.083 188 117.406 268 Q92.729 348 103.78 438 Q114.83 528 159.153 608 Q203.476 688 269.72 747 Q335.964 806 420.2 840.5 Q504.436 875 594.436 875 Q681.436 875 757.885 842 Q834.333 809 888.72 747 L756.231 629 Q722.897 667 676.414 687.5 Q629.931 708 575.931 708 Z M762.4 948 L643.098 1084 Q633.449 1095 616.949 1095 Q600.449 1095 588.098 1084 L435.4 948 L363.468 1030 L639.673 1276 L855.468 1030 L763.4 948 L762.4 948 Z " />
<glyph glyph-name="cdotaccent" unicode="&#x10b;" horiz-adv-x="847" d="M575.931 708 Q519.931 708 467.853 687 Q415.775 666 374.231 629 Q332.688 592 305.172 543 Q277.656 494 270.78 438 Q263.904 382 278.887 333 Q293.871 284 326.328 247 Q358.785 210 405.145 188.5 Q451.505 167 507.505 167 Q561.505 167 614.022 187.5 Q666.539 208 709.205 246 L812.716 128 Q743.104 66 658.552 33 Q574 0 487 0 Q397 0 321.236 34.5 Q245.472 69 193.778 128.5 Q142.083 188 117.406 268 Q92.729 348 103.78 438 Q114.83 528 159.153 608 Q203.476 688 269.72 747 Q335.964 806 420.2 840.5 Q504.436 875 594.436 875 Q681.436 875 757.885 842 Q834.333 809 888.72 747 L756.231 629 Q722.897 667 676.414 687.5 Q629.931 708 575.931 708 Z M691.029 1059 Q686.486 1022 657.232 995.5 Q627.978 969 589.978 969 Q552.978 969 529.732 995.5 Q506.486 1022 511.029 1059 Q515.695 1097 545.387 1123 Q575.079 1149 612.079 1149 Q650.079 1149 672.887 1123 Q695.695 1097 691.029 1059 Z " />
<glyph glyph-name="d" unicode="d" horiz-adv-x="926" d="M531.436 875 Q621.436 875 697.2 840.5 Q772.964 806 824.659 746.5 Q876.353 687 901.03 607 Q925.707 527 914.657 437 Q903.606 347 859.283 267 Q814.961 187 748.716 128 Q682.472 69 598.236 34.5 Q514 0 424 0 L95 0 L202.436 875 L531.436 875 Z M747.534 436 Q754.042 489 739.558 538 Q725.075 587 694.74 625 Q664.406 663 619.669 685.5 Q574.931 708 519.931 708 L373.931 708 Q362.931 708 355.011 700.5 Q347.09 693 345.739 682 L285.575 192 Q284.224 181 290.365 174 Q296.505 167 307.505 167 L453.505 167 Q506.505 167 556.768 189.5 Q607.03 212 647.073 249 Q687.116 286 714.071 334.5 Q741.026 383 747.534 436 Z " />
<glyph glyph-name="dcaron" unicode="&#x10f;" horiz-adv-x="926" d="M531.436 875 Q621.436 875 697.2 840.5 Q772.964 806 824.659 746.5 Q876.353 687 901.03 607 Q925.707 527 914.657 437 Q903.606 347 859.283 267 Q814.961 187 748.716 128 Q682.472 69 598.236 34.5 Q514 0 424 0 L95 0 L202.436 875 L531.436 875 Z M747.534 436 Q754.042 489 739.558 538 Q725.075 587 694.74 625 Q664.406 663 619.669 685.5 Q574.931 708 519.931 708 L373.931 708 Q362.931 708 355.011 700.5 Q347.09 693 345.739 682 L285.575 192 Q284.224 181 290.365 174 Q296.505 167 307.505 167 L453.505 167 Q506.505 167 556.768 189.5 Q607.03 212 647.073 249 Q687.116 286 714.071 334.5 Q741.026 383 747.534 436 Z M758.673 1276 L830.605 1194 L554.4 948 L338.605 1194 L430.673 1276 L549.974 1140 Q559.624 1129 576.124 1129 Q592.624 1129 604.974 1140 L681.324 1208 Q695.92 1221 709.393 1233 Q722.867 1245 734.033 1254.5 Q745.2 1264 751.936 1270 Q758.673 1276 758.673 1276 Z " />
<glyph glyph-name="dcroat" unicode="&#x111;" horiz-adv-x="926" d="M21.3252 361 L38.2695 499 L156.269 499 L202.436 875 L531.436 875 Q621.436 875 697.2 840.5 Q772.964 806 824.659 746.5 Q876.353 687 901.03 607 Q925.707 527 914.657 437 Q903.606 347 859.283 267 Q814.961 187 748.716 128 Q682.472 69 598.236 34.5 Q514 0 424 0 L95 0 L139.325 361 L21.3252 361 Z M747.534 436 Q754.042 489 739.558 538 Q725.075 587 694.74 625 Q664.406 663 619.669 685.5 Q574.931 708 519.931 708 L373.931 708 Q362.931 708 355.011 700.5 Q347.09 693 345.739 682 L323.269 499 L481.269 499 L464.325 361 L306.325 361 L285.575 192 Q284.224 181 290.365 174 Q296.505 167 307.505 167 L453.505 167 Q506.505 167 556.768 189.5 Q607.03 212 647.073 249 Q687.116 286 714.071 334.5 Q741.026 383 747.534 436 Z " />
<glyph glyph-name="e" unicode="e" horiz-adv-x="816" d="M328.549 542 Q327.076 530 334.094 522 Q341.111 514 352.111 514 L814.111 514 L795.694 364 L333.694 364 Q322.694 364 313.711 356 Q304.729 348 303.378 337 L283.61 176 Q282.259 165 289.277 157 Q296.295 149 307.295 149 L769.295 149 L751 0 L95 0 L202.436 875 L858.314 874 L839.896 724 L377.896 724 Q366.896 724 357.852 715.5 Q348.809 707 347.458 696 L328.549 542 Z " />
<glyph glyph-name="eacute" unicode="&#xe9;" horiz-adv-x="816" d="M328.549 542 Q327.076 530 334.094 522 Q341.111 514 352.111 514 L814.111 514 L795.694 364 L333.694 364 Q322.694 364 313.711 356 Q304.729 348 303.378 337 L283.61 176 Q282.259 165 289.277 157 Q296.295 149 307.295 149 L769.295 149 L751 0 L95 0 L202.436 875 L858.314 874 L839.896 724 L377.896 724 Q366.896 724 357.852 715.5 Q348.809 707 347.458 696 L328.549 542 Z M522.521 1006 L393.521 1006 L630.268 1346 L747.831 1261 L522.521 1006 Z " />
<glyph glyph-name="ebreve" unicode="&#x115;" horiz-adv-x="816" d="M328.549 542 Q327.076 530 334.094 522 Q341.111 514 352.111 514 L814.111 514 L795.694 364 L375.694 364 Q365.694 364 353.632 363.5 Q341.571 363 330.764 360.5 Q319.957 358 312.282 352.5 Q304.606 347 303.378 337 L283.61 176 Q282.259 165 289.277 157 Q296.295 149 307.295 149 L769.295 149 L751 0 L95 0 L202.436 875 Q367.436 875 530.375 874.5 Q693.314 874 858.314 874 L839.896 724 L377.896 724 Q366.896 724 357.852 715.5 Q348.809 707 347.458 696 L328.549 542 Z M619.745 1187 L746.745 1187 Q741.834 1147 722.036 1112 Q702.239 1077 672.985 1050.5 Q643.731 1024 606.89 1009 Q570.048 994 530.048 994 Q490.048 994 456.89 1009 Q423.731 1024 400.485 1050.5 Q377.239 1077 366.536 1112 Q355.834 1147 360.745 1187 L487.745 1187 Q484.307 1159 501.413 1139.5 Q518.519 1120 545.519 1120 Q572.519 1120 594.474 1140 Q616.43 1160 619.745 1187 Z " />
<glyph glyph-name="ecaron" unicode="&#x11b;" horiz-adv-x="816" d="M328.549 542 Q327.076 530 334.094 522 Q341.111 514 352.111 514 L814.111 514 L795.694 364 L333.694 364 Q322.694 364 313.711 356 Q304.729 348 303.378 337 L283.61 176 Q282.259 165 289.277 157 Q296.295 149 307.295 149 L769.295 149 L751 0 L95 0 L202.436 875 L858.314 874 L839.896 724 L377.896 724 Q366.896 724 357.852 715.5 Q348.809 707 347.458 696 L328.549 542 Z M728.673 1276 L800.605 1194 L524.4 948 L308.605 1194 L400.673 1276 L519.974 1140 Q529.624 1129 546.124 1129 Q562.624 1129 574.974 1140 L651.324 1208 Q665.92 1221 679.393 1233 Q692.867 1245 704.033 1254.5 Q715.2 1264 721.936 1270 Q728.673 1276 728.673 1276 Z " />
<glyph glyph-name="ecircumflex" unicode="&#xea;" horiz-adv-x="816" d="M328.549 542 Q327.076 530 334.094 522 Q341.111 514 352.111 514 L814.111 514 L795.694 364 L333.694 364 Q322.694 364 313.711 356 Q304.729 348 303.378 337 L283.61 176 Q282.259 165 289.277 157 Q296.295 149 307.295 149 L769.295 149 L751 0 L95 0 L202.436 875 L858.314 874 L839.896 724 L377.896 724 Q366.896 724 357.852 715.5 Q348.809 707 347.458 696 L328.549 542 Z M687.4 948 L568.098 1084 Q558.449 1095 541.949 1095 Q525.449 1095 513.098 1084 L360.4 948 L288.468 1030 L564.673 1276 L780.468 1030 L688.4 948 L687.4 948 Z " />
<glyph glyph-name="edieresis" unicode="&#xeb;" horiz-adv-x="816" d="M328.549 542 Q327.076 530 334.094 522 Q341.111 514 352.111 514 L814.111 514 L795.694 364 L333.694 364 Q322.694 364 313.711 356 Q304.729 348 303.378 337 L283.61 176 Q282.259 165 289.277 157 Q296.295 149 307.295 149 L769.295 149 L751 0 L95 0 L202.436 875 L858.314 874 L839.896 724 L377.896 724 Q366.896 724 357.852 715.5 Q348.809 707 347.458 696 L328.549 542 Z M791.712 1089 Q787.169 1052 757.416 1025.5 Q727.662 999 689.662 999 Q652.662 999 629.916 1025.5 Q607.169 1052 611.712 1089 Q616.378 1127 645.571 1153 Q674.763 1179 711.763 1179 Q749.763 1179 773.071 1153 Q796.378 1127 791.712 1089 Z M471.712 1089 Q467.169 1052 437.416 1025.5 Q407.662 999 370.662 999 Q332.662 999 309.916 1025.5 Q287.169 1052 291.712 1089 Q296.378 1127 325.571 1153 Q354.763 1179 392.763 1179 Q429.763 1179 453.071 1153 Q476.378 1127 471.712 1089 Z " />
<glyph glyph-name="edotaccent" unicode="&#x117;" horiz-adv-x="816" d="M328.549 542 Q327.076 530 334.094 522 Q341.111 514 352.111 514 L814.111 514 L795.694 364 L333.694 364 Q322.694 364 313.711 356 Q304.729 348 303.378 337 L283.61 176 Q282.259 165 289.277 157 Q296.295 149 307.295 149 L769.295 149 L751 0 L95 0 L202.436 875 L858.314 874 L839.896 724 L377.896 724 Q366.896 724 357.852 715.5 Q348.809 707 347.458 696 L328.549 542 Z M628.029 1059 Q623.486 1022 593.732 995.5 Q563.978 969 525.978 969 Q488.978 969 466.232 995.5 Q443.486 1022 448.029 1059 Q452.695 1097 481.887 1123 Q511.079 1149 548.079 1149 Q586.079 1149 609.387 1123 Q632.695 1097 628.029 1059 Z " />
<glyph glyph-name="egrave" unicode="&#xe8;" horiz-adv-x="816" d="M328.549 542 Q327.076 530 334.094 522 Q341.111 514 352.111 514 L814.111 514 L795.694 364 L333.694 364 Q322.694 364 313.711 356 Q304.729 348 303.378 337 L283.61 176 Q282.259 165 289.277 157 Q296.295 149 307.295 149 L769.295 149 L751 0 L95 0 L202.436 875 L858.314 874 L839.896 724 L377.896 724 Q366.896 724 357.852 715.5 Q348.809 707 347.458 696 L328.549 542 Z M328.691 1268 L484.355 1363 L646.521 1006 L496.521 1006 L328.691 1268 Z " />
<glyph glyph-name="emacron" unicode="&#x113;" horiz-adv-x="816" d="M328.549 542 Q327.076 530 334.094 522 Q341.111 514 352.111 514 L814.111 514 L795.694 364 L333.694 364 Q322.694 364 313.711 356 Q304.729 348 303.378 337 L283.61 176 Q282.259 165 289.277 157 Q296.295 149 307.295 149 L769.295 149 L751 0 L95 0 L202.436 875 L858.314 874 L839.896 724 L377.896 724 Q366.896 724 357.852 715.5 Q348.809 707 347.458 696 L328.549 542 Z M312.714 1032 L329.658 1170 L772.658 1170 L755.714 1032 L312.714 1032 Z " />
<glyph glyph-name="eogonek" unicode="&#x119;" horiz-adv-x="816" d="M726.566 -199 Q689.514 -232 649.365 -249.5 Q609.217 -267 571.217 -267 Q532.217 -267 499.058 -252 Q465.9 -237 443.092 -211 Q420.285 -185 409.582 -150 Q398.88 -115 403.791 -75 Q408.948 -33 431 0 L95 0 L202.436 875 L858.314 874 L839.896 724 L377.896 724 Q366.896 724 357.852 715.5 Q348.809 707 347.458 696 L328.549 542 Q327.076 530 334.094 522 Q341.111 514 352.111 514 L814.111 514 L795.694 364 L333.694 364 Q322.694 364 313.711 356 Q304.729 348 303.378 337 L283.61 176 Q282.259 165 289.277 157 Q296.295 149 307.295 149 L769.295 149 L751 0 L608 0 Q572.877 -1 546.737 -22.5 Q520.597 -44 516.914 -74 Q513.108 -105 531.968 -126.5 Q550.828 -148 581.828 -148 Q596.828 -148 613.749 -140.5 Q630.67 -133 646.389 -119 L726.566 -199 Z " />
<glyph glyph-name="aacute" unicode="&#xe1;" horiz-adv-x="941" d="M820.436 875 L881 0 L715 0 L699.118 229 Q697.837 243 695.74 258.5 Q693.643 274 688.801 287.5 Q683.958 301 675.502 309.5 Q667.045 318 653.045 318 L414.045 318 Q401.045 318 386.923 317 Q372.8 316 359.809 312 Q346.818 308 336.335 300 Q325.853 292 321.257 279 L231 0 L60 0 L337.436 875 L820.436 875 Z M641.521 1006 L512.521 1006 L748.268 1346 L866.831 1261 L641.521 1006 Z M379.832 471 L684.832 471 L664.861 740 L466.861 740 L379.832 471 Z " />
<glyph glyph-name="abreve" unicode="&#x103;" horiz-adv-x="941" d="M820.436 875 L881 0 L715 0 L699.118 229 Q697.837 243 695.74 258.5 Q693.643 274 688.801 287.5 Q683.958 301 675.502 309.5 Q667.045 318 653.045 318 L414.045 318 Q401.045 318 386.923 317 Q372.8 316 359.809 312 Q346.818 308 336.335 300 Q325.853 292 321.257 279 L231 0 L60 0 L337.436 875 L820.436 875 Z M607.519 1120 Q634.519 1120 656.413 1139.5 Q678.307 1159 681.745 1187 L808.745 1187 Q803.834 1147 784.036 1112 Q764.239 1077 734.985 1050.5 Q705.731 1024 668.89 1009 Q632.048 994 592.048 994 Q552.048 994 518.89 1009 Q485.731 1024 462.485 1050.5 Q439.239 1077 428.536 1112 Q417.834 1147 422.745 1187 L549.745 1187 Q546.307 1159 563.413 1139.5 Q580.519 1120 607.519 1120 Z M379.832 471 L684.832 471 L664.861 740 L466.861 740 L379.832 471 Z " />
<glyph glyph-name="acircumflex" unicode="&#xe2;" horiz-adv-x="941" d="M820.436 875 L881 0 L715 0 L699.118 229 Q697.837 243 695.74 258.5 Q693.643 274 688.801 287.5 Q683.958 301 675.502 309.5 Q667.045 318 653.045 318 L414.045 318 Q401.045 318 386.923 317 Q372.8 316 359.809 312 Q346.818 308 336.335 300 Q325.853 292 321.257 279 L231 0 L60 0 L337.436 875 L820.436 875 Z M749.4 948 L639.748 1073 Q627.467 1087 610.265 1093.5 Q593.063 1100 575.098 1084 L422.4 948 L350.468 1030 L626.673 1276 L842.468 1030 L750.4 948 L749.4 948 Z M379.832 471 L684.832 471 L664.861 740 L466.861 740 L379.832 471 Z " />
<glyph glyph-name="adieresis" unicode="&#xe4;" horiz-adv-x="941" d="M820.436 875 L881 0 L715 0 L699.118 229 Q697.837 243 695.74 258.5 Q693.643 274 688.801 287.5 Q683.958 301 675.502 309.5 Q667.045 318 653.045 318 L414.045 318 Q401.045 318 386.923 317 Q372.8 316 359.809 312 Q346.818 308 336.335 300 Q325.853 292 321.257 279 L231 0 L60 0 L337.436 875 L820.436 875 Z M533.712 1089 Q529.169 1052 499.916 1025.5 Q470.662 999 432.662 999 Q395.662 999 372.416 1025.5 Q349.169 1052 353.712 1089 Q358.378 1127 388.071 1153 Q417.763 1179 454.763 1179 Q492.763 1179 515.571 1153 Q538.378 1127 533.712 1089 Z M853.712 1089 Q849.169 1052 819.916 1025.5 Q790.662 999 752.662 999 Q715.662 999 692.416 1025.5 Q669.169 1052 673.712 1089 Q678.378 1127 708.071 1153 Q737.763 1179 774.763 1179 Q812.763 1179 835.571 1153 Q858.378 1127 853.712 1089 Z M379.832 471 L684.832 471 L664.861 740 L466.861 740 L379.832 471 Z " />
<glyph glyph-name="agrave" unicode="&#xe0;" horiz-adv-x="941" d="M820.436 875 L881 0 L715 0 L699.118 229 Q697.837 243 695.74 258.5 Q693.643 274 688.801 287.5 Q683.958 301 675.502 309.5 Q667.045 318 653.045 318 L414.045 318 Q401.045 318 386.923 317 Q372.8 316 359.809 312 Q346.818 308 336.335 300 Q325.853 292 321.257 279 L231 0 L60 0 L337.436 875 L820.436 875 Z M364.691 1268 L520.355 1363 L682.521 1006 L532.521 1006 L364.691 1268 Z M379.832 471 L684.832 471 L664.861 740 L466.861 740 L379.832 471 Z " />
<glyph glyph-name="amacron" unicode="&#x101;" horiz-adv-x="941" d="M820.436 875 L881 0 L715 0 L699.118 229 Q697.837 243 695.74 258.5 Q693.643 274 688.801 287.5 Q683.958 301 675.502 309.5 Q667.045 318 653.045 318 L414.045 318 Q401.045 318 386.923 317 Q372.8 316 359.809 312 Q346.818 308 336.335 300 Q325.853 292 321.257 279 L231 0 L60 0 L337.436 875 L820.436 875 Z M375.714 1032 L392.658 1170 L835.658 1170 L818.714 1032 L375.714 1032 Z M379.832 471 L684.832 471 L664.861 740 L466.861 740 L379.832 471 Z " />
<glyph glyph-name="aogonek" unicode="&#x105;" horiz-adv-x="941" d="M829.566 -199 Q791.514 -232 751.865 -249.5 Q712.217 -267 674.217 -267 Q635.217 -267 602.058 -252 Q568.9 -237 546.092 -211 Q523.285 -185 512.582 -150 Q501.88 -115 506.791 -75 Q511.334 -38 528.325 -5.5 Q545.315 27 571.885 52 Q598.454 77 632.919 93 Q667.384 109 706.875 113 L695.134 278 Q694.221 295 682.133 306.5 Q670.045 318 653.045 318 L374.045 318 Q357.045 318 342.195 307 Q327.344 296 321.257 279 L231 0 L60 0 L337.436 875 L820.436 875 L881 0 L715 0 Q679 0 651.36 -21.5 Q623.72 -43 619.914 -74 Q616.108 -105 634.968 -126.5 Q653.828 -148 684.828 -148 Q699.828 -148 716.749 -140.5 Q733.67 -133 749.389 -119 L829.566 -199 Z M379.832 471 L684.832 471 L664.861 740 L466.861 740 L379.832 471 Z " />
<glyph glyph-name="aring" unicode="&#xe5;" horiz-adv-x="941" d="M820.436 875 L881 0 L715 0 L699.118 229 Q697.837 243 695.74 258.5 Q693.643 274 688.801 287.5 Q683.958 301 675.502 309.5 Q667.045 318 653.045 318 L414.045 318 Q401.045 318 386.923 317 Q372.8 316 359.809 312 Q346.818 308 336.335 300 Q325.853 292 321.257 279 L231 0 L60 0 L337.436 875 L820.436 875 Z M626.059 1271 Q657.059 1271 683.086 1259 Q709.112 1247 726.657 1227 Q744.201 1207 752.824 1179.5 Q761.448 1152 757.641 1121 Q753.835 1090 738.459 1062.5 Q723.082 1035 700.626 1015 Q678.171 995 649.197 983 Q620.224 971 589.224 971 Q558.224 971 532.197 983 Q506.171 995 488.626 1015 Q471.082 1035 462.459 1062.5 Q453.835 1090 457.641 1121 Q461.448 1152 476.824 1179.5 Q492.201 1207 514.657 1227 Q537.112 1247 566.086 1259 Q595.059 1271 626.059 1271 Z M379.832 471 L684.832 471 L664.861 740 L466.861 740 L379.832 471 Z M600.397 1062 Q624.397 1062 644.046 1079.5 Q663.695 1097 666.641 1121 Q669.588 1145 654.237 1162.5 Q638.886 1180 614.886 1180 Q590.886 1180 570.737 1162.5 Q550.588 1145 547.641 1121 Q544.695 1097 560.546 1079.5 Q576.397 1062 600.397 1062 Z " />
<glyph glyph-name="atilde" unicode="&#xe3;" horiz-adv-x="941" d="M820.436 875 L881 0 L715 0 L699.118 229 Q697.837 243 695.74 258.5 Q693.643 274 688.801 287.5 Q683.958 301 675.502 309.5 Q667.045 318 653.045 318 L414.045 318 Q401.045 318 386.923 317 Q372.8 316 359.809 312 Q346.818 308 336.335 300 Q325.853 292 321.257 279 L231 0 L60 0 L337.436 875 L820.436 875 Z M388.798 1163 Q430.587 1202 468.64 1206.5 Q506.692 1211 542.535 1197.5 Q578.377 1184 613.237 1162.5 Q648.097 1141 683.94 1127.5 Q719.782 1114 757.335 1118.5 Q794.887 1123 837.676 1162 L820.24 1020 Q777.452 981 739.961 977 Q702.469 973 666.566 986 Q630.662 999 595.863 1021 Q561.064 1043 525.16 1056 Q489.257 1069 451.766 1065 Q414.274 1061 371.486 1022 L388.798 1163 Z M379.832 471 L684.832 471 L664.861 740 L466.861 740 L379.832 471 Z " />
<glyph glyph-name="h" unicode="h" horiz-adv-x="982" d="M791.549 542 L832.436 875 L994.436 875 L887 0 L725 0 L766.378 337 Q767.729 348 760.773 356.5 Q753.816 365 742.816 365 L328.816 365 Q317.816 365 308.773 356.5 Q299.729 348 298.378 337 L257 0 L95 0 L202.436 875 L364.436 875 L323.549 542 Q322.199 531 329.155 522.5 Q336.111 514 347.111 514 L761.111 514 Q772.111 514 781.155 522.5 Q790.199 531 791.549 542 Z " />
<glyph glyph-name="hbar" unicode="&#x127;" horiz-adv-x="982" d="M111.635 616 L130.053 766 L189.053 766 L202.436 875 L364.436 875 L351.053 766 L819.053 766 L832.436 875 L994.436 875 L981.053 766 L1040.05 766 L1021.64 616 L962.635 616 L887 0 L725 0 L766.378 337 Q767.729 348 760.773 356.5 Q753.816 365 742.816 365 L328.816 365 Q317.816 365 308.773 356.5 Q299.729 348 298.378 337 L257 0 L95 0 L170.635 616 L111.635 616 Z M791.549 542 L800.635 616 L332.635 616 L323.549 542 Q322.199 531 329.155 522.5 Q336.111 514 347.111 514 L761.111 514 Q772.111 514 781.155 522.5 Q790.199 531 791.549 542 Z " />
<glyph glyph-name="hcircumflex" unicode="&#x125;" horiz-adv-x="982" d="M791.549 542 L832.436 875 L994.436 875 L887 0 L725 0 L766.378 337 Q767.729 348 760.773 356.5 Q753.816 365 742.816 365 L328.816 365 Q317.816 365 308.773 356.5 Q299.729 348 298.378 337 L257 0 L95 0 L202.436 875 L364.436 875 L323.549 542 Q322.199 531 329.155 522.5 Q336.111 514 347.111 514 L761.111 514 Q772.111 514 781.155 522.5 Q790.199 531 791.549 542 Z M770.4 948 L651.098 1084 Q641.449 1095 624.949 1095 Q608.449 1095 596.098 1084 L443.4 948 L371.468 1030 L647.673 1276 L863.468 1030 L771.4 948 L770.4 948 Z " />
<glyph glyph-name="i" unicode="i" horiz-adv-x="422" d="M130 0 L237.436 875 L399.436 875 L292 0 L130 0 Z " />
<glyph glyph-name="iacute" unicode="&#xed;" horiz-adv-x="422" d="M130 0 L237.436 875 L399.436 875 L292 0 L130 0 Z M374.521 1006 L245.521 1006 L481.268 1346 L599.831 1261 L374.521 1006 Z " />
<glyph glyph-name="ibreve" unicode="&#x12d;" horiz-adv-x="422" d="M130 0 L237.436 875 L399.436 875 L292 0 L130 0 Z M348.519 1120 Q375.519 1120 397.413 1139.5 Q419.307 1159 422.745 1187 L549.745 1187 Q544.834 1147 525.036 1112 Q505.239 1077 475.985 1050.5 Q446.731 1024 409.89 1009 Q373.048 994 333.048 994 Q293.048 994 259.89 1009 Q226.731 1024 203.485 1050.5 Q180.239 1077 169.536 1112 Q158.834 1147 163.745 1187 L290.745 1187 Q287.307 1159 304.413 1139.5 Q321.519 1120 348.519 1120 Z " />
<glyph glyph-name="icircumflex" unicode="&#xee;" horiz-adv-x="422" d="M130 0 L237.436 875 L399.436 875 L292 0 L130 0 Z M490.4 948 L371.098 1084 Q361.449 1095 344.949 1095 Q328.449 1095 316.098 1084 L163.4 948 L91.4681 1030 L367.673 1276 L583.468 1030 L491.4 948 L490.4 948 Z " />
<glyph glyph-name="idieresis" unicode="&#xef;" horiz-adv-x="422" d="M130 0 L237.436 875 L399.436 875 L292 0 L130 0 Z M274.712 1089 Q270.169 1052 240.416 1025.5 Q210.662 999 173.662 999 Q135.662 999 112.916 1025.5 Q90.1694 1052 94.7124 1089 Q99.3782 1127 128.571 1153 Q157.763 1179 195.763 1179 Q232.763 1179 256.071 1153 Q279.378 1127 274.712 1089 Z M594.712 1089 Q590.169 1052 560.416 1025.5 Q530.662 999 492.662 999 Q455.662 999 432.916 1025.5 Q410.169 1052 414.712 1089 Q419.378 1127 448.571 1153 Q477.763 1179 514.763 1179 Q552.763 1179 576.071 1153 Q599.378 1127 594.712 1089 Z " />
<glyph glyph-name="igrave" unicode="&#xec;" horiz-adv-x="422" d="M130 0 L237.436 875 L399.436 875 L292 0 L130 0 Z M431.029 1059 Q426.486 1022 396.732 995.5 Q366.978 969 328.978 969 Q291.978 969 269.232 995.5 Q246.486 1022 251.029 1059 Q255.695 1097 284.887 1123 Q314.079 1149 351.079 1149 Q389.079 1149 412.387 1123 Q435.695 1097 431.029 1059 Z " />
<glyph glyph-name="imacron" unicode="&#x12b;" horiz-adv-x="422" d="M130 0 L237.436 875 L399.436 875 L292 0 L130 0 Z M119.691 1268 L275.355 1363 L437.521 1006 L287.521 1006 L119.691 1268 Z " />
<glyph glyph-name="iogonek" unicode="&#x12f;" horiz-adv-x="422" d="M130 0 L237.436 875 L399.436 875 L292 0 L130 0 Z M116.714 1032 L133.658 1170 L576.658 1170 L559.714 1032 L116.714 1032 Z " />
<glyph glyph-name="itilde" unicode="&#x129;" horiz-adv-x="422" d="M283.566 -199 Q245.514 -232 205.865 -249.5 Q166.217 -267 128.217 -267 Q89.2165 -267 56.0583 -252 Q22.9001 -237 0.0924576 -211 Q-22.7151 -185 -33.4177 -150 Q-44.1202 -115 -39.2088 -75 Q-34.9114 -40 -19.1051 -9 Q-3.29874 22 20.7095 46.5 Q44.7177 71 76.1823 87 Q107.647 103 143.384 109 L237.436 875 L399.436 875 L292 0 L165 0 Q129.877 -1 103.737 -22.5 Q77.5975 -44 73.9139 -74 Q70.1076 -105 88.9678 -126.5 Q107.828 -148 138.828 -148 Q153.828 -148 170.749 -140.5 Q187.67 -133 203.389 -119 L283.566 -199 Z " />
<glyph glyph-name="ij" unicode="&#x133;" horiz-adv-x="422" d="M130 0 L237.436 875 L399.436 875 L292 0 L130 0 Z M129.798 1163 Q171.587 1202 209.64 1206.5 Q247.692 1211 283.535 1197.5 Q319.377 1184 354.237 1162.5 Q389.097 1141 424.94 1127.5 Q460.782 1114 498.835 1118.5 Q536.887 1123 578.676 1162 L561.24 1020 Q518.452 981 480.961 977 Q443.469 973 407.566 986 Q371.662 999 336.863 1021 Q302.064 1043 266.16 1056 Q230.257 1069 192.266 1065 Q154.274 1061 112.486 1022 L129.798 1163 Z " />
<glyph glyph-name="j" unicode="j" horiz-adv-x="728" d="M514.589 355 L578.314 874 L745.314 874 L681.343 353 Q672.38 280 636.96 215.5 Q601.54 151 547.647 103 Q493.753 55 425.877 27.5 Q358 0 285 0 Q211 0 150.377 27.5 Q89.7532 55 47.6468 103 L175.644 217 Q198.452 191 230.478 179 Q262.505 167 301.505 167 Q340.505 167 376.847 182 Q413.189 197 442.32 222.5 Q471.451 248 490.625 282 Q509.8 316 514.589 355 Z " />
<glyph glyph-name="jcircumflex" unicode="&#x135;" horiz-adv-x="728" d="M514.589 355 L578.314 874 L745.314 874 L681.343 353 Q672.38 280 636.96 215.5 Q601.54 151 547.647 103 Q493.753 55 425.877 27.5 Q358 0 285 0 Q211 0 150.377 27.5 Q89.7532 55 47.6468 103 L175.644 217 Q198.452 191 230.478 179 Q262.505 167 301.505 167 Q340.505 167 376.847 182 Q413.189 197 442.32 222.5 Q471.451 248 490.625 282 Q509.8 316 514.589 355 Z M836.4 948 L726.748 1073 Q714.467 1087 697.265 1093.5 Q680.063 1100 662.098 1084 L509.4 948 L437.468 1030 L713.673 1276 L929.468 1030 L837.4 948 L836.4 948 Z " />
<glyph glyph-name="k" unicode="k" horiz-adv-x="947" d="M1014.44 875 L574.78 438 L907 0 L706 0 L438.097 351 Q428.816 365 410.816 365 L328.816 365 Q317.816 365 308.773 356.5 Q299.729 348 298.378 337 L257 0 L95 0 L202.436 875 L364.436 875 L323.549 542 Q322.199 531 329.155 522.5 Q336.111 514 347.111 514 L432.111 514 Q450.111 514 463.83 528 L812.436 875 L1014.44 875 Z " />
<glyph glyph-name="kcommaaccent" unicode="&#x137;" horiz-adv-x="947" d="M1014.44 875 L574.78 438 L907 0 L706 0 L438.097 351 Q428.816 365 410.816 365 L328.816 365 Q317.816 365 308.773 356.5 Q299.729 348 298.378 337 L257 0 L95 0 L202.436 875 L364.436 875 L323.549 542 Q322.199 531 329.155 522.5 Q336.111 514 347.111 514 L432.111 514 Q450.111 514 463.83 528 L812.436 875 L1014.44 875 Z M384.565 -142 L527.565 -142 L471.062 -423 L350.062 -423 L384.565 -142 Z " />
<glyph glyph-name="l" unicode="l" horiz-adv-x="771" d="M369.436 875 L285.575 192 Q283.119 172 292.707 160.5 Q302.295 149 322.295 149 L754.295 149 L736 0 L95 0 L202.436 875 L369.436 875 Z " />
<glyph glyph-name="lacute" unicode="&#x13a;" horiz-adv-x="771" d="M369.436 875 L285.575 192 Q283.119 172 292.707 160.5 Q302.295 149 322.295 149 L754.295 149 L736 0 L95 0 L202.436 875 L369.436 875 Z M399.521 1006 L270.521 1006 L506.268 1346 L624.831 1261 L399.521 1006 Z " />
<glyph glyph-name="lcaron" unicode="&#x13e;" horiz-adv-x="771" d="M369.436 875 L285.575 192 Q283.119 172 292.707 160.5 Q302.295 149 322.295 149 L754.295 149 L736 0 L95 0 L202.436 875 L369.436 875 Z M652.509 786 L795.509 786 L739.006 505 L618.006 505 L652.509 786 Z " />
<glyph glyph-name="lcommaaccent" unicode="&#x13c;" horiz-adv-x="771" d="M369.436 875 L285.575 192 Q283.119 172 292.707 160.5 Q302.295 149 322.295 149 L754.295 149 L736 0 L95 0 L202.436 875 L369.436 875 Z M260.565 -142 L403.565 -142 L347.062 -423 L226.062 -423 L260.565 -142 Z " />
<glyph glyph-name="ldot" unicode="&#x140;" horiz-adv-x="771" d="M369.436 875 L285.575 192 Q283.119 172 292.707 160.5 Q302.295 149 322.295 149 L754.295 149 L736 0 L95 0 L202.436 875 L369.436 875 Z M651.445 476 Q646.902 439 617.649 412.5 Q588.395 386 550.395 386 Q513.395 386 490.149 412.5 Q466.902 439 471.445 476 Q476.111 514 505.804 540 Q535.496 566 572.496 566 Q610.496 566 633.304 540 Q656.111 514 651.445 476 Z " />
<glyph glyph-name="lslash" unicode="&#x142;" horiz-adv-x="771" d="M74.6936 364 L93.1113 514 L158.111 514 L202.436 875 L369.436 875 L325.111 514 L554.111 514 L535.694 364 L306.694 364 L285.575 192 Q283.119 172 292.707 160.5 Q302.295 149 322.295 149 L754.295 149 L736 0 L95 0 L139.694 364 L74.6936 364 Z " />
<glyph glyph-name="n" unicode="n" horiz-adv-x="1029" d="M797.696 250 L874.436 875 L1041.44 875 L934 0 L774 0 L340.6 632 L263 0 L95 0 L202.436 875 L363.436 875 L797.696 250 Z " />
<glyph glyph-name="nacute" unicode="&#x144;" horiz-adv-x="1029" d="M797.696 250 L874.436 875 L1041.44 875 L934 0 L774 0 L340.6 632 L263 0 L95 0 L202.436 875 L363.436 875 L797.696 250 Z M685.521 1006 L556.521 1006 L792.268 1346 L910.831 1261 L685.521 1006 Z " />
<glyph glyph-name="ntilde" unicode="&#xf1;" horiz-adv-x="1029" d="M797.696 250 L874.436 875 L1041.44 875 L934 0 L774 0 L340.6 632 L263 0 L95 0 L202.436 875 L363.436 875 L797.696 250 Z M432.798 1163 Q474.587 1202 512.64 1206.5 Q550.692 1211 586.535 1197.5 Q622.377 1184 657.237 1162.5 Q692.097 1141 727.94 1127.5 Q763.782 1114 801.835 1118.5 Q839.887 1123 881.676 1162 L864.24 1020 Q821.452 981 783.961 977 Q746.469 973 710.566 986 Q674.662 999 639.863 1021 Q605.064 1043 569.16 1056 Q533.257 1069 495.266 1065 Q457.274 1061 415.486 1022 L432.798 1163 Z " />
<glyph glyph-name="ncommaaccent" unicode="&#x146;" horiz-adv-x="1029" d="M797.696 250 L874.436 875 L1041.44 875 L934 0 L774 0 L340.6 632 L263 0 L95 0 L202.436 875 L363.436 875 L797.696 250 Z M425.565 -142 L568.565 -142 L512.062 -423 L391.062 -423 L425.565 -142 Z " />
<glyph glyph-name="ncaron" unicode="&#x148;" horiz-adv-x="1029" d="M797.696 250 L874.436 875 L1041.44 875 L934 0 L774 0 L340.6 632 L263 0 L95 0 L202.436 875 L363.436 875 L797.696 250 Z M834.673 1276 L906.605 1194 L630.4 948 L414.605 1194 L506.673 1276 L625.974 1140 Q635.624 1129 652.124 1129 Q668.624 1129 680.974 1140 L757.324 1208 Q771.92 1221 785.393 1233 Q798.867 1245 810.033 1254.5 Q821.2 1264 827.936 1270 Q834.673 1276 834.673 1276 Z " />
<glyph glyph-name="napostrophe" unicode="&#x149;" horiz-adv-x="1029" d="M797.696 250 L874.436 875 L1041.44 875 L934 0 L774 0 L340.6 632 L263 0 L95 0 L202.436 875 L363.436 875 L797.696 250 Z M77.5646 -142 L220.565 -142 L164.062 -423 L43.0621 -423 L77.5646 -142 Z " />
<glyph glyph-name="o" unicode="o" horiz-adv-x="994" d="M517.382 166 Q573.382 166 625.461 187 Q677.539 208 718.582 245 Q759.625 282 787.203 331.5 Q814.781 381 821.657 437 Q828.533 493 813.049 542 Q797.566 591 765.609 628 Q733.652 665 686.73 686 Q639.809 707 583.809 707 Q527.809 707 476.23 686 Q424.652 665 383.109 628 Q341.566 591 314.549 542 Q287.533 493 280.657 437 Q273.781 381 288.703 331.5 Q303.625 282 336.082 245 Q368.539 208 414.961 187 Q461.382 166 517.382 166 Z M604.314 874 Q695.314 874 770.578 839.5 Q845.842 805 897.597 746 Q949.353 687 974.03 607 Q998.707 527 987.657 437 Q976.483 346 932.222 266.5 Q887.961 187 821.655 127.5 Q755.349 68 671.675 34 Q588 0 497 0 Q407 0 331.175 34 Q255.349 68 203.655 127.5 Q151.961 187 127.222 266.5 Q102.483 346 113.657 437 Q124.707 527 169.03 607 Q213.353 687 279.597 746 Q345.842 805 430.078 839.5 Q514.314 874 604.314 874 Z " />
<glyph glyph-name="oacute" unicode="&#xf3;" horiz-adv-x="994" d="M517.382 166 Q573.382 166 625.461 187 Q677.539 208 718.582 245 Q759.625 282 787.203 331.5 Q814.781 381 821.657 437 Q828.533 493 813.049 542 Q797.566 591 765.609 628 Q733.652 665 686.73 686 Q639.809 707 583.809 707 Q527.809 707 476.23 686 Q424.652 665 383.109 628 Q341.566 591 314.549 542 Q287.533 493 280.657 437 Q273.781 381 288.703 331.5 Q303.625 282 336.082 245 Q368.539 208 414.961 187 Q461.382 166 517.382 166 Z M604.314 874 Q695.314 874 770.578 839.5 Q845.842 805 897.597 746 Q949.353 687 974.03 607 Q998.707 527 987.657 437 Q976.483 346 932.222 266.5 Q887.961 187 821.655 127.5 Q755.349 68 671.675 34 Q588 0 497 0 Q407 0 331.175 34 Q255.349 68 203.655 127.5 Q151.961 187 127.222 266.5 Q102.483 346 113.657 437 Q124.707 527 169.03 607 Q213.353 687 279.597 746 Q345.842 805 430.078 839.5 Q514.314 874 604.314 874 Z M667.521 1006 L538.521 1006 L775.268 1346 L892.831 1261 L667.521 1006 Z " />
<glyph glyph-name="obreve" unicode="&#x14f;" horiz-adv-x="994" d="M604.314 874 Q695.314 874 770.578 839.5 Q845.842 805 897.597 746 Q949.353 687 974.03 607 Q998.707 527 987.657 437 Q976.483 346 932.222 266.5 Q887.961 187 821.655 127.5 Q755.349 68 671.675 34 Q588 0 497 0 Q407 0 331.175 34 Q255.349 68 203.655 127.5 Q151.961 187 127.222 266.5 Q102.483 346 113.657 437 Q124.707 527 169.03 607 Q213.353 687 279.597 746 Q345.842 805 430.078 839.5 Q514.314 874 604.314 874 Z M517.382 166 Q573.382 166 625.461 187 Q677.539 208 718.582 245 Q759.625 282 787.203 331.5 Q814.781 381 821.657 437 Q828.533 493 813.049 542 Q797.566 591 765.609 628 Q733.652 665 686.73 686 Q639.809 707 583.809 707 Q527.809 707 476.23 686 Q424.652 665 383.109 628 Q341.566 591 314.549 542 Q287.533 493 280.657 437 Q273.781 381 288.703 331.5 Q303.625 282 336.082 245 Q368.539 208 414.961 187 Q461.382 166 517.382 166 Z M708.745 1187 L835.745 1187 Q830.834 1147 811.036 1112 Q791.239 1077 761.985 1050.5 Q732.731 1024 695.89 1009 Q659.048 994 619.048 994 Q579.048 994 545.89 1009 Q512.731 1024 489.485 1050.5 Q466.239 1077 455.536 1112 Q444.834 1147 449.745 1187 L576.745 1187 Q573.307 1159 590.413 1139.5 Q607.519 1120 635.519 1120 Q662.641 1121 683.974 1140 Q705.307 1159 708.745 1187 Z " />
<glyph glyph-name="ocircumflex" unicode="&#xf4;" horiz-adv-x="994" d="M604.314 874 Q695.314 874 770.578 839.5 Q845.842 805 897.597 746 Q949.353 687 974.03 607 Q998.707 527 987.657 437 Q976.483 346 932.222 266.5 Q887.961 187 821.655 127.5 Q755.349 68 671.675 34 Q588 0 497 0 Q407 0 331.175 34 Q255.349 68 203.655 127.5 Q151.961 187 127.222 266.5 Q102.483 346 113.657 437 Q124.707 527 169.03 607 Q213.353 687 279.597 746 Q345.842 805 430.078 839.5 Q514.314 874 604.314 874 Z M517.382 166 Q573.382 166 625.461 187 Q677.539 208 718.582 245 Q759.625 282 787.203 331.5 Q814.781 381 821.657 437 Q828.533 493 813.049 542 Q797.566 591 765.609 628 Q733.652 665 686.73 686 Q639.809 707 583.809 707 Q527.809 707 476.23 686 Q424.652 665 383.109 628 Q341.566 591 314.549 542 Q287.533 493 280.657 437 Q273.781 381 288.703 331.5 Q303.625 282 336.082 245 Q368.539 208 414.961 187 Q461.382 166 517.382 166 Z M776.4 948 L657.098 1084 Q647.449 1095 630.949 1095 Q614.449 1095 602.098 1084 L449.4 948 L377.468 1030 L653.673 1276 L869.468 1030 L777.4 948 L776.4 948 Z " />
<glyph glyph-name="odieresis" unicode="&#xf6;" horiz-adv-x="994" d="M517.382 166 Q573.382 166 625.461 187 Q677.539 208 718.582 245 Q759.625 282 787.203 331.5 Q814.781 381 821.657 437 Q828.533 493 813.049 542 Q797.566 591 765.609 628 Q733.652 665 686.73 686 Q639.809 707 583.809 707 Q527.809 707 476.23 686 Q424.652 665 383.109 628 Q341.566 591 314.549 542 Q287.533 493 280.657 437 Q273.781 381 288.703 331.5 Q303.625 282 336.082 245 Q368.539 208 414.961 187 Q461.382 166 517.382 166 Z M604.314 874 Q695.314 874 770.578 839.5 Q845.842 805 897.597 746 Q949.353 687 974.03 607 Q998.707 527 987.657 437 Q976.483 346 932.222 266.5 Q887.961 187 821.655 127.5 Q755.349 68 671.675 34 Q588 0 497 0 Q407 0 331.175 34 Q255.349 68 203.655 127.5 Q151.961 187 127.222 266.5 Q102.483 346 113.657 437 Q124.707 527 169.03 607 Q213.353 687 279.597 746 Q345.842 805 430.078 839.5 Q514.314 874 604.314 874 Z M880.712 1089 Q876.169 1052 846.416 1025.5 Q816.662 999 778.662 999 Q741.662 999 718.916 1025.5 Q696.169 1052 700.712 1089 Q705.378 1127 734.571 1153 Q763.763 1179 800.763 1179 Q838.763 1179 862.071 1153 Q885.378 1127 880.712 1089 Z M560.712 1089 Q556.169 1052 526.416 1025.5 Q496.662 999 459.662 999 Q421.662 999 398.916 1025.5 Q376.169 1052 380.712 1089 Q385.378 1127 414.571 1153 Q443.763 1179 481.763 1179 Q518.763 1179 542.071 1153 Q565.378 1127 560.712 1089 Z " />
<glyph glyph-name="ograve" unicode="&#xf2;" horiz-adv-x="994" d="M517.382 166 Q573.382 166 625.461 187 Q677.539 208 718.582 245 Q759.625 282 787.203 331.5 Q814.781 381 821.657 437 Q828.533 493 813.049 542 Q797.566 591 765.609 628 Q733.652 665 686.73 686 Q639.809 707 583.809 707 Q527.809 707 476.23 686 Q424.652 665 383.109 628 Q341.566 591 314.549 542 Q287.533 493 280.657 437 Q273.781 381 288.703 331.5 Q303.625 282 336.082 245 Q368.539 208 414.961 187 Q461.382 166 517.382 166 Z M604.314 874 Q695.314 874 770.578 839.5 Q845.842 805 897.597 746 Q949.353 687 974.03 607 Q998.707 527 987.657 437 Q976.483 346 932.222 266.5 Q887.961 187 821.655 127.5 Q755.349 68 671.675 34 Q588 0 497 0 Q407 0 331.175 34 Q255.349 68 203.655 127.5 Q151.961 187 127.222 266.5 Q102.483 346 113.657 437 Q124.707 527 169.03 607 Q213.353 687 279.597 746 Q345.842 805 430.078 839.5 Q514.314 874 604.314 874 Z M397.691 1268 L553.355 1363 L715.521 1006 L565.521 1006 L397.691 1268 Z " />
<glyph glyph-name="ohungarumlaut" unicode="&#x151;" horiz-adv-x="994" d="M517.382 166 Q573.382 166 625.461 187 Q677.539 208 718.582 245 Q759.625 282 787.203 331.5 Q814.781 381 821.657 437 Q828.533 493 813.049 542 Q797.566 591 765.609 628 Q733.652 665 686.73 686 Q639.809 707 583.809 707 Q527.809 707 476.23 686 Q424.652 665 383.109 628 Q341.566 591 314.549 542 Q287.533 493 280.657 437 Q273.781 381 288.703 331.5 Q303.625 282 336.082 245 Q368.539 208 414.961 187 Q461.382 166 517.382 166 Z M604.314 874 Q695.314 874 770.578 839.5 Q845.842 805 897.597 746 Q949.353 687 974.03 607 Q998.707 527 987.657 437 Q976.483 346 932.222 266.5 Q887.961 187 821.655 127.5 Q755.349 68 671.675 34 Q588 0 497 0 Q407 0 331.175 34 Q255.349 68 203.655 127.5 Q151.961 187 127.222 266.5 Q102.483 346 113.657 437 Q124.707 527 169.03 607 Q213.353 687 279.597 746 Q345.842 805 430.078 839.5 Q514.314 874 604.314 874 Z M530.521 1006 L401.521 1006 L637.268 1346 L755.831 1261 L530.521 1006 Z M805.521 1006 L676.521 1006 L913.268 1346 L1030.83 1261 L805.521 1006 Z " />
<glyph glyph-name="omacron" unicode="&#x14d;" horiz-adv-x="994" d="M604.314 874 Q695.314 874 770.578 839.5 Q845.842 805 897.597 746 Q949.353 687 974.03 607 Q998.707 527 987.657 437 Q976.483 346 932.222 266.5 Q887.961 187 821.655 127.5 Q755.349 68 671.675 34 Q588 0 497 0 Q407 0 331.175 34 Q255.349 68 203.655 127.5 Q151.961 187 127.222 266.5 Q102.483 346 113.657 437 Q124.707 527 169.03 607 Q213.353 687 279.597 746 Q345.842 805 430.078 839.5 Q514.314 874 604.314 874 Z M517.382 166 Q573.382 166 625.461 187 Q677.539 208 718.582 245 Q759.625 282 787.203 331.5 Q814.781 381 821.657 437 Q828.533 493 813.049 542 Q797.566 591 765.609 628 Q733.652 665 686.73 686 Q639.809 707 583.809 707 Q527.809 707 476.23 686 Q424.652 665 383.109 628 Q341.566 591 314.549 542 Q287.533 493 280.657 437 Q273.781 381 288.703 331.5 Q303.625 282 336.082 245 Q368.539 208 414.961 187 Q461.382 166 517.382 166 Z M401.714 1032 L418.658 1170 L861.658 1170 L844.714 1032 L401.714 1032 Z " />
<glyph glyph-name="oslash" unicode="&#xf8;" horiz-adv-x="994" d="M220.439 -29 L272.349 68 Q229.91 97 197.26 136.5 Q164.61 176 143.381 223 Q122.152 270 114.282 324 Q106.413 378 113.657 437 Q124.707 527 169.03 607 Q213.353 687 279.597 746 Q345.842 805 430.078 839.5 Q514.314 874 604.314 874 Q652.314 874 697.84 862 L756.347 972 L871.067 929 L811.315 817 Q857.877 789 893.966 749 Q930.054 709 953.538 660 Q977.021 611 986.084 554.5 Q995.147 498 987.657 437 Q976.483 346 932.222 266.5 Q887.961 187 821.655 127.5 Q755.349 68 671.675 34 Q588 0 497 0 Q466 0 437.491 4 Q408.982 8 382.965 16 L335.16 -72 L220.439 -29 Z M517.382 166 Q573.382 166 625.461 187 Q677.539 208 718.582 245 Q759.625 282 787.203 331.5 Q814.781 381 821.657 437 Q830.375 508 803.996 566 Q777.618 624 725.915 659 L467.365 174 Q492.382 166 517.382 166 Z M280.657 437 Q272.799 373 294.168 319 Q315.538 265 358.24 230 L609.949 700 Q570.318 703 533.458 696 Q485.599 689 442.336 666.5 Q399.073 644 365.337 609.5 Q331.601 575 309.137 530.5 Q286.673 486 280.657 437 Z " />
<glyph glyph-name="oslashacute" unicode="&#x1ff;" horiz-adv-x="994" d="M220.439 -29 L272.349 68 Q229.91 97 197.26 136.5 Q164.61 176 143.381 223 Q122.152 270 114.282 324 Q106.413 378 113.657 437 Q124.707 527 169.03 607 Q213.353 687 279.597 746 Q345.842 805 430.078 839.5 Q514.314 874 604.314 874 Q652.314 874 697.84 862 L756.347 972 L871.067 929 L811.315 817 Q857.877 789 893.966 749 Q930.054 709 953.538 660 Q977.021 611 986.084 554.5 Q995.147 498 987.657 437 Q976.483 346 932.222 266.5 Q887.961 187 821.655 127.5 Q755.349 68 671.675 34 Q588 0 497 0 Q466 0 437.491 4 Q408.982 8 382.965 16 L335.16 -72 L220.439 -29 Z M587.521 1006 L458.521 1006 L695.268 1346 L812.831 1261 L587.521 1006 Z M517.382 166 Q573.382 166 625.461 187 Q677.539 208 718.582 245 Q759.625 282 787.203 331.5 Q814.781 381 821.657 437 Q830.375 508 803.996 566 Q777.618 624 725.915 659 L467.365 174 Q492.382 166 517.382 166 Z M280.657 437 Q272.799 373 294.168 319 Q315.538 265 358.24 230 L609.949 700 Q570.318 703 533.458 696 Q485.599 689 442.336 666.5 Q399.073 644 365.337 609.5 Q331.601 575 309.137 530.5 Q286.673 486 280.657 437 Z " />
<glyph glyph-name="otilde" unicode="&#xf5;" horiz-adv-x="994" d="M604.314 874 Q695.314 874 770.578 839.5 Q845.842 805 897.597 746 Q949.353 687 974.03 607 Q998.707 527 987.657 437 Q976.483 346 932.222 266.5 Q887.961 187 821.655 127.5 Q755.349 68 671.675 34 Q588 0 497 0 Q407 0 331.175 34 Q255.349 68 203.655 127.5 Q151.961 187 127.222 266.5 Q102.483 346 113.657 437 Q124.707 527 169.03 607 Q213.353 687 279.597 746 Q345.842 805 430.078 839.5 Q514.314 874 604.314 874 Z M517.382 166 Q573.382 166 625.461 187 Q677.539 208 718.582 245 Q759.625 282 787.203 331.5 Q814.781 381 821.657 437 Q828.533 493 813.049 542 Q797.566 591 765.609 628 Q733.652 665 686.73 686 Q639.809 707 583.809 707 Q527.809 707 476.23 686 Q424.652 665 383.109 628 Q341.566 591 314.549 542 Q287.533 493 280.657 437 Q273.781 381 288.703 331.5 Q303.625 282 336.082 245 Q368.539 208 414.961 187 Q461.382 166 517.382 166 Z M414.798 1163 Q456.587 1202 494.64 1206.5 Q532.692 1211 568.535 1197.5 Q604.377 1184 639.237 1162.5 Q674.097 1141 709.94 1127.5 Q745.782 1114 783.335 1118.5 Q820.887 1123 863.676 1162 L846.24 1020 Q803.452 981 765.961 977 Q728.469 973 692.566 986 Q656.662 999 621.863 1021 Q587.064 1043 551.16 1056 Q515.257 1069 477.266 1065 Q439.274 1061 397.486 1022 L414.798 1163 Z " />
<glyph glyph-name="oe" unicode="&#x153;" horiz-adv-x="1266" d="M1308.31 874 L1289.9 724 L774.896 724 Q763.896 724 754.852 715.5 Q745.809 707 744.458 696 L725.549 542 Q724.076 530 731.094 522 Q738.111 514 749.111 514 L1264.11 514 L1245.69 364 L730.694 364 Q719.694 364 710.711 356 Q701.729 348 700.378 337 L680.61 176 Q679.259 165 686.277 157 Q693.295 149 704.295 149 L1219.29 149 L1201 0 L497 0 Q407 0 331.175 34 Q255.349 68 203.655 127.5 Q151.961 187 127.222 266.5 Q102.483 346 113.657 437 Q124.707 527 169.03 607 Q213.353 687 279.659 746.5 Q345.964 806 430.2 840.5 Q514.436 875 604.436 875 L1308.31 874 Z M586.142 726 Q526.142 726 470.818 703 Q415.494 680 371.205 641 Q326.916 602 297.97 549.5 Q269.024 497 261.657 437 Q254.29 377 270.282 324 Q286.275 271 320.925 231.5 Q355.575 192 405.312 169.5 Q455.049 147 515.049 147 L586.142 726 Z " />
<glyph glyph-name="R" unicode="R" horiz-adv-x="934" d="M960.39 614 Q951.795 544 909.673 486 Q867.552 428 803.745 397 Q792.132 392 783.64 388 Q775.149 384 766.413 378 Q757.799 373 752.071 363 Q746.343 353 749.501 338 Q751.519 330 760.388 304.5 Q769.257 279 782.082 245 Q794.908 211 809.18 172.5 Q823.453 134 836.656 99 Q849.858 64 860.043 37 Q870.228 10 874 0 L705 0 L565.816 365 L345.816 365 Q328.816 365 315.904 353.5 Q302.992 342 300.905 325 L261 0 L95 0 L202.436 875 L734.436 875 Q788.436 875 832.919 854.5 Q877.402 834 908.043 798.5 Q938.685 763 952.852 715.5 Q967.02 668 960.39 614 Z M666.638 502 Q690.638 502 713.304 511.5 Q735.971 521 753.874 536.5 Q771.777 552 783.917 573.5 Q796.057 595 799.004 619 Q802.073 644 795.775 666 Q789.476 688 774.94 704 Q760.405 720 739.51 729 Q718.615 738 692.615 738 L391.615 738 Q374.615 738 361.764 727 Q348.914 716 346.826 699 L327.426 541 Q325.339 524 335.488 513 Q345.638 502 362.638 502 L666.638 502 Z " />
<glyph glyph-name="Racute" unicode="&#x154;" horiz-adv-x="934" d="M960.39 614 Q951.795 544 909.673 486 Q867.552 428 803.745 397 Q792.132 392 783.64 388 Q775.149 384 766.413 378 Q757.799 373 752.071 363 Q746.343 353 749.501 338 Q751.519 330 760.388 304.5 Q769.257 279 782.082 245 Q794.908 211 809.18 172.5 Q823.453 134 836.656 99 Q849.858 64 860.043 37 Q870.228 10 874 0 L705 0 L565.816 365 L345.816 365 Q328.816 365 315.904 353.5 Q302.992 342 300.905 325 L261 0 L95 0 L202.436 875 L734.436 875 Q788.436 875 832.919 854.5 Q877.402 834 908.043 798.5 Q938.685 763 952.852 715.5 Q967.02 668 960.39 614 Z M666.638 502 Q690.638 502 713.304 511.5 Q735.971 521 753.874 536.5 Q771.777 552 783.917 573.5 Q796.057 595 799.004 619 Q802.073 644 795.775 666 Q789.476 688 774.94 704 Q760.405 720 739.51 729 Q718.615 738 692.615 738 L391.615 738 Q374.615 738 361.764 727 Q348.914 716 346.826 699 L327.426 541 Q325.339 524 335.488 513 Q345.638 502 362.638 502 L666.638 502 Z M557.521 1006 L428.521 1006 L665.268 1346 L782.831 1261 L557.521 1006 Z " />
<glyph glyph-name="Rcaron" unicode="&#x158;" horiz-adv-x="934" d="M960.39 614 Q951.795 544 909.673 486 Q867.552 428 803.745 397 Q792.132 392 783.64 388 Q775.149 384 766.413 378 Q757.799 373 752.071 363 Q746.343 353 749.501 338 Q758.309 312 774.283 267 Q790.258 222 809.18 172.5 Q828.103 123 845.393 76.5 Q862.684 30 874 0 L705 0 L565.816 365 L345.816 365 Q328.816 365 315.904 353.5 Q302.992 342 300.905 325 L261 0 L95 0 L202.436 875 L734.436 875 Q788.436 875 832.919 854.5 Q877.402 834 908.043 798.5 Q938.685 763 952.852 715.5 Q967.02 668 960.39 614 Z M787.673 1276 L859.605 1194 L583.4 948 L367.605 1194 L459.673 1276 L578.974 1140 Q588.624 1129 605.124 1129 Q621.624 1129 633.974 1140 L710.324 1208 Q724.92 1221 738.393 1233 Q751.867 1245 763.033 1254.5 Q774.2 1264 780.936 1270 Q787.673 1276 787.673 1276 Z M666.638 502 Q690.638 502 713.304 511.5 Q735.971 521 753.874 536.5 Q771.777 552 783.917 573.5 Q796.057 595 799.004 619 Q802.073 644 795.775 666 Q789.476 688 774.94 704 Q760.405 720 739.51 729 Q718.615 738 692.615 738 L391.615 738 Q374.615 738 361.764 727 Q348.914 716 346.826 699 L327.426 541 Q325.339 524 335.488 513 Q345.638 502 362.638 502 L666.638 502 Z " />
<glyph glyph-name="Rcommaaccent" unicode="&#x156;" horiz-adv-x="934" d="M960.39 614 Q951.795 544 909.673 486 Q867.552 428 803.745 397 Q792.132 392 783.64 388 Q775.149 384 766.413 378 Q757.799 373 752.071 363 Q746.343 353 749.501 338 Q758.309 312 774.283 267 Q790.258 222 809.18 172.5 Q828.103 123 845.393 76.5 Q862.684 30 874 0 L705 0 L565.816 365 L345.816 365 Q328.816 365 315.904 353.5 Q302.992 342 300.905 325 L261 0 L95 0 L202.436 875 L734.436 875 Q788.436 875 832.919 854.5 Q877.402 834 908.043 798.5 Q938.685 763 952.852 715.5 Q967.02 668 960.39 614 Z M666.638 502 Q690.638 502 713.304 511.5 Q735.971 521 753.874 536.5 Q771.777 552 783.917 573.5 Q796.057 595 799.004 619 Q802.073 644 795.775 666 Q789.476 688 774.94 704 Q760.405 720 739.51 729 Q718.615 738 692.615 738 L391.615 738 Q374.615 738 361.764 727 Q348.914 716 346.826 699 L327.426 541 Q325.339 524 335.488 513 Q345.638 502 362.638 502 L666.638 502 Z M377.565 -142 L520.565 -142 L464.062 -423 L343.062 -423 L377.565 -142 Z " />
<glyph glyph-name="r" unicode="r" horiz-adv-x="934" d="M960.39 614 Q951.795 544 909.673 486 Q867.552 428 803.745 397 Q792.132 392 783.64 388 Q775.149 384 766.413 378 Q757.799 373 752.071 363 Q746.343 353 749.501 338 Q751.519 330 760.388 304.5 Q769.257 279 782.082 245 Q794.908 211 809.18 172.5 Q823.453 134 836.656 99 Q849.858 64 860.043 37 Q870.228 10 874 0 L705 0 L565.816 365 L345.816 365 Q328.816 365 315.904 353.5 Q302.992 342 300.905 325 L261 0 L95 0 L202.436 875 L734.436 875 Q788.436 875 832.919 854.5 Q877.402 834 908.043 798.5 Q938.685 763 952.852 715.5 Q967.02 668 960.39 614 Z M666.638 502 Q690.638 502 713.304 511.5 Q735.971 521 753.874 536.5 Q771.777 552 783.917 573.5 Q796.057 595 799.004 619 Q802.073 644 795.775 666 Q789.476 688 774.94 704 Q760.405 720 739.51 729 Q718.615 738 692.615 738 L391.615 738 Q374.615 738 361.764 727 Q348.914 716 346.826 699 L327.426 541 Q325.339 524 335.488 513 Q345.638 502 362.638 502 L666.638 502 Z " />
<glyph glyph-name="racute" unicode="&#x155;" horiz-adv-x="934" d="M960.39 614 Q951.795 544 909.673 486 Q867.552 428 803.745 397 Q792.132 392 783.64 388 Q775.149 384 766.413 378 Q757.799 373 752.071 363 Q746.343 353 749.501 338 Q751.519 330 760.388 304.5 Q769.257 279 782.082 245 Q794.908 211 809.18 172.5 Q823.453 134 836.656 99 Q849.858 64 860.043 37 Q870.228 10 874 0 L705 0 L565.816 365 L345.816 365 Q328.816 365 315.904 353.5 Q302.992 342 300.905 325 L261 0 L95 0 L202.436 875 L734.436 875 Q788.436 875 832.919 854.5 Q877.402 834 908.043 798.5 Q938.685 763 952.852 715.5 Q967.02 668 960.39 614 Z M666.638 502 Q690.638 502 713.304 511.5 Q735.971 521 753.874 536.5 Q771.777 552 783.917 573.5 Q796.057 595 799.004 619 Q802.073 644 795.775 666 Q789.476 688 774.94 704 Q760.405 720 739.51 729 Q718.615 738 692.615 738 L391.615 738 Q374.615 738 361.764 727 Q348.914 716 346.826 699 L327.426 541 Q325.339 524 335.488 513 Q345.638 502 362.638 502 L666.638 502 Z M557.521 1006 L428.521 1006 L665.268 1346 L782.831 1261 L557.521 1006 Z " />
<glyph glyph-name="rcaron" unicode="&#x159;" horiz-adv-x="934" d="M960.39 614 Q951.795 544 909.673 486 Q867.552 428 803.745 397 Q792.132 392 783.64 388 Q775.149 384 766.413 378 Q757.799 373 752.071 363 Q746.343 353 749.501 338 Q758.309 312 774.283 267 Q790.258 222 809.18 172.5 Q828.103 123 845.393 76.5 Q862.684 30 874 0 L705 0 L565.816 365 L345.816 365 Q328.816 365 315.904 353.5 Q302.992 342 300.905 325 L261 0 L95 0 L202.436 875 L734.436 875 Q788.436 875 832.919 854.5 Q877.402 834 908.043 798.5 Q938.685 763 952.852 715.5 Q967.02 668 960.39 614 Z M787.673 1276 L859.605 1194 L583.4 948 L367.605 1194 L459.673 1276 L578.974 1140 Q588.624 1129 605.124 1129 Q621.624 1129 633.974 1140 L710.324 1208 Q724.92 1221 738.393 1233 Q751.867 1245 763.033 1254.5 Q774.2 1264 780.936 1270 Q787.673 1276 787.673 1276 Z M666.638 502 Q690.638 502 713.304 511.5 Q735.971 521 753.874 536.5 Q771.777 552 783.917 573.5 Q796.057 595 799.004 619 Q802.073 644 795.775 666 Q789.476 688 774.94 704 Q760.405 720 739.51 729 Q718.615 738 692.615 738 L391.615 738 Q374.615 738 361.764 727 Q348.914 716 346.826 699 L327.426 541 Q325.339 524 335.488 513 Q345.638 502 362.638 502 L666.638 502 Z " />
<glyph glyph-name="rcommaaccent" unicode="&#x157;" horiz-adv-x="934" d="M960.39 614 Q951.795 544 909.673 486 Q867.552 428 803.745 397 Q792.132 392 783.64 388 Q775.149 384 766.413 378 Q757.799 373 752.071 363 Q746.343 353 749.501 338 Q758.309 312 774.283 267 Q790.258 222 809.18 172.5 Q828.103 123 845.393 76.5 Q862.684 30 874 0 L705 0 L565.816 365 L345.816 365 Q328.816 365 315.904 353.5 Q302.992 342 300.905 325 L261 0 L95 0 L202.436 875 L734.436 875 Q788.436 875 832.919 854.5 Q877.402 834 908.043 798.5 Q938.685 763 952.852 715.5 Q967.02 668 960.39 614 Z M666.638 502 Q690.638 502 713.304 511.5 Q735.971 521 753.874 536.5 Q771.777 552 783.917 573.5 Q796.057 595 799.004 619 Q802.073 644 795.775 666 Q789.476 688 774.94 704 Q760.405 720 739.51 729 Q718.615 738 692.615 738 L391.615 738 Q374.615 738 361.764 727 Q348.914 716 346.826 699 L327.426 541 Q325.339 524 335.488 513 Q345.638 502 362.638 502 L666.638 502 Z M377.565 -142 L520.565 -142 L464.062 -423 L343.062 -423 L377.565 -142 Z " />
<glyph glyph-name="s" unicode="s" horiz-adv-x="859" d="M289.249 621 Q284.583 583 307.005 562 Q329.426 541 369.637 530.5 Q409.848 520 461.795 515.5 Q513.743 511 567.883 504 Q622.024 497 672.989 484.5 Q723.954 472 762.201 445.5 Q800.447 419 820.044 375 Q839.642 331 831.047 261 Q825.03 212 803.303 173.5 Q781.576 135 749.515 106 Q717.454 77 676.937 56.5 Q636.42 36 593.885 23.5 Q551.351 11 508.175 5.5 Q465 0 427 0 Q369 0 304.473 12 Q239.947 24 187.13 54 Q134.314 84 104.015 134.5 Q73.7151 185 83.1696 262 L232.17 262 Q227.872 227 247.171 205 Q266.47 183 298.435 170.5 Q330.4 158 369.847 153.5 Q409.295 149 444.295 149 Q484.295 149 521.97 154.5 Q559.646 160 590.303 173.5 Q620.961 187 641.162 209 Q661.363 231 665.415 264 Q669.59 298 646.8 316 Q624.01 334 584.554 342.5 Q545.097 351 493.089 355 Q441.08 359 387.878 365.5 Q334.676 372 283.895 386 Q233.114 400 196.052 428 Q158.99 456 139.761 503 Q120.532 550 129.618 624 Q135.634 673 156.738 710.5 Q177.843 748 209.281 776 Q240.719 804 280.99 822.5 Q321.262 841 364.612 852 Q407.963 863 453.077 868 Q498.191 873 540.191 873 Q598.191 873 659.472 859 Q720.753 845 769.385 813.5 Q818.018 782 845.133 730 Q872.248 678 863.039 603 L715.039 603 Q719.091 636 701.976 659.5 Q684.862 683 655.081 697 Q625.3 711 588.098 717.5 Q550.896 724 515.896 724 Q475.896 724 436.843 719.5 Q397.791 715 366.44 704 Q335.09 693 314.073 672.5 Q293.056 652 289.249 621 Z " />
<glyph glyph-name="sacute" unicode="&#x15b;" horiz-adv-x="859" d="M289.249 621 Q284.583 583 307.005 562 Q329.426 541 369.637 530.5 Q409.848 520 461.795 515.5 Q513.743 511 567.883 504 Q622.024 497 672.989 484.5 Q723.954 472 762.201 445.5 Q800.447 419 820.044 375 Q839.642 331 831.047 261 Q825.03 212 803.303 173.5 Q781.576 135 749.515 106 Q717.454 77 676.937 56.5 Q636.42 36 593.885 23.5 Q551.351 11 508.175 5.5 Q465 0 427 0 Q369 0 304.473 12 Q239.947 24 187.13 54 Q134.314 84 104.015 134.5 Q73.7151 185 83.1696 262 L232.17 262 Q227.872 227 247.171 205 Q266.47 183 298.435 170.5 Q330.4 158 369.847 153.5 Q409.295 149 444.295 149 Q484.295 149 521.97 154.5 Q559.646 160 590.303 173.5 Q620.961 187 641.162 209 Q661.363 231 665.415 264 Q669.59 298 646.8 316 Q624.01 334 584.554 342.5 Q545.097 351 493.089 355 Q441.08 359 387.878 365.5 Q334.676 372 283.895 386 Q233.114 400 196.052 428 Q158.99 456 139.761 503 Q120.532 550 129.618 624 Q135.634 673 156.738 710.5 Q177.843 748 209.281 776 Q240.719 804 280.99 822.5 Q321.262 841 364.612 852 Q407.963 863 453.077 868 Q498.191 873 540.191 873 Q598.191 873 659.472 859 Q720.753 845 769.385 813.5 Q818.018 782 845.133 730 Q872.248 678 863.039 603 L715.039 603 Q719.091 636 701.976 659.5 Q684.862 683 655.081 697 Q625.3 711 588.098 717.5 Q550.896 724 515.896 724 Q475.896 724 436.843 719.5 Q397.791 715 366.44 704 Q335.09 693 314.073 672.5 Q293.056 652 289.249 621 Z M568.521 1006 L439.521 1006 L675.268 1346 L793.831 1261 L568.521 1006 Z " />
<glyph glyph-name="scaron" unicode="&#x161;" horiz-adv-x="859" d="M289.249 621 Q284.583 583 307.005 562 Q329.426 541 369.637 530.5 Q409.848 520 461.795 515.5 Q513.743 511 567.883 504 Q622.024 497 672.989 484.5 Q723.954 472 762.201 445.5 Q800.447 419 820.044 375 Q839.642 331 831.047 261 Q825.03 212 803.303 173.5 Q781.576 135 749.515 106 Q717.454 77 676.937 56.5 Q636.42 36 593.885 23.5 Q551.351 11 508.175 5.5 Q465 0 427 0 Q369 0 304.473 12 Q239.947 24 187.13 54 Q134.314 84 104.015 134.5 Q73.7151 185 83.1696 262 L232.17 262 Q227.872 227 247.171 205 Q266.47 183 298.435 170.5 Q330.4 158 369.847 153.5 Q409.295 149 444.295 149 Q484.295 149 521.97 154.5 Q559.646 160 590.303 173.5 Q620.961 187 641.162 209 Q661.363 231 665.415 264 Q669.59 298 646.8 316 Q624.01 334 584.554 342.5 Q545.097 351 493.089 355 Q441.08 359 387.878 365.5 Q334.676 372 283.895 386 Q233.114 400 196.052 428 Q158.99 456 139.761 503 Q120.532 550 129.618 624 Q135.634 673 156.738 710.5 Q177.843 748 209.281 776 Q240.719 804 280.99 822.5 Q321.262 841 364.612 852 Q407.963 863 453.077 868 Q498.191 873 540.191 873 Q598.191 873 659.472 859 Q720.753 845 769.385 813.5 Q818.018 782 845.133 730 Q872.248 678 863.039 603 L715.039 603 Q719.091 636 701.976 659.5 Q684.862 683 655.081 697 Q625.3 711 588.098 717.5 Q550.896 724 515.896 724 Q475.896 724 436.843 719.5 Q397.791 715 366.44 704 Q335.09 693 314.073 672.5 Q293.056 652 289.249 621 Z M749.673 1276 L821.605 1194 L545.4 948 L329.605 1194 L421.673 1276 L540.974 1140 Q550.624 1129 567.124 1129 Q583.624 1129 595.974 1140 L672.324 1208 Q686.92 1221 700.393 1233 Q713.867 1245 725.033 1254.5 Q736.2 1264 742.936 1270 Q749.673 1276 749.673 1276 Z " />
<glyph glyph-name="scedilla" unicode="&#x15f;" horiz-adv-x="859" d="M523.404 -13 Q541.825 -34 548.572 -60.5 Q555.318 -87 551.818 -115.5 Q548.319 -144 534.504 -171 Q520.689 -198 497.11 -219 Q473.532 -240 445.742 -250.5 Q417.953 -261 390.453 -261 Q362.953 -261 337.242 -250.5 Q311.532 -240 293.11 -219 Q274.811 -197 267.565 -170.5 Q260.319 -144 263.757 -116 L352.757 -116 Q350.056 -138 364.968 -155 Q379.881 -172 402.881 -172 Q425.881 -172 444.968 -155 Q464.056 -138 466.88 -115 Q469.704 -92 454.791 -75 L387.123 1 Q331.491 4 273.333 19 Q215.175 34 169.92 64.5 Q124.665 95 99.5582 143 Q74.4519 191 83.1696 262 L232.17 262 Q227.872 227 247.171 205 Q266.47 183 298.435 170.5 Q330.4 158 369.847 153.5 Q409.295 149 444.295 149 Q484.295 149 521.97 154.5 Q559.646 160 590.303 173.5 Q620.961 187 641.162 209 Q661.363 231 665.415 264 Q669.59 298 646.8 316 Q624.01 334 584.554 342.5 Q545.097 351 493.089 355 Q441.08 359 387.878 365.5 Q334.676 372 283.895 386 Q233.114 400 196.052 428 Q158.99 456 139.761 503 Q120.532 550 129.618 624 Q135.634 673 156.738 710.5 Q177.843 748 209.281 776 Q240.719 804 280.99 822.5 Q321.262 841 364.612 852 Q407.963 863 453.077 868 Q498.191 873 540.191 873 Q598.191 873 659.472 859 Q720.753 845 769.385 813.5 Q818.018 782 845.133 730 Q872.248 678 863.039 603 L715.039 603 Q719.091 636 701.976 659.5 Q684.862 683 655.081 697 Q625.3 711 588.098 717.5 Q550.896 724 515.896 724 Q475.896 724 436.843 719.5 Q397.791 715 366.44 704 Q335.09 693 314.073 672.5 Q293.056 652 289.249 621 Q284.583 583 307.005 562 Q329.426 541 369.637 530.5 Q409.848 520 461.795 515.5 Q513.743 511 567.883 504 Q622.024 497 672.989 484.5 Q723.954 472 762.201 445.5 Q800.447 419 820.044 375 Q839.642 331 831.047 261 Q823.434 199 791.409 154 Q759.384 109 713.639 78.5 Q667.894 48 613.245 30.5 Q558.596 13 505.737 6 L523.404 -13 Z " />
<glyph glyph-name="scircumflex" unicode="&#x15d;" horiz-adv-x="859" d="M289.249 621 Q284.583 583 307.005 562 Q329.426 541 369.637 530.5 Q409.848 520 461.795 515.5 Q513.743 511 567.883 504 Q622.024 497 672.989 484.5 Q723.954 472 762.201 445.5 Q800.447 419 820.044 375 Q839.642 331 831.047 261 Q825.03 212 803.303 173.5 Q781.576 135 749.515 106 Q717.454 77 676.937 56.5 Q636.42 36 593.885 23.5 Q551.351 11 508.175 5.5 Q465 0 427 0 Q369 0 304.473 12 Q239.947 24 187.13 54 Q134.314 84 104.015 134.5 Q73.7151 185 83.1696 262 L232.17 262 Q227.872 227 247.171 205 Q266.47 183 298.435 170.5 Q330.4 158 369.847 153.5 Q409.295 149 444.295 149 Q484.295 149 521.97 154.5 Q559.646 160 590.303 173.5 Q620.961 187 641.162 209 Q661.363 231 665.415 264 Q669.59 298 646.8 316 Q624.01 334 584.554 342.5 Q545.097 351 493.089 355 Q441.08 359 387.878 365.5 Q334.676 372 283.895 386 Q233.114 400 196.052 428 Q158.99 456 139.761 503 Q120.532 550 129.618 624 Q135.634 673 156.738 710.5 Q177.843 748 209.281 776 Q240.719 804 280.99 822.5 Q321.262 841 364.612 852 Q407.963 863 453.077 868 Q498.191 873 540.191 873 Q598.191 873 659.472 859 Q720.753 845 769.385 813.5 Q818.018 782 845.133 730 Q872.248 678 863.039 603 L715.039 603 Q719.091 636 701.976 659.5 Q684.862 683 655.081 697 Q625.3 711 588.098 717.5 Q550.896 724 515.896 724 Q475.896 724 436.843 719.5 Q397.791 715 366.44 704 Q335.09 693 314.073 672.5 Q293.056 652 289.249 621 Z M708.4 948 L589.098 1084 Q579.449 1095 562.949 1095 Q546.449 1095 534.098 1084 L381.4 948 L309.468 1030 L585.673 1276 L801.468 1030 L709.4 948 L708.4 948 Z " />
<glyph glyph-name="scommaaccent" unicode="&#x219;" horiz-adv-x="859" d="M289.249 621 Q284.583 583 307.005 562 Q329.426 541 369.637 530.5 Q409.848 520 461.795 515.5 Q513.743 511 567.883 504 Q622.024 497 672.989 484.5 Q723.954 472 762.201 445.5 Q800.447 419 820.044 375 Q839.642 331 831.047 261 Q825.03 212 803.303 173.5 Q781.576 135 749.515 106 Q717.454 77 676.937 56.5 Q636.42 36 593.885 23.5 Q551.351 11 508.175 5.5 Q465 0 427 0 Q369 0 304.473 12 Q239.947 24 187.13 54 Q134.314 84 104.015 134.5 Q73.7151 185 83.1696 262 L232.17 262 Q227.872 227 247.171 205 Q266.47 183 298.435 170.5 Q330.4 158 369.847 153.5 Q409.295 149 444.295 149 Q484.295 149 521.97 154.5 Q559.646 160 590.303 173.5 Q620.961 187 641.162 209 Q661.363 231 665.415 264 Q669.59 298 646.8 316 Q624.01 334 584.554 342.5 Q545.097 351 493.089 355 Q441.08 359 387.878 365.5 Q334.676 372 283.895 386 Q233.114 400 196.052 428 Q158.99 456 139.761 503 Q120.532 550 129.618 624 Q135.634 673 156.738 710.5 Q177.843 748 209.281 776 Q240.719 804 280.99 822.5 Q321.262 841 364.612 852 Q407.963 863 453.077 868 Q498.191 873 540.191 873 Q598.191 873 659.472 859 Q720.753 845 769.385 813.5 Q818.018 782 845.133 730 Q872.248 678 863.039 603 L715.039 603 Q719.091 636 701.976 659.5 Q684.862 683 655.081 697 Q625.3 711 588.098 717.5 Q550.896 724 515.896 724 Q475.896 724 436.843 719.5 Q397.791 715 366.44 704 Q335.09 693 314.073 672.5 Q293.056 652 289.249 621 Z M340.565 -142 L483.565 -142 L427.062 -423 L306.062 -423 L340.565 -142 Z " />
<glyph glyph-name="t" unicode="t" horiz-adv-x="827" d="M120.369 736 L137.436 875 L904.436 875 L887.369 736 L623.369 736 Q607.369 736 594.519 725 Q581.668 714 579.581 697 L494 0 L333 0 L418.581 697 Q420.668 714 410.519 725 Q400.369 736 383.369 736 L120.369 736 Z " />
<glyph glyph-name="tbar" unicode="&#x167;" horiz-adv-x="827" d="M236.448 362 L253.392 500 L394.392 500 L418.581 697 Q420.668 714 410.519 725 Q400.369 736 383.369 736 L120.369 736 L137.436 875 L904.436 875 L887.369 736 L623.369 736 Q607.369 736 594.519 725 Q581.668 714 579.581 697 L555.392 500 L696.392 500 L679.448 362 L538.448 362 L494 0 L333 0 L377.448 362 L236.448 362 Z " />
<glyph glyph-name="tcaron" unicode="&#x165;" horiz-adv-x="827" d="M120.369 736 L137.436 875 L904.436 875 L887.369 736 L623.369 736 Q607.369 736 594.519 725 Q581.668 714 579.581 697 L494 0 L333 0 L418.581 697 Q420.668 714 410.519 725 Q400.369 736 383.369 736 L120.369 736 Z M733.673 1276 L805.605 1194 L529.4 948 L313.605 1194 L405.673 1276 L524.974 1140 Q534.624 1129 551.124 1129 Q567.624 1129 579.974 1140 L656.324 1208 Q670.92 1221 684.393 1233 Q697.867 1245 709.033 1254.5 Q720.2 1264 726.936 1270 Q733.673 1276 733.673 1276 Z " />
<glyph glyph-name="tcommaaccent" unicode="&#x163;" horiz-adv-x="827" d="M120.369 736 L137.436 875 L904.436 875 L887.369 736 L623.369 736 Q607.369 736 594.519 725 Q581.668 714 579.581 697 L494 0 L333 0 L418.581 697 Q420.668 714 410.519 725 Q400.369 736 383.369 736 L120.369 736 Z M324.565 -142 L467.565 -142 L411.062 -423 L290.062 -423 L324.565 -142 Z " />
<glyph glyph-name="u" unicode="u" horiz-adv-x="886" d="M672.343 353 L736.314 874 L903.314 874 L839.343 353 Q830.38 280 794.96 215.5 Q759.54 151 705.647 103 Q651.753 55 583.877 27.5 Q516 0 443 0 Q370 0 308.877 27.5 Q247.753 55 205.647 103 Q163.54 151 143.96 215.5 Q124.38 280 133.343 353 L197.314 874 L364.314 874 L300.343 353 Q295.554 314 305.941 280.5 Q316.328 247 338.697 221.5 Q361.066 196 393.285 181.5 Q425.505 167 463.505 167 Q502.505 167 537.785 181.5 Q573.066 196 601.697 221.5 Q630.328 247 648.941 280.5 Q667.554 314 672.343 353 Z " />
<glyph glyph-name="uacute" unicode="&#xfa;" horiz-adv-x="886" d="M672.343 353 L736.314 874 L903.314 874 L839.343 353 Q830.38 280 794.96 215.5 Q759.54 151 705.647 103 Q651.753 55 583.877 27.5 Q516 0 443 0 Q370 0 308.877 27.5 Q247.753 55 205.647 103 Q163.54 151 143.96 215.5 Q124.38 280 133.343 353 L197.314 874 L364.314 874 L300.343 353 Q295.554 314 305.941 280.5 Q316.328 247 338.697 221.5 Q361.066 196 393.285 181.5 Q425.505 167 463.505 167 Q502.505 167 537.785 181.5 Q573.066 196 601.697 221.5 Q630.328 247 648.941 280.5 Q667.554 314 672.343 353 Z M581.521 1006 L452.521 1006 L689.268 1346 L806.831 1261 L581.521 1006 Z " />
<glyph glyph-name="ubreve" unicode="&#x16d;" horiz-adv-x="886" d="M672.343 353 L736.314 874 L903.314 874 L839.343 353 Q830.38 280 794.96 215.5 Q759.54 151 705.647 103 Q651.753 55 583.877 27.5 Q516 0 443 0 Q370 0 308.877 27.5 Q247.753 55 205.647 103 Q163.54 151 143.96 215.5 Q124.38 280 133.343 353 L197.314 874 L364.314 874 L300.343 353 Q295.554 314 305.941 280.5 Q316.328 247 338.697 221.5 Q361.066 196 393.285 181.5 Q425.505 167 463.505 167 Q502.505 167 537.785 181.5 Q573.066 196 601.697 221.5 Q630.328 247 648.941 280.5 Q667.554 314 672.343 353 Z M654.745 1187 L781.745 1187 Q776.834 1147 757.036 1112 Q737.239 1077 707.985 1050.5 Q678.731 1024 641.89 1009 Q605.048 994 565.048 994 Q525.048 994 491.89 1009 Q458.731 1024 435.485 1050.5 Q412.239 1077 401.536 1112 Q390.834 1147 395.745 1187 L522.745 1187 Q519.307 1159 536.413 1139.5 Q553.519 1120 581.519 1120 Q608.519 1120 629.974 1140 Q651.43 1160 654.745 1187 Z " />
<glyph glyph-name="ucircumflex" unicode="&#xfb;" horiz-adv-x="886" d="M672.343 353 L736.314 874 L903.314 874 L839.343 353 Q830.38 280 794.96 215.5 Q759.54 151 705.647 103 Q651.753 55 583.877 27.5 Q516 0 443 0 Q370 0 308.877 27.5 Q247.753 55 205.647 103 Q163.54 151 143.96 215.5 Q124.38 280 133.343 353 L197.314 874 L364.314 874 L300.343 353 Q295.554 314 305.941 280.5 Q316.328 247 338.697 221.5 Q361.066 196 393.285 181.5 Q425.505 167 463.505 167 Q502.505 167 537.785 181.5 Q573.066 196 601.697 221.5 Q630.328 247 648.941 280.5 Q667.554 314 672.343 353 Z M722.4 948 L603.098 1084 Q593.449 1095 576.949 1095 Q560.449 1095 548.098 1084 L395.4 948 L323.468 1030 L599.673 1276 L815.468 1030 L723.4 948 L722.4 948 Z " />
<glyph glyph-name="udieresis" unicode="&#xfc;" horiz-adv-x="886" d="M672.343 353 L736.314 874 L903.314 874 L839.343 353 Q830.38 280 794.96 215.5 Q759.54 151 705.647 103 Q651.753 55 583.877 27.5 Q516 0 443 0 Q370 0 308.877 27.5 Q247.753 55 205.647 103 Q163.54 151 143.96 215.5 Q124.38 280 133.343 353 L197.314 874 L364.314 874 L300.343 353 Q295.554 314 305.941 280.5 Q316.328 247 338.697 221.5 Q361.066 196 393.285 181.5 Q425.505 167 463.505 167 Q502.505 167 537.785 181.5 Q573.066 196 601.697 221.5 Q630.328 247 648.941 280.5 Q667.554 314 672.343 353 Z M506.712 1089 Q502.169 1052 472.416 1025.5 Q442.662 999 405.662 999 Q367.662 999 344.916 1025.5 Q322.169 1052 326.712 1089 Q331.378 1127 360.571 1153 Q389.763 1179 427.763 1179 Q464.763 1179 488.071 1153 Q511.378 1127 506.712 1089 Z M826.712 1089 Q822.169 1052 792.416 1025.5 Q762.662 999 724.662 999 Q687.662 999 664.916 1025.5 Q642.169 1052 646.712 1089 Q651.378 1127 680.571 1153 Q709.763 1179 746.763 1179 Q784.763 1179 808.071 1153 Q831.378 1127 826.712 1089 Z " />
<glyph glyph-name="uhungarumlaut" unicode="&#x171;" horiz-adv-x="886" d="M672.343 353 L736.314 874 L903.314 874 L839.343 353 Q830.38 280 794.96 215.5 Q759.54 151 705.647 103 Q651.753 55 583.877 27.5 Q516 0 443 0 Q370 0 308.877 27.5 Q247.753 55 205.647 103 Q163.54 151 143.96 215.5 Q124.38 280 133.343 353 L197.314 874 L364.314 874 L300.343 353 Q295.554 314 305.941 280.5 Q316.328 247 338.697 221.5 Q361.066 196 393.285 181.5 Q425.505 167 463.505 167 Q502.505 167 537.785 181.5 Q573.066 196 601.697 221.5 Q630.328 247 648.941 280.5 Q667.554 314 672.343 353 Z M363.691 1268 L519.355 1363 L681.521 1006 L531.521 1006 L363.691 1268 Z " />
<glyph glyph-name="ugrave" unicode="&#xf9;" horiz-adv-x="886" d="M672.343 353 L736.314 874 L903.314 874 L839.343 353 Q830.38 280 794.96 215.5 Q759.54 151 705.647 103 Q651.753 55 583.877 27.5 Q516 0 443 0 Q370 0 308.877 27.5 Q247.753 55 205.647 103 Q163.54 151 143.96 215.5 Q124.38 280 133.343 353 L197.314 874 L364.314 874 L300.343 353 Q295.554 314 305.941 280.5 Q316.328 247 338.697 221.5 Q361.066 196 393.285 181.5 Q425.505 167 463.505 167 Q502.505 167 537.785 181.5 Q573.066 196 601.697 221.5 Q630.328 247 648.941 280.5 Q667.554 314 672.343 353 Z M739.521 1006 L610.521 1006 L847.268 1346 L964.831 1261 L739.521 1006 Z M464.521 1006 L335.521 1006 L571.268 1346 L689.831 1261 L464.521 1006 Z " />
<glyph glyph-name="umacron" unicode="&#x16b;" horiz-adv-x="886" d="M672.343 353 L736.314 874 L903.314 874 L839.343 353 Q830.38 280 794.96 215.5 Q759.54 151 705.647 103 Q651.753 55 583.877 27.5 Q516 0 443 0 Q370 0 308.877 27.5 Q247.753 55 205.647 103 Q163.54 151 143.96 215.5 Q124.38 280 133.343 353 L197.314 874 L364.314 874 L300.343 353 Q295.554 314 305.941 280.5 Q316.328 247 338.697 221.5 Q361.066 196 393.285 181.5 Q425.505 167 463.505 167 Q502.505 167 537.785 181.5 Q573.066 196 601.697 221.5 Q630.328 247 648.941 280.5 Q667.554 314 672.343 353 Z M347.714 1032 L364.658 1170 L807.658 1170 L790.714 1032 L347.714 1032 Z " />
<glyph glyph-name="uogonek" unicode="&#x173;" horiz-adv-x="886" d="M556.566 -199 Q518.514 -232 478.865 -249.5 Q439.217 -267 401.217 -267 Q361.217 -267 328.558 -252 Q295.9 -237 273.092 -211 Q250.285 -185 239.582 -150 Q228.88 -115 233.791 -75 Q237.843 -42 251.965 -12.5 Q266.087 17 289.034 41 Q248.613 62 216.542 94 Q184.471 126 163.944 166.5 Q143.416 207 135.187 254 Q126.958 301 133.343 353 L197.314 874 L364.314 874 L300.343 353 Q295.554 314 305.941 280.5 Q316.328 247 338.697 221.5 Q361.066 196 393.285 181.5 Q425.505 167 463.505 167 Q502.505 167 537.785 181.5 Q573.066 196 601.697 221.5 Q630.328 247 648.941 280.5 Q667.554 314 672.343 353 L736.314 874 L903.314 874 L839.343 353 Q830.38 280 794.46 215.5 Q758.54 151 704.647 103 Q650.753 55 582.877 27.5 Q515 0 442 0 Q406 0 378.36 -21.5 Q350.72 -43 346.914 -74 Q343.108 -105 361.968 -126.5 Q380.828 -148 411.828 -148 Q426.828 -148 443.749 -140.5 Q460.67 -133 476.389 -119 L556.566 -199 Z " />
<glyph glyph-name="uring" unicode="&#x16f;" horiz-adv-x="886" d="M672.343 353 L736.314 874 L903.314 874 L839.343 353 Q830.38 280 794.96 215.5 Q759.54 151 705.647 103 Q651.753 55 583.877 27.5 Q516 0 443 0 Q370 0 308.877 27.5 Q247.753 55 205.647 103 Q163.54 151 143.96 215.5 Q124.38 280 133.343 353 L197.314 874 L364.314 874 L300.343 353 Q295.554 314 305.941 280.5 Q316.328 247 338.697 221.5 Q361.066 196 393.285 181.5 Q425.505 167 463.505 167 Q502.505 167 537.785 181.5 Q573.066 196 601.697 221.5 Q630.328 247 648.941 280.5 Q667.554 314 672.343 353 Z M599.059 1271 Q630.059 1271 656.086 1259 Q682.112 1247 699.657 1227 Q717.201 1207 725.824 1179.5 Q734.448 1152 730.641 1121 Q726.835 1090 711.459 1062.5 Q696.082 1035 673.626 1015 Q651.171 995 622.197 983 Q593.224 971 562.224 971 Q531.224 971 505.197 983 Q479.171 995 461.626 1015 Q444.082 1035 435.459 1062.5 Q426.835 1090 430.641 1121 Q434.448 1152 449.824 1179.5 Q465.201 1207 487.657 1227 Q510.112 1247 539.086 1259 Q568.059 1271 599.059 1271 Z M573.397 1062 Q597.397 1062 617.046 1079.5 Q636.695 1097 639.641 1121 Q642.588 1145 627.237 1162.5 Q611.886 1180 587.886 1180 Q563.886 1180 543.737 1162.5 Q523.588 1145 520.641 1121 Q517.695 1097 533.546 1079.5 Q549.397 1062 573.397 1062 Z " />
<glyph glyph-name="utilde" unicode="&#x169;" horiz-adv-x="886" d="M672.343 353 L736.314 874 L903.314 874 L839.343 353 Q830.38 280 794.96 215.5 Q759.54 151 705.647 103 Q651.753 55 583.877 27.5 Q516 0 443 0 Q370 0 308.877 27.5 Q247.753 55 205.647 103 Q163.54 151 143.96 215.5 Q124.38 280 133.343 353 L197.314 874 L364.314 874 L300.343 353 Q295.554 314 305.941 280.5 Q316.328 247 338.697 221.5 Q361.066 196 393.285 181.5 Q425.505 167 463.505 167 Q502.505 167 537.785 181.5 Q573.066 196 601.697 221.5 Q630.328 247 648.941 280.5 Q667.554 314 672.343 353 Z M360.798 1163 Q402.587 1202 440.64 1206.5 Q478.692 1211 514.535 1197.5 Q550.377 1184 585.237 1162.5 Q620.097 1141 655.94 1127.5 Q691.782 1114 729.335 1118.5 Q766.887 1123 809.676 1162 L792.24 1020 Q749.452 981 711.961 977 Q674.469 973 638.566 986 Q602.662 999 567.863 1021 Q533.064 1043 497.16 1056 Q461.257 1069 423.266 1065 Q385.274 1061 343.486 1022 L360.798 1163 Z " />
<glyph glyph-name="w" unicode="w" horiz-adv-x="1395" d="M1020.68 258 L1304.44 875 L1472.44 875 L1074 0 L905 0 L774.495 623 L490 0 L322 0 L137.436 875 L306.436 875 L437.678 258 L720.436 875 L889.436 875 L1020.68 258 Z " />
<glyph glyph-name="wacute" unicode="&#x1e83;" horiz-adv-x="1395" d="M1020.68 258 L1304.44 875 L1472.44 875 L1074 0 L905 0 L774.495 623 L490 0 L322 0 L137.436 875 L306.436 875 L437.678 258 L720.436 875 L889.436 875 L1020.68 258 Z M788.521 1006 L659.521 1006 L895.268 1346 L1013.83 1261 L788.521 1006 Z " />
<glyph glyph-name="wcircumflex" unicode="&#x175;" horiz-adv-x="1395" d="M1020.68 258 L1304.44 875 L1472.44 875 L1074 0 L905 0 L774.495 623 L490 0 L322 0 L137.436 875 L306.436 875 L437.678 258 L720.436 875 L889.436 875 L1020.68 258 Z M976.4 948 L857.098 1084 Q847.449 1095 830.949 1095 Q814.449 1095 802.098 1084 L649.4 948 L577.468 1030 L853.673 1276 L1069.47 1030 L977.4 948 L976.4 948 Z " />
<glyph glyph-name="wdieresis" unicode="&#x1e85;" horiz-adv-x="1395" d="M1020.68 258 L1304.44 875 L1472.44 875 L1074 0 L905 0 L774.495 623 L490 0 L322 0 L137.436 875 L306.436 875 L437.678 258 L720.436 875 L889.436 875 L1020.68 258 Z M760.712 1089 Q756.169 1052 726.916 1025.5 Q697.662 999 659.662 999 Q622.662 999 599.416 1025.5 Q576.169 1052 580.712 1089 Q585.378 1127 615.071 1153 Q644.763 1179 681.763 1179 Q719.763 1179 742.571 1153 Q765.378 1127 760.712 1089 Z M1080.71 1089 Q1076.17 1052 1046.92 1025.5 Q1017.66 999 979.662 999 Q942.662 999 919.416 1025.5 Q896.169 1052 900.712 1089 Q905.378 1127 935.071 1153 Q964.763 1179 1001.76 1179 Q1039.76 1179 1062.57 1153 Q1085.38 1127 1080.71 1089 Z " />
</font>
</svg>
