<?xml version="1.0" encoding="UTF-8"?>
<svg xmlns="http://www.w3.org/2000/svg" xmlns:xlink="http://www.w3.org/1999/xlink" version="1.2" >
<font id="Lorano Light Oblique">
<font-face  font-family="Lorano" units-per-em="1000" ascent="875" descent="-179" font-style="italic" font-weight="300" font-stretch="normal" cap-height="875" x-height="875" underline-position="0" underline-thickness="0" />
<missing-glyph  horiz-adv-x="454" d="" />
<glyph glyph-name="B" unicode="B" horiz-adv-x="807" d="M830.582 640 Q822.478 574 783.471 521 Q744.463 468 687.657 437 Q736.973 407 762.904 353.5 Q788.835 300 780.732 234 Q774.838 186 751.058 143 Q727.278 100 691.411 68.5 Q655.543 37 610.772 18.5 Q566 0 517 0 L95 0 L202.436 875 L624.436 875 Q673.436 875 713.665 856.5 Q753.893 838 781.964 806 Q810.035 774 823.317 731.5 Q836.599 689 830.582 640 Z M699.977 236 Q704.029 269 695.151 298.5 Q686.273 328 666.975 350 Q647.676 372 619.772 385 Q591.868 398 558.868 398 L251.623 396 Q240.623 396 232.763 389 Q224.904 382 223.553 371 L190.401 101 Q189.051 90 195.191 83 Q201.332 76 212.332 76 L519.332 76 Q552.332 76 583.366 88.5 Q614.401 101 639.103 123 Q663.804 145 679.865 174 Q695.925 203 699.977 236 Z M568.568 477 Q601.568 477 632.664 490 Q663.761 503 687.901 524.5 Q712.04 546 728.163 575.5 Q744.285 605 748.337 638 Q752.388 671 743.511 700.5 Q734.633 730 715.834 752 Q697.035 774 669.07 786.5 Q641.105 799 608.105 799 L301.105 799 Q290.105 799 282.184 791.5 Q274.263 784 272.912 773 L239.761 503 Q238.41 492 244.551 485 Q250.691 478 261.691 478 L568.568 477 Z " />
<glyph glyph-name="C" unicode="C" horiz-adv-x="847" d="M586.245 792 Q513.245 792 444.807 764 Q376.369 736 321.976 688 Q267.582 640 231.663 575.5 Q195.743 511 186.78 438 Q177.816 365 197.397 300.5 Q216.977 236 259.022 187.5 Q301.067 139 362.129 111 Q423.191 83 496.191 83 Q567.191 83 635.445 109.5 Q703.699 136 760.961 187 L812.716 128 Q743.104 66 658.552 33 Q574 0 487 0 Q397 0 321.236 34.5 Q245.472 69 193.778 128.5 Q142.083 188 117.406 268 Q92.729 348 103.78 438 Q114.83 528 159.153 608 Q203.476 688 269.72 747 Q335.964 806 420.2 840.5 Q504.436 875 594.436 875 Q681.436 875 757.885 842 Q834.333 809 888.72 747 L822.599 689 Q778.738 739 717.992 765.5 Q657.245 792 586.245 792 Z " />
<glyph glyph-name="D" unicode="D" horiz-adv-x="883" d="M488.436 875 Q578.436 875 654.2 840.5 Q729.964 806 781.659 746.5 Q833.353 687 858.03 607 Q882.707 527 871.657 437 Q860.606 347 816.283 267 Q771.961 187 705.716 128 Q639.472 69 555.236 34.5 Q471 0 381 0 L95 0 L202.436 875 L488.436 875 Z M788.411 435 Q796.883 504 778.303 568.5 Q759.723 633 719.3 682.5 Q678.878 732 620.062 762 Q561.245 792 489.245 792 L300.245 792 Q289.245 792 281.324 784.5 Q273.404 777 272.053 766 L191.261 108 Q189.91 97 196.051 90 Q202.191 83 213.191 83 L402.191 83 Q472.191 83 538.313 112.5 Q604.435 142 656.89 190.5 Q709.346 239 744.642 302.5 Q779.939 366 788.411 435 Z " />
<glyph glyph-name="E" unicode="E" horiz-adv-x="776" d="M240.006 505 Q238.533 493 245.551 485 Q252.568 477 263.568 477 L769.568 477 L759.745 397 L253.745 397 Q242.745 397 233.763 389 Q224.781 381 223.43 370 L191.138 107 Q189.787 96 196.805 88 Q203.823 80 214.823 80 L720.823 80 L711 0 L95 0 L202.436 875 L818.314 874 L808.614 795 L302.614 795 Q291.614 795 282.57 786.5 Q273.526 778 272.176 767 L240.006 505 Z " />
<glyph glyph-name="F" unicode="F" horiz-adv-x="751" d="M240.006 505 Q238.533 493 245.551 485 Q252.568 477 263.568 477 L769.568 477 L759.745 397 L253.745 397 Q242.745 397 233.763 389 Q224.781 381 223.43 370 L178 0 L95 0 L202.436 875 L818.314 874 L808.614 795 L302.614 795 Q291.614 795 282.631 787 Q273.649 779 272.176 767 L240.006 505 Z " />
<glyph glyph-name="G" unicode="G" horiz-adv-x="1023" d="M550.639 445 L992.639 445 L938 0 L859 0 L883.311 198 Q849.786 153 806.804 116.5 Q763.823 80 714.13 54 Q664.438 28 609.219 14 Q554 0 497 0 Q407 0 331.175 34 Q255.349 68 203.655 127.5 Q151.961 187 127.222 266.5 Q102.483 346 113.657 437 Q124.707 527 169.03 607 Q213.353 687 279.597 746 Q345.842 805 430.078 839.5 Q514.314 874 604.314 874 Q695.314 874 770.139 840 Q844.964 806 897.597 746 L831.353 687 Q789.247 735 728.185 763 Q667.123 791 594.123 791 Q520.123 791 452.185 763 Q384.247 735 330.353 687 Q276.459 639 241.04 574.5 Q205.62 510 196.657 437 Q187.571 363 207.09 298 Q226.609 233 269.092 184 Q311.576 135 373.638 107 Q435.7 79 511.823 80 Q577.823 80 639.085 102.5 Q700.348 125 751.075 163.5 Q801.802 202 838.749 254.5 Q875.695 307 894.062 367 L541.062 367 L550.639 445 Z " />
<glyph glyph-name="H" unicode="H" horiz-adv-x="942" d="M827.006 505 L872.436 875 L954.436 875 L847 0 L765 0 L810.43 370 Q811.781 381 804.825 389.5 Q797.868 398 786.868 398 L252.868 398 Q241.868 398 232.825 389.5 Q223.781 381 222.43 370 L177 0 L95 0 L202.436 875 L284.436 875 L239.006 505 Q237.656 494 244.612 485.5 Q251.568 477 262.568 477 L796.568 477 Q807.568 477 816.612 485.5 Q825.656 494 827.006 505 Z " />
<glyph glyph-name="I" unicode="I" horiz-adv-x="342" d="M130 0 L237.436 875 L319.436 875 L212 0 L130 0 Z " />
<glyph glyph-name="J" unicode="J" horiz-adv-x="728" d="M598.343 353 L662.314 874 L745.314 874 L681.343 353 Q672.38 280 636.96 215.5 Q601.54 151 547.647 103 Q493.753 55 425.877 27.5 Q358 0 285 0 Q211 0 150.377 27.5 Q89.7532 55 47.6468 103 L112.768 161 Q145.225 124 191.147 103 Q237.068 82 294.068 82 Q350.068 82 402.208 103.5 Q454.348 125 495.33 161.5 Q536.311 198 563.889 247.5 Q591.467 297 598.343 353 Z " />
<glyph glyph-name="K" unicode="K" horiz-adv-x="842" d="M909.436 875 L469.78 438 L802 0 L696 0 L403.149 384 Q393.868 398 375.868 398 L252.868 398 Q241.868 398 232.825 389.5 Q223.781 381 222.43 370 L177 0 L95 0 L202.436 875 L284.436 875 L239.006 505 Q237.656 494 244.612 485.5 Q251.568 477 262.568 477 L384.568 477 Q402.568 477 416.287 491 L802.436 875 L909.436 875 Z " />
<glyph glyph-name="L" unicode="L" horiz-adv-x="712" d="M285.436 875 L193.103 123 Q190.647 103 200.235 91.5 Q209.823 80 229.823 80 L686.823 80 L677 0 L95 0 L202.436 875 L285.436 875 Z " />
<glyph glyph-name="M" unicode="M" horiz-adv-x="1074" d="M1004.44 875 L1086.44 875 L979 0 L897 0 L990.562 762 L586.359 402 L271.562 762 L178 0 L95 0 L202.436 875 L285.436 875 L582.69 535 Q589.707 527 601.707 527 Q613.707 527 622.69 535 L1004.44 875 Z " />
<glyph glyph-name="N" unicode="N" horiz-adv-x="979" d="M817.962 130 L909.436 875 L991.436 875 L884 0 L809 0 L270.334 752 L178 0 L95 0 L202.436 875 L278.436 875 L817.962 130 Z " />
<glyph glyph-name="O" unicode="O" horiz-adv-x="994" d="M507.068 82 Q580.068 82 648.506 110 Q716.944 138 770.838 186 Q824.732 234 860.651 298.5 Q896.571 363 905.657 437 Q914.62 510 894.54 574.5 Q874.459 639 832.353 687 Q790.247 735 728.685 763 Q667.123 791 594.123 791 Q520.123 791 452.185 763 Q384.247 735 330.353 687 Q276.459 639 241.04 574.5 Q205.62 510 196.657 437 Q187.571 363 207.151 298.5 Q226.732 234 268.838 186 Q310.944 138 372.006 110 Q433.068 82 507.068 82 Z M604.314 874 Q695.314 874 770.578 839.5 Q845.842 805 897.597 746 Q949.353 687 974.03 607 Q998.707 527 987.657 437 Q976.483 346 932.222 266.5 Q887.961 187 821.655 127.5 Q755.349 68 671.675 34 Q588 0 497 0 Q407 0 331.175 34 Q255.349 68 203.655 127.5 Q151.961 187 127.222 266.5 Q102.483 346 113.657 437 Q124.707 527 169.03 607 Q213.353 687 279.597 746 Q345.842 805 430.078 839.5 Q514.314 874 604.314 874 Z " />
<glyph glyph-name="P" unicode="P" horiz-adv-x="795" d="M560.323 475 Q594.323 475 626.357 487.5 Q658.392 500 684.032 521.5 Q709.672 543 726.794 572.5 Q743.916 602 748.214 637 Q752.266 670 743.326 699 Q734.387 728 715.088 750 Q695.79 772 668.324 784.5 Q640.859 797 607.859 797 L300.859 797 Q289.859 797 281.938 789.5 Q274.018 782 272.667 771 L239.761 503 Q238.41 492 245.366 483.5 Q252.323 475 263.323 475 L560.323 475 Z M612.436 875 Q661.436 875 704.165 856.5 Q746.893 838 776.964 806 Q807.035 774 821.694 730.5 Q836.353 687 830.214 637 Q824.197 588 799.856 544.5 Q775.515 501 739.586 469 Q703.657 437 657.824 418 Q611.991 399 562.991 399 L253.991 399 Q242.991 399 233.947 390.5 Q224.904 382 223.553 371 L178 0 L95 0 L202.436 875 L612.436 875 Z " />
<glyph glyph-name="Q" unicode="Q" horiz-adv-x="995" d="M588.191 873 Q681.682 877 760.63 844 Q839.578 811 893.773 751.5 Q947.967 692 974.021 611 Q1000.08 530 988.657 437 Q980.185 368 953.195 307 Q926.205 246 885.943 195 Q845.681 144 794.392 105 Q743.104 66 685.157 42 Q664.052 33 658.596 13 Q653.141 -7 665.422 -21 L755.775 -124 L694.144 -178 L536.123 1 Q527 0 517.5 0 Q508 0 498 0 Q405 0 328.42 36 Q251.84 72 199.892 133.5 Q147.943 195 125.073 277.5 Q102.202 360 116.744 454 Q130.058 538 173.767 613 Q217.476 688 281.474 745 Q345.473 802 424.648 836 Q503.823 870 588.191 873 Z M508.068 82 Q581.068 82 649.506 110 Q717.944 138 771.838 186 Q825.732 234 861.651 298.5 Q897.571 363 906.657 437 Q915.62 510 895.54 574.5 Q875.459 639 833.353 687 Q791.247 735 729.685 763 Q668.123 791 595.123 791 Q521.123 791 453.185 763 Q385.247 735 331.353 687 Q277.459 639 242.04 574.5 Q206.62 510 197.657 437 Q188.571 363 208.151 298.5 Q227.732 234 269.838 186 Q311.944 138 373.006 110 Q434.068 82 508.068 82 Z " />
<glyph glyph-name="S" unicode="S" horiz-adv-x="804" d="M214.582 640 Q208.32 589 230.514 558 Q252.707 527 293.497 509 Q334.287 491 387.559 481 Q440.832 471 496.226 462 Q551.621 453 604.525 440 Q657.429 427 697.421 402.5 Q737.413 378 758.501 338 Q779.59 298 771.732 234 Q766.083 188 746.286 153 Q726.489 118 697.296 92 Q668.104 66 631.955 48.5 Q595.806 31 555.956 20 Q516.105 9 475.553 4.5 Q435 0 398 0 Q360 0 319.991 4 Q279.982 8 242.772 18.5 Q205.561 29 173.148 46 Q140.735 63 117.928 89 Q95.1202 115 84.5405 151 Q73.9607 187 79.7316 234 L156.732 234 Q150.838 186 174.593 155.5 Q198.348 125 237.199 107.5 Q276.051 90 322.314 84 Q368.577 78 407.577 78 Q444.577 78 490.314 84 Q536.051 90 577.699 107.5 Q619.348 125 650.093 155.5 Q680.838 186 686.854 235 Q692.625 282 670.002 309.5 Q647.378 337 606.843 353 Q566.308 369 512.913 378 Q459.518 387 403.623 396 Q347.728 405 295.008 419.5 Q242.288 434 203.042 460.5 Q163.796 487 143.076 530 Q122.356 573 130.705 641 Q139.177 710 177.641 754.5 Q216.105 799 270.359 825.5 Q324.612 852 386.902 862.5 Q449.191 873 506.191 873 Q563.191 873 622.279 861.5 Q681.367 850 728.368 821.5 Q775.368 793 801.597 746 Q827.826 699 819.231 629 L742.231 629 Q748.125 677 725.054 709 Q701.983 741 663.816 760 Q625.649 779 579.631 787 Q533.614 795 495.614 795 Q458.614 795 412.377 789 Q366.14 783 324.053 766 Q281.966 749 251.221 718.5 Q220.476 688 214.582 640 Z " />
<glyph glyph-name="T" unicode="T" horiz-adv-x="787" d="M127.859 797 L137.436 875 L864.436 875 L854.859 797 L570.859 797 Q554.859 797 542.009 786 Q529.158 775 527.071 758 L434 0 L353 0 L446.071 758 Q448.158 775 438.009 786 Q427.859 797 410.859 797 L127.859 797 Z " />
<glyph glyph-name="U" unicode="U" horiz-adv-x="886" d="M756.343 353 L820.314 874 L903.314 874 L839.343 353 Q830.38 280 794.96 215.5 Q759.54 151 705.647 103 Q651.753 55 583.877 27.5 Q516 0 443 0 Q370 0 308.877 27.5 Q247.753 55 205.647 103 Q163.54 151 143.96 215.5 Q124.38 280 133.343 353 L197.314 874 L280.314 874 L216.343 353 Q209.467 297 224.389 247.5 Q239.311 198 271.83 161.5 Q304.348 125 350.77 104 Q397.191 83 453.191 83 Q509.191 83 561.27 104 Q613.348 125 654.33 161.5 Q695.311 198 722.389 247.5 Q749.467 297 756.343 353 Z " />
<glyph glyph-name="V" unicode="V" horiz-adv-x="935" d="M480.033 98 L924.436 875 L1012.44 875 L512 0 L423 0 L137.436 875 L226.436 875 L480.033 98 Z " />
<glyph glyph-name="W" unicode="W" horiz-adv-x="1315" d="M966.067 139 L1304.44 875 L1392.44 875 L994 0 L905 0 L749.229 743 L410 0 L322 0 L137.436 875 L226.436 875 L383.067 139 L720.436 875 L809.436 875 L966.067 139 Z " />
<glyph glyph-name="X" unicode="X" horiz-adv-x="926" d="M898.436 875 L1002.44 875 L595.849 463 Q584.499 452 582.657 437 Q580.815 422 589.464 411 L896 0 L791 0 L509.167 376 L134 0 L30 0 L437.464 411 Q448.815 422 450.657 437 Q452.499 452 443.849 463 L138.436 875 L243.436 875 L524.515 501 L898.436 875 Z " />
<glyph glyph-name="Y" unicode="Y" horiz-adv-x="932" d="M475.342 410 Q477.306 426 468.534 436 L137.314 874 L242.314 874 L527.147 498 L904.314 874 L1009.31 874 L570.534 436 Q559.306 426 557.342 410 L507 0 L425 0 L475.342 410 Z " />
<glyph glyph-name="Z" unicode="Z" horiz-adv-x="831" d="M878.436 875 L868.859 797 L170.454 77 L776.454 77 L767 0 L52 0 L61.4544 77 L758.859 797 L149.859 797 L159.436 875 L878.436 875 Z " />
<glyph glyph-name="a" unicode="a" horiz-adv-x="896" d="M775.436 875 L836 0 L755 0 L739.591 241 Q738.17 262 738.362 288 Q738.554 314 734.378 337 Q730.202 360 720.606 375.5 Q711.009 391 690.009 391 L396.009 391 Q378.009 391 355.632 392 Q333.254 393 313.009 391 Q292.763 389 276.158 380 Q259.553 371 252.22 352 L141 0 L60 0 L337.436 875 L775.436 875 Z M289.832 471 L724.832 471 L700.35 801 L396.35 801 L289.832 471 Z " />
<glyph glyph-name="q" unicode="q" horiz-adv-x="994" d="M987.534 436 Q977.466 354 940.002 281 Q902.539 208 846.54 151 Q790.542 94 719.376 56 Q648.21 18 570.737 6 L686.529 -126 L625.022 -179 L519.633 -60 Q512.738 -51 505.106 -48 Q497.475 -45 492.475 -45 Q486.475 -45 477.668 -47.5 Q468.861 -50 459.756 -59 L325.022 -179 L278.652 -125 L425.737 6 Q350.21 18 288.376 56 Q226.542 94 184.54 151 Q142.539 208 123.002 281 Q103.466 354 113.534 436 Q124.585 526 168.907 606 Q213.23 686 279.474 745 Q345.719 804 429.955 838.5 Q514.191 873 604.191 873 Q695.191 873 770.455 838.5 Q845.719 804 897.474 745 Q949.23 686 973.907 606 Q998.585 526 987.534 436 Z M506.946 81 Q579.946 81 648.384 109 Q716.821 137 770.715 185 Q824.609 233 860.528 297.5 Q896.448 362 905.534 436 Q914.497 509 894.417 573.5 Q874.337 638 832.23 686 Q790.124 734 728.562 762 Q667 790 594 790 Q520 790 452.062 762 Q384.124 734 330.23 686 Q276.337 638 240.917 573.5 Q205.497 509 196.534 436 Q187.448 362 207.028 297.5 Q226.609 233 268.715 185 Q310.821 137 371.884 109 Q432.946 81 506.946 81 Z " />
<glyph glyph-name="zero" unicode="0" horiz-adv-x="828" d="M521.664 885 Q593.664 885 652.849 858 Q712.034 831 753.324 784.5 Q794.615 738 813.88 675 Q833.144 612 824.426 541 L799.01 334 Q790.292 263 755.557 200 Q720.821 137 668.112 90.5 Q615.403 44 549.587 17 Q483.772 -10 411.772 -10 Q340.772 -10 281.587 17 Q222.403 44 181.612 90.5 Q140.821 137 121.557 200 Q102.292 263 111.01 334 L136.426 541 Q145.144 612 179.88 675 Q214.615 738 266.824 784.5 Q319.034 831 384.849 858 Q450.664 885 521.664 885 Z M715.01 334 L740.426 541 Q747.057 595 732.328 642 Q717.599 689 686.457 724.5 Q655.316 760 610.333 780.5 Q565.35 801 511.35 801 Q458.35 801 408.833 780.5 Q359.316 760 319.457 724.5 Q279.599 689 253.328 642 Q227.057 595 220.426 541 L195.01 334 Q188.38 280 203.109 233 Q217.838 186 248.479 150.5 Q279.12 115 324.103 94.5 Q369.086 74 422.086 74 Q476.086 74 526.103 94.5 Q576.12 115 615.979 150.5 Q655.838 186 682.109 233 Q708.38 280 715.01 334 Z " />
<glyph glyph-name="one" unicode="1" horiz-adv-x="590" d="M376 0 L468.702 755 L155.323 475 L105.444 533 L488.314 874 L565.314 874 L458 0 L376 0 Z " />
<glyph glyph-name="two" unicode="2" horiz-adv-x="792" d="M813.126 620 Q805.882 561 779.918 516.5 Q753.954 472 716.534 436 Q679.114 400 633.492 370.5 Q587.87 341 541.186 311 L171.7 79 L746.7 79 L737 0 L55 0 L66.7873 96 L503.676 372 Q538.377 394 577.008 419.5 Q615.639 445 648.823 475 Q682.006 505 705.426 541 Q728.847 577 734.249 621 Q740.88 675 723.738 710.5 Q706.597 746 673.299 768 Q640 790 593.605 799 Q547.21 808 496.21 808 Q445.21 808 395.991 794 Q346.772 780 306.834 752 Q266.896 724 239.178 681.5 Q211.459 639 204.583 583 L126.583 583 Q135.669 657 171.107 713.5 Q206.544 770 258.271 808.5 Q309.999 847 374.393 866.5 Q438.787 886 505.787 886 Q570.787 886 630.191 873 Q689.595 860 733.288 829 Q776.982 798 799.72 747 Q822.458 696 813.126 620 Z " />
<glyph glyph-name="three" unicode="3" horiz-adv-x="816" d="M826.933 651 Q821.162 604 802.742 568 Q784.321 532 756.006 505 Q727.691 478 691.358 459 Q655.025 440 614.675 429 Q673.324 418 715.518 387 Q757.711 356 770.958 301 Q780.292 263 772.399 215 Q762.663 152 727.884 109 Q693.104 66 641.85 39.5 Q590.596 13 528.684 1.5 Q466.772 -10 404.772 -10 Q348.772 -10 289.807 2.5 Q230.842 15 184.218 42.5 Q137.595 70 111.12 115 Q84.6455 160 92.7493 226 L167.749 226 Q162.101 180 187.856 149.5 Q213.611 119 253.34 100.5 Q293.068 82 337.647 74.5 Q382.227 67 414.227 67 Q462.227 67 509.209 75 Q556.191 83 594.963 101.5 Q633.734 120 659.918 150 Q686.101 180 691.504 224 Q697.766 275 682.695 307 Q667.624 339 637.834 357 Q608.044 375 567.842 381.5 Q527.64 388 482.64 388 L368.64 388 L378.34 467 L492.34 467 Q534.34 467 577.314 479 Q620.287 491 655.111 514 Q689.935 537 714.233 572 Q738.53 607 744.056 652 Q749.581 697 731.764 727 Q713.948 757 680.658 775 Q647.368 793 601.789 800.5 Q556.21 808 505.21 808 Q465.21 808 417.85 801 Q370.491 794 328.781 776 Q287.071 758 257.326 727.5 Q227.581 697 221.81 650 L144.81 650 Q152.914 716 188.878 760.5 Q224.842 805 276.78 833 Q328.718 861 391.191 873 Q453.664 885 514.664 885 Q572.664 885 631.752 873.5 Q690.84 862 737.025 835 Q783.21 808 809.185 763 Q835.159 718 826.933 651 Z " />
<glyph glyph-name="four" unicode="4" horiz-adv-x="736" d="M683.436 875 L609.029 269 L734.029 269 L724.452 191 L599.452 191 L576 0 L495 0 L518.452 191 L33.4519 191 L42.5379 265 L608.436 875 L683.436 875 Z M528.029 269 L586.474 745 L138.029 269 L528.029 269 Z " />
<glyph glyph-name="five" unicode="5" horiz-adv-x="766" d="M218.199 531 Q277.075 587 340.776 609 Q404.477 631 483.477 631 Q571.477 631 632.407 606 Q693.338 581 730.058 538 Q766.778 495 779.718 437.5 Q792.658 380 784.677 315 Q774.977 236 742.549 175.5 Q710.12 115 659.525 73.5 Q608.929 32 542.351 11 Q475.772 -10 396.772 -10 Q324.772 -10 265.228 10 Q205.684 30 163.981 65 Q122.278 100 100.295 149 Q78.3113 198 81.3101 255 L161.556 257 Q159.013 220 175.338 186 Q191.663 152 223.971 126 Q256.278 100 302.875 84.5 Q349.472 69 406.472 69 Q467.472 69 518.998 85.5 Q570.524 102 608.892 133.5 Q647.259 165 671.469 211.5 Q695.678 258 702.923 317 Q709.185 368 698.026 411.5 Q686.867 455 658.235 486.5 Q629.602 518 583.313 536 Q537.023 554 473.023 554 Q420.023 554 372.295 544 Q324.567 534 285.55 513.5 Q246.533 493 218.726 462 Q190.92 431 177.763 389 L98.2543 393 L242.314 874 L783.314 874 L774.105 799 L338.105 799 Q321.105 799 306.693 787.5 Q292.281 776 287.193 759 L218.199 531 Z " />
<glyph glyph-name="six" unicode="6" horiz-adv-x="826" d="M423.772 -10 Q346.772 -10 283.728 10 Q220.684 30 178.411 68.5 Q136.138 107 116.575 163.5 Q97.0126 220 105.976 293 L129.796 487 Q140.233 572 169.135 644.5 Q198.037 717 247.544 770 Q297.052 823 367.797 853.5 Q438.542 884 533.542 884 Q604.542 884 662.893 866.5 Q721.244 849 761.815 817 Q802.386 785 821.799 739.5 Q841.212 694 834.459 639 L752.459 639 Q757.494 680 743.361 711.5 Q729.229 743 698.93 765 Q668.631 787 623.982 798 Q579.333 809 523.333 809 Q444.333 809 388.763 784 Q333.193 759 296.352 715.5 Q259.511 672 239.39 614 Q219.268 556 211.042 489 L204.411 435 Q221.867 455 248.945 476 Q276.024 497 312.55 513.5 Q349.076 530 394.865 540.5 Q440.654 551 494.654 551 Q575.654 551 636.137 530.5 Q696.62 510 735.638 473.5 Q774.657 437 790.895 386 Q807.133 335 799.766 275 Q792.153 213 763.268 161 Q734.384 109 686.218 71 Q638.052 33 571.912 11.5 Q505.772 -10 423.772 -10 Z M483.323 475 Q424.323 475 372.788 462.5 Q321.253 450 282.306 426 Q243.359 402 218.439 366 Q193.519 330 187.748 283 Q182.346 239 193.557 200 Q204.768 161 234.585 131 Q264.401 101 313.253 83.5 Q362.104 66 433.104 66 Q493.104 66 542.946 81 Q592.787 96 629.725 124 Q666.663 152 688.952 191 Q711.24 230 717.011 277 Q722.537 322 710.018 358.5 Q697.5 395 667.692 421 Q637.885 447 591.604 461 Q545.323 475 483.323 475 Z " />
<glyph glyph-name="seven" unicode="7" horiz-adv-x="724" d="M811.314 874 L802.105 799 L292 0 L199 0 L706.614 795 L122.614 795 L132.314 874 L811.314 874 Z " />
<glyph glyph-name="eight" unicode="8" horiz-adv-x="806" d="M629.025 440 Q704.201 417 744.378 365.5 Q784.554 314 773.995 228 Q766.259 165 729.734 120 Q693.209 75 640.709 46.5 Q588.21 18 525.553 4.5 Q462.895 -9 401.895 -9 Q340.895 -9 281.553 4.5 Q222.21 18 176.709 46.5 Q131.209 75 105.734 120 Q80.2595 165 87.9949 228 Q98.5544 314 151.378 365.5 Q204.201 417 285.025 440 Q210.095 465 170.041 517.5 Q129.987 570 140.669 657 Q148.282 719 185.185 763 Q222.087 807 274.964 834.5 Q327.84 862 390.375 874.5 Q452.91 887 511.91 887 Q570.91 887 630.375 874.5 Q689.84 862 735.964 834.5 Q782.087 807 808.185 763 Q834.282 719 826.669 657 Q815.987 570 763.041 517.5 Q710.095 465 629.025 440 Z M226.424 655 Q220.285 605 241.171 571.5 Q262.058 538 298.102 518 Q334.147 498 378.164 490 Q422.182 482 462.182 482 Q502.182 482 548.164 490 Q594.147 498 635.102 518 Q676.058 538 705.671 571.5 Q735.285 605 741.424 655 Q746.826 699 726.01 729 Q705.193 759 669.904 777 Q634.614 795 589.596 803 Q544.578 811 502.578 811 Q460.578 811 414.096 803 Q367.614 795 327.904 777 Q288.193 759 260.01 729 Q231.826 699 226.424 655 Z M451.5 395 Q413.5 395 367.579 387.5 Q321.658 380 280.825 361 Q239.992 342 210.063 310 Q180.134 278 174.24 230 Q168.838 186 188.97 154.5 Q209.103 123 244.147 103 Q279.191 83 323.586 74 Q367.981 65 410.981 65 Q453.981 65 501.086 74 Q548.191 83 588.147 103 Q628.103 123 655.97 154.5 Q683.838 186 689.24 230 Q695.134 278 673.063 310 Q650.992 342 614.325 361 Q577.658 380 533.579 387.5 Q489.5 395 451.5 395 Z " />
<glyph glyph-name="nine" unicode="9" horiz-adv-x="826" d="M519.542 884 Q596.542 884 659.086 864 Q721.63 844 764.403 805.5 Q807.176 767 826.738 710.5 Q846.301 654 837.338 581 L813.518 387 Q803.081 302 774.179 229.5 Q745.277 157 695.708 103.5 Q646.139 50 574.956 20 Q503.772 -10 409.772 -10 Q338.772 -10 279.921 7.5 Q221.07 25 180.999 57 Q140.928 89 121.453 134 Q101.978 179 108.854 235 L190.854 235 Q185.82 194 199.952 162.5 Q214.085 131 244.384 109 Q274.682 87 319.332 76 Q363.981 65 419.981 65 Q498.981 65 554.551 90 Q610.12 115 646.461 158.5 Q682.802 202 702.924 260 Q723.045 318 731.272 385 L737.78 438 Q721.324 418 694.307 397.5 Q667.29 377 630.764 360.5 Q594.238 344 548.449 333.5 Q502.659 323 448.659 323 Q367.659 323 307.176 343.5 Q246.694 364 207.675 400.5 Q168.657 437 152.419 488 Q136.181 539 143.548 599 Q151.161 661 180.045 713 Q208.93 765 257.096 803 Q305.262 841 371.402 862.5 Q437.542 884 519.542 884 Z M459.991 399 Q518.991 399 570.526 411.5 Q622.061 424 661.007 448 Q699.954 472 724.875 508 Q749.795 544 755.566 591 Q760.845 634 749.695 673.5 Q738.545 713 708.729 743 Q678.912 773 629.561 790.5 Q580.21 808 510.21 808 Q450.21 808 400.307 792.5 Q350.404 777 313.527 749.5 Q276.65 722 254.362 683 Q232.073 644 226.302 597 Q220.777 552 233.295 515.5 Q245.814 479 275.621 453 Q305.429 427 351.71 413 Q397.991 399 459.991 399 Z " />
<glyph glyph-name="ampersand" unicode="&#x26;" horiz-adv-x="785" d="M312.613 62 Q376.613 62 433.489 89.5 Q490.366 117 537.646 160 Q492.013 220 446.818 279.5 Q401.624 339 354.623 396 Q328.149 384 295.685 368 Q263.22 352 234.08 330.5 Q204.94 309 183.502 281 Q162.064 253 157.644 217 Q153.101 180 163.04 151 Q172.98 122 194.085 102.5 Q215.191 83 245.902 72.5 Q276.613 62 312.613 62 Z M304.143 669 Q300.459 639 306.328 613.5 Q312.197 588 324.435 565.5 Q336.672 543 352.094 522 Q367.515 501 383.059 481 Q411.778 495 448.111 514 Q484.444 533 517.014 558 Q549.583 583 573.951 614.5 Q598.319 646 603.107 685 Q606.423 712 597.247 735 Q588.071 758 570.658 775 Q553.245 792 528.412 801.5 Q503.578 811 475.578 811 Q445.578 811 416.289 800.5 Q387 790 363.667 771 Q340.334 752 324.142 726 Q307.949 700 304.143 669 Z M760 0 L660 0 L583.278 100 Q528.262 51 456.956 20 Q385.649 -11 302.649 -11 Q252.649 -11 208.614 5 Q164.578 21 133.201 50.5 Q101.823 80 85.9183 121.5 Q70.0139 163 76.3987 215 Q82.4151 264 105.897 300.5 Q129.378 337 162.755 364.5 Q196.132 392 235.149 412.5 Q274.166 433 311.376 451 Q292.323 475 275.269 499 Q258.216 523 245.97 549.5 Q233.724 576 227.907 606 Q222.091 636 226.388 671 Q232.037 717 255.948 757 Q279.859 797 315.42 826 Q350.981 855 395.007 871.5 Q439.033 888 485.033 888 Q531.033 888 569.068 872 Q607.104 856 633.727 828.5 Q660.35 801 673.369 764.5 Q686.387 728 681.353 687 Q675.091 636 649.118 595.5 Q623.145 555 586.778 523.5 Q550.41 492 507.963 468 Q465.516 444 425.183 425 L591.399 215 Q614.714 242 636.502 281 Q658.291 320 663.711 356 L736.711 356 Q730.081 302 703.135 249.5 Q676.189 197 639.032 155 L760 0 Z " />
<glyph glyph-name="germandbls" unicode="&#xdf;" horiz-adv-x="808" d="M647.006 505 Q637.287 491 642.305 483 Q647.323 475 672.463 468 Q705.235 458 734.218 437.5 Q763.201 417 783.518 387 Q803.834 357 813.291 320 Q822.748 283 817.468 240 Q811.329 190 787.488 146.5 Q763.647 103 727.156 70.5 Q690.666 38 644.833 19 Q599 0 549 0 L472 0 L482.823 80 L551.823 80 Q583.823 80 614.296 92 Q644.77 104 669.909 125.5 Q695.049 147 712.171 176.5 Q729.294 206 733.468 240 Q737.643 274 727.704 303 Q717.764 332 697.843 353 Q677.921 374 650.395 386 Q622.868 398 590.868 398 L521.868 398 L530.691 478 L734.368 793 L312.368 793 Q295.368 793 283.018 782 Q270.667 771 268.58 754 L176 0 L90 0 L197.436 875 L870.436 875 L865.648 836 L647.006 505 Z " />
<glyph glyph-name="parenleft" unicode="&#x28;" horiz-adv-x="478" d="M554.924 1050 Q395.488 908 310.878 732 Q226.268 556 217.308 369 Q209.644 217 256.2 79 Q302.756 -59 404.513 -175 L343.882 -229 Q232.353 -103 182.455 48.5 Q132.557 200 140.939 366 Q145.218 466 170.935 565.5 Q196.652 665 242.755 759.5 Q288.858 854 355.102 941.5 Q421.345 1029 507.8 1106 L554.924 1050 Z " />
<glyph glyph-name="braceleft" unicode="&#x7b;" horiz-adv-x="547" d="M574.468 1030 Q538.468 1030 504.872 1017 Q471.276 1004 444.013 981.5 Q416.75 959 398.383 927.5 Q380.015 896 375.595 860 L348.828 642 Q340.847 577 302.339 524 Q263.832 471 207.025 440 Q256.219 409 282.211 356 Q308.204 303 300.223 238 L273.456 20 Q269.035 -16 279.668 -47.5 Q290.3 -79 312.037 -101.5 Q333.775 -124 364.179 -137 Q394.582 -150 430.582 -150 L478.582 -150 L469.251 -226 L408.251 -226 Q358.251 -226 316.084 -207 Q273.917 -188 244.968 -155 Q216.02 -122 202.423 -78 Q188.825 -34 194.965 16 L221.24 230 Q225.661 266 215.028 297.5 Q204.396 329 182.659 351.5 Q160.921 374 130.518 387 Q100.114 400 64.1138 400 L50.1138 400 L59.9366 480 L73.9366 480 Q109.937 480 143.533 493 Q177.129 506 204.392 528.5 Q231.654 551 249.961 582 Q268.267 613 272.687 649 L298.226 857 Q304.488 908 329.575 953.5 Q354.662 999 392.775 1032.5 Q430.888 1066 478.783 1085.5 Q526.677 1105 577.677 1105 L632.677 1105 L623.468 1030 L574.468 1030 Z " />
<glyph glyph-name="bracketleft" unicode="&#x5b;" horiz-adv-x="375" d="M451.1 1027 L204.1 1027 L59.4595 -151 L306.46 -151 L296.882 -229 L-28.1177 -229 L135.677 1105 L460.677 1105 L451.1 1027 Z " />
<glyph glyph-name="bar" unicode="&#x7c;" horiz-adv-x="342" d="M198.616 -109 L116.616 -109 L250.82 984 L332.82 984 L198.616 -109 Z " />
<glyph glyph-name="ogonek" unicode="&#x2db;" horiz-adv-x="268" d="M244.057 -195 Q190.163 -243 126.163 -243 Q94.1634 -243 67.1982 -230.5 Q40.233 -218 21.8114 -197 Q3.38992 -176 -5.61072 -147.5 Q-14.6114 -119 -10.6823 -87 Q-6.75315 -55 9.24621 -26.5 Q25.2456 2 48.824 23 Q72.4025 44 102.376 56 Q132.349 68 165.349 68 L157 0 Q121 0 92.4304 -25 Q63.8608 -50 59.4405 -86 Q55.1431 -121 77.0735 -146 Q99.0038 -171 134.004 -171 Q170.004 -171 199.196 -145 L244.057 -195 Z " />
<glyph glyph-name="cedilla" unicode="&#xb8;" horiz-adv-x="241" d="M202.316 -30 Q218.229 -47 223.966 -69.5 Q229.704 -92 226.757 -116 Q223.81 -140 212.048 -162.5 Q200.285 -185 180.198 -202 Q159.987 -220 136.944 -228.5 Q113.9 -237 90.9001 -237 Q67.9001 -237 46.9437 -228.5 Q25.9874 -220 10.1975 -202 Q-5.59236 -184 -11.3297 -161.5 Q-17.0671 -139 -14.243 -116 L49.757 -116 Q47.0557 -138 61.9684 -155 Q76.8811 -172 99.8811 -172 Q122.881 -172 141.968 -155 Q161.056 -138 163.88 -115 Q166.704 -92 151.791 -75 L69.3329 19 L119.858 64 L202.316 -30 Z " />
<glyph glyph-name="period" unicode="&#x2e;" horiz-adv-x="293" d="M144.158 -15 Q118.158 -15 102.807 2.5 Q87.4557 20 90.6481 46 Q93.8405 72 113.489 89.5 Q133.138 107 159.138 107 Q185.138 107 200.989 89.5 Q216.84 72 213.648 46 Q210.456 20 190.307 2.5 Q170.158 -15 144.158 -15 Z " />
<glyph glyph-name="comma" unicode="&#x2c;" horiz-adv-x="233" d="M72.0329 98 L155.033 98 L98.5304 -183 L37.5304 -183 L72.0329 98 Z " />
<glyph glyph-name="macron" unicode="&#xaf;" horiz-adv-x="347" d="M129.169 1052 L138.747 1130 L501.747 1130 L492.169 1052 L129.169 1052 Z " />
<glyph glyph-name="circumflex" unicode="&#x2c6;" horiz-adv-x="396" d="M457.4 948 L355.643 1064 Q345.993 1075 329.493 1075 Q312.993 1075 300.643 1064 L170.4 948 L124.785 1000 L344.85 1196 L516.785 1000 L458.4 948 L457.4 948 Z " />
<glyph glyph-name="breve" unicode="&#x2d8;" horiz-adv-x="273" d="M268.257 1069 Q293.379 1070 312.528 1087.5 Q331.677 1105 334.747 1130 L411.747 1130 Q408.309 1102 394.239 1077 Q380.169 1052 359.398 1033.5 Q338.626 1015 312.337 1004.5 Q286.048 994 258.048 994 Q230.048 994 206.337 1004.5 Q182.626 1015 166.398 1033.5 Q150.169 1052 142.739 1077 Q135.309 1102 138.747 1130 L214.747 1130 Q211.677 1105 227.467 1087 Q243.257 1069 268.257 1069 Z " />
<glyph glyph-name="dieresis" unicode="&#xa8;" horiz-adv-x="343" d="M472.538 1055 Q469.714 1032 451.188 1015.5 Q432.662 999 409.662 999 Q386.662 999 372.188 1015.5 Q357.714 1032 360.538 1055 Q363.362 1078 381.888 1094.5 Q400.414 1111 423.414 1111 Q446.414 1111 460.888 1094.5 Q475.362 1078 472.538 1055 Z M241.538 1055 Q238.714 1032 220.188 1015.5 Q201.662 999 178.662 999 Q155.662 999 141.188 1015.5 Q126.714 1032 129.538 1055 Q132.362 1078 150.888 1094.5 Q169.414 1111 192.414 1111 Q215.414 1111 229.888 1094.5 Q244.362 1078 241.538 1055 Z " />
<glyph glyph-name="ring" unicode="&#x2da;" horiz-adv-x="243" d="M249.205 1036 Q272.205 1036 290.731 1052.5 Q309.257 1069 312.204 1093 Q315.028 1116 300.554 1132.5 Q286.079 1149 263.079 1149 Q239.079 1149 220.554 1132.5 Q202.028 1116 199.204 1093 Q196.257 1069 210.731 1052.5 Q225.205 1036 249.205 1036 Z M271.06 1214 Q296.06 1214 316.894 1204.5 Q337.728 1195 352.202 1178.5 Q366.676 1162 373.474 1140 Q380.273 1118 377.204 1093 Q374.011 1067 361.81 1045 Q349.609 1023 331.083 1006.5 Q312.557 990 289.39 980.5 Q266.224 971 241.224 971 Q216.224 971 194.89 980.5 Q173.557 990 159.083 1006.5 Q144.609 1023 137.81 1045 Q131.011 1067 134.204 1093 Q137.273 1118 149.474 1140 Q161.676 1162 180.202 1178.5 Q198.728 1195 222.394 1204.5 Q246.06 1214 271.06 1214 Z " />
<glyph glyph-name="acute" unicode="&#xb4;" horiz-adv-x="244" d="M273.521 1006 L203.521 1006 L410.41 1282 L475.639 1235 L273.521 1006 Z " />
<glyph glyph-name="tilde" unicode="&#x2dc;" horiz-adv-x="390" d="M137.396 1119 Q173.571 1153 206.5 1156.5 Q239.43 1160 270.518 1148.5 Q301.606 1137 331.835 1118.5 Q362.063 1100 393.151 1088.5 Q424.239 1077 457.169 1080.5 Q490.098 1084 527.273 1118 L517.573 1039 Q480.398 1005 447.969 1001.5 Q415.539 998 383.951 1009.5 Q352.363 1021 322.135 1039.5 Q291.906 1058 260.818 1069.5 Q229.73 1081 196.8 1077.5 Q163.871 1074 127.696 1040 L137.396 1119 Z " />
<glyph glyph-name="dotaccent" unicode="&#x2d9;" horiz-adv-x="112" d="M237.854 1025 Q235.03 1002 216.504 985.5 Q197.978 969 174.978 969 Q151.978 969 137.504 985.5 Q123.03 1002 125.854 1025 Q128.678 1048 147.204 1064.5 Q165.73 1081 188.73 1081 Q211.73 1081 226.204 1064.5 Q240.678 1048 237.854 1025 Z " />
<glyph glyph-name="bracketright" unicode="&#x5d;" horiz-adv-x="833" d="M135.677 1105 L460.677 1105 L296.882 -229 L-28.1177 -229 L-18.5405 -151 L228.46 -151 L373.1 1027 L126.1 1027 L135.677 1105 Z " />
<glyph glyph-name="parenright" unicode="&#x29;" horiz-adv-x="478" d="M241.8 1106 Q309.345 1029 354.102 941.5 Q398.858 854 421.755 759.5 Q444.652 665 445.935 565.5 Q447.218 466 426.939 366 Q394.557 200 307.455 48.5 Q220.353 -103 77.8823 -229 L30.5127 -175 Q160.756 -59 241.2 79 Q321.644 217 351.308 369 Q388.268 556 346.878 732 Q305.488 908 180.924 1050 L241.8 1106 Z " />
<glyph glyph-name="grave" unicode="&#x60;" horiz-adv-x="248" d="M71.7617 1236 L150.778 1285 L291.521 1006 L218.521 1006 L71.7617 1236 Z " />
<glyph glyph-name="slash" unicode="&#x2f;" horiz-adv-x="470" d="M-51.3645 -174 L558.485 1079 L628.924 1050 L19.0747 -203 L-51.3645 -174 Z " />
<glyph glyph-name="Adieresis" unicode="&#xc4;" horiz-adv-x="934" d="M904 0 L816 0 L718.467 297 Q715.063 310 703.984 317.5 Q692.905 325 678.905 325 L334.905 325 Q320.905 325 307.984 317.5 Q295.063 310 288.467 297 L118 0 L30 0 L530.436 875 L618.436 875 L904 0 Z M349.605 404 L683.605 404 L562.404 777 L349.605 404 Z M768.538 1055 Q765.714 1032 747.188 1015.5 Q728.662 999 705.662 999 Q682.662 999 668.188 1015.5 Q653.714 1032 656.538 1055 Q659.362 1078 677.888 1094.5 Q696.414 1111 719.414 1111 Q742.414 1111 756.888 1094.5 Q771.362 1078 768.538 1055 Z M537.538 1055 Q534.714 1032 516.188 1015.5 Q497.662 999 474.662 999 Q451.662 999 437.188 1015.5 Q422.714 1032 425.538 1055 Q428.362 1078 446.888 1094.5 Q465.414 1111 488.414 1111 Q511.414 1111 525.888 1094.5 Q540.362 1078 537.538 1055 Z " />
<glyph glyph-name="Aring" unicode="&#xc5;" horiz-adv-x="934" d="M904 0 L816 0 L718.467 297 Q715.063 310 703.984 317.5 Q692.905 325 678.905 325 L334.905 325 Q320.905 325 307.984 317.5 Q295.063 310 288.467 297 L118 0 L30 0 L530.436 875 L618.436 875 L904 0 Z M349.605 404 L683.605 404 L562.404 777 L349.605 404 Z M594.205 1036 Q617.205 1036 635.731 1052.5 Q654.257 1069 657.204 1093 Q660.028 1116 645.554 1132.5 Q631.079 1149 608.079 1149 Q585.079 1149 566.054 1132.5 Q547.028 1116 544.204 1093 Q541.257 1069 556.231 1052.5 Q571.205 1036 594.205 1036 Z M616.06 1214 Q641.06 1214 662.394 1204.5 Q683.728 1195 698.202 1178.5 Q712.676 1162 719.474 1140 Q726.273 1118 723.204 1093 Q720.011 1067 707.81 1045 Q695.609 1023 677.083 1006.5 Q658.557 990 634.89 980.5 Q611.224 971 586.224 971 Q561.224 971 539.89 980.5 Q518.557 990 504.083 1006.5 Q489.609 1023 482.81 1045 Q476.011 1067 479.204 1093 Q482.273 1118 494.474 1140 Q506.676 1162 525.202 1178.5 Q543.728 1195 567.394 1204.5 Q591.06 1214 616.06 1214 Z " />
<glyph glyph-name="ae" unicode="&#xe6;" horiz-adv-x="1062" d="M608.138 107 Q606.787 96 613.805 88 Q620.823 80 631.823 80 L1006.82 80 L997 0 L513 0 L558.921 374 Q558.272 385 552.07 391.5 Q545.868 398 534.868 398 L275.868 398 Q258.868 398 244.018 387 Q229.167 376 223.08 359 L109 0 L30 0 L307.436 875 L620.436 875 L1104.31 874 L1094.61 795 L719.614 795 Q708.614 795 699.631 787 Q690.649 779 689.176 767 L657.006 505 Q655.533 493 662.551 485 Q669.568 477 680.568 477 L1055.57 477 L1045.75 397 L643.745 397 L608.138 107 Z M571.691 478 L608.035 774 Q607.386 785 601.184 791.5 Q594.982 798 583.982 798 L362.982 798 L259.691 478 L571.691 478 Z " />
<glyph glyph-name="AE" unicode="&#xc6;" horiz-adv-x="1074" d="M1116.31 874 L1106.61 795 L681.614 795 Q670.614 795 661.57 786.5 Q652.526 778 651.176 767 L619.006 505 Q617.533 493 624.551 485 Q631.568 477 642.568 477 L1067.57 477 L1057.75 397 L632.745 397 Q621.745 397 612.763 389 Q603.781 381 602.43 370 L570.138 107 Q568.787 96 575.805 88 Q582.823 80 593.823 80 L1018.82 80 L1009 0 L475 0 L514.905 325 L334.905 325 Q320.905 325 307.984 317.5 Q295.063 310 288.467 297 L118 0 L30 0 L530.436 875 L681.436 875 L1116.31 874 Z M524.237 401 L572.614 795 L348.237 401 L524.237 401 Z " />
<glyph glyph-name="paragraph" unicode="&#xb6;" horiz-adv-x="1029" d="M926.333 809 L826.333 809 Q817.333 809 810.228 800 Q803.123 791 802.14 783 L706 0 L624 0 L669.553 371 Q670.904 382 664.447 390.5 Q657.991 399 645.991 399 L326.991 399 Q277.991 399 236.824 418 Q195.657 437 167.586 469 Q139.515 501 125.856 544.5 Q112.197 588 118.214 637 Q124.353 687 149.694 730.5 Q175.035 774 212.964 806 Q250.893 838 298.165 856.5 Q345.436 875 394.436 875 L1041.44 875 L934 0 L852 0 L948.14 783 Q949.491 794 943.412 801.5 Q937.333 809 926.333 809 Z M201.091 636 Q196.916 602 206.856 573 Q216.795 544 236.655 522.5 Q256.515 501 285.542 489 Q314.568 477 347.568 477 L655.568 477 Q666.568 477 675.612 485.5 Q684.656 494 686.006 505 L718.79 772 Q719.895 781 712.754 788 Q705.614 795 696.614 795 L378.614 795 Q345.614 795 315.579 782.5 Q285.544 770 261.404 748.5 Q237.264 727 221.204 698 Q205.143 669 201.091 636 Z " />
<glyph glyph-name="Agrave" unicode="&#xc0;" horiz-adv-x="934" d="M904 0 L816 0 L718.467 297 Q715.063 310 703.984 317.5 Q692.905 325 678.905 325 L334.905 325 Q320.905 325 307.984 317.5 Q295.063 310 288.467 297 L118 0 L30 0 L530.436 875 L618.436 875 L904 0 Z M349.605 404 L683.605 404 L562.404 777 L349.605 404 Z M408.762 1236 L487.778 1285 L628.521 1006 L555.521 1006 L408.762 1236 Z " />
<glyph glyph-name="Atilde" unicode="&#xc3;" horiz-adv-x="934" d="M904 0 L816 0 L718.467 297 Q715.063 310 703.984 317.5 Q692.905 325 678.905 325 L334.905 325 Q320.905 325 307.984 317.5 Q295.063 310 288.467 297 L118 0 L30 0 L530.436 875 L618.436 875 L904 0 Z M409.396 1119 Q445.571 1153 479 1156.5 Q512.43 1160 543.518 1148.5 Q574.606 1137 604.335 1118.5 Q634.063 1100 665.651 1088.5 Q697.239 1077 730.169 1080.5 Q763.098 1084 799.273 1118 L789.573 1039 Q752.398 1005 719.969 1001.5 Q687.539 998 655.951 1009.5 Q624.363 1021 594.135 1039.5 Q563.906 1058 532.818 1069.5 Q501.73 1081 468.8 1077.5 Q435.871 1074 399.696 1040 L409.396 1119 Z M349.605 404 L683.605 404 L562.404 777 L349.605 404 Z " />
<glyph glyph-name="OE" unicode="&#x152;" horiz-adv-x="1186" d="M1228.31 874 L1218.61 795 L703.614 795 Q692.614 795 683.57 786.5 Q674.526 778 673.176 767 L641.006 505 Q639.533 493 646.551 485 Q653.568 477 664.568 477 L1179.57 477 L1169.75 397 L654.745 397 Q643.745 397 634.763 389 Q625.781 381 624.43 370 L592.138 107 Q590.787 96 597.805 88 Q604.823 80 615.823 80 L1130.82 80 L1121 0 L497 0 Q407 0 331.175 34 Q255.349 68 203.655 127.5 Q151.961 187 127.222 266.5 Q102.483 346 113.657 437 Q124.707 527 169.03 607 Q213.353 687 279.659 746.5 Q345.964 806 430.2 840.5 Q514.436 875 604.436 875 L1228.31 874 Z M594.491 794 Q520.491 794 452.053 766 Q383.615 738 329.16 689.5 Q274.705 641 238.724 576 Q202.743 511 193.657 437 Q184.448 362 204.467 297 Q224.486 232 267.031 183.5 Q309.576 135 371.138 107 Q432.7 79 506.7 79 L594.491 794 Z " />
<glyph glyph-name="hyphen" unicode="&#x2d;" horiz-adv-x="486" d="M68.7455 397 L78.5682 477 L524.568 477 L514.745 397 L68.7455 397 Z " />
<glyph glyph-name="sterling" unicode="&#xa3;" horiz-adv-x="836" d="M635.5 395 L421.5 395 Q406.5 395 388.623 396 Q370.745 397 355.377 394 Q340.009 391 328.465 382.5 Q316.921 374 314.711 356 L286.103 123 Q283.647 103 293.235 91.5 Q302.823 80 322.823 80 L780.823 80 L771 0 L188 0 L223.608 290 Q225.449 305 228.721 323.5 Q231.992 342 230.895 357.5 Q229.799 373 223.149 384 Q216.5 395 198.5 395 L93.4999 395 L103.445 476 L246.445 476 Q256.514 558 287.6 632 Q318.686 706 370.062 762 Q421.438 818 491.49 851 Q561.542 884 649.542 884 Q720.542 884 781.788 857.5 Q843.034 831 886.895 781 L824.019 725 Q790.685 763 743.263 784 Q695.842 805 641.842 805 Q585.842 805 533.702 783.5 Q481.562 762 440.019 725 Q398.476 688 370.837 638 Q343.197 588 336.321 532 L329.445 476 L645.445 476 L635.5 395 Z " />
<glyph glyph-name="plus" unicode="&#x2b;" horiz-adv-x="483" d="M250.868 398 L68.8683 398 L78.4455 476 L260.445 476 L282.792 658 L360.792 658 L338.445 476 L521.445 476 L511.868 398 L328.868 398 L306.399 215 L228.399 215 L250.868 398 Z " />
<glyph glyph-name="multiply" unicode="&#xd7;" horiz-adv-x="484" d="M131.864 569 L184.635 616 L301.305 483 L450.758 617 L491.987 570 L341.534 436 L459.204 303 L406.433 256 L289.886 390 L140.556 257 L99.3265 304 L248.534 436 L131.864 569 Z " />
<glyph glyph-name="question" unicode="&#x3f;" horiz-adv-x="724" d="M788.79 772 Q781.545 713 756.888 671 Q732.231 629 695.557 595 Q658.882 561 614.383 532.5 Q569.883 504 524.2 474 Q498.113 457 482.148 441 Q466.183 425 455.921 402.5 Q445.658 380 439.79 348.5 Q433.923 317 428.029 269 L349.029 269 Q355.168 319 362.15 355.5 Q369.132 392 389.245 425.5 Q409.358 459 448.778 495 Q488.199 531 559.215 580 Q586.425 598 611.319 617.5 Q636.214 637 656.038 660 Q675.862 683 689.8 711 Q703.738 739 707.79 772 Q714.666 828 696.524 863.5 Q678.383 899 644.9 919.5 Q611.417 940 565.9 948 Q520.382 956 472.382 956 Q422.382 956 374.163 942 Q325.944 928 286.567 900.5 Q247.191 873 220.595 831.5 Q194 790 187.369 736 L105.369 736 Q114.21 808 149.024 863.5 Q183.839 919 235.505 957 Q287.171 995 351.126 1015 Q415.082 1035 482.082 1035 Q547.082 1035 606.486 1022 Q665.89 1009 709.645 978.5 Q753.4 948 775.699 897.5 Q797.999 847 788.79 772 Z M360.158 -15 Q334.158 -15 318.807 2.5 Q303.456 20 306.648 46 Q309.84 72 329.489 89.5 Q349.138 107 375.138 107 Q401.138 107 416.489 89.5 Q431.84 72 428.648 46 Q425.456 20 405.807 2.5 Q386.158 -15 360.158 -15 Z " />
<glyph glyph-name="exclam" unicode="&#x21;" horiz-adv-x="282" d="M227.082 1035 L308.082 1035 L214.029 269 L133.029 269 L227.082 1035 Z M139.158 -15 Q113.158 -15 97.807 2.5 Q82.4557 20 85.6481 46 Q88.8405 72 108.489 89.5 Q128.138 107 154.138 107 Q180.138 107 195.489 89.5 Q210.84 72 207.648 46 Q204.456 20 184.807 2.5 Q165.158 -15 139.158 -15 Z " />
<glyph glyph-name="equal" unicode="&#x3d;" horiz-adv-x="486" d="M84.0935 522 L93.9163 602 L539.916 602 L530.094 522 L84.0935 522 Z M53.3974 272 L63.2202 352 L509.22 352 L499.397 272 L53.3974 272 Z " />
<glyph glyph-name="Lslash" unicode="&#x141;" horiz-adv-x="712" d="M78.7455 397 L88.5682 477 L153.568 477 L202.436 875 L285.436 875 L236.568 477 L534.568 477 L524.745 397 L226.745 397 L193.103 123 Q190.647 103 200.235 91.5 Q209.823 80 229.823 80 L686.823 80 L677 0 L95 0 L143.745 397 L78.7455 397 Z " />
<glyph glyph-name="Euro" unicode="&#x20ac;" horiz-adv-x="710" d="M515.664 885 Q586.664 885 645.411 858.5 Q704.157 832 745.386 785 L681.387 728 Q650.685 763 606.14 783 Q561.596 803 508.596 803 Q460.596 803 416.131 787 Q371.667 771 334.168 742.5 Q296.668 714 269.38 675 Q242.091 636 228.566 591 L536.566 591 L527.602 518 L299.602 518 Q286.602 518 271.664 518.5 Q256.725 519 243.857 516 Q230.988 513 222.068 505.5 Q213.147 498 211.305 483 L195.711 356 L507.711 356 L498.748 283 L190.748 283 Q193.223 238 211.434 199 Q229.646 160 259.708 132 Q289.77 104 330.305 88 Q370.84 72 417.84 72 Q471.84 72 520.796 92 Q569.752 112 609.049 147 L661.051 90 Q608.28 43 543.026 16.5 Q477.772 -10 405.772 -10 Q340.772 -10 286.035 12.5 Q231.297 35 191.086 74 Q150.875 113 127.444 166.5 Q104.013 220 102.748 283 L-38.252 283 L-29.2887 356 L73.7113 356 Q89.8341 357 100.685 368 Q111.535 379 113.5 395 L128.602 518 L-9.3976 518 L-0.434325 591 L140.566 591 Q157.301 654 193.37 707.5 Q229.439 761 279.289 800.5 Q329.139 840 389.902 862.5 Q450.664 885 515.664 885 Z " />
<glyph glyph-name="Aacute" unicode="&#xc1;" horiz-adv-x="934" d="M904 0 L816 0 L718.467 297 Q715.063 310 703.984 317.5 Q692.905 325 678.905 325 L334.905 325 Q320.905 325 307.984 317.5 Q295.063 310 288.467 297 L118 0 L30 0 L530.436 875 L618.436 875 L904 0 Z M349.605 404 L683.605 404 L562.404 777 L349.605 404 Z M622.521 1006 L552.521 1006 L759.41 1282 L824.639 1235 L622.521 1006 Z " />
<glyph glyph-name="Acircumflex" unicode="&#xc2;" horiz-adv-x="934" d="M904 0 L816 0 L718.467 297 Q715.063 310 703.984 317.5 Q692.905 325 678.905 325 L334.905 325 Q320.905 325 307.984 317.5 Q295.063 310 288.467 297 L118 0 L30 0 L530.436 875 L618.436 875 L904 0 Z M726.4 948 L624.643 1064 Q614.993 1075 598.493 1075 Q581.993 1075 569.643 1064 L439.4 948 L393.785 1000 L613.85 1196 L785.785 1000 L727.4 948 L726.4 948 Z M349.605 404 L683.605 404 L562.404 777 L349.605 404 Z " />
<glyph glyph-name="minus" unicode="&#x2212;" horiz-adv-x="483" d="M69.605 404 L77.7087 470 L520.709 470 L512.605 404 L69.605 404 Z " />
<glyph glyph-name="plusminus" unicode="&#xb1;" horiz-adv-x="483" d="M42.9607 187 L51.924 260 L233.924 260 L254.92 431 L72.9201 431 L82.4973 509 L264.497 509 L286.844 691 L364.844 691 L342.497 509 L525.497 509 L515.92 431 L332.92 431 L311.924 260 L494.924 260 L485.961 187 L42.9607 187 Z " />
<glyph glyph-name="Cacute" unicode="&#x106;" horiz-adv-x="847" d="M586.245 792 Q513.245 792 444.807 764 Q376.369 736 321.976 688 Q267.582 640 231.663 575.5 Q195.743 511 186.78 438 Q177.816 365 197.397 300.5 Q216.977 236 259.022 187.5 Q301.067 139 362.129 111 Q423.191 83 496.191 83 Q567.191 83 635.445 109.5 Q703.699 136 760.961 187 L812.716 128 Q743.104 66 658.552 33 Q574 0 487 0 Q397 0 321.236 34.5 Q245.472 69 193.778 128.5 Q142.083 188 117.406 268 Q92.729 348 103.78 438 Q114.83 528 159.153 608 Q203.476 688 269.72 747 Q335.964 806 420.2 840.5 Q504.436 875 594.436 875 Q681.436 875 757.885 842 Q834.333 809 888.72 747 L822.599 689 Q778.738 739 717.992 765.5 Q657.245 792 586.245 792 Z M582.521 1006 L512.521 1006 L719.41 1282 L784.639 1235 L582.521 1006 Z " />
<glyph glyph-name="Ccircumflex" unicode="&#x108;" horiz-adv-x="847" d="M586.245 792 Q513.245 792 444.807 764 Q376.369 736 321.976 688 Q267.582 640 231.663 575.5 Q195.743 511 186.78 438 Q177.816 365 197.397 300.5 Q216.977 236 259.022 187.5 Q301.067 139 362.129 111 Q423.191 83 496.191 83 Q567.191 83 635.445 109.5 Q703.699 136 760.961 187 L812.716 128 Q743.104 66 658.552 33 Q574 0 487 0 Q397 0 321.236 34.5 Q245.472 69 193.778 128.5 Q142.083 188 117.406 268 Q92.729 348 103.78 438 Q114.83 528 159.153 608 Q203.476 688 269.72 747 Q335.964 806 420.2 840.5 Q504.436 875 594.436 875 Q681.436 875 757.885 842 Q834.333 809 888.72 747 L822.599 689 Q778.738 739 717.992 765.5 Q657.245 792 586.245 792 Z M717.4 948 L615.643 1064 Q605.993 1075 589.493 1075 Q572.993 1075 560.643 1064 L430.4 948 L384.785 1000 L604.85 1196 L776.785 1000 L718.4 948 L717.4 948 Z " />
<glyph glyph-name="Cdotaccent" unicode="&#x10a;" horiz-adv-x="847" d="M586.245 792 Q513.245 792 444.807 764 Q376.369 736 321.976 688 Q267.582 640 231.663 575.5 Q195.743 511 186.78 438 Q177.816 365 197.397 300.5 Q216.977 236 259.022 187.5 Q301.067 139 362.129 111 Q423.191 83 496.191 83 Q567.191 83 635.445 109.5 Q703.699 136 760.961 187 L812.716 128 Q743.104 66 658.552 33 Q574 0 487 0 Q397 0 321.236 34.5 Q245.472 69 193.778 128.5 Q142.083 188 117.406 268 Q92.729 348 103.78 438 Q114.83 528 159.153 608 Q203.476 688 269.72 747 Q335.964 806 420.2 840.5 Q504.436 875 594.436 875 Q681.436 875 757.885 842 Q834.333 809 888.72 747 L822.599 689 Q778.738 739 717.992 765.5 Q657.245 792 586.245 792 Z M662.854 1025 Q660.03 1002 641.504 985.5 Q622.978 969 599.978 969 Q576.978 969 562.504 985.5 Q548.03 1002 550.854 1025 Q553.678 1048 572.204 1064.5 Q590.73 1081 613.73 1081 Q636.73 1081 651.204 1064.5 Q665.678 1048 662.854 1025 Z " />
<glyph glyph-name="Aogonek" unicode="&#x104;" horiz-adv-x="934" d="M903.057 -195 Q849.163 -243 785.163 -243 Q753.163 -243 726.198 -230.5 Q699.233 -218 680.811 -197 Q662.39 -176 653.389 -147.5 Q644.389 -119 648.318 -87 Q651.878 -58 664.51 -32.5 Q677.141 -7 696.596 13 Q716.052 33 741.209 46.5 Q766.367 60 793.981 65 L718.467 297 Q715.063 310 703.984 317.5 Q692.905 325 678.905 325 L334.905 325 Q320.905 325 307.984 317.5 Q295.063 310 288.467 297 L118 0 L30 0 L530.436 875 L618.436 875 L904 0 L816 0 Q779 0 750.43 -25 Q721.861 -50 717.441 -86 Q713.143 -121 735.073 -146 Q757.004 -171 793.004 -171 Q810.004 -171 826.863 -164 Q843.723 -157 858.196 -145 L903.057 -195 Z M349.605 404 L683.605 404 L562.404 777 L349.605 404 Z " />
<glyph glyph-name="Amacron" unicode="&#x100;" horiz-adv-x="934" d="M904 0 L816 0 L718.467 297 Q715.063 310 703.984 317.5 Q692.905 325 678.905 325 L334.905 325 Q320.905 325 307.984 317.5 Q295.063 310 288.467 297 L118 0 L30 0 L530.436 875 L618.436 875 L904 0 Z M414.169 1052 L423.747 1130 L786.747 1130 L777.169 1052 L414.169 1052 Z M349.605 404 L683.605 404 L562.404 777 L349.605 404 Z " />
<glyph glyph-name="Hbar" unicode="&#x126;" horiz-adv-x="942" d="M109.459 639 L119.282 719 L183.282 719 L202.436 875 L284.436 875 L265.282 719 L853.282 719 L872.436 875 L954.436 875 L935.282 719 L999.282 719 L989.459 639 L925.459 639 L847 0 L765 0 L810.43 370 Q811.781 381 804.825 389.5 Q797.868 398 786.868 398 L252.868 398 Q241.868 398 232.825 389.5 Q223.781 381 222.43 370 L177 0 L95 0 L173.459 639 L109.459 639 Z M827.006 505 L843.459 639 L255.459 639 L239.006 505 Q237.656 494 244.612 485.5 Q251.568 477 262.568 477 L796.568 477 Q807.568 477 816.612 485.5 Q825.656 494 827.006 505 Z " />
<glyph glyph-name="Lacute" unicode="&#x139;" horiz-adv-x="712" d="M285.436 875 L193.103 123 Q190.647 103 200.235 91.5 Q209.823 80 229.823 80 L686.823 80 L677 0 L95 0 L202.436 875 L285.436 875 Z M326.521 1006 L257.521 1006 L464.41 1282 L528.639 1235 L326.521 1006 Z " />
<glyph glyph-name="Jcircumflex" unicode="&#x134;" horiz-adv-x="728" d="M598.343 353 L662.314 874 L745.314 874 L681.343 353 Q672.38 280 636.96 215.5 Q601.54 151 547.647 103 Q493.753 55 425.877 27.5 Q358 0 285 0 Q211 0 150.377 27.5 Q89.7532 55 47.6468 103 L112.768 161 Q145.225 124 191.147 103 Q237.068 82 294.068 82 Q350.068 82 402.208 103.5 Q454.348 125 495.33 161.5 Q536.311 198 563.889 247.5 Q591.467 297 598.343 353 Z M857.4 948 L777.573 1039 Q770.555 1047 762.16 1056 Q753.766 1065 744.441 1070.5 Q735.116 1076 724.055 1075.5 Q712.993 1075 700.643 1064 L570.4 948 L524.785 1000 L744.85 1196 L916.785 1000 L858.4 948 L857.4 948 Z " />
<glyph glyph-name="aeacute" unicode="&#x1fd;" horiz-adv-x="1045" d="M608.138 107 Q606.787 96 613.805 88 Q620.823 80 631.823 80 L1006.82 80 L997 0 L513 0 L558.921 374 Q558.272 385 552.07 391.5 Q545.868 398 534.868 398 L275.868 398 Q258.868 398 244.018 387 Q229.167 376 223.08 359 L109 0 L30 0 L307.436 875 L620.436 875 L1104.31 874 L1094.61 795 L719.614 795 Q708.614 795 699.631 787 Q690.649 779 689.176 767 L657.006 505 Q655.533 493 662.551 485 Q669.568 477 680.568 477 L1055.57 477 L1045.75 397 L643.745 397 L608.138 107 Z M571.691 478 L608.035 774 Q607.386 785 601.184 791.5 Q594.982 798 583.982 798 L362.982 798 L259.691 478 L571.691 478 Z M685.521 1006 L615.521 1006 L822.41 1282 L887.639 1235 L685.521 1006 Z " />
<glyph glyph-name="Eth" unicode="&#xd0;" horiz-adv-x="874" d="M78.7455 397 L88.5682 477 L153.568 477 L202.436 875 L488.436 875 Q578.436 875 654.2 840.5 Q729.964 806 781.659 746.5 Q833.353 687 858.03 607 Q882.707 527 871.657 437 Q860.606 347 816.283 267 Q771.961 187 705.716 128 Q639.472 69 555.236 34.5 Q471 0 381 0 L95 0 L143.745 397 L78.7455 397 Z M788.411 435 Q796.883 504 778.303 568.5 Q759.723 633 719.3 682.5 Q678.878 732 620.062 762 Q561.245 792 489.245 792 L300.245 792 Q289.245 792 281.324 784.5 Q273.404 777 272.053 766 L236.568 477 L534.568 477 L524.745 397 L226.745 397 L191.261 108 Q189.91 97 196.051 90 Q202.191 83 213.191 83 L402.191 83 Q472.191 83 538.313 112.5 Q604.435 142 656.89 190.5 Q709.346 239 744.642 302.5 Q779.939 366 788.411 435 Z " />
<glyph glyph-name="commaaccent" unicode="&#xf6c3;" horiz-adv-x="454" d="M167.565 -142 L250.565 -142 L194.062 -423 L133.062 -423 L167.565 -142 Z " />
<glyph glyph-name="Lcommaaccent" unicode="&#x13b;" horiz-adv-x="712" d="M285.436 875 L193.103 123 Q190.647 103 200.235 91.5 Q209.823 80 229.823 80 L686.823 80 L677 0 L95 0 L202.436 875 L285.436 875 Z M290.565 -142 L373.565 -142 L317.062 -423 L256.062 -423 L290.565 -142 Z " />
<glyph glyph-name="Ldot" unicode="&#x13f;" horiz-adv-x="712" d="M285.436 875 L193.103 123 Q190.647 103 200.235 91.5 Q209.823 80 229.823 80 L686.823 80 L677 0 L95 0 L202.436 875 L285.436 875 Z M579.271 442 Q576.447 419 557.921 402.5 Q539.395 386 516.395 386 Q493.395 386 478.921 402.5 Q464.447 419 467.271 442 Q470.095 465 488.621 481.5 Q507.147 498 530.147 498 Q553.147 498 567.621 481.5 Q582.095 465 579.271 442 Z " />
<glyph glyph-name="Abreve" unicode="&#x102;" horiz-adv-x="934" d="M904 0 L816 0 L749.925 203 Q743.89 219 738.53 240.5 Q733.17 262 725.441 280.5 Q717.713 299 706.309 312 Q694.905 325 678.905 325 L334.905 325 Q320.905 325 307.984 317.5 Q295.063 310 288.467 297 L118 0 L30 0 L530.436 875 L618.436 875 L904 0 Z M665.747 1130 L741.747 1130 Q738.309 1102 724.739 1077 Q711.169 1052 690.398 1033.5 Q669.626 1015 643.337 1004.5 Q617.048 994 589.048 994 Q561.048 994 537.337 1004.5 Q513.626 1015 497.398 1033.5 Q481.169 1052 473.739 1077 Q466.309 1102 469.747 1130 L545.747 1130 Q542.677 1105 558.028 1087.5 Q573.379 1070 597.257 1069 Q623.257 1069 642.967 1087 Q662.677 1105 665.747 1130 Z M349.605 404 L683.605 404 L562.404 777 L349.605 404 Z " />
<glyph glyph-name="Thorn" unicode="&#xde;" horiz-adv-x="786" d="M202.314 874 L268.314 874 L246.458 696 Q246.107 685 252.748 678 Q259.388 671 270.388 671 L592.388 671 Q640.388 671 681.117 652.5 Q721.845 634 749.978 602.5 Q778.11 571 791.33 528 Q804.551 485 798.657 437 Q792.763 389 768.983 346 Q745.204 303 709.336 271.5 Q673.468 240 628.197 221.5 Q582.925 203 534.925 203 L212.925 203 Q201.925 203 193.566 196 Q185.206 189 182.856 178 L161 0 L95 0 L202.314 874 Z M732.657 437 Q737.077 473 726.445 504.5 Q715.813 536 694.575 558.5 Q673.338 581 642.934 594 Q612.53 607 576.53 607 L262.53 607 Q251.53 607 242.487 598.5 Q233.443 590 232.092 579 L197.221 295 Q195.871 284 202.827 275.5 Q209.783 267 220.783 267 L534.783 267 Q570.783 267 604.38 280 Q637.976 293 664.739 315.5 Q691.501 338 709.869 369.5 Q728.237 401 732.657 437 Z " />
<glyph glyph-name="space" unicode="&#x20;" horiz-adv-x="454" d="" />
<glyph glyph-name="at" unicode="&#x40;" horiz-adv-x="994" d="M760.29 377 Q758.483 346 776.721 323.5 Q794.958 301 826.958 301 Q858.958 301 883.659 323 Q908.361 345 912.29 377 L925.796 487 Q933.9 553 911.583 611.5 Q889.266 670 844.607 713.5 Q799.948 757 735.579 782.5 Q671.21 808 596.21 808 Q519.21 808 448.149 779 Q377.088 750 320.388 699.5 Q263.687 649 226.399 581.5 Q189.111 514 179.78 438 Q170.448 362 191.16 294.5 Q211.872 227 256.11 176 Q300.348 125 363.726 95.5 Q427.104 66 504.104 66 Q578.104 66 650.042 94 Q721.98 122 781.487 175 L822.716 128 Q753.104 66 668.552 33 Q584 0 497 0 Q407 0 331.236 34.5 Q255.472 69 203.716 128 Q151.961 187 127.283 267 Q102.606 347 113.657 437 Q124.707 527 169.03 607 Q213.353 687 279.597 746 Q345.842 805 430.078 839.5 Q514.314 874 604.314 874 Q695.314 874 770.946 842.5 Q846.578 811 898.948 757 Q951.318 703 976.977 631 Q1002.64 559 992.568 477 L980.29 377 Q976.729 348 962.037 322 Q947.344 296 925.45 276.5 Q903.556 257 876.144 245.5 Q848.732 234 818.732 234 Q777.732 234 747.249 254.5 Q716.766 275 701.818 308 Q670.52 273 626.626 253.5 Q582.732 234 525.732 234 Q472.732 234 434.819 251 Q396.906 268 373.467 297 Q350.028 326 340.878 365.5 Q331.728 405 337.13 449 Q343.761 503 365.295 544 Q386.829 585 418.767 613 Q450.705 641 491.985 655.5 Q533.266 670 579.266 670 Q621.266 670 657.854 658.5 Q694.442 647 721.056 623.5 Q747.671 600 761.935 565.5 Q776.199 531 772.673 486 L760.29 377 Z M702.13 449 Q711.094 522 674.444 561.5 Q637.794 601 570.916 602 Q503.794 601 457.444 561.5 Q411.094 522 402.13 449 Q397.71 413 406.211 384.5 Q414.711 356 432.317 336.5 Q449.923 317 476.195 307 Q502.467 297 533.467 297 Q564.467 297 593.195 307 Q621.923 317 644.317 336.5 Q666.711 356 682.211 384.5 Q697.71 413 702.13 449 Z " />
<glyph glyph-name="divide" unicode="&#xf7;" horiz-adv-x="282" d="M163.101 180 Q140.101 180 125.627 196.5 Q111.153 213 113.977 236 Q116.801 259 135.327 275.5 Q153.853 292 176.853 292 Q199.853 292 214.327 275.5 Q228.801 259 225.977 236 Q223.153 213 204.627 196.5 Q186.101 180 163.101 180 Z M211.847 577 Q188.847 577 174.373 593.5 Q159.899 610 162.723 633 Q165.547 656 184.073 672.5 Q202.599 689 225.599 689 Q248.599 689 263.073 672.5 Q277.547 656 274.723 633 Q271.899 610 253.373 593.5 Q234.847 577 211.847 577 Z M-30.395 404 L-22.2913 470 L420.709 470 L412.605 404 L-30.395 404 Z " />
<glyph glyph-name="thorn" unicode="&#xfe;" horiz-adv-x="786" d="M202.314 874 L285.314 874 L264.318 703 Q263.967 692 270.607 685 Q277.248 678 288.248 678 L593.248 678 Q643.248 678 684.915 659 Q726.582 640 755.592 607.5 Q784.601 575 798.699 531 Q812.796 487 806.657 437 Q800.518 387 775.615 343 Q750.713 299 713.722 266.5 Q676.732 234 630.399 215 Q584.066 196 534.066 196 L229.066 196 Q218.066 196 209.706 189 Q201.347 182 198.996 171 L178 0 L95 0 L202.314 874 Z M725.657 437 Q729.954 472 719.638 502 Q709.321 532 689.023 554 Q668.724 576 639.259 588.5 Q609.794 601 575.794 601 L278.794 601 Q267.794 601 258.75 592.5 Q249.706 584 248.356 573 L215.081 302 Q213.73 291 220.687 282.5 Q227.643 274 238.643 274 L535.643 274 Q569.643 274 602.178 286.5 Q634.713 299 660.352 320.5 Q685.992 342 703.676 372 Q721.359 402 725.657 437 Z " />
<glyph glyph-name="trademark" unicode="&#x2122;" horiz-adv-x="554" d="M602.436 875 L631.436 875 L601.231 629 L572.231 629 L597.402 834 L480.51 729 L389.402 834 L364.231 629 L335.231 629 L365.436 875 L394.436 875 L480.281 776 Q482.035 774 485.535 774 Q489.035 774 491.281 776 L602.436 875 Z M133.876 846 L137.436 875 L339.436 875 L335.876 846 L259.876 846 Q255.876 846 252.007 843 Q248.139 840 247.525 835 L222.231 629 L194.231 629 L219.525 835 Q220.876 846 209.876 846 L133.876 846 Z " />
<glyph glyph-name="registered" unicode="&#xae;" horiz-adv-x="520" d="M475.087 807 Q472.509 786 456.237 767.5 Q439.966 749 419.352 744 Q411.106 742 410.124 734 Q409.878 732 415.037 717 Q420.195 702 426.923 683.5 Q433.652 665 440.126 648.5 Q446.6 632 448.109 628 L415.109 628 L372.106 742 L292.106 742 Q280.106 742 278.756 731 L266.109 628 L237.109 628 L267.314 874 L417.314 874 Q445.314 874 461.919 854.5 Q478.525 835 475.087 807 Z M405.79 772 Q419.79 772 431.079 782.5 Q442.368 793 444.087 807 Q446.052 823 437.28 833 Q428.507 843 413.507 843 L301.507 843 Q292.507 843 291.402 834 L284.895 781 Q283.79 772 292.79 772 L405.79 772 Z M121.72 747 Q127.614 795 150.709 836.5 Q173.805 878 209.173 909.5 Q244.54 941 288.25 959 Q331.961 977 379.961 977 Q427.961 977 467.25 959 Q506.54 941 534.173 909.5 Q561.805 878 574.709 836.5 Q587.614 795 581.72 747 Q575.826 699 552.731 657.5 Q529.635 616 494.268 584.5 Q458.9 553 415.19 535 Q371.48 517 323.48 517 Q275.48 517 236.19 535 Q196.9 553 169.268 584.5 Q141.635 616 128.731 657.5 Q115.826 699 121.72 747 Z M153.72 747 Q148.686 706 159.766 670 Q170.845 634 194.53 607 Q218.215 580 252.312 564.5 Q286.409 549 327.409 549 Q368.409 549 406.312 564.5 Q444.215 580 474.53 607 Q504.845 634 524.766 670 Q544.686 706 549.72 747 Q554.754 788 543.674 824 Q532.595 860 508.91 887 Q485.225 914 451.128 929.5 Q417.031 945 376.031 945 Q335.031 945 297.128 929.5 Q259.225 914 228.91 887 Q198.595 860 178.674 824 Q158.754 788 153.72 747 Z " />
<glyph glyph-name="copyright" unicode="&#xa9;" horiz-adv-x="520" d="M121.72 747 Q127.614 795 150.709 836.5 Q173.805 878 209.173 909.5 Q244.54 941 288.25 959 Q331.961 977 379.961 977 Q427.961 977 467.25 959 Q506.54 941 534.173 909.5 Q561.805 878 574.709 836.5 Q587.614 795 581.72 747 Q575.826 699 552.731 657.5 Q529.635 616 494.268 584.5 Q458.9 553 415.19 535 Q371.48 517 323.48 517 Q275.48 517 236.19 535 Q196.9 553 169.268 584.5 Q141.635 616 128.731 657.5 Q115.826 699 121.72 747 Z M153.72 747 Q148.686 706 159.766 670 Q170.845 634 194.53 607 Q218.215 580 252.312 564.5 Q286.409 549 327.409 549 Q368.409 549 406.312 564.5 Q444.215 580 474.53 607 Q504.845 634 524.766 670 Q544.686 706 549.72 747 Q554.754 788 543.674 824 Q532.595 860 508.91 887 Q485.225 914 451.128 929.5 Q417.031 945 376.031 945 Q335.031 945 297.128 929.5 Q259.225 914 228.91 887 Q198.595 860 178.674 824 Q158.754 788 153.72 747 Z M370.771 837 Q333.771 837 304.017 810.5 Q274.263 784 269.72 747 Q267.387 728 272.361 711.5 Q277.335 695 287.862 683 Q298.388 671 313.529 664 Q328.669 657 346.669 657 Q384.669 657 414.739 682 L436.915 659 Q417.828 642 393.661 632.5 Q369.495 623 345.495 623 Q319.495 623 298.223 633 Q276.95 643 261.976 659.5 Q247.002 676 240.265 698.5 Q233.528 721 236.72 747 Q239.79 772 252.052 794.5 Q264.315 817 283.402 834 Q302.49 851 326.156 860.5 Q349.823 870 375.823 870 Q399.823 870 421.656 860.5 Q443.49 851 458.402 834 L430.701 812 Q419.052 823 403.911 830 Q388.771 837 370.771 837 Z " />
<glyph glyph-name="eth" unicode="&#xf0;" horiz-adv-x="829" d="M595.162 604 L558.406 663 L678.457 753 Q650.14 783 607.166 799.5 Q564.192 816 501.315 817 L515.787 886 Q593.542 884 649.218 861 Q704.893 838 741.982 798 L857.419 883 L894.174 824 L779.738 739 Q808.107 685 815.513 615 Q822.918 545 812.972 464 L791.976 293 Q783.013 220 749.575 163.5 Q716.138 107 663.911 68.5 Q611.684 30 544.228 10 Q476.772 -10 399.772 -10 Q317.772 -10 256.912 11.5 Q196.052 33 157.218 71 Q118.384 109 102.268 161 Q86.1531 213 93.7658 275 Q101.133 335 130.395 386 Q159.657 437 208.2 474 Q256.743 511 322.321 532 Q387.9 553 468.9 553 Q523.9 553 567.611 542.5 Q611.321 532 644.234 515 Q677.147 498 699.13 477.5 Q721.113 457 732.657 437 L737.323 475 Q745.181 539 740.995 594.5 Q736.81 650 716.212 694 L595.162 604 Z M459.445 476 Q397.445 476 347.226 462 Q297.007 448 260.754 421.5 Q224.5 395 202.518 358.5 Q180.537 322 175.011 277 Q169.24 230 182.452 191 Q195.663 152 225.725 124 Q255.787 96 301.884 80.5 Q347.981 65 408.981 65 Q479.981 65 533.63 82.5 Q587.278 100 624.962 130 Q662.646 160 683.496 199.5 Q704.346 239 709.748 283 Q715.642 331 699.562 367 Q683.482 403 649.929 427 Q616.376 451 567.411 463.5 Q518.445 476 459.445 476 Z " />
<glyph glyph-name="degree" unicode="&#xb0;" horiz-adv-x="306" d="M233.301 654 Q253.301 654 271.722 661.5 Q290.143 669 304.8 682.5 Q319.458 696 329.107 713.5 Q338.756 731 341.211 751 Q346.123 791 321.499 818.5 Q296.876 846 256.876 846 Q216.876 846 184.999 818.5 Q153.123 791 148.211 751 Q145.756 731 151.107 713.5 Q156.458 696 168.3 682.5 Q180.143 669 196.722 661.5 Q213.301 654 233.301 654 Z M260.314 874 Q285.314 874 306.647 864.5 Q327.981 855 342.893 838 Q357.806 821 364.543 798.5 Q371.281 776 368.211 751 Q365.019 725 352.818 703 Q340.616 681 321.529 664 Q302.442 647 278.775 637.5 Q255.109 628 230.109 628 Q204.109 628 183.275 637.5 Q162.442 647 147.529 664 Q132.616 681 125.818 703 Q119.019 725 122.211 751 Q125.281 776 137.543 798.5 Q149.806 821 168.893 838 Q187.981 855 211.147 864.5 Q234.314 874 260.314 874 Z " />
<glyph glyph-name="percent" unicode="&#x25;" horiz-adv-x="789" d="M821.405 720 L126.524 102 L80.0316 155 L774.912 773 L821.405 720 Z M622.571 363 Q651.571 363 676.22 352 Q700.87 341 717.475 321.5 Q734.081 302 741.889 276 Q749.696 250 746.135 221 Q742.575 192 728.382 166 Q714.19 140 692.857 121 Q671.524 102 644.173 91 Q616.823 80 587.823 80 Q558.823 80 534.173 91 Q509.524 102 492.357 121 Q475.19 140 467.382 166 Q459.575 192 463.135 221 Q466.696 250 480.889 276 Q495.081 302 516.975 321.5 Q538.87 341 566.22 352 Q593.571 363 622.571 363 Z M301.455 810 Q330.455 810 355.105 799 Q379.754 788 396.36 768.5 Q412.966 749 420.773 723 Q428.581 697 425.02 668 Q421.459 639 407.267 613 Q393.075 587 371.742 568 Q350.409 549 323.058 538 Q295.707 527 266.707 527 Q237.707 527 213.058 538 Q188.409 549 171.242 568 Q154.075 587 146.267 613 Q138.459 639 142.02 668 Q145.581 697 159.773 723 Q173.966 749 195.86 768.5 Q217.754 788 245.105 799 Q272.455 810 301.455 810 Z M595.681 144 Q627.681 144 651.944 166.5 Q676.206 189 680.135 221 Q684.064 253 665.204 274.5 Q646.344 296 614.344 296 Q582.344 296 556.704 274.5 Q531.064 253 527.135 221 Q525.171 205 529.452 191 Q533.733 177 542.944 166.5 Q552.154 156 565.918 150 Q579.681 144 595.681 144 Z M274.566 591 Q306.566 591 330.828 613.5 Q355.091 636 359.02 668 Q362.949 700 344.089 721.5 Q325.229 743 293.229 743 Q261.229 743 235.589 721.5 Q209.949 700 206.02 668 Q204.056 652 208.337 638 Q212.618 624 221.828 613.5 Q231.039 603 244.802 597 Q258.566 591 274.566 591 Z " />
<glyph glyph-name="less" unicode="&#x3c;" horiz-adv-x="341" d="M73.5341 436 L350.967 692 L399.337 638 L183.657 437 L351.328 247 L289.452 191 L73.5341 436 Z " />
<glyph glyph-name="lessequal" unicode="&#x2264;" horiz-adv-x="490" d="M42.224 181 L51.924 260 L293.924 260 L133.534 436 L410.967 692 L459.337 638 L244.657 437 L399.538 265 L501.924 260 L492.224 181 L42.224 181 Z " />
<glyph glyph-name="asciitilde" unicode="&#x7e;" horiz-adv-x="418" d="M79.9189 488 Q114.971 521 147.401 524.5 Q179.83 528 209.48 517 Q239.129 506 268.857 487.5 Q298.586 469 328.235 458 Q357.885 447 390.314 450.5 Q422.744 454 457.796 487 L448.219 409 Q412.167 376 380.737 372.5 Q349.308 369 318.658 380 Q288.009 391 258.78 409.5 Q229.552 428 199.902 439 Q170.253 450 137.823 446.5 Q105.394 443 70.3417 410 L79.9189 488 Z " />
<glyph glyph-name="notequal" unicode="&#x2260;" horiz-adv-x="483" d="M102.734 120 L177.397 272 L53.3974 272 L63.2202 352 L215.22 352 L297.094 522 L84.0935 522 L93.9163 602 L334.916 602 L421.895 781 L490.948 757 L414.916 602 L539.916 602 L530.094 522 L377.094 522 L295.22 352 L509.22 352 L499.397 272 L257.397 272 L171.787 96 L102.734 120 Z " />
<glyph glyph-name="middot" unicode="&#xb7;" horiz-adv-x="282" d="M187.658 380 Q161.658 380 146.307 397.5 Q130.956 415 134.148 441 Q137.34 467 156.989 484.5 Q176.638 502 202.638 502 Q228.638 502 243.989 484.5 Q259.34 467 256.148 441 Q252.956 415 233.307 397.5 Q213.658 380 187.658 380 Z " />
<glyph glyph-name="bullet" unicode="&#x2022;" horiz-adv-x="360" d="M221.87 341 Q181.87 341 157.746 368.5 Q133.623 396 138.534 436 Q143.445 476 174.322 503.5 Q205.199 531 245.199 531 Q285.199 531 309.322 503.5 Q333.445 476 328.534 436 Q323.623 396 292.746 368.5 Q261.87 341 221.87 341 Z " />
<glyph glyph-name="asterisk" unicode="&#x2a;" horiz-adv-x="491" d="M390.638 502 L320.758 617 L222.638 502 L169.04 546 L266.161 661 L136.686 706 L168.158 775 L297.878 732 L315.314 874 L389.314 874 L371.756 731 L513.158 775 L527.686 706 L386.161 661 Q403.6 632 421.916 602 Q440.233 572 457.04 546 L390.638 502 Z " />
<glyph glyph-name="guilsinglleft" unicode="&#x2039;" horiz-adv-x="492" d="M188.34 467 Q221.411 435 257.737 401 Q294.062 367 329.133 335 L467.416 207 L409.049 147 L103.166 433 L111.515 501 L487.631 787 L531.264 727 L188.34 467 Z " />
<glyph glyph-name="guilsinglright" unicode="&#x203a;" horiz-adv-x="492" d="M139.264 727 L197.631 787 L503.515 501 L495.166 433 L119.049 147 L75.4164 207 L418.34 467 L139.264 727 Z " />
<glyph glyph-name="guillemotleft" unicode="&#xab;" horiz-adv-x="820" d="M188.34 467 Q205.253 450 224.982 431.5 Q244.71 413 275.211 384.5 Q305.711 356 351.493 313.5 Q397.275 271 467.416 207 L409.049 147 L103.166 433 L111.515 501 L487.631 787 L531.264 727 L188.34 467 Z M516.34 467 L795.416 207 L737.049 147 L431.166 433 L439.515 501 L815.631 787 L859.264 727 L516.34 467 Z " />
<glyph glyph-name="partialdiff" unicode="&#x2202;" horiz-adv-x="826" d="M399.772 -10 Q317.772 -10 256.912 11.5 Q196.052 33 157.218 71 Q118.384 109 102.268 161 Q86.1531 213 93.7658 275 Q101.133 335 130.395 386 Q159.657 437 208.2 474 Q256.743 511 322.321 532 Q387.9 553 468.9 553 Q523.9 553 567.111 542.5 Q610.321 532 641.795 515.5 Q673.269 499 694.814 479 Q716.358 459 727.902 439 L732.323 475 Q740.918 545 735.407 606 Q729.897 667 703.923 712 Q677.948 757 628.202 783.5 Q578.455 810 498.578 811 L515.787 886 Q608.542 884 670.99 851 Q733.438 818 768.562 762 Q803.686 706 813.793 629.5 Q823.9 553 812.972 464 L791.976 293 Q783.013 220 749.575 163.5 Q716.138 107 663.911 68.5 Q611.684 30 544.228 10 Q476.772 -10 399.772 -10 Z M459.445 476 Q397.445 476 347.226 462 Q297.007 448 260.754 421.5 Q224.5 395 202.518 358.5 Q180.537 322 175.011 277 Q169.24 230 182.452 191 Q195.663 152 225.725 124 Q255.787 96 301.884 80.5 Q347.981 65 408.981 65 Q479.981 65 533.63 82.5 Q587.278 100 624.962 130 Q662.646 160 683.496 199.5 Q704.346 239 709.748 283 Q715.642 331 699.562 367 Q683.482 403 649.929 427 Q616.376 451 567.411 463.5 Q518.445 476 459.445 476 Z " />
<glyph glyph-name="quotedbl" unicode="&#x22;" horiz-adv-x="409" d="M349.109 628 L432.109 628 L375.606 347 L314.606 347 L349.109 628 Z M137.109 628 L220.109 628 L163.606 347 L102.606 347 L137.109 628 Z " />
<glyph glyph-name="quotedblleft" unicode="&#x201c;" horiz-adv-x="415" d="M102.606 347 L137.109 628 L198.109 628 L185.606 347 L102.606 347 Z M314.606 347 L349.109 628 L410.109 628 L397.606 347 L314.606 347 Z " />
<glyph glyph-name="quotedblright" unicode="&#x201d;" horiz-adv-x="415" d="M432.109 628 L397.606 347 L336.606 347 L349.109 628 L432.109 628 Z M220.109 628 L185.606 347 L124.606 347 L137.109 628 L220.109 628 Z " />
<glyph glyph-name="quotesingle" unicode="&#x27;" horiz-adv-x="203" d="M167.436 875 L250.436 875 L193.934 594 L132.934 594 L167.436 875 Z " />
<glyph glyph-name="quotesinglbase" unicode="&#x201a;" horiz-adv-x="203" d="M94.5025 281 L177.502 281 L121 0 L60 0 L94.5025 281 Z " />
<glyph glyph-name="quotedblbase" unicode="&#x201e;" horiz-adv-x="415" d="M306.502 281 L389.502 281 L333 0 L272 0 L306.502 281 Z M94.5025 281 L177.502 281 L121 0 L60 0 L94.5025 281 Z " />
<glyph glyph-name="quoteleft" unicode="&#x2018;" horiz-adv-x="203" d="M185.606 347 L102.606 347 L159.109 628 L220.109 628 L185.606 347 Z " />
<glyph glyph-name="quoteright" unicode="&#x2019;" horiz-adv-x="203" d="M137.109 628 L220.109 628 L163.606 347 L102.606 347 L137.109 628 Z " />
<glyph glyph-name="endash" unicode="&#x2013;" horiz-adv-x="926" d="M68.7455 397 L78.5682 477 L964.568 477 L954.745 397 L68.7455 397 Z " />
<glyph glyph-name="emdash" unicode="&#x2014;" horiz-adv-x="1369" d="M68.7455 397 L78.5682 477 L1407.57 477 L1397.75 397 L68.7455 397 Z " />
<glyph glyph-name="fraction" unicode="&#x2044;" horiz-adv-x="522" d="M-41.157 -42 L542.645 950 L610.593 917 L26.6684 -76 L-41.157 -42 Z " />
<glyph glyph-name="b" unicode="b" horiz-adv-x="807" d="M830.582 640 Q822.478 574 783.471 521 Q744.463 468 687.657 437 Q736.973 407 762.904 353.5 Q788.835 300 780.732 234 Q774.838 186 751.058 143 Q727.278 100 691.411 68.5 Q655.543 37 610.772 18.5 Q566 0 517 0 L95 0 L202.436 875 L624.436 875 Q673.436 875 713.665 856.5 Q753.893 838 781.964 806 Q810.035 774 823.317 731.5 Q836.599 689 830.582 640 Z M699.977 236 Q704.029 269 695.151 298.5 Q686.273 328 666.975 350 Q647.676 372 619.772 385 Q591.868 398 558.868 398 L251.623 396 Q240.623 396 232.763 389 Q224.904 382 223.553 371 L190.401 101 Q189.051 90 195.191 83 Q201.332 76 212.332 76 L519.332 76 Q552.332 76 583.366 88.5 Q614.401 101 639.103 123 Q663.804 145 679.865 174 Q695.925 203 699.977 236 Z M568.568 477 Q601.568 477 632.664 490 Q663.761 503 687.901 524.5 Q712.04 546 728.163 575.5 Q744.285 605 748.337 638 Q752.388 671 743.511 700.5 Q734.633 730 715.834 752 Q697.035 774 669.07 786.5 Q641.105 799 608.105 799 L301.105 799 Q290.105 799 282.184 791.5 Q274.263 784 272.912 773 L239.761 503 Q238.41 492 244.551 485 Q250.691 478 261.691 478 L568.568 477 Z " />
<glyph glyph-name="f" unicode="f" horiz-adv-x="751" d="M240.006 505 Q238.533 493 245.551 485 Q252.568 477 263.568 477 L769.568 477 L759.745 397 L253.745 397 Q242.745 397 233.763 389 Q224.781 381 223.43 370 L178 0 L95 0 L202.436 875 L818.314 874 L808.614 795 L302.614 795 Q291.614 795 282.631 787 Q273.649 779 272.176 767 L240.006 505 Z " />
<glyph glyph-name="m" unicode="m" horiz-adv-x="1074" d="M1004.44 875 L1086.44 875 L979 0 L897 0 L990.562 762 L586.359 402 L271.562 762 L178 0 L95 0 L202.436 875 L285.436 875 L582.69 535 Q589.707 527 601.707 527 Q613.707 527 622.69 535 L1004.44 875 Z " />
<glyph glyph-name="p" unicode="p" horiz-adv-x="795" d="M560.323 475 Q594.323 475 626.357 487.5 Q658.392 500 684.032 521.5 Q709.672 543 726.794 572.5 Q743.916 602 748.214 637 Q752.266 670 743.326 699 Q734.387 728 715.088 750 Q695.79 772 668.324 784.5 Q640.859 797 607.859 797 L300.859 797 Q289.859 797 281.938 789.5 Q274.018 782 272.667 771 L239.761 503 Q238.41 492 245.366 483.5 Q252.323 475 263.323 475 L560.323 475 Z M612.436 875 Q661.436 875 704.165 856.5 Q746.893 838 776.964 806 Q807.035 774 821.694 730.5 Q836.353 687 830.214 637 Q824.197 588 799.856 544.5 Q775.515 501 739.586 469 Q703.657 437 657.824 418 Q611.991 399 562.991 399 L253.991 399 Q242.991 399 233.947 390.5 Q224.904 382 223.553 371 L178 0 L95 0 L202.436 875 L612.436 875 Z " />
<glyph glyph-name="v" unicode="v" horiz-adv-x="935" d="M480.033 98 L924.436 875 L1012.44 875 L512 0 L423 0 L137.436 875 L226.436 875 L480.033 98 Z " />
<glyph glyph-name="caron" unicode="&#x2c7;" horiz-adv-x="396" d="M488.85 1196 L534.466 1144 L314.4 948 L142.466 1144 L200.85 1196 L302.607 1080 Q312.257 1069 328.757 1069 Q345.257 1069 357.607 1080 L422.729 1138 Q447.43 1160 467.64 1178 Q487.85 1196 488.85 1196 Z " />
<glyph glyph-name="Ccaron" unicode="&#x10c;" horiz-adv-x="847" d="M586.245 792 Q513.245 792 444.807 764 Q376.369 736 321.976 688 Q267.582 640 231.663 575.5 Q195.743 511 186.78 438 Q177.816 365 197.397 300.5 Q216.977 236 259.022 187.5 Q301.067 139 362.129 111 Q423.191 83 496.191 83 Q567.191 83 635.445 109.5 Q703.699 136 760.961 187 L812.716 128 Q743.104 66 658.552 33 Q574 0 487 0 Q397 0 321.236 34.5 Q245.472 69 193.778 128.5 Q142.083 188 117.406 268 Q92.729 348 103.78 438 Q114.83 528 159.153 608 Q203.476 688 269.72 747 Q335.964 806 420.2 840.5 Q504.436 875 594.436 875 Q681.436 875 757.885 842 Q834.333 809 888.72 747 L822.599 689 Q778.738 739 717.992 765.5 Q657.245 792 586.245 792 Z M718.85 1196 L764.466 1144 L544.4 948 L372.466 1144 L430.85 1196 L532.607 1080 Q542.257 1069 558.757 1069 Q575.257 1069 587.607 1080 L652.729 1138 Q677.43 1160 697.64 1178 Q717.85 1196 718.85 1196 Z " />
<glyph glyph-name="Ccedilla" unicode="&#xc7;" horiz-adv-x="847" d="M586.245 792 Q513.245 792 444.807 764 Q376.369 736 321.976 688 Q267.582 640 231.663 575.5 Q195.743 511 186.78 438 Q177.816 365 197.397 300.5 Q216.977 236 259.022 187.5 Q301.067 139 362.129 111 Q423.191 83 496.191 83 Q567.191 83 635.445 109.5 Q703.699 136 760.961 187 L812.716 128 Q753.209 75 683.341 43.5 Q613.473 12 539.491 4 Q548.141 -7 554.913 -17 Q561.685 -27 568.334 -38 Q585.51 -61 586.827 -91 Q588.143 -121 575.582 -150 Q562.899 -180 537.32 -201 Q508.373 -225 473.321 -229.5 Q438.268 -234 408.803 -221.5 Q379.338 -209 361.337 -180.5 Q343.337 -152 348.371 -111 L412.371 -111 Q410.038 -130 418.942 -143 Q427.846 -156 442.17 -161.5 Q456.495 -167 473.802 -164.5 Q491.109 -162 504.582 -150 Q523.67 -133 526.494 -110 Q529.318 -87 514.405 -70 L451.246 2 Q367.982 8 299.525 45 Q231.068 82 184.251 140.5 Q137.434 199 115.327 275.5 Q93.2202 352 103.78 438 Q114.83 528 159.153 608 Q203.476 688 269.72 747 Q335.964 806 420.2 840.5 Q504.436 875 594.436 875 Q681.436 875 757.885 842 Q834.333 809 888.72 747 L822.599 689 Q778.738 739 717.992 765.5 Q657.245 792 586.245 792 Z " />
<glyph glyph-name="Dcaron" unicode="&#x10e;" horiz-adv-x="883" d="M488.436 875 Q578.436 875 654.2 840.5 Q729.964 806 781.659 746.5 Q833.353 687 858.03 607 Q882.707 527 871.657 437 Q860.606 347 816.283 267 Q771.961 187 705.716 128 Q639.472 69 555.236 34.5 Q471 0 381 0 L95 0 L202.436 875 L488.436 875 Z M788.411 435 Q796.883 504 778.303 568.5 Q759.723 633 719.3 682.5 Q678.878 732 620.062 762 Q561.245 792 489.245 792 L300.245 792 Q289.245 792 281.324 784.5 Q273.404 777 272.053 766 L191.261 108 Q189.91 97 196.051 90 Q202.191 83 213.191 83 L402.191 83 Q472.191 83 538.313 112.5 Q604.435 142 656.89 190.5 Q709.346 239 744.642 302.5 Q779.939 366 788.411 435 Z M727.85 1196 L773.466 1144 L553.4 948 L381.466 1144 L439.85 1196 L541.607 1080 Q551.257 1069 567.757 1069 Q584.257 1069 596.607 1080 L661.729 1138 Q686.43 1160 706.64 1178 Q726.85 1196 727.85 1196 Z " />
<glyph glyph-name="Eacute" unicode="&#xc9;" horiz-adv-x="776" d="M240.006 505 Q238.533 493 245.551 485 Q252.568 477 263.568 477 L769.568 477 L759.745 397 L253.745 397 Q242.745 397 233.763 389 Q224.781 381 223.43 370 L191.138 107 Q189.787 96 196.805 88 Q203.823 80 214.823 80 L720.823 80 L711 0 L95 0 L202.436 875 L818.314 874 L808.614 795 L302.614 795 Q291.614 795 282.57 786.5 Q273.526 778 272.176 767 L240.006 505 Z M463.521 1006 L393.521 1006 L600.41 1282 L665.639 1235 L463.521 1006 Z " />
<glyph glyph-name="Ebreve" unicode="&#x114;" horiz-adv-x="776" d="M240.006 505 Q238.533 493 245.551 485 Q252.568 477 263.568 477 L769.568 477 L759.745 397 L346.745 397 Q331.745 397 310.93 398.5 Q290.114 400 271.43 398.5 Q252.745 397 239.009 391 Q225.272 385 223.43 370 L191.138 107 Q189.787 96 196.805 88 Q203.823 80 214.823 80 L720.823 80 L711 0 L95 0 L202.436 875 Q357.436 875 510.375 874.5 Q663.314 874 818.314 874 L808.614 795 L302.614 795 Q291.614 795 282.57 786.5 Q273.526 778 272.176 767 L240.006 505 Z M586.747 1130 L662.747 1130 Q659.309 1102 645.739 1077 Q632.169 1052 611.398 1033.5 Q590.626 1015 564.337 1004.5 Q538.048 994 510.048 994 Q482.048 994 458.337 1004.5 Q434.626 1015 418.398 1033.5 Q402.169 1052 394.739 1077 Q387.309 1102 390.747 1130 L466.747 1130 Q463.677 1105 479.028 1087.5 Q494.379 1070 518.257 1069 Q544.257 1069 563.967 1087 Q583.677 1105 586.747 1130 Z " />
<glyph glyph-name="Ecaron" unicode="&#x11a;" horiz-adv-x="776" d="M240.006 505 Q238.533 493 245.551 485 Q252.568 477 263.568 477 L769.568 477 L759.745 397 L253.745 397 Q242.745 397 233.763 389 Q224.781 381 223.43 370 L191.138 107 Q189.787 96 196.805 88 Q203.823 80 214.823 80 L720.823 80 L711 0 L95 0 L202.436 875 L818.314 874 L808.614 795 L302.614 795 Q291.614 795 282.57 786.5 Q273.526 778 272.176 767 L240.006 505 Z M678.85 1196 L724.466 1144 L504.4 948 L332.466 1144 L390.85 1196 L492.607 1080 Q502.257 1069 518.757 1069 Q535.257 1069 547.607 1080 L612.729 1138 Q637.43 1160 657.64 1178 Q677.85 1196 678.85 1196 Z " />
<glyph glyph-name="Ecircumflex" unicode="&#xca;" horiz-adv-x="776" d="M240.006 505 Q238.533 493 245.551 485 Q252.568 477 263.568 477 L769.568 477 L759.745 397 L253.745 397 Q242.745 397 233.763 389 Q224.781 381 223.43 370 L191.138 107 Q189.787 96 196.805 88 Q203.823 80 214.823 80 L720.823 80 L711 0 L95 0 L202.436 875 L818.314 874 L808.614 795 L302.614 795 Q291.614 795 282.57 786.5 Q273.526 778 272.176 767 L240.006 505 Z M647.4 948 L545.643 1064 Q535.993 1075 519.493 1075 Q502.993 1075 490.643 1064 L360.4 948 L314.785 1000 L534.85 1196 L706.785 1000 L648.4 948 L647.4 948 Z " />
<glyph glyph-name="Edieresis" unicode="&#xcb;" horiz-adv-x="776" d="M240.006 505 Q238.533 493 245.551 485 Q252.568 477 263.568 477 L769.568 477 L759.745 397 L253.745 397 Q242.745 397 233.763 389 Q224.781 381 223.43 370 L191.138 107 Q189.787 96 196.805 88 Q203.823 80 214.823 80 L720.823 80 L711 0 L95 0 L202.436 875 L818.314 874 L808.614 795 L302.614 795 Q291.614 795 282.57 786.5 Q273.526 778 272.176 767 L240.006 505 Z M688.538 1055 Q685.714 1032 667.188 1015.5 Q648.662 999 625.662 999 Q602.662 999 588.188 1015.5 Q573.714 1032 576.538 1055 Q579.362 1078 597.888 1094.5 Q616.414 1111 639.414 1111 Q662.414 1111 676.888 1094.5 Q691.362 1078 688.538 1055 Z M457.538 1055 Q454.714 1032 436.188 1015.5 Q417.662 999 394.662 999 Q371.662 999 357.188 1015.5 Q342.714 1032 345.538 1055 Q348.362 1078 366.888 1094.5 Q385.414 1111 408.414 1111 Q431.414 1111 445.888 1094.5 Q460.362 1078 457.538 1055 Z " />
<glyph glyph-name="Edotaccent" unicode="&#x116;" horiz-adv-x="776" d="M240.006 505 Q238.533 493 245.551 485 Q252.568 477 263.568 477 L769.568 477 L759.745 397 L253.745 397 Q242.745 397 233.763 389 Q224.781 381 223.43 370 L191.138 107 Q189.787 96 196.805 88 Q203.823 80 214.823 80 L720.823 80 L711 0 L95 0 L202.436 875 L818.314 874 L808.614 795 L302.614 795 Q291.614 795 282.57 786.5 Q273.526 778 272.176 767 L240.006 505 Z M569.854 1025 Q567.03 1002 548.504 985.5 Q529.978 969 506.978 969 Q483.978 969 469.504 985.5 Q455.03 1002 457.854 1025 Q460.678 1048 479.204 1064.5 Q497.73 1081 520.73 1081 Q543.73 1081 558.204 1064.5 Q572.678 1048 569.854 1025 Z " />
<glyph glyph-name="Egrave" unicode="&#xc8;" horiz-adv-x="776" d="M240.006 505 Q238.533 493 245.551 485 Q252.568 477 263.568 477 L769.568 477 L759.745 397 L253.745 397 Q242.745 397 233.763 389 Q224.781 381 223.43 370 L191.138 107 Q189.787 96 196.805 88 Q203.823 80 214.823 80 L720.823 80 L711 0 L95 0 L202.436 875 L818.314 874 L808.614 795 L302.614 795 Q291.614 795 282.57 786.5 Q273.526 778 272.176 767 L240.006 505 Z M405.762 1236 L484.778 1285 L625.521 1006 L552.521 1006 L405.762 1236 Z " />
<glyph glyph-name="Emacron" unicode="&#x112;" horiz-adv-x="776" d="M240.006 505 Q238.533 493 245.551 485 Q252.568 477 263.568 477 L769.568 477 L759.745 397 L253.745 397 Q242.745 397 233.763 389 Q224.781 381 223.43 370 L191.138 107 Q189.787 96 196.805 88 Q203.823 80 214.823 80 L720.823 80 L711 0 L95 0 L202.436 875 L818.314 874 L808.614 795 L302.614 795 Q291.614 795 282.57 786.5 Q273.526 778 272.176 767 L240.006 505 Z M335.169 1052 L344.747 1130 L707.747 1130 L698.169 1052 L335.169 1052 Z " />
<glyph glyph-name="Eogonek" unicode="&#x118;" horiz-adv-x="776" d="M687.057 -195 Q633.163 -243 569.163 -243 Q537.163 -243 510.198 -230.5 Q483.233 -218 464.811 -197 Q446.39 -176 437.389 -147.5 Q428.389 -119 432.318 -87 Q438.457 -37 471 0 L95 0 L202.436 875 L818.314 874 L808.614 795 L302.614 795 Q291.614 795 282.57 786.5 Q273.526 778 272.176 767 L240.006 505 Q238.533 493 245.551 485 Q252.568 477 263.568 477 L769.568 477 L759.745 397 L253.745 397 Q242.745 397 233.763 389 Q224.781 381 223.43 370 L191.138 107 Q189.787 96 196.805 88 Q203.823 80 214.823 80 L720.823 80 L711 0 L600 0 Q563 0 534.93 -25 Q506.861 -50 502.441 -86 Q498.143 -121 520.073 -146 Q542.004 -171 577.004 -171 Q594.004 -171 611.363 -164 Q628.723 -157 642.196 -145 L687.057 -195 Z " />
<glyph glyph-name="Hcircumflex" unicode="&#x124;" horiz-adv-x="942" d="M827.006 505 L872.436 875 L954.436 875 L847 0 L765 0 L810.43 370 Q811.781 381 804.825 389.5 Q797.868 398 786.868 398 L252.868 398 Q241.868 398 232.825 389.5 Q223.781 381 222.43 370 L177 0 L95 0 L202.436 875 L284.436 875 L239.006 505 Q237.656 494 244.612 485.5 Q251.568 477 262.568 477 L796.568 477 Q807.568 477 816.612 485.5 Q825.656 494 827.006 505 Z M730.4 948 L628.643 1064 Q618.993 1075 602.493 1075 Q585.993 1075 573.643 1064 L443.4 948 L397.785 1000 L617.85 1196 L789.785 1000 L731.4 948 L730.4 948 Z " />
<glyph glyph-name="Iacute" unicode="&#xcd;" horiz-adv-x="342" d="M130 0 L237.436 875 L319.436 875 L212 0 L130 0 Z M254.521 1006 L184.521 1006 L391.41 1282 L456.639 1235 L254.521 1006 Z " />
<glyph glyph-name="Ibreve" unicode="&#x12c;" horiz-adv-x="342" d="M130 0 L237.436 875 L319.436 875 L212 0 L130 0 Z M303.257 1069 Q327.379 1070 347.028 1087.5 Q366.677 1105 369.747 1130 L445.747 1130 Q442.309 1102 428.739 1077 Q415.169 1052 394.398 1033.5 Q373.626 1015 347.337 1004.5 Q321.048 994 293.048 994 Q265.048 994 241.337 1004.5 Q217.626 1015 201.398 1033.5 Q185.169 1052 177.739 1077 Q170.309 1102 173.747 1130 L249.747 1130 Q246.677 1105 261.967 1087 Q277.257 1069 303.257 1069 Z " />
<glyph glyph-name="Icircumflex" unicode="&#xce;" horiz-adv-x="342" d="M130 0 L237.436 875 L319.436 875 L212 0 L130 0 Z M430.4 948 L328.643 1064 Q318.993 1075 302.493 1075 Q285.993 1075 273.643 1064 L143.4 948 L97.7846 1000 L317.85 1196 L489.785 1000 L431.4 948 L430.4 948 Z " />
<glyph glyph-name="Idieresis" unicode="&#xcf;" horiz-adv-x="342" d="M130 0 L237.436 875 L319.436 875 L212 0 L130 0 Z M240.538 1055 Q237.714 1032 219.188 1015.5 Q200.662 999 177.662 999 Q154.662 999 140.188 1015.5 Q125.714 1032 128.538 1055 Q131.362 1078 149.888 1094.5 Q168.414 1111 191.414 1111 Q214.414 1111 228.888 1094.5 Q243.362 1078 240.538 1055 Z M471.538 1055 Q468.714 1032 450.188 1015.5 Q431.662 999 408.662 999 Q385.662 999 371.188 1015.5 Q356.714 1032 359.538 1055 Q362.362 1078 380.888 1094.5 Q399.414 1111 422.414 1111 Q445.414 1111 459.888 1094.5 Q474.362 1078 471.538 1055 Z " />
<glyph glyph-name="Idotaccent" unicode="&#x130;" horiz-adv-x="342" d="M130 0 L237.436 875 L319.436 875 L212 0 L130 0 Z M352.854 1025 Q350.03 1002 331.504 985.5 Q312.978 969 289.978 969 Q266.978 969 252.504 985.5 Q238.03 1002 240.854 1025 Q243.678 1048 262.204 1064.5 Q280.73 1081 303.73 1081 Q326.73 1081 341.204 1064.5 Q355.678 1048 352.854 1025 Z " />
<glyph glyph-name="Igrave" unicode="&#xcc;" horiz-adv-x="342" d="M130 0 L237.436 875 L319.436 875 L212 0 L130 0 Z M186.762 1236 L265.778 1285 L406.521 1006 L333.521 1006 L186.762 1236 Z " />
<glyph glyph-name="Imacron" unicode="&#x12a;" horiz-adv-x="342" d="M130 0 L237.436 875 L319.436 875 L212 0 L130 0 Z M119.169 1052 L128.747 1130 L491.747 1130 L482.169 1052 L119.169 1052 Z " />
<glyph glyph-name="Iogonek" unicode="&#x12e;" horiz-adv-x="342" d="M223.057 -195 Q169.163 -243 105.163 -243 Q73.1634 -243 46.1982 -230.5 Q19.233 -218 0.811442 -197 Q-17.6101 -176 -26.6107 -147.5 Q-35.6114 -119 -31.6823 -87 Q-27.8759 -56 -12.438 -28 Q3 0 25.5785 21 Q48.157 42 77.1304 54 Q106.104 66 138.227 67 L237.436 875 L319.436 875 L212 0 L136 0 Q99 0 70.9304 -25 Q42.8608 -50 38.4405 -86 Q34.1431 -121 56.0735 -146 Q78.0038 -171 113.004 -171 Q149.004 -171 178.196 -145 L223.057 -195 Z " />
<glyph glyph-name="Itilde" unicode="&#x128;" horiz-adv-x="342" d="M130 0 L237.436 875 L319.436 875 L212 0 L130 0 Z M113.396 1119 Q149.571 1153 182.5 1156.5 Q215.43 1160 247.018 1148.5 Q278.606 1137 308.335 1118.5 Q338.063 1100 369.151 1088.5 Q400.239 1077 433.169 1080.5 Q466.098 1084 503.273 1118 L493.573 1039 Q456.398 1005 423.969 1001.5 Q391.539 998 360.451 1009.5 Q329.363 1021 298.635 1039.5 Q267.906 1058 237.318 1069.5 Q206.73 1081 173.3 1077.5 Q139.871 1074 103.696 1040 L113.396 1119 Z " />
<glyph glyph-name="Kcommaaccent" unicode="&#x136;" horiz-adv-x="842" d="M909.436 875 L469.78 438 L802 0 L696 0 L403.149 384 Q393.868 398 375.868 398 L252.868 398 Q241.868 398 232.825 389.5 Q223.781 381 222.43 370 L177 0 L95 0 L202.436 875 L284.436 875 L239.006 505 Q237.656 494 244.612 485.5 Q251.568 477 262.568 477 L384.568 477 Q402.568 477 416.287 491 L802.436 875 L909.436 875 Z M361.565 -142 L445.565 -142 L388.062 -423 L327.062 -423 L361.565 -142 Z " />
<glyph glyph-name="Lcaron" unicode="&#x13d;" horiz-adv-x="712" d="M285.436 875 L193.103 123 Q190.647 103 200.235 91.5 Q209.823 80 229.823 80 L686.823 80 L677 0 L95 0 L202.436 875 L285.436 875 Z M612.631 787 L695.631 787 L639.129 506 L578.129 506 L612.631 787 Z " />
<glyph glyph-name="AEacute" unicode="&#x1fc;" horiz-adv-x="1074" d="M1116.31 874 L1106.61 795 L681.614 795 Q670.614 795 661.57 786.5 Q652.526 778 651.176 767 L619.006 505 Q617.533 493 624.551 485 Q631.568 477 642.568 477 L1067.57 477 L1057.75 397 L632.745 397 Q621.745 397 612.763 389 Q603.781 381 602.43 370 L570.138 107 Q568.787 96 575.805 88 Q582.823 80 593.823 80 L1018.82 80 L1009 0 L475 0 L514.905 325 L334.905 325 Q320.905 325 307.984 317.5 Q295.063 310 288.467 297 L118 0 L30 0 L530.436 875 L681.436 875 L1116.31 874 Z M524.237 401 L572.614 795 L348.237 401 L524.237 401 Z M750.521 1006 L680.521 1006 L887.41 1282 L952.639 1235 L750.521 1006 Z " />
<glyph glyph-name="Dcroat" unicode="&#x110;" horiz-adv-x="883" d="M7.88598 390 L17.4632 468 L152.463 468 L202.436 875 L488.436 875 Q578.436 875 654.2 840.5 Q729.964 806 781.659 746.5 Q833.353 687 858.03 607 Q882.707 527 871.657 437 Q860.606 347 816.283 267 Q771.961 187 705.716 128 Q639.472 69 555.236 34.5 Q471 0 381 0 L95 0 L142.886 390 L7.88598 390 Z M788.411 435 Q796.883 504 778.303 568.5 Q759.723 633 719.3 682.5 Q678.878 732 620.062 762 Q561.245 792 489.245 792 L300.245 792 Q289.245 792 281.324 784.5 Q273.404 777 272.053 766 L235.463 468 L380.463 468 L370.886 390 L225.886 390 L191.261 108 Q189.91 97 196.051 90 Q202.191 83 213.191 83 L402.191 83 Q472.191 83 538.313 112.5 Q604.435 142 656.89 190.5 Q709.346 239 744.642 302.5 Q779.939 366 788.411 435 Z " />
<glyph glyph-name="Gbreve" unicode="&#x11e;" horiz-adv-x="1023" d="M550.639 445 L992.639 445 L938 0 L859 0 L883.311 198 Q849.786 153 806.804 116.5 Q763.823 80 714.13 54 Q664.438 28 609.219 14 Q554 0 497 0 Q407 0 331.175 34 Q255.349 68 203.655 127.5 Q151.961 187 127.222 266.5 Q102.483 346 113.657 437 Q124.707 527 169.03 607 Q213.353 687 279.597 746 Q345.842 805 430.078 839.5 Q514.314 874 604.314 874 Q695.314 874 770.139 840 Q844.964 806 897.597 746 L831.353 687 Q789.247 735 728.185 763 Q667.123 791 594.123 791 Q520.123 791 452.185 763 Q384.247 735 330.353 687 Q276.459 639 241.04 574.5 Q205.62 510 196.657 437 Q187.571 363 207.09 298 Q226.609 233 269.092 184 Q311.576 135 373.638 107 Q435.7 79 511.823 80 Q577.823 80 639.085 102.5 Q700.348 125 751.075 163.5 Q801.802 202 838.749 254.5 Q875.695 307 894.062 367 L541.062 367 L550.639 445 Z M710.747 1130 L786.747 1130 Q783.309 1102 769.739 1077 Q756.169 1052 734.898 1033.5 Q713.626 1015 687.337 1004.5 Q661.048 994 633.048 994 Q605.048 994 581.337 1004.5 Q557.626 1015 541.398 1033.5 Q525.169 1052 517.739 1077 Q510.309 1102 513.747 1130 L589.747 1130 Q586.677 1105 602.467 1087 Q618.257 1069 643.257 1069 Q668.379 1070 688.028 1087.5 Q707.677 1105 710.747 1130 Z " />
<glyph glyph-name="Gcircumflex" unicode="&#x11c;" horiz-adv-x="1023" d="M550.639 445 L992.639 445 L938 0 L859 0 L883.311 198 Q849.786 153 806.804 116.5 Q763.823 80 714.13 54 Q664.438 28 609.219 14 Q554 0 497 0 Q407 0 331.175 34 Q255.349 68 203.655 127.5 Q151.961 187 127.222 266.5 Q102.483 346 113.657 437 Q124.707 527 169.03 607 Q213.353 687 279.597 746 Q345.842 805 430.078 839.5 Q514.314 874 604.314 874 Q695.314 874 770.139 840 Q844.964 806 897.597 746 L831.353 687 Q789.247 735 728.185 763 Q667.123 791 594.123 791 Q520.123 791 452.185 763 Q384.247 735 330.353 687 Q276.459 639 241.04 574.5 Q205.62 510 196.657 437 Q187.571 363 207.09 298 Q226.609 233 269.092 184 Q311.576 135 373.638 107 Q435.7 79 511.823 80 Q577.823 80 639.085 102.5 Q700.348 125 751.075 163.5 Q801.802 202 838.749 254.5 Q875.695 307 894.062 367 L541.062 367 L550.639 445 Z M770.4 948 L691.573 1039 Q684.555 1047 676.16 1056 Q667.766 1065 657.941 1070.5 Q648.116 1076 637.055 1075.5 Q625.993 1075 613.643 1064 L483.4 948 L437.785 1000 L657.85 1196 L829.785 1000 L771.4 948 L770.4 948 Z " />
<glyph glyph-name="Gcommaaccent" unicode="&#x122;" horiz-adv-x="1023" d="M550.639 445 L992.639 445 L938 0 L859 0 L883.311 198 Q849.786 153 806.804 116.5 Q763.823 80 714.13 54 Q664.438 28 609.219 14 Q554 0 497 0 Q407 0 331.175 34 Q255.349 68 203.655 127.5 Q151.961 187 127.222 266.5 Q102.483 346 113.657 437 Q124.707 527 169.03 607 Q213.353 687 279.597 746 Q345.842 805 430.078 839.5 Q514.314 874 604.314 874 Q695.314 874 770.139 840 Q844.964 806 897.597 746 L831.353 687 Q789.247 735 728.185 763 Q667.123 791 594.123 791 Q520.123 791 452.185 763 Q384.247 735 330.353 687 Q276.459 639 241.04 574.5 Q205.62 510 196.657 437 Q187.571 363 207.09 298 Q226.609 233 269.092 184 Q311.576 135 373.638 107 Q435.7 79 511.823 80 Q577.823 80 639.085 102.5 Q700.348 125 751.075 163.5 Q801.802 202 838.749 254.5 Q875.695 307 894.062 367 L541.062 367 L550.639 445 Z M452.565 -142 L535.565 -142 L479.062 -423 L418.062 -423 L452.565 -142 Z " />
<glyph glyph-name="Gdotaccent" unicode="&#x120;" horiz-adv-x="1023" d="M550.639 445 L992.639 445 L938 0 L859 0 L883.311 198 Q849.786 153 806.804 116.5 Q763.823 80 714.13 54 Q664.438 28 609.219 14 Q554 0 497 0 Q407 0 331.175 34 Q255.349 68 203.655 127.5 Q151.961 187 127.222 266.5 Q102.483 346 113.657 437 Q124.707 527 169.03 607 Q213.353 687 279.597 746 Q345.842 805 430.078 839.5 Q514.314 874 604.314 874 Q695.314 874 770.139 840 Q844.964 806 897.597 746 L831.353 687 Q789.247 735 728.185 763 Q667.123 791 594.123 791 Q520.123 791 452.185 763 Q384.247 735 330.353 687 Q276.459 639 241.04 574.5 Q205.62 510 196.657 437 Q187.571 363 207.09 298 Q226.609 233 269.092 184 Q311.576 135 373.638 107 Q435.7 79 511.823 80 Q577.823 80 639.085 102.5 Q700.348 125 751.075 163.5 Q801.802 202 838.749 254.5 Q875.695 307 894.062 367 L541.062 367 L550.639 445 Z M692.854 1025 Q690.03 1002 671.504 985.5 Q652.978 969 629.978 969 Q606.978 969 593.004 985.5 Q579.03 1002 581.854 1025 Q584.678 1048 602.704 1064.5 Q620.73 1081 643.73 1081 Q666.73 1081 681.204 1064.5 Q695.678 1048 692.854 1025 Z " />
<glyph glyph-name="Nacute" unicode="&#x143;" horiz-adv-x="979" d="M817.962 130 L909.436 875 L991.436 875 L884 0 L809 0 L270.334 752 L178 0 L95 0 L202.436 875 L278.436 875 L817.962 130 Z M640.521 1006 L570.521 1006 L777.41 1282 L842.639 1235 L640.521 1006 Z " />
<glyph glyph-name="Ncaron" unicode="&#x147;" horiz-adv-x="979" d="M817.962 130 L909.436 875 L991.436 875 L884 0 L809 0 L270.334 752 L178 0 L95 0 L202.436 875 L278.436 875 L817.962 130 Z M779.85 1196 L825.466 1144 L605.4 948 L433.466 1144 L491.85 1196 L593.607 1080 Q603.257 1069 619.757 1069 Q636.257 1069 648.607 1080 L713.729 1138 Q738.43 1160 758.64 1178 Q778.85 1196 779.85 1196 Z " />
<glyph glyph-name="Ncommaaccent" unicode="&#x145;" horiz-adv-x="979" d="M817.962 130 L909.436 875 L991.436 875 L884 0 L809 0 L270.334 752 L178 0 L95 0 L202.436 875 L278.436 875 L817.962 130 Z M430.565 -142 L513.565 -142 L457.062 -423 L396.062 -423 L430.565 -142 Z " />
<glyph glyph-name="Ntilde" unicode="&#xd1;" horiz-adv-x="979" d="M817.962 130 L909.436 875 L991.436 875 L884 0 L809 0 L270.334 752 L178 0 L95 0 L202.436 875 L278.436 875 L817.962 130 Z M431.396 1119 Q467.571 1153 501 1156.5 Q534.43 1160 565.018 1148.5 Q595.606 1137 625.835 1118.5 Q656.063 1100 687.151 1088.5 Q718.239 1077 751.169 1080.5 Q784.098 1084 821.273 1118 L811.573 1039 Q774.398 1005 741.969 1001.5 Q709.539 998 678.451 1009.5 Q647.363 1021 616.635 1039.5 Q585.906 1058 555.318 1069.5 Q524.73 1081 491.3 1077.5 Q457.871 1074 421.696 1040 L431.396 1119 Z " />
<glyph glyph-name="Oacute" unicode="&#xd3;" horiz-adv-x="994" d="M507.068 82 Q580.068 82 648.506 110 Q716.944 138 770.838 186 Q824.732 234 860.651 298.5 Q896.571 363 905.657 437 Q914.62 510 894.54 574.5 Q874.459 639 832.353 687 Q790.247 735 728.685 763 Q667.123 791 594.123 791 Q520.123 791 452.185 763 Q384.247 735 330.353 687 Q276.459 639 241.04 574.5 Q205.62 510 196.657 437 Q187.571 363 207.151 298.5 Q226.732 234 268.838 186 Q310.944 138 372.006 110 Q433.068 82 507.068 82 Z M604.314 874 Q695.314 874 770.578 839.5 Q845.842 805 897.597 746 Q949.353 687 974.03 607 Q998.707 527 987.657 437 Q976.483 346 932.222 266.5 Q887.961 187 821.655 127.5 Q755.349 68 671.675 34 Q588 0 497 0 Q407 0 331.175 34 Q255.349 68 203.655 127.5 Q151.961 187 127.222 266.5 Q102.483 346 113.657 437 Q124.707 527 169.03 607 Q213.353 687 279.597 746 Q345.842 805 430.078 839.5 Q514.314 874 604.314 874 Z M648.521 1006 L578.521 1006 L785.41 1282 L850.639 1235 L648.521 1006 Z " />
<glyph glyph-name="Obreve" unicode="&#x14e;" horiz-adv-x="994" d="M604.314 874 Q695.314 874 770.578 839.5 Q845.842 805 897.597 746 Q949.353 687 974.03 607 Q998.707 527 987.657 437 Q976.483 346 932.222 266.5 Q887.961 187 821.655 127.5 Q755.349 68 671.675 34 Q588 0 497 0 Q407 0 331.175 34 Q255.349 68 203.655 127.5 Q151.961 187 127.222 266.5 Q102.483 346 113.657 437 Q124.707 527 169.03 607 Q213.353 687 279.597 746 Q345.842 805 430.078 839.5 Q514.314 874 604.314 874 Z M507.068 82 Q580.068 82 648.506 110 Q716.944 138 770.838 186 Q824.732 234 860.651 298.5 Q896.571 363 905.657 437 Q914.62 510 894.54 574.5 Q874.459 639 832.353 687 Q790.247 735 728.685 763 Q667.123 791 594.123 791 Q520.123 791 452.185 763 Q384.247 735 330.353 687 Q276.459 639 241.04 574.5 Q205.62 510 196.657 437 Q187.571 363 207.151 298.5 Q226.732 234 268.838 186 Q310.944 138 372.006 110 Q433.068 82 507.068 82 Z M695.747 1130 L771.747 1130 Q768.309 1102 754.739 1077 Q741.169 1052 720.398 1033.5 Q699.626 1015 673.337 1004.5 Q647.048 994 619.048 994 Q591.048 994 567.337 1004.5 Q543.626 1015 527.398 1033.5 Q511.169 1052 503.739 1077 Q496.309 1102 499.747 1130 L575.747 1130 Q572.677 1105 587.967 1087 Q603.257 1069 629.257 1069 Q654.379 1070 673.528 1087.5 Q692.677 1105 695.747 1130 Z " />
<glyph glyph-name="Ocircumflex" unicode="&#xd4;" horiz-adv-x="994" d="M604.314 874 Q695.314 874 770.578 839.5 Q845.842 805 897.597 746 Q949.353 687 974.03 607 Q998.707 527 987.657 437 Q976.483 346 932.222 266.5 Q887.961 187 821.655 127.5 Q755.349 68 671.675 34 Q588 0 497 0 Q407 0 331.175 34 Q255.349 68 203.655 127.5 Q151.961 187 127.222 266.5 Q102.483 346 113.657 437 Q124.707 527 169.03 607 Q213.353 687 279.597 746 Q345.842 805 430.078 839.5 Q514.314 874 604.314 874 Z M507.068 82 Q580.068 82 648.506 110 Q716.944 138 770.838 186 Q824.732 234 860.651 298.5 Q896.571 363 905.657 437 Q914.62 510 894.54 574.5 Q874.459 639 832.353 687 Q790.247 735 728.685 763 Q667.123 791 594.123 791 Q520.123 791 452.185 763 Q384.247 735 330.353 687 Q276.459 639 241.04 574.5 Q205.62 510 196.657 437 Q187.571 363 207.151 298.5 Q226.732 234 268.838 186 Q310.944 138 372.006 110 Q433.068 82 507.068 82 Z M756.4 948 L654.643 1064 Q644.993 1075 628.493 1075 Q611.993 1075 599.643 1064 L469.4 948 L423.785 1000 L643.85 1196 L815.785 1000 L757.4 948 L756.4 948 Z " />
<glyph glyph-name="Odieresis" unicode="&#xd6;" horiz-adv-x="994" d="M507.068 82 Q580.068 82 648.506 110 Q716.944 138 770.838 186 Q824.732 234 860.651 298.5 Q896.571 363 905.657 437 Q914.62 510 894.54 574.5 Q874.459 639 832.353 687 Q790.247 735 728.685 763 Q667.123 791 594.123 791 Q520.123 791 452.185 763 Q384.247 735 330.353 687 Q276.459 639 241.04 574.5 Q205.62 510 196.657 437 Q187.571 363 207.151 298.5 Q226.732 234 268.838 186 Q310.944 138 372.006 110 Q433.068 82 507.068 82 Z M604.314 874 Q695.314 874 770.578 839.5 Q845.842 805 897.597 746 Q949.353 687 974.03 607 Q998.707 527 987.657 437 Q976.483 346 932.222 266.5 Q887.961 187 821.655 127.5 Q755.349 68 671.675 34 Q588 0 497 0 Q407 0 331.175 34 Q255.349 68 203.655 127.5 Q151.961 187 127.222 266.5 Q102.483 346 113.657 437 Q124.707 527 169.03 607 Q213.353 687 279.597 746 Q345.842 805 430.078 839.5 Q514.314 874 604.314 874 Z M797.538 1055 Q794.714 1032 776.188 1015.5 Q757.662 999 734.662 999 Q711.662 999 697.188 1015.5 Q682.714 1032 685.538 1055 Q688.362 1078 706.888 1094.5 Q725.414 1111 748.414 1111 Q771.414 1111 785.888 1094.5 Q800.362 1078 797.538 1055 Z M566.538 1055 Q563.714 1032 545.188 1015.5 Q526.662 999 503.662 999 Q480.662 999 466.188 1015.5 Q451.714 1032 454.538 1055 Q457.362 1078 475.888 1094.5 Q494.414 1111 517.414 1111 Q540.414 1111 554.888 1094.5 Q569.362 1078 566.538 1055 Z " />
<glyph glyph-name="Ograve" unicode="&#xd2;" horiz-adv-x="994" d="M507.068 82 Q580.068 82 648.506 110 Q716.944 138 770.838 186 Q824.732 234 860.651 298.5 Q896.571 363 905.657 437 Q914.62 510 894.54 574.5 Q874.459 639 832.353 687 Q790.247 735 728.685 763 Q667.123 791 594.123 791 Q520.123 791 452.185 763 Q384.247 735 330.353 687 Q276.459 639 241.04 574.5 Q205.62 510 196.657 437 Q187.571 363 207.151 298.5 Q226.732 234 268.838 186 Q310.944 138 372.006 110 Q433.068 82 507.068 82 Z M604.314 874 Q695.314 874 770.578 839.5 Q845.842 805 897.597 746 Q949.353 687 974.03 607 Q998.707 527 987.657 437 Q976.483 346 932.222 266.5 Q887.961 187 821.655 127.5 Q755.349 68 671.675 34 Q588 0 497 0 Q407 0 331.175 34 Q255.349 68 203.655 127.5 Q151.961 187 127.222 266.5 Q102.483 346 113.657 437 Q124.707 527 169.03 607 Q213.353 687 279.597 746 Q345.842 805 430.078 839.5 Q514.314 874 604.314 874 Z M444.762 1236 L523.778 1285 L664.521 1006 L591.521 1006 L444.762 1236 Z " />
<glyph glyph-name="hungarumlaut" unicode="&#x2dd;" horiz-adv-x="480" d="M273.521 1006 L203.521 1006 L410.41 1282 L475.639 1235 L273.521 1006 Z M509.521 1006 L439.521 1006 L646.41 1282 L711.639 1235 L509.521 1006 Z " />
<glyph glyph-name="Ohungarumlaut" unicode="&#x150;" horiz-adv-x="994" d="M507.068 82 Q580.068 82 648.506 110 Q716.944 138 770.838 186 Q824.732 234 860.651 298.5 Q896.571 363 905.657 437 Q914.62 510 894.54 574.5 Q874.459 639 832.353 687 Q790.247 735 728.685 763 Q667.123 791 594.123 791 Q520.123 791 452.185 763 Q384.247 735 330.353 687 Q276.459 639 241.04 574.5 Q205.62 510 196.657 437 Q187.571 363 207.151 298.5 Q226.732 234 268.838 186 Q310.944 138 372.006 110 Q433.068 82 507.068 82 Z M604.314 874 Q695.314 874 770.578 839.5 Q845.842 805 897.597 746 Q949.353 687 974.03 607 Q998.707 527 987.657 437 Q976.483 346 932.222 266.5 Q887.961 187 821.655 127.5 Q755.349 68 671.675 34 Q588 0 497 0 Q407 0 331.175 34 Q255.349 68 203.655 127.5 Q151.961 187 127.222 266.5 Q102.483 346 113.657 437 Q124.707 527 169.03 607 Q213.353 687 279.597 746 Q345.842 805 430.078 839.5 Q514.314 874 604.314 874 Z M530.521 1006 L460.521 1006 L667.41 1282 L732.639 1235 L530.521 1006 Z M766.521 1006 L696.521 1006 L903.41 1282 L968.639 1235 L766.521 1006 Z " />
<glyph glyph-name="Omacron" unicode="&#x14c;" horiz-adv-x="994" d="M604.314 874 Q695.314 874 770.578 839.5 Q845.842 805 897.597 746 Q949.353 687 974.03 607 Q998.707 527 987.657 437 Q976.483 346 932.222 266.5 Q887.961 187 821.655 127.5 Q755.349 68 671.675 34 Q588 0 497 0 Q407 0 331.175 34 Q255.349 68 203.655 127.5 Q151.961 187 127.222 266.5 Q102.483 346 113.657 437 Q124.707 527 169.03 607 Q213.353 687 279.597 746 Q345.842 805 430.078 839.5 Q514.314 874 604.314 874 Z M507.068 82 Q580.068 82 648.506 110 Q716.944 138 770.838 186 Q824.732 234 860.651 298.5 Q896.571 363 905.657 437 Q914.62 510 894.54 574.5 Q874.459 639 832.353 687 Q790.247 735 728.685 763 Q667.123 791 594.123 791 Q520.123 791 452.185 763 Q384.247 735 330.353 687 Q276.459 639 241.04 574.5 Q205.62 510 196.657 437 Q187.571 363 207.151 298.5 Q226.732 234 268.838 186 Q310.944 138 372.006 110 Q433.068 82 507.068 82 Z M444.169 1052 L453.747 1130 L816.747 1130 L807.169 1052 L444.169 1052 Z " />
<glyph glyph-name="backslash" unicode="&#x5c;" horiz-adv-x="470" d="M401.075 -203 L98.9238 1050 L176.485 1079 L478.635 -174 L401.075 -203 Z " />
<glyph glyph-name="Oslash" unicode="&#xd8;" horiz-adv-x="994" d="M245.211 -39 L294.508 53 Q246.946 81 209.857 121 Q172.768 161 148.846 210.5 Q124.924 260 115.484 317.5 Q106.044 375 113.657 437 Q124.707 527 169.03 607 Q213.353 687 279.597 746 Q345.842 805 430.078 839.5 Q514.314 874 604.314 874 Q668.314 874 727.858 854 L786.242 963 L849.417 940 L789.911 830 Q841.596 803 881.623 762.5 Q921.65 722 947.888 671 Q974.126 620 984.821 560.5 Q995.515 501 987.657 437 Q976.483 346 932.222 266.5 Q887.961 187 821.655 127.5 Q755.349 68 671.675 34 Q588 0 497 0 Q420 0 355.947 24 L309.387 -62 L245.211 -39 Z M507.068 82 Q580.068 82 648.506 110 Q716.944 138 770.838 186 Q824.732 234 860.651 298.5 Q896.571 363 905.657 437 Q912.042 489 903.374 536.5 Q894.706 584 874.24 625 Q853.775 666 821.265 698.5 Q788.756 731 748.334 752 L397.401 101 Q422.296 92 449.682 87 Q477.068 82 507.068 82 Z M196.657 437 Q190.518 387 197.931 341.5 Q205.344 296 223.556 257 Q241.767 218 270.777 185.5 Q299.786 153 336.085 131 L685.404 777 Q662.14 783 637.07 786.5 Q612 790 585.877 789 Q513.754 788 447.316 760 Q380.878 732 328.046 684.5 Q275.214 637 240.356 573 Q205.497 509 196.657 437 Z " />
<glyph glyph-name="Oslashacute" unicode="&#x1fe;" horiz-adv-x="994" d="M245.211 -39 L294.508 53 Q246.946 81 209.857 121 Q172.768 161 148.846 210.5 Q124.924 260 115.484 317.5 Q106.044 375 113.657 437 Q124.707 527 169.03 607 Q213.353 687 279.597 746 Q345.842 805 430.078 839.5 Q514.314 874 604.314 874 Q668.314 874 727.858 854 L786.242 963 L849.417 940 L789.911 830 Q841.596 803 881.623 762.5 Q921.65 722 947.888 671 Q974.126 620 984.821 560.5 Q995.515 501 987.657 437 Q976.483 346 932.222 266.5 Q887.961 187 821.655 127.5 Q755.349 68 671.675 34 Q588 0 497 0 Q420 0 355.947 24 L309.387 -62 L245.211 -39 Z M568.521 1006 L498.521 1006 L705.41 1282 L770.639 1235 L568.521 1006 Z M507.068 82 Q580.068 82 648.506 110 Q716.944 138 770.838 186 Q824.732 234 860.651 298.5 Q896.571 363 905.657 437 Q912.042 489 903.374 536.5 Q894.706 584 874.24 625 Q853.775 666 821.265 698.5 Q788.756 731 748.334 752 L397.401 101 Q422.296 92 449.682 87 Q477.068 82 507.068 82 Z M196.657 437 Q190.518 387 197.931 341.5 Q205.344 296 223.556 257 Q241.767 218 270.777 185.5 Q299.786 153 336.085 131 L685.404 777 Q662.14 783 637.07 786.5 Q612 790 585.877 789 Q513.754 788 447.316 760 Q380.878 732 328.046 684.5 Q275.214 637 240.356 573 Q205.497 509 196.657 437 Z " />
<glyph glyph-name="Otilde" unicode="&#xd5;" horiz-adv-x="994" d="M604.314 874 Q695.314 874 770.578 839.5 Q845.842 805 897.597 746 Q949.353 687 974.03 607 Q998.707 527 987.657 437 Q976.483 346 932.222 266.5 Q887.961 187 821.655 127.5 Q755.349 68 671.675 34 Q588 0 497 0 Q407 0 331.175 34 Q255.349 68 203.655 127.5 Q151.961 187 127.222 266.5 Q102.483 346 113.657 437 Q124.707 527 169.03 607 Q213.353 687 279.597 746 Q345.842 805 430.078 839.5 Q514.314 874 604.314 874 Z M507.068 82 Q580.068 82 648.506 110 Q716.944 138 770.838 186 Q824.732 234 860.651 298.5 Q896.571 363 905.657 437 Q914.62 510 894.54 574.5 Q874.459 639 832.353 687 Q790.247 735 728.685 763 Q667.123 791 594.123 791 Q520.123 791 452.185 763 Q384.247 735 330.353 687 Q276.459 639 241.04 574.5 Q205.62 510 196.657 437 Q187.571 363 207.151 298.5 Q226.732 234 268.838 186 Q310.944 138 372.006 110 Q433.068 82 507.068 82 Z M439.396 1119 Q475.571 1153 509 1156.5 Q542.43 1160 573.018 1148.5 Q603.606 1137 633.835 1118.5 Q664.063 1100 695.151 1088.5 Q726.239 1077 759.169 1080.5 Q792.098 1084 829.273 1118 L819.573 1039 Q782.398 1005 749.969 1001.5 Q717.539 998 685.951 1009.5 Q654.363 1021 624.135 1039.5 Q593.906 1058 563.318 1069.5 Q532.73 1081 499.3 1077.5 Q465.871 1074 429.696 1040 L439.396 1119 Z " />
<glyph glyph-name="Sacute" unicode="&#x15a;" horiz-adv-x="804" d="M214.582 640 Q208.32 589 230.514 558 Q252.707 527 293.497 509 Q334.287 491 387.559 481 Q440.832 471 496.226 462 Q551.621 453 604.525 440 Q657.429 427 697.421 402.5 Q737.413 378 758.501 338 Q779.59 298 771.732 234 Q763.259 165 724.734 120 Q686.209 75 631.955 48.5 Q577.701 22 515.351 11 Q453 0 398 0 Q360 0 319.991 4 Q279.982 8 242.772 18.5 Q205.561 29 173.148 46 Q140.735 63 117.928 89 Q95.1202 115 84.5405 151 Q73.9607 187 79.7316 234 L156.732 234 Q150.838 186 174.593 155.5 Q198.348 125 237.199 107.5 Q276.051 90 322.314 84 Q368.577 78 406.577 78 Q443.577 78 489.814 84 Q536.051 90 577.699 107.5 Q619.348 125 650.093 155.5 Q680.838 186 686.854 235 Q692.625 282 670.002 309.5 Q647.378 337 606.843 353 Q566.308 369 512.913 378 Q459.518 387 403.623 396 Q347.728 405 295.008 419.5 Q242.288 434 203.042 460.5 Q163.796 487 143.076 530 Q122.356 573 130.705 641 Q139.177 710 177.641 754.5 Q216.105 799 270.359 825.5 Q324.612 852 386.902 862.5 Q449.191 873 506.191 873 Q543.191 873 583.077 868 Q622.963 863 659.551 851.5 Q696.139 840 727.868 821.5 Q759.596 803 781.781 776 Q803.966 749 814.484 712.5 Q825.002 676 819.231 629 L742.231 629 Q748.125 677 725.054 709 Q701.983 741 663.816 760 Q625.649 779 579.631 787 Q533.614 795 495.614 795 Q458.614 795 412.377 789 Q366.14 783 324.053 766 Q281.966 749 251.221 718.5 Q220.476 688 214.582 640 Z M480.521 1006 L411.521 1006 L618.41 1282 L682.639 1235 L480.521 1006 Z " />
<glyph glyph-name="Scaron" unicode="&#x160;" horiz-adv-x="804" d="M214.582 640 Q208.32 589 230.514 558 Q252.707 527 293.497 509 Q334.287 491 387.559 481 Q440.832 471 496.226 462 Q551.621 453 604.525 440 Q657.429 427 697.421 402.5 Q737.413 378 758.501 338 Q779.59 298 771.732 234 Q763.259 165 724.734 120 Q686.209 75 631.955 48.5 Q577.701 22 515.351 11 Q453 0 398 0 Q360 0 319.991 4 Q279.982 8 242.772 18.5 Q205.561 29 173.148 46 Q140.735 63 117.928 89 Q95.1202 115 84.5405 151 Q73.9607 187 79.7316 234 L156.732 234 Q150.838 186 174.593 155.5 Q198.348 125 237.199 107.5 Q276.051 90 322.314 84 Q368.577 78 406.577 78 Q443.577 78 489.814 84 Q536.051 90 577.699 107.5 Q619.348 125 650.093 155.5 Q680.838 186 686.854 235 Q692.625 282 670.002 309.5 Q647.378 337 606.843 353 Q566.308 369 512.913 378 Q459.518 387 403.623 396 Q347.728 405 295.008 419.5 Q242.288 434 203.042 460.5 Q163.796 487 143.076 530 Q122.356 573 130.705 641 Q139.177 710 177.641 754.5 Q216.105 799 270.359 825.5 Q324.612 852 386.902 862.5 Q449.191 873 506.191 873 Q543.191 873 583.077 868 Q622.963 863 659.551 851.5 Q696.139 840 727.868 821.5 Q759.596 803 781.781 776 Q803.966 749 814.484 712.5 Q825.002 676 819.231 629 L742.231 629 Q748.125 677 725.054 709 Q701.983 741 663.816 760 Q625.649 779 579.631 787 Q533.614 795 495.614 795 Q458.614 795 412.377 789 Q366.14 783 324.053 766 Q281.966 749 251.221 718.5 Q220.476 688 214.582 640 Z M691.85 1196 L738.466 1144 L518.4 948 L345.466 1144 L403.85 1196 L505.607 1080 Q515.257 1069 531.757 1069 Q548.257 1069 560.607 1080 L625.729 1138 Q650.43 1160 670.64 1178 Q690.85 1196 691.85 1196 Z " />
<glyph glyph-name="Scedilla" unicode="&#x15e;" horiz-adv-x="804" d="M478.316 -30 Q493.229 -47 498.966 -69.5 Q504.704 -92 501.757 -116 Q498.81 -140 487.048 -162.5 Q475.285 -185 456.198 -202 Q435.987 -220 412.944 -228.5 Q389.9 -237 366.9 -237 Q343.9 -237 322.944 -228.5 Q301.987 -220 286.198 -202 Q270.408 -184 264.17 -161.5 Q257.933 -139 260.757 -116 L324.757 -116 Q321.933 -139 337.968 -155 Q351.881 -172 375.381 -172 Q398.881 -172 417.968 -155 Q436.056 -138 438.88 -115 Q441.704 -92 427.791 -75 L360.123 1 Q306.491 4 252.965 16 Q199.438 28 158.253 55 Q117.068 82 94.4095 125.5 Q71.7506 169 79.7316 234 L156.732 234 Q150.838 186 174.593 155.5 Q198.348 125 237.199 107.5 Q276.051 90 322.314 84 Q368.577 78 406.577 78 Q443.577 78 489.814 84 Q536.051 90 577.699 107.5 Q619.348 125 650.093 155.5 Q680.838 186 686.854 235 Q692.625 282 670.002 309.5 Q647.378 337 606.843 353 Q566.308 369 512.913 378 Q459.518 387 403.623 396 Q347.728 405 295.008 419.5 Q242.288 434 203.042 460.5 Q163.796 487 143.076 530 Q122.356 573 130.705 641 Q139.177 710 177.641 754.5 Q216.105 799 270.359 825.5 Q324.612 852 386.902 862.5 Q449.191 873 506.191 873 Q543.191 873 583.077 868 Q622.963 863 659.551 851.5 Q696.139 840 727.868 821.5 Q759.596 803 781.781 776 Q803.966 749 814.484 712.5 Q825.002 676 819.231 629 L742.231 629 Q748.125 677 725.054 709 Q701.983 741 663.816 760 Q625.649 779 579.631 787 Q533.614 795 495.614 795 Q458.614 795 412.377 789 Q366.14 783 324.053 766 Q281.966 749 251.221 718.5 Q220.476 688 214.582 640 Q208.32 589 230.514 558 Q252.707 527 293.497 509 Q334.287 491 387.559 481 Q440.832 471 496.226 462 Q551.621 453 604.525 440 Q657.429 427 697.421 402.5 Q737.413 378 758.501 338 Q779.59 298 771.732 234 Q764.242 173 732.523 130.5 Q700.805 88 655.49 61 Q610.175 34 555.956 20 Q501.737 6 449.246 2 L478.316 -30 Z " />
<glyph glyph-name="Scircumflex" unicode="&#x15c;" horiz-adv-x="804" d="M214.582 640 Q208.32 589 230.514 558 Q252.707 527 293.497 509 Q334.287 491 387.559 481 Q440.832 471 496.226 462 Q551.621 453 604.525 440 Q657.429 427 697.421 402.5 Q737.413 378 758.501 338 Q779.59 298 771.732 234 Q763.259 165 724.734 120 Q686.209 75 631.955 48.5 Q577.701 22 515.351 11 Q453 0 398 0 Q360 0 319.991 4 Q279.982 8 242.772 18.5 Q205.561 29 173.148 46 Q140.735 63 117.928 89 Q95.1202 115 84.5405 151 Q73.9607 187 79.7316 234 L156.732 234 Q150.838 186 174.593 155.5 Q198.348 125 237.199 107.5 Q276.051 90 322.314 84 Q368.577 78 406.577 78 Q443.577 78 489.814 84 Q536.051 90 577.699 107.5 Q619.348 125 650.093 155.5 Q680.838 186 686.854 235 Q692.625 282 670.002 309.5 Q647.378 337 606.843 353 Q566.308 369 512.913 378 Q459.518 387 403.623 396 Q347.728 405 295.008 419.5 Q242.288 434 203.042 460.5 Q163.796 487 143.076 530 Q122.356 573 130.705 641 Q139.177 710 177.641 754.5 Q216.105 799 270.359 825.5 Q324.612 852 386.902 862.5 Q449.191 873 506.191 873 Q543.191 873 583.077 868 Q622.963 863 659.551 851.5 Q696.139 840 727.868 821.5 Q759.596 803 781.781 776 Q803.966 749 814.484 712.5 Q825.002 676 819.231 629 L742.231 629 Q748.125 677 725.054 709 Q701.983 741 663.816 760 Q625.649 779 579.631 787 Q533.614 795 495.614 795 Q458.614 795 412.377 789 Q366.14 783 324.053 766 Q281.966 749 251.221 718.5 Q220.476 688 214.582 640 Z M660.4 948 L558.643 1064 Q548.993 1075 532.493 1075 Q515.993 1075 503.643 1064 L373.4 948 L327.785 1000 L548.85 1196 L720.785 1000 L661.4 948 L660.4 948 Z " />
<glyph glyph-name="Scommaaccent" unicode="&#x218;" horiz-adv-x="804" d="M214.582 640 Q208.32 589 230.514 558 Q252.707 527 293.497 509 Q334.287 491 387.559 481 Q440.832 471 496.226 462 Q551.621 453 604.525 440 Q657.429 427 697.421 402.5 Q737.413 378 758.501 338 Q779.59 298 771.732 234 Q763.259 165 724.734 120 Q686.209 75 631.955 48.5 Q577.701 22 515.351 11 Q453 0 398 0 Q360 0 319.991 4 Q279.982 8 242.772 18.5 Q205.561 29 173.148 46 Q140.735 63 117.928 89 Q95.1202 115 84.5405 151 Q73.9607 187 79.7316 234 L156.732 234 Q150.838 186 174.593 155.5 Q198.348 125 237.199 107.5 Q276.051 90 322.314 84 Q368.577 78 406.577 78 Q443.577 78 489.814 84 Q536.051 90 577.699 107.5 Q619.348 125 650.093 155.5 Q680.838 186 686.854 235 Q692.625 282 670.002 309.5 Q647.378 337 606.843 353 Q566.308 369 512.913 378 Q459.518 387 403.623 396 Q347.728 405 295.008 419.5 Q242.288 434 203.042 460.5 Q163.796 487 143.076 530 Q122.356 573 130.705 641 Q139.177 710 177.641 754.5 Q216.105 799 270.359 825.5 Q324.612 852 386.902 862.5 Q449.191 873 506.191 873 Q543.191 873 583.077 868 Q622.963 863 659.551 851.5 Q696.139 840 727.868 821.5 Q759.596 803 781.781 776 Q803.966 749 814.484 712.5 Q825.002 676 819.231 629 L742.231 629 Q748.125 677 725.054 709 Q701.983 741 663.816 760 Q625.649 779 579.631 787 Q533.614 795 495.614 795 Q458.614 795 412.377 789 Q366.14 783 324.053 766 Q281.966 749 251.221 718.5 Q220.476 688 214.582 640 Z M343.565 -142 L425.565 -142 L369.062 -423 L309.062 -423 L343.565 -142 Z " />
<glyph glyph-name="Tbar" unicode="&#x166;" horiz-adv-x="787" d="M260.868 398 L270.445 476 L411.445 476 L446.071 758 Q448.158 775 438.009 786 Q427.859 797 410.859 797 L127.859 797 L137.436 875 L864.436 875 L854.859 797 L570.859 797 Q554.859 797 542.009 786 Q529.158 775 527.071 758 L492.445 476 L633.445 476 L623.868 398 L482.868 398 L434 0 L353 0 L401.868 398 L260.868 398 Z " />
<glyph glyph-name="Tcaron" unicode="&#x164;" horiz-adv-x="787" d="M127.859 797 L137.436 875 L864.436 875 L854.859 797 L570.859 797 Q554.859 797 542.009 786 Q529.158 775 527.071 758 L434 0 L353 0 L446.071 758 Q448.158 775 438.009 786 Q427.859 797 410.859 797 L127.859 797 Z M683.85 1196 L729.466 1144 L509.4 948 L337.466 1144 L395.85 1196 L497.607 1080 Q507.257 1069 523.757 1069 Q540.257 1069 552.607 1080 L617.729 1138 Q642.43 1160 662.64 1178 Q682.85 1196 683.85 1196 Z " />
<glyph glyph-name="Tcommaaccent" unicode="&#x162;" horiz-adv-x="787" d="M127.859 797 L137.436 875 L864.436 875 L854.859 797 L570.859 797 Q554.859 797 542.009 786 Q529.158 775 527.071 758 L434 0 L353 0 L446.071 758 Q448.158 775 438.009 786 Q427.859 797 410.859 797 L127.859 797 Z M334.565 -142 L417.565 -142 L361.062 -423 L300.062 -423 L334.565 -142 Z " />
<glyph glyph-name="Uacute" unicode="&#xda;" horiz-adv-x="886" d="M756.343 353 L820.314 874 L903.314 874 L839.343 353 Q830.38 280 794.96 215.5 Q759.54 151 705.647 103 Q651.753 55 583.877 27.5 Q516 0 443 0 Q370 0 308.877 27.5 Q247.753 55 205.647 103 Q163.54 151 143.96 215.5 Q124.38 280 133.343 353 L197.314 874 L280.314 874 L216.343 353 Q209.467 297 224.389 247.5 Q239.311 198 271.83 161.5 Q304.348 125 350.77 104 Q397.191 83 453.191 83 Q509.191 83 561.27 104 Q613.348 125 654.33 161.5 Q695.311 198 722.389 247.5 Q749.467 297 756.343 353 Z M522.521 1006 L452.521 1006 L659.41 1282 L724.639 1235 L522.521 1006 Z " />
<glyph glyph-name="Ubreve" unicode="&#x16c;" horiz-adv-x="886" d="M756.343 353 L820.314 874 L903.314 874 L839.343 353 Q830.38 280 794.96 215.5 Q759.54 151 705.647 103 Q651.753 55 583.877 27.5 Q516 0 443 0 Q370 0 308.877 27.5 Q247.753 55 205.647 103 Q163.54 151 143.96 215.5 Q124.38 280 133.343 353 L197.314 874 L280.314 874 L216.343 353 Q209.467 297 224.389 247.5 Q239.311 198 271.83 161.5 Q304.348 125 350.77 104 Q397.191 83 453.191 83 Q509.191 83 561.27 104 Q613.348 125 654.33 161.5 Q695.311 198 722.389 247.5 Q749.467 297 756.343 353 Z M641.747 1130 L717.747 1130 Q714.309 1102 700.739 1077 Q687.169 1052 666.398 1033.5 Q645.626 1015 619.337 1004.5 Q593.048 994 565.048 994 Q537.048 994 513.337 1004.5 Q489.626 1015 473.398 1033.5 Q457.169 1052 449.739 1077 Q442.309 1102 445.747 1130 L521.747 1130 Q518.677 1105 533.967 1087 Q549.257 1069 575.257 1069 Q600.379 1070 619.528 1087.5 Q638.677 1105 641.747 1130 Z " />
<glyph glyph-name="Ucircumflex" unicode="&#xdb;" horiz-adv-x="886" d="M756.343 353 L820.314 874 L903.314 874 L839.343 353 Q830.38 280 794.96 215.5 Q759.54 151 705.647 103 Q651.753 55 583.877 27.5 Q516 0 443 0 Q370 0 308.877 27.5 Q247.753 55 205.647 103 Q163.54 151 143.96 215.5 Q124.38 280 133.343 353 L197.314 874 L280.314 874 L216.343 353 Q209.467 297 224.389 247.5 Q239.311 198 271.83 161.5 Q304.348 125 350.77 104 Q397.191 83 453.191 83 Q509.191 83 561.27 104 Q613.348 125 654.33 161.5 Q695.311 198 722.389 247.5 Q749.467 297 756.343 353 Z M702.4 948 L600.643 1064 Q590.993 1075 574.493 1075 Q557.993 1075 545.643 1064 L415.4 948 L369.785 1000 L589.85 1196 L761.785 1000 L703.4 948 L702.4 948 Z " />
<glyph glyph-name="Udieresis" unicode="&#xdc;" horiz-adv-x="886" d="M756.343 353 L820.314 874 L903.314 874 L839.343 353 Q830.38 280 794.96 215.5 Q759.54 151 705.647 103 Q651.753 55 583.877 27.5 Q516 0 443 0 Q370 0 308.877 27.5 Q247.753 55 205.647 103 Q163.54 151 143.96 215.5 Q124.38 280 133.343 353 L197.314 874 L280.314 874 L216.343 353 Q209.467 297 224.389 247.5 Q239.311 198 271.83 161.5 Q304.348 125 350.77 104 Q397.191 83 453.191 83 Q509.191 83 561.27 104 Q613.348 125 654.33 161.5 Q695.311 198 722.389 247.5 Q749.467 297 756.343 353 Z M512.538 1055 Q509.714 1032 491.188 1015.5 Q472.662 999 449.662 999 Q426.662 999 412.188 1015.5 Q397.714 1032 400.538 1055 Q403.362 1078 421.888 1094.5 Q440.414 1111 463.414 1111 Q486.414 1111 500.888 1094.5 Q515.362 1078 512.538 1055 Z M743.538 1055 Q740.714 1032 722.188 1015.5 Q703.662 999 680.662 999 Q657.662 999 643.188 1015.5 Q628.714 1032 631.538 1055 Q634.362 1078 652.888 1094.5 Q671.414 1111 694.414 1111 Q717.414 1111 731.888 1094.5 Q746.362 1078 743.538 1055 Z " />
<glyph glyph-name="Ugrave" unicode="&#xd9;" horiz-adv-x="886" d="M756.343 353 L820.314 874 L903.314 874 L839.343 353 Q830.38 280 794.96 215.5 Q759.54 151 705.647 103 Q651.753 55 583.877 27.5 Q516 0 443 0 Q370 0 308.877 27.5 Q247.753 55 205.647 103 Q163.54 151 143.96 215.5 Q124.38 280 133.343 353 L197.314 874 L280.314 874 L216.343 353 Q209.467 297 224.389 247.5 Q239.311 198 271.83 161.5 Q304.348 125 350.77 104 Q397.191 83 453.191 83 Q509.191 83 561.27 104 Q613.348 125 654.33 161.5 Q695.311 198 722.389 247.5 Q749.467 297 756.343 353 Z M460.762 1236 L539.778 1285 L680.521 1006 L607.521 1006 L460.762 1236 Z " />
<glyph glyph-name="Uhungarumlaut" unicode="&#x170;" horiz-adv-x="886" d="M756.343 353 L820.314 874 L903.314 874 L839.343 353 Q830.38 280 794.96 215.5 Q759.54 151 705.647 103 Q651.753 55 583.877 27.5 Q516 0 443 0 Q370 0 308.877 27.5 Q247.753 55 205.647 103 Q163.54 151 143.96 215.5 Q124.38 280 133.343 353 L197.314 874 L280.314 874 L216.343 353 Q209.467 297 224.389 247.5 Q239.311 198 271.83 161.5 Q304.348 125 350.77 104 Q397.191 83 453.191 83 Q509.191 83 561.27 104 Q613.348 125 654.33 161.5 Q695.311 198 722.389 247.5 Q749.467 297 756.343 353 Z M685.521 1006 L615.521 1006 L822.41 1282 L887.639 1235 L685.521 1006 Z M449.521 1006 L379.521 1006 L586.41 1282 L651.639 1235 L449.521 1006 Z " />
<glyph glyph-name="Umacron" unicode="&#x16a;" horiz-adv-x="886" d="M756.343 353 L820.314 874 L903.314 874 L839.343 353 Q830.38 280 794.96 215.5 Q759.54 151 705.647 103 Q651.753 55 583.877 27.5 Q516 0 443 0 Q370 0 308.877 27.5 Q247.753 55 205.647 103 Q163.54 151 143.96 215.5 Q124.38 280 133.343 353 L197.314 874 L280.314 874 L216.343 353 Q209.467 297 224.389 247.5 Q239.311 198 271.83 161.5 Q304.348 125 350.77 104 Q397.191 83 453.191 83 Q509.191 83 561.27 104 Q613.348 125 654.33 161.5 Q695.311 198 722.389 247.5 Q749.467 297 756.343 353 Z M390.169 1052 L399.747 1130 L762.747 1130 L753.169 1052 L390.169 1052 Z " />
<glyph glyph-name="Uogonek" unicode="&#x172;" horiz-adv-x="886" d="M529.057 -195 Q475.163 -243 411.163 -243 Q379.163 -243 352.198 -230.5 Q325.233 -218 306.811 -197 Q288.39 -176 279.389 -147.5 Q270.389 -119 274.318 -87 Q278.247 -55 293.062 -28 Q307.877 -1 330.456 20 Q280.666 38 241.095 70 Q201.524 102 175.365 145.5 Q149.206 189 137.714 242 Q126.221 295 133.343 353 L197.314 874 L280.314 874 L216.343 353 Q209.467 297 224.389 247.5 Q239.311 198 271.83 161.5 Q304.348 125 350.77 104 Q397.191 83 453.191 83 Q509.191 83 561.27 104 Q613.348 125 654.391 162 Q695.434 199 722.451 248 Q749.467 297 756.343 353 L820.314 874 L903.314 874 L839.343 353 Q830.38 280 794.46 215.5 Q758.54 151 704.647 103 Q650.753 55 582.877 27.5 Q515 0 442 0 Q405 0 376.43 -25 Q347.861 -50 343.441 -86 Q339.143 -121 361.073 -146 Q383.004 -171 419.004 -171 Q436.004 -171 452.863 -164 Q469.723 -157 484.196 -145 L529.057 -195 Z " />
<glyph glyph-name="Uring" unicode="&#x16e;" horiz-adv-x="886" d="M756.343 353 L820.314 874 L903.314 874 L839.343 353 Q830.38 280 794.96 215.5 Q759.54 151 705.647 103 Q651.753 55 583.877 27.5 Q516 0 443 0 Q370 0 308.877 27.5 Q247.753 55 205.647 103 Q163.54 151 143.96 215.5 Q124.38 280 133.343 353 L197.314 874 L280.314 874 L216.343 353 Q209.467 297 224.389 247.5 Q239.311 198 271.83 161.5 Q304.348 125 350.77 104 Q397.191 83 453.191 83 Q509.191 83 561.27 104 Q613.348 125 654.33 161.5 Q695.311 198 722.389 247.5 Q749.467 297 756.343 353 Z M592.06 1214 Q617.06 1214 638.394 1204.5 Q659.728 1195 674.202 1178.5 Q688.676 1162 695.474 1140 Q702.273 1118 699.204 1093 Q696.011 1067 683.81 1045 Q671.609 1023 653.083 1006.5 Q634.557 990 610.89 980.5 Q587.224 971 562.224 971 Q537.224 971 515.89 980.5 Q494.557 990 480.083 1006.5 Q465.609 1023 458.81 1045 Q452.011 1067 455.204 1093 Q458.273 1118 470.474 1140 Q482.676 1162 501.202 1178.5 Q519.728 1195 543.394 1204.5 Q567.06 1214 592.06 1214 Z M570.205 1036 Q593.205 1036 611.731 1052.5 Q630.257 1069 633.204 1093 Q636.028 1116 621.554 1132.5 Q607.079 1149 584.079 1149 Q561.079 1149 542.054 1132.5 Q523.028 1116 520.204 1093 Q517.257 1069 532.231 1052.5 Q547.205 1036 570.205 1036 Z " />
<glyph glyph-name="Utilde" unicode="&#x168;" horiz-adv-x="886" d="M756.343 353 L820.314 874 L903.314 874 L839.343 353 Q830.38 280 794.96 215.5 Q759.54 151 705.647 103 Q651.753 55 583.877 27.5 Q516 0 443 0 Q370 0 308.877 27.5 Q247.753 55 205.647 103 Q163.54 151 143.96 215.5 Q124.38 280 133.343 353 L197.314 874 L280.314 874 L216.343 353 Q209.467 297 224.389 247.5 Q239.311 198 271.83 161.5 Q304.348 125 350.77 104 Q397.191 83 453.191 83 Q509.191 83 561.27 104 Q613.348 125 654.33 161.5 Q695.311 198 722.389 247.5 Q749.467 297 756.343 353 Z M385.396 1119 Q421.571 1153 455 1156.5 Q488.43 1160 519.018 1148.5 Q549.606 1137 579.835 1118.5 Q610.063 1100 641.151 1088.5 Q672.239 1077 705.169 1080.5 Q738.098 1084 775.273 1118 L765.573 1039 Q728.398 1005 695.969 1001.5 Q663.539 998 631.951 1009.5 Q600.363 1021 570.635 1039.5 Q540.906 1058 509.318 1069.5 Q477.73 1081 444.8 1077.5 Q411.871 1074 375.696 1040 L385.396 1119 Z " />
<glyph glyph-name="Wacute" unicode="&#x1e82;" horiz-adv-x="1315" d="M966.067 139 L1304.44 875 L1392.44 875 L994 0 L905 0 L749.229 743 L410 0 L322 0 L137.436 875 L226.436 875 L383.067 139 L720.436 875 L809.436 875 L966.067 139 Z M728.521 1006 L658.521 1006 L865.41 1282 L930.639 1235 L728.521 1006 Z " />
<glyph glyph-name="Wcircumflex" unicode="&#x174;" horiz-adv-x="1315" d="M966.067 139 L1304.44 875 L1392.44 875 L994 0 L905 0 L749.229 743 L410 0 L322 0 L137.436 875 L226.436 875 L383.067 139 L720.436 875 L809.436 875 L966.067 139 Z M916.4 948 L814.643 1064 Q804.993 1075 788.493 1075 Q771.993 1075 759.643 1064 L629.4 948 L583.785 1000 L803.85 1196 L975.785 1000 L917.4 948 L916.4 948 Z " />
<glyph glyph-name="Wdieresis" unicode="&#x1e84;" horiz-adv-x="1315" d="M966.067 139 L1304.44 875 L1392.44 875 L994 0 L905 0 L749.229 743 L410 0 L322 0 L137.436 875 L226.436 875 L383.067 139 L720.436 875 L809.436 875 L966.067 139 Z M727.538 1055 Q724.714 1032 706.188 1015.5 Q687.662 999 664.662 999 Q641.662 999 627.188 1015.5 Q612.714 1032 615.538 1055 Q618.362 1078 636.888 1094.5 Q655.414 1111 678.414 1111 Q701.414 1111 715.888 1094.5 Q730.362 1078 727.538 1055 Z M958.538 1055 Q955.714 1032 937.188 1015.5 Q918.662 999 895.662 999 Q872.662 999 858.188 1015.5 Q843.714 1032 846.538 1055 Q849.362 1078 867.888 1094.5 Q886.414 1111 909.414 1111 Q932.414 1111 946.888 1094.5 Q961.362 1078 958.538 1055 Z " />
<glyph glyph-name="Wgrave" unicode="&#x1e80;" horiz-adv-x="1315" d="M966.067 139 L1304.44 875 L1392.44 875 L994 0 L905 0 L749.229 743 L410 0 L322 0 L137.436 875 L226.436 875 L383.067 139 L720.436 875 L809.436 875 L966.067 139 Z M684.762 1236 L763.778 1285 L904.521 1006 L831.521 1006 L684.762 1236 Z " />
<glyph glyph-name="Yacute" unicode="&#xdd;" horiz-adv-x="932" d="M475.342 410 Q477.306 426 468.534 436 L137.314 874 L242.314 874 L527.147 498 L904.314 874 L1009.31 874 L570.534 436 Q559.306 426 557.342 410 L507 0 L425 0 L475.342 410 Z M618.521 1006 L548.521 1006 L755.41 1282 L820.639 1235 L618.521 1006 Z " />
<glyph glyph-name="Ycircumflex" unicode="&#x176;" horiz-adv-x="932" d="M475.342 410 Q477.306 426 468.534 436 L137.314 874 L242.314 874 L527.147 498 L904.314 874 L1009.31 874 L570.534 436 Q559.306 426 557.342 410 L507 0 L425 0 L475.342 410 Z M725.4 948 L623.643 1064 Q613.993 1075 597.493 1075 Q580.993 1075 568.643 1064 L438.4 948 L392.785 1000 L612.85 1196 L784.785 1000 L726.4 948 L725.4 948 Z " />
<glyph glyph-name="Ydieresis" unicode="&#x178;" horiz-adv-x="932" d="M475.342 410 Q477.306 426 468.534 436 L137.314 874 L242.314 874 L527.147 498 L904.314 874 L1009.31 874 L570.534 436 Q559.306 426 557.342 410 L507 0 L425 0 L475.342 410 Z M766.538 1055 Q763.714 1032 745.188 1015.5 Q726.662 999 703.662 999 Q680.662 999 666.188 1015.5 Q651.714 1032 654.538 1055 Q657.362 1078 675.888 1094.5 Q694.414 1111 717.414 1111 Q740.414 1111 754.888 1094.5 Q769.362 1078 766.538 1055 Z M535.538 1055 Q532.714 1032 514.188 1015.5 Q495.662 999 472.662 999 Q449.662 999 435.188 1015.5 Q420.714 1032 423.538 1055 Q426.362 1078 444.888 1094.5 Q463.414 1111 486.414 1111 Q509.414 1111 523.888 1094.5 Q538.362 1078 535.538 1055 Z " />
<glyph glyph-name="Ygrave" unicode="&#x1ef2;" horiz-adv-x="932" d="M475.342 410 Q477.306 426 468.534 436 L137.314 874 L242.314 874 L527.147 498 L904.314 874 L1009.31 874 L570.534 436 Q559.306 426 557.342 410 L507 0 L425 0 L475.342 410 Z M411.762 1236 L490.778 1285 L631.521 1006 L558.521 1006 L411.762 1236 Z " />
<glyph glyph-name="Zacute" unicode="&#x179;" horiz-adv-x="831" d="M878.436 875 L868.859 797 L170.454 77 L776.454 77 L767 0 L52 0 L61.4544 77 L758.859 797 L149.859 797 L159.436 875 L878.436 875 Z M548.521 1006 L478.521 1006 L685.41 1282 L750.639 1235 L548.521 1006 Z " />
<glyph glyph-name="Zcaron" unicode="&#x17d;" horiz-adv-x="831" d="M878.436 875 L868.859 797 L170.454 77 L776.454 77 L767 0 L52 0 L61.4544 77 L758.859 797 L149.859 797 L159.436 875 L878.436 875 Z M705.85 1196 L751.466 1144 L531.4 948 L359.466 1144 L417.85 1196 L519.607 1080 Q529.257 1069 545.757 1069 Q562.257 1069 574.607 1080 L639.729 1138 Q664.43 1160 684.64 1178 Q704.85 1196 705.85 1196 Z " />
<glyph glyph-name="Zdotaccent" unicode="&#x17b;" horiz-adv-x="831" d="M878.436 875 L868.859 797 L170.454 77 L776.454 77 L767 0 L52 0 L61.4544 77 L758.859 797 L149.859 797 L159.436 875 L878.436 875 Z M596.854 1025 Q594.03 1002 575.504 985.5 Q556.978 969 533.978 969 Q510.978 969 496.504 985.5 Q482.03 1002 484.854 1025 Q487.678 1048 506.204 1064.5 Q524.73 1081 547.73 1081 Q570.73 1081 585.204 1064.5 Q599.678 1048 596.854 1025 Z " />
<glyph glyph-name="c" unicode="c" horiz-adv-x="847" d="M586.245 792 Q513.245 792 444.807 764 Q376.369 736 321.976 688 Q267.582 640 231.663 575.5 Q195.743 511 186.78 438 Q177.816 365 197.397 300.5 Q216.977 236 259.022 187.5 Q301.067 139 362.129 111 Q423.191 83 496.191 83 Q567.191 83 635.445 109.5 Q703.699 136 760.961 187 L812.716 128 Q743.104 66 658.552 33 Q574 0 487 0 Q397 0 321.236 34.5 Q245.472 69 193.778 128.5 Q142.083 188 117.406 268 Q92.729 348 103.78 438 Q114.83 528 159.153 608 Q203.476 688 269.72 747 Q335.964 806 420.2 840.5 Q504.436 875 594.436 875 Q681.436 875 757.885 842 Q834.333 809 888.72 747 L822.599 689 Q778.738 739 717.992 765.5 Q657.245 792 586.245 792 Z " />
<glyph glyph-name="cacute" unicode="&#x107;" horiz-adv-x="847" d="M586.245 792 Q513.245 792 444.807 764 Q376.369 736 321.976 688 Q267.582 640 231.663 575.5 Q195.743 511 186.78 438 Q177.816 365 197.397 300.5 Q216.977 236 259.022 187.5 Q301.067 139 362.129 111 Q423.191 83 496.191 83 Q567.191 83 635.445 109.5 Q703.699 136 760.961 187 L812.716 128 Q743.104 66 658.552 33 Q574 0 487 0 Q397 0 321.236 34.5 Q245.472 69 193.778 128.5 Q142.083 188 117.406 268 Q92.729 348 103.78 438 Q114.83 528 159.153 608 Q203.476 688 269.72 747 Q335.964 806 420.2 840.5 Q504.436 875 594.436 875 Q681.436 875 757.885 842 Q834.333 809 888.72 747 L822.599 689 Q778.738 739 717.992 765.5 Q657.245 792 586.245 792 Z M582.521 1006 L512.521 1006 L719.41 1282 L784.639 1235 L582.521 1006 Z " />
<glyph glyph-name="ccaron" unicode="&#x10d;" horiz-adv-x="847" d="M586.245 792 Q513.245 792 444.807 764 Q376.369 736 321.976 688 Q267.582 640 231.663 575.5 Q195.743 511 186.78 438 Q177.816 365 197.397 300.5 Q216.977 236 259.022 187.5 Q301.067 139 362.129 111 Q423.191 83 496.191 83 Q567.191 83 635.445 109.5 Q703.699 136 760.961 187 L812.716 128 Q743.104 66 658.552 33 Q574 0 487 0 Q397 0 321.236 34.5 Q245.472 69 193.778 128.5 Q142.083 188 117.406 268 Q92.729 348 103.78 438 Q114.83 528 159.153 608 Q203.476 688 269.72 747 Q335.964 806 420.2 840.5 Q504.436 875 594.436 875 Q681.436 875 757.885 842 Q834.333 809 888.72 747 L822.599 689 Q778.738 739 717.992 765.5 Q657.245 792 586.245 792 Z M718.85 1196 L764.466 1144 L544.4 948 L372.466 1144 L430.85 1196 L532.607 1080 Q542.257 1069 558.757 1069 Q575.257 1069 587.607 1080 L652.729 1138 Q677.43 1160 697.64 1178 Q717.85 1196 718.85 1196 Z " />
<glyph glyph-name="ccedilla" unicode="&#xe7;" horiz-adv-x="847" d="M586.245 792 Q513.245 792 444.807 764 Q376.369 736 321.976 688 Q267.582 640 231.663 575.5 Q195.743 511 186.78 438 Q177.816 365 197.397 300.5 Q216.977 236 259.022 187.5 Q301.067 139 362.129 111 Q423.191 83 496.191 83 Q567.191 83 635.445 109.5 Q703.699 136 760.961 187 L812.716 128 Q753.209 75 683.341 43.5 Q613.473 12 539.491 4 Q548.141 -7 554.913 -17 Q561.685 -27 568.334 -38 Q585.51 -61 586.827 -91 Q588.143 -121 575.582 -150 Q562.899 -180 537.32 -201 Q508.373 -225 473.321 -229.5 Q438.268 -234 408.803 -221.5 Q379.338 -209 361.337 -180.5 Q343.337 -152 348.371 -111 L412.371 -111 Q410.038 -130 418.942 -143 Q427.846 -156 442.17 -161.5 Q456.495 -167 473.802 -164.5 Q491.109 -162 504.582 -150 Q523.67 -133 526.494 -110 Q529.318 -87 514.405 -70 L451.246 2 Q367.982 8 299.525 45 Q231.068 82 184.251 140.5 Q137.434 199 115.327 275.5 Q93.2202 352 103.78 438 Q114.83 528 159.153 608 Q203.476 688 269.72 747 Q335.964 806 420.2 840.5 Q504.436 875 594.436 875 Q681.436 875 757.885 842 Q834.333 809 888.72 747 L822.599 689 Q778.738 739 717.992 765.5 Q657.245 792 586.245 792 Z " />
<glyph glyph-name="ccircumflex" unicode="&#x109;" horiz-adv-x="847" d="M586.245 792 Q513.245 792 444.807 764 Q376.369 736 321.976 688 Q267.582 640 231.663 575.5 Q195.743 511 186.78 438 Q177.816 365 197.397 300.5 Q216.977 236 259.022 187.5 Q301.067 139 362.129 111 Q423.191 83 496.191 83 Q567.191 83 635.445 109.5 Q703.699 136 760.961 187 L812.716 128 Q743.104 66 658.552 33 Q574 0 487 0 Q397 0 321.236 34.5 Q245.472 69 193.778 128.5 Q142.083 188 117.406 268 Q92.729 348 103.78 438 Q114.83 528 159.153 608 Q203.476 688 269.72 747 Q335.964 806 420.2 840.5 Q504.436 875 594.436 875 Q681.436 875 757.885 842 Q834.333 809 888.72 747 L822.599 689 Q778.738 739 717.992 765.5 Q657.245 792 586.245 792 Z M717.4 948 L615.643 1064 Q605.993 1075 589.493 1075 Q572.993 1075 560.643 1064 L430.4 948 L384.785 1000 L604.85 1196 L776.785 1000 L718.4 948 L717.4 948 Z " />
<glyph glyph-name="cdotaccent" unicode="&#x10b;" horiz-adv-x="847" d="M586.245 792 Q513.245 792 444.807 764 Q376.369 736 321.976 688 Q267.582 640 231.663 575.5 Q195.743 511 186.78 438 Q177.816 365 197.397 300.5 Q216.977 236 259.022 187.5 Q301.067 139 362.129 111 Q423.191 83 496.191 83 Q567.191 83 635.445 109.5 Q703.699 136 760.961 187 L812.716 128 Q743.104 66 658.552 33 Q574 0 487 0 Q397 0 321.236 34.5 Q245.472 69 193.778 128.5 Q142.083 188 117.406 268 Q92.729 348 103.78 438 Q114.83 528 159.153 608 Q203.476 688 269.72 747 Q335.964 806 420.2 840.5 Q504.436 875 594.436 875 Q681.436 875 757.885 842 Q834.333 809 888.72 747 L822.599 689 Q778.738 739 717.992 765.5 Q657.245 792 586.245 792 Z M662.854 1025 Q660.03 1002 641.504 985.5 Q622.978 969 599.978 969 Q576.978 969 562.504 985.5 Q548.03 1002 550.854 1025 Q553.678 1048 572.204 1064.5 Q590.73 1081 613.73 1081 Q636.73 1081 651.204 1064.5 Q665.678 1048 662.854 1025 Z " />
<glyph glyph-name="d" unicode="d" horiz-adv-x="883" d="M488.436 875 Q578.436 875 654.2 840.5 Q729.964 806 781.659 746.5 Q833.353 687 858.03 607 Q882.707 527 871.657 437 Q860.606 347 816.283 267 Q771.961 187 705.716 128 Q639.472 69 555.236 34.5 Q471 0 381 0 L95 0 L202.436 875 L488.436 875 Z M788.411 435 Q796.883 504 778.303 568.5 Q759.723 633 719.3 682.5 Q678.878 732 620.062 762 Q561.245 792 489.245 792 L300.245 792 Q289.245 792 281.324 784.5 Q273.404 777 272.053 766 L191.261 108 Q189.91 97 196.051 90 Q202.191 83 213.191 83 L402.191 83 Q472.191 83 538.313 112.5 Q604.435 142 656.89 190.5 Q709.346 239 744.642 302.5 Q779.939 366 788.411 435 Z " />
<glyph glyph-name="dcaron" unicode="&#x10f;" horiz-adv-x="883" d="M488.436 875 Q578.436 875 654.2 840.5 Q729.964 806 781.659 746.5 Q833.353 687 858.03 607 Q882.707 527 871.657 437 Q860.606 347 816.283 267 Q771.961 187 705.716 128 Q639.472 69 555.236 34.5 Q471 0 381 0 L95 0 L202.436 875 L488.436 875 Z M788.411 435 Q796.883 504 778.303 568.5 Q759.723 633 719.3 682.5 Q678.878 732 620.062 762 Q561.245 792 489.245 792 L300.245 792 Q289.245 792 281.324 784.5 Q273.404 777 272.053 766 L191.261 108 Q189.91 97 196.051 90 Q202.191 83 213.191 83 L402.191 83 Q472.191 83 538.313 112.5 Q604.435 142 656.89 190.5 Q709.346 239 744.642 302.5 Q779.939 366 788.411 435 Z M727.85 1196 L773.466 1144 L553.4 948 L381.466 1144 L439.85 1196 L541.607 1080 Q551.257 1069 567.757 1069 Q584.257 1069 596.607 1080 L661.729 1138 Q686.43 1160 706.64 1178 Q726.85 1196 727.85 1196 Z " />
<glyph glyph-name="dcroat" unicode="&#x111;" horiz-adv-x="883" d="M7.88598 390 L17.4632 468 L152.463 468 L202.436 875 L488.436 875 Q578.436 875 654.2 840.5 Q729.964 806 781.659 746.5 Q833.353 687 858.03 607 Q882.707 527 871.657 437 Q860.606 347 816.283 267 Q771.961 187 705.716 128 Q639.472 69 555.236 34.5 Q471 0 381 0 L95 0 L142.886 390 L7.88598 390 Z M788.411 435 Q796.883 504 778.303 568.5 Q759.723 633 719.3 682.5 Q678.878 732 620.062 762 Q561.245 792 489.245 792 L300.245 792 Q289.245 792 281.324 784.5 Q273.404 777 272.053 766 L235.463 468 L380.463 468 L370.886 390 L225.886 390 L191.261 108 Q189.91 97 196.051 90 Q202.191 83 213.191 83 L402.191 83 Q472.191 83 538.313 112.5 Q604.435 142 656.89 190.5 Q709.346 239 744.642 302.5 Q779.939 366 788.411 435 Z " />
<glyph glyph-name="e" unicode="e" horiz-adv-x="776" d="M240.006 505 Q238.533 493 245.551 485 Q252.568 477 263.568 477 L769.568 477 L759.745 397 L253.745 397 Q242.745 397 233.763 389 Q224.781 381 223.43 370 L191.138 107 Q189.787 96 196.805 88 Q203.823 80 214.823 80 L720.823 80 L711 0 L95 0 L202.436 875 L818.314 874 L808.614 795 L302.614 795 Q291.614 795 282.57 786.5 Q273.526 778 272.176 767 L240.006 505 Z " />
<glyph glyph-name="eacute" unicode="&#xe9;" horiz-adv-x="776" d="M240.006 505 Q238.533 493 245.551 485 Q252.568 477 263.568 477 L769.568 477 L759.745 397 L253.745 397 Q242.745 397 233.763 389 Q224.781 381 223.43 370 L191.138 107 Q189.787 96 196.805 88 Q203.823 80 214.823 80 L720.823 80 L711 0 L95 0 L202.436 875 L818.314 874 L808.614 795 L302.614 795 Q291.614 795 282.57 786.5 Q273.526 778 272.176 767 L240.006 505 Z M463.521 1006 L393.521 1006 L600.41 1282 L665.639 1235 L463.521 1006 Z " />
<glyph glyph-name="ebreve" unicode="&#x115;" horiz-adv-x="776" d="M240.006 505 Q238.533 493 245.551 485 Q252.568 477 263.568 477 L769.568 477 L759.745 397 L346.745 397 Q331.745 397 310.93 398.5 Q290.114 400 271.43 398.5 Q252.745 397 239.009 391 Q225.272 385 223.43 370 L191.138 107 Q189.787 96 196.805 88 Q203.823 80 214.823 80 L720.823 80 L711 0 L95 0 L202.436 875 Q357.436 875 510.375 874.5 Q663.314 874 818.314 874 L808.614 795 L302.614 795 Q291.614 795 282.57 786.5 Q273.526 778 272.176 767 L240.006 505 Z M586.747 1130 L662.747 1130 Q659.309 1102 645.739 1077 Q632.169 1052 611.398 1033.5 Q590.626 1015 564.337 1004.5 Q538.048 994 510.048 994 Q482.048 994 458.337 1004.5 Q434.626 1015 418.398 1033.5 Q402.169 1052 394.739 1077 Q387.309 1102 390.747 1130 L466.747 1130 Q463.677 1105 479.028 1087.5 Q494.379 1070 518.257 1069 Q544.257 1069 563.967 1087 Q583.677 1105 586.747 1130 Z " />
<glyph glyph-name="ecaron" unicode="&#x11b;" horiz-adv-x="776" d="M240.006 505 Q238.533 493 245.551 485 Q252.568 477 263.568 477 L769.568 477 L759.745 397 L253.745 397 Q242.745 397 233.763 389 Q224.781 381 223.43 370 L191.138 107 Q189.787 96 196.805 88 Q203.823 80 214.823 80 L720.823 80 L711 0 L95 0 L202.436 875 L818.314 874 L808.614 795 L302.614 795 Q291.614 795 282.57 786.5 Q273.526 778 272.176 767 L240.006 505 Z M678.85 1196 L724.466 1144 L504.4 948 L332.466 1144 L390.85 1196 L492.607 1080 Q502.257 1069 518.757 1069 Q535.257 1069 547.607 1080 L612.729 1138 Q637.43 1160 657.64 1178 Q677.85 1196 678.85 1196 Z " />
<glyph glyph-name="ecircumflex" unicode="&#xea;" horiz-adv-x="776" d="M240.006 505 Q238.533 493 245.551 485 Q252.568 477 263.568 477 L769.568 477 L759.745 397 L253.745 397 Q242.745 397 233.763 389 Q224.781 381 223.43 370 L191.138 107 Q189.787 96 196.805 88 Q203.823 80 214.823 80 L720.823 80 L711 0 L95 0 L202.436 875 L818.314 874 L808.614 795 L302.614 795 Q291.614 795 282.57 786.5 Q273.526 778 272.176 767 L240.006 505 Z M647.4 948 L545.643 1064 Q535.993 1075 519.493 1075 Q502.993 1075 490.643 1064 L360.4 948 L314.785 1000 L534.85 1196 L706.785 1000 L648.4 948 L647.4 948 Z " />
<glyph glyph-name="edieresis" unicode="&#xeb;" horiz-adv-x="776" d="M240.006 505 Q238.533 493 245.551 485 Q252.568 477 263.568 477 L769.568 477 L759.745 397 L253.745 397 Q242.745 397 233.763 389 Q224.781 381 223.43 370 L191.138 107 Q189.787 96 196.805 88 Q203.823 80 214.823 80 L720.823 80 L711 0 L95 0 L202.436 875 L818.314 874 L808.614 795 L302.614 795 Q291.614 795 282.57 786.5 Q273.526 778 272.176 767 L240.006 505 Z M688.538 1055 Q685.714 1032 667.188 1015.5 Q648.662 999 625.662 999 Q602.662 999 588.188 1015.5 Q573.714 1032 576.538 1055 Q579.362 1078 597.888 1094.5 Q616.414 1111 639.414 1111 Q662.414 1111 676.888 1094.5 Q691.362 1078 688.538 1055 Z M457.538 1055 Q454.714 1032 436.188 1015.5 Q417.662 999 394.662 999 Q371.662 999 357.188 1015.5 Q342.714 1032 345.538 1055 Q348.362 1078 366.888 1094.5 Q385.414 1111 408.414 1111 Q431.414 1111 445.888 1094.5 Q460.362 1078 457.538 1055 Z " />
<glyph glyph-name="edotaccent" unicode="&#x117;" horiz-adv-x="776" d="M240.006 505 Q238.533 493 245.551 485 Q252.568 477 263.568 477 L769.568 477 L759.745 397 L253.745 397 Q242.745 397 233.763 389 Q224.781 381 223.43 370 L191.138 107 Q189.787 96 196.805 88 Q203.823 80 214.823 80 L720.823 80 L711 0 L95 0 L202.436 875 L818.314 874 L808.614 795 L302.614 795 Q291.614 795 282.57 786.5 Q273.526 778 272.176 767 L240.006 505 Z M569.854 1025 Q567.03 1002 548.504 985.5 Q529.978 969 506.978 969 Q483.978 969 469.504 985.5 Q455.03 1002 457.854 1025 Q460.678 1048 479.204 1064.5 Q497.73 1081 520.73 1081 Q543.73 1081 558.204 1064.5 Q572.678 1048 569.854 1025 Z " />
<glyph glyph-name="egrave" unicode="&#xe8;" horiz-adv-x="776" d="M240.006 505 Q238.533 493 245.551 485 Q252.568 477 263.568 477 L769.568 477 L759.745 397 L253.745 397 Q242.745 397 233.763 389 Q224.781 381 223.43 370 L191.138 107 Q189.787 96 196.805 88 Q203.823 80 214.823 80 L720.823 80 L711 0 L95 0 L202.436 875 L818.314 874 L808.614 795 L302.614 795 Q291.614 795 282.57 786.5 Q273.526 778 272.176 767 L240.006 505 Z M405.762 1236 L484.778 1285 L625.521 1006 L552.521 1006 L405.762 1236 Z " />
<glyph glyph-name="emacron" unicode="&#x113;" horiz-adv-x="776" d="M240.006 505 Q238.533 493 245.551 485 Q252.568 477 263.568 477 L769.568 477 L759.745 397 L253.745 397 Q242.745 397 233.763 389 Q224.781 381 223.43 370 L191.138 107 Q189.787 96 196.805 88 Q203.823 80 214.823 80 L720.823 80 L711 0 L95 0 L202.436 875 L818.314 874 L808.614 795 L302.614 795 Q291.614 795 282.57 786.5 Q273.526 778 272.176 767 L240.006 505 Z M335.169 1052 L344.747 1130 L707.747 1130 L698.169 1052 L335.169 1052 Z " />
<glyph glyph-name="eogonek" unicode="&#x119;" horiz-adv-x="776" d="M687.057 -195 Q633.163 -243 569.163 -243 Q537.163 -243 510.198 -230.5 Q483.233 -218 464.811 -197 Q446.39 -176 437.389 -147.5 Q428.389 -119 432.318 -87 Q438.457 -37 471 0 L95 0 L202.436 875 L818.314 874 L808.614 795 L302.614 795 Q291.614 795 282.57 786.5 Q273.526 778 272.176 767 L240.006 505 Q238.533 493 245.551 485 Q252.568 477 263.568 477 L769.568 477 L759.745 397 L253.745 397 Q242.745 397 233.763 389 Q224.781 381 223.43 370 L191.138 107 Q189.787 96 196.805 88 Q203.823 80 214.823 80 L720.823 80 L711 0 L600 0 Q563 0 534.93 -25 Q506.861 -50 502.441 -86 Q498.143 -121 520.073 -146 Q542.004 -171 577.004 -171 Q594.004 -171 611.363 -164 Q628.723 -157 642.196 -145 L687.057 -195 Z " />
<glyph glyph-name="aacute" unicode="&#xe1;" horiz-adv-x="896" d="M775.436 875 L836 0 L755 0 L739.591 241 Q738.17 262 738.362 288 Q738.554 314 734.378 337 Q730.202 360 720.606 375.5 Q711.009 391 690.009 391 L396.009 391 Q378.009 391 355.632 392 Q333.254 393 313.009 391 Q292.763 389 276.158 380 Q259.553 371 252.22 352 L141 0 L60 0 L337.436 875 L775.436 875 Z M598.521 1006 L529.521 1006 L736.41 1282 L801.639 1235 L598.521 1006 Z M289.832 471 L724.832 471 L700.35 801 L396.35 801 L289.832 471 Z " />
<glyph glyph-name="abreve" unicode="&#x103;" horiz-adv-x="896" d="M775.436 875 L836 0 L755 0 L739.591 241 Q738.17 262 738.362 288 Q738.554 314 734.378 337 Q730.202 360 720.606 375.5 Q711.009 391 690.009 391 L396.009 391 Q378.009 391 355.632 392 Q333.254 393 313.009 391 Q292.763 389 276.158 380 Q259.553 371 252.22 352 L141 0 L60 0 L337.436 875 L775.436 875 Z M579.257 1069 Q604.379 1070 624.028 1087.5 Q643.677 1105 646.747 1130 L722.747 1130 Q719.309 1102 705.739 1077 Q692.169 1052 670.898 1033.5 Q649.626 1015 623.337 1004.5 Q597.048 994 569.048 994 Q541.048 994 517.337 1004.5 Q493.626 1015 477.398 1033.5 Q461.169 1052 453.739 1077 Q446.309 1102 449.747 1130 L525.747 1130 Q522.677 1105 538.467 1087 Q554.257 1069 579.257 1069 Z M289.832 471 L724.832 471 L700.35 801 L396.35 801 L289.832 471 Z " />
<glyph glyph-name="acircumflex" unicode="&#xe2;" horiz-adv-x="896" d="M775.436 875 L836 0 L755 0 L739.591 241 Q738.17 262 738.362 288 Q738.554 314 734.378 337 Q730.202 360 720.606 375.5 Q711.009 391 690.009 391 L396.009 391 Q378.009 391 355.632 392 Q333.254 393 313.009 391 Q292.763 389 276.158 380 Q259.553 371 252.22 352 L141 0 L60 0 L337.436 875 L775.436 875 Z M707.4 948 L627.573 1039 Q620.555 1047 612.16 1056 Q603.766 1065 593.941 1070.5 Q584.116 1076 573.055 1075.5 Q561.993 1075 549.643 1064 L419.4 948 L373.785 1000 L593.85 1196 L765.785 1000 L707.4 948 Z M289.832 471 L724.832 471 L700.35 801 L396.35 801 L289.832 471 Z " />
<glyph glyph-name="adieresis" unicode="&#xe4;" horiz-adv-x="896" d="M775.436 875 L836 0 L755 0 L739.591 241 Q738.17 262 738.362 288 Q738.554 314 734.378 337 Q730.202 360 720.606 375.5 Q711.009 391 690.009 391 L396.009 391 Q378.009 391 355.632 392 Q333.254 393 313.009 391 Q292.763 389 276.158 380 Q259.553 371 252.22 352 L141 0 L60 0 L337.436 875 L775.436 875 Z M517.538 1055 Q514.714 1032 496.188 1015.5 Q477.662 999 454.662 999 Q431.662 999 417.688 1015.5 Q403.714 1032 406.538 1055 Q409.362 1078 427.388 1094.5 Q445.414 1111 468.414 1111 Q491.414 1111 505.888 1094.5 Q520.362 1078 517.538 1055 Z M748.538 1055 Q745.714 1032 727.188 1015.5 Q708.662 999 685.662 999 Q662.662 999 648.688 1015.5 Q634.714 1032 637.538 1055 Q640.362 1078 658.388 1094.5 Q676.414 1111 699.414 1111 Q722.414 1111 736.888 1094.5 Q751.362 1078 748.538 1055 Z M289.832 471 L724.832 471 L700.35 801 L396.35 801 L289.832 471 Z " />
<glyph glyph-name="agrave" unicode="&#xe0;" horiz-adv-x="896" d="M775.436 875 L836 0 L755 0 L739.591 241 Q738.17 262 738.362 288 Q738.554 314 734.378 337 Q730.202 360 720.606 375.5 Q711.009 391 690.009 391 L396.009 391 Q378.009 391 355.632 392 Q333.254 393 313.009 391 Q292.763 389 276.158 380 Q259.553 371 252.22 352 L141 0 L60 0 L337.436 875 L775.436 875 Z M393.762 1236 L472.778 1285 L614.521 1006 L540.521 1006 L393.762 1236 Z M289.832 471 L724.832 471 L700.35 801 L396.35 801 L289.832 471 Z " />
<glyph glyph-name="amacron" unicode="&#x101;" horiz-adv-x="896" d="M775.436 875 L836 0 L755 0 L739.591 241 Q738.17 262 738.362 288 Q738.554 314 734.378 337 Q730.202 360 720.606 375.5 Q711.009 391 690.009 391 L396.009 391 Q378.009 391 355.632 392 Q333.254 393 313.009 391 Q292.763 389 276.158 380 Q259.553 371 252.22 352 L141 0 L60 0 L337.436 875 L775.436 875 Z M395.169 1052 L404.747 1130 L768.747 1130 L759.169 1052 L395.169 1052 Z M289.832 471 L724.832 471 L700.35 801 L396.35 801 L289.832 471 Z " />
<glyph glyph-name="aogonek" unicode="&#x105;" horiz-adv-x="896" d="M842.057 -195 Q788.163 -243 724.163 -243 Q692.163 -243 665.198 -230.5 Q638.233 -218 619.811 -197 Q601.39 -176 592.389 -147.5 Q583.389 -119 587.318 -87 Q591.124 -56 605.439 -29 Q619.754 -2 641.772 18.5 Q663.789 39 691.885 52 Q719.981 65 750.227 67 L732.097 351 Q731.185 368 719.097 379.5 Q707.009 391 690.009 391 L305.009 391 Q288.009 391 273.158 380 Q258.308 369 252.22 352 L141 0 L60 0 L337.436 875 L775.436 875 L836 0 L755 0 Q718 0 689.43 -25 Q660.861 -50 656.441 -86 Q652.143 -121 674.073 -146 Q696.004 -171 732.004 -171 Q749.004 -171 765.863 -164 Q782.723 -157 797.196 -145 L842.057 -195 Z M289.832 471 L724.832 471 L700.35 801 L396.35 801 L289.832 471 Z " />
<glyph glyph-name="aring" unicode="&#xe5;" horiz-adv-x="896" d="M775.436 875 L836 0 L755 0 L739.591 241 Q738.17 262 738.362 288 Q738.554 314 734.378 337 Q730.202 360 720.606 375.5 Q711.009 391 690.009 391 L396.009 391 Q378.009 391 355.632 392 Q333.254 393 313.009 391 Q292.763 389 276.158 380 Q259.553 371 252.22 352 L141 0 L60 0 L337.436 875 L775.436 875 Z M596.06 1214 Q621.06 1214 642.394 1204.5 Q663.728 1195 678.202 1178.5 Q692.676 1162 699.474 1140 Q706.273 1118 703.204 1093 Q700.011 1067 687.81 1045 Q675.609 1023 657.083 1006.5 Q638.557 990 614.89 980.5 Q591.224 971 566.224 971 Q541.224 971 520.39 980.5 Q499.557 990 485.083 1006.5 Q470.609 1023 463.81 1045 Q457.011 1067 460.204 1093 Q463.273 1118 475.474 1140 Q487.676 1162 506.202 1178.5 Q524.728 1195 547.894 1204.5 Q571.06 1214 596.06 1214 Z M289.832 471 L724.832 471 L700.35 801 L396.35 801 L289.832 471 Z M574.205 1036 Q598.205 1036 616.731 1052.5 Q635.257 1069 638.204 1093 Q641.028 1116 626.554 1132.5 Q612.079 1149 588.079 1149 Q565.079 1149 546.554 1132.5 Q528.028 1116 525.204 1093 Q522.257 1069 536.731 1052.5 Q551.205 1036 574.205 1036 Z " />
<glyph glyph-name="atilde" unicode="&#xe3;" horiz-adv-x="896" d="M775.436 875 L836 0 L755 0 L739.591 241 Q738.17 262 738.362 288 Q738.554 314 734.378 337 Q730.202 360 720.606 375.5 Q711.009 391 690.009 391 L396.009 391 Q378.009 391 355.632 392 Q333.254 393 313.009 391 Q292.763 389 276.158 380 Q259.553 371 252.22 352 L141 0 L60 0 L337.436 875 L775.436 875 Z M390.396 1119 Q426.571 1153 459.5 1156.5 Q492.43 1160 523.518 1148.5 Q554.606 1137 584.835 1118.5 Q615.063 1100 646.151 1088.5 Q677.239 1077 710.169 1080.5 Q743.098 1084 780.273 1118 L770.573 1039 Q733.398 1005 700.469 1001.5 Q667.539 998 636.451 1009.5 Q605.363 1021 575.135 1039.5 Q544.906 1058 513.818 1069.5 Q482.73 1081 449.8 1077.5 Q416.871 1074 380.696 1040 L390.396 1119 Z M289.832 471 L724.832 471 L700.35 801 L396.35 801 L289.832 471 Z " />
<glyph glyph-name="h" unicode="h" horiz-adv-x="942" d="M827.006 505 L872.436 875 L954.436 875 L847 0 L765 0 L810.43 370 Q811.781 381 804.825 389.5 Q797.868 398 786.868 398 L252.868 398 Q241.868 398 232.825 389.5 Q223.781 381 222.43 370 L177 0 L95 0 L202.436 875 L284.436 875 L239.006 505 Q237.656 494 244.612 485.5 Q251.568 477 262.568 477 L796.568 477 Q807.568 477 816.612 485.5 Q825.656 494 827.006 505 Z " />
<glyph glyph-name="hbar" unicode="&#x127;" horiz-adv-x="942" d="M109.459 639 L119.282 719 L183.282 719 L202.436 875 L284.436 875 L265.282 719 L853.282 719 L872.436 875 L954.436 875 L935.282 719 L999.282 719 L989.459 639 L925.459 639 L847 0 L765 0 L810.43 370 Q811.781 381 804.825 389.5 Q797.868 398 786.868 398 L252.868 398 Q241.868 398 232.825 389.5 Q223.781 381 222.43 370 L177 0 L95 0 L173.459 639 L109.459 639 Z M827.006 505 L843.459 639 L255.459 639 L239.006 505 Q237.656 494 244.612 485.5 Q251.568 477 262.568 477 L796.568 477 Q807.568 477 816.612 485.5 Q825.656 494 827.006 505 Z " />
<glyph glyph-name="hcircumflex" unicode="&#x125;" horiz-adv-x="942" d="M827.006 505 L872.436 875 L954.436 875 L847 0 L765 0 L810.43 370 Q811.781 381 804.825 389.5 Q797.868 398 786.868 398 L252.868 398 Q241.868 398 232.825 389.5 Q223.781 381 222.43 370 L177 0 L95 0 L202.436 875 L284.436 875 L239.006 505 Q237.656 494 244.612 485.5 Q251.568 477 262.568 477 L796.568 477 Q807.568 477 816.612 485.5 Q825.656 494 827.006 505 Z M730.4 948 L628.643 1064 Q618.993 1075 602.493 1075 Q585.993 1075 573.643 1064 L443.4 948 L397.785 1000 L617.85 1196 L789.785 1000 L731.4 948 L730.4 948 Z " />
<glyph glyph-name="i" unicode="i" horiz-adv-x="342" d="M130 0 L237.436 875 L319.436 875 L212 0 L130 0 Z " />
<glyph glyph-name="iacute" unicode="&#xed;" horiz-adv-x="342" d="M130 0 L237.436 875 L319.436 875 L212 0 L130 0 Z M254.521 1006 L184.521 1006 L391.41 1282 L456.639 1235 L254.521 1006 Z " />
<glyph glyph-name="ibreve" unicode="&#x12d;" horiz-adv-x="342" d="M130 0 L237.436 875 L319.436 875 L212 0 L130 0 Z M303.257 1069 Q327.379 1070 347.028 1087.5 Q366.677 1105 369.747 1130 L445.747 1130 Q442.309 1102 428.739 1077 Q415.169 1052 394.398 1033.5 Q373.626 1015 347.337 1004.5 Q321.048 994 293.048 994 Q265.048 994 241.337 1004.5 Q217.626 1015 201.398 1033.5 Q185.169 1052 177.739 1077 Q170.309 1102 173.747 1130 L249.747 1130 Q246.677 1105 261.967 1087 Q277.257 1069 303.257 1069 Z " />
<glyph glyph-name="icircumflex" unicode="&#xee;" horiz-adv-x="342" d="M130 0 L237.436 875 L319.436 875 L212 0 L130 0 Z M430.4 948 L328.643 1064 Q318.993 1075 302.493 1075 Q285.993 1075 273.643 1064 L143.4 948 L97.7846 1000 L317.85 1196 L489.785 1000 L431.4 948 L430.4 948 Z " />
<glyph glyph-name="idieresis" unicode="&#xef;" horiz-adv-x="342" d="M130 0 L237.436 875 L319.436 875 L212 0 L130 0 Z M240.538 1055 Q237.714 1032 219.188 1015.5 Q200.662 999 177.662 999 Q154.662 999 140.188 1015.5 Q125.714 1032 128.538 1055 Q131.362 1078 149.888 1094.5 Q168.414 1111 191.414 1111 Q214.414 1111 228.888 1094.5 Q243.362 1078 240.538 1055 Z M471.538 1055 Q468.714 1032 450.188 1015.5 Q431.662 999 408.662 999 Q385.662 999 371.188 1015.5 Q356.714 1032 359.538 1055 Q362.362 1078 380.888 1094.5 Q399.414 1111 422.414 1111 Q445.414 1111 459.888 1094.5 Q474.362 1078 471.538 1055 Z " />
<glyph glyph-name="igrave" unicode="&#xec;" horiz-adv-x="342" d="M130 0 L237.436 875 L319.436 875 L212 0 L130 0 Z M352.854 1025 Q350.03 1002 331.504 985.5 Q312.978 969 289.978 969 Q266.978 969 252.504 985.5 Q238.03 1002 240.854 1025 Q243.678 1048 262.204 1064.5 Q280.73 1081 303.73 1081 Q326.73 1081 341.204 1064.5 Q355.678 1048 352.854 1025 Z " />
<glyph glyph-name="imacron" unicode="&#x12b;" horiz-adv-x="342" d="M130 0 L237.436 875 L319.436 875 L212 0 L130 0 Z M186.762 1236 L265.778 1285 L406.521 1006 L333.521 1006 L186.762 1236 Z " />
<glyph glyph-name="iogonek" unicode="&#x12f;" horiz-adv-x="342" d="M130 0 L237.436 875 L319.436 875 L212 0 L130 0 Z M119.169 1052 L128.747 1130 L491.747 1130 L482.169 1052 L119.169 1052 Z " />
<glyph glyph-name="itilde" unicode="&#x129;" horiz-adv-x="342" d="M223.057 -195 Q169.163 -243 105.163 -243 Q73.1634 -243 46.1982 -230.5 Q19.233 -218 0.811442 -197 Q-17.6101 -176 -26.6107 -147.5 Q-35.6114 -119 -31.6823 -87 Q-27.8759 -56 -12.438 -28 Q3 0 25.5785 21 Q48.157 42 77.1304 54 Q106.104 66 138.227 67 L237.436 875 L319.436 875 L212 0 L136 0 Q99 0 70.9304 -25 Q42.8608 -50 38.4405 -86 Q34.1431 -121 56.0735 -146 Q78.0038 -171 113.004 -171 Q149.004 -171 178.196 -145 L223.057 -195 Z " />
<glyph glyph-name="ij" unicode="&#x133;" horiz-adv-x="342" d="M130 0 L237.436 875 L319.436 875 L212 0 L130 0 Z M113.396 1119 Q149.571 1153 182.5 1156.5 Q215.43 1160 247.018 1148.5 Q278.606 1137 308.335 1118.5 Q338.063 1100 369.151 1088.5 Q400.239 1077 433.169 1080.5 Q466.098 1084 503.273 1118 L493.573 1039 Q456.398 1005 423.969 1001.5 Q391.539 998 360.451 1009.5 Q329.363 1021 298.635 1039.5 Q267.906 1058 237.318 1069.5 Q206.73 1081 173.3 1077.5 Q139.871 1074 103.696 1040 L113.396 1119 Z " />
<glyph glyph-name="j" unicode="j" horiz-adv-x="728" d="M598.343 353 L662.314 874 L745.314 874 L681.343 353 Q672.38 280 636.96 215.5 Q601.54 151 547.647 103 Q493.753 55 425.877 27.5 Q358 0 285 0 Q211 0 150.377 27.5 Q89.7532 55 47.6468 103 L112.768 161 Q145.225 124 191.147 103 Q237.068 82 294.068 82 Q350.068 82 402.208 103.5 Q454.348 125 495.33 161.5 Q536.311 198 563.889 247.5 Q591.467 297 598.343 353 Z " />
<glyph glyph-name="jcircumflex" unicode="&#x135;" horiz-adv-x="728" d="M598.343 353 L662.314 874 L745.314 874 L681.343 353 Q672.38 280 636.96 215.5 Q601.54 151 547.647 103 Q493.753 55 425.877 27.5 Q358 0 285 0 Q211 0 150.377 27.5 Q89.7532 55 47.6468 103 L112.768 161 Q145.225 124 191.147 103 Q237.068 82 294.068 82 Q350.068 82 402.208 103.5 Q454.348 125 495.33 161.5 Q536.311 198 563.889 247.5 Q591.467 297 598.343 353 Z M857.4 948 L777.573 1039 Q770.555 1047 762.16 1056 Q753.766 1065 744.441 1070.5 Q735.116 1076 724.055 1075.5 Q712.993 1075 700.643 1064 L570.4 948 L524.785 1000 L744.85 1196 L916.785 1000 L858.4 948 L857.4 948 Z " />
<glyph glyph-name="k" unicode="k" horiz-adv-x="842" d="M909.436 875 L469.78 438 L802 0 L696 0 L403.149 384 Q393.868 398 375.868 398 L252.868 398 Q241.868 398 232.825 389.5 Q223.781 381 222.43 370 L177 0 L95 0 L202.436 875 L284.436 875 L239.006 505 Q237.656 494 244.612 485.5 Q251.568 477 262.568 477 L384.568 477 Q402.568 477 416.287 491 L802.436 875 L909.436 875 Z " />
<glyph glyph-name="kcommaaccent" unicode="&#x137;" horiz-adv-x="842" d="M909.436 875 L469.78 438 L802 0 L696 0 L403.149 384 Q393.868 398 375.868 398 L252.868 398 Q241.868 398 232.825 389.5 Q223.781 381 222.43 370 L177 0 L95 0 L202.436 875 L284.436 875 L239.006 505 Q237.656 494 244.612 485.5 Q251.568 477 262.568 477 L384.568 477 Q402.568 477 416.287 491 L802.436 875 L909.436 875 Z M361.565 -142 L445.565 -142 L388.062 -423 L327.062 -423 L361.565 -142 Z " />
<glyph glyph-name="l" unicode="l" horiz-adv-x="712" d="M285.436 875 L193.103 123 Q190.647 103 200.235 91.5 Q209.823 80 229.823 80 L686.823 80 L677 0 L95 0 L202.436 875 L285.436 875 Z " />
<glyph glyph-name="lacute" unicode="&#x13a;" horiz-adv-x="712" d="M285.436 875 L193.103 123 Q190.647 103 200.235 91.5 Q209.823 80 229.823 80 L686.823 80 L677 0 L95 0 L202.436 875 L285.436 875 Z M326.521 1006 L257.521 1006 L464.41 1282 L528.639 1235 L326.521 1006 Z " />
<glyph glyph-name="lcaron" unicode="&#x13e;" horiz-adv-x="712" d="M285.436 875 L193.103 123 Q190.647 103 200.235 91.5 Q209.823 80 229.823 80 L686.823 80 L677 0 L95 0 L202.436 875 L285.436 875 Z M612.631 787 L695.631 787 L639.129 506 L578.129 506 L612.631 787 Z " />
<glyph glyph-name="lcommaaccent" unicode="&#x13c;" horiz-adv-x="712" d="M285.436 875 L193.103 123 Q190.647 103 200.235 91.5 Q209.823 80 229.823 80 L686.823 80 L677 0 L95 0 L202.436 875 L285.436 875 Z M290.565 -142 L373.565 -142 L317.062 -423 L256.062 -423 L290.565 -142 Z " />
<glyph glyph-name="ldot" unicode="&#x140;" horiz-adv-x="712" d="M285.436 875 L193.103 123 Q190.647 103 200.235 91.5 Q209.823 80 229.823 80 L686.823 80 L677 0 L95 0 L202.436 875 L285.436 875 Z M579.271 442 Q576.447 419 557.921 402.5 Q539.395 386 516.395 386 Q493.395 386 478.921 402.5 Q464.447 419 467.271 442 Q470.095 465 488.621 481.5 Q507.147 498 530.147 498 Q553.147 498 567.621 481.5 Q582.095 465 579.271 442 Z " />
<glyph glyph-name="lslash" unicode="&#x142;" horiz-adv-x="712" d="M78.7455 397 L88.5682 477 L153.568 477 L202.436 875 L285.436 875 L236.568 477 L534.568 477 L524.745 397 L226.745 397 L193.103 123 Q190.647 103 200.235 91.5 Q209.823 80 229.823 80 L686.823 80 L677 0 L95 0 L143.745 397 L78.7455 397 Z " />
<glyph glyph-name="n" unicode="n" horiz-adv-x="979" d="M817.962 130 L909.436 875 L991.436 875 L884 0 L809 0 L270.334 752 L178 0 L95 0 L202.436 875 L278.436 875 L817.962 130 Z " />
<glyph glyph-name="nacute" unicode="&#x144;" horiz-adv-x="979" d="M817.962 130 L909.436 875 L991.436 875 L884 0 L809 0 L270.334 752 L178 0 L95 0 L202.436 875 L278.436 875 L817.962 130 Z M640.521 1006 L570.521 1006 L777.41 1282 L842.639 1235 L640.521 1006 Z " />
<glyph glyph-name="ntilde" unicode="&#xf1;" horiz-adv-x="979" d="M817.962 130 L909.436 875 L991.436 875 L884 0 L809 0 L270.334 752 L178 0 L95 0 L202.436 875 L278.436 875 L817.962 130 Z M431.396 1119 Q467.571 1153 501 1156.5 Q534.43 1160 565.018 1148.5 Q595.606 1137 625.835 1118.5 Q656.063 1100 687.151 1088.5 Q718.239 1077 751.169 1080.5 Q784.098 1084 821.273 1118 L811.573 1039 Q774.398 1005 741.969 1001.5 Q709.539 998 678.451 1009.5 Q647.363 1021 616.635 1039.5 Q585.906 1058 555.318 1069.5 Q524.73 1081 491.3 1077.5 Q457.871 1074 421.696 1040 L431.396 1119 Z " />
<glyph glyph-name="ncommaaccent" unicode="&#x146;" horiz-adv-x="979" d="M817.962 130 L909.436 875 L991.436 875 L884 0 L809 0 L270.334 752 L178 0 L95 0 L202.436 875 L278.436 875 L817.962 130 Z M430.565 -142 L513.565 -142 L457.062 -423 L396.062 -423 L430.565 -142 Z " />
<glyph glyph-name="ncaron" unicode="&#x148;" horiz-adv-x="979" d="M817.962 130 L909.436 875 L991.436 875 L884 0 L809 0 L270.334 752 L178 0 L95 0 L202.436 875 L278.436 875 L817.962 130 Z M779.85 1196 L825.466 1144 L605.4 948 L433.466 1144 L491.85 1196 L593.607 1080 Q603.257 1069 619.757 1069 Q636.257 1069 648.607 1080 L713.729 1138 Q738.43 1160 758.64 1178 Q778.85 1196 779.85 1196 Z " />
<glyph glyph-name="napostrophe" unicode="&#x149;" horiz-adv-x="979" d="M817.962 130 L909.436 875 L991.436 875 L884 0 L809 0 L270.334 752 L178 0 L95 0 L202.436 875 L278.436 875 L817.962 130 Z M77.5646 -142 L160.565 -142 L104.062 -423 L43.0621 -423 L77.5646 -142 Z " />
<glyph glyph-name="o" unicode="o" horiz-adv-x="994" d="M507.068 82 Q580.068 82 648.506 110 Q716.944 138 770.838 186 Q824.732 234 860.651 298.5 Q896.571 363 905.657 437 Q914.62 510 894.54 574.5 Q874.459 639 832.353 687 Q790.247 735 728.685 763 Q667.123 791 594.123 791 Q520.123 791 452.185 763 Q384.247 735 330.353 687 Q276.459 639 241.04 574.5 Q205.62 510 196.657 437 Q187.571 363 207.151 298.5 Q226.732 234 268.838 186 Q310.944 138 372.006 110 Q433.068 82 507.068 82 Z M604.314 874 Q695.314 874 770.578 839.5 Q845.842 805 897.597 746 Q949.353 687 974.03 607 Q998.707 527 987.657 437 Q976.483 346 932.222 266.5 Q887.961 187 821.655 127.5 Q755.349 68 671.675 34 Q588 0 497 0 Q407 0 331.175 34 Q255.349 68 203.655 127.5 Q151.961 187 127.222 266.5 Q102.483 346 113.657 437 Q124.707 527 169.03 607 Q213.353 687 279.597 746 Q345.842 805 430.078 839.5 Q514.314 874 604.314 874 Z " />
<glyph glyph-name="oacute" unicode="&#xf3;" horiz-adv-x="994" d="M507.068 82 Q580.068 82 648.506 110 Q716.944 138 770.838 186 Q824.732 234 860.651 298.5 Q896.571 363 905.657 437 Q914.62 510 894.54 574.5 Q874.459 639 832.353 687 Q790.247 735 728.685 763 Q667.123 791 594.123 791 Q520.123 791 452.185 763 Q384.247 735 330.353 687 Q276.459 639 241.04 574.5 Q205.62 510 196.657 437 Q187.571 363 207.151 298.5 Q226.732 234 268.838 186 Q310.944 138 372.006 110 Q433.068 82 507.068 82 Z M604.314 874 Q695.314 874 770.578 839.5 Q845.842 805 897.597 746 Q949.353 687 974.03 607 Q998.707 527 987.657 437 Q976.483 346 932.222 266.5 Q887.961 187 821.655 127.5 Q755.349 68 671.675 34 Q588 0 497 0 Q407 0 331.175 34 Q255.349 68 203.655 127.5 Q151.961 187 127.222 266.5 Q102.483 346 113.657 437 Q124.707 527 169.03 607 Q213.353 687 279.597 746 Q345.842 805 430.078 839.5 Q514.314 874 604.314 874 Z M648.521 1006 L578.521 1006 L785.41 1282 L850.639 1235 L648.521 1006 Z " />
<glyph glyph-name="obreve" unicode="&#x14f;" horiz-adv-x="994" d="M604.314 874 Q695.314 874 770.578 839.5 Q845.842 805 897.597 746 Q949.353 687 974.03 607 Q998.707 527 987.657 437 Q976.483 346 932.222 266.5 Q887.961 187 821.655 127.5 Q755.349 68 671.675 34 Q588 0 497 0 Q407 0 331.175 34 Q255.349 68 203.655 127.5 Q151.961 187 127.222 266.5 Q102.483 346 113.657 437 Q124.707 527 169.03 607 Q213.353 687 279.597 746 Q345.842 805 430.078 839.5 Q514.314 874 604.314 874 Z M507.068 82 Q580.068 82 648.506 110 Q716.944 138 770.838 186 Q824.732 234 860.651 298.5 Q896.571 363 905.657 437 Q914.62 510 894.54 574.5 Q874.459 639 832.353 687 Q790.247 735 728.685 763 Q667.123 791 594.123 791 Q520.123 791 452.185 763 Q384.247 735 330.353 687 Q276.459 639 241.04 574.5 Q205.62 510 196.657 437 Q187.571 363 207.151 298.5 Q226.732 234 268.838 186 Q310.944 138 372.006 110 Q433.068 82 507.068 82 Z M695.747 1130 L771.747 1130 Q768.309 1102 754.739 1077 Q741.169 1052 720.398 1033.5 Q699.626 1015 673.337 1004.5 Q647.048 994 619.048 994 Q591.048 994 567.337 1004.5 Q543.626 1015 527.398 1033.5 Q511.169 1052 503.739 1077 Q496.309 1102 499.747 1130 L575.747 1130 Q572.677 1105 587.967 1087 Q603.257 1069 629.257 1069 Q654.379 1070 673.528 1087.5 Q692.677 1105 695.747 1130 Z " />
<glyph glyph-name="ocircumflex" unicode="&#xf4;" horiz-adv-x="994" d="M604.314 874 Q695.314 874 770.578 839.5 Q845.842 805 897.597 746 Q949.353 687 974.03 607 Q998.707 527 987.657 437 Q976.483 346 932.222 266.5 Q887.961 187 821.655 127.5 Q755.349 68 671.675 34 Q588 0 497 0 Q407 0 331.175 34 Q255.349 68 203.655 127.5 Q151.961 187 127.222 266.5 Q102.483 346 113.657 437 Q124.707 527 169.03 607 Q213.353 687 279.597 746 Q345.842 805 430.078 839.5 Q514.314 874 604.314 874 Z M507.068 82 Q580.068 82 648.506 110 Q716.944 138 770.838 186 Q824.732 234 860.651 298.5 Q896.571 363 905.657 437 Q914.62 510 894.54 574.5 Q874.459 639 832.353 687 Q790.247 735 728.685 763 Q667.123 791 594.123 791 Q520.123 791 452.185 763 Q384.247 735 330.353 687 Q276.459 639 241.04 574.5 Q205.62 510 196.657 437 Q187.571 363 207.151 298.5 Q226.732 234 268.838 186 Q310.944 138 372.006 110 Q433.068 82 507.068 82 Z M756.4 948 L654.643 1064 Q644.993 1075 628.493 1075 Q611.993 1075 599.643 1064 L469.4 948 L423.785 1000 L643.85 1196 L815.785 1000 L757.4 948 L756.4 948 Z " />
<glyph glyph-name="odieresis" unicode="&#xf6;" horiz-adv-x="994" d="M507.068 82 Q580.068 82 648.506 110 Q716.944 138 770.838 186 Q824.732 234 860.651 298.5 Q896.571 363 905.657 437 Q914.62 510 894.54 574.5 Q874.459 639 832.353 687 Q790.247 735 728.685 763 Q667.123 791 594.123 791 Q520.123 791 452.185 763 Q384.247 735 330.353 687 Q276.459 639 241.04 574.5 Q205.62 510 196.657 437 Q187.571 363 207.151 298.5 Q226.732 234 268.838 186 Q310.944 138 372.006 110 Q433.068 82 507.068 82 Z M604.314 874 Q695.314 874 770.578 839.5 Q845.842 805 897.597 746 Q949.353 687 974.03 607 Q998.707 527 987.657 437 Q976.483 346 932.222 266.5 Q887.961 187 821.655 127.5 Q755.349 68 671.675 34 Q588 0 497 0 Q407 0 331.175 34 Q255.349 68 203.655 127.5 Q151.961 187 127.222 266.5 Q102.483 346 113.657 437 Q124.707 527 169.03 607 Q213.353 687 279.597 746 Q345.842 805 430.078 839.5 Q514.314 874 604.314 874 Z M797.538 1055 Q794.714 1032 776.188 1015.5 Q757.662 999 734.662 999 Q711.662 999 697.188 1015.5 Q682.714 1032 685.538 1055 Q688.362 1078 706.888 1094.5 Q725.414 1111 748.414 1111 Q771.414 1111 785.888 1094.5 Q800.362 1078 797.538 1055 Z M566.538 1055 Q563.714 1032 545.188 1015.5 Q526.662 999 503.662 999 Q480.662 999 466.188 1015.5 Q451.714 1032 454.538 1055 Q457.362 1078 475.888 1094.5 Q494.414 1111 517.414 1111 Q540.414 1111 554.888 1094.5 Q569.362 1078 566.538 1055 Z " />
<glyph glyph-name="ograve" unicode="&#xf2;" horiz-adv-x="994" d="M507.068 82 Q580.068 82 648.506 110 Q716.944 138 770.838 186 Q824.732 234 860.651 298.5 Q896.571 363 905.657 437 Q914.62 510 894.54 574.5 Q874.459 639 832.353 687 Q790.247 735 728.685 763 Q667.123 791 594.123 791 Q520.123 791 452.185 763 Q384.247 735 330.353 687 Q276.459 639 241.04 574.5 Q205.62 510 196.657 437 Q187.571 363 207.151 298.5 Q226.732 234 268.838 186 Q310.944 138 372.006 110 Q433.068 82 507.068 82 Z M604.314 874 Q695.314 874 770.578 839.5 Q845.842 805 897.597 746 Q949.353 687 974.03 607 Q998.707 527 987.657 437 Q976.483 346 932.222 266.5 Q887.961 187 821.655 127.5 Q755.349 68 671.675 34 Q588 0 497 0 Q407 0 331.175 34 Q255.349 68 203.655 127.5 Q151.961 187 127.222 266.5 Q102.483 346 113.657 437 Q124.707 527 169.03 607 Q213.353 687 279.597 746 Q345.842 805 430.078 839.5 Q514.314 874 604.314 874 Z M444.762 1236 L523.778 1285 L664.521 1006 L591.521 1006 L444.762 1236 Z " />
<glyph glyph-name="ohungarumlaut" unicode="&#x151;" horiz-adv-x="994" d="M507.068 82 Q580.068 82 648.506 110 Q716.944 138 770.838 186 Q824.732 234 860.651 298.5 Q896.571 363 905.657 437 Q914.62 510 894.54 574.5 Q874.459 639 832.353 687 Q790.247 735 728.685 763 Q667.123 791 594.123 791 Q520.123 791 452.185 763 Q384.247 735 330.353 687 Q276.459 639 241.04 574.5 Q205.62 510 196.657 437 Q187.571 363 207.151 298.5 Q226.732 234 268.838 186 Q310.944 138 372.006 110 Q433.068 82 507.068 82 Z M604.314 874 Q695.314 874 770.578 839.5 Q845.842 805 897.597 746 Q949.353 687 974.03 607 Q998.707 527 987.657 437 Q976.483 346 932.222 266.5 Q887.961 187 821.655 127.5 Q755.349 68 671.675 34 Q588 0 497 0 Q407 0 331.175 34 Q255.349 68 203.655 127.5 Q151.961 187 127.222 266.5 Q102.483 346 113.657 437 Q124.707 527 169.03 607 Q213.353 687 279.597 746 Q345.842 805 430.078 839.5 Q514.314 874 604.314 874 Z M530.521 1006 L460.521 1006 L667.41 1282 L732.639 1235 L530.521 1006 Z M766.521 1006 L696.521 1006 L903.41 1282 L968.639 1235 L766.521 1006 Z " />
<glyph glyph-name="omacron" unicode="&#x14d;" horiz-adv-x="994" d="M604.314 874 Q695.314 874 770.578 839.5 Q845.842 805 897.597 746 Q949.353 687 974.03 607 Q998.707 527 987.657 437 Q976.483 346 932.222 266.5 Q887.961 187 821.655 127.5 Q755.349 68 671.675 34 Q588 0 497 0 Q407 0 331.175 34 Q255.349 68 203.655 127.5 Q151.961 187 127.222 266.5 Q102.483 346 113.657 437 Q124.707 527 169.03 607 Q213.353 687 279.597 746 Q345.842 805 430.078 839.5 Q514.314 874 604.314 874 Z M507.068 82 Q580.068 82 648.506 110 Q716.944 138 770.838 186 Q824.732 234 860.651 298.5 Q896.571 363 905.657 437 Q914.62 510 894.54 574.5 Q874.459 639 832.353 687 Q790.247 735 728.685 763 Q667.123 791 594.123 791 Q520.123 791 452.185 763 Q384.247 735 330.353 687 Q276.459 639 241.04 574.5 Q205.62 510 196.657 437 Q187.571 363 207.151 298.5 Q226.732 234 268.838 186 Q310.944 138 372.006 110 Q433.068 82 507.068 82 Z M444.169 1052 L453.747 1130 L816.747 1130 L807.169 1052 L444.169 1052 Z " />
<glyph glyph-name="oslash" unicode="&#xf8;" horiz-adv-x="994" d="M245.211 -39 L294.508 53 Q246.946 81 209.857 121 Q172.768 161 148.846 210.5 Q124.924 260 115.484 317.5 Q106.044 375 113.657 437 Q124.707 527 169.03 607 Q213.353 687 279.597 746 Q345.842 805 430.078 839.5 Q514.314 874 604.314 874 Q668.314 874 727.858 854 L786.242 963 L849.417 940 L789.911 830 Q841.596 803 881.623 762.5 Q921.65 722 947.888 671 Q974.126 620 984.821 560.5 Q995.515 501 987.657 437 Q976.483 346 932.222 266.5 Q887.961 187 821.655 127.5 Q755.349 68 671.675 34 Q588 0 497 0 Q420 0 355.947 24 L309.387 -62 L245.211 -39 Z M507.068 82 Q580.068 82 648.506 110 Q716.944 138 770.838 186 Q824.732 234 860.651 298.5 Q896.571 363 905.657 437 Q912.042 489 903.374 536.5 Q894.706 584 874.24 625 Q853.775 666 821.265 698.5 Q788.756 731 748.334 752 L397.401 101 Q422.296 92 449.682 87 Q477.068 82 507.068 82 Z M196.657 437 Q190.518 387 197.931 341.5 Q205.344 296 223.556 257 Q241.767 218 270.777 185.5 Q299.786 153 336.085 131 L685.404 777 Q662.14 783 637.07 786.5 Q612 790 585.877 789 Q513.754 788 447.316 760 Q380.878 732 328.046 684.5 Q275.214 637 240.356 573 Q205.497 509 196.657 437 Z " />
<glyph glyph-name="oslashacute" unicode="&#x1ff;" horiz-adv-x="994" d="M245.211 -39 L294.508 53 Q246.946 81 209.857 121 Q172.768 161 148.846 210.5 Q124.924 260 115.484 317.5 Q106.044 375 113.657 437 Q124.707 527 169.03 607 Q213.353 687 279.597 746 Q345.842 805 430.078 839.5 Q514.314 874 604.314 874 Q668.314 874 727.858 854 L786.242 963 L849.417 940 L789.911 830 Q841.596 803 881.623 762.5 Q921.65 722 947.888 671 Q974.126 620 984.821 560.5 Q995.515 501 987.657 437 Q976.483 346 932.222 266.5 Q887.961 187 821.655 127.5 Q755.349 68 671.675 34 Q588 0 497 0 Q420 0 355.947 24 L309.387 -62 L245.211 -39 Z M568.521 1006 L498.521 1006 L705.41 1282 L770.639 1235 L568.521 1006 Z M507.068 82 Q580.068 82 648.506 110 Q716.944 138 770.838 186 Q824.732 234 860.651 298.5 Q896.571 363 905.657 437 Q912.042 489 903.374 536.5 Q894.706 584 874.24 625 Q853.775 666 821.265 698.5 Q788.756 731 748.334 752 L397.401 101 Q422.296 92 449.682 87 Q477.068 82 507.068 82 Z M196.657 437 Q190.518 387 197.931 341.5 Q205.344 296 223.556 257 Q241.767 218 270.777 185.5 Q299.786 153 336.085 131 L685.404 777 Q662.14 783 637.07 786.5 Q612 790 585.877 789 Q513.754 788 447.316 760 Q380.878 732 328.046 684.5 Q275.214 637 240.356 573 Q205.497 509 196.657 437 Z " />
<glyph glyph-name="otilde" unicode="&#xf5;" horiz-adv-x="994" d="M604.314 874 Q695.314 874 770.578 839.5 Q845.842 805 897.597 746 Q949.353 687 974.03 607 Q998.707 527 987.657 437 Q976.483 346 932.222 266.5 Q887.961 187 821.655 127.5 Q755.349 68 671.675 34 Q588 0 497 0 Q407 0 331.175 34 Q255.349 68 203.655 127.5 Q151.961 187 127.222 266.5 Q102.483 346 113.657 437 Q124.707 527 169.03 607 Q213.353 687 279.597 746 Q345.842 805 430.078 839.5 Q514.314 874 604.314 874 Z M507.068 82 Q580.068 82 648.506 110 Q716.944 138 770.838 186 Q824.732 234 860.651 298.5 Q896.571 363 905.657 437 Q914.62 510 894.54 574.5 Q874.459 639 832.353 687 Q790.247 735 728.685 763 Q667.123 791 594.123 791 Q520.123 791 452.185 763 Q384.247 735 330.353 687 Q276.459 639 241.04 574.5 Q205.62 510 196.657 437 Q187.571 363 207.151 298.5 Q226.732 234 268.838 186 Q310.944 138 372.006 110 Q433.068 82 507.068 82 Z M439.396 1119 Q475.571 1153 509 1156.5 Q542.43 1160 573.018 1148.5 Q603.606 1137 633.835 1118.5 Q664.063 1100 695.151 1088.5 Q726.239 1077 759.169 1080.5 Q792.098 1084 829.273 1118 L819.573 1039 Q782.398 1005 749.969 1001.5 Q717.539 998 685.951 1009.5 Q654.363 1021 624.135 1039.5 Q593.906 1058 563.318 1069.5 Q532.73 1081 499.3 1077.5 Q465.871 1074 429.696 1040 L439.396 1119 Z " />
<glyph glyph-name="oe" unicode="&#x153;" horiz-adv-x="1186" d="M1228.31 874 L1218.61 795 L703.614 795 Q692.614 795 683.57 786.5 Q674.526 778 673.176 767 L641.006 505 Q639.533 493 646.551 485 Q653.568 477 664.568 477 L1179.57 477 L1169.75 397 L654.745 397 Q643.745 397 634.763 389 Q625.781 381 624.43 370 L592.138 107 Q590.787 96 597.805 88 Q604.823 80 615.823 80 L1130.82 80 L1121 0 L497 0 Q407 0 331.175 34 Q255.349 68 203.655 127.5 Q151.961 187 127.222 266.5 Q102.483 346 113.657 437 Q124.707 527 169.03 607 Q213.353 687 279.659 746.5 Q345.964 806 430.2 840.5 Q514.436 875 604.436 875 L1228.31 874 Z M594.491 794 Q520.491 794 452.053 766 Q383.615 738 329.16 689.5 Q274.705 641 238.724 576 Q202.743 511 193.657 437 Q184.448 362 204.467 297 Q224.486 232 267.031 183.5 Q309.576 135 371.138 107 Q432.7 79 506.7 79 L594.491 794 Z " />
<glyph glyph-name="R" unicode="R" horiz-adv-x="891" d="M919.723 633 Q915.794 601 902.487 570 Q889.181 539 869.304 511.5 Q849.428 484 822.665 461.5 Q795.902 439 766.061 424 Q755.447 419 744.956 415 Q734.464 411 722.973 407 Q710.482 403 700.939 394.5 Q691.395 386 690.553 371 Q690.939 366 699.685 339.5 Q708.432 313 722.266 275 Q736.1 237 752.759 193.5 Q769.418 150 784.068 110.5 Q798.718 71 810.473 40.5 Q822.228 10 826 0 L735 0 L582.868 398 L263.868 398 Q246.868 398 233.956 386.5 Q221.044 375 218.957 358 L175 0 L95 0 L202.436 875 L710.436 875 Q760.436 875 801.604 856 Q842.771 837 871.219 804 Q899.667 771 912.764 727 Q925.862 683 919.723 633 Z M657.445 476 Q690.445 476 720.98 488.5 Q751.515 501 776.216 523 Q800.918 545 817.417 573.5 Q833.916 602 837.968 635 Q842.266 670 833.388 699.5 Q824.51 729 805.211 751 Q785.912 773 756.886 785 Q727.859 797 692.859 797 L312.859 797 Q295.859 797 283.009 786 Q270.158 775 268.071 758 L238.234 515 Q236.147 498 246.296 487 Q256.445 476 273.445 476 L657.445 476 Z " />
<glyph glyph-name="Racute" unicode="&#x154;" horiz-adv-x="891" d="M919.723 633 Q915.794 601 902.487 570 Q889.181 539 869.304 511.5 Q849.428 484 822.665 461.5 Q795.902 439 766.061 424 Q755.447 419 744.956 415 Q734.464 411 722.973 407 Q710.482 403 700.939 394.5 Q691.395 386 690.553 371 Q690.939 366 699.685 339.5 Q708.432 313 722.266 275 Q736.1 237 752.759 193.5 Q769.418 150 784.068 110.5 Q798.718 71 810.473 40.5 Q822.228 10 826 0 L735 0 L582.868 398 L263.868 398 Q246.868 398 233.956 386.5 Q221.044 375 218.957 358 L175 0 L95 0 L202.436 875 L710.436 875 Q760.436 875 801.604 856 Q842.771 837 871.219 804 Q899.667 771 912.764 727 Q925.862 683 919.723 633 Z M657.445 476 Q690.445 476 720.98 488.5 Q751.515 501 776.216 523 Q800.918 545 817.417 573.5 Q833.916 602 837.968 635 Q842.266 670 833.388 699.5 Q824.51 729 805.211 751 Q785.912 773 756.886 785 Q727.859 797 692.859 797 L312.859 797 Q295.859 797 283.009 786 Q270.158 775 268.071 758 L238.234 515 Q236.147 498 246.296 487 Q256.445 476 273.445 476 L657.445 476 Z M516.521 1006 L446.521 1006 L654.41 1282 L718.639 1235 L516.521 1006 Z " />
<glyph glyph-name="Rcaron" unicode="&#x158;" horiz-adv-x="891" d="M919.723 633 Q915.794 601 902.487 570 Q889.181 539 869.304 511.5 Q849.428 484 822.665 461.5 Q795.902 439 766.061 424 Q755.447 419 744.956 415 Q734.464 411 722.973 407 Q710.482 403 700.939 394.5 Q691.395 386 690.553 371 Q690.694 364 699.94 337.5 Q709.186 311 722.582 273.5 Q735.977 236 752.197 193 Q768.418 150 783.19 111.5 Q797.963 73 809.718 42.5 Q821.473 12 826 0 L735 0 L582.868 398 L263.868 398 Q246.868 398 233.956 386.5 Q221.044 375 218.957 358 L175 0 L95 0 L202.436 875 L710.436 875 Q760.436 875 801.604 856 Q842.771 837 871.219 804 Q899.667 771 912.764 727 Q925.862 683 919.723 633 Z M735.85 1196 L781.466 1144 L561.4 948 L389.466 1144 L447.85 1196 L549.607 1080 Q559.257 1069 575.757 1069 Q592.257 1069 604.607 1080 L669.729 1138 Q694.43 1160 714.64 1178 Q734.85 1196 735.85 1196 Z M657.445 476 Q690.445 476 720.98 488.5 Q751.515 501 776.216 523 Q800.918 545 817.417 573.5 Q833.916 602 837.968 635 Q842.266 670 833.388 699.5 Q824.51 729 805.211 751 Q785.912 773 756.886 785 Q727.859 797 692.859 797 L312.859 797 Q295.859 797 283.009 786 Q270.158 775 268.071 758 L238.234 515 Q236.147 498 246.296 487 Q256.445 476 273.445 476 L657.445 476 Z " />
<glyph glyph-name="Rcommaaccent" unicode="&#x156;" horiz-adv-x="891" d="M919.723 633 Q915.794 601 902.487 570 Q889.181 539 869.304 511.5 Q849.428 484 822.665 461.5 Q795.902 439 766.061 424 Q755.447 419 744.956 415 Q734.464 411 722.973 407 Q710.482 403 700.939 394.5 Q691.395 386 690.553 371 Q690.694 364 699.94 337.5 Q709.186 311 722.582 273.5 Q735.977 236 752.197 193 Q768.418 150 783.19 111.5 Q797.963 73 809.718 42.5 Q821.473 12 826 0 L735 0 L582.868 398 L263.868 398 Q246.868 398 233.956 386.5 Q221.044 375 218.957 358 L175 0 L95 0 L202.436 875 L710.436 875 Q760.436 875 801.604 856 Q842.771 837 871.219 804 Q899.667 771 912.764 727 Q925.862 683 919.723 633 Z M657.445 476 Q690.445 476 720.98 488.5 Q751.515 501 776.216 523 Q800.918 545 817.417 573.5 Q833.916 602 837.968 635 Q842.266 670 833.388 699.5 Q824.51 729 805.211 751 Q785.912 773 756.886 785 Q727.859 797 692.859 797 L312.859 797 Q295.859 797 283.009 786 Q270.158 775 268.071 758 L238.234 515 Q236.147 498 246.296 487 Q256.445 476 273.445 476 L657.445 476 Z M385.565 -142 L468.565 -142 L412.062 -423 L351.062 -423 L385.565 -142 Z " />
<glyph glyph-name="r" unicode="r" horiz-adv-x="891" d="M919.723 633 Q915.794 601 902.487 570 Q889.181 539 869.304 511.5 Q849.428 484 822.665 461.5 Q795.902 439 766.061 424 Q755.447 419 744.956 415 Q734.464 411 722.973 407 Q710.482 403 700.939 394.5 Q691.395 386 690.553 371 Q690.939 366 699.685 339.5 Q708.432 313 722.266 275 Q736.1 237 752.759 193.5 Q769.418 150 784.068 110.5 Q798.718 71 810.473 40.5 Q822.228 10 826 0 L735 0 L582.868 398 L263.868 398 Q246.868 398 233.956 386.5 Q221.044 375 218.957 358 L175 0 L95 0 L202.436 875 L710.436 875 Q760.436 875 801.604 856 Q842.771 837 871.219 804 Q899.667 771 912.764 727 Q925.862 683 919.723 633 Z M657.445 476 Q690.445 476 720.98 488.5 Q751.515 501 776.216 523 Q800.918 545 817.417 573.5 Q833.916 602 837.968 635 Q842.266 670 833.388 699.5 Q824.51 729 805.211 751 Q785.912 773 756.886 785 Q727.859 797 692.859 797 L312.859 797 Q295.859 797 283.009 786 Q270.158 775 268.071 758 L238.234 515 Q236.147 498 246.296 487 Q256.445 476 273.445 476 L657.445 476 Z " />
<glyph glyph-name="racute" unicode="&#x155;" horiz-adv-x="891" d="M919.723 633 Q915.794 601 902.487 570 Q889.181 539 869.304 511.5 Q849.428 484 822.665 461.5 Q795.902 439 766.061 424 Q755.447 419 744.956 415 Q734.464 411 722.973 407 Q710.482 403 700.939 394.5 Q691.395 386 690.553 371 Q690.939 366 699.685 339.5 Q708.432 313 722.266 275 Q736.1 237 752.759 193.5 Q769.418 150 784.068 110.5 Q798.718 71 810.473 40.5 Q822.228 10 826 0 L735 0 L582.868 398 L263.868 398 Q246.868 398 233.956 386.5 Q221.044 375 218.957 358 L175 0 L95 0 L202.436 875 L710.436 875 Q760.436 875 801.604 856 Q842.771 837 871.219 804 Q899.667 771 912.764 727 Q925.862 683 919.723 633 Z M657.445 476 Q690.445 476 720.98 488.5 Q751.515 501 776.216 523 Q800.918 545 817.417 573.5 Q833.916 602 837.968 635 Q842.266 670 833.388 699.5 Q824.51 729 805.211 751 Q785.912 773 756.886 785 Q727.859 797 692.859 797 L312.859 797 Q295.859 797 283.009 786 Q270.158 775 268.071 758 L238.234 515 Q236.147 498 246.296 487 Q256.445 476 273.445 476 L657.445 476 Z M516.521 1006 L446.521 1006 L654.41 1282 L718.639 1235 L516.521 1006 Z " />
<glyph glyph-name="rcaron" unicode="&#x159;" horiz-adv-x="891" d="M919.723 633 Q915.794 601 902.487 570 Q889.181 539 869.304 511.5 Q849.428 484 822.665 461.5 Q795.902 439 766.061 424 Q755.447 419 744.956 415 Q734.464 411 722.973 407 Q710.482 403 700.939 394.5 Q691.395 386 690.553 371 Q690.694 364 699.94 337.5 Q709.186 311 722.582 273.5 Q735.977 236 752.197 193 Q768.418 150 783.19 111.5 Q797.963 73 809.718 42.5 Q821.473 12 826 0 L735 0 L582.868 398 L263.868 398 Q246.868 398 233.956 386.5 Q221.044 375 218.957 358 L175 0 L95 0 L202.436 875 L710.436 875 Q760.436 875 801.604 856 Q842.771 837 871.219 804 Q899.667 771 912.764 727 Q925.862 683 919.723 633 Z M735.85 1196 L781.466 1144 L561.4 948 L389.466 1144 L447.85 1196 L549.607 1080 Q559.257 1069 575.757 1069 Q592.257 1069 604.607 1080 L669.729 1138 Q694.43 1160 714.64 1178 Q734.85 1196 735.85 1196 Z M657.445 476 Q690.445 476 720.98 488.5 Q751.515 501 776.216 523 Q800.918 545 817.417 573.5 Q833.916 602 837.968 635 Q842.266 670 833.388 699.5 Q824.51 729 805.211 751 Q785.912 773 756.886 785 Q727.859 797 692.859 797 L312.859 797 Q295.859 797 283.009 786 Q270.158 775 268.071 758 L238.234 515 Q236.147 498 246.296 487 Q256.445 476 273.445 476 L657.445 476 Z " />
<glyph glyph-name="rcommaaccent" unicode="&#x157;" horiz-adv-x="891" d="M919.723 633 Q915.794 601 902.487 570 Q889.181 539 869.304 511.5 Q849.428 484 822.665 461.5 Q795.902 439 766.061 424 Q755.447 419 744.956 415 Q734.464 411 722.973 407 Q710.482 403 700.939 394.5 Q691.395 386 690.553 371 Q690.694 364 699.94 337.5 Q709.186 311 722.582 273.5 Q735.977 236 752.197 193 Q768.418 150 783.19 111.5 Q797.963 73 809.718 42.5 Q821.473 12 826 0 L735 0 L582.868 398 L263.868 398 Q246.868 398 233.956 386.5 Q221.044 375 218.957 358 L175 0 L95 0 L202.436 875 L710.436 875 Q760.436 875 801.604 856 Q842.771 837 871.219 804 Q899.667 771 912.764 727 Q925.862 683 919.723 633 Z M657.445 476 Q690.445 476 720.98 488.5 Q751.515 501 776.216 523 Q800.918 545 817.417 573.5 Q833.916 602 837.968 635 Q842.266 670 833.388 699.5 Q824.51 729 805.211 751 Q785.912 773 756.886 785 Q727.859 797 692.859 797 L312.859 797 Q295.859 797 283.009 786 Q270.158 775 268.071 758 L238.234 515 Q236.147 498 246.296 487 Q256.445 476 273.445 476 L657.445 476 Z M385.565 -142 L468.565 -142 L412.062 -423 L351.062 -423 L385.565 -142 Z " />
<glyph glyph-name="s" unicode="s" horiz-adv-x="804" d="M214.582 640 Q208.32 589 230.514 558 Q252.707 527 293.497 509 Q334.287 491 387.559 481 Q440.832 471 496.226 462 Q551.621 453 604.525 440 Q657.429 427 697.421 402.5 Q737.413 378 758.501 338 Q779.59 298 771.732 234 Q766.083 188 746.286 153 Q726.489 118 697.296 92 Q668.104 66 631.955 48.5 Q595.806 31 555.956 20 Q516.105 9 475.553 4.5 Q435 0 398 0 Q360 0 319.991 4 Q279.982 8 242.772 18.5 Q205.561 29 173.148 46 Q140.735 63 117.928 89 Q95.1202 115 84.5405 151 Q73.9607 187 79.7316 234 L156.732 234 Q150.838 186 174.593 155.5 Q198.348 125 237.199 107.5 Q276.051 90 322.314 84 Q368.577 78 407.577 78 Q444.577 78 490.314 84 Q536.051 90 577.699 107.5 Q619.348 125 650.093 155.5 Q680.838 186 686.854 235 Q692.625 282 670.002 309.5 Q647.378 337 606.843 353 Q566.308 369 512.913 378 Q459.518 387 403.623 396 Q347.728 405 295.008 419.5 Q242.288 434 203.042 460.5 Q163.796 487 143.076 530 Q122.356 573 130.705 641 Q139.177 710 177.641 754.5 Q216.105 799 270.359 825.5 Q324.612 852 386.902 862.5 Q449.191 873 506.191 873 Q563.191 873 622.279 861.5 Q681.367 850 728.368 821.5 Q775.368 793 801.597 746 Q827.826 699 819.231 629 L742.231 629 Q748.125 677 725.054 709 Q701.983 741 663.816 760 Q625.649 779 579.631 787 Q533.614 795 495.614 795 Q458.614 795 412.377 789 Q366.14 783 324.053 766 Q281.966 749 251.221 718.5 Q220.476 688 214.582 640 Z " />
<glyph glyph-name="sacute" unicode="&#x15b;" horiz-adv-x="804" d="M214.582 640 Q208.32 589 230.514 558 Q252.707 527 293.497 509 Q334.287 491 387.559 481 Q440.832 471 496.226 462 Q551.621 453 604.525 440 Q657.429 427 697.421 402.5 Q737.413 378 758.501 338 Q779.59 298 771.732 234 Q766.083 188 746.286 153 Q726.489 118 697.296 92 Q668.104 66 631.955 48.5 Q595.806 31 555.956 20 Q516.105 9 475.553 4.5 Q435 0 398 0 Q360 0 319.991 4 Q279.982 8 242.772 18.5 Q205.561 29 173.148 46 Q140.735 63 117.928 89 Q95.1202 115 84.5405 151 Q73.9607 187 79.7316 234 L156.732 234 Q150.838 186 174.593 155.5 Q198.348 125 237.199 107.5 Q276.051 90 322.314 84 Q368.577 78 407.577 78 Q444.577 78 490.314 84 Q536.051 90 577.699 107.5 Q619.348 125 650.093 155.5 Q680.838 186 686.854 235 Q692.625 282 670.002 309.5 Q647.378 337 606.843 353 Q566.308 369 512.913 378 Q459.518 387 403.623 396 Q347.728 405 295.008 419.5 Q242.288 434 203.042 460.5 Q163.796 487 143.076 530 Q122.356 573 130.705 641 Q139.177 710 177.641 754.5 Q216.105 799 270.359 825.5 Q324.612 852 386.902 862.5 Q449.191 873 506.191 873 Q563.191 873 622.279 861.5 Q681.367 850 728.368 821.5 Q775.368 793 801.597 746 Q827.826 699 819.231 629 L742.231 629 Q748.125 677 725.054 709 Q701.983 741 663.816 760 Q625.649 779 579.631 787 Q533.614 795 495.614 795 Q458.614 795 412.377 789 Q366.14 783 324.053 766 Q281.966 749 251.221 718.5 Q220.476 688 214.582 640 Z M480.521 1006 L411.521 1006 L618.41 1282 L682.639 1235 L480.521 1006 Z " />
<glyph glyph-name="scaron" unicode="&#x161;" horiz-adv-x="804" d="M214.582 640 Q208.32 589 230.514 558 Q252.707 527 293.497 509 Q334.287 491 387.559 481 Q440.832 471 496.226 462 Q551.621 453 604.525 440 Q657.429 427 697.421 402.5 Q737.413 378 758.501 338 Q779.59 298 771.732 234 Q766.083 188 746.286 153 Q726.489 118 697.296 92 Q668.104 66 631.955 48.5 Q595.806 31 555.956 20 Q516.105 9 475.553 4.5 Q435 0 398 0 Q360 0 319.991 4 Q279.982 8 242.772 18.5 Q205.561 29 173.148 46 Q140.735 63 117.928 89 Q95.1202 115 84.5405 151 Q73.9607 187 79.7316 234 L156.732 234 Q150.838 186 174.593 155.5 Q198.348 125 237.199 107.5 Q276.051 90 322.314 84 Q368.577 78 407.577 78 Q444.577 78 490.314 84 Q536.051 90 577.699 107.5 Q619.348 125 650.093 155.5 Q680.838 186 686.854 235 Q692.625 282 670.002 309.5 Q647.378 337 606.843 353 Q566.308 369 512.913 378 Q459.518 387 403.623 396 Q347.728 405 295.008 419.5 Q242.288 434 203.042 460.5 Q163.796 487 143.076 530 Q122.356 573 130.705 641 Q139.177 710 177.641 754.5 Q216.105 799 270.359 825.5 Q324.612 852 386.902 862.5 Q449.191 873 506.191 873 Q563.191 873 622.279 861.5 Q681.367 850 728.368 821.5 Q775.368 793 801.597 746 Q827.826 699 819.231 629 L742.231 629 Q748.125 677 725.054 709 Q701.983 741 663.816 760 Q625.649 779 579.631 787 Q533.614 795 495.614 795 Q458.614 795 412.377 789 Q366.14 783 324.053 766 Q281.966 749 251.221 718.5 Q220.476 688 214.582 640 Z M691.85 1196 L738.466 1144 L518.4 948 L345.466 1144 L403.85 1196 L505.607 1080 Q515.257 1069 531.757 1069 Q548.257 1069 560.607 1080 L625.729 1138 Q650.43 1160 670.64 1178 Q690.85 1196 691.85 1196 Z " />
<glyph glyph-name="scedilla" unicode="&#x15f;" horiz-adv-x="804" d="M478.316 -30 Q493.229 -47 498.966 -69.5 Q504.704 -92 501.757 -116 Q498.81 -140 487.048 -162.5 Q475.285 -185 456.198 -202 Q435.987 -220 412.944 -228.5 Q389.9 -237 366.9 -237 Q343.9 -237 322.944 -228.5 Q301.987 -220 286.198 -202 Q270.408 -184 264.17 -161.5 Q257.933 -139 260.757 -116 L324.757 -116 Q321.933 -139 337.968 -155 Q351.881 -172 375.381 -172 Q398.881 -172 417.968 -155 Q436.056 -138 438.88 -115 Q441.704 -92 427.791 -75 L360.123 1 Q306.491 4 252.965 16 Q199.438 28 158.253 55 Q117.068 82 94.4095 125.5 Q71.7506 169 79.7316 234 L156.732 234 Q150.838 186 174.593 155.5 Q198.348 125 237.199 107.5 Q276.051 90 322.314 84 Q368.577 78 407.577 78 Q444.577 78 490.314 84 Q536.051 90 577.699 107.5 Q619.348 125 650.093 155.5 Q680.838 186 686.854 235 Q692.625 282 670.002 309.5 Q647.378 337 606.843 353 Q566.308 369 512.913 378 Q459.518 387 403.623 396 Q347.728 405 295.008 419.5 Q242.288 434 203.042 460.5 Q163.796 487 143.076 530 Q122.356 573 130.705 641 Q139.177 710 177.641 754.5 Q216.105 799 270.359 825.5 Q324.612 852 386.902 862.5 Q449.191 873 506.191 873 Q563.191 873 622.279 861.5 Q681.367 850 728.368 821.5 Q775.368 793 801.597 746 Q827.826 699 819.231 629 L742.231 629 Q748.125 677 725.054 709 Q701.983 741 663.816 760 Q625.649 779 579.631 787 Q533.614 795 495.614 795 Q458.614 795 412.377 789 Q366.14 783 324.053 766 Q281.966 749 251.221 718.5 Q220.476 688 214.582 640 Q208.32 589 230.514 558 Q252.707 527 293.497 509 Q334.287 491 387.559 481 Q440.832 471 496.226 462 Q551.621 453 604.525 440 Q657.429 427 697.421 402.5 Q737.413 378 758.501 338 Q779.59 298 771.732 234 Q764.242 173 732.523 130.5 Q700.805 88 655.49 61 Q610.175 34 555.956 20 Q501.737 6 449.246 2 L478.316 -30 Z " />
<glyph glyph-name="scircumflex" unicode="&#x15d;" horiz-adv-x="804" d="M214.582 640 Q208.32 589 230.514 558 Q252.707 527 293.497 509 Q334.287 491 387.559 481 Q440.832 471 496.226 462 Q551.621 453 604.525 440 Q657.429 427 697.421 402.5 Q737.413 378 758.501 338 Q779.59 298 771.732 234 Q766.083 188 746.286 153 Q726.489 118 697.296 92 Q668.104 66 631.955 48.5 Q595.806 31 555.956 20 Q516.105 9 475.553 4.5 Q435 0 398 0 Q360 0 319.991 4 Q279.982 8 242.772 18.5 Q205.561 29 173.148 46 Q140.735 63 117.928 89 Q95.1202 115 84.5405 151 Q73.9607 187 79.7316 234 L156.732 234 Q150.838 186 174.593 155.5 Q198.348 125 237.199 107.5 Q276.051 90 322.314 84 Q368.577 78 407.577 78 Q444.577 78 490.314 84 Q536.051 90 577.699 107.5 Q619.348 125 650.093 155.5 Q680.838 186 686.854 235 Q692.625 282 670.002 309.5 Q647.378 337 606.843 353 Q566.308 369 512.913 378 Q459.518 387 403.623 396 Q347.728 405 295.008 419.5 Q242.288 434 203.042 460.5 Q163.796 487 143.076 530 Q122.356 573 130.705 641 Q139.177 710 177.641 754.5 Q216.105 799 270.359 825.5 Q324.612 852 386.902 862.5 Q449.191 873 506.191 873 Q563.191 873 622.279 861.5 Q681.367 850 728.368 821.5 Q775.368 793 801.597 746 Q827.826 699 819.231 629 L742.231 629 Q748.125 677 725.054 709 Q701.983 741 663.816 760 Q625.649 779 579.631 787 Q533.614 795 495.614 795 Q458.614 795 412.377 789 Q366.14 783 324.053 766 Q281.966 749 251.221 718.5 Q220.476 688 214.582 640 Z M660.4 948 L558.643 1064 Q548.993 1075 532.493 1075 Q515.993 1075 503.643 1064 L373.4 948 L327.785 1000 L548.85 1196 L720.785 1000 L661.4 948 L660.4 948 Z " />
<glyph glyph-name="scommaaccent" unicode="&#x219;" horiz-adv-x="804" d="M214.582 640 Q208.32 589 230.514 558 Q252.707 527 293.497 509 Q334.287 491 387.559 481 Q440.832 471 496.226 462 Q551.621 453 604.525 440 Q657.429 427 697.421 402.5 Q737.413 378 758.501 338 Q779.59 298 771.732 234 Q766.083 188 746.286 153 Q726.489 118 697.296 92 Q668.104 66 631.955 48.5 Q595.806 31 555.956 20 Q516.105 9 475.553 4.5 Q435 0 398 0 Q360 0 319.991 4 Q279.982 8 242.772 18.5 Q205.561 29 173.148 46 Q140.735 63 117.928 89 Q95.1202 115 84.5405 151 Q73.9607 187 79.7316 234 L156.732 234 Q150.838 186 174.593 155.5 Q198.348 125 237.199 107.5 Q276.051 90 322.314 84 Q368.577 78 407.577 78 Q444.577 78 490.314 84 Q536.051 90 577.699 107.5 Q619.348 125 650.093 155.5 Q680.838 186 686.854 235 Q692.625 282 670.002 309.5 Q647.378 337 606.843 353 Q566.308 369 512.913 378 Q459.518 387 403.623 396 Q347.728 405 295.008 419.5 Q242.288 434 203.042 460.5 Q163.796 487 143.076 530 Q122.356 573 130.705 641 Q139.177 710 177.641 754.5 Q216.105 799 270.359 825.5 Q324.612 852 386.902 862.5 Q449.191 873 506.191 873 Q563.191 873 622.279 861.5 Q681.367 850 728.368 821.5 Q775.368 793 801.597 746 Q827.826 699 819.231 629 L742.231 629 Q748.125 677 725.054 709 Q701.983 741 663.816 760 Q625.649 779 579.631 787 Q533.614 795 495.614 795 Q458.614 795 412.377 789 Q366.14 783 324.053 766 Q281.966 749 251.221 718.5 Q220.476 688 214.582 640 Z M343.565 -142 L425.565 -142 L369.062 -423 L309.062 -423 L343.565 -142 Z " />
<glyph glyph-name="t" unicode="t" horiz-adv-x="787" d="M127.859 797 L137.436 875 L864.436 875 L854.859 797 L570.859 797 Q554.859 797 542.009 786 Q529.158 775 527.071 758 L434 0 L353 0 L446.071 758 Q448.158 775 438.009 786 Q427.859 797 410.859 797 L127.859 797 Z " />
<glyph glyph-name="tbar" unicode="&#x167;" horiz-adv-x="787" d="M260.868 398 L270.445 476 L411.445 476 L446.071 758 Q448.158 775 438.009 786 Q427.859 797 410.859 797 L127.859 797 L137.436 875 L864.436 875 L854.859 797 L570.859 797 Q554.859 797 542.009 786 Q529.158 775 527.071 758 L492.445 476 L633.445 476 L623.868 398 L482.868 398 L434 0 L353 0 L401.868 398 L260.868 398 Z " />
<glyph glyph-name="tcaron" unicode="&#x165;" horiz-adv-x="787" d="M127.859 797 L137.436 875 L864.436 875 L854.859 797 L570.859 797 Q554.859 797 542.009 786 Q529.158 775 527.071 758 L434 0 L353 0 L446.071 758 Q448.158 775 438.009 786 Q427.859 797 410.859 797 L127.859 797 Z M683.85 1196 L729.466 1144 L509.4 948 L337.466 1144 L395.85 1196 L497.607 1080 Q507.257 1069 523.757 1069 Q540.257 1069 552.607 1080 L617.729 1138 Q642.43 1160 662.64 1178 Q682.85 1196 683.85 1196 Z " />
<glyph glyph-name="tcommaaccent" unicode="&#x163;" horiz-adv-x="787" d="M127.859 797 L137.436 875 L864.436 875 L854.859 797 L570.859 797 Q554.859 797 542.009 786 Q529.158 775 527.071 758 L434 0 L353 0 L446.071 758 Q448.158 775 438.009 786 Q427.859 797 410.859 797 L127.859 797 Z M334.565 -142 L417.565 -142 L361.062 -423 L300.062 -423 L334.565 -142 Z " />
<glyph glyph-name="u" unicode="u" horiz-adv-x="886" d="M756.343 353 L820.314 874 L903.314 874 L839.343 353 Q830.38 280 794.96 215.5 Q759.54 151 705.647 103 Q651.753 55 583.877 27.5 Q516 0 443 0 Q370 0 308.877 27.5 Q247.753 55 205.647 103 Q163.54 151 143.96 215.5 Q124.38 280 133.343 353 L197.314 874 L280.314 874 L216.343 353 Q209.467 297 224.389 247.5 Q239.311 198 271.83 161.5 Q304.348 125 350.77 104 Q397.191 83 453.191 83 Q509.191 83 561.27 104 Q613.348 125 654.33 161.5 Q695.311 198 722.389 247.5 Q749.467 297 756.343 353 Z " />
<glyph glyph-name="uacute" unicode="&#xfa;" horiz-adv-x="886" d="M756.343 353 L820.314 874 L903.314 874 L839.343 353 Q830.38 280 794.96 215.5 Q759.54 151 705.647 103 Q651.753 55 583.877 27.5 Q516 0 443 0 Q370 0 308.877 27.5 Q247.753 55 205.647 103 Q163.54 151 143.96 215.5 Q124.38 280 133.343 353 L197.314 874 L280.314 874 L216.343 353 Q209.467 297 224.389 247.5 Q239.311 198 271.83 161.5 Q304.348 125 350.77 104 Q397.191 83 453.191 83 Q509.191 83 561.27 104 Q613.348 125 654.33 161.5 Q695.311 198 722.389 247.5 Q749.467 297 756.343 353 Z M522.521 1006 L452.521 1006 L659.41 1282 L724.639 1235 L522.521 1006 Z " />
<glyph glyph-name="ubreve" unicode="&#x16d;" horiz-adv-x="886" d="M756.343 353 L820.314 874 L903.314 874 L839.343 353 Q830.38 280 794.96 215.5 Q759.54 151 705.647 103 Q651.753 55 583.877 27.5 Q516 0 443 0 Q370 0 308.877 27.5 Q247.753 55 205.647 103 Q163.54 151 143.96 215.5 Q124.38 280 133.343 353 L197.314 874 L280.314 874 L216.343 353 Q209.467 297 224.389 247.5 Q239.311 198 271.83 161.5 Q304.348 125 350.77 104 Q397.191 83 453.191 83 Q509.191 83 561.27 104 Q613.348 125 654.33 161.5 Q695.311 198 722.389 247.5 Q749.467 297 756.343 353 Z M641.747 1130 L717.747 1130 Q714.309 1102 700.739 1077 Q687.169 1052 666.398 1033.5 Q645.626 1015 619.337 1004.5 Q593.048 994 565.048 994 Q537.048 994 513.337 1004.5 Q489.626 1015 473.398 1033.5 Q457.169 1052 449.739 1077 Q442.309 1102 445.747 1130 L521.747 1130 Q518.677 1105 533.967 1087 Q549.257 1069 575.257 1069 Q600.379 1070 619.528 1087.5 Q638.677 1105 641.747 1130 Z " />
<glyph glyph-name="ucircumflex" unicode="&#xfb;" horiz-adv-x="886" d="M756.343 353 L820.314 874 L903.314 874 L839.343 353 Q830.38 280 794.96 215.5 Q759.54 151 705.647 103 Q651.753 55 583.877 27.5 Q516 0 443 0 Q370 0 308.877 27.5 Q247.753 55 205.647 103 Q163.54 151 143.96 215.5 Q124.38 280 133.343 353 L197.314 874 L280.314 874 L216.343 353 Q209.467 297 224.389 247.5 Q239.311 198 271.83 161.5 Q304.348 125 350.77 104 Q397.191 83 453.191 83 Q509.191 83 561.27 104 Q613.348 125 654.33 161.5 Q695.311 198 722.389 247.5 Q749.467 297 756.343 353 Z M702.4 948 L600.643 1064 Q590.993 1075 574.493 1075 Q557.993 1075 545.643 1064 L415.4 948 L369.785 1000 L589.85 1196 L761.785 1000 L703.4 948 L702.4 948 Z " />
<glyph glyph-name="udieresis" unicode="&#xfc;" horiz-adv-x="886" d="M756.343 353 L820.314 874 L903.314 874 L839.343 353 Q830.38 280 794.96 215.5 Q759.54 151 705.647 103 Q651.753 55 583.877 27.5 Q516 0 443 0 Q370 0 308.877 27.5 Q247.753 55 205.647 103 Q163.54 151 143.96 215.5 Q124.38 280 133.343 353 L197.314 874 L280.314 874 L216.343 353 Q209.467 297 224.389 247.5 Q239.311 198 271.83 161.5 Q304.348 125 350.77 104 Q397.191 83 453.191 83 Q509.191 83 561.27 104 Q613.348 125 654.33 161.5 Q695.311 198 722.389 247.5 Q749.467 297 756.343 353 Z M512.538 1055 Q509.714 1032 491.188 1015.5 Q472.662 999 449.662 999 Q426.662 999 412.188 1015.5 Q397.714 1032 400.538 1055 Q403.362 1078 421.888 1094.5 Q440.414 1111 463.414 1111 Q486.414 1111 500.888 1094.5 Q515.362 1078 512.538 1055 Z M743.538 1055 Q740.714 1032 722.188 1015.5 Q703.662 999 680.662 999 Q657.662 999 643.188 1015.5 Q628.714 1032 631.538 1055 Q634.362 1078 652.888 1094.5 Q671.414 1111 694.414 1111 Q717.414 1111 731.888 1094.5 Q746.362 1078 743.538 1055 Z " />
<glyph glyph-name="uhungarumlaut" unicode="&#x171;" horiz-adv-x="886" d="M756.343 353 L820.314 874 L903.314 874 L839.343 353 Q830.38 280 794.96 215.5 Q759.54 151 705.647 103 Q651.753 55 583.877 27.5 Q516 0 443 0 Q370 0 308.877 27.5 Q247.753 55 205.647 103 Q163.54 151 143.96 215.5 Q124.38 280 133.343 353 L197.314 874 L280.314 874 L216.343 353 Q209.467 297 224.389 247.5 Q239.311 198 271.83 161.5 Q304.348 125 350.77 104 Q397.191 83 453.191 83 Q509.191 83 561.27 104 Q613.348 125 654.33 161.5 Q695.311 198 722.389 247.5 Q749.467 297 756.343 353 Z M460.762 1236 L539.778 1285 L680.521 1006 L607.521 1006 L460.762 1236 Z " />
<glyph glyph-name="ugrave" unicode="&#xf9;" horiz-adv-x="886" d="M756.343 353 L820.314 874 L903.314 874 L839.343 353 Q830.38 280 794.96 215.5 Q759.54 151 705.647 103 Q651.753 55 583.877 27.5 Q516 0 443 0 Q370 0 308.877 27.5 Q247.753 55 205.647 103 Q163.54 151 143.96 215.5 Q124.38 280 133.343 353 L197.314 874 L280.314 874 L216.343 353 Q209.467 297 224.389 247.5 Q239.311 198 271.83 161.5 Q304.348 125 350.77 104 Q397.191 83 453.191 83 Q509.191 83 561.27 104 Q613.348 125 654.33 161.5 Q695.311 198 722.389 247.5 Q749.467 297 756.343 353 Z M685.521 1006 L615.521 1006 L822.41 1282 L887.639 1235 L685.521 1006 Z M449.521 1006 L379.521 1006 L586.41 1282 L651.639 1235 L449.521 1006 Z " />
<glyph glyph-name="umacron" unicode="&#x16b;" horiz-adv-x="886" d="M756.343 353 L820.314 874 L903.314 874 L839.343 353 Q830.38 280 794.96 215.5 Q759.54 151 705.647 103 Q651.753 55 583.877 27.5 Q516 0 443 0 Q370 0 308.877 27.5 Q247.753 55 205.647 103 Q163.54 151 143.96 215.5 Q124.38 280 133.343 353 L197.314 874 L280.314 874 L216.343 353 Q209.467 297 224.389 247.5 Q239.311 198 271.83 161.5 Q304.348 125 350.77 104 Q397.191 83 453.191 83 Q509.191 83 561.27 104 Q613.348 125 654.33 161.5 Q695.311 198 722.389 247.5 Q749.467 297 756.343 353 Z M390.169 1052 L399.747 1130 L762.747 1130 L753.169 1052 L390.169 1052 Z " />
<glyph glyph-name="uogonek" unicode="&#x173;" horiz-adv-x="886" d="M529.057 -195 Q475.163 -243 411.163 -243 Q379.163 -243 352.198 -230.5 Q325.233 -218 306.811 -197 Q288.39 -176 279.389 -147.5 Q270.389 -119 274.318 -87 Q278.247 -55 293.062 -28 Q307.877 -1 330.456 20 Q280.666 38 241.095 70 Q201.524 102 175.365 145.5 Q149.206 189 137.714 242 Q126.221 295 133.343 353 L197.314 874 L280.314 874 L216.343 353 Q209.467 297 224.389 247.5 Q239.311 198 271.83 161.5 Q304.348 125 350.77 104 Q397.191 83 453.191 83 Q509.191 83 561.27 104 Q613.348 125 654.391 162 Q695.434 199 722.451 248 Q749.467 297 756.343 353 L820.314 874 L903.314 874 L839.343 353 Q830.38 280 794.46 215.5 Q758.54 151 704.647 103 Q650.753 55 582.877 27.5 Q515 0 442 0 Q405 0 376.43 -25 Q347.861 -50 343.441 -86 Q339.143 -121 361.073 -146 Q383.004 -171 419.004 -171 Q436.004 -171 452.863 -164 Q469.723 -157 484.196 -145 L529.057 -195 Z " />
<glyph glyph-name="uring" unicode="&#x16f;" horiz-adv-x="886" d="M756.343 353 L820.314 874 L903.314 874 L839.343 353 Q830.38 280 794.96 215.5 Q759.54 151 705.647 103 Q651.753 55 583.877 27.5 Q516 0 443 0 Q370 0 308.877 27.5 Q247.753 55 205.647 103 Q163.54 151 143.96 215.5 Q124.38 280 133.343 353 L197.314 874 L280.314 874 L216.343 353 Q209.467 297 224.389 247.5 Q239.311 198 271.83 161.5 Q304.348 125 350.77 104 Q397.191 83 453.191 83 Q509.191 83 561.27 104 Q613.348 125 654.33 161.5 Q695.311 198 722.389 247.5 Q749.467 297 756.343 353 Z M592.06 1214 Q617.06 1214 638.394 1204.5 Q659.728 1195 674.202 1178.5 Q688.676 1162 695.474 1140 Q702.273 1118 699.204 1093 Q696.011 1067 683.81 1045 Q671.609 1023 653.083 1006.5 Q634.557 990 610.89 980.5 Q587.224 971 562.224 971 Q537.224 971 515.89 980.5 Q494.557 990 480.083 1006.5 Q465.609 1023 458.81 1045 Q452.011 1067 455.204 1093 Q458.273 1118 470.474 1140 Q482.676 1162 501.202 1178.5 Q519.728 1195 543.394 1204.5 Q567.06 1214 592.06 1214 Z M570.205 1036 Q593.205 1036 611.731 1052.5 Q630.257 1069 633.204 1093 Q636.028 1116 621.554 1132.5 Q607.079 1149 584.079 1149 Q561.079 1149 542.054 1132.5 Q523.028 1116 520.204 1093 Q517.257 1069 532.231 1052.5 Q547.205 1036 570.205 1036 Z " />
<glyph glyph-name="utilde" unicode="&#x169;" horiz-adv-x="886" d="M756.343 353 L820.314 874 L903.314 874 L839.343 353 Q830.38 280 794.96 215.5 Q759.54 151 705.647 103 Q651.753 55 583.877 27.5 Q516 0 443 0 Q370 0 308.877 27.5 Q247.753 55 205.647 103 Q163.54 151 143.96 215.5 Q124.38 280 133.343 353 L197.314 874 L280.314 874 L216.343 353 Q209.467 297 224.389 247.5 Q239.311 198 271.83 161.5 Q304.348 125 350.77 104 Q397.191 83 453.191 83 Q509.191 83 561.27 104 Q613.348 125 654.33 161.5 Q695.311 198 722.389 247.5 Q749.467 297 756.343 353 Z M385.396 1119 Q421.571 1153 455 1156.5 Q488.43 1160 519.018 1148.5 Q549.606 1137 579.835 1118.5 Q610.063 1100 641.151 1088.5 Q672.239 1077 705.169 1080.5 Q738.098 1084 775.273 1118 L765.573 1039 Q728.398 1005 695.969 1001.5 Q663.539 998 631.951 1009.5 Q600.363 1021 570.635 1039.5 Q540.906 1058 509.318 1069.5 Q477.73 1081 444.8 1077.5 Q411.871 1074 375.696 1040 L385.396 1119 Z " />
<glyph glyph-name="w" unicode="w" horiz-adv-x="1315" d="M966.067 139 L1304.44 875 L1392.44 875 L994 0 L905 0 L749.229 743 L410 0 L322 0 L137.436 875 L226.436 875 L383.067 139 L720.436 875 L809.436 875 L966.067 139 Z " />
<glyph glyph-name="wacute" unicode="&#x1e83;" horiz-adv-x="1315" d="M966.067 139 L1304.44 875 L1392.44 875 L994 0 L905 0 L749.229 743 L410 0 L322 0 L137.436 875 L226.436 875 L383.067 139 L720.436 875 L809.436 875 L966.067 139 Z M728.521 1006 L658.521 1006 L865.41 1282 L930.639 1235 L728.521 1006 Z " />
<glyph glyph-name="wcircumflex" unicode="&#x175;" horiz-adv-x="1315" d="M966.067 139 L1304.44 875 L1392.44 875 L994 0 L905 0 L749.229 743 L410 0 L322 0 L137.436 875 L226.436 875 L383.067 139 L720.436 875 L809.436 875 L966.067 139 Z M916.4 948 L814.643 1064 Q804.993 1075 788.493 1075 Q771.993 1075 759.643 1064 L629.4 948 L583.785 1000 L803.85 1196 L975.785 1000 L917.4 948 L916.4 948 Z " />
<glyph glyph-name="wdieresis" unicode="&#x1e85;" horiz-adv-x="1315" d="M966.067 139 L1304.44 875 L1392.44 875 L994 0 L905 0 L749.229 743 L410 0 L322 0 L137.436 875 L226.436 875 L383.067 139 L720.436 875 L809.436 875 L966.067 139 Z M727.538 1055 Q724.714 1032 706.188 1015.5 Q687.662 999 664.662 999 Q641.662 999 627.188 1015.5 Q612.714 1032 615.538 1055 Q618.362 1078 636.888 1094.5 Q655.414 1111 678.414 1111 Q701.414 1111 715.888 1094.5 Q730.362 1078 727.538 1055 Z M958.538 1055 Q955.714 1032 937.188 1015.5 Q918.662 999 895.662 999 Q872.662 999 858.188 1015.5 Q843.714 1032 846.538 1055 Q849.362 1078 867.888 1094.5 Q886.414 1111 909.414 1111 Q932.414 1111 946.888 1094.5 Q961.362 1078 958.538 1055 Z " />
<glyph glyph-name="wgrave" unicode="&#x1e81;" horiz-adv-x="1315" d="M966.067 139 L1304.44 875 L1392.44 875 L994 0 L905 0 L749.229 743 L410 0 L322 0 L137.436 875 L226.436 875 L383.067 139 L720.436 875 L809.436 875 L966.067 139 Z M684.762 1236 L763.778 1285 L904.521 1006 L831.521 1006 L684.762 1236 Z " />
<glyph glyph-name="y" unicode="y" horiz-adv-x="932" d="M475.342 410 Q477.306 426 468.534 436 L137.314 874 L242.314 874 L527.147 498 L904.314 874 L1009.31 874 L570.534 436 Q559.306 426 557.342 410 L507 0 L425 0 L475.342 410 Z " />
</font>
</svg>
