<?xml version="1.0" encoding="UTF-8"?>
<svg xmlns="http://www.w3.org/2000/svg" xmlns:xlink="http://www.w3.org/1999/xlink" version="1.2" >
<font id="Lorano Light">
<font-face  font-family="Lorano" units-per-em="1000" ascent="875" descent="-179" font-style="normal" font-weight="300" font-stretch="normal" cap-height="875" x-height="875" underline-position="0" underline-thickness="0" />
<missing-glyph  horiz-adv-x="454" d="" />
<glyph glyph-name="B" unicode="B" horiz-adv-x="807" d="M752 640 Q752 574 719.5 521 Q687 468 634 437 Q687 407 719.5 353.5 Q752 300 752 234 Q752 186 733.5 143 Q715 100 683 68.5 Q651 37 608.5 18.5 Q566 0 517 0 L95 0 L95 875 L517 875 Q566 875 608.5 856.5 Q651 838 683 806 Q715 774 733.5 731.5 Q752 689 752 640 Z M671 236 Q671 269 658.5 298.5 Q646 328 624 350 Q602 372 572.5 385 Q543 398 510 398 L203 396 Q192 396 185 389 Q178 382 178 371 L178 101 Q178 90 185 83 Q192 76 203 76 L510 76 Q543 76 572.5 88.5 Q602 101 624 123 Q646 145 658.5 174 Q671 203 671 236 Z M510 477 Q543 477 572.5 490 Q602 503 623.5 524.5 Q645 546 657.5 575.5 Q670 605 670 638 Q670 671 657.5 700.5 Q645 730 623.5 752 Q602 774 572.5 786.5 Q543 799 510 799 L203 799 Q192 799 185 791.5 Q178 784 178 773 L178 503 Q178 492 185 485 Q192 478 203 478 L510 477 Z " />
<glyph glyph-name="C" unicode="C" horiz-adv-x="847" d="M489 792 Q416 792 351 764 Q286 736 237.5 688 Q189 640 161 575.5 Q133 511 133 438 Q133 365 160.5 300.5 Q188 236 236 187.5 Q284 139 348.5 111 Q413 83 486 83 Q557 83 622 109.5 Q687 136 738 187 L797 128 Q735 66 654.5 33 Q574 0 487 0 Q397 0 317 34.5 Q237 69 178 128.5 Q119 188 84.5 268 Q50 348 50 438 Q50 528 84.5 608 Q119 688 178 747 Q237 806 317 840.5 Q397 875 487 875 Q574 875 654.5 842 Q735 809 797 747 L738 689 Q688 739 624 765.5 Q560 792 489 792 Z " />
<glyph glyph-name="D" unicode="D" horiz-adv-x="883" d="M381 875 Q471 875 551 840.5 Q631 806 690 746.5 Q749 687 783.5 607 Q818 527 818 437 Q818 347 783.5 267 Q749 187 690 128 Q631 69 551 34.5 Q471 0 381 0 L95 0 L95 875 L381 875 Z M735 435 Q735 504 708.5 568.5 Q682 633 635.5 682.5 Q589 732 526.5 762 Q464 792 392 792 L203 792 Q192 792 185 784.5 Q178 777 178 766 L178 108 Q178 97 185 90 Q192 83 203 83 L392 83 Q462 83 524.5 112.5 Q587 142 633.5 190.5 Q680 239 707.5 302.5 Q735 366 735 435 Z " />
<glyph glyph-name="E" unicode="E" horiz-adv-x="776" d="M178 505 Q178 493 186 485 Q194 477 205 477 L711 477 L711 397 L205 397 Q194 397 186 389 Q178 381 178 370 L178 107 Q178 96 186 88 Q194 80 205 80 L711 80 L711 0 L95 0 L95 875 L711 874 L711 795 L205 795 Q194 795 186 786.5 Q178 778 178 767 L178 505 Z " />
<glyph glyph-name="F" unicode="F" horiz-adv-x="751" d="M178 505 Q178 493 186 485 Q194 477 205 477 L711 477 L711 397 L205 397 Q194 397 186 389 Q178 381 178 370 L178 0 L95 0 L95 875 L711 874 L711 795 L205 795 Q194 795 186 787 Q178 779 178 767 L178 505 Z " />
<glyph glyph-name="G" unicode="G" horiz-adv-x="1023" d="M496 445 L938 445 L938 0 L859 0 L859 198 Q831 153 792.5 116.5 Q754 80 707.5 54 Q661 28 607.5 14 Q554 0 497 0 Q407 0 327 34 Q247 68 188 127.5 Q129 187 94.5 266.5 Q60 346 60 437 Q60 527 94.5 607 Q129 687 188 746 Q247 805 327 839.5 Q407 874 497 874 Q588 874 667 840 Q746 806 806 746 L747 687 Q699 735 634.5 763 Q570 791 497 791 Q423 791 358.5 763 Q294 735 246 687 Q198 639 170.5 574.5 Q143 510 143 437 Q143 363 170.5 298 Q198 233 246.5 184 Q295 135 360.5 107 Q426 79 502 80 Q568 80 626.5 102.5 Q685 125 731 163.5 Q777 202 807.5 254.5 Q838 307 849 367 L496 367 L496 445 Z " />
<glyph glyph-name="H" unicode="H" horiz-adv-x="942" d="M765 505 L765 875 L847 875 L847 0 L765 0 L765 370 Q765 381 757 389.5 Q749 398 738 398 L204 398 Q193 398 185 389.5 Q177 381 177 370 L177 0 L95 0 L95 875 L177 875 L177 505 Q177 494 185 485.5 Q193 477 204 477 L738 477 Q749 477 757 485.5 Q765 494 765 505 Z " />
<glyph glyph-name="I" unicode="I" horiz-adv-x="342" d="M130 0 L130 875 L212 875 L212 0 L130 0 Z " />
<glyph glyph-name="J" unicode="J" horiz-adv-x="728" d="M555 353 L555 874 L638 874 L638 353 Q638 280 610.5 215.5 Q583 151 535 103 Q487 55 422.5 27.5 Q358 0 285 0 Q211 0 147 27.5 Q83 55 35 103 L93 161 Q130 124 178.5 103 Q227 82 284 82 Q340 82 389.5 103.5 Q439 125 475.5 161.5 Q512 198 533.5 247.5 Q555 297 555 353 Z " />
<glyph glyph-name="K" unicode="K" horiz-adv-x="842" d="M802 875 L416 438 L802 0 L696 0 L356 384 Q345 398 327 398 L204 398 Q193 398 185 389.5 Q177 381 177 370 L177 0 L95 0 L95 875 L177 875 L177 505 Q177 494 185 485.5 Q193 477 204 477 L326 477 Q344 477 356 491 L695 875 L802 875 Z " />
<glyph glyph-name="L" unicode="L" horiz-adv-x="712" d="M178 875 L178 123 Q178 103 189 91.5 Q200 80 220 80 L677 80 L677 0 L95 0 L95 875 L178 875 Z " />
<glyph glyph-name="M" unicode="M" horiz-adv-x="1074" d="M897 875 L979 875 L979 0 L897 0 L897 762 L537 402 L178 762 L178 0 L95 0 L95 875 L178 875 L517 535 Q525 527 537 527 Q549 527 557 535 L897 875 Z " />
<glyph glyph-name="N" unicode="N" horiz-adv-x="979" d="M802 130 L802 875 L884 875 L884 0 L809 0 L178 752 L178 0 L95 0 L95 875 L171 875 L802 130 Z " />
<glyph glyph-name="O" unicode="O" horiz-adv-x="994" d="M497 82 Q570 82 635 110 Q700 138 748 186 Q796 234 824 298.5 Q852 363 852 437 Q852 510 824 574.5 Q796 639 748 687 Q700 735 635 763 Q570 791 497 791 Q423 791 358.5 763 Q294 735 246 687 Q198 639 170.5 574.5 Q143 510 143 437 Q143 363 170.5 298.5 Q198 234 246 186 Q294 138 358.5 110 Q423 82 497 82 Z M497 874 Q588 874 667.5 839.5 Q747 805 806 746 Q865 687 899.5 607 Q934 527 934 437 Q934 346 899.5 266.5 Q865 187 806 127.5 Q747 68 667.5 34 Q588 0 497 0 Q407 0 327 34 Q247 68 188 127.5 Q129 187 94.5 266.5 Q60 346 60 437 Q60 527 94.5 607 Q129 687 188 746 Q247 805 327 839.5 Q407 874 497 874 Z " />
<glyph glyph-name="P" unicode="P" horiz-adv-x="795" d="M502 475 Q536 475 566.5 487.5 Q597 500 620 521.5 Q643 543 656.5 572.5 Q670 602 670 637 Q670 670 657.5 699 Q645 728 623 750 Q601 772 572 784.5 Q543 797 510 797 L203 797 Q192 797 185 789.5 Q178 782 178 771 L178 503 Q178 492 186 483.5 Q194 475 205 475 L502 475 Z M505 875 Q554 875 599 856.5 Q644 838 678 806 Q712 774 732 730.5 Q752 687 752 637 Q752 588 733 544.5 Q714 501 682 469 Q650 437 606.5 418 Q563 399 514 399 L205 399 Q194 399 186 390.5 Q178 382 178 371 L178 0 L95 0 L95 875 L505 875 Z " />
<glyph glyph-name="Q" unicode="Q" horiz-adv-x="995" d="M481 873 Q574 877 657 844 Q740 811 801.5 751.5 Q863 692 899 611 Q935 530 935 437 Q935 368 915.5 307 Q896 246 862 195 Q828 144 781.5 105 Q735 66 680 42 Q660 33 657 13 Q654 -7 668 -21 L771 -124 L716 -178 L536 1 Q527 0 517.5 0 Q508 0 498 0 Q405 0 324 36 Q243 72 183.5 133.5 Q124 195 91 277.5 Q58 360 61 454 Q64 538 98.5 613 Q133 688 190 745 Q247 802 322 836 Q397 870 481 873 Z M498 82 Q571 82 636 110 Q701 138 749 186 Q797 234 825 298.5 Q853 363 853 437 Q853 510 825 574.5 Q797 639 749 687 Q701 735 636 763 Q571 791 498 791 Q424 791 359.5 763 Q295 735 247 687 Q199 639 171.5 574.5 Q144 510 144 437 Q144 363 171.5 298.5 Q199 234 247 186 Q295 138 359.5 110 Q424 82 498 82 Z " />
<glyph glyph-name="S" unicode="S" horiz-adv-x="804" d="M136 640 Q136 589 162 558 Q188 527 231 509 Q274 491 328.5 481 Q383 471 439.5 462 Q496 453 550.5 440 Q605 427 648 402.5 Q691 378 717 338 Q743 298 743 234 Q743 188 727.5 153 Q712 118 686 92 Q660 66 626 48.5 Q592 31 553.5 20 Q515 9 475 4.5 Q435 0 398 0 Q360 0 319.5 4 Q279 8 240.5 18.5 Q202 29 167.5 46 Q133 63 107 89 Q81 115 66 151 Q51 187 51 234 L128 234 Q128 186 155.5 155.5 Q183 125 224 107.5 Q265 90 312 84 Q359 78 398 78 Q435 78 480 84 Q525 90 564.5 107.5 Q604 125 631 155.5 Q658 186 658 235 Q658 282 632 309.5 Q606 337 563.5 353 Q521 369 466.5 378 Q412 387 355 396 Q298 405 243.5 419.5 Q189 434 146.5 460.5 Q104 487 78 530 Q52 573 52 641 Q52 710 85 754.5 Q118 799 169 825.5 Q220 852 281 862.5 Q342 873 399 873 Q456 873 516.5 861.5 Q577 850 627.5 821.5 Q678 793 710 746 Q742 699 742 629 L665 629 Q665 677 638 709 Q611 741 570.5 760 Q530 779 483 787 Q436 795 398 795 Q361 795 315.5 789 Q270 783 230 766 Q190 749 163 718.5 Q136 688 136 640 Z " />
<glyph glyph-name="T" unicode="T" horiz-adv-x="787" d="M30 797 L30 875 L757 875 L757 797 L473 797 Q457 797 445.5 786 Q434 775 434 758 L434 0 L353 0 L353 758 Q353 775 341.5 786 Q330 797 313 797 L30 797 Z " />
<glyph glyph-name="U" unicode="U" horiz-adv-x="886" d="M713 353 L713 874 L796 874 L796 353 Q796 280 768.5 215.5 Q741 151 693 103 Q645 55 580.5 27.5 Q516 0 443 0 Q370 0 305.5 27.5 Q241 55 193 103 Q145 151 117.5 215.5 Q90 280 90 353 L90 874 L173 874 L173 353 Q173 297 194 247.5 Q215 198 252 161.5 Q289 125 338 104 Q387 83 443 83 Q499 83 548.5 104 Q598 125 634.5 161.5 Q671 198 692 247.5 Q713 297 713 353 Z " />
<glyph glyph-name="V" unicode="V" horiz-adv-x="935" d="M468 98 L817 875 L905 875 L512 0 L423 0 L30 875 L119 875 L468 98 Z " />
<glyph glyph-name="W" unicode="W" horiz-adv-x="1315" d="M949 139 L1197 875 L1285 875 L994 0 L905 0 L658 743 L410 0 L322 0 L30 875 L119 875 L366 139 L613 875 L702 875 L949 139 Z " />
<glyph glyph-name="X" unicode="X" horiz-adv-x="926" d="M791 875 L895 875 L539 463 Q529 452 529 437 Q529 422 539 411 L896 0 L791 0 L463 376 L134 0 L30 0 L387 411 Q397 422 397 437 Q397 452 387 463 L31 875 L136 875 L463 501 L791 875 Z " />
<glyph glyph-name="Y" unicode="Y" horiz-adv-x="932" d="M425 410 Q425 426 415 436 L30 874 L135 874 L466 498 L797 874 L902 874 L517 436 Q507 426 507 410 L507 0 L425 0 L425 410 Z " />
<glyph glyph-name="Z" unicode="Z" horiz-adv-x="831" d="M771 875 L771 797 L161 77 L767 77 L767 0 L52 0 L52 77 L661 797 L52 797 L52 875 L771 875 Z " />
<glyph glyph-name="a" unicode="a" horiz-adv-x="896" d="M668 875 L836 0 L755 0 L710 241 Q706 262 703 288 Q700 314 693 337 Q686 360 674.5 375.5 Q663 391 642 391 L348 391 Q330 391 307.5 392 Q285 393 265 391 Q245 389 229.5 380 Q214 371 209 352 L141 0 L60 0 L230 875 L668 875 Z M232 471 L667 471 L602 801 L298 801 L232 471 Z " />
<glyph glyph-name="q" unicode="q" horiz-adv-x="994" d="M934 436 Q934 354 905.5 281 Q877 208 828 151 Q779 94 712.5 56 Q646 18 570 6 L702 -126 L647 -179 L527 -60 Q519 -51 511 -48 Q503 -45 498 -45 Q492 -45 483.5 -47.5 Q475 -50 467 -59 L347 -179 L294 -125 L425 6 Q348 18 281.5 56 Q215 94 166 151 Q117 208 88.5 281 Q60 354 60 436 Q60 526 94.5 606 Q129 686 188 745 Q247 804 327 838.5 Q407 873 497 873 Q588 873 667.5 838.5 Q747 804 806 745 Q865 686 899.5 606 Q934 526 934 436 Z M497 81 Q570 81 635 109 Q700 137 748 185 Q796 233 824 297.5 Q852 362 852 436 Q852 509 824 573.5 Q796 638 748 686 Q700 734 635 762 Q570 790 497 790 Q423 790 358.5 762 Q294 734 246 686 Q198 638 170.5 573.5 Q143 509 143 436 Q143 362 170.5 297.5 Q198 233 246 185 Q294 137 358.5 109 Q423 81 497 81 Z " />
<glyph glyph-name="zero" unicode="0" horiz-adv-x="828" d="M413 885 Q485 885 547.5 858 Q610 831 657 784.5 Q704 738 731 675 Q758 612 758 541 L758 334 Q758 263 731 200 Q704 137 657 90.5 Q610 44 547.5 17 Q485 -10 413 -10 Q342 -10 279.5 17 Q217 44 170.5 90.5 Q124 137 97 200 Q70 263 70 334 L70 541 Q70 612 97 675 Q124 738 170.5 784.5 Q217 831 279.5 858 Q342 885 413 885 Z M674 334 L674 541 Q674 595 653.5 642 Q633 689 597.5 724.5 Q562 760 514.5 780.5 Q467 801 413 801 Q360 801 313 780.5 Q266 760 230.5 724.5 Q195 689 174.5 642 Q154 595 154 541 L154 334 Q154 280 174.5 233 Q195 186 230 150.5 Q265 115 312.5 94.5 Q360 74 413 74 Q467 74 514.5 94.5 Q562 115 597.5 150.5 Q633 186 653.5 233 Q674 280 674 334 Z " />
<glyph glyph-name="one" unicode="1" horiz-adv-x="590" d="M376 0 L376 755 L97 475 L40 533 L381 874 L458 874 L458 0 L376 0 Z " />
<glyph glyph-name="two" unicode="2" horiz-adv-x="792" d="M737 620 Q737 561 716.5 516.5 Q696 472 663 436 Q630 400 588 370.5 Q546 341 503 311 L162 79 L737 79 L737 0 L55 0 L55 96 L458 372 Q490 394 525.5 419.5 Q561 445 590.5 475 Q620 505 639 541 Q658 577 658 621 Q658 675 636.5 710.5 Q615 746 579 768 Q543 790 495.5 799 Q448 808 397 808 Q346 808 298.5 794 Q251 780 214.5 752 Q178 724 155.5 681.5 Q133 639 133 583 L55 583 Q55 657 83.5 713.5 Q112 770 159 808.5 Q206 847 268 866.5 Q330 886 397 886 Q462 886 523 873 Q584 860 631.5 829 Q679 798 708 747 Q737 696 737 620 Z " />
<glyph glyph-name="three" unicode="3" horiz-adv-x="816" d="M747 651 Q747 604 733 568 Q719 532 694 505 Q669 478 635 459 Q601 440 562 429 Q622 418 668 387 Q714 356 734 301 Q748 263 746 215 Q744 152 714.5 109 Q685 66 637 39.5 Q589 13 528.5 1.5 Q468 -10 406 -10 Q350 -10 289.5 2.5 Q229 15 179 42.5 Q129 70 97 115 Q65 160 65 226 L140 226 Q140 180 169.5 149.5 Q199 119 241 100.5 Q283 82 328.5 74.5 Q374 67 406 67 Q454 67 500 75 Q546 83 582.5 101.5 Q619 120 641.5 150 Q664 180 664 224 Q664 275 645 307 Q626 339 594 357 Q562 375 521 381.5 Q480 388 435 388 L321 388 L321 467 L435 467 Q477 467 518.5 479 Q560 491 592 514 Q624 537 644 572 Q664 607 664 652 Q664 697 642.5 727 Q621 757 585.5 775 Q550 793 503.5 800.5 Q457 808 406 808 Q366 808 319.5 801 Q273 794 233.5 776 Q194 758 168 727.5 Q142 697 142 650 L65 650 Q65 716 95.5 760.5 Q126 805 174.5 833 Q223 861 284 873 Q345 885 406 885 Q464 885 524.5 873.5 Q585 862 634.5 835 Q684 808 715.5 763 Q747 718 747 651 Z " />
<glyph glyph-name="four" unicode="4" horiz-adv-x="736" d="M576 875 L576 269 L701 269 L701 191 L576 191 L576 0 L495 0 L495 191 L10 191 L10 265 L501 875 L576 875 Z M495 269 L495 745 L105 269 L495 269 Z " />
<glyph glyph-name="five" unicode="5" horiz-adv-x="766" d="M153 531 Q205 587 266 609 Q327 631 406 631 Q494 631 558 606 Q622 581 664 538 Q706 495 726 437.5 Q746 380 746 315 Q746 236 721 175.5 Q696 115 650.5 73.5 Q605 32 541 11 Q477 -10 398 -10 Q326 -10 264 10 Q202 30 156 65 Q110 100 82 149 Q54 198 50 255 L130 257 Q132 220 152.5 186 Q173 152 208.5 126 Q244 100 292.5 84.5 Q341 69 398 69 Q459 69 508.5 85.5 Q558 102 592.5 133.5 Q627 165 645.5 211.5 Q664 258 664 317 Q664 368 647.5 411.5 Q631 455 598.5 486.5 Q566 518 517.5 536 Q469 554 405 554 Q352 554 305.5 544 Q259 534 222.5 513.5 Q186 493 162 462 Q138 431 130 389 L50 393 L135 874 L676 874 L676 799 L240 799 Q223 799 210 787.5 Q197 776 194 759 L153 531 Z " />
<glyph glyph-name="six" unicode="6" horiz-adv-x="826" d="M425 -10 Q348 -10 282.5 10 Q217 30 170 68.5 Q123 107 96.5 163.5 Q70 220 70 293 L70 487 Q70 572 90 644.5 Q110 717 153 770 Q196 823 263 853.5 Q330 884 425 884 Q496 884 556.5 866.5 Q617 849 661.5 817 Q706 785 731 739.5 Q756 694 756 639 L674 639 Q674 680 656 711.5 Q638 743 605 765 Q572 787 526 798 Q480 809 424 809 Q345 809 292.5 784 Q240 759 208.5 715.5 Q177 672 164 614 Q151 556 151 489 L151 435 Q166 455 190.5 476 Q215 497 249.5 513.5 Q284 530 328.5 540.5 Q373 551 427 551 Q508 551 571 530.5 Q634 510 677.5 473.5 Q721 437 743.5 386 Q766 335 766 275 Q766 213 743.5 161 Q721 109 677.5 71 Q634 33 570.5 11.5 Q507 -10 425 -10 Z M425 475 Q366 475 316 462.5 Q266 450 230 426 Q194 402 173.5 366 Q153 330 153 283 Q153 239 169 200 Q185 161 218.5 131 Q252 101 303 83.5 Q354 66 425 66 Q485 66 533 81 Q581 96 614.5 124 Q648 152 665.5 191 Q683 230 683 277 Q683 322 666 358.5 Q649 395 616 421 Q583 447 535 461 Q487 475 425 475 Z " />
<glyph glyph-name="seven" unicode="7" horiz-adv-x="724" d="M704 874 L704 799 L292 0 L199 0 L609 795 L25 795 L25 874 L704 874 Z " />
<glyph glyph-name="eight" unicode="8" horiz-adv-x="806" d="M575 440 Q653 417 699.5 365.5 Q746 314 746 228 Q746 165 715 120 Q684 75 635 46.5 Q586 18 525 4.5 Q464 -9 403 -9 Q342 -9 281 4.5 Q220 18 171 46.5 Q122 75 91 120 Q60 165 60 228 Q60 314 106.5 365.5 Q153 417 231 440 Q153 465 106.5 517.5 Q60 570 60 657 Q60 719 91.5 763 Q123 807 172.5 834.5 Q222 862 283 874.5 Q344 887 403 887 Q462 887 523 874.5 Q584 862 633.5 834.5 Q683 807 714.5 763 Q746 719 746 657 Q746 570 699.5 517.5 Q653 465 575 440 Z M146 655 Q146 605 171 571.5 Q196 538 234.5 518 Q273 498 318 490 Q363 482 403 482 Q443 482 488 490 Q533 498 571.5 518 Q610 538 635.5 571.5 Q661 605 661 655 Q661 699 636.5 729 Q612 759 574.5 777 Q537 795 491 803 Q445 811 403 811 Q361 811 315.5 803 Q270 795 232.5 777 Q195 759 170.5 729 Q146 699 146 655 Z M403 395 Q365 395 320 387.5 Q275 380 236.5 361 Q198 342 172 310 Q146 278 146 230 Q146 186 170 154.5 Q194 123 231.5 103 Q269 83 314.5 74 Q360 65 403 65 Q446 65 492 74 Q538 83 575.5 103 Q613 123 637 154.5 Q661 186 661 230 Q661 278 635 310 Q609 342 570 361 Q531 380 486 387.5 Q441 395 403 395 Z " />
<glyph glyph-name="nine" unicode="9" horiz-adv-x="826" d="M411 884 Q488 884 553 864 Q618 844 665.5 805.5 Q713 767 739.5 710.5 Q766 654 766 581 L766 387 Q766 302 746 229.5 Q726 157 683 103.5 Q640 50 572.5 20 Q505 -10 411 -10 Q340 -10 279 7.5 Q218 25 174 57 Q130 89 105 134 Q80 179 80 235 L162 235 Q162 194 180 162.5 Q198 131 231 109 Q264 87 310 76 Q356 65 412 65 Q491 65 543.5 90 Q596 115 627 158.5 Q658 202 671 260 Q684 318 684 385 L684 438 Q670 418 645.5 397.5 Q621 377 586.5 360.5 Q552 344 507.5 333.5 Q463 323 409 323 Q328 323 265 343.5 Q202 364 158.5 400.5 Q115 437 92.5 488 Q70 539 70 599 Q70 661 92.5 713 Q115 765 158.5 803 Q202 841 265.5 862.5 Q329 884 411 884 Z M411 399 Q470 399 520 411.5 Q570 424 606 448 Q642 472 662.5 508 Q683 544 683 591 Q683 634 667 673.5 Q651 713 617.5 743 Q584 773 532.5 790.5 Q481 808 411 808 Q351 808 303 792.5 Q255 777 221.5 749.5 Q188 722 170.5 683 Q153 644 153 597 Q153 552 170 515.5 Q187 479 220 453 Q253 427 301 413 Q349 399 411 399 Z " />
<glyph glyph-name="ampersand" unicode="&#x26;" horiz-adv-x="785" d="M305 62 Q369 62 422.5 89.5 Q476 117 518 160 Q465 220 412.5 279.5 Q360 339 306 396 Q281 384 250.5 368 Q220 352 193.5 330.5 Q167 309 149 281 Q131 253 131 217 Q131 180 144.5 151 Q158 122 181.5 102.5 Q205 83 237 72.5 Q269 62 305 62 Z M222 669 Q222 639 231 613.5 Q240 588 255 565.5 Q270 543 288 522 Q306 501 324 481 Q351 495 385 514 Q419 533 448.5 558 Q478 583 498.5 614.5 Q519 646 519 685 Q519 712 507 735 Q495 758 475.5 775 Q456 792 430 801.5 Q404 811 376 811 Q346 811 318 800.5 Q290 790 269 771 Q248 752 235 726 Q222 700 222 669 Z M760 0 L660 0 L571 100 Q522 51 454.5 20 Q387 -11 304 -11 Q254 -11 208 5 Q162 21 127 50.5 Q92 80 71 121.5 Q50 163 50 215 Q50 264 69 300.5 Q88 337 118 364.5 Q148 392 184.5 412.5 Q221 433 256 451 Q234 475 214 499 Q194 523 178.5 549.5 Q163 576 153.5 606 Q144 636 144 671 Q144 717 163 757 Q182 797 214 826 Q246 855 288 871.5 Q330 888 376 888 Q422 888 462 872 Q502 856 532 828.5 Q562 801 579.5 764.5 Q597 728 597 687 Q597 636 576 595.5 Q555 555 522.5 523.5 Q490 492 450.5 468 Q411 444 373 425 L565 215 Q585 242 602 281 Q619 320 620 356 L693 356 Q693 302 672.5 249.5 Q652 197 620 155 L760 0 Z " />
<glyph glyph-name="germandbls" unicode="&#xdf;" horiz-adv-x="808" d="M585 505 Q577 491 583 483 Q589 475 615 468 Q649 458 680.5 437.5 Q712 417 736 387 Q760 357 774 320 Q788 283 788 240 Q788 190 769.5 146.5 Q751 103 718.5 70.5 Q686 38 642.5 19 Q599 0 549 0 L472 0 L473 80 L542 80 Q574 80 603 92 Q632 104 654.5 125.5 Q677 147 690.5 176.5 Q704 206 704 240 Q704 274 690.5 303 Q677 332 654.5 353 Q632 374 603 386 Q574 398 542 398 L473 398 L472 478 L637 793 L215 793 Q198 793 187 782 Q176 771 176 754 L176 0 L90 0 L90 875 L763 875 L763 836 L585 505 Z " />
<glyph glyph-name="parenleft" unicode="&#x28;" horiz-adv-x="478" d="M426 1050 Q284 908 221 732 Q158 556 172 369 Q183 217 246.5 79 Q310 -59 426 -175 L372 -229 Q245 -103 176.5 48.5 Q108 200 96 366 Q88 466 101.5 565.5 Q115 665 149.5 759.5 Q184 854 239.5 941.5 Q295 1029 372 1106 L426 1050 Z " />
<glyph glyph-name="braceleft" unicode="&#x7b;" horiz-adv-x="547" d="M448 1030 Q412 1030 380 1017 Q348 1004 323.5 981.5 Q299 959 284.5 927.5 Q270 896 270 860 L270 642 Q270 577 238 524 Q206 471 153 440 Q206 409 238.5 356 Q271 303 271 238 L271 20 Q271 -16 285.5 -47.5 Q300 -79 324.5 -101.5 Q349 -124 381 -137 Q413 -150 449 -150 L497 -150 L497 -226 L436 -226 Q386 -226 341.5 -207 Q297 -188 264 -155 Q231 -122 212 -78 Q193 -34 193 16 L193 230 Q193 266 178.5 297.5 Q164 329 139.5 351.5 Q115 374 83 387 Q51 400 15 400 L1 400 L1 480 L15 480 Q51 480 83 493 Q115 506 139.5 528.5 Q164 551 178.5 582 Q193 613 193 649 L193 857 Q193 908 212.5 953.5 Q232 999 266 1032.5 Q300 1066 345.5 1085.5 Q391 1105 442 1105 L497 1105 L497 1030 L448 1030 Z " />
<glyph glyph-name="bracketleft" unicode="&#x5b;" horiz-adv-x="375" d="M325 1027 L78 1027 L78 -151 L325 -151 L325 -229 L0 -229 L0 1105 L325 1105 L325 1027 Z " />
<glyph glyph-name="bar" unicode="&#x7c;" horiz-adv-x="342" d="M212 -109 L130 -109 L130 984 L212 984 L212 -109 Z " />
<glyph glyph-name="ogonek" unicode="&#x2db;" horiz-adv-x="268" d="M268 -195 Q220 -243 156 -243 Q124 -243 95.5 -230.5 Q67 -218 46 -197 Q25 -176 12.5 -147.5 Q0 -119 0 -87 Q0 -55 12.5 -26.5 Q25 2 46 23 Q67 44 95.5 56 Q124 68 157 68 L157 0 Q121 0 95.5 -25 Q70 -50 70 -86 Q70 -121 95 -146 Q120 -171 155 -171 Q191 -171 217 -145 L268 -195 Z " />
<glyph glyph-name="cedilla" unicode="&#xb8;" horiz-adv-x="241" d="M206 -30 Q224 -47 232.5 -69.5 Q241 -92 241 -116 Q241 -140 232 -162.5 Q223 -185 205 -202 Q187 -220 165 -228.5 Q143 -237 120 -237 Q97 -237 75 -228.5 Q53 -220 35 -202 Q17 -184 8.5 -161.5 Q0 -139 0 -116 L64 -116 Q64 -138 81 -155 Q98 -172 121 -172 Q144 -172 161 -155 Q178 -138 178 -115 Q178 -92 161 -75 L67 19 L112 64 L206 -30 Z " />
<glyph glyph-name="period" unicode="&#x2e;" horiz-adv-x="293" d="M146 -15 Q120 -15 102.5 2.5 Q85 20 85 46 Q85 72 102.5 89.5 Q120 107 146 107 Q172 107 190 89.5 Q208 72 208 46 Q208 20 190 2.5 Q172 -15 146 -15 Z " />
<glyph glyph-name="comma" unicode="&#x2c;" horiz-adv-x="233" d="M60 98 L143 98 L121 -183 L60 -183 L60 98 Z " />
<glyph glyph-name="macron" unicode="&#xaf;" horiz-adv-x="347" d="M0 1052 L0 1130 L363 1130 L363 1052 L0 1052 Z " />
<glyph glyph-name="circumflex" unicode="&#x2c6;" horiz-adv-x="396" d="M341 948 L225 1064 Q214 1075 197.5 1075 Q181 1075 170 1064 L54 948 L2 1000 L198 1196 L394 1000 L342 948 L341 948 Z " />
<glyph glyph-name="breve" unicode="&#x2d8;" horiz-adv-x="273" d="M137 1069 Q162 1070 179 1087.5 Q196 1105 196 1130 L273 1130 Q273 1102 262 1077 Q251 1052 232.5 1033.5 Q214 1015 189 1004.5 Q164 994 136 994 Q108 994 83 1004.5 Q58 1015 39.5 1033.5 Q21 1052 10.5 1077 Q0 1102 0 1130 L76 1130 Q76 1105 94 1087 Q112 1069 137 1069 Z " />
<glyph glyph-name="dieresis" unicode="&#xa8;" horiz-adv-x="343" d="M343 1055 Q343 1032 326.5 1015.5 Q310 999 287 999 Q264 999 247.5 1015.5 Q231 1032 231 1055 Q231 1078 247.5 1094.5 Q264 1111 287 1111 Q310 1111 326.5 1094.5 Q343 1078 343 1055 Z M112 1055 Q112 1032 95.5 1015.5 Q79 999 56 999 Q33 999 16.5 1015.5 Q0 1032 0 1055 Q0 1078 16.5 1094.5 Q33 1111 56 1111 Q79 1111 95.5 1094.5 Q112 1078 112 1055 Z " />
<glyph glyph-name="ring" unicode="&#x2da;" horiz-adv-x="243" d="M122 1036 Q145 1036 161.5 1052.5 Q178 1069 178 1093 Q178 1116 161.5 1132.5 Q145 1149 122 1149 Q98 1149 81.5 1132.5 Q65 1116 65 1093 Q65 1069 81.5 1052.5 Q98 1036 122 1036 Z M122 1214 Q147 1214 169 1204.5 Q191 1195 207.5 1178.5 Q224 1162 233.5 1140 Q243 1118 243 1093 Q243 1067 233.5 1045 Q224 1023 207.5 1006.5 Q191 990 169 980.5 Q147 971 122 971 Q97 971 74.5 980.5 Q52 990 35.5 1006.5 Q19 1023 9.5 1045 Q0 1067 0 1093 Q0 1118 9.5 1140 Q19 1162 35.5 1178.5 Q52 1195 74.5 1204.5 Q97 1214 122 1214 Z " />
<glyph glyph-name="acute" unicode="&#xb4;" horiz-adv-x="244" d="M150 1006 L80 1006 L253 1282 L324 1235 L150 1006 Z " />
<glyph glyph-name="tilde" unicode="&#x2dc;" horiz-adv-x="390" d="M0 1119 Q32 1153 64.5 1156.5 Q97 1160 129.5 1148.5 Q162 1137 194.5 1118.5 Q227 1100 259.5 1088.5 Q292 1077 324.5 1080.5 Q357 1084 390 1118 L390 1039 Q357 1005 325 1001.5 Q293 998 260 1009.5 Q227 1021 194.5 1039.5 Q162 1058 129.5 1069.5 Q97 1081 64.5 1077.5 Q32 1074 0 1040 L0 1119 Z " />
<glyph glyph-name="dotaccent" unicode="&#x2d9;" horiz-adv-x="112" d="M112 1025 Q112 1002 95.5 985.5 Q79 969 56 969 Q33 969 16.5 985.5 Q0 1002 0 1025 Q0 1048 16.5 1064.5 Q33 1081 56 1081 Q79 1081 95.5 1064.5 Q112 1048 112 1025 Z " />
<glyph glyph-name="bracketright" unicode="&#x5d;" horiz-adv-x="833" d="M0 1105 L325 1105 L325 -229 L0 -229 L0 -151 L247 -151 L247 1027 L0 1027 L0 1105 Z " />
<glyph glyph-name="parenright" unicode="&#x29;" horiz-adv-x="478" d="M106 1106 Q183 1029 238.5 941.5 Q294 854 328.5 759.5 Q363 665 376.5 565.5 Q390 466 382 366 Q370 200 301.5 48.5 Q233 -103 106 -229 L52 -175 Q168 -59 231.5 79 Q295 217 306 369 Q320 556 257 732 Q194 908 52 1050 L106 1106 Z " />
<glyph glyph-name="grave" unicode="&#x60;" horiz-adv-x="248" d="M-80 1236 L-7 1285 L168 1006 L95 1006 L-80 1236 Z " />
<glyph glyph-name="slash" unicode="&#x2f;" horiz-adv-x="470" d="M-30 -174 L426 1079 L500 1050 L44 -203 L-30 -174 Z " />
<glyph glyph-name="Adieresis" unicode="&#xc4;" horiz-adv-x="934" d="M904 0 L816 0 L682 297 Q677 310 665 317.5 Q653 325 639 325 L295 325 Q281 325 269 317.5 Q257 310 252 297 L118 0 L30 0 L423 875 L511 875 L904 0 Z M300 404 L634 404 L467 777 L300 404 Z M639 1055 Q639 1032 622.5 1015.5 Q606 999 583 999 Q560 999 543.5 1015.5 Q527 1032 527 1055 Q527 1078 543.5 1094.5 Q560 1111 583 1111 Q606 1111 622.5 1094.5 Q639 1078 639 1055 Z M408 1055 Q408 1032 391.5 1015.5 Q375 999 352 999 Q329 999 312.5 1015.5 Q296 1032 296 1055 Q296 1078 312.5 1094.5 Q329 1111 352 1111 Q375 1111 391.5 1094.5 Q408 1078 408 1055 Z " />
<glyph glyph-name="Aring" unicode="&#xc5;" horiz-adv-x="934" d="M904 0 L816 0 L682 297 Q677 310 665 317.5 Q653 325 639 325 L295 325 Q281 325 269 317.5 Q257 310 252 297 L118 0 L30 0 L423 875 L511 875 L904 0 Z M300 404 L634 404 L467 777 L300 404 Z M467 1036 Q490 1036 506.5 1052.5 Q523 1069 523 1093 Q523 1116 506.5 1132.5 Q490 1149 467 1149 Q444 1149 427 1132.5 Q410 1116 410 1093 Q410 1069 427 1052.5 Q444 1036 467 1036 Z M467 1214 Q492 1214 514.5 1204.5 Q537 1195 553.5 1178.5 Q570 1162 579.5 1140 Q589 1118 589 1093 Q589 1067 579.5 1045 Q570 1023 553.5 1006.5 Q537 990 514.5 980.5 Q492 971 467 971 Q442 971 419.5 980.5 Q397 990 380.5 1006.5 Q364 1023 354.5 1045 Q345 1067 345 1093 Q345 1118 354.5 1140 Q364 1162 380.5 1178.5 Q397 1195 419.5 1204.5 Q442 1214 467 1214 Z " />
<glyph glyph-name="ae" unicode="&#xe6;" horiz-adv-x="1062" d="M595 107 Q595 96 603 88 Q611 80 622 80 L997 80 L997 0 L513 0 L513 374 Q511 385 504 391.5 Q497 398 486 398 L227 398 Q210 398 196.5 387 Q183 376 179 359 L109 0 L30 0 L200 875 L513 875 L997 874 L997 795 L622 795 Q611 795 603 787 Q595 779 595 767 L595 505 Q595 493 603 485 Q611 477 622 477 L997 477 L997 397 L595 397 L595 107 Z M513 478 L513 774 Q511 785 504 791.5 Q497 798 486 798 L265 798 L201 478 L513 478 Z " />
<glyph glyph-name="AE" unicode="&#xc6;" horiz-adv-x="1074" d="M1009 874 L1009 795 L584 795 Q573 795 565 786.5 Q557 778 557 767 L557 505 Q557 493 565 485 Q573 477 584 477 L1009 477 L1009 397 L584 397 Q573 397 565 389 Q557 381 557 370 L557 107 Q557 96 565 88 Q573 80 584 80 L1009 80 L1009 0 L475 0 L475 325 L295 325 Q281 325 269 317.5 Q257 310 252 297 L118 0 L30 0 L423 875 L574 875 L1009 874 Z M475 401 L475 795 L299 401 L475 401 Z " />
<glyph glyph-name="paragraph" unicode="&#xb6;" horiz-adv-x="1029" d="M827 809 L727 809 Q718 809 712 800 Q706 791 706 783 L706 0 L624 0 L624 371 Q624 382 616.5 390.5 Q609 399 597 399 L278 399 Q229 399 185.5 418 Q142 437 110 469 Q78 501 59 544.5 Q40 588 40 637 Q40 687 60 730.5 Q80 774 114 806 Q148 838 193 856.5 Q238 875 287 875 L934 875 L934 0 L852 0 L852 783 Q852 794 845 801.5 Q838 809 827 809 Z M123 636 Q123 602 136.5 573 Q150 544 172.5 522.5 Q195 501 225.5 489 Q256 477 289 477 L597 477 Q608 477 616 485.5 Q624 494 624 505 L624 772 Q624 781 616 788 Q608 795 599 795 L281 795 Q248 795 219.5 782.5 Q191 770 169.5 748.5 Q148 727 135.5 698 Q123 669 123 636 Z " />
<glyph glyph-name="Agrave" unicode="&#xc0;" horiz-adv-x="934" d="M904 0 L816 0 L682 297 Q677 310 665 317.5 Q653 325 639 325 L295 325 Q281 325 269 317.5 Q257 310 252 297 L118 0 L30 0 L423 875 L511 875 L904 0 Z M300 404 L634 404 L467 777 L300 404 Z M257 1236 L330 1285 L505 1006 L432 1006 L257 1236 Z " />
<glyph glyph-name="Atilde" unicode="&#xc3;" horiz-adv-x="934" d="M904 0 L816 0 L682 297 Q677 310 665 317.5 Q653 325 639 325 L295 325 Q281 325 269 317.5 Q257 310 252 297 L118 0 L30 0 L423 875 L511 875 L904 0 Z M272 1119 Q304 1153 337 1156.5 Q370 1160 402.5 1148.5 Q435 1137 467 1118.5 Q499 1100 532 1088.5 Q565 1077 597.5 1080.5 Q630 1084 662 1118 L662 1039 Q629 1005 597 1001.5 Q565 998 532 1009.5 Q499 1021 466.5 1039.5 Q434 1058 401.5 1069.5 Q369 1081 336.5 1077.5 Q304 1074 272 1040 L272 1119 Z M300 404 L634 404 L467 777 L300 404 Z " />
<glyph glyph-name="OE" unicode="&#x152;" horiz-adv-x="1186" d="M1121 874 L1121 795 L606 795 Q595 795 587 786.5 Q579 778 579 767 L579 505 Q579 493 587 485 Q595 477 606 477 L1121 477 L1121 397 L606 397 Q595 397 587 389 Q579 381 579 370 L579 107 Q579 96 587 88 Q595 80 606 80 L1121 80 L1121 0 L497 0 Q407 0 327 34 Q247 68 188 127.5 Q129 187 94.5 266.5 Q60 346 60 437 Q60 527 94.5 607 Q129 687 188 746.5 Q247 806 327 840.5 Q407 875 497 875 L1121 874 Z M497 794 Q423 794 358 766 Q293 738 244.5 689.5 Q196 641 168 576 Q140 511 140 437 Q140 362 168 297 Q196 232 244.5 183.5 Q293 135 358 107 Q423 79 497 79 L497 794 Z " />
<glyph glyph-name="hyphen" unicode="&#x2d;" horiz-adv-x="486" d="M20 397 L20 477 L466 477 L466 397 L20 397 Z " />
<glyph glyph-name="sterling" unicode="&#xa3;" horiz-adv-x="836" d="M587 395 L373 395 Q358 395 340 396 Q322 397 307 394 Q292 391 281.5 382.5 Q271 374 271 356 L271 123 Q271 103 282 91.5 Q293 80 313 80 L771 80 L771 0 L188 0 L188 290 Q188 305 189 323.5 Q190 342 187 357.5 Q184 373 176 384 Q168 395 150 395 L45 395 L45 476 L188 476 Q188 558 210 632 Q232 706 276.5 762 Q321 818 387 851 Q453 884 541 884 Q612 884 676.5 857.5 Q741 831 791 781 L735 725 Q697 763 647 784 Q597 805 543 805 Q487 805 437.5 783.5 Q388 762 351 725 Q314 688 292.5 638 Q271 588 271 532 L271 476 L587 476 L587 395 Z " />
<glyph glyph-name="plus" unicode="&#x2b;" horiz-adv-x="483" d="M202 398 L20 398 L20 476 L202 476 L202 658 L280 658 L280 476 L463 476 L463 398 L280 398 L280 215 L202 215 L202 398 Z " />
<glyph glyph-name="multiply" unicode="&#xd7;" horiz-adv-x="484" d="M62 569 L109 616 L242 483 L375 617 L422 570 L288 436 L422 303 L375 256 L242 390 L109 257 L62 304 L195 436 L62 569 Z " />
<glyph glyph-name="question" unicode="&#x3f;" horiz-adv-x="724" d="M694 772 Q694 713 674.5 671 Q655 629 622.5 595 Q590 561 549 532.5 Q508 504 466 474 Q442 457 428 441 Q414 425 406.5 402.5 Q399 380 397 348.5 Q395 317 395 269 L316 269 Q316 319 318.5 355.5 Q321 392 337 425.5 Q353 459 388 495 Q423 531 488 580 Q513 598 535.5 617.5 Q558 637 575 660 Q592 683 602.5 711 Q613 739 613 772 Q613 828 590.5 863.5 Q568 899 532 919.5 Q496 940 449.5 948 Q403 956 355 956 Q305 956 258.5 942 Q212 928 176 900.5 Q140 873 118.5 831.5 Q97 790 97 736 L15 736 Q15 808 43 863.5 Q71 919 118 957 Q165 995 226.5 1015 Q288 1035 355 1035 Q420 1035 481 1022 Q542 1009 589.5 978.5 Q637 948 665.5 897.5 Q694 847 694 772 Z M362 -15 Q336 -15 318.5 2.5 Q301 20 301 46 Q301 72 318.5 89.5 Q336 107 362 107 Q388 107 405.5 89.5 Q423 72 423 46 Q423 20 405.5 2.5 Q388 -15 362 -15 Z " />
<glyph glyph-name="exclam" unicode="&#x21;" horiz-adv-x="282" d="M100 1035 L181 1035 L181 269 L100 269 L100 1035 Z M141 -15 Q115 -15 97.5 2.5 Q80 20 80 46 Q80 72 97.5 89.5 Q115 107 141 107 Q167 107 184.5 89.5 Q202 72 202 46 Q202 20 184.5 2.5 Q167 -15 141 -15 Z " />
<glyph glyph-name="equal" unicode="&#x3d;" horiz-adv-x="486" d="M20 522 L20 602 L466 602 L466 522 L20 522 Z M20 272 L20 352 L466 352 L466 272 L20 272 Z " />
<glyph glyph-name="Lslash" unicode="&#x141;" horiz-adv-x="712" d="M30 397 L30 477 L95 477 L95 875 L178 875 L178 477 L476 477 L476 397 L178 397 L178 123 Q178 103 189 91.5 Q200 80 220 80 L677 80 L677 0 L95 0 L95 397 L30 397 Z " />
<glyph glyph-name="Euro" unicode="&#x20ac;" horiz-adv-x="710" d="M407 885 Q478 885 540 858.5 Q602 832 649 785 L592 728 Q557 763 510 783 Q463 803 410 803 Q362 803 319.5 787 Q277 771 243 742.5 Q209 714 186.5 675 Q164 636 156 591 L464 591 L464 518 L236 518 Q223 518 208 518.5 Q193 519 180.5 516 Q168 513 160 505.5 Q152 498 152 483 L152 356 L464 356 L464 283 L156 283 Q164 238 187 199 Q210 160 243.5 132 Q277 104 319.5 88 Q362 72 409 72 Q463 72 509.5 92 Q556 112 591 147 L650 90 Q603 43 541 16.5 Q479 -10 407 -10 Q342 -10 284.5 12.5 Q227 35 182 74 Q137 113 107 166.5 Q77 220 68 283 L-73 283 L-73 356 L30 356 Q46 357 55.5 368 Q65 379 65 395 L65 518 L-73 518 L-73 591 L68 591 Q77 654 106.5 707.5 Q136 761 181 800.5 Q226 840 284 862.5 Q342 885 407 885 Z " />
<glyph glyph-name="Aacute" unicode="&#xc1;" horiz-adv-x="934" d="M904 0 L816 0 L682 297 Q677 310 665 317.5 Q653 325 639 325 L295 325 Q281 325 269 317.5 Q257 310 252 297 L118 0 L30 0 L423 875 L511 875 L904 0 Z M300 404 L634 404 L467 777 L300 404 Z M499 1006 L429 1006 L602 1282 L673 1235 L499 1006 Z " />
<glyph glyph-name="Acircumflex" unicode="&#xc2;" horiz-adv-x="934" d="M904 0 L816 0 L682 297 Q677 310 665 317.5 Q653 325 639 325 L295 325 Q281 325 269 317.5 Q257 310 252 297 L118 0 L30 0 L423 875 L511 875 L904 0 Z M610 948 L494 1064 Q483 1075 466.5 1075 Q450 1075 439 1064 L323 948 L271 1000 L467 1196 L663 1000 L611 948 L610 948 Z M300 404 L634 404 L467 777 L300 404 Z " />
<glyph glyph-name="minus" unicode="&#x2212;" horiz-adv-x="483" d="M20 404 L20 470 L463 470 L463 404 L20 404 Z " />
<glyph glyph-name="plusminus" unicode="&#xb1;" horiz-adv-x="483" d="M20 187 L20 260 L202 260 L202 431 L20 431 L20 509 L202 509 L202 691 L280 691 L280 509 L463 509 L463 431 L280 431 L280 260 L463 260 L463 187 L20 187 Z " />
<glyph glyph-name="Cacute" unicode="&#x106;" horiz-adv-x="847" d="M489 792 Q416 792 351 764 Q286 736 237.5 688 Q189 640 161 575.5 Q133 511 133 438 Q133 365 160.5 300.5 Q188 236 236 187.5 Q284 139 348.5 111 Q413 83 486 83 Q557 83 622 109.5 Q687 136 738 187 L797 128 Q735 66 654.5 33 Q574 0 487 0 Q397 0 317 34.5 Q237 69 178 128.5 Q119 188 84.5 268 Q50 348 50 438 Q50 528 84.5 608 Q119 688 178 747 Q237 806 317 840.5 Q397 875 487 875 Q574 875 654.5 842 Q735 809 797 747 L738 689 Q688 739 624 765.5 Q560 792 489 792 Z M459 1006 L389 1006 L562 1282 L633 1235 L459 1006 Z " />
<glyph glyph-name="Ccircumflex" unicode="&#x108;" horiz-adv-x="847" d="M489 792 Q416 792 351 764 Q286 736 237.5 688 Q189 640 161 575.5 Q133 511 133 438 Q133 365 160.5 300.5 Q188 236 236 187.5 Q284 139 348.5 111 Q413 83 486 83 Q557 83 622 109.5 Q687 136 738 187 L797 128 Q735 66 654.5 33 Q574 0 487 0 Q397 0 317 34.5 Q237 69 178 128.5 Q119 188 84.5 268 Q50 348 50 438 Q50 528 84.5 608 Q119 688 178 747 Q237 806 317 840.5 Q397 875 487 875 Q574 875 654.5 842 Q735 809 797 747 L738 689 Q688 739 624 765.5 Q560 792 489 792 Z M601 948 L485 1064 Q474 1075 457.5 1075 Q441 1075 430 1064 L314 948 L262 1000 L458 1196 L654 1000 L602 948 L601 948 Z " />
<glyph glyph-name="Cdotaccent" unicode="&#x10a;" horiz-adv-x="847" d="M489 792 Q416 792 351 764 Q286 736 237.5 688 Q189 640 161 575.5 Q133 511 133 438 Q133 365 160.5 300.5 Q188 236 236 187.5 Q284 139 348.5 111 Q413 83 486 83 Q557 83 622 109.5 Q687 136 738 187 L797 128 Q735 66 654.5 33 Q574 0 487 0 Q397 0 317 34.5 Q237 69 178 128.5 Q119 188 84.5 268 Q50 348 50 438 Q50 528 84.5 608 Q119 688 178 747 Q237 806 317 840.5 Q397 875 487 875 Q574 875 654.5 842 Q735 809 797 747 L738 689 Q688 739 624 765.5 Q560 792 489 792 Z M537 1025 Q537 1002 520.5 985.5 Q504 969 481 969 Q458 969 441.5 985.5 Q425 1002 425 1025 Q425 1048 441.5 1064.5 Q458 1081 481 1081 Q504 1081 520.5 1064.5 Q537 1048 537 1025 Z " />
<glyph glyph-name="Aogonek" unicode="&#x104;" horiz-adv-x="934" d="M927 -195 Q879 -243 815 -243 Q783 -243 754.5 -230.5 Q726 -218 705 -197 Q684 -176 671.5 -147.5 Q659 -119 659 -87 Q659 -58 668.5 -32.5 Q678 -7 695 13 Q712 33 735.5 46.5 Q759 60 786 65 L682 297 Q677 310 665 317.5 Q653 325 639 325 L295 325 Q281 325 269 317.5 Q257 310 252 297 L118 0 L30 0 L423 875 L511 875 L904 0 L816 0 Q779 0 753.5 -25 Q728 -50 728 -86 Q728 -121 753 -146 Q778 -171 814 -171 Q831 -171 847 -164 Q863 -157 876 -145 L927 -195 Z M300 404 L634 404 L467 777 L300 404 Z " />
<glyph glyph-name="Amacron" unicode="&#x100;" horiz-adv-x="934" d="M904 0 L816 0 L682 297 Q677 310 665 317.5 Q653 325 639 325 L295 325 Q281 325 269 317.5 Q257 310 252 297 L118 0 L30 0 L423 875 L511 875 L904 0 Z M285 1052 L285 1130 L648 1130 L648 1052 L285 1052 Z M300 404 L634 404 L467 777 L300 404 Z " />
<glyph glyph-name="Hbar" unicode="&#x126;" horiz-adv-x="942" d="M31 639 L31 719 L95 719 L95 875 L177 875 L177 719 L765 719 L765 875 L847 875 L847 719 L911 719 L911 639 L847 639 L847 0 L765 0 L765 370 Q765 381 757 389.5 Q749 398 738 398 L204 398 Q193 398 185 389.5 Q177 381 177 370 L177 0 L95 0 L95 639 L31 639 Z M765 505 L765 639 L177 639 L177 505 Q177 494 185 485.5 Q193 477 204 477 L738 477 Q749 477 757 485.5 Q765 494 765 505 Z " />
<glyph glyph-name="Lacute" unicode="&#x139;" horiz-adv-x="712" d="M178 875 L178 123 Q178 103 189 91.5 Q200 80 220 80 L677 80 L677 0 L95 0 L95 875 L178 875 Z M203 1006 L134 1006 L307 1282 L377 1235 L203 1006 Z " />
<glyph glyph-name="Jcircumflex" unicode="&#x134;" horiz-adv-x="728" d="M555 353 L555 874 L638 874 L638 353 Q638 280 610.5 215.5 Q583 151 535 103 Q487 55 422.5 27.5 Q358 0 285 0 Q211 0 147 27.5 Q83 55 35 103 L93 161 Q130 124 178.5 103 Q227 82 284 82 Q340 82 389.5 103.5 Q439 125 475.5 161.5 Q512 198 533.5 247.5 Q555 297 555 353 Z M741 948 L650 1039 Q642 1047 632.5 1056 Q623 1065 613 1070.5 Q603 1076 592 1075.5 Q581 1075 570 1064 L454 948 L402 1000 L598 1196 L794 1000 L742 948 L741 948 Z " />
<glyph glyph-name="aeacute" unicode="&#x1fd;" horiz-adv-x="1045" d="M595 107 Q595 96 603 88 Q611 80 622 80 L997 80 L997 0 L513 0 L513 374 Q511 385 504 391.5 Q497 398 486 398 L227 398 Q210 398 196.5 387 Q183 376 179 359 L109 0 L30 0 L200 875 L513 875 L997 874 L997 795 L622 795 Q611 795 603 787 Q595 779 595 767 L595 505 Q595 493 603 485 Q611 477 622 477 L997 477 L997 397 L595 397 L595 107 Z M513 478 L513 774 Q511 785 504 791.5 Q497 798 486 798 L265 798 L201 478 L513 478 Z M562 1006 L492 1006 L665 1282 L736 1235 L562 1006 Z " />
<glyph glyph-name="Eth" unicode="&#xd0;" horiz-adv-x="874" d="M30 397 L30 477 L95 477 L95 875 L381 875 Q471 875 551 840.5 Q631 806 690 746.5 Q749 687 783.5 607 Q818 527 818 437 Q818 347 783.5 267 Q749 187 690 128 Q631 69 551 34.5 Q471 0 381 0 L95 0 L95 397 L30 397 Z M735 435 Q735 504 708.5 568.5 Q682 633 635.5 682.5 Q589 732 526.5 762 Q464 792 392 792 L203 792 Q192 792 185 784.5 Q178 777 178 766 L178 477 L476 477 L476 397 L178 397 L178 108 Q178 97 185 90 Q192 83 203 83 L392 83 Q462 83 524.5 112.5 Q587 142 633.5 190.5 Q680 239 707.5 302.5 Q735 366 735 435 Z " />
<glyph glyph-name="commaaccent" unicode="&#xf6c3;" horiz-adv-x="454" d="M185 -142 L268 -142 L246 -423 L185 -423 L185 -142 Z " />
<glyph glyph-name="Lcommaaccent" unicode="&#x13b;" horiz-adv-x="712" d="M178 875 L178 123 Q178 103 189 91.5 Q200 80 220 80 L677 80 L677 0 L95 0 L95 875 L178 875 Z M308 -142 L391 -142 L369 -423 L308 -423 L308 -142 Z " />
<glyph glyph-name="Ldot" unicode="&#x13f;" horiz-adv-x="712" d="M178 875 L178 123 Q178 103 189 91.5 Q200 80 220 80 L677 80 L677 0 L95 0 L95 875 L178 875 Z M525 442 Q525 419 508.5 402.5 Q492 386 469 386 Q446 386 429.5 402.5 Q413 419 413 442 Q413 465 429.5 481.5 Q446 498 469 498 Q492 498 508.5 481.5 Q525 465 525 442 Z " />
<glyph glyph-name="Abreve" unicode="&#x102;" horiz-adv-x="934" d="M904 0 L816 0 L725 203 Q717 219 709 240.5 Q701 262 691 280.5 Q681 299 668 312 Q655 325 639 325 L295 325 Q281 325 269 317.5 Q257 310 252 297 L118 0 L30 0 L423 875 L511 875 L904 0 Z M527 1130 L603 1130 Q603 1102 592.5 1077 Q582 1052 563.5 1033.5 Q545 1015 520 1004.5 Q495 994 467 994 Q439 994 414 1004.5 Q389 1015 370.5 1033.5 Q352 1052 341.5 1077 Q331 1102 331 1130 L407 1130 Q407 1105 424.5 1087.5 Q442 1070 466 1069 Q492 1069 509.5 1087 Q527 1105 527 1130 Z M300 404 L634 404 L467 777 L300 404 Z " />
<glyph glyph-name="Thorn" unicode="&#xde;" horiz-adv-x="786" d="M95 874 L161 874 L161 696 Q162 685 169.5 678 Q177 671 188 671 L510 671 Q558 671 601 652.5 Q644 634 676 602.5 Q708 571 726.5 528 Q745 485 745 437 Q745 389 726.5 346 Q708 303 676 271.5 Q644 240 601 221.5 Q558 203 510 203 L188 203 Q177 203 169.5 196 Q162 189 161 178 L161 0 L95 0 L95 874 Z M679 437 Q679 473 664.5 504.5 Q650 536 626 558.5 Q602 581 570 594 Q538 607 502 607 L188 607 Q177 607 169 598.5 Q161 590 161 579 L161 295 Q161 284 169 275.5 Q177 267 188 267 L502 267 Q538 267 570 280 Q602 293 626 315.5 Q650 338 664.5 369.5 Q679 401 679 437 Z " />
<glyph glyph-name="space" unicode="&#x20;" horiz-adv-x="454" d="" />
<glyph glyph-name="at" unicode="&#x40;" horiz-adv-x="994" d="M714 377 Q716 346 737 323.5 Q758 301 790 301 Q822 301 844 323 Q866 345 866 377 L866 487 Q866 553 836.5 611.5 Q807 670 757 713.5 Q707 757 639.5 782.5 Q572 808 497 808 Q420 808 352.5 779 Q285 750 234.5 699.5 Q184 649 155 581.5 Q126 514 126 438 Q126 362 155 294.5 Q184 227 234.5 176 Q285 125 352 95.5 Q419 66 496 66 Q570 66 638.5 94 Q707 122 760 175 L807 128 Q745 66 664.5 33 Q584 0 497 0 Q407 0 327 34.5 Q247 69 188 128 Q129 187 94.5 267 Q60 347 60 437 Q60 527 94.5 607 Q129 687 188 746 Q247 805 327 839.5 Q407 874 497 874 Q588 874 667.5 842.5 Q747 811 806 757 Q865 703 899.5 631 Q934 559 934 477 L934 377 Q934 348 922.5 322 Q911 296 891.5 276.5 Q872 257 846 245.5 Q820 234 790 234 Q749 234 716 254.5 Q683 275 664 308 Q637 273 595.5 253.5 Q554 234 497 234 Q444 234 404 251 Q364 268 337 297 Q310 326 296 365.5 Q282 405 282 449 Q282 503 298.5 544 Q315 585 343.5 613 Q372 641 411.5 655.5 Q451 670 497 670 Q539 670 577 658.5 Q615 647 644.5 623.5 Q674 600 692.5 565.5 Q711 531 713 486 L714 377 Z M647 449 Q647 522 605.5 561.5 Q564 601 497 602 Q430 601 388.5 561.5 Q347 522 347 449 Q347 413 359 384.5 Q371 356 391 336.5 Q411 317 438.5 307 Q466 297 497 297 Q528 297 555.5 307 Q583 317 603 336.5 Q623 356 635 384.5 Q647 413 647 449 Z " />
<glyph glyph-name="divide" unicode="&#xf7;" horiz-adv-x="282" d="M141 180 Q118 180 101.5 196.5 Q85 213 85 236 Q85 259 101.5 275.5 Q118 292 141 292 Q164 292 180.5 275.5 Q197 259 197 236 Q197 213 180.5 196.5 Q164 180 141 180 Z M141 577 Q118 577 101.5 593.5 Q85 610 85 633 Q85 656 101.5 672.5 Q118 689 141 689 Q164 689 180.5 672.5 Q197 656 197 633 Q197 610 180.5 593.5 Q164 577 141 577 Z M-80 404 L-80 470 L363 470 L363 404 L-80 404 Z " />
<glyph glyph-name="thorn" unicode="&#xfe;" horiz-adv-x="786" d="M95 874 L178 874 L178 703 Q179 692 186.5 685 Q194 678 205 678 L510 678 Q560 678 604 659 Q648 640 681 607.5 Q714 575 733.5 531 Q753 487 753 437 Q753 387 733.5 343 Q714 299 681 266.5 Q648 234 604 215 Q560 196 510 196 L205 196 Q194 196 186.5 189 Q179 182 178 171 L178 0 L95 0 L95 874 Z M672 437 Q672 472 658 502 Q644 532 621 554 Q598 576 567 588.5 Q536 601 502 601 L205 601 Q194 601 186 592.5 Q178 584 178 573 L178 302 Q178 291 186 282.5 Q194 274 205 274 L502 274 Q536 274 567 286.5 Q598 299 621 320.5 Q644 342 658 372 Q672 402 672 437 Z " />
<glyph glyph-name="trademark" unicode="&#x2122;" horiz-adv-x="554" d="M495 875 L524 875 L524 629 L495 629 L495 834 L391 729 L287 834 L287 629 L258 629 L258 875 L287 875 L385 776 Q387 774 390.5 774 Q394 774 396 776 L495 875 Z M30 846 L30 875 L232 875 L232 846 L156 846 Q152 846 148.5 843 Q145 840 145 835 L145 629 L117 629 L117 835 Q117 846 106 846 L30 846 Z " />
<glyph glyph-name="registered" unicode="&#xae;" horiz-adv-x="520" d="M376 807 Q376 786 362 767.5 Q348 749 328 744 Q320 742 320 734 Q320 732 327 717 Q334 702 343 683.5 Q352 665 360.5 648.5 Q369 632 371 628 L338 628 L281 742 L201 742 Q189 742 189 731 L189 628 L160 628 L160 874 L310 874 Q338 874 357 854.5 Q376 835 376 807 Z M311 772 Q325 772 335 782.5 Q345 793 345 807 Q345 823 335 833 Q325 843 310 843 L198 843 Q189 843 189 834 L189 781 Q189 772 198 772 L311 772 Z M30 747 Q30 795 48 836.5 Q66 878 97.5 909.5 Q129 941 170.5 959 Q212 977 260 977 Q308 977 349.5 959 Q391 941 422.5 909.5 Q454 878 472 836.5 Q490 795 490 747 Q490 699 472 657.5 Q454 616 422.5 584.5 Q391 553 349.5 535 Q308 517 260 517 Q212 517 170.5 535 Q129 553 97.5 584.5 Q66 616 48 657.5 Q30 699 30 747 Z M62 747 Q62 706 77.5 670 Q93 634 120 607 Q147 580 183 564.5 Q219 549 260 549 Q301 549 337 564.5 Q373 580 400 607 Q427 634 442.5 670 Q458 706 458 747 Q458 788 442.5 824 Q427 860 400 887 Q373 914 337 929.5 Q301 945 260 945 Q219 945 183 929.5 Q147 914 120 887 Q93 860 77.5 824 Q62 788 62 747 Z " />
<glyph glyph-name="copyright" unicode="&#xa9;" horiz-adv-x="520" d="M30 747 Q30 795 48 836.5 Q66 878 97.5 909.5 Q129 941 170.5 959 Q212 977 260 977 Q308 977 349.5 959 Q391 941 422.5 909.5 Q454 878 472 836.5 Q490 795 490 747 Q490 699 472 657.5 Q454 616 422.5 584.5 Q391 553 349.5 535 Q308 517 260 517 Q212 517 170.5 535 Q129 553 97.5 584.5 Q66 616 48 657.5 Q30 699 30 747 Z M62 747 Q62 706 77.5 670 Q93 634 120 607 Q147 580 183 564.5 Q219 549 260 549 Q301 549 337 564.5 Q373 580 400 607 Q427 634 442.5 670 Q458 706 458 747 Q458 788 442.5 824 Q427 860 400 887 Q373 914 337 929.5 Q301 945 260 945 Q219 945 183 929.5 Q147 914 120 887 Q93 860 77.5 824 Q62 788 62 747 Z M268 837 Q231 837 204.5 810.5 Q178 784 178 747 Q178 728 185 711.5 Q192 695 204 683 Q216 671 232 664 Q248 657 266 657 Q304 657 331 682 L356 659 Q339 642 316 632.5 Q293 623 269 623 Q243 623 220.5 633 Q198 643 181 659.5 Q164 676 154.5 698.5 Q145 721 145 747 Q145 772 154.5 794.5 Q164 817 181 834 Q198 851 220.5 860.5 Q243 870 269 870 Q293 870 316 860.5 Q339 851 356 834 L331 812 Q318 823 302 830 Q286 837 268 837 Z " />
<glyph glyph-name="eth" unicode="&#xf0;" horiz-adv-x="829" d="M521 604 L477 663 L586 753 Q554 783 509 799.5 Q464 816 401 817 L407 886 Q485 884 543.5 861 Q602 838 644 798 L749 883 L793 824 L689 739 Q724 685 740 615 Q756 545 756 464 L756 293 Q756 220 729.5 163.5 Q703 107 655.5 68.5 Q608 30 543 10 Q478 -10 401 -10 Q319 -10 255.5 11.5 Q192 33 148.5 71 Q105 109 82.5 161 Q60 213 60 275 Q60 335 83 386 Q106 437 150 474 Q194 511 257 532 Q320 553 401 553 Q456 553 501 542.5 Q546 532 581 515 Q616 498 640.5 477.5 Q665 457 679 437 L679 475 Q679 539 668 594.5 Q657 650 631 694 L521 604 Z M401 476 Q339 476 290.5 462 Q242 448 209 421.5 Q176 395 158.5 358.5 Q141 322 141 277 Q141 230 159 191 Q177 152 210.5 124 Q244 96 292 80.5 Q340 65 401 65 Q472 65 523.5 82.5 Q575 100 609 130 Q643 160 659 199.5 Q675 239 675 283 Q675 331 654.5 367 Q634 403 597.5 427 Q561 451 510.5 463.5 Q460 476 401 476 Z " />
<glyph glyph-name="degree" unicode="&#xb0;" horiz-adv-x="306" d="M153 654 Q173 654 190.5 661.5 Q208 669 221 682.5 Q234 696 241.5 713.5 Q249 731 249 751 Q249 791 221 818.5 Q193 846 153 846 Q113 846 84.5 818.5 Q56 791 56 751 Q56 731 63.5 713.5 Q71 696 84.5 682.5 Q98 669 115.5 661.5 Q133 654 153 654 Z M153 874 Q178 874 200.5 864.5 Q223 855 240 838 Q257 821 266.5 798.5 Q276 776 276 751 Q276 725 266.5 703 Q257 681 240 664 Q223 647 200.5 637.5 Q178 628 153 628 Q127 628 105 637.5 Q83 647 66 664 Q49 681 39.5 703 Q30 725 30 751 Q30 776 39.5 798.5 Q49 821 66 838 Q83 855 105 864.5 Q127 874 153 874 Z " />
<glyph glyph-name="percent" unicode="&#x25;" horiz-adv-x="789" d="M733 720 L114 102 L61 155 L680 773 L733 720 Z M578 363 Q607 363 633 352 Q659 341 678 321.5 Q697 302 708 276 Q719 250 719 221 Q719 192 708 166 Q697 140 678 121 Q659 102 633 91 Q607 80 578 80 Q549 80 523 91 Q497 102 477.5 121 Q458 140 447 166 Q436 192 436 221 Q436 250 447 276 Q458 302 477.5 321.5 Q497 341 523 352 Q549 363 578 363 Z M202 810 Q231 810 257 799 Q283 788 302 768.5 Q321 749 332 723 Q343 697 343 668 Q343 639 332 613 Q321 587 302 568 Q283 549 257 538 Q231 527 202 527 Q173 527 147 538 Q121 549 101.5 568 Q82 587 71 613 Q60 639 60 668 Q60 697 71 723 Q82 749 101.5 768.5 Q121 788 147 799 Q173 810 202 810 Z M578 144 Q610 144 631.5 166.5 Q653 189 653 221 Q653 253 631.5 274.5 Q610 296 578 296 Q546 296 523 274.5 Q500 253 500 221 Q500 205 506 191 Q512 177 522.5 166.5 Q533 156 547.5 150 Q562 144 578 144 Z M202 591 Q234 591 255.5 613.5 Q277 636 277 668 Q277 700 255.5 721.5 Q234 743 202 743 Q170 743 147 721.5 Q124 700 124 668 Q124 652 130 638 Q136 624 146.5 613.5 Q157 603 171.5 597 Q186 591 202 591 Z " />
<glyph glyph-name="less" unicode="&#x3c;" horiz-adv-x="341" d="M20 436 L266 692 L321 638 L130 437 L321 247 L266 191 L20 436 Z " />
<glyph glyph-name="lessequal" unicode="&#x2264;" horiz-adv-x="490" d="M20 181 L20 260 L262 260 L80 436 L326 692 L381 638 L191 437 L367 265 L470 260 L470 181 L20 181 Z " />
<glyph glyph-name="asciitilde" unicode="&#x7e;" horiz-adv-x="418" d="M20 488 Q51 521 83 524.5 Q115 528 146 517 Q177 506 209 487.5 Q241 469 272 458 Q303 447 335 450.5 Q367 454 398 487 L398 409 Q366 376 335 372.5 Q304 369 272 380 Q240 391 208.5 409.5 Q177 428 146 439 Q115 450 83 446.5 Q51 443 20 410 L20 488 Z " />
<glyph glyph-name="notequal" unicode="&#x2260;" horiz-adv-x="483" d="M88 120 L144 272 L20 272 L20 352 L172 352 L233 522 L20 522 L20 602 L261 602 L326 781 L398 757 L341 602 L466 602 L466 522 L313 522 L252 352 L466 352 L466 272 L224 272 L160 96 L88 120 Z " />
<glyph glyph-name="middot" unicode="&#xb7;" horiz-adv-x="282" d="M141 380 Q115 380 97.5 397.5 Q80 415 80 441 Q80 467 97.5 484.5 Q115 502 141 502 Q167 502 184.5 484.5 Q202 467 202 441 Q202 415 184.5 397.5 Q167 380 141 380 Z " />
<glyph glyph-name="bullet" unicode="&#x2022;" horiz-adv-x="360" d="M180 341 Q140 341 112.5 368.5 Q85 396 85 436 Q85 476 112.5 503.5 Q140 531 180 531 Q220 531 247.5 503.5 Q275 476 275 436 Q275 396 247.5 368.5 Q220 341 180 341 Z " />
<glyph glyph-name="asterisk" unicode="&#x2a;" horiz-adv-x="491" d="M329 502 L245 617 L161 502 L102 546 L185 661 L50 706 L73 775 L208 732 L208 874 L282 874 L282 731 L418 775 L441 706 L305 661 Q326 632 348 602 Q370 572 390 546 L329 502 Z " />
<glyph glyph-name="guilsinglleft" unicode="&#x2039;" horiz-adv-x="492" d="M131 467 Q168 435 208.5 401 Q249 367 288 335 L442 207 L391 147 L50 433 L50 501 L391 787 L442 727 L131 467 Z " />
<glyph glyph-name="guilsinglright" unicode="&#x203a;" horiz-adv-x="492" d="M50 727 L101 787 L442 501 L442 433 L101 147 L50 207 L361 467 L50 727 Z " />
<glyph glyph-name="guillemotleft" unicode="&#xab;" horiz-adv-x="820" d="M131 467 Q150 450 172 431.5 Q194 413 228 384.5 Q262 356 313 313.5 Q364 271 442 207 L391 147 L50 433 L50 501 L391 787 L442 727 L131 467 Z M459 467 L770 207 L719 147 L378 433 L378 501 L719 787 L770 727 L459 467 Z " />
<glyph glyph-name="partialdiff" unicode="&#x2202;" horiz-adv-x="826" d="M401 -10 Q319 -10 255.5 11.5 Q192 33 148.5 71 Q105 109 82.5 161 Q60 213 60 275 Q60 335 83 386 Q106 437 150 474 Q194 511 257 532 Q320 553 401 553 Q456 553 500.5 542.5 Q545 532 578.5 515.5 Q612 499 636 479 Q660 459 674 439 L674 475 Q674 545 661 606 Q648 667 616.5 712 Q585 757 532 783.5 Q479 810 399 811 L407 886 Q500 884 566.5 851 Q633 818 675 762 Q717 706 736.5 629.5 Q756 553 756 464 L756 293 Q756 220 729.5 163.5 Q703 107 655.5 68.5 Q608 30 543 10 Q478 -10 401 -10 Z M401 476 Q339 476 290.5 462 Q242 448 209 421.5 Q176 395 158.5 358.5 Q141 322 141 277 Q141 230 159 191 Q177 152 210.5 124 Q244 96 292 80.5 Q340 65 401 65 Q472 65 523.5 82.5 Q575 100 609 130 Q643 160 659 199.5 Q675 239 675 283 Q675 331 654.5 367 Q634 403 597.5 427 Q561 451 510.5 463.5 Q460 476 401 476 Z " />
<glyph glyph-name="quotedbl" unicode="&#x22;" horiz-adv-x="409" d="M272 628 L355 628 L333 347 L272 347 L272 628 Z M60 628 L143 628 L121 347 L60 347 L60 628 Z " />
<glyph glyph-name="quotedblleft" unicode="&#x201c;" horiz-adv-x="415" d="M60 347 L60 628 L121 628 L143 347 L60 347 Z M272 347 L272 628 L333 628 L355 347 L272 347 Z " />
<glyph glyph-name="quotedblright" unicode="&#x201d;" horiz-adv-x="415" d="M355 628 L355 347 L294 347 L272 628 L355 628 Z M143 628 L143 347 L82 347 L60 628 L143 628 Z " />
<glyph glyph-name="quotesingle" unicode="&#x27;" horiz-adv-x="203" d="M60 875 L143 875 L121 594 L60 594 L60 875 Z " />
<glyph glyph-name="quotesinglbase" unicode="&#x201a;" horiz-adv-x="203" d="M60 281 L143 281 L121 0 L60 0 L60 281 Z " />
<glyph glyph-name="quotedblbase" unicode="&#x201e;" horiz-adv-x="415" d="M272 281 L355 281 L333 0 L272 0 L272 281 Z M60 281 L143 281 L121 0 L60 0 L60 281 Z " />
<glyph glyph-name="quoteleft" unicode="&#x2018;" horiz-adv-x="203" d="M143 347 L60 347 L82 628 L143 628 L143 347 Z " />
<glyph glyph-name="quoteright" unicode="&#x2019;" horiz-adv-x="203" d="M60 628 L143 628 L121 347 L60 347 L60 628 Z " />
<glyph glyph-name="endash" unicode="&#x2013;" horiz-adv-x="926" d="M20 397 L20 477 L906 477 L906 397 L20 397 Z " />
<glyph glyph-name="emdash" unicode="&#x2014;" horiz-adv-x="1369" d="M20 397 L20 477 L1349 477 L1349 397 L20 397 Z " />
<glyph glyph-name="fraction" unicode="&#x2044;" horiz-adv-x="522" d="M-36 -42 L426 950 L498 917 L36 -76 L-36 -42 Z " />
<glyph glyph-name="b" unicode="b" horiz-adv-x="807" d="M752 640 Q752 574 719.5 521 Q687 468 634 437 Q687 407 719.5 353.5 Q752 300 752 234 Q752 186 733.5 143 Q715 100 683 68.5 Q651 37 608.5 18.5 Q566 0 517 0 L95 0 L95 875 L517 875 Q566 875 608.5 856.5 Q651 838 683 806 Q715 774 733.5 731.5 Q752 689 752 640 Z M671 236 Q671 269 658.5 298.5 Q646 328 624 350 Q602 372 572.5 385 Q543 398 510 398 L203 396 Q192 396 185 389 Q178 382 178 371 L178 101 Q178 90 185 83 Q192 76 203 76 L510 76 Q543 76 572.5 88.5 Q602 101 624 123 Q646 145 658.5 174 Q671 203 671 236 Z M510 477 Q543 477 572.5 490 Q602 503 623.5 524.5 Q645 546 657.5 575.5 Q670 605 670 638 Q670 671 657.5 700.5 Q645 730 623.5 752 Q602 774 572.5 786.5 Q543 799 510 799 L203 799 Q192 799 185 791.5 Q178 784 178 773 L178 503 Q178 492 185 485 Q192 478 203 478 L510 477 Z " />
<glyph glyph-name="f" unicode="f" horiz-adv-x="751" d="M178 505 Q178 493 186 485 Q194 477 205 477 L711 477 L711 397 L205 397 Q194 397 186 389 Q178 381 178 370 L178 0 L95 0 L95 875 L711 874 L711 795 L205 795 Q194 795 186 787 Q178 779 178 767 L178 505 Z " />
<glyph glyph-name="m" unicode="m" horiz-adv-x="1074" d="M897 875 L979 875 L979 0 L897 0 L897 762 L537 402 L178 762 L178 0 L95 0 L95 875 L178 875 L517 535 Q525 527 537 527 Q549 527 557 535 L897 875 Z " />
<glyph glyph-name="p" unicode="p" horiz-adv-x="795" d="M502 475 Q536 475 566.5 487.5 Q597 500 620 521.5 Q643 543 656.5 572.5 Q670 602 670 637 Q670 670 657.5 699 Q645 728 623 750 Q601 772 572 784.5 Q543 797 510 797 L203 797 Q192 797 185 789.5 Q178 782 178 771 L178 503 Q178 492 186 483.5 Q194 475 205 475 L502 475 Z M505 875 Q554 875 599 856.5 Q644 838 678 806 Q712 774 732 730.5 Q752 687 752 637 Q752 588 733 544.5 Q714 501 682 469 Q650 437 606.5 418 Q563 399 514 399 L205 399 Q194 399 186 390.5 Q178 382 178 371 L178 0 L95 0 L95 875 L505 875 Z " />
<glyph glyph-name="v" unicode="v" horiz-adv-x="935" d="M468 98 L817 875 L905 875 L512 0 L423 0 L30 875 L119 875 L468 98 Z " />
<glyph glyph-name="caron" unicode="&#x2c7;" horiz-adv-x="396" d="M342 1196 L394 1144 L198 948 L2 1144 L54 1196 L170 1080 Q181 1069 197.5 1069 Q214 1069 225 1080 L283 1138 Q305 1160 323 1178 Q341 1196 342 1196 Z " />
<glyph glyph-name="Ccaron" unicode="&#x10c;" horiz-adv-x="847" d="M489 792 Q416 792 351 764 Q286 736 237.5 688 Q189 640 161 575.5 Q133 511 133 438 Q133 365 160.5 300.5 Q188 236 236 187.5 Q284 139 348.5 111 Q413 83 486 83 Q557 83 622 109.5 Q687 136 738 187 L797 128 Q735 66 654.5 33 Q574 0 487 0 Q397 0 317 34.5 Q237 69 178 128.5 Q119 188 84.5 268 Q50 348 50 438 Q50 528 84.5 608 Q119 688 178 747 Q237 806 317 840.5 Q397 875 487 875 Q574 875 654.5 842 Q735 809 797 747 L738 689 Q688 739 624 765.5 Q560 792 489 792 Z M572 1196 L624 1144 L428 948 L232 1144 L284 1196 L400 1080 Q411 1069 427.5 1069 Q444 1069 455 1080 L513 1138 Q535 1160 553 1178 Q571 1196 572 1196 Z " />
<glyph glyph-name="Ccedilla" unicode="&#xc7;" horiz-adv-x="847" d="M489 792 Q416 792 351 764 Q286 736 237.5 688 Q189 640 161 575.5 Q133 511 133 438 Q133 365 160.5 300.5 Q188 236 236 187.5 Q284 139 348.5 111 Q413 83 486 83 Q557 83 622 109.5 Q687 136 738 187 L797 128 Q744 75 678 43.5 Q612 12 539 4 Q549 -7 557 -17 Q565 -27 573 -38 Q593 -61 598 -91 Q603 -121 594 -150 Q585 -180 562 -201 Q536 -225 501.5 -229.5 Q467 -234 436 -221.5 Q405 -209 383.5 -180.5 Q362 -152 362 -111 L426 -111 Q426 -130 436.5 -143 Q447 -156 462 -161.5 Q477 -167 494 -164.5 Q511 -162 523 -150 Q540 -133 540 -110 Q540 -87 523 -70 L451 2 Q367 8 294 45 Q221 82 167 140.5 Q113 199 81.5 275.5 Q50 352 50 438 Q50 528 84.5 608 Q119 688 178 747 Q237 806 317 840.5 Q397 875 487 875 Q574 875 654.5 842 Q735 809 797 747 L738 689 Q688 739 624 765.5 Q560 792 489 792 Z " />
<glyph glyph-name="Dcaron" unicode="&#x10e;" horiz-adv-x="883" d="M381 875 Q471 875 551 840.5 Q631 806 690 746.5 Q749 687 783.5 607 Q818 527 818 437 Q818 347 783.5 267 Q749 187 690 128 Q631 69 551 34.5 Q471 0 381 0 L95 0 L95 875 L381 875 Z M735 435 Q735 504 708.5 568.5 Q682 633 635.5 682.5 Q589 732 526.5 762 Q464 792 392 792 L203 792 Q192 792 185 784.5 Q178 777 178 766 L178 108 Q178 97 185 90 Q192 83 203 83 L392 83 Q462 83 524.5 112.5 Q587 142 633.5 190.5 Q680 239 707.5 302.5 Q735 366 735 435 Z M581 1196 L633 1144 L437 948 L241 1144 L293 1196 L409 1080 Q420 1069 436.5 1069 Q453 1069 464 1080 L522 1138 Q544 1160 562 1178 Q580 1196 581 1196 Z " />
<glyph glyph-name="Eacute" unicode="&#xc9;" horiz-adv-x="776" d="M178 505 Q178 493 186 485 Q194 477 205 477 L711 477 L711 397 L205 397 Q194 397 186 389 Q178 381 178 370 L178 107 Q178 96 186 88 Q194 80 205 80 L711 80 L711 0 L95 0 L95 875 L711 874 L711 795 L205 795 Q194 795 186 786.5 Q178 778 178 767 L178 505 Z M340 1006 L270 1006 L443 1282 L514 1235 L340 1006 Z " />
<glyph glyph-name="Ebreve" unicode="&#x114;" horiz-adv-x="776" d="M178 505 Q178 493 186 485 Q194 477 205 477 L711 477 L711 397 L298 397 Q283 397 262 398.5 Q241 400 222.5 398.5 Q204 397 191 391 Q178 385 178 370 L178 107 Q178 96 186 88 Q194 80 205 80 L711 80 L711 0 L95 0 L95 875 Q250 875 403 874.5 Q556 874 711 874 L711 795 L205 795 Q194 795 186 786.5 Q178 778 178 767 L178 505 Z M448 1130 L524 1130 Q524 1102 513.5 1077 Q503 1052 484.5 1033.5 Q466 1015 441 1004.5 Q416 994 388 994 Q360 994 335 1004.5 Q310 1015 291.5 1033.5 Q273 1052 262.5 1077 Q252 1102 252 1130 L328 1130 Q328 1105 345.5 1087.5 Q363 1070 387 1069 Q413 1069 430.5 1087 Q448 1105 448 1130 Z " />
<glyph glyph-name="Ecaron" unicode="&#x11a;" horiz-adv-x="776" d="M178 505 Q178 493 186 485 Q194 477 205 477 L711 477 L711 397 L205 397 Q194 397 186 389 Q178 381 178 370 L178 107 Q178 96 186 88 Q194 80 205 80 L711 80 L711 0 L95 0 L95 875 L711 874 L711 795 L205 795 Q194 795 186 786.5 Q178 778 178 767 L178 505 Z M532 1196 L584 1144 L388 948 L192 1144 L244 1196 L360 1080 Q371 1069 387.5 1069 Q404 1069 415 1080 L473 1138 Q495 1160 513 1178 Q531 1196 532 1196 Z " />
<glyph glyph-name="Ecircumflex" unicode="&#xca;" horiz-adv-x="776" d="M178 505 Q178 493 186 485 Q194 477 205 477 L711 477 L711 397 L205 397 Q194 397 186 389 Q178 381 178 370 L178 107 Q178 96 186 88 Q194 80 205 80 L711 80 L711 0 L95 0 L95 875 L711 874 L711 795 L205 795 Q194 795 186 786.5 Q178 778 178 767 L178 505 Z M531 948 L415 1064 Q404 1075 387.5 1075 Q371 1075 360 1064 L244 948 L192 1000 L388 1196 L584 1000 L532 948 L531 948 Z " />
<glyph glyph-name="Edieresis" unicode="&#xcb;" horiz-adv-x="776" d="M178 505 Q178 493 186 485 Q194 477 205 477 L711 477 L711 397 L205 397 Q194 397 186 389 Q178 381 178 370 L178 107 Q178 96 186 88 Q194 80 205 80 L711 80 L711 0 L95 0 L95 875 L711 874 L711 795 L205 795 Q194 795 186 786.5 Q178 778 178 767 L178 505 Z M559 1055 Q559 1032 542.5 1015.5 Q526 999 503 999 Q480 999 463.5 1015.5 Q447 1032 447 1055 Q447 1078 463.5 1094.5 Q480 1111 503 1111 Q526 1111 542.5 1094.5 Q559 1078 559 1055 Z M328 1055 Q328 1032 311.5 1015.5 Q295 999 272 999 Q249 999 232.5 1015.5 Q216 1032 216 1055 Q216 1078 232.5 1094.5 Q249 1111 272 1111 Q295 1111 311.5 1094.5 Q328 1078 328 1055 Z " />
<glyph glyph-name="Edotaccent" unicode="&#x116;" horiz-adv-x="776" d="M178 505 Q178 493 186 485 Q194 477 205 477 L711 477 L711 397 L205 397 Q194 397 186 389 Q178 381 178 370 L178 107 Q178 96 186 88 Q194 80 205 80 L711 80 L711 0 L95 0 L95 875 L711 874 L711 795 L205 795 Q194 795 186 786.5 Q178 778 178 767 L178 505 Z M444 1025 Q444 1002 427.5 985.5 Q411 969 388 969 Q365 969 348.5 985.5 Q332 1002 332 1025 Q332 1048 348.5 1064.5 Q365 1081 388 1081 Q411 1081 427.5 1064.5 Q444 1048 444 1025 Z " />
<glyph glyph-name="Egrave" unicode="&#xc8;" horiz-adv-x="776" d="M178 505 Q178 493 186 485 Q194 477 205 477 L711 477 L711 397 L205 397 Q194 397 186 389 Q178 381 178 370 L178 107 Q178 96 186 88 Q194 80 205 80 L711 80 L711 0 L95 0 L95 875 L711 874 L711 795 L205 795 Q194 795 186 786.5 Q178 778 178 767 L178 505 Z M254 1236 L327 1285 L502 1006 L429 1006 L254 1236 Z " />
<glyph glyph-name="Emacron" unicode="&#x112;" horiz-adv-x="776" d="M178 505 Q178 493 186 485 Q194 477 205 477 L711 477 L711 397 L205 397 Q194 397 186 389 Q178 381 178 370 L178 107 Q178 96 186 88 Q194 80 205 80 L711 80 L711 0 L95 0 L95 875 L711 874 L711 795 L205 795 Q194 795 186 786.5 Q178 778 178 767 L178 505 Z M206 1052 L206 1130 L569 1130 L569 1052 L206 1052 Z " />
<glyph glyph-name="Eogonek" unicode="&#x118;" horiz-adv-x="776" d="M711 -195 Q663 -243 599 -243 Q567 -243 538.5 -230.5 Q510 -218 489 -197 Q468 -176 455.5 -147.5 Q443 -119 443 -87 Q443 -37 471 0 L95 0 L95 875 L711 874 L711 795 L205 795 Q194 795 186 786.5 Q178 778 178 767 L178 505 Q178 493 186 485 Q194 477 205 477 L711 477 L711 397 L205 397 Q194 397 186 389 Q178 381 178 370 L178 107 Q178 96 186 88 Q194 80 205 80 L711 80 L711 0 L600 0 Q563 0 538 -25 Q513 -50 513 -86 Q513 -121 538 -146 Q563 -171 598 -171 Q615 -171 631.5 -164 Q648 -157 660 -145 L711 -195 Z " />
<glyph glyph-name="Hcircumflex" unicode="&#x124;" horiz-adv-x="942" d="M765 505 L765 875 L847 875 L847 0 L765 0 L765 370 Q765 381 757 389.5 Q749 398 738 398 L204 398 Q193 398 185 389.5 Q177 381 177 370 L177 0 L95 0 L95 875 L177 875 L177 505 Q177 494 185 485.5 Q193 477 204 477 L738 477 Q749 477 757 485.5 Q765 494 765 505 Z M614 948 L498 1064 Q487 1075 470.5 1075 Q454 1075 443 1064 L327 948 L275 1000 L471 1196 L667 1000 L615 948 L614 948 Z " />
<glyph glyph-name="Iacute" unicode="&#xcd;" horiz-adv-x="342" d="M130 0 L130 875 L212 875 L212 0 L130 0 Z M131 1006 L61 1006 L234 1282 L305 1235 L131 1006 Z " />
<glyph glyph-name="Ibreve" unicode="&#x12c;" horiz-adv-x="342" d="M130 0 L130 875 L212 875 L212 0 L130 0 Z M172 1069 Q196 1070 213.5 1087.5 Q231 1105 231 1130 L307 1130 Q307 1102 296.5 1077 Q286 1052 267.5 1033.5 Q249 1015 224 1004.5 Q199 994 171 994 Q143 994 118 1004.5 Q93 1015 74.5 1033.5 Q56 1052 45.5 1077 Q35 1102 35 1130 L111 1130 Q111 1105 128.5 1087 Q146 1069 172 1069 Z " />
<glyph glyph-name="Icircumflex" unicode="&#xce;" horiz-adv-x="342" d="M130 0 L130 875 L212 875 L212 0 L130 0 Z M314 948 L198 1064 Q187 1075 170.5 1075 Q154 1075 143 1064 L27 948 L-25 1000 L171 1196 L367 1000 L315 948 L314 948 Z " />
<glyph glyph-name="Idieresis" unicode="&#xcf;" horiz-adv-x="342" d="M130 0 L130 875 L212 875 L212 0 L130 0 Z M111 1055 Q111 1032 94.5 1015.5 Q78 999 55 999 Q32 999 15.5 1015.5 Q-1 1032 -1 1055 Q-1 1078 15.5 1094.5 Q32 1111 55 1111 Q78 1111 94.5 1094.5 Q111 1078 111 1055 Z M342 1055 Q342 1032 325.5 1015.5 Q309 999 286 999 Q263 999 246.5 1015.5 Q230 1032 230 1055 Q230 1078 246.5 1094.5 Q263 1111 286 1111 Q309 1111 325.5 1094.5 Q342 1078 342 1055 Z " />
<glyph glyph-name="Idotaccent" unicode="&#x130;" horiz-adv-x="342" d="M130 0 L130 875 L212 875 L212 0 L130 0 Z M227 1025 Q227 1002 210.5 985.5 Q194 969 171 969 Q148 969 131.5 985.5 Q115 1002 115 1025 Q115 1048 131.5 1064.5 Q148 1081 171 1081 Q194 1081 210.5 1064.5 Q227 1048 227 1025 Z " />
<glyph glyph-name="Igrave" unicode="&#xcc;" horiz-adv-x="342" d="M130 0 L130 875 L212 875 L212 0 L130 0 Z M35 1236 L108 1285 L283 1006 L210 1006 L35 1236 Z " />
<glyph glyph-name="Imacron" unicode="&#x12a;" horiz-adv-x="342" d="M130 0 L130 875 L212 875 L212 0 L130 0 Z M-10 1052 L-10 1130 L353 1130 L353 1052 L-10 1052 Z " />
<glyph glyph-name="Iogonek" unicode="&#x12e;" horiz-adv-x="342" d="M247 -195 Q199 -243 135 -243 Q103 -243 74.5 -230.5 Q46 -218 25 -197 Q4 -176 -8.5 -147.5 Q-21 -119 -21 -87 Q-21 -56 -9 -28 Q3 0 23 21 Q43 42 70.5 54 Q98 66 130 67 L130 875 L212 875 L212 0 L136 0 Q99 0 74 -25 Q49 -50 49 -86 Q49 -121 74 -146 Q99 -171 134 -171 Q170 -171 196 -145 L247 -195 Z " />
<glyph glyph-name="Itilde" unicode="&#x128;" horiz-adv-x="342" d="M130 0 L130 875 L212 875 L212 0 L130 0 Z M-24 1119 Q8 1153 40.5 1156.5 Q73 1160 106 1148.5 Q139 1137 171 1118.5 Q203 1100 235.5 1088.5 Q268 1077 300.5 1080.5 Q333 1084 366 1118 L366 1039 Q333 1005 301 1001.5 Q269 998 236.5 1009.5 Q204 1021 171 1039.5 Q138 1058 106 1069.5 Q74 1081 41 1077.5 Q8 1074 -24 1040 L-24 1119 Z " />
<glyph glyph-name="Kcommaaccent" unicode="&#x136;" horiz-adv-x="842" d="M802 875 L416 438 L802 0 L696 0 L356 384 Q345 398 327 398 L204 398 Q193 398 185 389.5 Q177 381 177 370 L177 0 L95 0 L95 875 L177 875 L177 505 Q177 494 185 485.5 Q193 477 204 477 L326 477 Q344 477 356 491 L695 875 L802 875 Z M379 -142 L463 -142 L440 -423 L379 -423 L379 -142 Z " />
<glyph glyph-name="Lcaron" unicode="&#x13d;" horiz-adv-x="712" d="M178 875 L178 123 Q178 103 189 91.5 Q200 80 220 80 L677 80 L677 0 L95 0 L95 875 L178 875 Z M516 787 L599 787 L577 506 L516 506 L516 787 Z " />
<glyph glyph-name="AEacute" unicode="&#x1fc;" horiz-adv-x="1074" d="M1009 874 L1009 795 L584 795 Q573 795 565 786.5 Q557 778 557 767 L557 505 Q557 493 565 485 Q573 477 584 477 L1009 477 L1009 397 L584 397 Q573 397 565 389 Q557 381 557 370 L557 107 Q557 96 565 88 Q573 80 584 80 L1009 80 L1009 0 L475 0 L475 325 L295 325 Q281 325 269 317.5 Q257 310 252 297 L118 0 L30 0 L423 875 L574 875 L1009 874 Z M475 401 L475 795 L299 401 L475 401 Z M627 1006 L557 1006 L730 1282 L801 1235 L627 1006 Z " />
<glyph glyph-name="Dcroat" unicode="&#x110;" horiz-adv-x="883" d="M-40 390 L-40 468 L95 468 L95 875 L381 875 Q471 875 551 840.5 Q631 806 690 746.5 Q749 687 783.5 607 Q818 527 818 437 Q818 347 783.5 267 Q749 187 690 128 Q631 69 551 34.5 Q471 0 381 0 L95 0 L95 390 L-40 390 Z M735 435 Q735 504 708.5 568.5 Q682 633 635.5 682.5 Q589 732 526.5 762 Q464 792 392 792 L203 792 Q192 792 185 784.5 Q178 777 178 766 L178 468 L323 468 L323 390 L178 390 L178 108 Q178 97 185 90 Q192 83 203 83 L392 83 Q462 83 524.5 112.5 Q587 142 633.5 190.5 Q680 239 707.5 302.5 Q735 366 735 435 Z " />
<glyph glyph-name="Gbreve" unicode="&#x11e;" horiz-adv-x="1023" d="M496 445 L938 445 L938 0 L859 0 L859 198 Q831 153 792.5 116.5 Q754 80 707.5 54 Q661 28 607.5 14 Q554 0 497 0 Q407 0 327 34 Q247 68 188 127.5 Q129 187 94.5 266.5 Q60 346 60 437 Q60 527 94.5 607 Q129 687 188 746 Q247 805 327 839.5 Q407 874 497 874 Q588 874 667 840 Q746 806 806 746 L747 687 Q699 735 634.5 763 Q570 791 497 791 Q423 791 358.5 763 Q294 735 246 687 Q198 639 170.5 574.5 Q143 510 143 437 Q143 363 170.5 298 Q198 233 246.5 184 Q295 135 360.5 107 Q426 79 502 80 Q568 80 626.5 102.5 Q685 125 731 163.5 Q777 202 807.5 254.5 Q838 307 849 367 L496 367 L496 445 Z M572 1130 L648 1130 Q648 1102 637.5 1077 Q627 1052 608 1033.5 Q589 1015 564 1004.5 Q539 994 511 994 Q483 994 458 1004.5 Q433 1015 414.5 1033.5 Q396 1052 385.5 1077 Q375 1102 375 1130 L451 1130 Q451 1105 469 1087 Q487 1069 512 1069 Q537 1070 554.5 1087.5 Q572 1105 572 1130 Z " />
<glyph glyph-name="Gcircumflex" unicode="&#x11c;" horiz-adv-x="1023" d="M496 445 L938 445 L938 0 L859 0 L859 198 Q831 153 792.5 116.5 Q754 80 707.5 54 Q661 28 607.5 14 Q554 0 497 0 Q407 0 327 34 Q247 68 188 127.5 Q129 187 94.5 266.5 Q60 346 60 437 Q60 527 94.5 607 Q129 687 188 746 Q247 805 327 839.5 Q407 874 497 874 Q588 874 667 840 Q746 806 806 746 L747 687 Q699 735 634.5 763 Q570 791 497 791 Q423 791 358.5 763 Q294 735 246 687 Q198 639 170.5 574.5 Q143 510 143 437 Q143 363 170.5 298 Q198 233 246.5 184 Q295 135 360.5 107 Q426 79 502 80 Q568 80 626.5 102.5 Q685 125 731 163.5 Q777 202 807.5 254.5 Q838 307 849 367 L496 367 L496 445 Z M654 948 L564 1039 Q556 1047 546.5 1056 Q537 1065 526.5 1070.5 Q516 1076 505 1075.5 Q494 1075 483 1064 L367 948 L315 1000 L511 1196 L707 1000 L655 948 L654 948 Z " />
<glyph glyph-name="Gcommaaccent" unicode="&#x122;" horiz-adv-x="1023" d="M496 445 L938 445 L938 0 L859 0 L859 198 Q831 153 792.5 116.5 Q754 80 707.5 54 Q661 28 607.5 14 Q554 0 497 0 Q407 0 327 34 Q247 68 188 127.5 Q129 187 94.5 266.5 Q60 346 60 437 Q60 527 94.5 607 Q129 687 188 746 Q247 805 327 839.5 Q407 874 497 874 Q588 874 667 840 Q746 806 806 746 L747 687 Q699 735 634.5 763 Q570 791 497 791 Q423 791 358.5 763 Q294 735 246 687 Q198 639 170.5 574.5 Q143 510 143 437 Q143 363 170.5 298 Q198 233 246.5 184 Q295 135 360.5 107 Q426 79 502 80 Q568 80 626.5 102.5 Q685 125 731 163.5 Q777 202 807.5 254.5 Q838 307 849 367 L496 367 L496 445 Z M470 -142 L553 -142 L531 -423 L470 -423 L470 -142 Z " />
<glyph glyph-name="Gdotaccent" unicode="&#x120;" horiz-adv-x="1023" d="M496 445 L938 445 L938 0 L859 0 L859 198 Q831 153 792.5 116.5 Q754 80 707.5 54 Q661 28 607.5 14 Q554 0 497 0 Q407 0 327 34 Q247 68 188 127.5 Q129 187 94.5 266.5 Q60 346 60 437 Q60 527 94.5 607 Q129 687 188 746 Q247 805 327 839.5 Q407 874 497 874 Q588 874 667 840 Q746 806 806 746 L747 687 Q699 735 634.5 763 Q570 791 497 791 Q423 791 358.5 763 Q294 735 246 687 Q198 639 170.5 574.5 Q143 510 143 437 Q143 363 170.5 298 Q198 233 246.5 184 Q295 135 360.5 107 Q426 79 502 80 Q568 80 626.5 102.5 Q685 125 731 163.5 Q777 202 807.5 254.5 Q838 307 849 367 L496 367 L496 445 Z M567 1025 Q567 1002 550.5 985.5 Q534 969 511 969 Q488 969 472 985.5 Q456 1002 456 1025 Q456 1048 472 1064.5 Q488 1081 511 1081 Q534 1081 550.5 1064.5 Q567 1048 567 1025 Z " />
<glyph glyph-name="Nacute" unicode="&#x143;" horiz-adv-x="979" d="M802 130 L802 875 L884 875 L884 0 L809 0 L178 752 L178 0 L95 0 L95 875 L171 875 L802 130 Z M517 1006 L447 1006 L620 1282 L691 1235 L517 1006 Z " />
<glyph glyph-name="Ncaron" unicode="&#x147;" horiz-adv-x="979" d="M802 130 L802 875 L884 875 L884 0 L809 0 L178 752 L178 0 L95 0 L95 875 L171 875 L802 130 Z M633 1196 L685 1144 L489 948 L293 1144 L345 1196 L461 1080 Q472 1069 488.5 1069 Q505 1069 516 1080 L574 1138 Q596 1160 614 1178 Q632 1196 633 1196 Z " />
<glyph glyph-name="Ncommaaccent" unicode="&#x145;" horiz-adv-x="979" d="M802 130 L802 875 L884 875 L884 0 L809 0 L178 752 L178 0 L95 0 L95 875 L171 875 L802 130 Z M448 -142 L531 -142 L509 -423 L448 -423 L448 -142 Z " />
<glyph glyph-name="Ntilde" unicode="&#xd1;" horiz-adv-x="979" d="M802 130 L802 875 L884 875 L884 0 L809 0 L178 752 L178 0 L95 0 L95 875 L171 875 L802 130 Z M294 1119 Q326 1153 359 1156.5 Q392 1160 424 1148.5 Q456 1137 488.5 1118.5 Q521 1100 553.5 1088.5 Q586 1077 618.5 1080.5 Q651 1084 684 1118 L684 1039 Q651 1005 619 1001.5 Q587 998 554.5 1009.5 Q522 1021 489 1039.5 Q456 1058 424 1069.5 Q392 1081 359 1077.5 Q326 1074 294 1040 L294 1119 Z " />
<glyph glyph-name="Oacute" unicode="&#xd3;" horiz-adv-x="994" d="M497 82 Q570 82 635 110 Q700 138 748 186 Q796 234 824 298.5 Q852 363 852 437 Q852 510 824 574.5 Q796 639 748 687 Q700 735 635 763 Q570 791 497 791 Q423 791 358.5 763 Q294 735 246 687 Q198 639 170.5 574.5 Q143 510 143 437 Q143 363 170.5 298.5 Q198 234 246 186 Q294 138 358.5 110 Q423 82 497 82 Z M497 874 Q588 874 667.5 839.5 Q747 805 806 746 Q865 687 899.5 607 Q934 527 934 437 Q934 346 899.5 266.5 Q865 187 806 127.5 Q747 68 667.5 34 Q588 0 497 0 Q407 0 327 34 Q247 68 188 127.5 Q129 187 94.5 266.5 Q60 346 60 437 Q60 527 94.5 607 Q129 687 188 746 Q247 805 327 839.5 Q407 874 497 874 Z M525 1006 L455 1006 L628 1282 L699 1235 L525 1006 Z " />
<glyph glyph-name="Obreve" unicode="&#x14e;" horiz-adv-x="994" d="M497 874 Q588 874 667.5 839.5 Q747 805 806 746 Q865 687 899.5 607 Q934 527 934 437 Q934 346 899.5 266.5 Q865 187 806 127.5 Q747 68 667.5 34 Q588 0 497 0 Q407 0 327 34 Q247 68 188 127.5 Q129 187 94.5 266.5 Q60 346 60 437 Q60 527 94.5 607 Q129 687 188 746 Q247 805 327 839.5 Q407 874 497 874 Z M497 82 Q570 82 635 110 Q700 138 748 186 Q796 234 824 298.5 Q852 363 852 437 Q852 510 824 574.5 Q796 639 748 687 Q700 735 635 763 Q570 791 497 791 Q423 791 358.5 763 Q294 735 246 687 Q198 639 170.5 574.5 Q143 510 143 437 Q143 363 170.5 298.5 Q198 234 246 186 Q294 138 358.5 110 Q423 82 497 82 Z M557 1130 L633 1130 Q633 1102 622.5 1077 Q612 1052 593.5 1033.5 Q575 1015 550 1004.5 Q525 994 497 994 Q469 994 444 1004.5 Q419 1015 400.5 1033.5 Q382 1052 371.5 1077 Q361 1102 361 1130 L437 1130 Q437 1105 454.5 1087 Q472 1069 498 1069 Q523 1070 540 1087.5 Q557 1105 557 1130 Z " />
<glyph glyph-name="Ocircumflex" unicode="&#xd4;" horiz-adv-x="994" d="M497 874 Q588 874 667.5 839.5 Q747 805 806 746 Q865 687 899.5 607 Q934 527 934 437 Q934 346 899.5 266.5 Q865 187 806 127.5 Q747 68 667.5 34 Q588 0 497 0 Q407 0 327 34 Q247 68 188 127.5 Q129 187 94.5 266.5 Q60 346 60 437 Q60 527 94.5 607 Q129 687 188 746 Q247 805 327 839.5 Q407 874 497 874 Z M497 82 Q570 82 635 110 Q700 138 748 186 Q796 234 824 298.5 Q852 363 852 437 Q852 510 824 574.5 Q796 639 748 687 Q700 735 635 763 Q570 791 497 791 Q423 791 358.5 763 Q294 735 246 687 Q198 639 170.5 574.5 Q143 510 143 437 Q143 363 170.5 298.5 Q198 234 246 186 Q294 138 358.5 110 Q423 82 497 82 Z M640 948 L524 1064 Q513 1075 496.5 1075 Q480 1075 469 1064 L353 948 L301 1000 L497 1196 L693 1000 L641 948 L640 948 Z " />
<glyph glyph-name="Odieresis" unicode="&#xd6;" horiz-adv-x="994" d="M497 82 Q570 82 635 110 Q700 138 748 186 Q796 234 824 298.5 Q852 363 852 437 Q852 510 824 574.5 Q796 639 748 687 Q700 735 635 763 Q570 791 497 791 Q423 791 358.5 763 Q294 735 246 687 Q198 639 170.5 574.5 Q143 510 143 437 Q143 363 170.5 298.5 Q198 234 246 186 Q294 138 358.5 110 Q423 82 497 82 Z M497 874 Q588 874 667.5 839.5 Q747 805 806 746 Q865 687 899.5 607 Q934 527 934 437 Q934 346 899.5 266.5 Q865 187 806 127.5 Q747 68 667.5 34 Q588 0 497 0 Q407 0 327 34 Q247 68 188 127.5 Q129 187 94.5 266.5 Q60 346 60 437 Q60 527 94.5 607 Q129 687 188 746 Q247 805 327 839.5 Q407 874 497 874 Z M668 1055 Q668 1032 651.5 1015.5 Q635 999 612 999 Q589 999 572.5 1015.5 Q556 1032 556 1055 Q556 1078 572.5 1094.5 Q589 1111 612 1111 Q635 1111 651.5 1094.5 Q668 1078 668 1055 Z M437 1055 Q437 1032 420.5 1015.5 Q404 999 381 999 Q358 999 341.5 1015.5 Q325 1032 325 1055 Q325 1078 341.5 1094.5 Q358 1111 381 1111 Q404 1111 420.5 1094.5 Q437 1078 437 1055 Z " />
<glyph glyph-name="Ograve" unicode="&#xd2;" horiz-adv-x="994" d="M497 82 Q570 82 635 110 Q700 138 748 186 Q796 234 824 298.5 Q852 363 852 437 Q852 510 824 574.5 Q796 639 748 687 Q700 735 635 763 Q570 791 497 791 Q423 791 358.5 763 Q294 735 246 687 Q198 639 170.5 574.5 Q143 510 143 437 Q143 363 170.5 298.5 Q198 234 246 186 Q294 138 358.5 110 Q423 82 497 82 Z M497 874 Q588 874 667.5 839.5 Q747 805 806 746 Q865 687 899.5 607 Q934 527 934 437 Q934 346 899.5 266.5 Q865 187 806 127.5 Q747 68 667.5 34 Q588 0 497 0 Q407 0 327 34 Q247 68 188 127.5 Q129 187 94.5 266.5 Q60 346 60 437 Q60 527 94.5 607 Q129 687 188 746 Q247 805 327 839.5 Q407 874 497 874 Z M293 1236 L366 1285 L541 1006 L468 1006 L293 1236 Z " />
<glyph glyph-name="hungarumlaut" unicode="&#x2dd;" horiz-adv-x="480" d="M150 1006 L80 1006 L253 1282 L324 1235 L150 1006 Z M386 1006 L316 1006 L489 1282 L560 1235 L386 1006 Z " />
<glyph glyph-name="Ohungarumlaut" unicode="&#x150;" horiz-adv-x="994" d="M497 82 Q570 82 635 110 Q700 138 748 186 Q796 234 824 298.5 Q852 363 852 437 Q852 510 824 574.5 Q796 639 748 687 Q700 735 635 763 Q570 791 497 791 Q423 791 358.5 763 Q294 735 246 687 Q198 639 170.5 574.5 Q143 510 143 437 Q143 363 170.5 298.5 Q198 234 246 186 Q294 138 358.5 110 Q423 82 497 82 Z M497 874 Q588 874 667.5 839.5 Q747 805 806 746 Q865 687 899.5 607 Q934 527 934 437 Q934 346 899.5 266.5 Q865 187 806 127.5 Q747 68 667.5 34 Q588 0 497 0 Q407 0 327 34 Q247 68 188 127.5 Q129 187 94.5 266.5 Q60 346 60 437 Q60 527 94.5 607 Q129 687 188 746 Q247 805 327 839.5 Q407 874 497 874 Z M407 1006 L337 1006 L510 1282 L581 1235 L407 1006 Z M643 1006 L573 1006 L746 1282 L817 1235 L643 1006 Z " />
<glyph glyph-name="Omacron" unicode="&#x14c;" horiz-adv-x="994" d="M497 874 Q588 874 667.5 839.5 Q747 805 806 746 Q865 687 899.5 607 Q934 527 934 437 Q934 346 899.5 266.5 Q865 187 806 127.5 Q747 68 667.5 34 Q588 0 497 0 Q407 0 327 34 Q247 68 188 127.5 Q129 187 94.5 266.5 Q60 346 60 437 Q60 527 94.5 607 Q129 687 188 746 Q247 805 327 839.5 Q407 874 497 874 Z M497 82 Q570 82 635 110 Q700 138 748 186 Q796 234 824 298.5 Q852 363 852 437 Q852 510 824 574.5 Q796 639 748 687 Q700 735 635 763 Q570 791 497 791 Q423 791 358.5 763 Q294 735 246 687 Q198 639 170.5 574.5 Q143 510 143 437 Q143 363 170.5 298.5 Q198 234 246 186 Q294 138 358.5 110 Q423 82 497 82 Z M315 1052 L315 1130 L678 1130 L678 1052 L315 1052 Z " />
<glyph glyph-name="backslash" unicode="&#x5c;" horiz-adv-x="470" d="M426 -203 L-30 1050 L44 1079 L500 -174 L426 -203 Z " />
<glyph glyph-name="Oslash" unicode="&#xd8;" horiz-adv-x="994" d="M250 -39 L288 53 Q237 81 195 121 Q153 161 123 210.5 Q93 260 76.5 317.5 Q60 375 60 437 Q60 527 94.5 607 Q129 687 188 746 Q247 805 327 839.5 Q407 874 497 874 Q561 874 623 854 L668 963 L734 940 L688 830 Q743 803 788 762.5 Q833 722 865.5 671 Q898 620 916 560.5 Q934 501 934 437 Q934 346 899.5 266.5 Q865 187 806 127.5 Q747 68 667.5 34 Q588 0 497 0 Q420 0 353 24 L317 -62 L250 -39 Z M497 82 Q570 82 635 110 Q700 138 748 186 Q796 234 824 298.5 Q852 363 852 437 Q852 489 837.5 536.5 Q823 584 797.5 625 Q772 666 735.5 698.5 Q699 731 656 752 L385 101 Q411 92 439 87 Q467 82 497 82 Z M143 437 Q143 387 156 341.5 Q169 296 192 257 Q215 218 248 185.5 Q281 153 320 131 L590 777 Q566 783 540.5 786.5 Q515 790 489 789 Q417 788 354 760 Q291 732 244 684.5 Q197 637 170 573 Q143 509 143 437 Z " />
<glyph glyph-name="Oslashacute" unicode="&#x1fe;" horiz-adv-x="994" d="M250 -39 L288 53 Q237 81 195 121 Q153 161 123 210.5 Q93 260 76.5 317.5 Q60 375 60 437 Q60 527 94.5 607 Q129 687 188 746 Q247 805 327 839.5 Q407 874 497 874 Q561 874 623 854 L668 963 L734 940 L688 830 Q743 803 788 762.5 Q833 722 865.5 671 Q898 620 916 560.5 Q934 501 934 437 Q934 346 899.5 266.5 Q865 187 806 127.5 Q747 68 667.5 34 Q588 0 497 0 Q420 0 353 24 L317 -62 L250 -39 Z M445 1006 L375 1006 L548 1282 L619 1235 L445 1006 Z M497 82 Q570 82 635 110 Q700 138 748 186 Q796 234 824 298.5 Q852 363 852 437 Q852 489 837.5 536.5 Q823 584 797.5 625 Q772 666 735.5 698.5 Q699 731 656 752 L385 101 Q411 92 439 87 Q467 82 497 82 Z M143 437 Q143 387 156 341.5 Q169 296 192 257 Q215 218 248 185.5 Q281 153 320 131 L590 777 Q566 783 540.5 786.5 Q515 790 489 789 Q417 788 354 760 Q291 732 244 684.5 Q197 637 170 573 Q143 509 143 437 Z " />
<glyph glyph-name="Otilde" unicode="&#xd5;" horiz-adv-x="994" d="M497 874 Q588 874 667.5 839.5 Q747 805 806 746 Q865 687 899.5 607 Q934 527 934 437 Q934 346 899.5 266.5 Q865 187 806 127.5 Q747 68 667.5 34 Q588 0 497 0 Q407 0 327 34 Q247 68 188 127.5 Q129 187 94.5 266.5 Q60 346 60 437 Q60 527 94.5 607 Q129 687 188 746 Q247 805 327 839.5 Q407 874 497 874 Z M497 82 Q570 82 635 110 Q700 138 748 186 Q796 234 824 298.5 Q852 363 852 437 Q852 510 824 574.5 Q796 639 748 687 Q700 735 635 763 Q570 791 497 791 Q423 791 358.5 763 Q294 735 246 687 Q198 639 170.5 574.5 Q143 510 143 437 Q143 363 170.5 298.5 Q198 234 246 186 Q294 138 358.5 110 Q423 82 497 82 Z M302 1119 Q334 1153 367 1156.5 Q400 1160 432 1148.5 Q464 1137 496.5 1118.5 Q529 1100 561.5 1088.5 Q594 1077 626.5 1080.5 Q659 1084 692 1118 L692 1039 Q659 1005 627 1001.5 Q595 998 562 1009.5 Q529 1021 496.5 1039.5 Q464 1058 432 1069.5 Q400 1081 367 1077.5 Q334 1074 302 1040 L302 1119 Z " />
<glyph glyph-name="Sacute" unicode="&#x15a;" horiz-adv-x="804" d="M136 640 Q136 589 162 558 Q188 527 231 509 Q274 491 328.5 481 Q383 471 439.5 462 Q496 453 550.5 440 Q605 427 648 402.5 Q691 378 717 338 Q743 298 743 234 Q743 165 710 120 Q677 75 626 48.5 Q575 22 514 11 Q453 0 398 0 Q360 0 319.5 4 Q279 8 240.5 18.5 Q202 29 167.5 46 Q133 63 107 89 Q81 115 66 151 Q51 187 51 234 L128 234 Q128 186 155.5 155.5 Q183 125 224 107.5 Q265 90 312 84 Q359 78 397 78 Q434 78 479.5 84 Q525 90 564.5 107.5 Q604 125 631 155.5 Q658 186 658 235 Q658 282 632 309.5 Q606 337 563.5 353 Q521 369 466.5 378 Q412 387 355 396 Q298 405 243.5 419.5 Q189 434 146.5 460.5 Q104 487 78 530 Q52 573 52 641 Q52 710 85 754.5 Q118 799 169 825.5 Q220 852 281 862.5 Q342 873 399 873 Q436 873 476.5 868 Q517 863 555 851.5 Q593 840 627 821.5 Q661 803 686.5 776 Q712 749 727 712.5 Q742 676 742 629 L665 629 Q665 677 638 709 Q611 741 570.5 760 Q530 779 483 787 Q436 795 398 795 Q361 795 315.5 789 Q270 783 230 766 Q190 749 163 718.5 Q136 688 136 640 Z M357 1006 L288 1006 L461 1282 L531 1235 L357 1006 Z " />
<glyph glyph-name="Scaron" unicode="&#x160;" horiz-adv-x="804" d="M136 640 Q136 589 162 558 Q188 527 231 509 Q274 491 328.5 481 Q383 471 439.5 462 Q496 453 550.5 440 Q605 427 648 402.5 Q691 378 717 338 Q743 298 743 234 Q743 165 710 120 Q677 75 626 48.5 Q575 22 514 11 Q453 0 398 0 Q360 0 319.5 4 Q279 8 240.5 18.5 Q202 29 167.5 46 Q133 63 107 89 Q81 115 66 151 Q51 187 51 234 L128 234 Q128 186 155.5 155.5 Q183 125 224 107.5 Q265 90 312 84 Q359 78 397 78 Q434 78 479.5 84 Q525 90 564.5 107.5 Q604 125 631 155.5 Q658 186 658 235 Q658 282 632 309.5 Q606 337 563.5 353 Q521 369 466.5 378 Q412 387 355 396 Q298 405 243.5 419.5 Q189 434 146.5 460.5 Q104 487 78 530 Q52 573 52 641 Q52 710 85 754.5 Q118 799 169 825.5 Q220 852 281 862.5 Q342 873 399 873 Q436 873 476.5 868 Q517 863 555 851.5 Q593 840 627 821.5 Q661 803 686.5 776 Q712 749 727 712.5 Q742 676 742 629 L665 629 Q665 677 638 709 Q611 741 570.5 760 Q530 779 483 787 Q436 795 398 795 Q361 795 315.5 789 Q270 783 230 766 Q190 749 163 718.5 Q136 688 136 640 Z M545 1196 L598 1144 L402 948 L205 1144 L257 1196 L373 1080 Q384 1069 400.5 1069 Q417 1069 428 1080 L486 1138 Q508 1160 526 1178 Q544 1196 545 1196 Z " />
<glyph glyph-name="Scedilla" unicode="&#x15e;" horiz-adv-x="804" d="M482 -30 Q499 -47 507.5 -69.5 Q516 -92 516 -116 Q516 -140 507 -162.5 Q498 -185 481 -202 Q463 -220 441 -228.5 Q419 -237 396 -237 Q373 -237 351 -228.5 Q329 -220 311 -202 Q293 -184 284 -161.5 Q275 -139 275 -116 L339 -116 Q339 -139 357 -155 Q373 -172 396.5 -172 Q420 -172 437 -155 Q453 -138 453 -115 Q453 -92 437 -75 L360 1 Q306 4 251 16 Q196 28 151.5 55 Q107 82 79 125.5 Q51 169 51 234 L128 234 Q128 186 155.5 155.5 Q183 125 224 107.5 Q265 90 312 84 Q359 78 397 78 Q434 78 479.5 84 Q525 90 564.5 107.5 Q604 125 631 155.5 Q658 186 658 235 Q658 282 632 309.5 Q606 337 563.5 353 Q521 369 466.5 378 Q412 387 355 396 Q298 405 243.5 419.5 Q189 434 146.5 460.5 Q104 487 78 530 Q52 573 52 641 Q52 710 85 754.5 Q118 799 169 825.5 Q220 852 281 862.5 Q342 873 399 873 Q436 873 476.5 868 Q517 863 555 851.5 Q593 840 627 821.5 Q661 803 686.5 776 Q712 749 727 712.5 Q742 676 742 629 L665 629 Q665 677 638 709 Q611 741 570.5 760 Q530 779 483 787 Q436 795 398 795 Q361 795 315.5 789 Q270 783 230 766 Q190 749 163 718.5 Q136 688 136 640 Q136 589 162 558 Q188 527 231 509 Q274 491 328.5 481 Q383 471 439.5 462 Q496 453 550.5 440 Q605 427 648 402.5 Q691 378 717 338 Q743 298 743 234 Q743 173 716.5 130.5 Q690 88 648 61 Q606 34 553.5 20 Q501 6 449 2 L482 -30 Z " />
<glyph glyph-name="Scircumflex" unicode="&#x15c;" horiz-adv-x="804" d="M136 640 Q136 589 162 558 Q188 527 231 509 Q274 491 328.5 481 Q383 471 439.5 462 Q496 453 550.5 440 Q605 427 648 402.5 Q691 378 717 338 Q743 298 743 234 Q743 165 710 120 Q677 75 626 48.5 Q575 22 514 11 Q453 0 398 0 Q360 0 319.5 4 Q279 8 240.5 18.5 Q202 29 167.5 46 Q133 63 107 89 Q81 115 66 151 Q51 187 51 234 L128 234 Q128 186 155.5 155.5 Q183 125 224 107.5 Q265 90 312 84 Q359 78 397 78 Q434 78 479.5 84 Q525 90 564.5 107.5 Q604 125 631 155.5 Q658 186 658 235 Q658 282 632 309.5 Q606 337 563.5 353 Q521 369 466.5 378 Q412 387 355 396 Q298 405 243.5 419.5 Q189 434 146.5 460.5 Q104 487 78 530 Q52 573 52 641 Q52 710 85 754.5 Q118 799 169 825.5 Q220 852 281 862.5 Q342 873 399 873 Q436 873 476.5 868 Q517 863 555 851.5 Q593 840 627 821.5 Q661 803 686.5 776 Q712 749 727 712.5 Q742 676 742 629 L665 629 Q665 677 638 709 Q611 741 570.5 760 Q530 779 483 787 Q436 795 398 795 Q361 795 315.5 789 Q270 783 230 766 Q190 749 163 718.5 Q136 688 136 640 Z M544 948 L428 1064 Q417 1075 400.5 1075 Q384 1075 373 1064 L257 948 L205 1000 L402 1196 L598 1000 L545 948 L544 948 Z " />
<glyph glyph-name="Scommaaccent" unicode="&#x218;" horiz-adv-x="804" d="M136 640 Q136 589 162 558 Q188 527 231 509 Q274 491 328.5 481 Q383 471 439.5 462 Q496 453 550.5 440 Q605 427 648 402.5 Q691 378 717 338 Q743 298 743 234 Q743 165 710 120 Q677 75 626 48.5 Q575 22 514 11 Q453 0 398 0 Q360 0 319.5 4 Q279 8 240.5 18.5 Q202 29 167.5 46 Q133 63 107 89 Q81 115 66 151 Q51 187 51 234 L128 234 Q128 186 155.5 155.5 Q183 125 224 107.5 Q265 90 312 84 Q359 78 397 78 Q434 78 479.5 84 Q525 90 564.5 107.5 Q604 125 631 155.5 Q658 186 658 235 Q658 282 632 309.5 Q606 337 563.5 353 Q521 369 466.5 378 Q412 387 355 396 Q298 405 243.5 419.5 Q189 434 146.5 460.5 Q104 487 78 530 Q52 573 52 641 Q52 710 85 754.5 Q118 799 169 825.5 Q220 852 281 862.5 Q342 873 399 873 Q436 873 476.5 868 Q517 863 555 851.5 Q593 840 627 821.5 Q661 803 686.5 776 Q712 749 727 712.5 Q742 676 742 629 L665 629 Q665 677 638 709 Q611 741 570.5 760 Q530 779 483 787 Q436 795 398 795 Q361 795 315.5 789 Q270 783 230 766 Q190 749 163 718.5 Q136 688 136 640 Z M361 -142 L443 -142 L421 -423 L361 -423 L361 -142 Z " />
<glyph glyph-name="Tbar" unicode="&#x166;" horiz-adv-x="787" d="M212 398 L212 476 L353 476 L353 758 Q353 775 341.5 786 Q330 797 313 797 L30 797 L30 875 L757 875 L757 797 L473 797 Q457 797 445.5 786 Q434 775 434 758 L434 476 L575 476 L575 398 L434 398 L434 0 L353 0 L353 398 L212 398 Z " />
<glyph glyph-name="Tcaron" unicode="&#x164;" horiz-adv-x="787" d="M30 797 L30 875 L757 875 L757 797 L473 797 Q457 797 445.5 786 Q434 775 434 758 L434 0 L353 0 L353 758 Q353 775 341.5 786 Q330 797 313 797 L30 797 Z M537 1196 L589 1144 L393 948 L197 1144 L249 1196 L365 1080 Q376 1069 392.5 1069 Q409 1069 420 1080 L478 1138 Q500 1160 518 1178 Q536 1196 537 1196 Z " />
<glyph glyph-name="Tcommaaccent" unicode="&#x162;" horiz-adv-x="787" d="M30 797 L30 875 L757 875 L757 797 L473 797 Q457 797 445.5 786 Q434 775 434 758 L434 0 L353 0 L353 758 Q353 775 341.5 786 Q330 797 313 797 L30 797 Z M352 -142 L435 -142 L413 -423 L352 -423 L352 -142 Z " />
<glyph glyph-name="Uacute" unicode="&#xda;" horiz-adv-x="886" d="M713 353 L713 874 L796 874 L796 353 Q796 280 768.5 215.5 Q741 151 693 103 Q645 55 580.5 27.5 Q516 0 443 0 Q370 0 305.5 27.5 Q241 55 193 103 Q145 151 117.5 215.5 Q90 280 90 353 L90 874 L173 874 L173 353 Q173 297 194 247.5 Q215 198 252 161.5 Q289 125 338 104 Q387 83 443 83 Q499 83 548.5 104 Q598 125 634.5 161.5 Q671 198 692 247.5 Q713 297 713 353 Z M399 1006 L329 1006 L502 1282 L573 1235 L399 1006 Z " />
<glyph glyph-name="Ubreve" unicode="&#x16c;" horiz-adv-x="886" d="M713 353 L713 874 L796 874 L796 353 Q796 280 768.5 215.5 Q741 151 693 103 Q645 55 580.5 27.5 Q516 0 443 0 Q370 0 305.5 27.5 Q241 55 193 103 Q145 151 117.5 215.5 Q90 280 90 353 L90 874 L173 874 L173 353 Q173 297 194 247.5 Q215 198 252 161.5 Q289 125 338 104 Q387 83 443 83 Q499 83 548.5 104 Q598 125 634.5 161.5 Q671 198 692 247.5 Q713 297 713 353 Z M503 1130 L579 1130 Q579 1102 568.5 1077 Q558 1052 539.5 1033.5 Q521 1015 496 1004.5 Q471 994 443 994 Q415 994 390 1004.5 Q365 1015 346.5 1033.5 Q328 1052 317.5 1077 Q307 1102 307 1130 L383 1130 Q383 1105 400.5 1087 Q418 1069 444 1069 Q469 1070 486 1087.5 Q503 1105 503 1130 Z " />
<glyph glyph-name="Ucircumflex" unicode="&#xdb;" horiz-adv-x="886" d="M713 353 L713 874 L796 874 L796 353 Q796 280 768.5 215.5 Q741 151 693 103 Q645 55 580.5 27.5 Q516 0 443 0 Q370 0 305.5 27.5 Q241 55 193 103 Q145 151 117.5 215.5 Q90 280 90 353 L90 874 L173 874 L173 353 Q173 297 194 247.5 Q215 198 252 161.5 Q289 125 338 104 Q387 83 443 83 Q499 83 548.5 104 Q598 125 634.5 161.5 Q671 198 692 247.5 Q713 297 713 353 Z M586 948 L470 1064 Q459 1075 442.5 1075 Q426 1075 415 1064 L299 948 L247 1000 L443 1196 L639 1000 L587 948 L586 948 Z " />
<glyph glyph-name="Udieresis" unicode="&#xdc;" horiz-adv-x="886" d="M713 353 L713 874 L796 874 L796 353 Q796 280 768.5 215.5 Q741 151 693 103 Q645 55 580.5 27.5 Q516 0 443 0 Q370 0 305.5 27.5 Q241 55 193 103 Q145 151 117.5 215.5 Q90 280 90 353 L90 874 L173 874 L173 353 Q173 297 194 247.5 Q215 198 252 161.5 Q289 125 338 104 Q387 83 443 83 Q499 83 548.5 104 Q598 125 634.5 161.5 Q671 198 692 247.5 Q713 297 713 353 Z M383 1055 Q383 1032 366.5 1015.5 Q350 999 327 999 Q304 999 287.5 1015.5 Q271 1032 271 1055 Q271 1078 287.5 1094.5 Q304 1111 327 1111 Q350 1111 366.5 1094.5 Q383 1078 383 1055 Z M614 1055 Q614 1032 597.5 1015.5 Q581 999 558 999 Q535 999 518.5 1015.5 Q502 1032 502 1055 Q502 1078 518.5 1094.5 Q535 1111 558 1111 Q581 1111 597.5 1094.5 Q614 1078 614 1055 Z " />
<glyph glyph-name="Ugrave" unicode="&#xd9;" horiz-adv-x="886" d="M713 353 L713 874 L796 874 L796 353 Q796 280 768.5 215.5 Q741 151 693 103 Q645 55 580.5 27.5 Q516 0 443 0 Q370 0 305.5 27.5 Q241 55 193 103 Q145 151 117.5 215.5 Q90 280 90 353 L90 874 L173 874 L173 353 Q173 297 194 247.5 Q215 198 252 161.5 Q289 125 338 104 Q387 83 443 83 Q499 83 548.5 104 Q598 125 634.5 161.5 Q671 198 692 247.5 Q713 297 713 353 Z M309 1236 L382 1285 L557 1006 L484 1006 L309 1236 Z " />
<glyph glyph-name="Uhungarumlaut" unicode="&#x170;" horiz-adv-x="886" d="M713 353 L713 874 L796 874 L796 353 Q796 280 768.5 215.5 Q741 151 693 103 Q645 55 580.5 27.5 Q516 0 443 0 Q370 0 305.5 27.5 Q241 55 193 103 Q145 151 117.5 215.5 Q90 280 90 353 L90 874 L173 874 L173 353 Q173 297 194 247.5 Q215 198 252 161.5 Q289 125 338 104 Q387 83 443 83 Q499 83 548.5 104 Q598 125 634.5 161.5 Q671 198 692 247.5 Q713 297 713 353 Z M562 1006 L492 1006 L665 1282 L736 1235 L562 1006 Z M326 1006 L256 1006 L429 1282 L500 1235 L326 1006 Z " />
<glyph glyph-name="Umacron" unicode="&#x16a;" horiz-adv-x="886" d="M713 353 L713 874 L796 874 L796 353 Q796 280 768.5 215.5 Q741 151 693 103 Q645 55 580.5 27.5 Q516 0 443 0 Q370 0 305.5 27.5 Q241 55 193 103 Q145 151 117.5 215.5 Q90 280 90 353 L90 874 L173 874 L173 353 Q173 297 194 247.5 Q215 198 252 161.5 Q289 125 338 104 Q387 83 443 83 Q499 83 548.5 104 Q598 125 634.5 161.5 Q671 198 692 247.5 Q713 297 713 353 Z M261 1052 L261 1130 L624 1130 L624 1052 L261 1052 Z " />
<glyph glyph-name="Uogonek" unicode="&#x172;" horiz-adv-x="886" d="M553 -195 Q505 -243 441 -243 Q409 -243 380.5 -230.5 Q352 -218 331 -197 Q310 -176 297.5 -147.5 Q285 -119 285 -87 Q285 -55 296.5 -28 Q308 -1 328 20 Q276 38 232.5 70 Q189 102 157.5 145.5 Q126 189 108 242 Q90 295 90 353 L90 874 L173 874 L173 353 Q173 297 194 247.5 Q215 198 252 161.5 Q289 125 338 104 Q387 83 443 83 Q499 83 548.5 104 Q598 125 634.5 162 Q671 199 692 248 Q713 297 713 353 L713 874 L796 874 L796 353 Q796 280 768 215.5 Q740 151 692 103 Q644 55 579.5 27.5 Q515 0 442 0 Q405 0 379.5 -25 Q354 -50 354 -86 Q354 -121 379 -146 Q404 -171 440 -171 Q457 -171 473 -164 Q489 -157 502 -145 L553 -195 Z " />
<glyph glyph-name="Uring" unicode="&#x16e;" horiz-adv-x="886" d="M713 353 L713 874 L796 874 L796 353 Q796 280 768.5 215.5 Q741 151 693 103 Q645 55 580.5 27.5 Q516 0 443 0 Q370 0 305.5 27.5 Q241 55 193 103 Q145 151 117.5 215.5 Q90 280 90 353 L90 874 L173 874 L173 353 Q173 297 194 247.5 Q215 198 252 161.5 Q289 125 338 104 Q387 83 443 83 Q499 83 548.5 104 Q598 125 634.5 161.5 Q671 198 692 247.5 Q713 297 713 353 Z M443 1214 Q468 1214 490.5 1204.5 Q513 1195 529.5 1178.5 Q546 1162 555.5 1140 Q565 1118 565 1093 Q565 1067 555.5 1045 Q546 1023 529.5 1006.5 Q513 990 490.5 980.5 Q468 971 443 971 Q418 971 395.5 980.5 Q373 990 356.5 1006.5 Q340 1023 330.5 1045 Q321 1067 321 1093 Q321 1118 330.5 1140 Q340 1162 356.5 1178.5 Q373 1195 395.5 1204.5 Q418 1214 443 1214 Z M443 1036 Q466 1036 482.5 1052.5 Q499 1069 499 1093 Q499 1116 482.5 1132.5 Q466 1149 443 1149 Q420 1149 403 1132.5 Q386 1116 386 1093 Q386 1069 403 1052.5 Q420 1036 443 1036 Z " />
<glyph glyph-name="Utilde" unicode="&#x168;" horiz-adv-x="886" d="M713 353 L713 874 L796 874 L796 353 Q796 280 768.5 215.5 Q741 151 693 103 Q645 55 580.5 27.5 Q516 0 443 0 Q370 0 305.5 27.5 Q241 55 193 103 Q145 151 117.5 215.5 Q90 280 90 353 L90 874 L173 874 L173 353 Q173 297 194 247.5 Q215 198 252 161.5 Q289 125 338 104 Q387 83 443 83 Q499 83 548.5 104 Q598 125 634.5 161.5 Q671 198 692 247.5 Q713 297 713 353 Z M248 1119 Q280 1153 313 1156.5 Q346 1160 378 1148.5 Q410 1137 442.5 1118.5 Q475 1100 507.5 1088.5 Q540 1077 572.5 1080.5 Q605 1084 638 1118 L638 1039 Q605 1005 573 1001.5 Q541 998 508 1009.5 Q475 1021 443 1039.5 Q411 1058 378 1069.5 Q345 1081 312.5 1077.5 Q280 1074 248 1040 L248 1119 Z " />
<glyph glyph-name="Wacute" unicode="&#x1e82;" horiz-adv-x="1315" d="M949 139 L1197 875 L1285 875 L994 0 L905 0 L658 743 L410 0 L322 0 L30 875 L119 875 L366 139 L613 875 L702 875 L949 139 Z M605 1006 L535 1006 L708 1282 L779 1235 L605 1006 Z " />
<glyph glyph-name="Wcircumflex" unicode="&#x174;" horiz-adv-x="1315" d="M949 139 L1197 875 L1285 875 L994 0 L905 0 L658 743 L410 0 L322 0 L30 875 L119 875 L366 139 L613 875 L702 875 L949 139 Z M800 948 L684 1064 Q673 1075 656.5 1075 Q640 1075 629 1064 L513 948 L461 1000 L657 1196 L853 1000 L801 948 L800 948 Z " />
<glyph glyph-name="Wdieresis" unicode="&#x1e84;" horiz-adv-x="1315" d="M949 139 L1197 875 L1285 875 L994 0 L905 0 L658 743 L410 0 L322 0 L30 875 L119 875 L366 139 L613 875 L702 875 L949 139 Z M598 1055 Q598 1032 581.5 1015.5 Q565 999 542 999 Q519 999 502.5 1015.5 Q486 1032 486 1055 Q486 1078 502.5 1094.5 Q519 1111 542 1111 Q565 1111 581.5 1094.5 Q598 1078 598 1055 Z M829 1055 Q829 1032 812.5 1015.5 Q796 999 773 999 Q750 999 733.5 1015.5 Q717 1032 717 1055 Q717 1078 733.5 1094.5 Q750 1111 773 1111 Q796 1111 812.5 1094.5 Q829 1078 829 1055 Z " />
<glyph glyph-name="Wgrave" unicode="&#x1e80;" horiz-adv-x="1315" d="M949 139 L1197 875 L1285 875 L994 0 L905 0 L658 743 L410 0 L322 0 L30 875 L119 875 L366 139 L613 875 L702 875 L949 139 Z M533 1236 L606 1285 L781 1006 L708 1006 L533 1236 Z " />
<glyph glyph-name="Yacute" unicode="&#xdd;" horiz-adv-x="932" d="M425 410 Q425 426 415 436 L30 874 L135 874 L466 498 L797 874 L902 874 L517 436 Q507 426 507 410 L507 0 L425 0 L425 410 Z M495 1006 L425 1006 L598 1282 L669 1235 L495 1006 Z " />
<glyph glyph-name="Ycircumflex" unicode="&#x176;" horiz-adv-x="932" d="M425 410 Q425 426 415 436 L30 874 L135 874 L466 498 L797 874 L902 874 L517 436 Q507 426 507 410 L507 0 L425 0 L425 410 Z M609 948 L493 1064 Q482 1075 465.5 1075 Q449 1075 438 1064 L322 948 L270 1000 L466 1196 L662 1000 L610 948 L609 948 Z " />
<glyph glyph-name="Ydieresis" unicode="&#x178;" horiz-adv-x="932" d="M425 410 Q425 426 415 436 L30 874 L135 874 L466 498 L797 874 L902 874 L517 436 Q507 426 507 410 L507 0 L425 0 L425 410 Z M637 1055 Q637 1032 620.5 1015.5 Q604 999 581 999 Q558 999 541.5 1015.5 Q525 1032 525 1055 Q525 1078 541.5 1094.5 Q558 1111 581 1111 Q604 1111 620.5 1094.5 Q637 1078 637 1055 Z M406 1055 Q406 1032 389.5 1015.5 Q373 999 350 999 Q327 999 310.5 1015.5 Q294 1032 294 1055 Q294 1078 310.5 1094.5 Q327 1111 350 1111 Q373 1111 389.5 1094.5 Q406 1078 406 1055 Z " />
<glyph glyph-name="Ygrave" unicode="&#x1ef2;" horiz-adv-x="932" d="M425 410 Q425 426 415 436 L30 874 L135 874 L466 498 L797 874 L902 874 L517 436 Q507 426 507 410 L507 0 L425 0 L425 410 Z M260 1236 L333 1285 L508 1006 L435 1006 L260 1236 Z " />
<glyph glyph-name="Zacute" unicode="&#x179;" horiz-adv-x="831" d="M771 875 L771 797 L161 77 L767 77 L767 0 L52 0 L52 77 L661 797 L52 797 L52 875 L771 875 Z M425 1006 L355 1006 L528 1282 L599 1235 L425 1006 Z " />
<glyph glyph-name="Zcaron" unicode="&#x17d;" horiz-adv-x="831" d="M771 875 L771 797 L161 77 L767 77 L767 0 L52 0 L52 77 L661 797 L52 797 L52 875 L771 875 Z M559 1196 L611 1144 L415 948 L219 1144 L271 1196 L387 1080 Q398 1069 414.5 1069 Q431 1069 442 1080 L500 1138 Q522 1160 540 1178 Q558 1196 559 1196 Z " />
<glyph glyph-name="Zdotaccent" unicode="&#x17b;" horiz-adv-x="831" d="M771 875 L771 797 L161 77 L767 77 L767 0 L52 0 L52 77 L661 797 L52 797 L52 875 L771 875 Z M471 1025 Q471 1002 454.5 985.5 Q438 969 415 969 Q392 969 375.5 985.5 Q359 1002 359 1025 Q359 1048 375.5 1064.5 Q392 1081 415 1081 Q438 1081 454.5 1064.5 Q471 1048 471 1025 Z " />
<glyph glyph-name="c" unicode="c" horiz-adv-x="847" d="M489 792 Q416 792 351 764 Q286 736 237.5 688 Q189 640 161 575.5 Q133 511 133 438 Q133 365 160.5 300.5 Q188 236 236 187.5 Q284 139 348.5 111 Q413 83 486 83 Q557 83 622 109.5 Q687 136 738 187 L797 128 Q735 66 654.5 33 Q574 0 487 0 Q397 0 317 34.5 Q237 69 178 128.5 Q119 188 84.5 268 Q50 348 50 438 Q50 528 84.5 608 Q119 688 178 747 Q237 806 317 840.5 Q397 875 487 875 Q574 875 654.5 842 Q735 809 797 747 L738 689 Q688 739 624 765.5 Q560 792 489 792 Z " />
<glyph glyph-name="cacute" unicode="&#x107;" horiz-adv-x="847" d="M489 792 Q416 792 351 764 Q286 736 237.5 688 Q189 640 161 575.5 Q133 511 133 438 Q133 365 160.5 300.5 Q188 236 236 187.5 Q284 139 348.5 111 Q413 83 486 83 Q557 83 622 109.5 Q687 136 738 187 L797 128 Q735 66 654.5 33 Q574 0 487 0 Q397 0 317 34.5 Q237 69 178 128.5 Q119 188 84.5 268 Q50 348 50 438 Q50 528 84.5 608 Q119 688 178 747 Q237 806 317 840.5 Q397 875 487 875 Q574 875 654.5 842 Q735 809 797 747 L738 689 Q688 739 624 765.5 Q560 792 489 792 Z M459 1006 L389 1006 L562 1282 L633 1235 L459 1006 Z " />
<glyph glyph-name="ccaron" unicode="&#x10d;" horiz-adv-x="847" d="M489 792 Q416 792 351 764 Q286 736 237.5 688 Q189 640 161 575.5 Q133 511 133 438 Q133 365 160.5 300.5 Q188 236 236 187.5 Q284 139 348.5 111 Q413 83 486 83 Q557 83 622 109.5 Q687 136 738 187 L797 128 Q735 66 654.5 33 Q574 0 487 0 Q397 0 317 34.5 Q237 69 178 128.5 Q119 188 84.5 268 Q50 348 50 438 Q50 528 84.5 608 Q119 688 178 747 Q237 806 317 840.5 Q397 875 487 875 Q574 875 654.5 842 Q735 809 797 747 L738 689 Q688 739 624 765.5 Q560 792 489 792 Z M572 1196 L624 1144 L428 948 L232 1144 L284 1196 L400 1080 Q411 1069 427.5 1069 Q444 1069 455 1080 L513 1138 Q535 1160 553 1178 Q571 1196 572 1196 Z " />
<glyph glyph-name="ccedilla" unicode="&#xe7;" horiz-adv-x="847" d="M489 792 Q416 792 351 764 Q286 736 237.5 688 Q189 640 161 575.5 Q133 511 133 438 Q133 365 160.5 300.5 Q188 236 236 187.5 Q284 139 348.5 111 Q413 83 486 83 Q557 83 622 109.5 Q687 136 738 187 L797 128 Q744 75 678 43.5 Q612 12 539 4 Q549 -7 557 -17 Q565 -27 573 -38 Q593 -61 598 -91 Q603 -121 594 -150 Q585 -180 562 -201 Q536 -225 501.5 -229.5 Q467 -234 436 -221.5 Q405 -209 383.5 -180.5 Q362 -152 362 -111 L426 -111 Q426 -130 436.5 -143 Q447 -156 462 -161.5 Q477 -167 494 -164.5 Q511 -162 523 -150 Q540 -133 540 -110 Q540 -87 523 -70 L451 2 Q367 8 294 45 Q221 82 167 140.5 Q113 199 81.5 275.5 Q50 352 50 438 Q50 528 84.5 608 Q119 688 178 747 Q237 806 317 840.5 Q397 875 487 875 Q574 875 654.5 842 Q735 809 797 747 L738 689 Q688 739 624 765.5 Q560 792 489 792 Z " />
<glyph glyph-name="ccircumflex" unicode="&#x109;" horiz-adv-x="847" d="M489 792 Q416 792 351 764 Q286 736 237.5 688 Q189 640 161 575.5 Q133 511 133 438 Q133 365 160.5 300.5 Q188 236 236 187.5 Q284 139 348.5 111 Q413 83 486 83 Q557 83 622 109.5 Q687 136 738 187 L797 128 Q735 66 654.5 33 Q574 0 487 0 Q397 0 317 34.5 Q237 69 178 128.5 Q119 188 84.5 268 Q50 348 50 438 Q50 528 84.5 608 Q119 688 178 747 Q237 806 317 840.5 Q397 875 487 875 Q574 875 654.5 842 Q735 809 797 747 L738 689 Q688 739 624 765.5 Q560 792 489 792 Z M601 948 L485 1064 Q474 1075 457.5 1075 Q441 1075 430 1064 L314 948 L262 1000 L458 1196 L654 1000 L602 948 L601 948 Z " />
<glyph glyph-name="cdotaccent" unicode="&#x10b;" horiz-adv-x="847" d="M489 792 Q416 792 351 764 Q286 736 237.5 688 Q189 640 161 575.5 Q133 511 133 438 Q133 365 160.5 300.5 Q188 236 236 187.5 Q284 139 348.5 111 Q413 83 486 83 Q557 83 622 109.5 Q687 136 738 187 L797 128 Q735 66 654.5 33 Q574 0 487 0 Q397 0 317 34.5 Q237 69 178 128.5 Q119 188 84.5 268 Q50 348 50 438 Q50 528 84.5 608 Q119 688 178 747 Q237 806 317 840.5 Q397 875 487 875 Q574 875 654.5 842 Q735 809 797 747 L738 689 Q688 739 624 765.5 Q560 792 489 792 Z M537 1025 Q537 1002 520.5 985.5 Q504 969 481 969 Q458 969 441.5 985.5 Q425 1002 425 1025 Q425 1048 441.5 1064.5 Q458 1081 481 1081 Q504 1081 520.5 1064.5 Q537 1048 537 1025 Z " />
<glyph glyph-name="d" unicode="d" horiz-adv-x="883" d="M381 875 Q471 875 551 840.5 Q631 806 690 746.5 Q749 687 783.5 607 Q818 527 818 437 Q818 347 783.5 267 Q749 187 690 128 Q631 69 551 34.5 Q471 0 381 0 L95 0 L95 875 L381 875 Z M735 435 Q735 504 708.5 568.5 Q682 633 635.5 682.5 Q589 732 526.5 762 Q464 792 392 792 L203 792 Q192 792 185 784.5 Q178 777 178 766 L178 108 Q178 97 185 90 Q192 83 203 83 L392 83 Q462 83 524.5 112.5 Q587 142 633.5 190.5 Q680 239 707.5 302.5 Q735 366 735 435 Z " />
<glyph glyph-name="dcaron" unicode="&#x10f;" horiz-adv-x="883" d="M381 875 Q471 875 551 840.5 Q631 806 690 746.5 Q749 687 783.5 607 Q818 527 818 437 Q818 347 783.5 267 Q749 187 690 128 Q631 69 551 34.5 Q471 0 381 0 L95 0 L95 875 L381 875 Z M735 435 Q735 504 708.5 568.5 Q682 633 635.5 682.5 Q589 732 526.5 762 Q464 792 392 792 L203 792 Q192 792 185 784.5 Q178 777 178 766 L178 108 Q178 97 185 90 Q192 83 203 83 L392 83 Q462 83 524.5 112.5 Q587 142 633.5 190.5 Q680 239 707.5 302.5 Q735 366 735 435 Z M581 1196 L633 1144 L437 948 L241 1144 L293 1196 L409 1080 Q420 1069 436.5 1069 Q453 1069 464 1080 L522 1138 Q544 1160 562 1178 Q580 1196 581 1196 Z " />
<glyph glyph-name="dcroat" unicode="&#x111;" horiz-adv-x="883" d="M-40 390 L-40 468 L95 468 L95 875 L381 875 Q471 875 551 840.5 Q631 806 690 746.5 Q749 687 783.5 607 Q818 527 818 437 Q818 347 783.5 267 Q749 187 690 128 Q631 69 551 34.5 Q471 0 381 0 L95 0 L95 390 L-40 390 Z M735 435 Q735 504 708.5 568.5 Q682 633 635.5 682.5 Q589 732 526.5 762 Q464 792 392 792 L203 792 Q192 792 185 784.5 Q178 777 178 766 L178 468 L323 468 L323 390 L178 390 L178 108 Q178 97 185 90 Q192 83 203 83 L392 83 Q462 83 524.5 112.5 Q587 142 633.5 190.5 Q680 239 707.5 302.5 Q735 366 735 435 Z " />
<glyph glyph-name="e" unicode="e" horiz-adv-x="776" d="M178 505 Q178 493 186 485 Q194 477 205 477 L711 477 L711 397 L205 397 Q194 397 186 389 Q178 381 178 370 L178 107 Q178 96 186 88 Q194 80 205 80 L711 80 L711 0 L95 0 L95 875 L711 874 L711 795 L205 795 Q194 795 186 786.5 Q178 778 178 767 L178 505 Z " />
<glyph glyph-name="eacute" unicode="&#xe9;" horiz-adv-x="776" d="M178 505 Q178 493 186 485 Q194 477 205 477 L711 477 L711 397 L205 397 Q194 397 186 389 Q178 381 178 370 L178 107 Q178 96 186 88 Q194 80 205 80 L711 80 L711 0 L95 0 L95 875 L711 874 L711 795 L205 795 Q194 795 186 786.5 Q178 778 178 767 L178 505 Z M340 1006 L270 1006 L443 1282 L514 1235 L340 1006 Z " />
<glyph glyph-name="ebreve" unicode="&#x115;" horiz-adv-x="776" d="M178 505 Q178 493 186 485 Q194 477 205 477 L711 477 L711 397 L298 397 Q283 397 262 398.5 Q241 400 222.5 398.5 Q204 397 191 391 Q178 385 178 370 L178 107 Q178 96 186 88 Q194 80 205 80 L711 80 L711 0 L95 0 L95 875 Q250 875 403 874.5 Q556 874 711 874 L711 795 L205 795 Q194 795 186 786.5 Q178 778 178 767 L178 505 Z M448 1130 L524 1130 Q524 1102 513.5 1077 Q503 1052 484.5 1033.5 Q466 1015 441 1004.5 Q416 994 388 994 Q360 994 335 1004.5 Q310 1015 291.5 1033.5 Q273 1052 262.5 1077 Q252 1102 252 1130 L328 1130 Q328 1105 345.5 1087.5 Q363 1070 387 1069 Q413 1069 430.5 1087 Q448 1105 448 1130 Z " />
<glyph glyph-name="ecaron" unicode="&#x11b;" horiz-adv-x="776" d="M178 505 Q178 493 186 485 Q194 477 205 477 L711 477 L711 397 L205 397 Q194 397 186 389 Q178 381 178 370 L178 107 Q178 96 186 88 Q194 80 205 80 L711 80 L711 0 L95 0 L95 875 L711 874 L711 795 L205 795 Q194 795 186 786.5 Q178 778 178 767 L178 505 Z M532 1196 L584 1144 L388 948 L192 1144 L244 1196 L360 1080 Q371 1069 387.5 1069 Q404 1069 415 1080 L473 1138 Q495 1160 513 1178 Q531 1196 532 1196 Z " />
<glyph glyph-name="ecircumflex" unicode="&#xea;" horiz-adv-x="776" d="M178 505 Q178 493 186 485 Q194 477 205 477 L711 477 L711 397 L205 397 Q194 397 186 389 Q178 381 178 370 L178 107 Q178 96 186 88 Q194 80 205 80 L711 80 L711 0 L95 0 L95 875 L711 874 L711 795 L205 795 Q194 795 186 786.5 Q178 778 178 767 L178 505 Z M531 948 L415 1064 Q404 1075 387.5 1075 Q371 1075 360 1064 L244 948 L192 1000 L388 1196 L584 1000 L532 948 L531 948 Z " />
<glyph glyph-name="edieresis" unicode="&#xeb;" horiz-adv-x="776" d="M178 505 Q178 493 186 485 Q194 477 205 477 L711 477 L711 397 L205 397 Q194 397 186 389 Q178 381 178 370 L178 107 Q178 96 186 88 Q194 80 205 80 L711 80 L711 0 L95 0 L95 875 L711 874 L711 795 L205 795 Q194 795 186 786.5 Q178 778 178 767 L178 505 Z M559 1055 Q559 1032 542.5 1015.5 Q526 999 503 999 Q480 999 463.5 1015.5 Q447 1032 447 1055 Q447 1078 463.5 1094.5 Q480 1111 503 1111 Q526 1111 542.5 1094.5 Q559 1078 559 1055 Z M328 1055 Q328 1032 311.5 1015.5 Q295 999 272 999 Q249 999 232.5 1015.5 Q216 1032 216 1055 Q216 1078 232.5 1094.5 Q249 1111 272 1111 Q295 1111 311.5 1094.5 Q328 1078 328 1055 Z " />
<glyph glyph-name="edotaccent" unicode="&#x117;" horiz-adv-x="776" d="M178 505 Q178 493 186 485 Q194 477 205 477 L711 477 L711 397 L205 397 Q194 397 186 389 Q178 381 178 370 L178 107 Q178 96 186 88 Q194 80 205 80 L711 80 L711 0 L95 0 L95 875 L711 874 L711 795 L205 795 Q194 795 186 786.5 Q178 778 178 767 L178 505 Z M444 1025 Q444 1002 427.5 985.5 Q411 969 388 969 Q365 969 348.5 985.5 Q332 1002 332 1025 Q332 1048 348.5 1064.5 Q365 1081 388 1081 Q411 1081 427.5 1064.5 Q444 1048 444 1025 Z " />
<glyph glyph-name="egrave" unicode="&#xe8;" horiz-adv-x="776" d="M178 505 Q178 493 186 485 Q194 477 205 477 L711 477 L711 397 L205 397 Q194 397 186 389 Q178 381 178 370 L178 107 Q178 96 186 88 Q194 80 205 80 L711 80 L711 0 L95 0 L95 875 L711 874 L711 795 L205 795 Q194 795 186 786.5 Q178 778 178 767 L178 505 Z M254 1236 L327 1285 L502 1006 L429 1006 L254 1236 Z " />
<glyph glyph-name="emacron" unicode="&#x113;" horiz-adv-x="776" d="M178 505 Q178 493 186 485 Q194 477 205 477 L711 477 L711 397 L205 397 Q194 397 186 389 Q178 381 178 370 L178 107 Q178 96 186 88 Q194 80 205 80 L711 80 L711 0 L95 0 L95 875 L711 874 L711 795 L205 795 Q194 795 186 786.5 Q178 778 178 767 L178 505 Z M206 1052 L206 1130 L569 1130 L569 1052 L206 1052 Z " />
<glyph glyph-name="eogonek" unicode="&#x119;" horiz-adv-x="776" d="M711 -195 Q663 -243 599 -243 Q567 -243 538.5 -230.5 Q510 -218 489 -197 Q468 -176 455.5 -147.5 Q443 -119 443 -87 Q443 -37 471 0 L95 0 L95 875 L711 874 L711 795 L205 795 Q194 795 186 786.5 Q178 778 178 767 L178 505 Q178 493 186 485 Q194 477 205 477 L711 477 L711 397 L205 397 Q194 397 186 389 Q178 381 178 370 L178 107 Q178 96 186 88 Q194 80 205 80 L711 80 L711 0 L600 0 Q563 0 538 -25 Q513 -50 513 -86 Q513 -121 538 -146 Q563 -171 598 -171 Q615 -171 631.5 -164 Q648 -157 660 -145 L711 -195 Z " />
<glyph glyph-name="aacute" unicode="&#xe1;" horiz-adv-x="896" d="M668 875 L836 0 L755 0 L710 241 Q706 262 703 288 Q700 314 693 337 Q686 360 674.5 375.5 Q663 391 642 391 L348 391 Q330 391 307.5 392 Q285 393 265 391 Q245 389 229.5 380 Q214 371 209 352 L141 0 L60 0 L230 875 L668 875 Z M475 1006 L406 1006 L579 1282 L650 1235 L475 1006 Z M232 471 L667 471 L602 801 L298 801 L232 471 Z " />
<glyph glyph-name="abreve" unicode="&#x103;" horiz-adv-x="896" d="M668 875 L836 0 L755 0 L710 241 Q706 262 703 288 Q700 314 693 337 Q686 360 674.5 375.5 Q663 391 642 391 L348 391 Q330 391 307.5 392 Q285 393 265 391 Q245 389 229.5 380 Q214 371 209 352 L141 0 L60 0 L230 875 L668 875 Z M448 1069 Q473 1070 490.5 1087.5 Q508 1105 508 1130 L584 1130 Q584 1102 573.5 1077 Q563 1052 544 1033.5 Q525 1015 500 1004.5 Q475 994 447 994 Q419 994 394 1004.5 Q369 1015 350.5 1033.5 Q332 1052 321.5 1077 Q311 1102 311 1130 L387 1130 Q387 1105 405 1087 Q423 1069 448 1069 Z M232 471 L667 471 L602 801 L298 801 L232 471 Z " />
<glyph glyph-name="acircumflex" unicode="&#xe2;" horiz-adv-x="896" d="M668 875 L836 0 L755 0 L710 241 Q706 262 703 288 Q700 314 693 337 Q686 360 674.5 375.5 Q663 391 642 391 L348 391 Q330 391 307.5 392 Q285 393 265 391 Q245 389 229.5 380 Q214 371 209 352 L141 0 L60 0 L230 875 L668 875 Z M591 948 L500 1039 Q492 1047 482.5 1056 Q473 1065 462.5 1070.5 Q452 1076 441 1075.5 Q430 1075 419 1064 L303 948 L251 1000 L447 1196 L643 1000 L591 948 Z M232 471 L667 471 L602 801 L298 801 L232 471 Z " />
<glyph glyph-name="adieresis" unicode="&#xe4;" horiz-adv-x="896" d="M668 875 L836 0 L755 0 L710 241 Q706 262 703 288 Q700 314 693 337 Q686 360 674.5 375.5 Q663 391 642 391 L348 391 Q330 391 307.5 392 Q285 393 265 391 Q245 389 229.5 380 Q214 371 209 352 L141 0 L60 0 L230 875 L668 875 Z M388 1055 Q388 1032 371.5 1015.5 Q355 999 332 999 Q309 999 293 1015.5 Q277 1032 277 1055 Q277 1078 293 1094.5 Q309 1111 332 1111 Q355 1111 371.5 1094.5 Q388 1078 388 1055 Z M619 1055 Q619 1032 602.5 1015.5 Q586 999 563 999 Q540 999 524 1015.5 Q508 1032 508 1055 Q508 1078 524 1094.5 Q540 1111 563 1111 Q586 1111 602.5 1094.5 Q619 1078 619 1055 Z M232 471 L667 471 L602 801 L298 801 L232 471 Z " />
<glyph glyph-name="agrave" unicode="&#xe0;" horiz-adv-x="896" d="M668 875 L836 0 L755 0 L710 241 Q706 262 703 288 Q700 314 693 337 Q686 360 674.5 375.5 Q663 391 642 391 L348 391 Q330 391 307.5 392 Q285 393 265 391 Q245 389 229.5 380 Q214 371 209 352 L141 0 L60 0 L230 875 L668 875 Z M242 1236 L315 1285 L491 1006 L417 1006 L242 1236 Z M232 471 L667 471 L602 801 L298 801 L232 471 Z " />
<glyph glyph-name="amacron" unicode="&#x101;" horiz-adv-x="896" d="M668 875 L836 0 L755 0 L710 241 Q706 262 703 288 Q700 314 693 337 Q686 360 674.5 375.5 Q663 391 642 391 L348 391 Q330 391 307.5 392 Q285 393 265 391 Q245 389 229.5 380 Q214 371 209 352 L141 0 L60 0 L230 875 L668 875 Z M266 1052 L266 1130 L630 1130 L630 1052 L266 1052 Z M232 471 L667 471 L602 801 L298 801 L232 471 Z " />
<glyph glyph-name="aogonek" unicode="&#x105;" horiz-adv-x="896" d="M866 -195 Q818 -243 754 -243 Q722 -243 693.5 -230.5 Q665 -218 644 -197 Q623 -176 610.5 -147.5 Q598 -119 598 -87 Q598 -56 609 -29 Q620 -2 639.5 18.5 Q659 39 685.5 52 Q712 65 742 67 L689 351 Q686 368 672.5 379.5 Q659 391 642 391 L257 391 Q240 391 226.5 380 Q213 369 209 352 L141 0 L60 0 L230 875 L668 875 L836 0 L755 0 Q718 0 692.5 -25 Q667 -50 667 -86 Q667 -121 692 -146 Q717 -171 753 -171 Q770 -171 786 -164 Q802 -157 815 -145 L866 -195 Z M232 471 L667 471 L602 801 L298 801 L232 471 Z " />
<glyph glyph-name="aring" unicode="&#xe5;" horiz-adv-x="896" d="M668 875 L836 0 L755 0 L710 241 Q706 262 703 288 Q700 314 693 337 Q686 360 674.5 375.5 Q663 391 642 391 L348 391 Q330 391 307.5 392 Q285 393 265 391 Q245 389 229.5 380 Q214 371 209 352 L141 0 L60 0 L230 875 L668 875 Z M447 1214 Q472 1214 494.5 1204.5 Q517 1195 533.5 1178.5 Q550 1162 559.5 1140 Q569 1118 569 1093 Q569 1067 559.5 1045 Q550 1023 533.5 1006.5 Q517 990 494.5 980.5 Q472 971 447 971 Q422 971 400 980.5 Q378 990 361.5 1006.5 Q345 1023 335.5 1045 Q326 1067 326 1093 Q326 1118 335.5 1140 Q345 1162 361.5 1178.5 Q378 1195 400 1204.5 Q422 1214 447 1214 Z M232 471 L667 471 L602 801 L298 801 L232 471 Z M447 1036 Q471 1036 487.5 1052.5 Q504 1069 504 1093 Q504 1116 487.5 1132.5 Q471 1149 447 1149 Q424 1149 407.5 1132.5 Q391 1116 391 1093 Q391 1069 407.5 1052.5 Q424 1036 447 1036 Z " />
<glyph glyph-name="atilde" unicode="&#xe3;" horiz-adv-x="896" d="M668 875 L836 0 L755 0 L710 241 Q706 262 703 288 Q700 314 693 337 Q686 360 674.5 375.5 Q663 391 642 391 L348 391 Q330 391 307.5 392 Q285 393 265 391 Q245 389 229.5 380 Q214 371 209 352 L141 0 L60 0 L230 875 L668 875 Z M253 1119 Q285 1153 317.5 1156.5 Q350 1160 382.5 1148.5 Q415 1137 447.5 1118.5 Q480 1100 512.5 1088.5 Q545 1077 577.5 1080.5 Q610 1084 643 1118 L643 1039 Q610 1005 577.5 1001.5 Q545 998 512.5 1009.5 Q480 1021 447.5 1039.5 Q415 1058 382.5 1069.5 Q350 1081 317.5 1077.5 Q285 1074 253 1040 L253 1119 Z M232 471 L667 471 L602 801 L298 801 L232 471 Z " />
<glyph glyph-name="h" unicode="h" horiz-adv-x="942" d="M765 505 L765 875 L847 875 L847 0 L765 0 L765 370 Q765 381 757 389.5 Q749 398 738 398 L204 398 Q193 398 185 389.5 Q177 381 177 370 L177 0 L95 0 L95 875 L177 875 L177 505 Q177 494 185 485.5 Q193 477 204 477 L738 477 Q749 477 757 485.5 Q765 494 765 505 Z " />
<glyph glyph-name="hbar" unicode="&#x127;" horiz-adv-x="942" d="M31 639 L31 719 L95 719 L95 875 L177 875 L177 719 L765 719 L765 875 L847 875 L847 719 L911 719 L911 639 L847 639 L847 0 L765 0 L765 370 Q765 381 757 389.5 Q749 398 738 398 L204 398 Q193 398 185 389.5 Q177 381 177 370 L177 0 L95 0 L95 639 L31 639 Z M765 505 L765 639 L177 639 L177 505 Q177 494 185 485.5 Q193 477 204 477 L738 477 Q749 477 757 485.5 Q765 494 765 505 Z " />
<glyph glyph-name="hcircumflex" unicode="&#x125;" horiz-adv-x="942" d="M765 505 L765 875 L847 875 L847 0 L765 0 L765 370 Q765 381 757 389.5 Q749 398 738 398 L204 398 Q193 398 185 389.5 Q177 381 177 370 L177 0 L95 0 L95 875 L177 875 L177 505 Q177 494 185 485.5 Q193 477 204 477 L738 477 Q749 477 757 485.5 Q765 494 765 505 Z M614 948 L498 1064 Q487 1075 470.5 1075 Q454 1075 443 1064 L327 948 L275 1000 L471 1196 L667 1000 L615 948 L614 948 Z " />
<glyph glyph-name="i" unicode="i" horiz-adv-x="342" d="M130 0 L130 875 L212 875 L212 0 L130 0 Z " />
<glyph glyph-name="iacute" unicode="&#xed;" horiz-adv-x="342" d="M130 0 L130 875 L212 875 L212 0 L130 0 Z M131 1006 L61 1006 L234 1282 L305 1235 L131 1006 Z " />
<glyph glyph-name="ibreve" unicode="&#x12d;" horiz-adv-x="342" d="M130 0 L130 875 L212 875 L212 0 L130 0 Z M172 1069 Q196 1070 213.5 1087.5 Q231 1105 231 1130 L307 1130 Q307 1102 296.5 1077 Q286 1052 267.5 1033.5 Q249 1015 224 1004.5 Q199 994 171 994 Q143 994 118 1004.5 Q93 1015 74.5 1033.5 Q56 1052 45.5 1077 Q35 1102 35 1130 L111 1130 Q111 1105 128.5 1087 Q146 1069 172 1069 Z " />
<glyph glyph-name="icircumflex" unicode="&#xee;" horiz-adv-x="342" d="M130 0 L130 875 L212 875 L212 0 L130 0 Z M314 948 L198 1064 Q187 1075 170.5 1075 Q154 1075 143 1064 L27 948 L-25 1000 L171 1196 L367 1000 L315 948 L314 948 Z " />
<glyph glyph-name="idieresis" unicode="&#xef;" horiz-adv-x="342" d="M130 0 L130 875 L212 875 L212 0 L130 0 Z M111 1055 Q111 1032 94.5 1015.5 Q78 999 55 999 Q32 999 15.5 1015.5 Q-1 1032 -1 1055 Q-1 1078 15.5 1094.5 Q32 1111 55 1111 Q78 1111 94.5 1094.5 Q111 1078 111 1055 Z M342 1055 Q342 1032 325.5 1015.5 Q309 999 286 999 Q263 999 246.5 1015.5 Q230 1032 230 1055 Q230 1078 246.5 1094.5 Q263 1111 286 1111 Q309 1111 325.5 1094.5 Q342 1078 342 1055 Z " />
<glyph glyph-name="igrave" unicode="&#xec;" horiz-adv-x="342" d="M130 0 L130 875 L212 875 L212 0 L130 0 Z M227 1025 Q227 1002 210.5 985.5 Q194 969 171 969 Q148 969 131.5 985.5 Q115 1002 115 1025 Q115 1048 131.5 1064.5 Q148 1081 171 1081 Q194 1081 210.5 1064.5 Q227 1048 227 1025 Z " />
<glyph glyph-name="imacron" unicode="&#x12b;" horiz-adv-x="342" d="M130 0 L130 875 L212 875 L212 0 L130 0 Z M35 1236 L108 1285 L283 1006 L210 1006 L35 1236 Z " />
<glyph glyph-name="iogonek" unicode="&#x12f;" horiz-adv-x="342" d="M130 0 L130 875 L212 875 L212 0 L130 0 Z M-10 1052 L-10 1130 L353 1130 L353 1052 L-10 1052 Z " />
<glyph glyph-name="itilde" unicode="&#x129;" horiz-adv-x="342" d="M247 -195 Q199 -243 135 -243 Q103 -243 74.5 -230.5 Q46 -218 25 -197 Q4 -176 -8.5 -147.5 Q-21 -119 -21 -87 Q-21 -56 -9 -28 Q3 0 23 21 Q43 42 70.5 54 Q98 66 130 67 L130 875 L212 875 L212 0 L136 0 Q99 0 74 -25 Q49 -50 49 -86 Q49 -121 74 -146 Q99 -171 134 -171 Q170 -171 196 -145 L247 -195 Z " />
<glyph glyph-name="ij" unicode="&#x133;" horiz-adv-x="342" d="M130 0 L130 875 L212 875 L212 0 L130 0 Z M-24 1119 Q8 1153 40.5 1156.5 Q73 1160 106 1148.5 Q139 1137 171 1118.5 Q203 1100 235.5 1088.5 Q268 1077 300.5 1080.5 Q333 1084 366 1118 L366 1039 Q333 1005 301 1001.5 Q269 998 236.5 1009.5 Q204 1021 171 1039.5 Q138 1058 106 1069.5 Q74 1081 41 1077.5 Q8 1074 -24 1040 L-24 1119 Z " />
<glyph glyph-name="j" unicode="j" horiz-adv-x="728" d="M555 353 L555 874 L638 874 L638 353 Q638 280 610.5 215.5 Q583 151 535 103 Q487 55 422.5 27.5 Q358 0 285 0 Q211 0 147 27.5 Q83 55 35 103 L93 161 Q130 124 178.5 103 Q227 82 284 82 Q340 82 389.5 103.5 Q439 125 475.5 161.5 Q512 198 533.5 247.5 Q555 297 555 353 Z " />
<glyph glyph-name="jcircumflex" unicode="&#x135;" horiz-adv-x="728" d="M555 353 L555 874 L638 874 L638 353 Q638 280 610.5 215.5 Q583 151 535 103 Q487 55 422.5 27.5 Q358 0 285 0 Q211 0 147 27.5 Q83 55 35 103 L93 161 Q130 124 178.5 103 Q227 82 284 82 Q340 82 389.5 103.5 Q439 125 475.5 161.5 Q512 198 533.5 247.5 Q555 297 555 353 Z M741 948 L650 1039 Q642 1047 632.5 1056 Q623 1065 613 1070.5 Q603 1076 592 1075.5 Q581 1075 570 1064 L454 948 L402 1000 L598 1196 L794 1000 L742 948 L741 948 Z " />
<glyph glyph-name="k" unicode="k" horiz-adv-x="842" d="M802 875 L416 438 L802 0 L696 0 L356 384 Q345 398 327 398 L204 398 Q193 398 185 389.5 Q177 381 177 370 L177 0 L95 0 L95 875 L177 875 L177 505 Q177 494 185 485.5 Q193 477 204 477 L326 477 Q344 477 356 491 L695 875 L802 875 Z " />
<glyph glyph-name="kcommaaccent" unicode="&#x137;" horiz-adv-x="842" d="M802 875 L416 438 L802 0 L696 0 L356 384 Q345 398 327 398 L204 398 Q193 398 185 389.5 Q177 381 177 370 L177 0 L95 0 L95 875 L177 875 L177 505 Q177 494 185 485.5 Q193 477 204 477 L326 477 Q344 477 356 491 L695 875 L802 875 Z M379 -142 L463 -142 L440 -423 L379 -423 L379 -142 Z " />
<glyph glyph-name="l" unicode="l" horiz-adv-x="712" d="M178 875 L178 123 Q178 103 189 91.5 Q200 80 220 80 L677 80 L677 0 L95 0 L95 875 L178 875 Z " />
<glyph glyph-name="lacute" unicode="&#x13a;" horiz-adv-x="712" d="M178 875 L178 123 Q178 103 189 91.5 Q200 80 220 80 L677 80 L677 0 L95 0 L95 875 L178 875 Z M203 1006 L134 1006 L307 1282 L377 1235 L203 1006 Z " />
<glyph glyph-name="lcaron" unicode="&#x13e;" horiz-adv-x="712" d="M178 875 L178 123 Q178 103 189 91.5 Q200 80 220 80 L677 80 L677 0 L95 0 L95 875 L178 875 Z M516 787 L599 787 L577 506 L516 506 L516 787 Z " />
<glyph glyph-name="lcommaaccent" unicode="&#x13c;" horiz-adv-x="712" d="M178 875 L178 123 Q178 103 189 91.5 Q200 80 220 80 L677 80 L677 0 L95 0 L95 875 L178 875 Z M308 -142 L391 -142 L369 -423 L308 -423 L308 -142 Z " />
<glyph glyph-name="ldot" unicode="&#x140;" horiz-adv-x="712" d="M178 875 L178 123 Q178 103 189 91.5 Q200 80 220 80 L677 80 L677 0 L95 0 L95 875 L178 875 Z M525 442 Q525 419 508.5 402.5 Q492 386 469 386 Q446 386 429.5 402.5 Q413 419 413 442 Q413 465 429.5 481.5 Q446 498 469 498 Q492 498 508.5 481.5 Q525 465 525 442 Z " />
<glyph glyph-name="lslash" unicode="&#x142;" horiz-adv-x="712" d="M30 397 L30 477 L95 477 L95 875 L178 875 L178 477 L476 477 L476 397 L178 397 L178 123 Q178 103 189 91.5 Q200 80 220 80 L677 80 L677 0 L95 0 L95 397 L30 397 Z " />
<glyph glyph-name="n" unicode="n" horiz-adv-x="979" d="M802 130 L802 875 L884 875 L884 0 L809 0 L178 752 L178 0 L95 0 L95 875 L171 875 L802 130 Z " />
<glyph glyph-name="nacute" unicode="&#x144;" horiz-adv-x="979" d="M802 130 L802 875 L884 875 L884 0 L809 0 L178 752 L178 0 L95 0 L95 875 L171 875 L802 130 Z M517 1006 L447 1006 L620 1282 L691 1235 L517 1006 Z " />
<glyph glyph-name="ntilde" unicode="&#xf1;" horiz-adv-x="979" d="M802 130 L802 875 L884 875 L884 0 L809 0 L178 752 L178 0 L95 0 L95 875 L171 875 L802 130 Z M294 1119 Q326 1153 359 1156.5 Q392 1160 424 1148.5 Q456 1137 488.5 1118.5 Q521 1100 553.5 1088.5 Q586 1077 618.5 1080.5 Q651 1084 684 1118 L684 1039 Q651 1005 619 1001.5 Q587 998 554.5 1009.5 Q522 1021 489 1039.5 Q456 1058 424 1069.5 Q392 1081 359 1077.5 Q326 1074 294 1040 L294 1119 Z " />
<glyph glyph-name="ncommaaccent" unicode="&#x146;" horiz-adv-x="979" d="M802 130 L802 875 L884 875 L884 0 L809 0 L178 752 L178 0 L95 0 L95 875 L171 875 L802 130 Z M448 -142 L531 -142 L509 -423 L448 -423 L448 -142 Z " />
<glyph glyph-name="ncaron" unicode="&#x148;" horiz-adv-x="979" d="M802 130 L802 875 L884 875 L884 0 L809 0 L178 752 L178 0 L95 0 L95 875 L171 875 L802 130 Z M633 1196 L685 1144 L489 948 L293 1144 L345 1196 L461 1080 Q472 1069 488.5 1069 Q505 1069 516 1080 L574 1138 Q596 1160 614 1178 Q632 1196 633 1196 Z " />
<glyph glyph-name="napostrophe" unicode="&#x149;" horiz-adv-x="979" d="M802 130 L802 875 L884 875 L884 0 L809 0 L178 752 L178 0 L95 0 L95 875 L171 875 L802 130 Z M95 -142 L178 -142 L156 -423 L95 -423 L95 -142 Z " />
<glyph glyph-name="o" unicode="o" horiz-adv-x="994" d="M497 82 Q570 82 635 110 Q700 138 748 186 Q796 234 824 298.5 Q852 363 852 437 Q852 510 824 574.5 Q796 639 748 687 Q700 735 635 763 Q570 791 497 791 Q423 791 358.5 763 Q294 735 246 687 Q198 639 170.5 574.5 Q143 510 143 437 Q143 363 170.5 298.5 Q198 234 246 186 Q294 138 358.5 110 Q423 82 497 82 Z M497 874 Q588 874 667.5 839.5 Q747 805 806 746 Q865 687 899.5 607 Q934 527 934 437 Q934 346 899.5 266.5 Q865 187 806 127.5 Q747 68 667.5 34 Q588 0 497 0 Q407 0 327 34 Q247 68 188 127.5 Q129 187 94.5 266.5 Q60 346 60 437 Q60 527 94.5 607 Q129 687 188 746 Q247 805 327 839.5 Q407 874 497 874 Z " />
<glyph glyph-name="oacute" unicode="&#xf3;" horiz-adv-x="994" d="M497 82 Q570 82 635 110 Q700 138 748 186 Q796 234 824 298.5 Q852 363 852 437 Q852 510 824 574.5 Q796 639 748 687 Q700 735 635 763 Q570 791 497 791 Q423 791 358.5 763 Q294 735 246 687 Q198 639 170.5 574.5 Q143 510 143 437 Q143 363 170.5 298.5 Q198 234 246 186 Q294 138 358.5 110 Q423 82 497 82 Z M497 874 Q588 874 667.5 839.5 Q747 805 806 746 Q865 687 899.5 607 Q934 527 934 437 Q934 346 899.5 266.5 Q865 187 806 127.5 Q747 68 667.5 34 Q588 0 497 0 Q407 0 327 34 Q247 68 188 127.5 Q129 187 94.5 266.5 Q60 346 60 437 Q60 527 94.5 607 Q129 687 188 746 Q247 805 327 839.5 Q407 874 497 874 Z M525 1006 L455 1006 L628 1282 L699 1235 L525 1006 Z " />
<glyph glyph-name="obreve" unicode="&#x14f;" horiz-adv-x="994" d="M497 874 Q588 874 667.5 839.5 Q747 805 806 746 Q865 687 899.5 607 Q934 527 934 437 Q934 346 899.5 266.5 Q865 187 806 127.5 Q747 68 667.5 34 Q588 0 497 0 Q407 0 327 34 Q247 68 188 127.5 Q129 187 94.5 266.5 Q60 346 60 437 Q60 527 94.5 607 Q129 687 188 746 Q247 805 327 839.5 Q407 874 497 874 Z M497 82 Q570 82 635 110 Q700 138 748 186 Q796 234 824 298.5 Q852 363 852 437 Q852 510 824 574.5 Q796 639 748 687 Q700 735 635 763 Q570 791 497 791 Q423 791 358.5 763 Q294 735 246 687 Q198 639 170.5 574.5 Q143 510 143 437 Q143 363 170.5 298.5 Q198 234 246 186 Q294 138 358.5 110 Q423 82 497 82 Z M557 1130 L633 1130 Q633 1102 622.5 1077 Q612 1052 593.5 1033.5 Q575 1015 550 1004.5 Q525 994 497 994 Q469 994 444 1004.5 Q419 1015 400.5 1033.5 Q382 1052 371.5 1077 Q361 1102 361 1130 L437 1130 Q437 1105 454.5 1087 Q472 1069 498 1069 Q523 1070 540 1087.5 Q557 1105 557 1130 Z " />
<glyph glyph-name="ocircumflex" unicode="&#xf4;" horiz-adv-x="994" d="M497 874 Q588 874 667.5 839.5 Q747 805 806 746 Q865 687 899.5 607 Q934 527 934 437 Q934 346 899.5 266.5 Q865 187 806 127.5 Q747 68 667.5 34 Q588 0 497 0 Q407 0 327 34 Q247 68 188 127.5 Q129 187 94.5 266.5 Q60 346 60 437 Q60 527 94.5 607 Q129 687 188 746 Q247 805 327 839.5 Q407 874 497 874 Z M497 82 Q570 82 635 110 Q700 138 748 186 Q796 234 824 298.5 Q852 363 852 437 Q852 510 824 574.5 Q796 639 748 687 Q700 735 635 763 Q570 791 497 791 Q423 791 358.5 763 Q294 735 246 687 Q198 639 170.5 574.5 Q143 510 143 437 Q143 363 170.5 298.5 Q198 234 246 186 Q294 138 358.5 110 Q423 82 497 82 Z M640 948 L524 1064 Q513 1075 496.5 1075 Q480 1075 469 1064 L353 948 L301 1000 L497 1196 L693 1000 L641 948 L640 948 Z " />
<glyph glyph-name="odieresis" unicode="&#xf6;" horiz-adv-x="994" d="M497 82 Q570 82 635 110 Q700 138 748 186 Q796 234 824 298.5 Q852 363 852 437 Q852 510 824 574.5 Q796 639 748 687 Q700 735 635 763 Q570 791 497 791 Q423 791 358.5 763 Q294 735 246 687 Q198 639 170.5 574.5 Q143 510 143 437 Q143 363 170.5 298.5 Q198 234 246 186 Q294 138 358.5 110 Q423 82 497 82 Z M497 874 Q588 874 667.5 839.5 Q747 805 806 746 Q865 687 899.5 607 Q934 527 934 437 Q934 346 899.5 266.5 Q865 187 806 127.5 Q747 68 667.5 34 Q588 0 497 0 Q407 0 327 34 Q247 68 188 127.5 Q129 187 94.5 266.5 Q60 346 60 437 Q60 527 94.5 607 Q129 687 188 746 Q247 805 327 839.5 Q407 874 497 874 Z M668 1055 Q668 1032 651.5 1015.5 Q635 999 612 999 Q589 999 572.5 1015.5 Q556 1032 556 1055 Q556 1078 572.5 1094.5 Q589 1111 612 1111 Q635 1111 651.5 1094.5 Q668 1078 668 1055 Z M437 1055 Q437 1032 420.5 1015.5 Q404 999 381 999 Q358 999 341.5 1015.5 Q325 1032 325 1055 Q325 1078 341.5 1094.5 Q358 1111 381 1111 Q404 1111 420.5 1094.5 Q437 1078 437 1055 Z " />
<glyph glyph-name="ograve" unicode="&#xf2;" horiz-adv-x="994" d="M497 82 Q570 82 635 110 Q700 138 748 186 Q796 234 824 298.5 Q852 363 852 437 Q852 510 824 574.5 Q796 639 748 687 Q700 735 635 763 Q570 791 497 791 Q423 791 358.5 763 Q294 735 246 687 Q198 639 170.5 574.5 Q143 510 143 437 Q143 363 170.5 298.5 Q198 234 246 186 Q294 138 358.5 110 Q423 82 497 82 Z M497 874 Q588 874 667.5 839.5 Q747 805 806 746 Q865 687 899.5 607 Q934 527 934 437 Q934 346 899.5 266.5 Q865 187 806 127.5 Q747 68 667.5 34 Q588 0 497 0 Q407 0 327 34 Q247 68 188 127.5 Q129 187 94.5 266.5 Q60 346 60 437 Q60 527 94.5 607 Q129 687 188 746 Q247 805 327 839.5 Q407 874 497 874 Z M293 1236 L366 1285 L541 1006 L468 1006 L293 1236 Z " />
<glyph glyph-name="ohungarumlaut" unicode="&#x151;" horiz-adv-x="994" d="M497 82 Q570 82 635 110 Q700 138 748 186 Q796 234 824 298.5 Q852 363 852 437 Q852 510 824 574.5 Q796 639 748 687 Q700 735 635 763 Q570 791 497 791 Q423 791 358.5 763 Q294 735 246 687 Q198 639 170.5 574.5 Q143 510 143 437 Q143 363 170.5 298.5 Q198 234 246 186 Q294 138 358.5 110 Q423 82 497 82 Z M497 874 Q588 874 667.5 839.5 Q747 805 806 746 Q865 687 899.5 607 Q934 527 934 437 Q934 346 899.5 266.5 Q865 187 806 127.5 Q747 68 667.5 34 Q588 0 497 0 Q407 0 327 34 Q247 68 188 127.5 Q129 187 94.5 266.5 Q60 346 60 437 Q60 527 94.5 607 Q129 687 188 746 Q247 805 327 839.5 Q407 874 497 874 Z M407 1006 L337 1006 L510 1282 L581 1235 L407 1006 Z M643 1006 L573 1006 L746 1282 L817 1235 L643 1006 Z " />
<glyph glyph-name="omacron" unicode="&#x14d;" horiz-adv-x="994" d="M497 874 Q588 874 667.5 839.5 Q747 805 806 746 Q865 687 899.5 607 Q934 527 934 437 Q934 346 899.5 266.5 Q865 187 806 127.5 Q747 68 667.5 34 Q588 0 497 0 Q407 0 327 34 Q247 68 188 127.5 Q129 187 94.5 266.5 Q60 346 60 437 Q60 527 94.5 607 Q129 687 188 746 Q247 805 327 839.5 Q407 874 497 874 Z M497 82 Q570 82 635 110 Q700 138 748 186 Q796 234 824 298.5 Q852 363 852 437 Q852 510 824 574.5 Q796 639 748 687 Q700 735 635 763 Q570 791 497 791 Q423 791 358.5 763 Q294 735 246 687 Q198 639 170.5 574.5 Q143 510 143 437 Q143 363 170.5 298.5 Q198 234 246 186 Q294 138 358.5 110 Q423 82 497 82 Z M315 1052 L315 1130 L678 1130 L678 1052 L315 1052 Z " />
<glyph glyph-name="oslash" unicode="&#xf8;" horiz-adv-x="994" d="M250 -39 L288 53 Q237 81 195 121 Q153 161 123 210.5 Q93 260 76.5 317.5 Q60 375 60 437 Q60 527 94.5 607 Q129 687 188 746 Q247 805 327 839.5 Q407 874 497 874 Q561 874 623 854 L668 963 L734 940 L688 830 Q743 803 788 762.5 Q833 722 865.5 671 Q898 620 916 560.5 Q934 501 934 437 Q934 346 899.5 266.5 Q865 187 806 127.5 Q747 68 667.5 34 Q588 0 497 0 Q420 0 353 24 L317 -62 L250 -39 Z M497 82 Q570 82 635 110 Q700 138 748 186 Q796 234 824 298.5 Q852 363 852 437 Q852 489 837.5 536.5 Q823 584 797.5 625 Q772 666 735.5 698.5 Q699 731 656 752 L385 101 Q411 92 439 87 Q467 82 497 82 Z M143 437 Q143 387 156 341.5 Q169 296 192 257 Q215 218 248 185.5 Q281 153 320 131 L590 777 Q566 783 540.5 786.5 Q515 790 489 789 Q417 788 354 760 Q291 732 244 684.5 Q197 637 170 573 Q143 509 143 437 Z " />
<glyph glyph-name="oslashacute" unicode="&#x1ff;" horiz-adv-x="994" d="M250 -39 L288 53 Q237 81 195 121 Q153 161 123 210.5 Q93 260 76.5 317.5 Q60 375 60 437 Q60 527 94.5 607 Q129 687 188 746 Q247 805 327 839.5 Q407 874 497 874 Q561 874 623 854 L668 963 L734 940 L688 830 Q743 803 788 762.5 Q833 722 865.5 671 Q898 620 916 560.5 Q934 501 934 437 Q934 346 899.5 266.5 Q865 187 806 127.5 Q747 68 667.5 34 Q588 0 497 0 Q420 0 353 24 L317 -62 L250 -39 Z M445 1006 L375 1006 L548 1282 L619 1235 L445 1006 Z M497 82 Q570 82 635 110 Q700 138 748 186 Q796 234 824 298.5 Q852 363 852 437 Q852 489 837.5 536.5 Q823 584 797.5 625 Q772 666 735.5 698.5 Q699 731 656 752 L385 101 Q411 92 439 87 Q467 82 497 82 Z M143 437 Q143 387 156 341.5 Q169 296 192 257 Q215 218 248 185.5 Q281 153 320 131 L590 777 Q566 783 540.5 786.5 Q515 790 489 789 Q417 788 354 760 Q291 732 244 684.5 Q197 637 170 573 Q143 509 143 437 Z " />
<glyph glyph-name="otilde" unicode="&#xf5;" horiz-adv-x="994" d="M497 874 Q588 874 667.5 839.5 Q747 805 806 746 Q865 687 899.5 607 Q934 527 934 437 Q934 346 899.5 266.5 Q865 187 806 127.5 Q747 68 667.5 34 Q588 0 497 0 Q407 0 327 34 Q247 68 188 127.5 Q129 187 94.5 266.5 Q60 346 60 437 Q60 527 94.5 607 Q129 687 188 746 Q247 805 327 839.5 Q407 874 497 874 Z M497 82 Q570 82 635 110 Q700 138 748 186 Q796 234 824 298.5 Q852 363 852 437 Q852 510 824 574.5 Q796 639 748 687 Q700 735 635 763 Q570 791 497 791 Q423 791 358.5 763 Q294 735 246 687 Q198 639 170.5 574.5 Q143 510 143 437 Q143 363 170.5 298.5 Q198 234 246 186 Q294 138 358.5 110 Q423 82 497 82 Z M302 1119 Q334 1153 367 1156.5 Q400 1160 432 1148.5 Q464 1137 496.5 1118.5 Q529 1100 561.5 1088.5 Q594 1077 626.5 1080.5 Q659 1084 692 1118 L692 1039 Q659 1005 627 1001.5 Q595 998 562 1009.5 Q529 1021 496.5 1039.5 Q464 1058 432 1069.5 Q400 1081 367 1077.5 Q334 1074 302 1040 L302 1119 Z " />
<glyph glyph-name="oe" unicode="&#x153;" horiz-adv-x="1186" d="M1121 874 L1121 795 L606 795 Q595 795 587 786.5 Q579 778 579 767 L579 505 Q579 493 587 485 Q595 477 606 477 L1121 477 L1121 397 L606 397 Q595 397 587 389 Q579 381 579 370 L579 107 Q579 96 587 88 Q595 80 606 80 L1121 80 L1121 0 L497 0 Q407 0 327 34 Q247 68 188 127.5 Q129 187 94.5 266.5 Q60 346 60 437 Q60 527 94.5 607 Q129 687 188 746.5 Q247 806 327 840.5 Q407 875 497 875 L1121 874 Z M497 794 Q423 794 358 766 Q293 738 244.5 689.5 Q196 641 168 576 Q140 511 140 437 Q140 362 168 297 Q196 232 244.5 183.5 Q293 135 358 107 Q423 79 497 79 L497 794 Z " />
<glyph glyph-name="R" unicode="R" horiz-adv-x="891" d="M842 633 Q842 601 832.5 570 Q823 539 806.5 511.5 Q790 484 766 461.5 Q742 439 714 424 Q704 419 694 415 Q684 411 673 407 Q661 403 652.5 394.5 Q644 386 645 371 Q646 366 658 339.5 Q670 313 688.5 275 Q707 237 729 193.5 Q751 150 770.5 110.5 Q790 71 805.5 40.5 Q821 10 826 0 L735 0 L534 398 L215 398 Q198 398 186.5 386.5 Q175 375 175 358 L175 0 L95 0 L95 875 L603 875 Q653 875 696.5 856 Q740 837 772.5 804 Q805 771 823.5 727 Q842 683 842 633 Z M599 476 Q632 476 661 488.5 Q690 501 712 523 Q734 545 747 573.5 Q760 602 760 635 Q760 670 747.5 699.5 Q735 729 713 751 Q691 773 660.5 785 Q630 797 595 797 L215 797 Q198 797 186.5 786 Q175 775 175 758 L175 515 Q175 498 186.5 487 Q198 476 215 476 L599 476 Z " />
<glyph glyph-name="Racute" unicode="&#x154;" horiz-adv-x="891" d="M842 633 Q842 601 832.5 570 Q823 539 806.5 511.5 Q790 484 766 461.5 Q742 439 714 424 Q704 419 694 415 Q684 411 673 407 Q661 403 652.5 394.5 Q644 386 645 371 Q646 366 658 339.5 Q670 313 688.5 275 Q707 237 729 193.5 Q751 150 770.5 110.5 Q790 71 805.5 40.5 Q821 10 826 0 L735 0 L534 398 L215 398 Q198 398 186.5 386.5 Q175 375 175 358 L175 0 L95 0 L95 875 L603 875 Q653 875 696.5 856 Q740 837 772.5 804 Q805 771 823.5 727 Q842 683 842 633 Z M599 476 Q632 476 661 488.5 Q690 501 712 523 Q734 545 747 573.5 Q760 602 760 635 Q760 670 747.5 699.5 Q735 729 713 751 Q691 773 660.5 785 Q630 797 595 797 L215 797 Q198 797 186.5 786 Q175 775 175 758 L175 515 Q175 498 186.5 487 Q198 476 215 476 L599 476 Z M393 1006 L323 1006 L497 1282 L567 1235 L393 1006 Z " />
<glyph glyph-name="Rcaron" unicode="&#x158;" horiz-adv-x="891" d="M842 633 Q842 601 832.5 570 Q823 539 806.5 511.5 Q790 484 766 461.5 Q742 439 714 424 Q704 419 694 415 Q684 411 673 407 Q661 403 652.5 394.5 Q644 386 645 371 Q646 364 658.5 337.5 Q671 311 689 273.5 Q707 236 728.5 193 Q750 150 769.5 111.5 Q789 73 804.5 42.5 Q820 12 826 0 L735 0 L534 398 L215 398 Q198 398 186.5 386.5 Q175 375 175 358 L175 0 L95 0 L95 875 L603 875 Q653 875 696.5 856 Q740 837 772.5 804 Q805 771 823.5 727 Q842 683 842 633 Z M589 1196 L641 1144 L445 948 L249 1144 L301 1196 L417 1080 Q428 1069 444.5 1069 Q461 1069 472 1080 L530 1138 Q552 1160 570 1178 Q588 1196 589 1196 Z M599 476 Q632 476 661 488.5 Q690 501 712 523 Q734 545 747 573.5 Q760 602 760 635 Q760 670 747.5 699.5 Q735 729 713 751 Q691 773 660.5 785 Q630 797 595 797 L215 797 Q198 797 186.5 786 Q175 775 175 758 L175 515 Q175 498 186.5 487 Q198 476 215 476 L599 476 Z " />
<glyph glyph-name="Rcommaaccent" unicode="&#x156;" horiz-adv-x="891" d="M842 633 Q842 601 832.5 570 Q823 539 806.5 511.5 Q790 484 766 461.5 Q742 439 714 424 Q704 419 694 415 Q684 411 673 407 Q661 403 652.5 394.5 Q644 386 645 371 Q646 364 658.5 337.5 Q671 311 689 273.5 Q707 236 728.5 193 Q750 150 769.5 111.5 Q789 73 804.5 42.5 Q820 12 826 0 L735 0 L534 398 L215 398 Q198 398 186.5 386.5 Q175 375 175 358 L175 0 L95 0 L95 875 L603 875 Q653 875 696.5 856 Q740 837 772.5 804 Q805 771 823.5 727 Q842 683 842 633 Z M599 476 Q632 476 661 488.5 Q690 501 712 523 Q734 545 747 573.5 Q760 602 760 635 Q760 670 747.5 699.5 Q735 729 713 751 Q691 773 660.5 785 Q630 797 595 797 L215 797 Q198 797 186.5 786 Q175 775 175 758 L175 515 Q175 498 186.5 487 Q198 476 215 476 L599 476 Z M403 -142 L486 -142 L464 -423 L403 -423 L403 -142 Z " />
<glyph glyph-name="r" unicode="r" horiz-adv-x="891" d="M842 633 Q842 601 832.5 570 Q823 539 806.5 511.5 Q790 484 766 461.5 Q742 439 714 424 Q704 419 694 415 Q684 411 673 407 Q661 403 652.5 394.5 Q644 386 645 371 Q646 366 658 339.5 Q670 313 688.5 275 Q707 237 729 193.5 Q751 150 770.5 110.5 Q790 71 805.5 40.5 Q821 10 826 0 L735 0 L534 398 L215 398 Q198 398 186.5 386.5 Q175 375 175 358 L175 0 L95 0 L95 875 L603 875 Q653 875 696.5 856 Q740 837 772.5 804 Q805 771 823.5 727 Q842 683 842 633 Z M599 476 Q632 476 661 488.5 Q690 501 712 523 Q734 545 747 573.5 Q760 602 760 635 Q760 670 747.5 699.5 Q735 729 713 751 Q691 773 660.5 785 Q630 797 595 797 L215 797 Q198 797 186.5 786 Q175 775 175 758 L175 515 Q175 498 186.5 487 Q198 476 215 476 L599 476 Z " />
<glyph glyph-name="racute" unicode="&#x155;" horiz-adv-x="891" d="M842 633 Q842 601 832.5 570 Q823 539 806.5 511.5 Q790 484 766 461.5 Q742 439 714 424 Q704 419 694 415 Q684 411 673 407 Q661 403 652.5 394.5 Q644 386 645 371 Q646 366 658 339.5 Q670 313 688.5 275 Q707 237 729 193.5 Q751 150 770.5 110.5 Q790 71 805.5 40.5 Q821 10 826 0 L735 0 L534 398 L215 398 Q198 398 186.5 386.5 Q175 375 175 358 L175 0 L95 0 L95 875 L603 875 Q653 875 696.5 856 Q740 837 772.5 804 Q805 771 823.5 727 Q842 683 842 633 Z M599 476 Q632 476 661 488.5 Q690 501 712 523 Q734 545 747 573.5 Q760 602 760 635 Q760 670 747.5 699.5 Q735 729 713 751 Q691 773 660.5 785 Q630 797 595 797 L215 797 Q198 797 186.5 786 Q175 775 175 758 L175 515 Q175 498 186.5 487 Q198 476 215 476 L599 476 Z M393 1006 L323 1006 L497 1282 L567 1235 L393 1006 Z " />
<glyph glyph-name="rcaron" unicode="&#x159;" horiz-adv-x="891" d="M842 633 Q842 601 832.5 570 Q823 539 806.5 511.5 Q790 484 766 461.5 Q742 439 714 424 Q704 419 694 415 Q684 411 673 407 Q661 403 652.5 394.5 Q644 386 645 371 Q646 364 658.5 337.5 Q671 311 689 273.5 Q707 236 728.5 193 Q750 150 769.5 111.5 Q789 73 804.5 42.5 Q820 12 826 0 L735 0 L534 398 L215 398 Q198 398 186.5 386.5 Q175 375 175 358 L175 0 L95 0 L95 875 L603 875 Q653 875 696.5 856 Q740 837 772.5 804 Q805 771 823.5 727 Q842 683 842 633 Z M589 1196 L641 1144 L445 948 L249 1144 L301 1196 L417 1080 Q428 1069 444.5 1069 Q461 1069 472 1080 L530 1138 Q552 1160 570 1178 Q588 1196 589 1196 Z M599 476 Q632 476 661 488.5 Q690 501 712 523 Q734 545 747 573.5 Q760 602 760 635 Q760 670 747.5 699.5 Q735 729 713 751 Q691 773 660.5 785 Q630 797 595 797 L215 797 Q198 797 186.5 786 Q175 775 175 758 L175 515 Q175 498 186.5 487 Q198 476 215 476 L599 476 Z " />
<glyph glyph-name="rcommaaccent" unicode="&#x157;" horiz-adv-x="891" d="M842 633 Q842 601 832.5 570 Q823 539 806.5 511.5 Q790 484 766 461.5 Q742 439 714 424 Q704 419 694 415 Q684 411 673 407 Q661 403 652.5 394.5 Q644 386 645 371 Q646 364 658.5 337.5 Q671 311 689 273.5 Q707 236 728.5 193 Q750 150 769.5 111.5 Q789 73 804.5 42.5 Q820 12 826 0 L735 0 L534 398 L215 398 Q198 398 186.5 386.5 Q175 375 175 358 L175 0 L95 0 L95 875 L603 875 Q653 875 696.5 856 Q740 837 772.5 804 Q805 771 823.5 727 Q842 683 842 633 Z M599 476 Q632 476 661 488.5 Q690 501 712 523 Q734 545 747 573.5 Q760 602 760 635 Q760 670 747.5 699.5 Q735 729 713 751 Q691 773 660.5 785 Q630 797 595 797 L215 797 Q198 797 186.5 786 Q175 775 175 758 L175 515 Q175 498 186.5 487 Q198 476 215 476 L599 476 Z M403 -142 L486 -142 L464 -423 L403 -423 L403 -142 Z " />
<glyph glyph-name="s" unicode="s" horiz-adv-x="804" d="M136 640 Q136 589 162 558 Q188 527 231 509 Q274 491 328.5 481 Q383 471 439.5 462 Q496 453 550.5 440 Q605 427 648 402.5 Q691 378 717 338 Q743 298 743 234 Q743 188 727.5 153 Q712 118 686 92 Q660 66 626 48.5 Q592 31 553.5 20 Q515 9 475 4.5 Q435 0 398 0 Q360 0 319.5 4 Q279 8 240.5 18.5 Q202 29 167.5 46 Q133 63 107 89 Q81 115 66 151 Q51 187 51 234 L128 234 Q128 186 155.5 155.5 Q183 125 224 107.5 Q265 90 312 84 Q359 78 398 78 Q435 78 480 84 Q525 90 564.5 107.5 Q604 125 631 155.5 Q658 186 658 235 Q658 282 632 309.5 Q606 337 563.5 353 Q521 369 466.5 378 Q412 387 355 396 Q298 405 243.5 419.5 Q189 434 146.5 460.5 Q104 487 78 530 Q52 573 52 641 Q52 710 85 754.5 Q118 799 169 825.5 Q220 852 281 862.5 Q342 873 399 873 Q456 873 516.5 861.5 Q577 850 627.5 821.5 Q678 793 710 746 Q742 699 742 629 L665 629 Q665 677 638 709 Q611 741 570.5 760 Q530 779 483 787 Q436 795 398 795 Q361 795 315.5 789 Q270 783 230 766 Q190 749 163 718.5 Q136 688 136 640 Z " />
<glyph glyph-name="sacute" unicode="&#x15b;" horiz-adv-x="804" d="M136 640 Q136 589 162 558 Q188 527 231 509 Q274 491 328.5 481 Q383 471 439.5 462 Q496 453 550.5 440 Q605 427 648 402.5 Q691 378 717 338 Q743 298 743 234 Q743 188 727.5 153 Q712 118 686 92 Q660 66 626 48.5 Q592 31 553.5 20 Q515 9 475 4.5 Q435 0 398 0 Q360 0 319.5 4 Q279 8 240.5 18.5 Q202 29 167.5 46 Q133 63 107 89 Q81 115 66 151 Q51 187 51 234 L128 234 Q128 186 155.5 155.5 Q183 125 224 107.5 Q265 90 312 84 Q359 78 398 78 Q435 78 480 84 Q525 90 564.5 107.5 Q604 125 631 155.5 Q658 186 658 235 Q658 282 632 309.5 Q606 337 563.5 353 Q521 369 466.5 378 Q412 387 355 396 Q298 405 243.5 419.5 Q189 434 146.5 460.5 Q104 487 78 530 Q52 573 52 641 Q52 710 85 754.5 Q118 799 169 825.5 Q220 852 281 862.5 Q342 873 399 873 Q456 873 516.5 861.5 Q577 850 627.5 821.5 Q678 793 710 746 Q742 699 742 629 L665 629 Q665 677 638 709 Q611 741 570.5 760 Q530 779 483 787 Q436 795 398 795 Q361 795 315.5 789 Q270 783 230 766 Q190 749 163 718.5 Q136 688 136 640 Z M357 1006 L288 1006 L461 1282 L531 1235 L357 1006 Z " />
<glyph glyph-name="scaron" unicode="&#x161;" horiz-adv-x="804" d="M136 640 Q136 589 162 558 Q188 527 231 509 Q274 491 328.5 481 Q383 471 439.5 462 Q496 453 550.5 440 Q605 427 648 402.5 Q691 378 717 338 Q743 298 743 234 Q743 188 727.5 153 Q712 118 686 92 Q660 66 626 48.5 Q592 31 553.5 20 Q515 9 475 4.5 Q435 0 398 0 Q360 0 319.5 4 Q279 8 240.5 18.5 Q202 29 167.5 46 Q133 63 107 89 Q81 115 66 151 Q51 187 51 234 L128 234 Q128 186 155.5 155.5 Q183 125 224 107.5 Q265 90 312 84 Q359 78 398 78 Q435 78 480 84 Q525 90 564.5 107.5 Q604 125 631 155.5 Q658 186 658 235 Q658 282 632 309.5 Q606 337 563.5 353 Q521 369 466.5 378 Q412 387 355 396 Q298 405 243.5 419.5 Q189 434 146.5 460.5 Q104 487 78 530 Q52 573 52 641 Q52 710 85 754.5 Q118 799 169 825.5 Q220 852 281 862.5 Q342 873 399 873 Q456 873 516.5 861.5 Q577 850 627.5 821.5 Q678 793 710 746 Q742 699 742 629 L665 629 Q665 677 638 709 Q611 741 570.5 760 Q530 779 483 787 Q436 795 398 795 Q361 795 315.5 789 Q270 783 230 766 Q190 749 163 718.5 Q136 688 136 640 Z M545 1196 L598 1144 L402 948 L205 1144 L257 1196 L373 1080 Q384 1069 400.5 1069 Q417 1069 428 1080 L486 1138 Q508 1160 526 1178 Q544 1196 545 1196 Z " />
<glyph glyph-name="scedilla" unicode="&#x15f;" horiz-adv-x="804" d="M482 -30 Q499 -47 507.5 -69.5 Q516 -92 516 -116 Q516 -140 507 -162.5 Q498 -185 481 -202 Q463 -220 441 -228.5 Q419 -237 396 -237 Q373 -237 351 -228.5 Q329 -220 311 -202 Q293 -184 284 -161.5 Q275 -139 275 -116 L339 -116 Q339 -139 357 -155 Q373 -172 396.5 -172 Q420 -172 437 -155 Q453 -138 453 -115 Q453 -92 437 -75 L360 1 Q306 4 251 16 Q196 28 151.5 55 Q107 82 79 125.5 Q51 169 51 234 L128 234 Q128 186 155.5 155.5 Q183 125 224 107.5 Q265 90 312 84 Q359 78 398 78 Q435 78 480 84 Q525 90 564.5 107.5 Q604 125 631 155.5 Q658 186 658 235 Q658 282 632 309.5 Q606 337 563.5 353 Q521 369 466.5 378 Q412 387 355 396 Q298 405 243.5 419.5 Q189 434 146.5 460.5 Q104 487 78 530 Q52 573 52 641 Q52 710 85 754.5 Q118 799 169 825.5 Q220 852 281 862.5 Q342 873 399 873 Q456 873 516.5 861.5 Q577 850 627.5 821.5 Q678 793 710 746 Q742 699 742 629 L665 629 Q665 677 638 709 Q611 741 570.5 760 Q530 779 483 787 Q436 795 398 795 Q361 795 315.5 789 Q270 783 230 766 Q190 749 163 718.5 Q136 688 136 640 Q136 589 162 558 Q188 527 231 509 Q274 491 328.5 481 Q383 471 439.5 462 Q496 453 550.5 440 Q605 427 648 402.5 Q691 378 717 338 Q743 298 743 234 Q743 173 716.5 130.5 Q690 88 648 61 Q606 34 553.5 20 Q501 6 449 2 L482 -30 Z " />
<glyph glyph-name="scircumflex" unicode="&#x15d;" horiz-adv-x="804" d="M136 640 Q136 589 162 558 Q188 527 231 509 Q274 491 328.5 481 Q383 471 439.5 462 Q496 453 550.5 440 Q605 427 648 402.5 Q691 378 717 338 Q743 298 743 234 Q743 188 727.5 153 Q712 118 686 92 Q660 66 626 48.5 Q592 31 553.5 20 Q515 9 475 4.5 Q435 0 398 0 Q360 0 319.5 4 Q279 8 240.5 18.5 Q202 29 167.5 46 Q133 63 107 89 Q81 115 66 151 Q51 187 51 234 L128 234 Q128 186 155.5 155.5 Q183 125 224 107.5 Q265 90 312 84 Q359 78 398 78 Q435 78 480 84 Q525 90 564.5 107.5 Q604 125 631 155.5 Q658 186 658 235 Q658 282 632 309.5 Q606 337 563.5 353 Q521 369 466.5 378 Q412 387 355 396 Q298 405 243.5 419.5 Q189 434 146.5 460.5 Q104 487 78 530 Q52 573 52 641 Q52 710 85 754.5 Q118 799 169 825.5 Q220 852 281 862.5 Q342 873 399 873 Q456 873 516.5 861.5 Q577 850 627.5 821.5 Q678 793 710 746 Q742 699 742 629 L665 629 Q665 677 638 709 Q611 741 570.5 760 Q530 779 483 787 Q436 795 398 795 Q361 795 315.5 789 Q270 783 230 766 Q190 749 163 718.5 Q136 688 136 640 Z M544 948 L428 1064 Q417 1075 400.5 1075 Q384 1075 373 1064 L257 948 L205 1000 L402 1196 L598 1000 L545 948 L544 948 Z " />
<glyph glyph-name="scommaaccent" unicode="&#x219;" horiz-adv-x="804" d="M136 640 Q136 589 162 558 Q188 527 231 509 Q274 491 328.5 481 Q383 471 439.5 462 Q496 453 550.5 440 Q605 427 648 402.5 Q691 378 717 338 Q743 298 743 234 Q743 188 727.5 153 Q712 118 686 92 Q660 66 626 48.5 Q592 31 553.5 20 Q515 9 475 4.5 Q435 0 398 0 Q360 0 319.5 4 Q279 8 240.5 18.5 Q202 29 167.5 46 Q133 63 107 89 Q81 115 66 151 Q51 187 51 234 L128 234 Q128 186 155.5 155.5 Q183 125 224 107.5 Q265 90 312 84 Q359 78 398 78 Q435 78 480 84 Q525 90 564.5 107.5 Q604 125 631 155.5 Q658 186 658 235 Q658 282 632 309.5 Q606 337 563.5 353 Q521 369 466.5 378 Q412 387 355 396 Q298 405 243.5 419.5 Q189 434 146.5 460.5 Q104 487 78 530 Q52 573 52 641 Q52 710 85 754.5 Q118 799 169 825.5 Q220 852 281 862.5 Q342 873 399 873 Q456 873 516.5 861.5 Q577 850 627.5 821.5 Q678 793 710 746 Q742 699 742 629 L665 629 Q665 677 638 709 Q611 741 570.5 760 Q530 779 483 787 Q436 795 398 795 Q361 795 315.5 789 Q270 783 230 766 Q190 749 163 718.5 Q136 688 136 640 Z M361 -142 L443 -142 L421 -423 L361 -423 L361 -142 Z " />
<glyph glyph-name="t" unicode="t" horiz-adv-x="787" d="M30 797 L30 875 L757 875 L757 797 L473 797 Q457 797 445.5 786 Q434 775 434 758 L434 0 L353 0 L353 758 Q353 775 341.5 786 Q330 797 313 797 L30 797 Z " />
<glyph glyph-name="tbar" unicode="&#x167;" horiz-adv-x="787" d="M212 398 L212 476 L353 476 L353 758 Q353 775 341.5 786 Q330 797 313 797 L30 797 L30 875 L757 875 L757 797 L473 797 Q457 797 445.5 786 Q434 775 434 758 L434 476 L575 476 L575 398 L434 398 L434 0 L353 0 L353 398 L212 398 Z " />
<glyph glyph-name="tcaron" unicode="&#x165;" horiz-adv-x="787" d="M30 797 L30 875 L757 875 L757 797 L473 797 Q457 797 445.5 786 Q434 775 434 758 L434 0 L353 0 L353 758 Q353 775 341.5 786 Q330 797 313 797 L30 797 Z M537 1196 L589 1144 L393 948 L197 1144 L249 1196 L365 1080 Q376 1069 392.5 1069 Q409 1069 420 1080 L478 1138 Q500 1160 518 1178 Q536 1196 537 1196 Z " />
<glyph glyph-name="tcommaaccent" unicode="&#x163;" horiz-adv-x="787" d="M30 797 L30 875 L757 875 L757 797 L473 797 Q457 797 445.5 786 Q434 775 434 758 L434 0 L353 0 L353 758 Q353 775 341.5 786 Q330 797 313 797 L30 797 Z M352 -142 L435 -142 L413 -423 L352 -423 L352 -142 Z " />
<glyph glyph-name="u" unicode="u" horiz-adv-x="886" d="M713 353 L713 874 L796 874 L796 353 Q796 280 768.5 215.5 Q741 151 693 103 Q645 55 580.5 27.5 Q516 0 443 0 Q370 0 305.5 27.5 Q241 55 193 103 Q145 151 117.5 215.5 Q90 280 90 353 L90 874 L173 874 L173 353 Q173 297 194 247.5 Q215 198 252 161.5 Q289 125 338 104 Q387 83 443 83 Q499 83 548.5 104 Q598 125 634.5 161.5 Q671 198 692 247.5 Q713 297 713 353 Z " />
<glyph glyph-name="uacute" unicode="&#xfa;" horiz-adv-x="886" d="M713 353 L713 874 L796 874 L796 353 Q796 280 768.5 215.5 Q741 151 693 103 Q645 55 580.5 27.5 Q516 0 443 0 Q370 0 305.5 27.5 Q241 55 193 103 Q145 151 117.5 215.5 Q90 280 90 353 L90 874 L173 874 L173 353 Q173 297 194 247.5 Q215 198 252 161.5 Q289 125 338 104 Q387 83 443 83 Q499 83 548.5 104 Q598 125 634.5 161.5 Q671 198 692 247.5 Q713 297 713 353 Z M399 1006 L329 1006 L502 1282 L573 1235 L399 1006 Z " />
<glyph glyph-name="ubreve" unicode="&#x16d;" horiz-adv-x="886" d="M713 353 L713 874 L796 874 L796 353 Q796 280 768.5 215.5 Q741 151 693 103 Q645 55 580.5 27.5 Q516 0 443 0 Q370 0 305.5 27.5 Q241 55 193 103 Q145 151 117.5 215.5 Q90 280 90 353 L90 874 L173 874 L173 353 Q173 297 194 247.5 Q215 198 252 161.5 Q289 125 338 104 Q387 83 443 83 Q499 83 548.5 104 Q598 125 634.5 161.5 Q671 198 692 247.5 Q713 297 713 353 Z M503 1130 L579 1130 Q579 1102 568.5 1077 Q558 1052 539.5 1033.5 Q521 1015 496 1004.5 Q471 994 443 994 Q415 994 390 1004.5 Q365 1015 346.5 1033.5 Q328 1052 317.5 1077 Q307 1102 307 1130 L383 1130 Q383 1105 400.5 1087 Q418 1069 444 1069 Q469 1070 486 1087.5 Q503 1105 503 1130 Z " />
<glyph glyph-name="ucircumflex" unicode="&#xfb;" horiz-adv-x="886" d="M713 353 L713 874 L796 874 L796 353 Q796 280 768.5 215.5 Q741 151 693 103 Q645 55 580.5 27.5 Q516 0 443 0 Q370 0 305.5 27.5 Q241 55 193 103 Q145 151 117.5 215.5 Q90 280 90 353 L90 874 L173 874 L173 353 Q173 297 194 247.5 Q215 198 252 161.5 Q289 125 338 104 Q387 83 443 83 Q499 83 548.5 104 Q598 125 634.5 161.5 Q671 198 692 247.5 Q713 297 713 353 Z M586 948 L470 1064 Q459 1075 442.5 1075 Q426 1075 415 1064 L299 948 L247 1000 L443 1196 L639 1000 L587 948 L586 948 Z " />
<glyph glyph-name="udieresis" unicode="&#xfc;" horiz-adv-x="886" d="M713 353 L713 874 L796 874 L796 353 Q796 280 768.5 215.5 Q741 151 693 103 Q645 55 580.5 27.5 Q516 0 443 0 Q370 0 305.5 27.5 Q241 55 193 103 Q145 151 117.5 215.5 Q90 280 90 353 L90 874 L173 874 L173 353 Q173 297 194 247.5 Q215 198 252 161.5 Q289 125 338 104 Q387 83 443 83 Q499 83 548.5 104 Q598 125 634.5 161.5 Q671 198 692 247.5 Q713 297 713 353 Z M383 1055 Q383 1032 366.5 1015.5 Q350 999 327 999 Q304 999 287.5 1015.5 Q271 1032 271 1055 Q271 1078 287.5 1094.5 Q304 1111 327 1111 Q350 1111 366.5 1094.5 Q383 1078 383 1055 Z M614 1055 Q614 1032 597.5 1015.5 Q581 999 558 999 Q535 999 518.5 1015.5 Q502 1032 502 1055 Q502 1078 518.5 1094.5 Q535 1111 558 1111 Q581 1111 597.5 1094.5 Q614 1078 614 1055 Z " />
<glyph glyph-name="uhungarumlaut" unicode="&#x171;" horiz-adv-x="886" d="M713 353 L713 874 L796 874 L796 353 Q796 280 768.5 215.5 Q741 151 693 103 Q645 55 580.5 27.5 Q516 0 443 0 Q370 0 305.5 27.5 Q241 55 193 103 Q145 151 117.5 215.5 Q90 280 90 353 L90 874 L173 874 L173 353 Q173 297 194 247.5 Q215 198 252 161.5 Q289 125 338 104 Q387 83 443 83 Q499 83 548.5 104 Q598 125 634.5 161.5 Q671 198 692 247.5 Q713 297 713 353 Z M309 1236 L382 1285 L557 1006 L484 1006 L309 1236 Z " />
<glyph glyph-name="ugrave" unicode="&#xf9;" horiz-adv-x="886" d="M713 353 L713 874 L796 874 L796 353 Q796 280 768.5 215.5 Q741 151 693 103 Q645 55 580.5 27.5 Q516 0 443 0 Q370 0 305.5 27.5 Q241 55 193 103 Q145 151 117.5 215.5 Q90 280 90 353 L90 874 L173 874 L173 353 Q173 297 194 247.5 Q215 198 252 161.5 Q289 125 338 104 Q387 83 443 83 Q499 83 548.5 104 Q598 125 634.5 161.5 Q671 198 692 247.5 Q713 297 713 353 Z M562 1006 L492 1006 L665 1282 L736 1235 L562 1006 Z M326 1006 L256 1006 L429 1282 L500 1235 L326 1006 Z " />
<glyph glyph-name="umacron" unicode="&#x16b;" horiz-adv-x="886" d="M713 353 L713 874 L796 874 L796 353 Q796 280 768.5 215.5 Q741 151 693 103 Q645 55 580.5 27.5 Q516 0 443 0 Q370 0 305.5 27.5 Q241 55 193 103 Q145 151 117.5 215.5 Q90 280 90 353 L90 874 L173 874 L173 353 Q173 297 194 247.5 Q215 198 252 161.5 Q289 125 338 104 Q387 83 443 83 Q499 83 548.5 104 Q598 125 634.5 161.5 Q671 198 692 247.5 Q713 297 713 353 Z M261 1052 L261 1130 L624 1130 L624 1052 L261 1052 Z " />
<glyph glyph-name="uogonek" unicode="&#x173;" horiz-adv-x="886" d="M553 -195 Q505 -243 441 -243 Q409 -243 380.5 -230.5 Q352 -218 331 -197 Q310 -176 297.5 -147.5 Q285 -119 285 -87 Q285 -55 296.5 -28 Q308 -1 328 20 Q276 38 232.5 70 Q189 102 157.5 145.5 Q126 189 108 242 Q90 295 90 353 L90 874 L173 874 L173 353 Q173 297 194 247.5 Q215 198 252 161.5 Q289 125 338 104 Q387 83 443 83 Q499 83 548.5 104 Q598 125 634.5 162 Q671 199 692 248 Q713 297 713 353 L713 874 L796 874 L796 353 Q796 280 768 215.5 Q740 151 692 103 Q644 55 579.5 27.5 Q515 0 442 0 Q405 0 379.5 -25 Q354 -50 354 -86 Q354 -121 379 -146 Q404 -171 440 -171 Q457 -171 473 -164 Q489 -157 502 -145 L553 -195 Z " />
<glyph glyph-name="uring" unicode="&#x16f;" horiz-adv-x="886" d="M713 353 L713 874 L796 874 L796 353 Q796 280 768.5 215.5 Q741 151 693 103 Q645 55 580.5 27.5 Q516 0 443 0 Q370 0 305.5 27.5 Q241 55 193 103 Q145 151 117.5 215.5 Q90 280 90 353 L90 874 L173 874 L173 353 Q173 297 194 247.5 Q215 198 252 161.5 Q289 125 338 104 Q387 83 443 83 Q499 83 548.5 104 Q598 125 634.5 161.5 Q671 198 692 247.5 Q713 297 713 353 Z M443 1214 Q468 1214 490.5 1204.5 Q513 1195 529.5 1178.5 Q546 1162 555.5 1140 Q565 1118 565 1093 Q565 1067 555.5 1045 Q546 1023 529.5 1006.5 Q513 990 490.5 980.5 Q468 971 443 971 Q418 971 395.5 980.5 Q373 990 356.5 1006.5 Q340 1023 330.5 1045 Q321 1067 321 1093 Q321 1118 330.5 1140 Q340 1162 356.5 1178.5 Q373 1195 395.5 1204.5 Q418 1214 443 1214 Z M443 1036 Q466 1036 482.5 1052.5 Q499 1069 499 1093 Q499 1116 482.5 1132.5 Q466 1149 443 1149 Q420 1149 403 1132.5 Q386 1116 386 1093 Q386 1069 403 1052.5 Q420 1036 443 1036 Z " />
<glyph glyph-name="utilde" unicode="&#x169;" horiz-adv-x="886" d="M713 353 L713 874 L796 874 L796 353 Q796 280 768.5 215.5 Q741 151 693 103 Q645 55 580.5 27.5 Q516 0 443 0 Q370 0 305.5 27.5 Q241 55 193 103 Q145 151 117.5 215.5 Q90 280 90 353 L90 874 L173 874 L173 353 Q173 297 194 247.5 Q215 198 252 161.5 Q289 125 338 104 Q387 83 443 83 Q499 83 548.5 104 Q598 125 634.5 161.5 Q671 198 692 247.5 Q713 297 713 353 Z M248 1119 Q280 1153 313 1156.5 Q346 1160 378 1148.5 Q410 1137 442.5 1118.5 Q475 1100 507.5 1088.5 Q540 1077 572.5 1080.5 Q605 1084 638 1118 L638 1039 Q605 1005 573 1001.5 Q541 998 508 1009.5 Q475 1021 443 1039.5 Q411 1058 378 1069.5 Q345 1081 312.5 1077.5 Q280 1074 248 1040 L248 1119 Z " />
<glyph glyph-name="w" unicode="w" horiz-adv-x="1315" d="M949 139 L1197 875 L1285 875 L994 0 L905 0 L658 743 L410 0 L322 0 L30 875 L119 875 L366 139 L613 875 L702 875 L949 139 Z " />
<glyph glyph-name="wacute" unicode="&#x1e83;" horiz-adv-x="1315" d="M949 139 L1197 875 L1285 875 L994 0 L905 0 L658 743 L410 0 L322 0 L30 875 L119 875 L366 139 L613 875 L702 875 L949 139 Z M605 1006 L535 1006 L708 1282 L779 1235 L605 1006 Z " />
<glyph glyph-name="wcircumflex" unicode="&#x175;" horiz-adv-x="1315" d="M949 139 L1197 875 L1285 875 L994 0 L905 0 L658 743 L410 0 L322 0 L30 875 L119 875 L366 139 L613 875 L702 875 L949 139 Z M800 948 L684 1064 Q673 1075 656.5 1075 Q640 1075 629 1064 L513 948 L461 1000 L657 1196 L853 1000 L801 948 L800 948 Z " />
<glyph glyph-name="wdieresis" unicode="&#x1e85;" horiz-adv-x="1315" d="M949 139 L1197 875 L1285 875 L994 0 L905 0 L658 743 L410 0 L322 0 L30 875 L119 875 L366 139 L613 875 L702 875 L949 139 Z M598 1055 Q598 1032 581.5 1015.5 Q565 999 542 999 Q519 999 502.5 1015.5 Q486 1032 486 1055 Q486 1078 502.5 1094.5 Q519 1111 542 1111 Q565 1111 581.5 1094.5 Q598 1078 598 1055 Z M829 1055 Q829 1032 812.5 1015.5 Q796 999 773 999 Q750 999 733.5 1015.5 Q717 1032 717 1055 Q717 1078 733.5 1094.5 Q750 1111 773 1111 Q796 1111 812.5 1094.5 Q829 1078 829 1055 Z " />
<glyph glyph-name="wgrave" unicode="&#x1e81;" horiz-adv-x="1315" d="M949 139 L1197 875 L1285 875 L994 0 L905 0 L658 743 L410 0 L322 0 L30 875 L119 875 L366 139 L613 875 L702 875 L949 139 Z M533 1236 L606 1285 L781 1006 L708 1006 L533 1236 Z " />
<glyph glyph-name="y" unicode="y" horiz-adv-x="932" d="M425 410 Q425 426 415 436 L30 874 L135 874 L466 498 L797 874 L902 874 L517 436 Q507 426 507 410 L507 0 L425 0 L425 410 Z " />
<glyph glyph-name="yacute" unicode="&#xfd;" horiz-adv-x="932" d="M425 410 Q425 426 415 436 L30 874 L135 874 L466 498 L797 874 L902 874 L517 436 Q507 426 507 410 L507 0 L425 0 L425 410 Z M495 1006 L425 1006 L598 1282 L669 1235 L495 1006 Z " />
<glyph glyph-name="ycircumflex" unicode="&#x177;" horiz-adv-x="932" d="M425 410 Q425 426 415 436 L30 874 L135 874 L466 498 L797 874 L902 874 L517 436 Q507 426 507 410 L507 0 L425 0 L425 410 Z M609 948 L493 1064 Q482 1075 465.5 1075 Q449 1075 438 1064 L322 948 L270 1000 L466 1196 L662 1000 L610 948 L609 948 Z " />
<glyph glyph-name="ydieresis" unicode="&#xff;" horiz-adv-x="932" d="M425 410 Q425 426 415 436 L30 874 L135 874 L466 498 L797 874 L902 874 L517 436 Q507 426 507 410 L507 0 L425 0 L425 410 Z M637 1055 Q637 1032 620.5 1015.5 Q604 999 581 999 Q558 999 541.5 1015.5 Q525 1032 525 1055 Q525 1078 541.5 1094.5 Q558 1111 581 1111 Q604 1111 620.5 1094.5 Q637 1078 637 1055 Z M406 1055 Q406 1032 389.5 1015.5 Q373 999 350 999 Q327 999 310.5 1015.5 Q294 1032 294 1055 Q294 1078 310.5 1094.5 Q327 1111 350 1111 Q373 1111 389.5 1094.5 Q406 1078 406 1055 Z " />
<glyph glyph-name="ygrave" unicode="&#x1ef3;" horiz-adv-x="932" d="M425 410 Q425 426 415 436 L30 874 L135 874 L466 498 L797 874 L902 874 L517 436 Q507 426 507 410 L507 0 L425 0 L425 410 Z M260 1236 L333 1285 L508 1006 L435 1006 L260 1236 Z " />
<glyph glyph-name="z" unicode="z" horiz-adv-x="831" d="M771 875 L771 797 L161 77 L767 77 L767 0 L52 0 L52 77 L661 797 L52 797 L52 875 L771 875 Z " />
<glyph glyph-name="zacute" unicode="&#x17a;" horiz-adv-x="831" d="M771 875 L771 797 L161 77 L767 77 L767 0 L52 0 L52 77 L661 797 L52 797 L52 875 L771 875 Z M425 1006 L355 1006 L528 1282 L599 1235 L425 1006 Z " />
<glyph glyph-name="zcaron" unicode="&#x17e;" horiz-adv-x="831" d="M771 875 L771 797 L161 77 L767 77 L767 0 L52 0 L52 77 L661 797 L52 797 L52 875 L771 875 Z M559 1196 L611 1144 L415 948 L219 1144 L271 1196 L387 1080 Q398 1069 414.5 1069 Q431 1069 442 1080 L500 1138 Q522 1160 540 1178 Q558 1196 559 1196 Z " />
<glyph glyph-name="zdotaccent" unicode="&#x17c;" horiz-adv-x="831" d="M771 875 L771 797 L161 77 L767 77 L767 0 L52 0 L52 77 L661 797 L52 797 L52 875 L771 875 Z M471 1025 Q471 1002 454.5 985.5 Q438 969 415 969 Q392 969 375.5 985.5 Q359 1002 359 1025 Q359 1048 375.5 1064.5 Q392 1081 415 1081 Q438 1081 454.5 1064.5 Q471 1048 471 1025 Z " />
<glyph glyph-name="yen" unicode="&#xa5;" horiz-adv-x="932" d="M237 166 L237 244 L425 244 L425 400 L425 406 L237 406 L237 484 L373 484 L30 874 L135 874 L466 498 L797 874 L902 874 L558 484 L693 484 L693 406 L507 406 L507 244 L693 244 L693 166 L507 166 L507 0 L425 0 L425 166 L237 166 Z " />
<glyph glyph-name="colon" unicode="&#x3a;" horiz-adv-x="293" d="M146 379 Q120 379 102.5 396.5 Q85 414 85 440 Q85 466 102.5 484 Q120 502 146 502 Q172 502 190 484 Q208 466 208 440 Q208 414 190 396.5 Q172 379 146 379 Z M146 -15 Q120 -15 102.5 2.5 Q85 20 85 46 Q85 72 102.5 89.5 Q120 107 146 107 Q172 107 190 89.5 Q208 72 208 46 Q208 20 190 2.5 Q172 -15 146 -15 Z " />
<glyph glyph-name="semicolon" unicode="&#x3b;" horiz-adv-x="253" d="M70 98 L153 98 L131 -183 L70 -183 L70 98 Z M106 379 Q80 379 62.5 396.5 Q45 414 45 440 Q45 466 62.5 484 Q80 502 106 502 Q132 502 150 484 Q168 466 168 440 Q168 414 150 396.5 Q132 379 106 379 Z " />
<glyph glyph-name="Eng" unicode="&#x14a;" horiz-adv-x="979" d="M801 9 L178 752 L178 0 L95 0 L95 875 L171 875 L801 131 L801 508 L802 508 L802 875 L884 875 L884 -10 Q884 -83 856.5 -147.5 Q829 -212 781 -260 Q733 -308 668.5 -335.5 Q604 -363 531 -363 Q457 -363 393 -335.5 Q329 -308 281 -260 L339 -202 Q376 -239 424.5 -260 Q473 -281 530 -281 Q586 -281 635.5 -259.5 Q685 -238 721.5 -201 Q758 -164 779.5 -115 Q801 -66 801 -10 L801 9 Z " />
<glyph glyph-name="eng" unicode="&#x14b;" horiz-adv-x="979" d="M801 9 L178 752 L178 0 L95 0 L95 875 L171 875 L801 131 L801 508 L802 508 L802 875 L884 875 L884 -10 Q884 -83 856.5 -147.5 Q829 -212 781 -260 Q733 -308 668.5 -335.5 Q604 -363 531 -363 Q457 -363 393 -335.5 Q329 -308 281 -260 L339 -202 Q376 -239 424.5 -260 Q473 -281 530 -281 Q586 -281 635.5 -259.5 Q685 -238 721.5 -201 Q758 -164 779.5 -115 Q801 -66 801 -10 L801 9 Z " />
<glyph glyph-name="x" unicode="x" horiz-adv-x="926" d="M791 875 L895 875 L539 463 Q529 452 529 437 Q529 422 539 411 L896 0 L791 0 L463 376 L134 0 L30 0 L387 411 Q397 422 397 437 Q397 452 387 463 L31 875 L136 875 L463 501 L791 875 Z " />
<glyph glyph-name="g" unicode="g" horiz-adv-x="1023" d="M496 445 L938 445 L938 0 L859 0 L859 198 Q831 153 792.5 116.5 Q754 80 707.5 54 Q661 28 607.5 14 Q554 0 497 0 Q407 0 327 34 Q247 68 188 127.5 Q129 187 94.5 266.5 Q60 346 60 437 Q60 527 94.5 607 Q129 687 188 746 Q247 805 327 839.5 Q407 874 497 874 Q588 874 667 840 Q746 806 806 746 L747 687 Q699 735 634.5 763 Q570 791 497 791 Q423 791 358.5 763 Q294 735 246 687 Q198 639 170.5 574.5 Q143 510 143 437 Q143 363 170.5 298 Q198 233 246.5 184 Q295 135 360.5 107 Q426 79 502 80 Q568 80 626.5 102 Q685 124 731 163 Q777 202 807.5 254 Q838 306 849 366 L496 366 L496 445 Z " />
<glyph glyph-name="gbreve" unicode="&#x11f;" horiz-adv-x="1023" d="M496 445 L938 445 L938 0 L859 0 L859 198 Q831 153 792.5 116.5 Q754 80 707.5 54 Q661 28 607.5 14 Q554 0 497 0 Q407 0 327 34 Q247 68 188 127.5 Q129 187 94.5 266.5 Q60 346 60 437 Q60 527 94.5 607 Q129 687 188 746 Q247 805 327 839.5 Q407 874 497 874 Q588 874 667 840 Q746 806 806 746 L747 687 Q699 735 634.5 763 Q570 791 497 791 Q423 791 358.5 763 Q294 735 246 687 Q198 639 170.5 574.5 Q143 510 143 437 Q143 363 170.5 298 Q198 233 246.5 184 Q295 135 360.5 107 Q426 79 502 80 Q568 80 626.5 102 Q685 124 731 163 Q777 202 807.5 254 Q838 306 849 366 L496 366 L496 445 Z M512 1069 Q537 1070 554.5 1087.5 Q572 1105 572 1130 L648 1130 Q648 1102 637.5 1077 Q627 1052 608 1033.5 Q589 1015 564 1004.5 Q539 994 511 994 Q483 994 458 1004.5 Q433 1015 414.5 1033.5 Q396 1052 385.5 1077 Q375 1102 375 1130 L451 1130 Q451 1105 469 1087 Q487 1069 512 1069 Z " />
<glyph glyph-name="gcircumflex" unicode="&#x11d;" horiz-adv-x="1023" d="M496 445 L938 445 L938 0 L859 0 L859 198 Q831 153 792.5 116.5 Q754 80 707.5 54 Q661 28 607.5 14 Q554 0 497 0 Q407 0 327 34 Q247 68 188 127.5 Q129 187 94.5 266.5 Q60 346 60 437 Q60 527 94.5 607 Q129 687 188 746 Q247 805 327 839.5 Q407 874 497 874 Q588 874 667 840 Q746 806 806 746 L747 687 Q699 735 634.5 763 Q570 791 497 791 Q423 791 358.5 763 Q294 735 246 687 Q198 639 170.5 574.5 Q143 510 143 437 Q143 363 170.5 298 Q198 233 246.5 184 Q295 135 360.5 107 Q426 79 502 80 Q568 80 626.5 102 Q685 124 731 163 Q777 202 807.5 254 Q838 306 849 366 L496 366 L496 445 Z M654 948 L564 1039 Q556 1047 546.5 1056 Q537 1065 526.5 1070.5 Q516 1076 505 1075.5 Q494 1075 483 1064 L367 948 L315 1000 L511 1196 L707 1000 L655 948 L654 948 Z " />
<glyph glyph-name="gcommaaccent" unicode="&#x123;" horiz-adv-x="1023" d="M496 445 L938 445 L938 0 L859 0 L859 198 Q831 153 792.5 116.5 Q754 80 707.5 54 Q661 28 607.5 14 Q554 0 497 0 Q407 0 327 34 Q247 68 188 127.5 Q129 187 94.5 266.5 Q60 346 60 437 Q60 527 94.5 607 Q129 687 188 746 Q247 805 327 839.5 Q407 874 497 874 Q588 874 667 840 Q746 806 806 746 L747 687 Q699 735 634.5 763 Q570 791 497 791 Q423 791 358.5 763 Q294 735 246 687 Q198 639 170.5 574.5 Q143 510 143 437 Q143 363 170.5 298 Q198 233 246.5 184 Q295 135 360.5 107 Q426 79 502 80 Q568 80 626.5 102 Q685 124 731 163 Q777 202 807.5 254 Q838 306 849 366 L496 366 L496 445 Z M470 -142 L553 -142 L531 -423 L470 -423 L470 -142 Z " />
<glyph glyph-name="gdotaccent" unicode="&#x121;" horiz-adv-x="1023" d="M496 445 L938 445 L938 0 L859 0 L859 198 Q831 153 792.5 116.5 Q754 80 707.5 54 Q661 28 607.5 14 Q554 0 497 0 Q407 0 327 34 Q247 68 188 127.5 Q129 187 94.5 266.5 Q60 346 60 437 Q60 527 94.5 607 Q129 687 188 746 Q247 805 327 839.5 Q407 874 497 874 Q588 874 667 840 Q746 806 806 746 L747 687 Q699 735 634.5 763 Q570 791 497 791 Q423 791 358.5 763 Q294 735 246 687 Q198 639 170.5 574.5 Q143 510 143 437 Q143 363 170.5 298 Q198 233 246.5 184 Q295 135 360.5 107 Q426 79 502 80 Q568 80 626.5 102 Q685 124 731 163 Q777 202 807.5 254 Q838 306 849 366 L496 366 L496 445 Z M567 1025 Q567 1002 550.5 985.5 Q534 969 511 969 Q488 969 472 985.5 Q456 1002 456 1025 Q456 1048 472 1064.5 Q488 1081 511 1081 Q534 1081 550.5 1064.5 Q567 1048 567 1025 Z " />
<glyph glyph-name="cent" unicode="&#xa2;" horiz-adv-x="847" d="M432 -109 L432 5 Q351 15 281.5 52.5 Q212 90 160.5 148 Q109 206 79.5 280.5 Q50 355 50 438 Q50 521 79.5 595.5 Q109 670 160.5 727.5 Q212 785 281.5 822.5 Q351 860 432 870 L432 984 L514 984 L514 873 Q593 868 666.5 836 Q740 804 797 747 L738 689 Q688 739 624 765.5 Q560 792 489 792 Q416 792 351 764 Q286 736 237.5 688 Q189 640 161 575.5 Q133 511 133 438 Q133 365 160.5 300.5 Q188 236 236 187.5 Q284 139 348.5 111 Q413 83 486 83 Q557 83 622 109.5 Q687 136 738 187 L797 128 Q740 71 666.5 38.5 Q593 6 514 1 L514 -109 L432 -109 Z " />
<glyph glyph-name="brokenbar" unicode="&#xa6;" horiz-adv-x="342" d="M130 -109 L130 338 L212 338 L212 -109 L130 -109 Z M212 543 L130 543 L130 984 L212 984 L212 543 Z " />
<glyph glyph-name="dollar" unicode="&#x24;" horiz-adv-x="804" d="M134 640 Q134 588 160 557 Q186 526 229 507.5 Q272 489 326.5 479 Q381 469 438.5 459.5 Q496 450 550.5 437 Q605 424 648 399.5 Q691 375 717 335 Q743 295 743 232 Q743 170 715.5 127.5 Q688 85 645 58 Q602 31 548 18 Q494 5 442 2 L442 -109 L360 -109 L360 2 Q306 4 251 16 Q196 28 151.5 54 Q107 80 79 123.5 Q51 167 51 233 L127 233 Q127 184 154.5 153.5 Q182 123 223.5 105.5 Q265 88 312 82 Q359 76 398 76 Q435 76 480.5 82.5 Q526 89 566 106 Q606 123 633.5 154 Q661 185 661 233 Q661 280 635 308 Q609 336 566 352.5 Q523 369 468.5 378.5 Q414 388 356.5 397.5 Q299 407 244.5 421 Q190 435 147 461.5 Q104 488 78 531 Q52 574 52 641 Q52 704 80.5 747 Q109 790 153.5 816.5 Q198 843 252.5 855.5 Q307 868 360 871 L360 984 L442 984 L442 871 Q495 867 549 853 Q603 839 646 811 Q689 783 715.5 739 Q742 695 742 631 L666 631 Q666 663 653.5 688 Q641 713 619.5 731.5 Q598 750 570.5 762.5 Q543 775 513 782.5 Q483 790 453 793.5 Q423 797 398 797 Q361 797 315 790.5 Q269 784 229 767 Q189 750 161.5 719 Q134 688 134 640 Z " />
<glyph glyph-name="braceright" unicode="&#x7d;" horiz-adv-x="547" d="M1 1030 L1 1105 L56 1105 Q107 1105 152.5 1085.5 Q198 1066 232 1032.5 Q266 999 285.5 953.5 Q305 908 305 857 L305 649 Q305 613 319.5 582 Q334 551 358.5 528.5 Q383 506 415 493 Q447 480 483 480 L497 480 L497 400 L483 400 Q447 400 415 387 Q383 374 358.5 351.5 Q334 329 319.5 297.5 Q305 266 305 230 L305 16 Q305 -34 285.5 -78 Q266 -122 233 -155 Q200 -188 156 -207 Q112 -226 62 -226 L1 -226 L1 -150 L49 -150 Q85 -150 117 -137 Q149 -124 173.5 -101.5 Q198 -79 212.5 -47.5 Q227 -16 227 20 L227 238 Q227 303 259.5 356 Q292 409 345 440 Q292 471 260 524 Q228 577 228 642 L228 860 Q228 896 213.5 927.5 Q199 959 174.5 981.5 Q150 1004 118 1017 Q86 1030 50 1030 L1 1030 Z " />
<glyph glyph-name="exclamdown" unicode="&#xa1;" horiz-adv-x="282" d="M141 1035 Q167 1035 184.5 1017.5 Q202 1000 202 974 Q202 948 184.5 930 Q167 912 141 912 Q115 912 97.5 930 Q80 948 80 974 Q80 1000 97.5 1017.5 Q115 1035 141 1035 Z M100 750 L181 750 L181 -15 L100 -15 L100 750 Z " />
<glyph glyph-name="questiondown" unicode="&#xbf;" horiz-adv-x="724" d="M15 248 Q15 306 34.5 348.5 Q54 391 86.5 425 Q119 459 160 487.5 Q201 516 243 546 Q267 563 281 579 Q295 595 302.5 617 Q310 639 312 670.5 Q314 702 314 750 L393 750 Q393 702 390.5 664.5 Q388 627 372.5 592.5 Q357 558 322 522 Q287 486 221 439 Q196 421 173.5 401.5 Q151 382 133.5 359 Q116 336 106 308.5 Q96 281 96 248 Q96 192 118.5 156.5 Q141 121 177 100.5 Q213 80 259.5 72 Q306 64 354 64 Q403 64 449.5 78 Q496 92 532 119.5 Q568 147 590 188.5 Q612 230 612 284 L694 284 Q694 212 666 156.5 Q638 101 591 63 Q544 25 482.5 5 Q421 -15 354 -15 Q289 -15 228 -2 Q167 11 119.5 41.5 Q72 72 43.5 122.5 Q15 173 15 248 Z M347 1035 Q373 1035 390.5 1017.5 Q408 1000 408 974 Q408 948 390.5 930 Q373 912 347 912 Q321 912 303.5 930 Q286 948 286 974 Q286 1000 303.5 1017.5 Q321 1035 347 1035 Z " />
<glyph glyph-name="guillemotright" unicode="&#xbb;" horiz-adv-x="820" d="M378 727 L429 787 L770 501 L770 433 L429 147 L378 207 Q455 271 506 313.5 Q557 356 591 384.5 Q625 413 647 431.5 Q669 450 689 467 L378 727 Z M50 727 L101 787 L442 501 L442 433 L101 147 L50 207 L361 467 L50 727 Z " />
<glyph glyph-name="ellipsis" unicode="&#x2026;" horiz-adv-x="878" d="M146 -15 Q120 -15 102.5 2.5 Q85 20 85 46 Q85 72 102.5 89.5 Q120 107 146 107 Q172 107 190 89.5 Q208 72 208 46 Q208 20 190 2.5 Q172 -15 146 -15 Z M439 -15 Q413 -15 395.5 2.5 Q378 20 378 46 Q378 72 395.5 89.5 Q413 107 439 107 Q465 107 482.5 89.5 Q500 72 500 46 Q500 20 482.5 2.5 Q465 -15 439 -15 Z M731 -15 Q706 -15 688 2.5 Q670 20 670 46 Q670 72 688 89.5 Q706 107 731 107 Q757 107 775 89.5 Q793 72 793 46 Q793 20 775 2.5 Q757 -15 731 -15 Z " />
<glyph glyph-name="greater" unicode="&#x3e;" horiz-adv-x="341" d="M75 191 L20 247 L211 437 L20 638 L75 692 L321 436 L75 191 Z " />
<glyph glyph-name="greaterequal" unicode="&#x2265;" horiz-adv-x="490" d="M20 181 L20 260 L123 265 L299 437 L109 638 L164 692 L410 436 L227 260 L470 260 L470 181 L20 181 Z " />
<glyph glyph-name="approxequal" unicode="&#x2248;" horiz-adv-x="418" d="M20 428 Q51 461 83 464.5 Q115 468 146 457 Q177 446 209 427.5 Q241 409 272 398 Q303 387 335 390.5 Q367 394 398 427 L398 349 Q366 316 335 312.5 Q304 309 272 320 Q240 331 208.5 349.5 Q177 368 146 379 Q115 390 83 386.5 Q51 383 20 350 L20 428 Z M20 544 Q51 577 83 580.5 Q115 584 146 573 Q177 562 209 543.5 Q241 525 272 514 Q303 503 335 506.5 Q367 510 398 543 L398 465 Q366 432 335 428.5 Q304 425 272 436 Q240 447 208.5 465.5 Q177 484 146 495 Q115 506 83 502.5 Q51 499 20 466 L20 544 Z " />
<glyph glyph-name="dagger" unicode="&#x2020;" horiz-adv-x="454" d="M4 397 L4 477 L186 477 L186 984 L268 984 L268 477 L450 477 L450 397 L268 397 L268 -109 L186 -109 L186 397 L4 397 Z " />
<glyph glyph-name="daggerdbl" unicode="&#x2021;" horiz-adv-x="454" d="M4 272 L4 352 L186 352 L186 522 L4 522 L4 602 L186 602 L186 984 L268 984 L268 602 L450 602 L450 522 L268 522 L268 352 L450 352 L450 272 L268 272 L268 -109 L186 -109 L186 272 L4 272 Z " />
<glyph glyph-name="section" unicode="&#xa7;" horiz-adv-x="804" d="M134 907 Q134 854 160 822.5 Q186 791 229 773.5 Q272 756 327 747 Q382 738 439 729 Q496 720 551 707 Q606 694 649 668 Q692 642 718 598.5 Q744 555 744 486 Q744 444 727.5 411.5 Q711 379 683.5 354.5 Q656 330 620.5 313.5 Q585 297 548 288 Q588 277 624 261.5 Q660 246 686 222.5 Q712 199 727.5 165 Q743 131 743 84 Q743 15 710 -29.5 Q677 -74 626 -100.5 Q575 -127 514 -137.5 Q453 -148 398 -148 Q360 -148 319.5 -144 Q279 -140 240.5 -129.5 Q202 -119 167.5 -102 Q133 -85 107 -59.5 Q81 -34 66 2 Q51 38 51 85 L127 85 Q127 36 154.5 5.5 Q182 -25 223.5 -42.5 Q265 -60 312 -66 Q359 -72 398 -72 Q435 -72 480.5 -65.5 Q526 -59 566 -42 Q606 -25 633.5 6 Q661 37 661 85 Q661 132 634 160 Q607 188 563 204.5 Q519 221 463 231 Q407 241 348.5 251.5 Q290 262 235 277 Q180 292 138 319 Q96 346 71.5 389.5 Q47 433 51 500 L52 500 Q53 540 67 572 Q81 604 103.5 628 Q126 652 156 669 Q186 686 220 697 Q184 709 153.5 726 Q123 743 100.5 768 Q78 793 65 827.5 Q52 862 52 908 Q52 954 67.5 989 Q83 1024 109 1049.5 Q135 1075 169.5 1092.5 Q204 1110 242.5 1120.5 Q281 1131 321 1135.5 Q361 1140 398 1140 Q454 1140 515 1128.5 Q576 1117 626.5 1089.5 Q677 1062 709.5 1015 Q742 968 742 898 L666 898 Q666 930 653.5 955 Q641 980 619.5 998.5 Q598 1017 570.5 1029.5 Q543 1042 513 1049.5 Q483 1057 453 1060.5 Q423 1064 398 1064 Q361 1064 315 1057.5 Q269 1051 229 1034 Q189 1017 161.5 986 Q134 955 134 907 Z M398 652 Q361 652 315 645.5 Q269 639 228.5 621.5 Q188 604 160.5 573 Q133 542 133 492 Q133 459 146 435 Q159 411 180 394 Q201 377 228.5 366 Q256 355 285.5 349 Q315 343 344 341 Q373 339 398 339 Q434 339 479.5 345 Q525 351 565 368.5 Q605 386 632.5 416.5 Q660 447 660 496 Q661 539 636 568.5 Q611 598 572 616.5 Q533 635 486.5 643.5 Q440 652 398 652 Z " />
<glyph glyph-name="NULL" d="" />
<glyph glyph-name="nonmarkingreturn" unicode="&#xd;" horiz-adv-x="454" d="" />
<glyph glyph-name="A" unicode="A" horiz-adv-x="934" d="M904 0 L816 0 L682 297 Q677 310 665 317.5 Q653 325 639 325 L295 325 Q281 325 269 317.5 Q257 310 252 297 L118 0 L30 0 L423 875 L511 875 L904 0 Z M300 404 L634 404 L467 777 L300 404 Z " />
</font>
</svg>
