<?xml version="1.0" encoding="UTF-8"?>
<svg xmlns="http://www.w3.org/2000/svg" xmlns:xlink="http://www.w3.org/1999/xlink" version="1.2" >
<font id="Lorano ExtraBlack Oblique">
<font-face  font-family="Lorano" units-per-em="1000" ascent="875" descent="-179" font-style="italic" font-weight="950" font-stretch="normal" cap-height="875" x-height="875" underline-position="0" underline-thickness="0" />
<missing-glyph  horiz-adv-x="454" d="" />
<glyph glyph-name="B" unicode="B" horiz-adv-x="881" d="M904.582 640 Q896.478 574 857.471 521 Q818.463 468 761.657 437 Q810.973 407 836.904 353.5 Q862.835 300 854.732 234 Q848.838 186 825.058 143 Q801.278 100 765.411 68.5 Q729.543 37 684.772 18.5 Q640 0 591 0 L95 0 L202.436 875 L698.436 875 Q747.436 875 787.665 856.5 Q827.893 838 855.964 806 Q884.035 774 897.317 731.5 Q910.599 689 904.582 640 Z M619.433 256 Q623.362 288 603.186 311 Q583.01 334 551.01 334 L412.01 334 Q401.01 334 393.151 327 Q385.291 320 383.94 309 L371.171 205 Q369.82 194 375.961 187 Q382.101 180 393.101 180 L532.101 180 Q564.101 180 589.802 202 Q615.504 224 619.433 256 Z M576.795 544 Q608.795 544 632.996 566 Q657.197 588 661.004 619 Q664.933 651 646.134 673 Q627.335 695 595.335 695 L456.335 695 Q445.335 695 437.414 687.5 Q429.494 680 428.143 669 L415.742 568 Q414.391 557 420.532 550 Q426.672 543 437.672 543 L576.795 544 Z " />
<glyph glyph-name="C" unicode="C" horiz-adv-x="847" d="M565.618 624 Q526.618 624 490.837 609.5 Q455.057 595 426.426 569.5 Q397.795 544 378.682 510.5 Q359.568 477 354.78 438 Q349.991 399 360.316 365 Q370.642 331 393.011 305.5 Q415.38 280 447.099 265.5 Q478.819 251 517.819 251 Q555.819 251 591.538 265 Q627.257 279 656.572 306 L812.716 128 Q743.104 66 658.552 33 Q574 0 487 0 Q397 0 321.236 34.5 Q245.472 69 193.778 128.5 Q142.083 188 117.406 268 Q92.729 348 103.78 438 Q114.83 528 159.153 608 Q203.476 688 269.72 747 Q335.964 806 420.2 840.5 Q504.436 875 594.436 875 Q681.436 875 757.885 842 Q834.333 809 888.72 747 L688.864 569 Q666.057 595 633.837 609.5 Q601.618 624 565.618 624 Z " />
<glyph glyph-name="D" unicode="D" horiz-adv-x="970" d="M575.436 875 Q665.436 875 741.2 840.5 Q816.964 806 868.659 746.5 Q920.353 687 945.03 607 Q969.707 527 958.657 437 Q947.606 347 903.283 267 Q858.961 187 792.716 128 Q726.472 69 642.236 34.5 Q558 0 468 0 L95 0 L202.436 875 L575.436 875 Z M707.534 436 Q711.954 472 702.129 506 Q692.304 540 671.057 566.5 Q649.811 593 618.714 608.5 Q587.618 624 549.618 624 L447.618 624 Q436.618 624 428.697 616.5 Q420.776 609 419.425 598 L379.889 276 Q378.538 265 384.678 258 Q390.819 251 401.819 251 L503.819 251 Q540.819 251 575.222 266.5 Q609.625 282 637.756 307.5 Q665.887 333 684.501 366.5 Q703.114 400 707.534 436 Z " />
<glyph glyph-name="E" unicode="E" horiz-adv-x="856" d="M417.969 578 Q416.496 566 423.514 558 Q430.532 550 441.532 550 L858.532 550 L831.642 331 L414.642 331 Q403.642 331 394.659 323 Q385.677 315 384.327 304 L377.205 246 Q375.854 235 382.872 227 Q389.89 219 400.89 219 L817.89 219 L791 0 L95 0 L202.436 875 L898.314 874 L871.301 654 L454.301 654 Q443.301 654 434.257 645.5 Q425.214 637 423.863 626 L417.969 578 Z " />
<glyph glyph-name="F" unicode="F" horiz-adv-x="831" d="M417.969 578 Q416.496 566 423.514 558 Q430.532 550 441.532 550 L858.532 550 L831.642 331 L414.642 331 Q403.642 331 394.659 323 Q385.677 315 384.327 304 L347 0 L95 0 L202.436 875 L898.314 874 L871.424 655 L454.424 655 Q443.424 655 434.442 647 Q425.459 639 423.986 627 L417.969 578 Z " />
<glyph glyph-name="G" unicode="G" horiz-adv-x="1054" d="M560.848 520 L1042.85 520 L979 0 L774 0 L788.489 118 Q765.928 89 732.227 67 Q698.525 45 659.184 30 Q619.842 15 577.921 7.5 Q536 0 497 0 Q407 0 331.175 34 Q255.349 68 203.655 127.5 Q151.961 187 127.222 266.5 Q102.483 346 113.657 437 Q124.707 527 169.03 607 Q213.353 687 279.597 746 Q345.842 805 430.078 839.5 Q514.314 874 604.314 874 Q695.314 874 770.139 840 Q844.964 806 897.597 746 L697.619 567 Q674.688 592 642.969 606.5 Q611.249 621 573.249 621 Q535.249 621 499.969 606.5 Q464.688 592 436.619 567 Q408.549 542 389.936 508.5 Q371.323 475 366.657 437 Q361.868 398 368.457 358 Q375.045 318 399.178 286.5 Q423.31 255 468.161 237.5 Q513.013 220 584.749 226 Q620.118 229 650.714 242 Q681.31 255 703.59 269.5 Q725.871 284 738.467 297 Q751.063 310 750.432 313 L535.432 313 L560.848 520 Z " />
<glyph glyph-name="H" unicode="H" horiz-adv-x="1022" d="M755.969 578 L792.436 875 L1034.44 875 L927 0 L685 0 L722.204 303 Q723.554 314 716.598 322.5 Q709.642 331 698.642 331 L404.642 331 Q393.642 331 384.598 322.5 Q375.554 314 374.204 303 L337 0 L95 0 L202.436 875 L444.436 875 L407.969 578 Q406.619 567 413.575 558.5 Q420.532 550 431.532 550 L725.532 550 Q736.532 550 745.575 558.5 Q754.619 567 755.969 578 Z " />
<glyph glyph-name="I" unicode="I" horiz-adv-x="502" d="M130 0 L237.436 875 L479.436 875 L372 0 L130 0 Z " />
<glyph glyph-name="J" unicode="J" horiz-adv-x="728" d="M429.834 357 L493.314 874 L745.314 874 L681.343 353 Q672.38 280 636.96 215.5 Q601.54 151 547.647 103 Q493.753 55 425.877 27.5 Q358 0 285 0 Q211 0 150.377 27.5 Q89.7532 55 47.6468 103 L237.52 273 Q249.801 259 268.371 255.5 Q286.942 252 308.942 252 Q330.942 252 351.485 260.5 Q372.029 269 388.748 283 Q405.467 297 416.361 316.5 Q427.256 336 429.834 357 Z " />
<glyph glyph-name="K" unicode="K" horiz-adv-x="1052" d="M1119.44 875 L679.78 438 L1012 0 L716 0 L473.923 317 Q464.642 331 446.642 331 L404.642 331 Q393.642 331 384.598 322.5 Q375.554 314 374.204 303 L337 0 L95 0 L202.436 875 L444.436 875 L407.969 578 Q406.619 567 413.575 558.5 Q420.532 550 431.532 550 L478.532 550 Q496.532 550 510.25 564 L822.436 875 L1119.44 875 Z " />
<glyph glyph-name="L" unicode="L" horiz-adv-x="830" d="M454.436 875 L379.17 262 Q376.714 242 386.302 230.5 Q395.89 219 415.89 219 L821.89 219 L795 0 L95 0 L202.436 875 L454.436 875 Z " />
<glyph glyph-name="M" unicode="M" horiz-adv-x="1173" d="M933.436 875 L1185.44 875 L1078 0 L826 0 L895.005 562 L625.537 322 L416.005 562 L347 0 L95 0 L202.436 875 L454.436 875 L646.424 655 Q653.442 647 665.442 647 Q677.442 647 686.424 655 L933.436 875 Z " />
<glyph glyph-name="N" unicode="N" horiz-adv-x="1079" d="M777.43 370 L839.436 875 L1091.44 875 L984 0 L739 0 L410.866 512 L348 0 L95 0 L202.436 875 L448.436 875 L777.43 370 Z " />
<glyph glyph-name="O" unicode="O" horiz-adv-x="994" d="M527.696 250 Q566.696 250 602.477 264.5 Q638.257 279 666.888 304.5 Q695.519 330 714.194 364 Q732.868 398 737.657 437 Q742.445 476 732.059 509.5 Q721.672 543 699.303 568.5 Q676.934 594 644.714 608.5 Q612.495 623 573.495 623 Q534.495 623 499.214 608.5 Q463.934 594 435.303 568.5 Q406.672 543 388.059 509.5 Q369.445 476 364.657 437 Q359.868 398 370.194 364 Q380.519 330 402.888 304.5 Q425.257 279 456.977 264.5 Q488.696 250 527.696 250 Z M604.314 874 Q695.314 874 770.578 839.5 Q845.842 805 897.597 746 Q949.353 687 974.03 607 Q998.707 527 987.657 437 Q976.483 346 932.222 266.5 Q887.961 187 821.655 127.5 Q755.349 68 671.675 34 Q588 0 497 0 Q407 0 331.175 34 Q255.349 68 203.655 127.5 Q151.961 187 127.222 266.5 Q102.483 346 113.657 437 Q124.707 527 169.03 607 Q213.353 687 279.597 746 Q345.842 805 430.078 839.5 Q514.314 874 604.314 874 Z " />
<glyph glyph-name="P" unicode="P" horiz-adv-x="883" d="M571.83 528 Q603.83 528 629.47 549.5 Q655.11 571 659.039 603 Q662.968 635 644.169 657 Q625.371 679 594.371 679 L455.371 679 Q444.371 679 436.45 671.5 Q428.529 664 427.178 653 L415.268 556 Q413.918 545 420.874 536.5 Q427.83 528 438.83 528 L571.83 528 Z M651.436 875 Q708.436 875 756.858 854 Q805.28 833 839.237 796 Q873.193 759 890.116 709.5 Q907.038 660 900.039 603 Q893.163 547 865.585 497.5 Q838.007 448 796.464 411 Q754.921 374 702.782 352.5 Q650.642 331 594.642 331 L414.642 331 Q403.642 331 394.598 322.5 Q385.554 314 384.204 303 L347 0 L95 0 L202.436 875 L651.436 875 Z " />
<glyph glyph-name="Q" unicode="Q" horiz-adv-x="995" d="M588.191 873 Q681.682 877 760.63 844 Q839.578 811 893.773 751.5 Q947.967 692 974.021 611 Q1000.08 530 988.657 437 Q979.571 363 955.002 309.5 Q930.433 256 900.267 218 Q870.101 180 838.532 155 Q806.962 130 783.752 112 Q765.033 98 758.384 80.5 Q751.735 63 764.016 49 L845.597 -44 L694.144 -178 L536.123 1 Q527 0 517.5 0 Q508 0 498 0 Q405 0 328.42 36 Q251.84 72 199.892 133.5 Q147.943 195 125.073 277.5 Q102.202 360 116.744 454 Q130.058 538 173.767 613 Q217.476 688 281.474 745 Q345.473 802 424.648 836 Q503.823 870 588.191 873 Z M528.819 251 Q566.819 251 602.099 265.5 Q637.38 280 665.011 305.5 Q692.642 331 711.255 364.5 Q729.868 398 734.657 437 Q739.2 474 728.813 507.5 Q718.426 541 696.935 565.5 Q675.443 590 643.723 604.5 Q612.004 619 574.004 619 Q536.004 619 500.223 604.5 Q464.443 590 436.435 565.5 Q408.426 541 389.813 507.5 Q371.2 474 366.657 437 Q361.868 398 372.255 364.5 Q382.642 331 404.511 305.5 Q426.38 280 458.599 265.5 Q490.819 251 528.819 251 Z " />
<glyph glyph-name="S" unicode="S" horiz-adv-x="914" d="M363.916 602 Q360.724 576 383.935 565.5 Q407.145 555 446.277 552 Q485.409 549 536.47 549.5 Q587.532 550 639.54 546 Q691.549 542 741.014 529.5 Q790.48 517 826.48 488.5 Q862.481 460 881.026 411.5 Q899.571 363 890.239 287 Q883.732 234 860.136 192.5 Q836.54 151 801.111 119 Q765.682 87 721.92 64.5 Q678.157 42 631.877 27.5 Q585.596 13 540.298 6.5 Q495 0 456 0 Q396 0 327.28 14.5 Q258.561 29 201.174 62.5 Q143.787 96 110.102 151.5 Q76.4164 207 86.4847 289 L306.485 289 Q303.906 268 318.687 254 Q333.468 240 358.547 232.5 Q383.627 225 416.258 222 Q448.89 219 480.89 219 Q565.89 219 602.784 238.5 Q639.678 258 643.976 293 Q646.677 315 623.659 323 Q600.642 331 561.826 332.5 Q523.01 334 473.326 332.5 Q423.642 331 372.133 335 Q320.624 339 272.782 352.5 Q224.939 366 189.623 396 Q154.306 426 136.507 476.5 Q118.707 527 128.53 607 Q138.23 686 183.054 737.5 Q227.877 789 291.561 819 Q355.244 849 429.718 861 Q504.191 873 574.191 873 Q634.191 873 697.226 857 Q760.262 841 810.403 805.5 Q860.544 770 888.607 713.5 Q916.669 657 906.847 577 L687.847 577 Q690.18 596 678.899 610 Q667.618 624 646.845 634 Q626.073 644 597.187 649 Q568.301 654 536.301 654 Q449.301 654 408.389 642.5 Q367.477 631 363.916 602 Z " />
<glyph glyph-name="T" unicode="T" horiz-adv-x="867" d="M112.88 675 L137.436 875 L944.436 875 L919.88 675 L675.88 675 Q659.88 675 647.029 664 Q634.178 653 632.091 636 L554 0 L313 0 L391.091 636 Q393.178 653 383.029 664 Q372.88 675 355.88 675 L112.88 675 Z " />
<glyph glyph-name="U" unicode="U" horiz-adv-x="886" d="M587.343 353 L651.314 874 L903.314 874 L839.343 353 Q830.38 280 794.96 215.5 Q759.54 151 705.647 103 Q651.753 55 583.877 27.5 Q516 0 443 0 Q370 0 308.877 27.5 Q247.753 55 205.647 103 Q163.54 151 143.96 215.5 Q124.38 280 133.343 353 L197.314 874 L449.314 874 L385.343 353 Q382.764 332 388.493 313.5 Q394.221 295 406.064 281.5 Q417.906 268 435.424 260 Q452.942 252 473.942 252 Q516.942 252 549.502 281 Q582.063 310 587.343 353 Z " />
<glyph glyph-name="V" unicode="V" horiz-adv-x="1095" d="M581.889 276 L924.436 875 L1172.44 875 L672 0 L423 0 L137.436 875 L386.436 875 L581.889 276 Z " />
<glyph glyph-name="W" unicode="W" horiz-adv-x="1475" d="M1075.29 377 L1304.44 875 L1552.44 875 L1154 0 L905 0 L799.761 503 L570 0 L322 0 L137.436 875 L386.436 875 L492.29 377 L720.436 875 L969.436 875 L1075.29 377 Z " />
<glyph glyph-name="X" unicode="X" horiz-adv-x="964" d="M771.314 874 L1040.31 874 L702.726 462 Q693.376 451 691.595 436.5 Q689.815 422 696.464 411 L934 0 L664 0 L513.064 253 L299 0 L30 0 L368.464 411 Q377.815 422 379.595 436.5 Q381.376 451 374.726 462 L138.314 874 L428.314 874 L560.337 638 L771.314 874 Z " />
<glyph glyph-name="Y" unicode="Y" horiz-adv-x="1092" d="M475.342 410 Q477.306 426 468.534 436 L137.314 874 L419.314 874 L620.653 608 L887.314 874 L1169.31 874 L730.534 436 Q719.306 426 717.342 410 L667 0 L425 0 L475.342 410 Z " />
<glyph glyph-name="Z" unicode="Z" horiz-adv-x="951" d="M998.436 875 L974.371 679 L421.943 195 L870.943 195 L847 0 L52 0 L75.943 195 L626.371 679 L135.371 679 L159.436 875 L998.436 875 Z " />
<glyph glyph-name="a" unicode="a" horiz-adv-x="986" d="M865.436 875 L926 0 L675 0 L657.521 216 Q656.363 231 643.661 237.5 Q630.959 244 615.959 244 L431.959 244 Q416.959 244 405.425 231.5 Q393.89 219 389.171 205 L321 0 L60 0 L337.436 875 L865.436 875 Z M469.832 471 L644.832 471 L629.371 679 L537.371 679 L469.832 471 Z " />
<glyph glyph-name="q" unicode="q" horiz-adv-x="994" d="M987.534 436 Q978.202 360 947.906 296.5 Q917.609 233 875.908 182.5 Q834.208 132 785.287 96 Q736.367 60 690.789 39 L775.124 -56 L625.022 -179 L519.633 -60 Q512.738 -51 505.106 -48 Q497.475 -45 492.475 -45 Q486.475 -45 477.668 -47.5 Q468.861 -50 459.756 -59 L325.022 -179 L217.247 -55 L319.42 36 Q276.122 58 235.103 94.5 Q194.085 131 163.785 181.5 Q133.486 232 118.844 296 Q104.202 360 113.534 436 Q124.585 526 168.907 606 Q213.23 686 279.474 745 Q345.719 804 429.955 838.5 Q514.191 873 604.191 873 Q695.191 873 770.455 838.5 Q845.719 804 897.474 745 Q949.23 686 973.907 606 Q998.585 526 987.534 436 Z M527.696 250 Q566.696 250 601.977 264.5 Q637.257 279 665.827 304 Q694.396 329 713.071 363 Q731.745 397 736.534 436 Q741.2 474 730.875 508 Q720.549 542 698.119 567 Q675.688 592 643.969 606.5 Q612.249 621 573.249 621 Q534.249 621 498.969 606.5 Q463.688 592 435.619 567 Q407.549 542 388.875 508 Q370.2 474 365.534 436 Q360.745 397 371.071 363 Q381.396 329 403.327 304 Q425.257 279 456.977 264.5 Q488.696 250 527.696 250 Z " />
<glyph glyph-name="zero" unicode="0" horiz-adv-x="858" d="M536.664 885 Q611.664 885 673.665 856.5 Q735.666 828 778.149 779 Q820.633 730 841.09 664.5 Q861.548 599 852.339 524 L831.097 351 Q821.889 276 785.346 210.5 Q748.804 145 694.287 96 Q639.771 47 570.772 18.5 Q501.772 -10 426.772 -10 Q352.772 -10 290.772 18.5 Q228.771 47 186.287 96 Q143.804 145 123.846 210.5 Q103.889 276 113.097 351 L134.339 524 Q143.548 599 179.59 664.5 Q215.633 730 270.149 779 Q324.666 828 393.665 856.5 Q462.664 885 536.664 885 Z M615.097 351 L636.339 524 Q639.9 553 631.592 579 Q623.285 605 606.179 624.5 Q589.073 644 564.485 655.5 Q539.897 667 509.897 667 Q479.897 667 452.485 655.5 Q425.073 644 403.179 624.5 Q381.285 605 366.592 579 Q351.9 553 348.339 524 L327.097 351 Q323.537 322 331.844 296 Q340.152 270 357.258 250.5 Q374.363 231 398.951 219.5 Q423.539 208 453.539 208 Q483.539 208 510.951 219.5 Q538.363 231 560.258 250.5 Q582.152 270 596.844 296 Q611.537 322 615.097 351 Z " />
<glyph glyph-name="one" unicode="1" horiz-adv-x="721" d="M324 0 L384.901 496 L252.202 360 L105.567 534 L489.314 874 L676.314 874 L569 0 L324 0 Z " />
<glyph glyph-name="two" unicode="2" horiz-adv-x="826" d="M844.548 599 Q836.935 537 810.664 490 Q784.394 443 747.289 405.5 Q710.185 368 665.44 337.5 Q620.695 307 577.257 279 L455.908 211 L796.908 211 L771 0 L55 0 L81.6442 217 L476.376 451 Q485.113 457 506.332 471 Q527.551 485 550.445 504.5 Q573.339 524 592.102 546.5 Q610.864 569 613.688 592 Q614.302 597 613.328 613.5 Q612.354 630 602.003 647.5 Q591.652 665 567.871 679 Q544.09 693 499.09 693 Q471.09 693 443.73 686 Q416.371 679 393.845 662.5 Q371.319 646 355.442 618.5 Q339.566 591 334.409 549 L122.409 549 Q134.319 646 172.423 712 Q210.526 778 265.499 818.5 Q320.472 859 387.682 877 Q454.892 895 523.892 895 Q591.892 895 654.05 880 Q716.209 865 761.973 830.5 Q807.737 796 831.299 739.5 Q854.862 683 844.548 599 Z " />
<glyph glyph-name="three" unicode="3" horiz-adv-x="839" d="M854.285 605 Q850.724 576 837.347 548.5 Q823.971 521 803.208 498.5 Q782.445 476 754.42 459.5 Q726.394 443 694.288 434 Q726.306 426 750.719 409 Q775.132 392 790.808 369 Q806.483 346 812.545 318 Q818.608 290 814.047 261 Q806.785 210 788.996 171 Q764.752 112 725.393 76.5 Q686.034 41 636.64 21.5 Q587.246 2 531.509 -4 Q475.772 -10 419.772 -10 Q360.772 -10 299.246 2 Q237.719 14 189.832 47.5 Q141.946 81 115.69 140 Q89.4341 199 100.976 293 L308.976 293 Q304.31 255 317.609 233 Q330.908 211 352.057 200 Q373.206 189 398.399 186.5 Q423.592 184 441.592 184 Q486.592 184 514.513 191.5 Q542.434 199 558.469 211.5 Q574.504 224 580.407 239.5 Q586.31 255 588.275 271 Q590.73 291 582.704 303 Q574.677 315 558.975 321.5 Q543.273 328 522.019 330 Q500.764 332 477.764 332 L376.764 332 L402.304 540 L503.304 540 Q524.304 540 546.233 543.5 Q568.163 547 585.645 555 Q603.128 563 615.347 577 Q627.566 591 630.021 611 Q631.986 627 629.266 641.5 Q626.547 656 613.459 667.5 Q600.371 679 574.73 686 Q549.09 693 505.09 693 Q466.09 693 439.669 685.5 Q413.248 678 396.59 664.5 Q379.933 651 371.723 633 Q363.513 615 360.811 593 L137.811 593 Q149.353 687 191.413 744.5 Q233.473 802 290.28 833 Q347.086 864 410.875 874.5 Q474.664 885 529.664 885 Q557.664 885 594.735 881.5 Q631.805 878 670.577 868 Q709.349 858 746.016 839 Q782.683 820 809.377 789 Q836.071 758 848.984 712.5 Q861.897 667 854.285 605 Z " />
<glyph glyph-name="four" unicode="4" horiz-adv-x="856" d="M803.436 875 L743.886 390 L868.886 390 L844.452 191 L719.452 191 L696 0 L455 0 L478.452 191 L33.4519 191 L52.4835 346 L568.436 875 L803.436 875 Z M502.886 390 L530.267 613 L316.886 390 L502.886 390 Z " />
<glyph glyph-name="five" unicode="5" horiz-adv-x="766" d="M363.145 555 Q384.724 576 418.066 591 Q451.407 606 491.407 606 Q579.407 606 639.329 585 Q699.25 564 734.023 525.5 Q768.796 487 780.727 433.5 Q792.658 380 784.677 315 Q774.977 236 742.549 175.5 Q710.12 115 659.525 73.5 Q608.929 32 542.351 11 Q475.772 -10 396.772 -10 Q324.772 -10 265.228 10 Q205.684 30 163.981 65 Q122.278 100 100.295 149 Q78.3113 198 81.3101 255 L285.502 281 Q284.047 261 293.214 242 Q302.381 223 320.162 209 Q337.943 195 362.899 186.5 Q387.856 178 419.856 178 Q486.856 178 530.215 213.5 Q573.573 249 581.554 314 Q588.553 371 557.035 407.5 Q525.516 444 456.516 444 Q427.516 444 400.841 438.5 Q374.166 433 352.815 422 Q331.464 411 316.377 394 Q301.29 377 294.466 354 L98.2543 393 L242.314 874 L783.314 874 L761.335 695 L452.335 695 Q435.335 695 421.923 683.5 Q408.511 672 401.424 655 L363.145 555 Z " />
<glyph glyph-name="six" unicode="6" horiz-adv-x="826" d="M423.772 -10 Q346.772 -10 283.728 10 Q220.684 30 178.411 68.5 Q136.138 107 116.575 163.5 Q97.0126 220 105.976 293 L129.796 487 Q140.233 572 169.135 644.5 Q198.037 717 247.544 770 Q297.052 823 367.797 853.5 Q438.542 884 533.542 884 Q604.542 884 662.893 866.5 Q721.244 849 761.815 817 Q802.386 785 821.799 739.5 Q841.212 694 834.459 639 L616.459 639 Q619.406 663 591.862 683 Q564.318 703 504.318 703 Q466.318 703 438.485 684 Q410.652 665 392.152 636.5 Q373.653 608 363.04 574.5 Q352.426 541 348.743 511 L343.709 470 Q351.937 480 368.787 491 Q385.638 502 407.243 511 Q428.848 520 455.023 525.5 Q481.199 531 510.199 531 Q672.199 531 743.411 463.5 Q814.623 396 799.766 275 Q792.153 213 763.268 161 Q734.384 109 686.218 71 Q638.052 33 571.912 11.5 Q505.772 -10 423.772 -10 Z M465.448 362 Q411.448 362 374.747 340 Q338.045 318 332.889 276 Q328.1 237 353.478 207.5 Q378.856 178 442.856 178 Q497.856 178 531.609 204.5 Q565.363 231 570.52 273 Q575.554 314 548.501 338 Q521.448 362 465.448 362 Z " />
<glyph glyph-name="seven" unicode="7" horiz-adv-x="724" d="M811.314 874 L789.335 695 L332 0 L79 0 L497.056 652 L105.056 652 L132.314 874 L811.314 874 Z " />
<glyph glyph-name="eight" unicode="8" horiz-adv-x="846" d="M659.639 445 Q740.815 422 783.176 372 Q825.537 322 814.977 236 Q807.242 173 769.339 129 Q731.437 85 675.937 56.5 Q620.438 28 553.842 15 Q487.246 2 423.246 2 Q359.246 2 295.842 15 Q232.438 28 183.937 56.5 Q135.437 85 108.401 129.5 Q81.3645 174 88.9772 236 Q99.5366 322 154.176 372 Q208.815 422 295.639 445 Q214.709 470 172.594 522 Q130.478 574 141.038 660 Q148.528 721 186.869 764.5 Q225.21 808 281.025 835 Q336.84 862 402.875 874.5 Q468.91 887 531.91 887 Q594.91 887 657.875 874.5 Q720.84 862 770.025 835 Q819.21 808 846.869 764.5 Q874.528 721 867.038 660 Q856.478 574 801.594 522 Q746.709 470 659.639 445 Z M384.723 633 Q382.144 612 391.987 598.5 Q401.829 585 417.785 576.5 Q433.742 568 453.812 564.5 Q473.882 561 491.882 561 Q509.882 561 530.812 564.5 Q551.742 568 570.285 576.5 Q588.829 585 601.987 598.5 Q615.144 612 617.723 633 Q619.933 651 610.468 663.5 Q601.002 676 584.423 683.5 Q567.844 691 547.774 694.5 Q527.704 698 508.704 698 Q489.704 698 468.774 694.5 Q447.844 691 429.923 683.5 Q412.002 676 399.468 663.5 Q386.933 651 384.723 633 Z M463.151 327 Q445.151 327 424.282 324 Q403.414 321 384.932 313 Q366.449 305 352.792 291.5 Q339.134 278 336.678 258 Q334.346 239 343.749 226 Q353.153 213 369.609 204.5 Q386.066 196 406.075 192 Q426.083 188 446.083 188 Q465.083 188 486.575 192 Q508.066 196 526.609 204.5 Q545.153 213 557.749 226 Q570.346 239 572.678 258 Q575.134 278 564.792 291.5 Q554.449 305 537.932 313 Q521.414 321 501.282 324 Q481.151 327 463.151 327 Z " />
<glyph glyph-name="nine" unicode="9" horiz-adv-x="826" d="M519.542 884 Q596.542 884 659.086 864 Q721.63 844 764.403 805.5 Q807.176 767 826.738 710.5 Q846.301 654 837.338 581 L813.518 387 Q803.081 302 774.179 229.5 Q745.277 157 695.708 103.5 Q646.139 50 574.956 20 Q503.772 -10 409.772 -10 Q338.772 -10 279.921 7.5 Q221.07 25 180.999 57 Q140.928 89 121.453 134 Q101.978 179 108.854 235 L326.854 235 Q323.908 211 351.452 191 Q378.996 171 438.996 171 Q476.996 171 504.768 189.5 Q532.539 208 551.039 236.5 Q569.538 265 579.713 299 Q589.887 333 593.571 363 L598.482 403 Q590.254 393 573.965 382.5 Q557.676 372 536.071 363 Q514.466 354 487.79 348.5 Q461.115 343 433.115 343 Q271.115 343 199.903 410.5 Q128.691 478 143.548 599 Q151.161 661 180.045 713 Q208.93 765 257.096 803 Q305.262 841 371.402 862.5 Q437.542 884 519.542 884 Z M477.866 512 Q531.866 512 568.567 534 Q605.268 556 610.425 598 Q615.214 637 589.836 666.5 Q564.458 696 500.458 696 Q445.458 696 411.704 669.5 Q377.95 643 372.794 601 Q367.759 560 394.313 536 Q420.866 512 477.866 512 Z " />
<glyph glyph-name="ampersand" unicode="&#x26;" horiz-adv-x="925" d="M388.909 154 Q419.909 154 447.33 161.5 Q474.751 169 497.206 189 Q485.925 203 472.258 222 Q458.591 241 444.047 261 Q429.502 281 415.774 299.5 Q402.045 318 390.642 331 Q374.273 328 357.23 319.5 Q340.186 311 325.651 298.5 Q311.116 286 301.213 270.5 Q291.31 255 289.223 238 Q284.925 203 309.917 178.5 Q334.909 154 388.909 154 Z M450.091 636 Q446.899 610 459.504 590.5 Q472.11 571 485.9 553 Q499.637 559 516.68 567.5 Q533.724 576 549.075 587 Q564.425 598 575.644 612 Q586.863 626 589.073 644 Q591.897 667 574.362 683 Q556.826 699 528.826 699 Q501.826 699 477.678 681.5 Q453.529 664 450.091 636 Z M905 0 L667 0 L619.894 48 Q613.157 42 593.245 30.5 Q573.333 19 540.482 8 Q507.632 -3 460.149 -11 Q412.667 -19 349.667 -19 Q295.667 -19 244.254 -2 Q192.842 15 153.148 46 Q113.454 77 91.7341 120 Q70.0139 163 76.3987 215 Q83.1518 270 102.625 310.5 Q122.097 351 150.22 380.5 Q178.342 410 214.42 431 Q250.499 452 291.463 468 Q271.41 492 257.866 512 Q244.321 532 236.961 553.5 Q229.601 575 228.294 601 Q226.986 627 233.283 662 Q240.423 712 270.08 754 Q299.737 796 343.42 826 Q387.104 856 441.63 872.5 Q496.155 889 555.155 889 Q627.155 889 677.077 868 Q726.999 847 757.508 814.5 Q788.018 782 800.229 743 Q812.44 704 807.897 667 Q801.39 614 780.04 574.5 Q758.69 535 726.945 504.5 Q695.2 474 655.876 451 Q616.552 428 575.219 409 L645.432 313 Q652.554 314 664.519 330 Q676.483 346 689.623 367.5 Q702.763 389 714.587 412 Q726.411 435 733.376 451 L933.13 449 Q928.833 414 911.983 374.5 Q895.133 335 871.528 297.5 Q847.924 260 819.495 228 Q791.066 196 764.61 176 L905 0 Z " />
<glyph glyph-name="germandbls" unicode="&#xdf;" horiz-adv-x="999" d="M814.197 588 Q805.215 580 800.68 567.5 Q796.145 555 797.672 543 Q799.199 531 806.716 523 Q814.234 515 830.234 515 Q831.357 516 847.795 515.5 Q864.234 515 886.936 508.5 Q909.638 502 934.919 488 Q960.2 474 979.946 447.5 Q999.692 421 1010.16 380 Q1020.62 339 1013.26 279 Q1006.14 221 978.435 170.5 Q950.734 120 908.068 82 Q865.403 44 811.701 22 Q758 0 700 0 L467 0 L495.89 219 L651.89 219 Q653.89 219 666.39 219 Q678.89 219 693.942 223.5 Q708.995 228 722.03 240.5 Q735.064 253 738.134 278 Q740.958 301 730.309 312 Q719.659 323 706.212 327.5 Q692.764 332 679.703 331.5 Q666.642 331 665.642 331 L509.642 331 L534.532 550 L665.88 675 L457.88 675 Q440.88 675 428.529 664 Q416.178 653 414.091 636 L336 0 L90 0 L197.436 875 L982.436 875 L964.264 727 L814.197 588 Z " />
<glyph glyph-name="parenleft" unicode="&#x28;" horiz-adv-x="597" d="M661.4 948 Q594.155 889 541.964 834.5 Q489.772 780 452.028 721 Q414.283 662 390.557 595 Q366.83 528 355.516 444 Q344.08 359 350.608 290 Q357.135 221 380.207 160.5 Q403.278 100 442.341 43.5 Q481.404 -13 536.037 -73 L370.865 -221 Q302.319 -144 253.905 -70 Q205.491 4 176.753 83.5 Q148.014 163 140.442 252 Q132.87 341 146.762 446 Q160.286 548 189.845 634 Q219.405 720 266.921 797.5 Q314.436 875 380.4 948 Q446.363 1021 532.817 1098 L661.4 948 Z " />
<glyph glyph-name="braceleft" unicode="&#x7b;" horiz-adv-x="677" d="M689.734 910 Q653.734 910 620.138 897 Q586.542 884 559.279 861.5 Q532.016 839 513.649 807.5 Q495.281 776 490.861 740 L478.828 642 Q470.847 577 432.339 524 Q393.832 471 337.025 440 Q386.219 409 412.211 356 Q438.204 303 430.223 238 L418.19 140 Q413.77 104 424.402 72.5 Q435.034 41 456.772 18.5 Q478.509 -4 508.913 -17 Q539.316 -30 575.316 -30 L623.316 -30 L599.251 -226 L485.251 -226 Q419.251 -226 363.82 -201 Q308.39 -176 270.17 -133 Q231.949 -90 214.132 -31.5 Q196.315 27 204.419 93 L211.418 150 Q215.838 186 205.206 217.5 Q194.573 249 172.836 271.5 Q151.099 294 120.695 307 Q90.2911 320 54.2911 320 L40.2911 320 L69.7594 560 L83.7594 560 Q119.759 560 153.356 573 Q186.952 586 214.214 608.5 Q241.477 631 259.783 662 Q278.09 693 282.51 729 L281.405 720 Q291.105 799 330.261 869.5 Q369.417 940 428.302 992 Q487.187 1044 561.432 1074.5 Q635.677 1105 715.677 1105 L762.677 1105 L738.734 910 L689.734 910 Z " />
<glyph glyph-name="bracketleft" unicode="&#x5b;" horiz-adv-x="455" d="M516.366 907 L309.366 907 L194.194 -31 L401.194 -31 L376.882 -229 L-28.1177 -229 L135.677 1105 L540.677 1105 L516.366 907 Z " />
<glyph glyph-name="bar" unicode="&#x7c;" horiz-adv-x="502" d="M358.616 -109 L116.616 -109 L250.82 984 L492.82 984 L358.616 -109 Z " />
<glyph glyph-name="ogonek" unicode="&#x2db;" horiz-adv-x="408" d="M383.075 -203 Q333.672 -247 284.91 -269.5 Q236.147 -292 190.147 -292 Q143.147 -292 104.357 -274 Q65.5672 -256 38.8735 -225 Q12.1798 -194 -0.724646 -152.5 Q-13.6291 -111 -7.85821 -64 Q-2.08734 -17 20.9468 24 Q43.981 65 79.6645 95 Q115.348 125 161.497 142.5 Q207.646 160 260.646 160 L241 0 Q206 0 179.228 -18.5 Q152.457 -37 149.265 -63 Q146.072 -89 161.862 -107 Q177.652 -125 203.652 -125 Q217.652 -125 234.196 -116.5 Q250.739 -108 267.581 -93 L383.075 -203 Z " />
<glyph glyph-name="cedilla" unicode="&#xb8;" horiz-adv-x="336" d="M287.491 4 Q309.544 -20 317.677 -51.5 Q325.809 -83 321.318 -115.5 Q316.828 -148 300.46 -179.5 Q284.092 -211 257.146 -235 Q230.199 -259 197.664 -271.5 Q165.129 -284 133.129 -284 Q101.129 -284 71.664 -271.5 Q42.1988 -259 20.1456 -235 Q-1.66197 -209 -9.91704 -178.5 Q-18.1721 -148 -14.243 -116 L99.757 -116 Q97.0557 -138 111.968 -155 Q126.881 -172 149.881 -172 Q172.881 -172 191.968 -155 Q211.056 -138 213.88 -115 Q216.704 -92 201.791 -75 L119.333 19 L206.787 96 L287.491 4 Z " />
<glyph glyph-name="period" unicode="&#x2e;" horiz-adv-x="399" d="M196.79 -18 Q172.79 -18 153.395 -9 Q134 0 120.403 15.5 Q106.806 31 100.323 51.5 Q93.8405 72 96.7873 96 Q99.7341 120 111.251 140.5 Q122.768 161 140.171 176.5 Q157.575 192 179.18 201 Q200.785 210 224.785 210 Q248.785 210 268.18 201 Q287.575 192 301.671 176.5 Q315.768 161 322.251 140.5 Q328.734 120 325.787 96 Q322.84 72 311.323 51.5 Q299.806 31 281.903 15.5 Q264 0 242.395 -9 Q220.79 -18 196.79 -18 Z " />
<glyph glyph-name="comma" unicode="&#x2c;" horiz-adv-x="353" d="M72.0329 98 L275.033 98 L218.53 -183 L37.5304 -183 L72.0329 98 Z " />
<glyph glyph-name="macron" unicode="&#xaf;" horiz-adv-x="347" d="M124.258 1012 L148.569 1210 L671.569 1210 L647.258 1012 L124.258 1012 Z " />
<glyph glyph-name="circumflex" unicode="&#x2c6;" horiz-adv-x="636" d="M617.4 948 L480.554 1104 Q470.905 1115 454.405 1115 Q437.905 1115 425.554 1104 L250.4 948 L152.152 1060 L484.496 1356 L744.152 1060 L618.4 948 L617.4 948 Z " />
<glyph glyph-name="breve" unicode="&#x2d8;" horiz-adv-x="499" d="M391.658 1170 Q421.658 1170 445.859 1192 Q470.06 1214 473.621 1243 L651.621 1243 Q645.359 1192 619.772 1146.5 Q594.186 1101 556.011 1067 Q517.836 1033 469.942 1013.5 Q422.048 994 371.048 994 Q320.048 994 276.942 1013.5 Q233.836 1033 204.011 1067 Q174.186 1101 160.272 1146.5 Q146.359 1192 152.621 1243 L329.621 1243 Q327.779 1228 331.683 1215 Q335.587 1202 344.359 1192 Q353.131 1182 365.395 1176 Q377.658 1170 391.658 1170 Z " />
<glyph glyph-name="dieresis" unicode="&#xa8;" horiz-adv-x="657" d="M794.887 1123 Q791.695 1097 778.932 1074.5 Q766.169 1052 747.643 1035.5 Q729.117 1019 704.89 1009 Q680.662 999 655.662 999 Q629.662 999 608.39 1009 Q587.117 1019 572.643 1035.5 Q558.169 1052 550.932 1074.5 Q543.695 1097 546.887 1123 Q550.079 1149 562.842 1171.5 Q575.605 1194 594.192 1211 Q612.779 1228 636.507 1238 Q660.235 1248 686.235 1248 Q711.235 1248 733.007 1238 Q754.779 1228 769.192 1211 Q783.605 1194 790.842 1171.5 Q798.079 1149 794.887 1123 Z M386.887 1123 Q383.695 1097 370.932 1074.5 Q358.169 1052 339.143 1035.5 Q320.117 1019 296.39 1009 Q272.662 999 246.662 999 Q220.662 999 199.39 1009 Q178.117 1019 163.643 1035.5 Q149.169 1052 141.932 1074.5 Q134.695 1097 137.887 1123 Q141.079 1149 153.842 1171.5 Q166.605 1194 185.192 1211 Q203.779 1228 227.507 1238 Q251.235 1248 277.235 1248 Q303.235 1248 324.507 1238 Q345.779 1228 360.692 1211 Q375.605 1194 382.842 1171.5 Q390.079 1149 386.887 1123 Z " />
<glyph glyph-name="ring" unicode="&#x2da;" horiz-adv-x="357" d="M312.467 1087 Q337.467 1087 357.738 1105.5 Q378.01 1124 381.202 1150 Q384.272 1175 368.482 1193 Q352.692 1211 327.692 1211 Q301.692 1211 280.982 1193 Q260.272 1175 257.202 1150 Q254.01 1124 270.238 1105.5 Q286.467 1087 312.467 1087 Z M342.058 1328 Q379.058 1328 409.839 1314 Q440.62 1300 461.673 1276 Q482.726 1252 492.736 1219.5 Q502.745 1187 498.202 1150 Q493.536 1112 475.546 1079.5 Q457.555 1047 430.609 1023 Q403.662 999 369.443 985 Q335.224 971 298.224 971 Q260.224 971 229.443 985 Q198.662 999 177.609 1023 Q156.555 1047 146.546 1079.5 Q136.536 1112 141.202 1150 Q145.745 1187 163.736 1219.5 Q181.726 1252 208.673 1276 Q235.62 1300 269.839 1314 Q304.058 1328 342.058 1328 Z " />
<glyph glyph-name="acute" unicode="&#xb4;" horiz-adv-x="403" d="M392.521 1006 L203.521 1006 L469.126 1410 L641.024 1287 L392.521 1006 Z " />
<glyph glyph-name="tilde" unicode="&#x2dc;" horiz-adv-x="509" d="M148.324 1208 Q184.376 1241 217.603 1251 Q250.831 1261 281.84 1257 Q312.849 1253 343.069 1238.5 Q373.288 1224 402.701 1207 Q432.114 1190 462.333 1175.5 Q492.553 1161 523.562 1157 Q554.571 1153 587.798 1163 Q621.026 1173 657.078 1206 L631.907 1001 Q595.855 968 562.628 958 Q529.4 948 498.391 952 Q467.382 956 437.162 970.5 Q406.943 985 377.53 1002 Q348.117 1019 317.898 1033.5 Q287.678 1048 256.669 1052 Q225.66 1056 192.433 1046 Q159.205 1036 123.153 1003 L148.324 1208 Z " />
<glyph glyph-name="dotaccent" unicode="&#x2d9;" horiz-adv-x="249" d="M383.204 1093 Q380.011 1067 367.248 1044.5 Q354.486 1022 335.46 1005.5 Q316.434 989 292.706 979 Q268.978 969 242.978 969 Q216.978 969 195.706 979 Q174.434 989 159.96 1005.5 Q145.486 1022 138.248 1044.5 Q131.011 1067 134.204 1093 Q137.396 1119 150.159 1141.5 Q162.921 1164 181.509 1181 Q200.096 1198 223.824 1208 Q247.552 1218 273.552 1218 Q299.552 1218 320.824 1208 Q342.096 1198 357.009 1181 Q371.921 1164 379.159 1141.5 Q386.396 1119 383.204 1093 Z " />
<glyph glyph-name="bracketright" unicode="&#x5d;" horiz-adv-x="833" d="M135.677 1105 L540.677 1105 L376.882 -229 L-28.1177 -229 L-3.80632 -31 L203.194 -31 L318.366 907 L111.366 907 L135.677 1105 Z " />
<glyph glyph-name="parenright" unicode="&#x29;" horiz-adv-x="597" d="M333.817 1098 Q400.363 1021 448.9 948 Q497.436 875 525.921 797.5 Q554.405 720 562.845 634 Q571.286 548 559.762 446 Q547.87 341 518.442 252 Q489.014 163 440.753 83.5 Q392.491 4 325.905 -70 Q259.319 -144 171.865 -221 L43.0367 -73 Q112.404 -13 165.341 43.5 Q218.278 100 256.207 160.5 Q294.135 221 317.608 290 Q341.08 359 350.516 444 Q359.83 528 352.557 595 Q345.283 662 322.028 721 Q298.772 780 259.964 834.5 Q221.155 889 168.4 948 L333.817 1098 Z " />
<glyph glyph-name="grave" unicode="&#x60;" horiz-adv-x="450" d="M79.6199 1300 L311.055 1442 L493.521 1006 L267.521 1006 L79.6199 1300 Z " />
<glyph glyph-name="slash" unicode="&#x2f;" horiz-adv-x="590" d="M-47.9265 -146 L561.923 1107 L746.223 1028 L136.373 -225 L-47.9265 -146 Z " />
<glyph glyph-name="Adieresis" unicode="&#xc4;" horiz-adv-x="1094" d="M1064 0 L816 0 L764.4 158 Q760.996 171 749.917 178.5 Q738.838 186 724.838 186 L414.838 186 Q400.838 186 387.917 178.5 Q374.996 171 368.4 158 L278 0 L30 0 L530.436 875 L778.436 875 L1064 0 Z M509.605 404 L683.605 404 L620.548 599 L509.605 404 Z M1013.89 1123 Q1010.69 1097 997.932 1074.5 Q985.169 1052 966.143 1035.5 Q947.117 1019 923.39 1009 Q899.662 999 873.662 999 Q847.662 999 826.39 1009 Q805.117 1019 790.643 1035.5 Q776.169 1052 768.932 1074.5 Q761.695 1097 764.887 1123 Q768.079 1149 780.842 1171.5 Q793.605 1194 812.192 1211 Q830.779 1228 854.507 1238 Q878.235 1248 904.235 1248 Q930.235 1248 951.507 1238 Q972.779 1228 987.692 1211 Q1002.6 1194 1009.84 1171.5 Q1017.08 1149 1013.89 1123 Z M604.887 1123 Q601.695 1097 588.932 1074.5 Q576.169 1052 557.143 1035.5 Q538.117 1019 514.39 1009 Q490.662 999 464.662 999 Q438.662 999 417.39 1009 Q396.117 1019 381.643 1035.5 Q367.169 1052 359.932 1074.5 Q352.695 1097 355.887 1123 Q359.079 1149 371.842 1171.5 Q384.605 1194 403.192 1211 Q421.779 1228 445.507 1238 Q469.235 1248 495.235 1248 Q521.235 1248 542.507 1238 Q563.779 1228 578.692 1211 Q593.605 1194 600.842 1171.5 Q608.079 1149 604.887 1123 Z " />
<glyph glyph-name="Aring" unicode="&#xc5;" horiz-adv-x="1094" d="M1064 0 L816 0 L764.4 158 Q760.996 171 749.917 178.5 Q738.838 186 724.838 186 L414.838 186 Q400.838 186 387.917 178.5 Q374.996 171 368.4 158 L278 0 L30 0 L530.436 875 L778.436 875 L1064 0 Z M509.605 404 L683.605 404 L620.548 599 L509.605 404 Z M680.467 1087 Q705.467 1087 725.738 1105.5 Q746.01 1124 749.202 1150 Q752.272 1175 736.482 1193 Q720.692 1211 695.692 1211 Q670.692 1211 649.482 1193 Q628.272 1175 625.202 1150 Q622.01 1124 638.738 1105.5 Q655.467 1087 680.467 1087 Z M710.058 1328 Q747.058 1328 777.839 1314 Q808.62 1300 830.173 1276 Q851.726 1252 861.736 1219.5 Q871.745 1187 867.202 1150 Q862.536 1112 844.546 1079.5 Q826.555 1047 799.109 1023 Q771.662 999 737.443 985 Q703.224 971 666.224 971 Q629.224 971 598.443 985 Q567.662 999 546.109 1023 Q524.555 1047 514.546 1079.5 Q504.536 1112 509.202 1150 Q513.745 1187 531.736 1219.5 Q549.726 1252 577.173 1276 Q604.62 1300 638.839 1314 Q673.058 1328 710.058 1328 Z " />
<glyph glyph-name="ae" unicode="&#xe6;" horiz-adv-x="1232" d="M795.205 246 Q793.854 235 800.872 227 Q807.89 219 818.89 219 L1193.89 219 L1167 0 L523 0 L560.695 307 Q560.045 318 553.844 324.5 Q547.642 331 536.642 331 L415.642 331 Q398.642 331 383.791 320 Q368.94 309 362.853 292 L269 0 L30 0 L307.436 875 L630.436 875 L1274.31 874 L1247.3 654 L872.301 654 Q861.301 654 852.319 646 Q843.337 638 841.863 626 L835.969 578 Q834.496 566 841.514 558 Q848.532 550 859.532 550 L1234.53 550 L1207.64 331 L805.642 331 L795.205 246 Z M590.532 550 L600.231 629 Q599.582 640 593.38 646.5 Q587.178 653 576.178 653 L477.178 653 L443.532 550 L590.532 550 Z " />
<glyph glyph-name="AE" unicode="&#xc6;" horiz-adv-x="1332" d="M1374.31 874 L1347.3 654 L922.301 654 Q911.301 654 902.257 645.5 Q893.214 637 891.863 626 L885.969 578 Q884.496 566 891.514 558 Q898.532 550 909.532 550 L1334.53 550 L1307.64 331 L882.642 331 Q871.642 331 862.659 323 Q853.677 315 852.327 304 L845.205 246 Q843.854 235 850.872 227 Q857.89 219 868.89 219 L1293.89 219 L1267 0 L573 0 L595.715 185 L414.715 185 Q400.715 185 387.794 177.5 Q374.873 170 368.277 157 L278 0 L30 0 L530.436 875 L939.436 875 L1374.31 874 Z M618.062 367 L653.301 654 L490.062 367 L618.062 367 Z " />
<glyph glyph-name="paragraph" unicode="&#xb6;" horiz-adv-x="1330" d="M1067.33 809 L987.333 809 Q978.333 809 971.228 800 Q964.123 791 963.14 783 L867 0 L625 0 L662.204 303 Q663.554 314 657.098 322.5 Q650.642 331 638.642 331 L352.642 331 Q296.642 331 249.782 352.5 Q202.921 374 170.464 411 Q138.007 448 122.585 497.5 Q107.163 547 114.039 603 Q121.038 660 150.116 709.5 Q179.193 759 222.737 796 Q266.28 833 319.858 854 Q373.436 875 429.436 875 L1342.44 875 L1235 0 L993 0 L1089.14 783 Q1090.49 794 1084.41 801.5 Q1078.33 809 1067.33 809 Z M366.794 601 Q364.215 580 377.935 565.5 Q391.654 551 413.654 551 L665.532 550 Q676.532 550 685.575 558.5 Q694.619 567 695.969 578 L702.477 631 Q703.582 640 696.442 647 Q689.301 654 680.301 654 L423.301 654 Q402.301 654 385.959 639 Q369.618 624 366.794 601 Z " />
<glyph glyph-name="Agrave" unicode="&#xc0;" horiz-adv-x="1094" d="M1064 0 L816 0 L764.4 158 Q760.996 171 749.917 178.5 Q738.838 186 724.838 186 L414.838 186 Q400.838 186 387.917 178.5 Q374.996 171 368.4 158 L278 0 L30 0 L530.436 875 L778.436 875 L1064 0 Z M509.605 404 L683.605 404 L620.548 599 L509.605 404 Z M335.62 1300 L567.055 1442 L749.521 1006 L523.521 1006 L335.62 1300 Z " />
<glyph glyph-name="Atilde" unicode="&#xc3;" horiz-adv-x="1094" d="M1064 0 L816 0 L764.4 158 Q760.996 171 749.917 178.5 Q738.838 186 724.838 186 L414.838 186 Q400.838 186 387.917 178.5 Q374.996 171 368.4 158 L278 0 L30 0 L530.436 875 L778.436 875 L1064 0 Z M441.324 1208 Q477.376 1241 510.603 1251 Q543.831 1261 574.84 1257 Q605.849 1253 636.069 1238.5 Q666.288 1224 695.701 1207 Q725.114 1190 755.333 1175.5 Q785.553 1161 816.562 1157 Q847.571 1153 880.798 1163 Q914.026 1173 950.078 1206 L924.907 1001 Q888.855 968 855.628 958 Q822.4 948 791.391 952 Q760.382 956 730.162 970.5 Q699.943 985 670.53 1002 Q641.117 1019 610.898 1033.5 Q580.678 1048 549.669 1052 Q518.66 1056 485.433 1046 Q452.205 1036 416.153 1003 L441.324 1208 Z M509.605 404 L683.605 404 L620.548 599 L509.605 404 Z " />
<glyph glyph-name="OE" unicode="&#x152;" horiz-adv-x="1346" d="M1388.31 874 L1361.3 654 L846.301 654 Q835.301 654 826.257 645.5 Q817.214 637 815.863 626 L809.969 578 Q808.496 566 815.514 558 Q822.532 550 833.532 550 L1348.53 550 L1321.64 331 L806.642 331 Q795.642 331 786.659 323 Q777.677 315 776.327 304 L769.205 246 Q767.854 235 774.872 227 Q781.89 219 792.89 219 L1307.89 219 L1281 0 L497 0 Q407 0 331.175 34 Q255.349 68 203.655 127.5 Q151.961 187 127.222 266.5 Q102.483 346 113.657 437 Q124.707 527 169.03 607 Q213.353 687 279.659 746.5 Q345.964 806 430.2 840.5 Q514.436 875 604.436 875 L1388.31 874 Z M577.792 658 Q531.792 658 489.144 640.5 Q446.495 623 412.811 593 Q379.128 563 357.155 522.5 Q335.182 482 329.657 437 Q323.886 390 335.913 349.5 Q347.94 309 374.257 279 Q400.573 249 438.986 232 Q477.399 215 523.399 215 L577.792 658 Z " />
<glyph glyph-name="hyphen" unicode="&#x2d;" horiz-adv-x="516" d="M60.6417 331 L87.5315 550 L563.532 550 L536.642 331 L60.6417 331 Z " />
<glyph glyph-name="sterling" unicode="&#xa3;" horiz-adv-x="836" d="M714.449 305 L508.449 305 Q492.449 305 483.414 292.5 Q474.38 280 472.661 266 L472.17 262 Q469.714 242 479.302 230.5 Q488.89 219 508.89 219 L797.89 219 L771 0 L188 0 L221.52 273 Q223.362 288 212.406 296.5 Q201.449 305 187.449 305 L82.4493 305 L110.813 536 L253.813 536 Q262.653 608 298.45 671.5 Q334.247 735 388.518 782 Q442.788 829 510.165 856.5 Q577.542 884 649.542 884 Q720.542 884 781.788 857.5 Q843.034 831 886.895 781 L725.477 631 Q695.02 668 643.02 668 Q618.02 668 594.292 658 Q570.564 648 551.538 631.5 Q532.513 615 520.188 592 Q507.864 569 505.795 544 Q505.549 542 505.804 540 Q506.058 538 505.813 536 L742.813 536 L714.449 305 Z " />
<glyph glyph-name="plus" unicode="&#x2b;" horiz-adv-x="483" d="M183.501 338 L61.5012 338 L85.8125 536 L207.813 536 L222.792 658 L420.792 658 L405.813 536 L528.813 536 L504.501 338 L381.501 338 L366.399 215 L168.399 215 L183.501 338 Z " />
<glyph glyph-name="multiply" unicode="&#xd7;" horiz-adv-x="484" d="M131.864 569 L184.635 616 L301.305 483 L450.758 617 L491.987 570 L341.534 436 L459.204 303 L406.433 256 L289.886 390 L140.556 257 L99.3265 304 L248.534 436 L131.864 569 Z " />
<glyph glyph-name="question" unicode="&#x3f;" horiz-adv-x="724" d="M788.79 772 Q781.545 713 767.388 671 Q753.231 629 730.057 595 Q706.882 561 673.383 532.5 Q639.883 504 594.2 474 Q568.113 457 552.762 446 Q537.411 435 527.885 418.5 Q518.359 402 513.106 375.5 Q507.852 349 501.958 301 L285.958 301 Q292.343 353 298.439 394.5 Q304.534 436 320.2 474 Q335.866 512 365.532 550 Q395.197 588 448.6 632 Q458.582 640 472.433 651 Q486.283 662 499.502 676 Q512.721 690 522.493 708.5 Q532.264 727 535.088 750 Q537.421 769 531.395 781 Q525.368 793 513.728 800 Q502.087 807 486.394 809.5 Q470.701 812 454.701 812 Q420.701 812 391.43 793.5 Q362.158 775 357.492 737 Q294.492 737 231.431 736.5 Q168.369 736 105.369 736 Q114.21 808 149.024 863.5 Q183.839 919 235.505 957 Q287.171 995 351.126 1015 Q415.082 1035 482.082 1035 Q547.082 1035 606.486 1022 Q665.89 1009 709.645 978.5 Q753.4 948 775.699 897.5 Q797.999 847 788.79 772 Z M359.79 -18 Q335.79 -18 316.395 -9 Q297 0 283.403 15.5 Q269.806 31 263.323 51.5 Q256.84 72 259.787 96 Q262.734 120 274.251 140.5 Q285.768 161 303.171 176.5 Q320.575 192 342.18 201 Q363.785 210 387.785 210 Q411.785 210 431.18 201 Q450.575 192 464.171 176.5 Q477.768 161 484.251 140.5 Q490.734 120 487.787 96 Q484.84 72 473.323 51.5 Q461.806 31 444.403 15.5 Q427 0 405.395 -9 Q383.79 -18 359.79 -18 Z " />
<glyph glyph-name="exclam" unicode="&#x21;" horiz-adv-x="282" d="M147.082 1035 L388.082 1035 L297.958 301 L56.9582 301 L147.082 1035 Z M138.79 -18 Q114.79 -18 95.3949 -9 Q76 0 62.4032 15.5 Q48.8063 31 42.3234 51.5 Q35.8405 72 38.7873 96 Q41.7341 120 53.2512 140.5 Q64.7683 161 82.1715 176.5 Q99.5746 192 121.18 201 Q142.785 210 166.785 210 Q190.785 210 210.18 201 Q229.575 192 243.171 176.5 Q256.768 161 263.251 140.5 Q269.734 120 266.787 96 Q263.84 72 252.323 51.5 Q240.806 31 223.403 15.5 Q206 0 184.395 -9 Q162.79 -18 138.79 -18 Z " />
<glyph glyph-name="equal" unicode="&#x3d;" horiz-adv-x="516" d="M82.129 506 L109.019 725 L585.019 725 L558.129 506 L82.129 506 Z M39.1544 156 L66.0442 375 L542.044 375 L515.154 156 L39.1544 156 Z " />
<glyph glyph-name="Lslash" unicode="&#x141;" horiz-adv-x="830" d="M70.6417 331 L97.5315 550 L162.532 550 L202.436 875 L454.436 875 L414.532 550 L573.532 550 L546.642 331 L387.642 331 L379.17 262 Q376.714 242 386.302 230.5 Q395.89 219 415.89 219 L821.89 219 L795 0 L95 0 L135.642 331 L70.6417 331 Z " />
<glyph glyph-name="Euro" unicode="&#x20ac;" horiz-adv-x="660" d="M465.664 885 Q536.664 885 595.411 858.5 Q654.157 832 695.386 785 L555.792 658 Q540.757 674 518.923 683.5 Q497.09 693 471.09 693 Q424.09 693 387.204 669.5 Q350.319 646 336.794 601 L579.794 601 L562.235 458 L332.235 458 Q324.235 458 320.867 455 Q317.499 452 316.507 448 Q315.516 444 315.648 441 Q315.78 438 315.657 437 L313.078 416 L557.078 416 L539.52 273 L296.52 273 Q298.363 231 328.039 208 Q357.715 185 401.715 185 Q426.715 185 449.382 194.5 Q472.048 204 491.013 220 L611.051 90 Q558.28 43 493.026 16.5 Q427.772 -10 355.772 -10 Q290.772 -10 235.789 10.5 Q180.806 31 140.411 68.5 Q100.015 106 76.4 158 Q52.7848 210 51.5202 273 L-39.4798 273 L-21.9216 416 L31.0784 416 Q47.0784 416 58.0518 428 Q69.0252 440 70.867 455 L71.2353 458 L-16.7647 458 L0.793521 601 L91.7935 601 Q108.529 664 144.414 716 Q180.299 768 229.903 805.5 Q279.507 843 340.086 864 Q400.664 885 465.664 885 Z " />
<glyph glyph-name="Aacute" unicode="&#xc1;" horiz-adv-x="1094" d="M1064 0 L816 0 L764.4 158 Q760.996 171 749.917 178.5 Q738.838 186 724.838 186 L414.838 186 Q400.838 186 387.917 178.5 Q374.996 171 368.4 158 L278 0 L30 0 L530.436 875 L778.436 875 L1064 0 Z M509.605 404 L683.605 404 L620.548 599 L509.605 404 Z M782.521 1006 L593.521 1006 L859.126 1410 L1031.02 1287 L782.521 1006 Z " />
<glyph glyph-name="Acircumflex" unicode="&#xc2;" horiz-adv-x="1094" d="M1064 0 L816 0 L764.4 158 Q760.996 171 749.917 178.5 Q738.838 186 724.838 186 L414.838 186 Q400.838 186 387.917 178.5 Q374.996 171 368.4 158 L278 0 L30 0 L530.436 875 L778.436 875 L1064 0 Z M846.4 948 L709.554 1104 Q699.905 1115 683.405 1115 Q666.905 1115 654.554 1104 L479.4 948 L381.152 1060 L713.496 1356 L973.152 1060 L847.4 948 L846.4 948 Z M509.605 404 L683.605 404 L620.548 599 L509.605 404 Z " />
<glyph glyph-name="minus" unicode="&#x2212;" horiz-adv-x="483" d="M69.605 404 L77.7087 470 L520.709 470 L512.605 404 L69.605 404 Z " />
<glyph glyph-name="plusminus" unicode="&#xb1;" horiz-adv-x="483" d="M36.8215 137 L54.3797 280 L176.38 280 L187.553 371 L65.5531 371 L89.8644 569 L211.864 569 L226.844 691 L424.844 691 L409.864 569 L532.864 569 L508.553 371 L385.553 371 L374.38 280 L497.38 280 L479.821 137 L36.8215 137 Z " />
<glyph glyph-name="Cacute" unicode="&#x106;" horiz-adv-x="847" d="M565.618 624 Q526.618 624 490.837 609.5 Q455.057 595 426.426 569.5 Q397.795 544 378.682 510.5 Q359.568 477 354.78 438 Q349.991 399 360.316 365 Q370.642 331 393.011 305.5 Q415.38 280 447.099 265.5 Q478.819 251 517.819 251 Q555.819 251 591.538 265 Q627.257 279 656.572 306 L812.716 128 Q743.104 66 658.552 33 Q574 0 487 0 Q397 0 321.236 34.5 Q245.472 69 193.778 128.5 Q142.083 188 117.406 268 Q92.729 348 103.78 438 Q114.83 528 159.153 608 Q203.476 688 269.72 747 Q335.964 806 420.2 840.5 Q504.436 875 594.436 875 Q681.436 875 757.885 842 Q834.333 809 888.72 747 L688.864 569 Q666.057 595 633.837 609.5 Q601.618 624 565.618 624 Z M702.521 1006 L513.521 1006 L779.126 1410 L951.024 1287 L702.521 1006 Z " />
<glyph glyph-name="Ccircumflex" unicode="&#x108;" horiz-adv-x="847" d="M565.618 624 Q526.618 624 490.837 609.5 Q455.057 595 426.426 569.5 Q397.795 544 378.682 510.5 Q359.568 477 354.78 438 Q349.991 399 360.316 365 Q370.642 331 393.011 305.5 Q415.38 280 447.099 265.5 Q478.819 251 517.819 251 Q555.819 251 591.538 265 Q627.257 279 656.572 306 L812.716 128 Q743.104 66 658.552 33 Q574 0 487 0 Q397 0 321.236 34.5 Q245.472 69 193.778 128.5 Q142.083 188 117.406 268 Q92.729 348 103.78 438 Q114.83 528 159.153 608 Q203.476 688 269.72 747 Q335.964 806 420.2 840.5 Q504.436 875 594.436 875 Q681.436 875 757.885 842 Q834.333 809 888.72 747 L688.864 569 Q666.057 595 633.837 609.5 Q601.618 624 565.618 624 Z M807.4 948 L670.554 1104 Q660.905 1115 644.405 1115 Q627.905 1115 615.554 1104 L440.4 948 L342.152 1060 L674.496 1356 L934.152 1060 L808.4 948 L807.4 948 Z " />
<glyph glyph-name="Cdotaccent" unicode="&#x10a;" horiz-adv-x="847" d="M565.618 624 Q526.618 624 490.837 609.5 Q455.057 595 426.426 569.5 Q397.795 544 378.682 510.5 Q359.568 477 354.78 438 Q349.991 399 360.316 365 Q370.642 331 393.011 305.5 Q415.38 280 447.099 265.5 Q478.819 251 517.819 251 Q555.819 251 591.538 265 Q627.257 279 656.572 306 L812.716 128 Q743.104 66 658.552 33 Q574 0 487 0 Q397 0 321.236 34.5 Q245.472 69 193.778 128.5 Q142.083 188 117.406 268 Q92.729 348 103.78 438 Q114.83 528 159.153 608 Q203.476 688 269.72 747 Q335.964 806 420.2 840.5 Q504.436 875 594.436 875 Q681.436 875 757.885 842 Q834.333 809 888.72 747 L688.864 569 Q666.057 595 633.837 609.5 Q601.618 624 565.618 624 Z M720.204 1093 Q717.011 1067 704.248 1044.5 Q691.486 1022 672.46 1005.5 Q653.434 989 629.706 979 Q605.978 969 579.978 969 Q553.978 969 532.706 979 Q511.434 989 496.96 1005.5 Q482.486 1022 475.248 1044.5 Q468.011 1067 471.204 1093 Q474.396 1119 487.159 1141.5 Q499.921 1164 518.509 1181 Q537.096 1198 560.824 1208 Q584.552 1218 610.552 1218 Q636.552 1218 657.824 1208 Q679.096 1198 694.009 1181 Q708.921 1164 716.159 1141.5 Q723.396 1119 720.204 1093 Z " />
<glyph glyph-name="Aogonek" unicode="&#x104;" horiz-adv-x="1094" d="M958.075 -203 Q908.672 -247 859.91 -269.5 Q811.147 -292 765.147 -292 Q718.147 -292 679.357 -274 Q640.567 -256 613.873 -225 Q587.18 -194 574.275 -152.5 Q561.371 -111 567.142 -64 Q571.93 -25 588.728 10 Q605.525 45 631.463 73 Q657.401 101 691.918 121.5 Q726.435 142 766.663 152 L764.4 158 Q760.996 171 749.917 178.5 Q738.838 186 724.838 186 L414.838 186 Q400.838 186 387.917 178.5 Q374.996 171 368.4 158 L278 0 L30 0 L530.436 875 L778.436 875 L1064 0 L816 0 Q781 0 753.728 -18.5 Q726.457 -37 723.265 -63 Q720.072 -89 736.362 -107 Q752.652 -125 778.652 -125 Q791.652 -125 808.196 -116.5 Q824.739 -108 842.581 -93 L958.075 -203 Z M509.605 404 L683.605 404 L620.548 599 L509.605 404 Z " />
<glyph glyph-name="Amacron" unicode="&#x100;" horiz-adv-x="1094" d="M1064 0 L816 0 L764.4 158 Q760.996 171 749.917 178.5 Q738.838 186 724.838 186 L414.838 186 Q400.838 186 387.917 178.5 Q374.996 171 368.4 158 L278 0 L30 0 L530.436 875 L778.436 875 L1064 0 Z M409.258 1012 L433.569 1210 L956.569 1210 L932.258 1012 L409.258 1012 Z M509.605 404 L683.605 404 L620.548 599 L509.605 404 Z " />
<glyph glyph-name="Hbar" unicode="&#x126;" horiz-adv-x="1022" d="M113.811 593 L140.701 812 L194.701 812 L202.436 875 L444.436 875 L436.701 812 L784.701 812 L792.436 875 L1034.44 875 L1026.7 812 L1080.7 812 L1053.81 593 L999.811 593 L927 0 L685 0 L722.204 303 Q723.554 314 716.598 322.5 Q709.642 331 698.642 331 L404.642 331 Q393.642 331 384.598 322.5 Q375.554 314 374.204 303 L337 0 L95 0 L167.811 593 L113.811 593 Z M755.969 578 L757.811 593 L409.811 593 L407.969 578 Q406.619 567 413.575 558.5 Q420.532 550 431.532 550 L725.532 550 Q736.532 550 745.575 558.5 Q754.619 567 755.969 578 Z " />
<glyph glyph-name="Lacute" unicode="&#x139;" horiz-adv-x="830" d="M454.436 875 L379.17 262 Q376.714 242 386.302 230.5 Q395.89 219 415.89 219 L821.89 219 L795 0 L95 0 L202.436 875 L454.436 875 Z M471.521 1006 L283.521 1006 L549.126 1410 L720.024 1287 L471.521 1006 Z " />
<glyph glyph-name="Jcircumflex" unicode="&#x134;" horiz-adv-x="728" d="M429.834 357 L493.314 874 L745.314 874 L681.343 353 Q672.38 280 636.96 215.5 Q601.54 151 547.647 103 Q493.753 55 425.877 27.5 Q358 0 285 0 Q211 0 150.377 27.5 Q89.7532 55 47.6468 103 L237.52 273 Q249.801 259 268.371 255.5 Q286.942 252 308.942 252 Q330.942 252 351.485 260.5 Q372.029 269 388.748 283 Q405.467 297 416.361 316.5 Q427.256 336 429.834 357 Z M815.4 948 L675.923 1107 Q666.273 1118 650.528 1116 Q634.782 1114 623.554 1104 L448.4 948 L350.152 1060 L682.496 1356 L942.152 1060 L816.4 948 L815.4 948 Z " />
<glyph glyph-name="aeacute" unicode="&#x1fd;" horiz-adv-x="1045" d="M795.205 246 Q793.854 235 800.872 227 Q807.89 219 818.89 219 L1193.89 219 L1167 0 L523 0 L560.695 307 Q560.045 318 553.844 324.5 Q547.642 331 536.642 331 L415.642 331 Q398.642 331 383.791 320 Q368.94 309 362.853 292 L269 0 L30 0 L307.436 875 L630.436 875 L1274.31 874 L1247.3 654 L872.301 654 Q861.301 654 852.319 646 Q843.337 638 841.863 626 L835.969 578 Q834.496 566 841.514 558 Q848.532 550 859.532 550 L1234.53 550 L1207.64 331 L805.642 331 L795.205 246 Z M590.532 550 L600.231 629 Q599.582 640 593.38 646.5 Q587.178 653 576.178 653 L477.178 653 L443.532 550 L590.532 550 Z M845.521 1006 L656.521 1006 L922.126 1410 L1094.02 1287 L845.521 1006 Z " />
<glyph glyph-name="Eth" unicode="&#xd0;" horiz-adv-x="874" d="M70.6417 331 L97.5315 550 L162.532 550 L202.436 875 L575.436 875 Q665.436 875 741.2 840.5 Q816.964 806 868.659 746.5 Q920.353 687 945.03 607 Q969.707 527 958.657 437 Q947.606 347 903.283 267 Q858.961 187 792.716 128 Q726.472 69 642.236 34.5 Q558 0 468 0 L95 0 L135.642 331 L70.6417 331 Z M707.534 436 Q711.954 472 702.129 506 Q692.304 540 671.057 566.5 Q649.811 593 618.714 608.5 Q587.618 624 549.618 624 L447.618 624 Q436.618 624 428.697 616.5 Q420.776 609 419.425 598 L413.532 550 L573.532 550 L546.642 331 L386.642 331 L379.889 276 Q378.538 265 384.678 258 Q390.819 251 401.819 251 L503.819 251 Q540.819 251 575.222 266.5 Q609.625 282 637.756 307.5 Q665.887 333 684.501 366.5 Q703.114 400 707.534 436 Z " />
<glyph glyph-name="commaaccent" unicode="&#xf6c3;" horiz-adv-x="454" d="M107.565 -142 L310.565 -142 L254.062 -423 L73.0621 -423 L107.565 -142 Z " />
<glyph glyph-name="Lcommaaccent" unicode="&#x13b;" horiz-adv-x="830" d="M454.436 875 L379.17 262 Q376.714 242 386.302 230.5 Q395.89 219 415.89 219 L821.89 219 L795 0 L95 0 L202.436 875 L454.436 875 Z M230.565 -142 L433.565 -142 L377.062 -423 L196.062 -423 L230.565 -142 Z " />
<glyph glyph-name="Ldot" unicode="&#x13f;" horiz-adv-x="830" d="M454.436 875 L379.17 262 Q376.714 242 386.302 230.5 Q395.89 219 415.89 219 L821.89 219 L795 0 L95 0 L202.436 875 L454.436 875 Z M724.62 510 Q721.428 484 708.665 461.5 Q695.902 439 676.876 422.5 Q657.851 406 634.123 396 Q610.395 386 584.395 386 Q558.395 386 537.123 396 Q515.851 406 501.376 422.5 Q486.902 439 479.665 461.5 Q472.428 484 475.62 510 Q478.813 536 491.575 558.5 Q504.338 581 522.925 598 Q541.513 615 565.24 625 Q588.968 635 614.968 635 Q640.968 635 662.24 625 Q683.513 615 698.425 598 Q713.338 581 720.575 558.5 Q727.813 536 724.62 510 Z " />
<glyph glyph-name="Abreve" unicode="&#x102;" horiz-adv-x="1094" d="M1064 0 L816 0 L761.628 168 Q757.978 179 747.408 182.5 Q736.838 186 724.838 186 L414.838 186 Q399.838 186 387.417 178.5 Q374.996 171 368.4 158 L278 0 L30 0 L530.436 875 L778.436 875 L1064 0 Z M771.621 1243 L948.621 1243 Q942.359 1192 917.272 1146.5 Q892.186 1101 854.011 1067 Q815.836 1033 767.942 1013.5 Q720.048 994 669.048 994 Q618.048 994 574.942 1013.5 Q531.836 1033 502.011 1067 Q472.186 1101 458.272 1146.5 Q444.359 1192 450.621 1243 L627.621 1243 Q624.06 1214 642.859 1192 Q661.658 1170 691.658 1170 Q706.658 1170 719.895 1176 Q733.131 1182 744.359 1192 Q755.587 1202 762.745 1215.5 Q769.902 1229 771.621 1243 Z M509.605 404 L683.605 404 L620.548 599 L509.605 404 Z " />
<glyph glyph-name="Thorn" unicode="&#xde;" horiz-adv-x="786" d="M202.314 874 L268.314 874 L246.458 696 Q246.107 685 252.748 678 Q259.388 671 270.388 671 L592.388 671 Q640.388 671 681.117 652.5 Q721.845 634 749.978 602.5 Q778.11 571 791.33 528 Q804.551 485 798.657 437 Q792.763 389 768.983 346 Q745.204 303 709.336 271.5 Q673.468 240 628.197 221.5 Q582.925 203 534.925 203 L212.925 203 Q201.925 203 193.566 196 Q185.206 189 182.856 178 L161 0 L95 0 L202.314 874 Z M732.657 437 Q737.077 473 726.445 504.5 Q715.813 536 694.575 558.5 Q673.338 581 642.934 594 Q612.53 607 576.53 607 L262.53 607 Q251.53 607 242.487 598.5 Q233.443 590 232.092 579 L197.221 295 Q195.871 284 202.827 275.5 Q209.783 267 220.783 267 L534.783 267 Q570.783 267 604.38 280 Q637.976 293 664.739 315.5 Q691.501 338 709.869 369.5 Q728.237 401 732.657 437 Z " />
<glyph glyph-name="space" unicode="&#x20;" horiz-adv-x="454" d="" />
<glyph glyph-name="at" unicode="&#x40;" horiz-adv-x="994" d="M760.29 377 Q758.483 346 776.721 323.5 Q794.958 301 826.958 301 Q858.958 301 883.659 323 Q908.361 345 912.29 377 L925.796 487 Q933.9 553 911.583 611.5 Q889.266 670 844.607 713.5 Q799.948 757 735.579 782.5 Q671.21 808 596.21 808 Q519.21 808 448.149 779 Q377.088 750 320.388 699.5 Q263.687 649 226.399 581.5 Q189.111 514 179.78 438 Q170.448 362 191.16 294.5 Q211.872 227 256.11 176 Q300.348 125 363.726 95.5 Q427.104 66 504.104 66 Q578.104 66 650.042 94 Q721.98 122 781.487 175 L822.716 128 Q753.104 66 668.552 33 Q584 0 497 0 Q407 0 331.236 34.5 Q255.472 69 203.716 128 Q151.961 187 127.283 267 Q102.606 347 113.657 437 Q124.707 527 169.03 607 Q213.353 687 279.597 746 Q345.842 805 430.078 839.5 Q514.314 874 604.314 874 Q695.314 874 770.946 842.5 Q846.578 811 898.948 757 Q951.318 703 976.977 631 Q1002.64 559 992.568 477 L980.29 377 Q976.729 348 962.037 322 Q947.344 296 925.45 276.5 Q903.556 257 876.144 245.5 Q848.732 234 818.732 234 Q777.732 234 747.249 254.5 Q716.766 275 701.818 308 Q670.52 273 626.626 253.5 Q582.732 234 525.732 234 Q472.732 234 434.819 251 Q396.906 268 373.467 297 Q350.028 326 340.878 365.5 Q331.728 405 337.13 449 Q343.761 503 365.295 544 Q386.829 585 418.767 613 Q450.705 641 491.985 655.5 Q533.266 670 579.266 670 Q621.266 670 657.792 658 Q694.319 646 720.995 623 Q747.671 600 761.935 565.5 Q776.199 531 772.673 486 L760.29 377 Z M702.13 449 Q711.094 522 674.444 561.5 Q637.794 601 570.916 602 Q503.794 601 457.444 561.5 Q411.094 522 402.13 449 Q397.71 413 406.211 384.5 Q414.711 356 432.317 336.5 Q449.923 317 476.195 307 Q502.467 297 533.467 297 Q564.467 297 593.195 307 Q621.923 317 644.317 336.5 Q666.711 356 682.211 384.5 Q697.71 413 702.13 449 Z " />
<glyph glyph-name="divide" unicode="&#xf7;" horiz-adv-x="282" d="M163.101 180 Q140.101 180 125.627 196.5 Q111.153 213 113.977 236 Q116.801 259 135.327 275.5 Q153.853 292 176.853 292 Q199.853 292 214.327 275.5 Q228.801 259 225.977 236 Q223.153 213 204.627 196.5 Q186.101 180 163.101 180 Z M211.847 577 Q188.847 577 174.373 593.5 Q159.899 610 162.723 633 Q165.547 656 184.073 672.5 Q202.599 689 225.599 689 Q248.599 689 263.073 672.5 Q277.547 656 274.723 633 Q271.899 610 253.373 593.5 Q234.847 577 211.847 577 Z M-30.395 404 L-22.2913 470 L420.709 470 L412.605 404 L-30.395 404 Z " />
<glyph glyph-name="thorn" unicode="&#xfe;" horiz-adv-x="786" d="M202.314 874 L454.314 874 L441.667 771 Q441.316 760 447.957 753 Q454.597 746 465.597 746 L597.474 745 Q665.474 745 722.712 722.5 Q779.949 700 819.976 659.5 Q860.004 619 879.505 562 Q899.006 505 890.657 437 Q882.308 369 848.809 312 Q815.31 255 765.276 214 Q715.242 173 652.479 150.5 Q589.716 128 521.716 128 L389.594 127 Q378.594 127 370.234 120 Q361.875 113 359.524 102 L347 0 L95 0 L202.314 874 Z M656.025 440 Q658.604 461 652.814 479 Q647.024 497 634.559 509.5 Q622.094 522 605.014 529.5 Q587.935 537 567.935 537 L439.935 537 Q428.935 537 419.892 528.5 Q410.848 520 409.497 509 L392.799 373 Q391.448 362 398.404 353.5 Q405.361 345 416.361 345 L544.238 344 Q564.238 344 583.159 351.5 Q602.08 359 617.614 371.5 Q633.149 384 643.298 401.5 Q653.447 419 656.025 440 Z " />
<glyph glyph-name="trademark" unicode="&#x2122;" horiz-adv-x="554" d="M602.436 875 L631.436 875 L601.231 629 L572.231 629 L597.402 834 L480.51 729 L389.402 834 L364.231 629 L335.231 629 L365.436 875 L394.436 875 L480.281 776 Q482.035 774 485.535 774 Q489.035 774 491.281 776 L602.436 875 Z M133.876 846 L137.436 875 L339.436 875 L335.876 846 L259.876 846 Q255.876 846 252.007 843 Q248.139 840 247.525 835 L222.231 629 L194.231 629 L219.525 835 Q220.876 846 209.876 846 L133.876 846 Z " />
<glyph glyph-name="registered" unicode="&#xae;" horiz-adv-x="520" d="M465.087 807 Q462.509 786 446.237 767.5 Q429.966 749 409.352 744 Q401.106 742 400.124 734 Q399.878 732 405.037 717 Q410.195 702 416.923 683.5 Q423.652 665 430.126 648.5 Q436.6 632 438.109 628 L385.109 628 L342.106 742 L312.106 742 Q300.106 742 298.756 731 L286.109 628 L237.109 628 L267.314 874 L407.314 874 Q435.314 874 451.919 854.5 Q468.525 835 465.087 807 Z M397.491 794 Q410.491 794 412.087 807 Q413.806 821 400.806 821 L308.806 821 Q305.806 821 305.315 817 L302.859 797 Q302.491 794 305.491 794 L397.491 794 Z M121.72 747 Q127.614 795 150.709 836.5 Q173.805 878 209.173 909.5 Q244.54 941 288.25 959 Q331.961 977 379.961 977 Q427.961 977 467.25 959 Q506.54 941 534.173 909.5 Q561.805 878 574.709 836.5 Q587.614 795 581.72 747 Q575.826 699 552.731 657.5 Q529.635 616 494.268 584.5 Q458.9 553 415.19 535 Q371.48 517 323.48 517 Q275.48 517 236.19 535 Q196.9 553 169.268 584.5 Q141.635 616 128.731 657.5 Q115.826 699 121.72 747 Z M170.72 747 Q166.054 709 176.064 676.5 Q186.073 644 208.004 619 Q229.934 594 260.715 580 Q291.496 566 329.496 566 Q366.496 566 401.215 580 Q435.934 594 464.004 619 Q492.073 644 510.064 676.5 Q528.054 709 532.72 747 Q537.263 784 527.315 817 Q517.367 850 495.436 875 Q473.506 900 442.225 914 Q410.944 928 373.944 928 Q335.944 928 301.725 914 Q267.506 900 239.436 875 Q211.367 850 193.315 817 Q175.263 784 170.72 747 Z " />
<glyph glyph-name="copyright" unicode="&#xa9;" horiz-adv-x="520" d="M121.72 747 Q127.614 795 150.709 836.5 Q173.805 878 209.173 909.5 Q244.54 941 288.25 959 Q331.961 977 379.961 977 Q427.961 977 467.25 959 Q506.54 941 534.173 909.5 Q561.805 878 574.709 836.5 Q587.614 795 581.72 747 Q575.826 699 552.731 657.5 Q529.635 616 494.268 584.5 Q458.9 553 415.19 535 Q371.48 517 323.48 517 Q275.48 517 236.19 535 Q196.9 553 169.268 584.5 Q141.635 616 128.731 657.5 Q115.826 699 121.72 747 Z M172.72 747 Q168.177 710 178.187 677.5 Q188.196 645 209.688 620.5 Q231.18 596 261.961 582 Q292.742 568 329.742 568 Q366.742 568 401.461 582 Q436.18 596 463.688 620.5 Q491.196 645 509.187 677.5 Q527.177 710 531.72 747 Q536.263 784 526.315 817 Q516.367 850 494.875 874.5 Q473.383 899 442.102 913 Q410.821 927 373.821 927 Q336.821 927 302.602 913 Q268.383 899 240.875 874.5 Q213.367 850 195.315 817 Q177.263 784 172.72 747 Z M371.719 804 Q348.719 804 329.631 787 Q310.544 770 307.72 747 Q304.896 724 318.809 707 Q332.721 690 355.721 690 Q380.721 690 398.686 706 L436.915 659 Q417.828 642 393.661 632.5 Q369.495 623 345.495 623 Q319.495 623 298.223 633 Q276.95 643 261.976 659.5 Q247.002 676 240.265 698.5 Q233.528 721 236.72 747 Q239.79 772 252.052 794.5 Q264.315 817 283.402 834 Q302.49 851 326.156 860.5 Q349.823 870 375.823 870 Q399.823 870 421.656 860.5 Q443.49 851 458.402 834 L408.754 788 Q401.614 795 392.166 799.5 Q382.719 804 371.719 804 Z " />
<glyph glyph-name="eth" unicode="&#xf0;" horiz-adv-x="855" d="M562.619 567 L506.686 706 L575.492 737 Q540.912 773 496.877 789 L581.874 903 Q630.91 887 667.27 865.5 Q703.63 844 732.192 816 L853.314 874 L909.247 735 L802.985 684 Q816.477 631 817.303 568.5 Q818.129 506 809.288 434 L791.976 293 Q783.013 220 749.575 163.5 Q716.138 107 663.911 68.5 Q611.684 30 544.228 10 Q476.772 -10 399.772 -10 Q317.772 -10 256.912 11.5 Q196.052 33 157.218 71 Q118.384 109 102.268 161 Q86.1531 213 93.7658 275 Q101.133 335 130.395 386 Q159.657 437 208.2 474 Q256.743 511 322.321 532 Q387.9 553 468.9 553 Q503.9 553 533.54 546 Q563.181 539 586.514 529.5 Q609.848 520 625.497 509 Q641.147 498 648.287 491 L656.514 558 Q657.496 566 655.531 578.5 Q653.566 591 649.653 608 L562.619 567 Z M449.799 373 Q387.799 373 350.483 346 Q313.168 319 307.643 274 Q301.749 226 332.627 196.5 Q363.505 167 424.505 167 Q460.505 167 487.61 176 Q514.715 185 533.557 200 Q552.399 215 562.793 234.5 Q573.187 254 575.889 276 Q581.782 324 545.79 348.5 Q509.799 373 449.799 373 Z " />
<glyph glyph-name="degree" unicode="&#xb0;" horiz-adv-x="306" d="M233.301 654 Q253.301 654 271.722 661.5 Q290.143 669 304.8 682.5 Q319.458 696 329.107 713.5 Q338.756 731 341.211 751 Q346.123 791 321.499 818.5 Q296.876 846 256.876 846 Q216.876 846 184.999 818.5 Q153.123 791 148.211 751 Q145.756 731 151.107 713.5 Q156.458 696 168.3 682.5 Q180.143 669 196.722 661.5 Q213.301 654 233.301 654 Z M260.314 874 Q285.314 874 306.647 864.5 Q327.981 855 342.893 838 Q357.806 821 364.543 798.5 Q371.281 776 368.211 751 Q365.019 725 352.818 703 Q340.616 681 321.529 664 Q302.442 647 278.775 637.5 Q255.109 628 230.109 628 Q204.109 628 183.275 637.5 Q162.442 647 147.529 664 Q132.616 681 125.818 703 Q119.019 725 122.211 751 Q125.281 776 137.543 798.5 Q149.806 821 168.893 838 Q187.981 855 211.147 864.5 Q234.314 874 260.314 874 Z " />
<glyph glyph-name="percent" unicode="&#x25;" horiz-adv-x="789" d="M856.494 680 L161.613 62 L44.943 195 L739.824 813 L856.494 680 Z M622.571 363 Q651.571 363 676.22 352 Q700.87 341 717.475 321.5 Q734.081 302 741.889 276 Q749.696 250 746.135 221 Q742.575 192 728.382 166 Q714.19 140 692.857 121 Q671.524 102 644.173 91 Q616.823 80 587.823 80 Q558.823 80 534.173 91 Q509.524 102 492.357 121 Q475.19 140 467.382 166 Q459.575 192 463.135 221 Q466.696 250 480.889 276 Q495.081 302 516.975 321.5 Q538.87 341 566.22 352 Q593.571 363 622.571 363 Z M301.455 810 Q330.455 810 355.105 799 Q379.754 788 396.36 768.5 Q412.966 749 420.773 723 Q428.581 697 425.02 668 Q421.459 639 407.267 613 Q393.075 587 371.742 568 Q350.409 549 323.058 538 Q295.707 527 266.707 527 Q237.707 527 213.058 538 Q188.409 549 171.242 568 Q154.075 587 146.267 613 Q138.459 639 142.02 668 Q145.581 697 159.773 723 Q173.966 749 195.86 768.5 Q217.754 788 245.105 799 Q272.455 810 301.455 810 Z M600.697 193 Q611.697 193 620.68 201 Q629.662 209 631.013 220 Q632.486 232 625.407 239.5 Q618.328 247 607.328 247 Q595.328 247 586.407 239.5 Q577.486 232 576.013 220 Q574.662 209 581.68 201 Q588.697 193 600.697 193 Z M279.582 640 Q290.582 640 299.064 648 Q307.547 656 308.897 667 Q310.371 679 303.792 686.5 Q297.212 694 286.212 694 Q275.212 694 265.792 686.5 Q256.371 679 254.897 667 Q253.547 656 261.064 648 Q268.582 640 279.582 640 Z " />
<glyph glyph-name="less" unicode="&#x3c;" horiz-adv-x="494" d="M73.5341 436 L419.334 752 L548.162 604 L369.78 438 L508.134 278 L342.962 130 L73.5341 436 Z " />
<glyph glyph-name="lessequal" unicode="&#x2264;" horiz-adv-x="561" d="M28.5949 70 L54.6252 282 L301.625 282 L94.5341 436 L440.334 752 L570.162 604 L391.902 439 L516.747 340 L575.625 282 L549.595 70 L28.5949 70 Z " />
<glyph glyph-name="asciitilde" unicode="&#x7e;" horiz-adv-x="418" d="M89.7416 568 Q124.794 601 157.223 604.5 Q189.653 608 219.302 597 Q248.952 586 278.68 567.5 Q308.409 549 338.058 538 Q367.707 527 400.137 530.5 Q432.567 534 467.619 567 L443.308 369 Q407.256 336 375.826 332.5 Q344.396 329 313.747 340 Q283.097 351 253.869 369.5 Q224.64 388 194.991 399 Q165.342 410 132.912 406.5 Q100.482 403 65.4303 370 L89.7416 568 Z " />
<glyph glyph-name="notequal" unicode="&#x2260;" horiz-adv-x="483" d="M73.2962 92 L101.154 156 L39.1544 156 L66.0442 375 L197.044 375 L254.129 506 L82.129 506 L109.019 725 L350.019 725 L405.735 853 L562.842 805 L528.019 725 L585.019 725 L558.129 506 L432.129 506 L375.044 375 L542.044 375 L515.154 156 L279.154 156 L229.403 44 L73.2962 92 Z " />
<glyph glyph-name="middot" unicode="&#xb7;" horiz-adv-x="282" d="M187.29 377 Q163.29 377 143.895 386 Q124.5 395 110.903 410.5 Q97.3062 426 90.8233 446.5 Q84.3404 467 87.2872 491 Q90.234 515 101.751 535.5 Q113.268 556 130.671 571.5 Q148.075 587 169.68 596 Q191.285 605 215.285 605 Q239.285 605 258.68 596 Q278.075 587 291.671 571.5 Q305.268 556 311.751 535.5 Q318.234 515 315.287 491 Q312.34 467 300.823 446.5 Q289.306 426 271.903 410.5 Q254.5 395 232.895 386 Q211.29 377 187.29 377 Z " />
<glyph glyph-name="bullet" unicode="&#x2022;" horiz-adv-x="360" d="M221.87 341 Q181.87 341 157.746 368.5 Q133.623 396 138.534 436 Q143.445 476 174.322 503.5 Q205.199 531 245.199 531 Q285.199 531 309.322 503.5 Q333.445 476 328.534 436 Q323.623 396 292.746 368.5 Q261.87 341 221.87 341 Z " />
<glyph glyph-name="asterisk" unicode="&#x2a;" horiz-adv-x="622" d="M437.29 377 L368.673 486 L276.167 376 L157.2 474 L249.461 582 L126.74 625 L196.772 780 L318.615 738 L335.314 874 L500.314 874 L483.615 738 L618.772 780 L648.74 625 L516.461 582 Q533.023 554 550.146 526.5 Q567.269 499 582.2 474 L437.29 377 Z " />
<glyph glyph-name="guilsinglleft" unicode="&#x2039;" horiz-adv-x="602" d="M360.849 463 Q391.288 434 424.482 403 Q457.676 372 488.992 342 L583.064 253 L426.419 93 L99.2366 401 L114.216 523 L517.034 831 L634.388 671 L360.849 463 Z " />
<glyph glyph-name="guilsinglright" unicode="&#x203a;" horiz-adv-x="600" d="M132.388 671 L289.034 831 L614.216 523 L599.237 401 L198.419 93 L81.0645 253 L354.849 463 L132.388 671 Z " />
<glyph glyph-name="guillemotleft" unicode="&#xab;" horiz-adv-x="1119" d="M360.849 463 Q376.13 449 393.604 432.5 Q411.078 416 436.132 392 Q461.185 368 496.571 334.5 Q531.958 301 583.064 253 L426.419 93 L99.2366 401 L114.216 523 L517.034 831 L634.388 671 L360.849 463 Z M877.849 463 L1100.06 253 L943.419 93 L617.237 401 L632.216 523 L1034.03 831 L1151.39 671 L877.849 463 Z " />
<glyph glyph-name="partialdiff" unicode="&#x2202;" horiz-adv-x="826" d="M399.772 -10 Q317.772 -10 256.912 11.5 Q196.052 33 157.218 71 Q118.384 109 102.268 161 Q86.1531 213 93.7658 275 Q101.133 335 130.395 386 Q159.657 437 208.2 474 Q256.743 511 322.321 532 Q387.9 553 468.9 553 Q503.9 553 525.47 549.5 Q547.04 546 560.365 540.5 Q573.69 535 581.269 527.5 Q588.848 520 595.988 513 L601.514 558 Q603.847 577 599.232 600.5 Q594.618 624 580.442 647 Q566.266 670 539.844 691 Q513.423 712 472.019 725 L581.874 903 Q660.928 879 710.648 836 Q760.368 793 786.062 733.5 Q811.757 674 815.987 598.5 Q820.216 523 809.288 434 L791.976 293 Q783.013 220 749.575 163.5 Q716.138 107 663.911 68.5 Q611.684 30 544.228 10 Q476.772 -10 399.772 -10 Z M449.799 373 Q387.799 373 350.483 346 Q313.168 319 307.643 274 Q301.749 226 332.627 196.5 Q363.505 167 424.505 167 Q460.505 167 487.61 176 Q514.715 185 533.557 200 Q552.399 215 562.793 234.5 Q573.187 254 575.889 276 Q581.782 324 545.79 348.5 Q509.799 373 449.799 373 Z " />
<glyph glyph-name="quotedbl" unicode="&#x22;" horiz-adv-x="589" d="M469.109 628 L672.109 628 L615.606 347 L434.606 347 L469.109 628 Z M137.109 628 L340.109 628 L283.606 347 L102.606 347 L137.109 628 Z " />
<glyph glyph-name="quotedblleft" unicode="&#x201c;" horiz-adv-x="655" d="M102.606 347 L137.109 628 L318.109 628 L305.606 347 L102.606 347 Z M434.606 347 L469.109 628 L650.109 628 L637.606 347 L434.606 347 Z " />
<glyph glyph-name="quotedblright" unicode="&#x201d;" horiz-adv-x="655" d="M672.109 628 L637.606 347 L456.606 347 L469.109 628 L672.109 628 Z M340.109 628 L305.606 347 L124.606 347 L137.109 628 L340.109 628 Z " />
<glyph glyph-name="quotesingle" unicode="&#x27;" horiz-adv-x="323" d="M167.436 875 L370.436 875 L313.934 594 L132.934 594 L167.436 875 Z " />
<glyph glyph-name="quotesinglbase" unicode="&#x201a;" horiz-adv-x="323" d="M94.5025 281 L297.502 281 L241 0 L60 0 L94.5025 281 Z " />
<glyph glyph-name="quotedblbase" unicode="&#x201e;" horiz-adv-x="655" d="M426.502 281 L629.502 281 L573 0 L392 0 L426.502 281 Z M94.5025 281 L297.502 281 L241 0 L60 0 L94.5025 281 Z " />
<glyph glyph-name="quoteleft" unicode="&#x2018;" horiz-adv-x="323" d="M305.606 347 L102.606 347 L159.109 628 L340.109 628 L305.606 347 Z " />
<glyph glyph-name="quoteright" unicode="&#x2019;" horiz-adv-x="323" d="M137.109 628 L340.109 628 L283.606 347 L102.606 347 L137.109 628 Z " />
<glyph glyph-name="endash" unicode="&#x2013;" horiz-adv-x="926" d="M60.6417 331 L87.5315 550 L973.532 550 L946.642 331 L60.6417 331 Z " />
<glyph glyph-name="emdash" unicode="&#x2014;" horiz-adv-x="1369" d="M60.5189 330 L87.6543 551 L1416.65 551 L1389.52 330 L60.5189 330 Z " />
<glyph glyph-name="fraction" unicode="&#x2044;" horiz-adv-x="522" d="M-97.8418 -15 L488.347 972 L667.787 886 L83.476 -102 L-97.8418 -15 Z " />
<glyph glyph-name="b" unicode="b" horiz-adv-x="881" d="M904.582 640 Q896.478 574 857.471 521 Q818.463 468 761.657 437 Q810.973 407 836.904 353.5 Q862.835 300 854.732 234 Q848.838 186 825.058 143 Q801.278 100 765.411 68.5 Q729.543 37 684.772 18.5 Q640 0 591 0 L95 0 L202.436 875 L698.436 875 Q747.436 875 787.665 856.5 Q827.893 838 855.964 806 Q884.035 774 897.317 731.5 Q910.599 689 904.582 640 Z M619.433 256 Q623.362 288 603.186 311 Q583.01 334 551.01 334 L412.01 334 Q401.01 334 393.151 327 Q385.291 320 383.94 309 L371.171 205 Q369.82 194 375.961 187 Q382.101 180 393.101 180 L532.101 180 Q564.101 180 589.802 202 Q615.504 224 619.433 256 Z M576.795 544 Q608.795 544 632.996 566 Q657.197 588 661.004 619 Q664.933 651 646.134 673 Q627.335 695 595.335 695 L456.335 695 Q445.335 695 437.414 687.5 Q429.494 680 428.143 669 L415.742 568 Q414.391 557 420.532 550 Q426.672 543 437.672 543 L576.795 544 Z " />
<glyph glyph-name="f" unicode="f" horiz-adv-x="831" d="M417.969 578 Q416.496 566 423.514 558 Q430.532 550 441.532 550 L858.532 550 L831.642 331 L414.642 331 Q403.642 331 394.659 323 Q385.677 315 384.327 304 L347 0 L95 0 L202.436 875 L898.314 874 L871.424 655 L454.424 655 Q443.424 655 434.442 647 Q425.459 639 423.986 627 L417.969 578 Z " />
<glyph glyph-name="m" unicode="m" horiz-adv-x="1173" d="M933.436 875 L1185.44 875 L1078 0 L826 0 L895.005 562 L625.537 322 L416.005 562 L347 0 L95 0 L202.436 875 L454.436 875 L646.424 655 Q653.442 647 665.442 647 Q677.442 647 686.424 655 L933.436 875 Z " />
<glyph glyph-name="p" unicode="p" horiz-adv-x="883" d="M571.83 528 Q603.83 528 629.47 549.5 Q655.11 571 659.039 603 Q662.968 635 644.169 657 Q625.371 679 594.371 679 L455.371 679 Q444.371 679 436.45 671.5 Q428.529 664 427.178 653 L415.268 556 Q413.918 545 420.874 536.5 Q427.83 528 438.83 528 L571.83 528 Z M651.436 875 Q708.436 875 756.858 854 Q805.28 833 839.237 796 Q873.193 759 890.116 709.5 Q907.038 660 900.039 603 Q893.163 547 865.585 497.5 Q838.007 448 796.464 411 Q754.921 374 702.782 352.5 Q650.642 331 594.642 331 L414.642 331 Q403.642 331 394.598 322.5 Q385.554 314 384.204 303 L347 0 L95 0 L202.436 875 L651.436 875 Z " />
<glyph glyph-name="v" unicode="v" horiz-adv-x="1095" d="M581.889 276 L924.436 875 L1172.44 875 L672 0 L423 0 L137.436 875 L386.436 875 L581.889 276 Z " />
<glyph glyph-name="caron" unicode="&#x2c7;" horiz-adv-x="636" d="M668.496 1356 L766.744 1244 L434.4 948 L174.744 1244 L300.496 1356 L437.341 1200 Q446.991 1189 463.491 1189 Q479.991 1189 492.341 1200 L579.919 1278 Q596.76 1293 612.479 1307 Q628.198 1321 640.549 1332 Q652.9 1343 660.698 1349.5 Q668.496 1356 668.496 1356 Z " />
<glyph glyph-name="Ccaron" unicode="&#x10c;" horiz-adv-x="847" d="M565.618 624 Q526.618 624 490.837 609.5 Q455.057 595 426.426 569.5 Q397.795 544 378.682 510.5 Q359.568 477 354.78 438 Q349.991 399 360.316 365 Q370.642 331 393.011 305.5 Q415.38 280 447.099 265.5 Q478.819 251 517.819 251 Q555.819 251 591.538 265 Q627.257 279 656.572 306 L812.716 128 Q743.104 66 658.552 33 Q574 0 487 0 Q397 0 321.236 34.5 Q245.472 69 193.778 128.5 Q142.083 188 117.406 268 Q92.729 348 103.78 438 Q114.83 528 159.153 608 Q203.476 688 269.72 747 Q335.964 806 420.2 840.5 Q504.436 875 594.436 875 Q681.436 875 757.885 842 Q834.333 809 888.72 747 L688.864 569 Q666.057 595 633.837 609.5 Q601.618 624 565.618 624 Z M828.496 1356 L926.744 1244 L594.4 948 L334.744 1244 L460.496 1356 L597.341 1200 Q606.991 1189 623.491 1189 Q639.991 1189 652.341 1200 L739.919 1278 Q756.76 1293 772.479 1307 Q788.198 1321 800.549 1332 Q812.9 1343 820.698 1349.5 Q828.496 1356 828.496 1356 Z " />
<glyph glyph-name="Ccedilla" unicode="&#xc7;" horiz-adv-x="847" d="M565.618 624 Q526.618 624 490.837 609.5 Q455.057 595 426.426 569.5 Q397.795 544 378.682 510.5 Q359.568 477 354.78 438 Q349.991 399 360.316 365 Q370.642 331 393.011 305.5 Q415.38 280 447.099 265.5 Q478.819 251 517.819 251 Q555.819 251 591.538 265 Q627.257 279 656.572 306 L812.716 128 Q732.999 57 633.824 23 Q645.754 -2 648.194 -31 Q650.633 -60 642.072 -89 Q624.073 -146 575.162 -186 Q547.461 -208 515.11 -219 Q474.391 -233 435.128 -227 Q395.865 -221 365.504 -199.5 Q335.144 -178 318.565 -142 Q301.985 -106 307.51 -61 L421.51 -61 Q419.177 -80 428.081 -93 Q436.985 -106 451.248 -112 Q465.511 -118 482.88 -115 Q500.248 -112 513.722 -100 Q532.809 -83 535.633 -60 Q538.457 -37 523.544 -20 L505 0 Q411.877 -1 332.868 31.5 Q253.858 64 199.041 122.5 Q144.224 181 118.17 262 Q92.1151 343 103.78 438 Q114.83 528 159.153 608 Q203.476 688 269.72 747 Q335.964 806 420.2 840.5 Q504.436 875 594.436 875 Q681.436 875 757.885 842 Q834.333 809 888.72 747 L688.864 569 Q666.057 595 633.837 609.5 Q601.618 624 565.618 624 Z " />
<glyph glyph-name="Dcaron" unicode="&#x10e;" horiz-adv-x="970" d="M575.436 875 Q665.436 875 741.2 840.5 Q816.964 806 868.659 746.5 Q920.353 687 945.03 607 Q969.707 527 958.657 437 Q947.606 347 903.283 267 Q858.961 187 792.716 128 Q726.472 69 642.236 34.5 Q558 0 468 0 L95 0 L202.436 875 L575.436 875 Z M707.534 436 Q711.954 472 702.129 506 Q692.304 540 671.057 566.5 Q649.811 593 618.714 608.5 Q587.618 624 549.618 624 L447.618 624 Q436.618 624 428.697 616.5 Q420.776 609 419.425 598 L379.889 276 Q378.538 265 384.678 258 Q390.819 251 401.819 251 L503.819 251 Q540.819 251 575.222 266.5 Q609.625 282 637.756 307.5 Q665.887 333 684.501 366.5 Q703.114 400 707.534 436 Z M788.496 1356 L886.744 1244 L554.4 948 L294.744 1244 L420.496 1356 L557.341 1200 Q566.991 1189 583.491 1189 Q599.991 1189 612.341 1200 L699.919 1278 Q716.76 1293 732.479 1307 Q748.198 1321 760.549 1332 Q772.9 1343 780.698 1349.5 Q788.496 1356 788.496 1356 Z " />
<glyph glyph-name="Eacute" unicode="&#xc9;" horiz-adv-x="856" d="M417.969 578 Q416.496 566 423.514 558 Q430.532 550 441.532 550 L858.532 550 L831.642 331 L414.642 331 Q403.642 331 394.659 323 Q385.677 315 384.327 304 L377.205 246 Q375.854 235 382.872 227 Q389.89 219 400.89 219 L817.89 219 L791 0 L95 0 L202.436 875 L898.314 874 L871.301 654 L454.301 654 Q443.301 654 434.257 645.5 Q425.214 637 423.863 626 L417.969 578 Z M582.521 1006 L393.521 1006 L659.126 1410 L831.024 1287 L582.521 1006 Z " />
<glyph glyph-name="Ebreve" unicode="&#x114;" horiz-adv-x="856" d="M417.969 578 Q416.496 566 423.514 558 Q430.532 550 441.532 550 L858.532 550 L831.642 331 L404.642 331 Q394.642 331 390.098 322.5 Q385.554 314 384.327 304 L377.205 246 Q375.854 235 382.872 227 Q389.89 219 400.89 219 L817.89 219 L791 0 L95 0 L202.436 875 Q377.436 875 550.375 874.5 Q723.314 874 898.314 874 L871.301 654 L454.301 654 Q443.301 654 434.257 645.5 Q425.214 637 423.863 626 L417.969 578 Z M652.621 1243 L829.621 1243 Q823.359 1192 798.272 1146.5 Q773.186 1101 735.011 1067 Q696.836 1033 648.942 1013.5 Q601.048 994 550.048 994 Q499.048 994 455.942 1013.5 Q412.836 1033 383.011 1067 Q353.186 1101 339.272 1146.5 Q325.359 1192 331.621 1243 L508.621 1243 Q505.06 1214 523.859 1192 Q542.658 1170 572.658 1170 Q587.658 1170 600.895 1176 Q614.131 1182 625.359 1192 Q636.587 1202 643.745 1215.5 Q650.902 1229 652.621 1243 Z " />
<glyph glyph-name="Ecaron" unicode="&#x11a;" horiz-adv-x="856" d="M417.969 578 Q416.496 566 423.514 558 Q430.532 550 441.532 550 L858.532 550 L831.642 331 L414.642 331 Q403.642 331 394.659 323 Q385.677 315 384.327 304 L377.205 246 Q375.854 235 382.872 227 Q389.89 219 400.89 219 L817.89 219 L791 0 L95 0 L202.436 875 L898.314 874 L871.301 654 L454.301 654 Q443.301 654 434.257 645.5 Q425.214 637 423.863 626 L417.969 578 Z M778.496 1356 L876.744 1244 L544.4 948 L284.744 1244 L410.496 1356 L547.341 1200 Q556.991 1189 573.491 1189 Q589.991 1189 602.341 1200 L689.919 1278 Q706.76 1293 722.479 1307 Q738.198 1321 750.549 1332 Q762.9 1343 770.698 1349.5 Q778.496 1356 778.496 1356 Z " />
<glyph glyph-name="Ecircumflex" unicode="&#xca;" horiz-adv-x="856" d="M417.969 578 Q416.496 566 423.514 558 Q430.532 550 441.532 550 L858.532 550 L831.642 331 L414.642 331 Q403.642 331 394.659 323 Q385.677 315 384.327 304 L377.205 246 Q375.854 235 382.872 227 Q389.89 219 400.89 219 L817.89 219 L791 0 L95 0 L202.436 875 L898.314 874 L871.301 654 L454.301 654 Q443.301 654 434.257 645.5 Q425.214 637 423.863 626 L417.969 578 Z M727.4 948 L590.554 1104 Q580.905 1115 564.405 1115 Q547.905 1115 535.554 1104 L360.4 948 L262.152 1060 L594.496 1356 L854.152 1060 L728.4 948 L727.4 948 Z " />
<glyph glyph-name="Edieresis" unicode="&#xcb;" horiz-adv-x="856" d="M417.969 578 Q416.496 566 423.514 558 Q430.532 550 441.532 550 L858.532 550 L831.642 331 L414.642 331 Q403.642 331 394.659 323 Q385.677 315 384.327 304 L377.205 246 Q375.854 235 382.872 227 Q389.89 219 400.89 219 L817.89 219 L791 0 L95 0 L202.436 875 L898.314 874 L871.301 654 L454.301 654 Q443.301 654 434.257 645.5 Q425.214 637 423.863 626 L417.969 578 Z M894.887 1123 Q891.695 1097 878.932 1074.5 Q866.169 1052 847.143 1035.5 Q828.117 1019 804.39 1009 Q780.662 999 754.662 999 Q728.662 999 707.39 1009 Q686.117 1019 671.643 1035.5 Q657.169 1052 649.932 1074.5 Q642.695 1097 645.887 1123 Q649.079 1149 661.842 1171.5 Q674.605 1194 693.192 1211 Q711.779 1228 735.507 1238 Q759.235 1248 785.235 1248 Q811.235 1248 832.507 1238 Q853.779 1228 868.692 1211 Q883.605 1194 890.842 1171.5 Q898.079 1149 894.887 1123 Z M485.887 1123 Q482.695 1097 469.932 1074.5 Q457.169 1052 438.143 1035.5 Q419.117 1019 395.39 1009 Q371.662 999 345.662 999 Q319.662 999 298.39 1009 Q277.117 1019 262.643 1035.5 Q248.169 1052 240.932 1074.5 Q233.695 1097 236.887 1123 Q240.079 1149 252.842 1171.5 Q265.605 1194 284.192 1211 Q302.779 1228 326.507 1238 Q350.235 1248 376.235 1248 Q402.235 1248 423.507 1238 Q444.779 1228 459.692 1211 Q474.605 1194 481.842 1171.5 Q489.079 1149 485.887 1123 Z " />
<glyph glyph-name="Edotaccent" unicode="&#x116;" horiz-adv-x="856" d="M417.969 578 Q416.496 566 423.514 558 Q430.532 550 441.532 550 L858.532 550 L831.642 331 L414.642 331 Q403.642 331 394.659 323 Q385.677 315 384.327 304 L377.205 246 Q375.854 235 382.872 227 Q389.89 219 400.89 219 L817.89 219 L791 0 L95 0 L202.436 875 L898.314 874 L871.301 654 L454.301 654 Q443.301 654 434.257 645.5 Q425.214 637 423.863 626 L417.969 578 Z M686.204 1093 Q683.011 1067 670.248 1044.5 Q657.486 1022 638.46 1005.5 Q619.434 989 595.706 979 Q571.978 969 545.978 969 Q519.978 969 498.706 979 Q477.434 989 462.96 1005.5 Q448.486 1022 441.248 1044.5 Q434.011 1067 437.204 1093 Q440.396 1119 453.159 1141.5 Q465.921 1164 484.509 1181 Q503.096 1198 526.824 1208 Q550.552 1218 576.552 1218 Q602.552 1218 623.824 1208 Q645.096 1198 660.009 1181 Q674.921 1164 682.159 1141.5 Q689.396 1119 686.204 1093 Z " />
<glyph glyph-name="Egrave" unicode="&#xc8;" horiz-adv-x="856" d="M417.969 578 Q416.496 566 423.514 558 Q430.532 550 441.532 550 L858.532 550 L831.642 331 L414.642 331 Q403.642 331 394.659 323 Q385.677 315 384.327 304 L377.205 246 Q375.854 235 382.872 227 Q389.89 219 400.89 219 L817.89 219 L791 0 L95 0 L202.436 875 L898.314 874 L871.301 654 L454.301 654 Q443.301 654 434.257 645.5 Q425.214 637 423.863 626 L417.969 578 Z M252.62 1300 L484.055 1442 L666.521 1006 L440.521 1006 L252.62 1300 Z " />
<glyph glyph-name="Emacron" unicode="&#x112;" horiz-adv-x="856" d="M417.969 578 Q416.496 566 423.514 558 Q430.532 550 441.532 550 L858.532 550 L831.642 331 L414.642 331 Q403.642 331 394.659 323 Q385.677 315 384.327 304 L377.205 246 Q375.854 235 382.872 227 Q389.89 219 400.89 219 L817.89 219 L791 0 L95 0 L202.436 875 L898.314 874 L871.301 654 L454.301 654 Q443.301 654 434.257 645.5 Q425.214 637 423.863 626 L417.969 578 Z M290.258 1012 L314.569 1210 L837.569 1210 L813.258 1012 L290.258 1012 Z " />
<glyph glyph-name="Eogonek" unicode="&#x118;" horiz-adv-x="856" d="M766.075 -203 Q716.672 -247 667.91 -269.5 Q619.147 -292 573.147 -292 Q526.147 -292 487.357 -274 Q448.567 -256 421.873 -225 Q395.18 -194 382.275 -152.5 Q369.371 -111 375.142 -64 Q377.229 -47 380.632 -31.5 Q384.035 -16 391 0 L95 0 L202.436 875 L898.314 874 L871.301 654 L454.301 654 Q443.301 654 434.257 645.5 Q425.214 637 423.863 626 L417.969 578 Q416.496 566 423.514 558 Q430.532 550 441.532 550 L858.532 550 L831.642 331 L414.642 331 Q403.642 331 394.659 323 Q385.677 315 384.327 304 L377.205 246 Q375.854 235 382.872 227 Q389.89 219 400.89 219 L817.89 219 L791 0 L617 0 Q583.754 -2 559.544 -20 Q535.334 -38 532.265 -63 Q529.072 -89 544.862 -107 Q560.652 -125 586.652 -125 Q600.652 -125 617.196 -116.5 Q633.739 -108 650.581 -93 L766.075 -203 Z " />
<glyph glyph-name="Hcircumflex" unicode="&#x124;" horiz-adv-x="1022" d="M755.969 578 L792.436 875 L1034.44 875 L927 0 L685 0 L722.204 303 Q723.554 314 716.598 322.5 Q709.642 331 698.642 331 L404.642 331 Q393.642 331 384.598 322.5 Q375.554 314 374.204 303 L337 0 L95 0 L202.436 875 L444.436 875 L407.969 578 Q406.619 567 413.575 558.5 Q420.532 550 431.532 550 L725.532 550 Q736.532 550 745.575 558.5 Q754.619 567 755.969 578 Z M810.4 948 L673.554 1104 Q663.905 1115 647.405 1115 Q630.905 1115 618.554 1104 L443.4 948 L345.152 1060 L677.496 1356 L937.152 1060 L811.4 948 L810.4 948 Z " />
<glyph glyph-name="Iacute" unicode="&#xcd;" horiz-adv-x="502" d="M130 0 L237.436 875 L479.436 875 L372 0 L130 0 Z M494.521 1006 L305.521 1006 L571.126 1410 L743.024 1287 L494.521 1006 Z " />
<glyph glyph-name="Ibreve" unicode="&#x12c;" horiz-adv-x="502" d="M130 0 L237.436 875 L479.436 875 L372 0 L130 0 Z M393.658 1170 Q422.658 1170 447.359 1192 Q472.06 1214 475.621 1243 L652.621 1243 Q646.359 1192 621.272 1146.5 Q596.186 1101 558.011 1067 Q519.836 1033 471.942 1013.5 Q424.048 994 373.048 994 Q322.048 994 278.942 1013.5 Q235.836 1033 206.011 1067 Q176.186 1101 162.272 1146.5 Q148.359 1192 154.621 1243 L331.621 1243 Q328.06 1214 346.421 1192.5 Q364.781 1171 393.658 1170 Z " />
<glyph glyph-name="Icircumflex" unicode="&#xce;" horiz-adv-x="502" d="M130 0 L237.436 875 L479.436 875 L372 0 L130 0 Z M550.4 948 L413.554 1104 Q403.905 1115 387.405 1115 Q370.905 1115 358.554 1104 L183.4 948 L85.1516 1060 L417.496 1356 L677.152 1060 L551.4 948 L550.4 948 Z " />
<glyph glyph-name="Idieresis" unicode="&#xcf;" horiz-adv-x="502" d="M130 0 L237.436 875 L479.436 875 L372 0 L130 0 Z M308.887 1123 Q305.695 1097 292.932 1074.5 Q280.169 1052 261.143 1035.5 Q242.117 1019 218.39 1009 Q194.662 999 168.662 999 Q142.662 999 121.39 1009 Q100.117 1019 85.6434 1035.5 Q71.1694 1052 63.932 1074.5 Q56.6947 1097 59.8871 1123 Q63.0795 1149 75.8421 1171.5 Q88.6048 1194 107.192 1211 Q125.779 1228 149.507 1238 Q173.235 1248 199.235 1248 Q225.235 1248 246.507 1238 Q267.779 1228 282.692 1211 Q297.605 1194 304.842 1171.5 Q312.079 1149 308.887 1123 Z M717.887 1123 Q714.695 1097 701.932 1074.5 Q689.169 1052 670.143 1035.5 Q651.117 1019 627.39 1009 Q603.662 999 577.662 999 Q551.662 999 530.39 1009 Q509.117 1019 494.643 1035.5 Q480.169 1052 472.932 1074.5 Q465.695 1097 468.887 1123 Q472.079 1149 484.842 1171.5 Q497.605 1194 516.192 1211 Q534.779 1228 558.507 1238 Q582.235 1248 608.235 1248 Q634.235 1248 655.507 1238 Q676.779 1228 691.692 1211 Q706.605 1194 713.842 1171.5 Q721.079 1149 717.887 1123 Z " />
<glyph glyph-name="Idotaccent" unicode="&#x130;" horiz-adv-x="502" d="M130 0 L237.436 875 L479.436 875 L372 0 L130 0 Z M509.204 1093 Q506.011 1067 493.248 1044.5 Q480.486 1022 461.46 1005.5 Q442.434 989 418.706 979 Q394.978 969 368.978 969 Q342.978 969 321.706 979 Q300.434 989 285.96 1005.5 Q271.486 1022 264.248 1044.5 Q257.011 1067 260.204 1093 Q263.396 1119 276.159 1141.5 Q288.921 1164 307.509 1181 Q326.096 1198 349.824 1208 Q373.552 1218 399.552 1218 Q425.552 1218 446.824 1208 Q468.096 1198 483.009 1181 Q497.921 1164 505.159 1141.5 Q512.396 1119 509.204 1093 Z " />
<glyph glyph-name="Igrave" unicode="&#xcc;" horiz-adv-x="502" d="M130 0 L237.436 875 L479.436 875 L372 0 L130 0 Z M53.6199 1300 L285.055 1442 L467.521 1006 L241.521 1006 L53.6199 1300 Z " />
<glyph glyph-name="Imacron" unicode="&#x12a;" horiz-adv-x="502" d="M130 0 L237.436 875 L479.436 875 L372 0 L130 0 Z M114.258 1012 L138.569 1210 L661.569 1210 L637.258 1012 L114.258 1012 Z " />
<glyph glyph-name="Iogonek" unicode="&#x12e;" horiz-adv-x="502" d="M343.075 -203 Q293.672 -247 244.91 -269.5 Q196.147 -292 150.147 -292 Q103.147 -292 64.357 -274 Q25.5672 -256 -1.12653 -225 Q-27.8202 -194 -40.7246 -152.5 Q-53.6291 -111 -47.8582 -64 Q-43.1924 -26 -26.9563 8.5 Q-10.7203 43 15.2791 71.5 Q41.2785 100 74.7955 120.5 Q108.313 141 148.54 151 L237.436 875 L479.436 875 L372 0 L194 0 Q160.754 -2 136.544 -20 Q112.334 -38 109.265 -63 Q106.072 -89 122.362 -107 Q138.652 -125 164.652 -125 Q177.652 -125 194.196 -116.5 Q210.739 -108 227.581 -93 L343.075 -203 Z " />
<glyph glyph-name="Itilde" unicode="&#x128;" horiz-adv-x="502" d="M130 0 L237.436 875 L479.436 875 L372 0 L130 0 Z M145.324 1208 Q181.376 1241 214.603 1251 Q247.831 1261 278.84 1257 Q309.849 1253 340.069 1238.5 Q370.288 1224 399.701 1207 Q429.114 1190 459.333 1175.5 Q489.553 1161 520.562 1157 Q551.571 1153 584.798 1163 Q618.026 1173 654.078 1206 L628.907 1001 Q592.855 968 559.628 958 Q526.4 948 495.391 952 Q464.382 956 434.162 970.5 Q403.943 985 374.53 1002 Q345.117 1019 314.898 1033.5 Q284.678 1048 253.669 1052 Q222.66 1056 189.433 1046 Q156.205 1036 120.153 1003 L145.324 1208 Z " />
<glyph glyph-name="Kcommaaccent" unicode="&#x136;" horiz-adv-x="1052" d="M1119.44 875 L679.78 438 L1012 0 L716 0 L473.923 317 Q464.642 331 446.642 331 L404.642 331 Q393.642 331 384.598 322.5 Q375.554 314 374.204 303 L337 0 L95 0 L202.436 875 L444.436 875 L407.969 578 Q406.619 567 413.575 558.5 Q420.532 550 431.532 550 L478.532 550 Q496.532 550 510.25 564 L822.436 875 L1119.44 875 Z M406.565 -142 L609.565 -142 L553.062 -423 L372.062 -423 L406.565 -142 Z " />
<glyph glyph-name="Lcaron" unicode="&#x13d;" horiz-adv-x="830" d="M454.436 875 L379.17 262 Q376.714 242 386.302 230.5 Q395.89 219 415.89 219 L821.89 219 L795 0 L95 0 L202.436 875 L454.436 875 Z M692.509 786 L895.509 786 L839.006 505 L658.006 505 L692.509 786 Z " />
<glyph glyph-name="AEacute" unicode="&#x1fc;" horiz-adv-x="1332" d="M1374.31 874 L1347.3 654 L922.301 654 Q911.301 654 902.257 645.5 Q893.214 637 891.863 626 L885.969 578 Q884.496 566 891.514 558 Q898.532 550 909.532 550 L1334.53 550 L1307.64 331 L882.642 331 Q871.642 331 862.659 323 Q853.677 315 852.327 304 L845.205 246 Q843.854 235 850.872 227 Q857.89 219 868.89 219 L1293.89 219 L1267 0 L573 0 L595.715 185 L414.715 185 Q400.715 185 387.794 177.5 Q374.873 170 368.277 157 L278 0 L30 0 L530.436 875 L939.436 875 L1374.31 874 Z M618.062 367 L653.301 654 L490.062 367 L618.062 367 Z M760.521 1006 L571.521 1006 L837.126 1410 L1009.02 1287 L760.521 1006 Z " />
<glyph glyph-name="Dcroat" unicode="&#x110;" horiz-adv-x="970" d="M34.7645 332 L59.0758 530 L160.076 530 L202.436 875 L575.436 875 Q665.436 875 741.2 840.5 Q816.964 806 868.659 746.5 Q920.353 687 945.03 607 Q969.707 527 958.657 437 Q947.606 347 903.283 267 Q858.961 187 792.716 128 Q726.472 69 642.236 34.5 Q558 0 468 0 L95 0 L135.764 332 L34.7645 332 Z M707.534 436 Q711.954 472 702.129 506 Q692.304 540 671.057 566.5 Q649.811 593 618.714 608.5 Q587.618 624 549.618 624 L447.618 624 Q436.618 624 428.697 616.5 Q420.776 609 419.425 598 L411.076 530 L582.076 530 L557.764 332 L386.764 332 L379.889 276 Q378.538 265 384.678 258 Q390.819 251 401.819 251 L503.819 251 Q540.819 251 575.222 266.5 Q609.625 282 637.756 307.5 Q665.887 333 684.501 366.5 Q703.114 400 707.534 436 Z " />
<glyph glyph-name="Gbreve" unicode="&#x11e;" horiz-adv-x="1054" d="M560.848 520 L1042.85 520 L979 0 L774 0 L788.489 118 Q765.928 89 732.227 67 Q698.525 45 659.184 30 Q619.842 15 577.921 7.5 Q536 0 497 0 Q407 0 331.175 34 Q255.349 68 203.655 127.5 Q151.961 187 127.222 266.5 Q102.483 346 113.657 437 Q124.707 527 169.03 607 Q213.353 687 279.597 746 Q345.842 805 430.078 839.5 Q514.314 874 604.314 874 Q695.314 874 770.139 840 Q844.964 806 897.597 746 L697.619 567 Q674.688 592 642.969 606.5 Q611.249 621 573.249 621 Q535.249 621 499.969 606.5 Q464.688 592 436.619 567 Q408.549 542 389.936 508.5 Q371.323 475 366.657 437 Q361.868 398 368.457 358 Q375.045 318 399.178 286.5 Q423.31 255 468.161 237.5 Q513.013 220 584.749 226 Q620.118 229 650.714 242 Q681.31 255 703.59 269.5 Q725.871 284 738.467 297 Q751.063 310 750.432 313 L535.432 313 L560.848 520 Z M751.621 1243 L928.621 1243 Q922.359 1192 897.272 1146.5 Q872.186 1101 834.011 1067 Q795.836 1033 747.942 1013.5 Q700.048 994 648.048 994 Q597.048 994 553.942 1013.5 Q510.836 1033 481.011 1067 Q451.186 1101 437.272 1146.5 Q423.359 1192 429.621 1243 L606.621 1243 Q603.06 1214 622.359 1192 Q641.658 1170 670.658 1170 Q685.658 1170 699.395 1176 Q713.131 1182 723.859 1192 Q734.587 1202 742.245 1215.5 Q749.902 1229 751.621 1243 Z " />
<glyph glyph-name="Gcircumflex" unicode="&#x11c;" horiz-adv-x="1054" d="M560.848 520 L1042.85 520 L979 0 L774 0 L788.489 118 Q765.928 89 732.227 67 Q698.525 45 659.184 30 Q619.842 15 577.921 7.5 Q536 0 497 0 Q407 0 331.175 34 Q255.349 68 203.655 127.5 Q151.961 187 127.222 266.5 Q102.483 346 113.657 437 Q124.707 527 169.03 607 Q213.353 687 279.597 746 Q345.842 805 430.078 839.5 Q514.314 874 604.314 874 Q695.314 874 770.139 840 Q844.964 806 897.597 746 L697.619 567 Q674.688 592 642.969 606.5 Q611.249 621 573.249 621 Q535.249 621 499.969 606.5 Q464.688 592 436.619 567 Q408.549 542 389.936 508.5 Q371.323 475 366.657 437 Q361.868 398 368.457 358 Q375.045 318 399.178 286.5 Q423.31 255 468.161 237.5 Q513.013 220 584.749 226 Q620.118 229 650.714 242 Q681.31 255 703.59 269.5 Q725.871 284 738.467 297 Q751.063 310 750.432 313 L535.432 313 L560.848 520 Z M825.4 948 L686.923 1107 Q677.273 1118 661.528 1116 Q645.782 1114 633.554 1104 L458.4 948 L360.152 1060 L692.496 1356 L952.152 1060 L826.4 948 L825.4 948 Z " />
<glyph glyph-name="Gcommaaccent" unicode="&#x122;" horiz-adv-x="1054" d="M560.848 520 L1042.85 520 L979 0 L774 0 L788.489 118 Q765.928 89 732.227 67 Q698.525 45 659.184 30 Q619.842 15 577.921 7.5 Q536 0 497 0 Q407 0 331.175 34 Q255.349 68 203.655 127.5 Q151.961 187 127.222 266.5 Q102.483 346 113.657 437 Q124.707 527 169.03 607 Q213.353 687 279.597 746 Q345.842 805 430.078 839.5 Q514.314 874 604.314 874 Q695.314 874 770.139 840 Q844.964 806 897.597 746 L697.619 567 Q674.688 592 642.969 606.5 Q611.249 621 573.249 621 Q535.249 621 499.969 606.5 Q464.688 592 436.619 567 Q408.549 542 389.936 508.5 Q371.323 475 366.657 437 Q361.868 398 368.457 358 Q375.045 318 399.178 286.5 Q423.31 255 468.161 237.5 Q513.013 220 584.749 226 Q620.118 229 650.714 242 Q681.31 255 703.59 269.5 Q725.871 284 738.467 297 Q751.063 310 750.432 313 L535.432 313 L560.848 520 Z M408.565 -142 L611.565 -142 L555.062 -423 L374.062 -423 L408.565 -142 Z " />
<glyph glyph-name="Gdotaccent" unicode="&#x120;" horiz-adv-x="1054" d="M560.848 520 L1042.85 520 L979 0 L774 0 L788.489 118 Q765.928 89 732.227 67 Q698.525 45 659.184 30 Q619.842 15 577.921 7.5 Q536 0 497 0 Q407 0 331.175 34 Q255.349 68 203.655 127.5 Q151.961 187 127.222 266.5 Q102.483 346 113.657 437 Q124.707 527 169.03 607 Q213.353 687 279.597 746 Q345.842 805 430.078 839.5 Q514.314 874 604.314 874 Q695.314 874 770.139 840 Q844.964 806 897.597 746 L697.619 567 Q674.688 592 642.969 606.5 Q611.249 621 573.249 621 Q535.249 621 499.969 606.5 Q464.688 592 436.619 567 Q408.549 542 389.936 508.5 Q371.323 475 366.657 437 Q361.868 398 368.457 358 Q375.045 318 399.178 286.5 Q423.31 255 468.161 237.5 Q513.013 220 584.749 226 Q620.118 229 650.714 242 Q681.31 255 703.59 269.5 Q725.871 284 738.467 297 Q751.063 310 750.432 313 L535.432 313 L560.848 520 Z M785.204 1093 Q782.011 1067 769.248 1044.5 Q756.486 1022 737.46 1005.5 Q718.434 989 694.706 979 Q670.978 969 644.978 969 Q619.978 969 598.706 979 Q577.434 989 562.96 1005.5 Q548.486 1022 541.248 1044.5 Q534.011 1067 537.204 1093 Q540.396 1119 553.159 1141.5 Q565.921 1164 584.509 1181 Q603.096 1198 626.824 1208 Q650.552 1218 675.552 1218 Q701.552 1218 722.824 1208 Q744.096 1198 759.009 1181 Q773.921 1164 781.159 1141.5 Q788.396 1119 785.204 1093 Z " />
<glyph glyph-name="Nacute" unicode="&#x143;" horiz-adv-x="1079" d="M777.43 370 L839.436 875 L1091.44 875 L984 0 L739 0 L410.866 512 L348 0 L95 0 L202.436 875 L448.436 875 L777.43 370 Z M730.521 1006 L541.521 1006 L807.126 1410 L979.024 1287 L730.521 1006 Z " />
<glyph glyph-name="Ncaron" unicode="&#x147;" horiz-adv-x="1079" d="M777.43 370 L839.436 875 L1091.44 875 L984 0 L739 0 L410.866 512 L348 0 L95 0 L202.436 875 L448.436 875 L777.43 370 Z M889.496 1356 L987.744 1244 L655.4 948 L395.744 1244 L521.496 1356 L658.341 1200 Q667.991 1189 684.491 1189 Q700.991 1189 713.341 1200 L800.919 1278 Q817.76 1293 833.479 1307 Q849.198 1321 861.549 1332 Q873.9 1343 881.698 1349.5 Q889.496 1356 889.496 1356 Z " />
<glyph glyph-name="Ncommaaccent" unicode="&#x145;" horiz-adv-x="1079" d="M777.43 370 L839.436 875 L1091.44 875 L984 0 L739 0 L410.866 512 L348 0 L95 0 L202.436 875 L448.436 875 L777.43 370 Z M420.565 -142 L623.565 -142 L567.062 -423 L386.062 -423 L420.565 -142 Z " />
<glyph glyph-name="Ntilde" unicode="&#xd1;" horiz-adv-x="1079" d="M777.43 370 L839.436 875 L1091.44 875 L984 0 L739 0 L410.866 512 L348 0 L95 0 L202.436 875 L448.436 875 L777.43 370 Z M433.324 1208 Q469.376 1241 502.603 1251 Q535.831 1261 566.84 1257 Q597.849 1253 628.069 1238.5 Q658.288 1224 687.701 1207 Q717.114 1190 747.333 1175.5 Q777.553 1161 808.562 1157 Q839.571 1153 872.798 1163 Q906.026 1173 942.078 1206 L916.907 1001 Q880.855 968 847.628 958 Q814.4 948 783.391 952 Q752.382 956 722.162 970.5 Q691.943 985 662.53 1002 Q633.117 1019 602.898 1033.5 Q572.678 1048 541.669 1052 Q510.66 1056 477.433 1046 Q444.205 1036 408.153 1003 L433.324 1208 Z " />
<glyph glyph-name="Oacute" unicode="&#xd3;" horiz-adv-x="994" d="M527.696 250 Q566.696 250 602.477 264.5 Q638.257 279 666.888 304.5 Q695.519 330 714.194 364 Q732.868 398 737.657 437 Q742.445 476 732.059 509.5 Q721.672 543 699.303 568.5 Q676.934 594 644.714 608.5 Q612.495 623 573.495 623 Q534.495 623 499.214 608.5 Q463.934 594 435.303 568.5 Q406.672 543 388.059 509.5 Q369.445 476 364.657 437 Q359.868 398 370.194 364 Q380.519 330 402.888 304.5 Q425.257 279 456.977 264.5 Q488.696 250 527.696 250 Z M604.314 874 Q695.314 874 770.578 839.5 Q845.842 805 897.597 746 Q949.353 687 974.03 607 Q998.707 527 987.657 437 Q976.483 346 932.222 266.5 Q887.961 187 821.655 127.5 Q755.349 68 671.675 34 Q588 0 497 0 Q407 0 331.175 34 Q255.349 68 203.655 127.5 Q151.961 187 127.222 266.5 Q102.483 346 113.657 437 Q124.707 527 169.03 607 Q213.353 687 279.597 746 Q345.842 805 430.078 839.5 Q514.314 874 604.314 874 Z M687.521 1006 L498.521 1006 L764.126 1410 L936.024 1287 L687.521 1006 Z " />
<glyph glyph-name="Obreve" unicode="&#x14e;" horiz-adv-x="994" d="M604.314 874 Q695.314 874 770.578 839.5 Q845.842 805 897.597 746 Q949.353 687 974.03 607 Q998.707 527 987.657 437 Q976.483 346 932.222 266.5 Q887.961 187 821.655 127.5 Q755.349 68 671.675 34 Q588 0 497 0 Q407 0 331.175 34 Q255.349 68 203.655 127.5 Q151.961 187 127.222 266.5 Q102.483 346 113.657 437 Q124.707 527 169.03 607 Q213.353 687 279.597 746 Q345.842 805 430.078 839.5 Q514.314 874 604.314 874 Z M527.696 250 Q566.696 250 602.477 264.5 Q638.257 279 666.888 304.5 Q695.519 330 714.194 364 Q732.868 398 737.657 437 Q742.445 476 732.059 509.5 Q721.672 543 699.303 568.5 Q676.934 594 644.714 608.5 Q612.495 623 573.495 623 Q534.495 623 499.214 608.5 Q463.934 594 435.303 568.5 Q406.672 543 388.059 509.5 Q369.445 476 364.657 437 Q359.868 398 370.194 364 Q380.519 330 402.888 304.5 Q425.257 279 456.977 264.5 Q488.696 250 527.696 250 Z M721.621 1243 L898.621 1243 Q892.359 1192 867.272 1146.5 Q842.186 1101 804.011 1067 Q765.836 1033 717.942 1013.5 Q670.048 994 619.048 994 Q568.048 994 524.942 1013.5 Q481.836 1033 452.011 1067 Q422.186 1101 408.272 1146.5 Q394.359 1192 400.621 1243 L577.621 1243 Q574.06 1214 592.859 1192 Q611.658 1170 641.658 1170 Q670.781 1171 694.421 1192.5 Q718.06 1214 721.621 1243 Z " />
<glyph glyph-name="Ocircumflex" unicode="&#xd4;" horiz-adv-x="994" d="M604.314 874 Q695.314 874 770.578 839.5 Q845.842 805 897.597 746 Q949.353 687 974.03 607 Q998.707 527 987.657 437 Q976.483 346 932.222 266.5 Q887.961 187 821.655 127.5 Q755.349 68 671.675 34 Q588 0 497 0 Q407 0 331.175 34 Q255.349 68 203.655 127.5 Q151.961 187 127.222 266.5 Q102.483 346 113.657 437 Q124.707 527 169.03 607 Q213.353 687 279.597 746 Q345.842 805 430.078 839.5 Q514.314 874 604.314 874 Z M527.696 250 Q566.696 250 602.477 264.5 Q638.257 279 666.888 304.5 Q695.519 330 714.194 364 Q732.868 398 737.657 437 Q742.445 476 732.059 509.5 Q721.672 543 699.303 568.5 Q676.934 594 644.714 608.5 Q612.495 623 573.495 623 Q534.495 623 499.214 608.5 Q463.934 594 435.303 568.5 Q406.672 543 388.059 509.5 Q369.445 476 364.657 437 Q359.868 398 370.194 364 Q380.519 330 402.888 304.5 Q425.257 279 456.977 264.5 Q488.696 250 527.696 250 Z M796.4 948 L659.554 1104 Q649.905 1115 633.405 1115 Q616.905 1115 604.554 1104 L429.4 948 L331.152 1060 L663.496 1356 L923.152 1060 L797.4 948 L796.4 948 Z " />
<glyph glyph-name="Odieresis" unicode="&#xd6;" horiz-adv-x="994" d="M527.696 250 Q566.696 250 602.477 264.5 Q638.257 279 666.888 304.5 Q695.519 330 714.194 364 Q732.868 398 737.657 437 Q742.445 476 732.059 509.5 Q721.672 543 699.303 568.5 Q676.934 594 644.714 608.5 Q612.495 623 573.495 623 Q534.495 623 499.214 608.5 Q463.934 594 435.303 568.5 Q406.672 543 388.059 509.5 Q369.445 476 364.657 437 Q359.868 398 370.194 364 Q380.519 330 402.888 304.5 Q425.257 279 456.977 264.5 Q488.696 250 527.696 250 Z M604.314 874 Q695.314 874 770.578 839.5 Q845.842 805 897.597 746 Q949.353 687 974.03 607 Q998.707 527 987.657 437 Q976.483 346 932.222 266.5 Q887.961 187 821.655 127.5 Q755.349 68 671.675 34 Q588 0 497 0 Q407 0 331.175 34 Q255.349 68 203.655 127.5 Q151.961 187 127.222 266.5 Q102.483 346 113.657 437 Q124.707 527 169.03 607 Q213.353 687 279.597 746 Q345.842 805 430.078 839.5 Q514.314 874 604.314 874 Z M963.887 1123 Q960.695 1097 947.932 1074.5 Q935.169 1052 916.143 1035.5 Q897.117 1019 873.39 1009 Q849.662 999 823.662 999 Q797.662 999 776.39 1009 Q755.117 1019 740.643 1035.5 Q726.169 1052 718.932 1074.5 Q711.695 1097 714.887 1123 Q718.079 1149 730.842 1171.5 Q743.605 1194 762.192 1211 Q780.779 1228 804.507 1238 Q828.235 1248 854.235 1248 Q880.235 1248 901.507 1238 Q922.779 1228 937.692 1211 Q952.605 1194 959.842 1171.5 Q967.079 1149 963.887 1123 Z M554.887 1123 Q551.695 1097 538.932 1074.5 Q526.169 1052 507.143 1035.5 Q488.117 1019 464.39 1009 Q440.662 999 414.662 999 Q388.662 999 367.39 1009 Q346.117 1019 331.643 1035.5 Q317.169 1052 309.932 1074.5 Q302.695 1097 305.887 1123 Q309.079 1149 321.842 1171.5 Q334.605 1194 353.192 1211 Q371.779 1228 395.507 1238 Q419.235 1248 445.235 1248 Q471.235 1248 492.507 1238 Q513.779 1228 528.692 1211 Q543.605 1194 550.842 1171.5 Q558.079 1149 554.887 1123 Z " />
<glyph glyph-name="Ograve" unicode="&#xd2;" horiz-adv-x="994" d="M527.696 250 Q566.696 250 602.477 264.5 Q638.257 279 666.888 304.5 Q695.519 330 714.194 364 Q732.868 398 737.657 437 Q742.445 476 732.059 509.5 Q721.672 543 699.303 568.5 Q676.934 594 644.714 608.5 Q612.495 623 573.495 623 Q534.495 623 499.214 608.5 Q463.934 594 435.303 568.5 Q406.672 543 388.059 509.5 Q369.445 476 364.657 437 Q359.868 398 370.194 364 Q380.519 330 402.888 304.5 Q425.257 279 456.977 264.5 Q488.696 250 527.696 250 Z M604.314 874 Q695.314 874 770.578 839.5 Q845.842 805 897.597 746 Q949.353 687 974.03 607 Q998.707 527 987.657 437 Q976.483 346 932.222 266.5 Q887.961 187 821.655 127.5 Q755.349 68 671.675 34 Q588 0 497 0 Q407 0 331.175 34 Q255.349 68 203.655 127.5 Q151.961 187 127.222 266.5 Q102.483 346 113.657 437 Q124.707 527 169.03 607 Q213.353 687 279.597 746 Q345.842 805 430.078 839.5 Q514.314 874 604.314 874 Z M351.62 1300 L583.055 1442 L765.521 1006 L539.521 1006 L351.62 1300 Z " />
<glyph glyph-name="hungarumlaut" unicode="&#x2dd;" horiz-adv-x="718" d="M392.521 1006 L203.521 1006 L469.126 1410 L641.024 1287 L392.521 1006 Z M707.521 1006 L518.521 1006 L784.126 1410 L956.024 1287 L707.521 1006 Z " />
<glyph glyph-name="Ohungarumlaut" unicode="&#x150;" horiz-adv-x="994" d="M527.696 250 Q566.696 250 602.477 264.5 Q638.257 279 666.888 304.5 Q695.519 330 714.194 364 Q732.868 398 737.657 437 Q742.445 476 732.059 509.5 Q721.672 543 699.303 568.5 Q676.934 594 644.714 608.5 Q612.495 623 573.495 623 Q534.495 623 499.214 608.5 Q463.934 594 435.303 568.5 Q406.672 543 388.059 509.5 Q369.445 476 364.657 437 Q359.868 398 370.194 364 Q380.519 330 402.888 304.5 Q425.257 279 456.977 264.5 Q488.696 250 527.696 250 Z M604.314 874 Q695.314 874 770.578 839.5 Q845.842 805 897.597 746 Q949.353 687 974.03 607 Q998.707 527 987.657 437 Q976.483 346 932.222 266.5 Q887.961 187 821.655 127.5 Q755.349 68 671.675 34 Q588 0 497 0 Q407 0 331.175 34 Q255.349 68 203.655 127.5 Q151.961 187 127.222 266.5 Q102.483 346 113.657 437 Q124.707 527 169.03 607 Q213.353 687 279.597 746 Q345.842 805 430.078 839.5 Q514.314 874 604.314 874 Z M530.521 1006 L341.521 1006 L607.126 1410 L779.024 1287 L530.521 1006 Z M845.521 1006 L656.521 1006 L922.126 1410 L1094.02 1287 L845.521 1006 Z " />
<glyph glyph-name="Omacron" unicode="&#x14c;" horiz-adv-x="994" d="M604.314 874 Q695.314 874 770.578 839.5 Q845.842 805 897.597 746 Q949.353 687 974.03 607 Q998.707 527 987.657 437 Q976.483 346 932.222 266.5 Q887.961 187 821.655 127.5 Q755.349 68 671.675 34 Q588 0 497 0 Q407 0 331.175 34 Q255.349 68 203.655 127.5 Q151.961 187 127.222 266.5 Q102.483 346 113.657 437 Q124.707 527 169.03 607 Q213.353 687 279.597 746 Q345.842 805 430.078 839.5 Q514.314 874 604.314 874 Z M527.696 250 Q566.696 250 602.477 264.5 Q638.257 279 666.888 304.5 Q695.519 330 714.194 364 Q732.868 398 737.657 437 Q742.445 476 732.059 509.5 Q721.672 543 699.303 568.5 Q676.934 594 644.714 608.5 Q612.495 623 573.495 623 Q534.495 623 499.214 608.5 Q463.934 594 435.303 568.5 Q406.672 543 388.059 509.5 Q369.445 476 364.657 437 Q359.868 398 370.194 364 Q380.519 330 402.888 304.5 Q425.257 279 456.977 264.5 Q488.696 250 527.696 250 Z M359.258 1012 L383.569 1210 L906.569 1210 L882.258 1012 L359.258 1012 Z " />
<glyph glyph-name="backslash" unicode="&#x5c;" horiz-adv-x="590" d="M398.373 -225 L96.2225 1028 L299.923 1107 L602.073 -146 L398.373 -225 Z " />
<glyph glyph-name="Oslash" unicode="&#xd8;" horiz-adv-x="994" d="M195.667 -19 L249.191 83 Q211.875 113 183.602 151.5 Q155.329 190 137.854 235 Q120.38 280 113.642 331 Q106.904 382 113.657 437 Q124.707 527 169.03 607 Q213.353 687 279.597 746 Q345.842 805 430.078 839.5 Q514.314 874 604.314 874 Q621.314 874 636.691 873 Q652.068 872 667.7 869 L726.452 981 L891.716 918 L831.719 804 Q873.158 775 905.869 736 Q938.581 697 958.749 649.5 Q978.916 602 986.847 548.5 Q994.778 495 987.657 437 Q976.483 346 932.222 266.5 Q887.961 187 821.655 127.5 Q755.349 68 671.675 34 Q588 0 497 0 Q474 0 452.246 2 Q430.491 4 408.982 8 L360.932 -82 L195.667 -19 Z M527.696 250 Q566.696 250 602.477 264.5 Q638.257 279 666.888 304.5 Q695.519 330 714.194 364 Q732.868 398 737.657 437 Q742.2 474 733.19 506.5 Q724.181 539 704.373 565 L536.451 248 Q530.696 250 527.696 250 Z M364.657 437 Q357.413 378 380.396 329 L535.495 623 Q508.758 617 481.039 603 Q433.847 577 402.567 534 Q371.287 491 364.657 437 Z " />
<glyph glyph-name="Oslashacute" unicode="&#x1fe;" horiz-adv-x="994" d="M195.667 -19 L249.191 83 Q211.875 113 183.602 151.5 Q155.329 190 137.854 235 Q120.38 280 113.642 331 Q106.904 382 113.657 437 Q124.707 527 169.03 607 Q213.353 687 279.597 746 Q345.842 805 430.078 839.5 Q514.314 874 604.314 874 Q621.314 874 636.691 873 Q652.068 872 667.7 869 L726.452 981 L891.716 918 L831.719 804 Q873.158 775 905.869 736 Q938.581 697 958.749 649.5 Q978.916 602 986.847 548.5 Q994.778 495 987.657 437 Q976.483 346 932.222 266.5 Q887.961 187 821.655 127.5 Q755.349 68 671.675 34 Q588 0 497 0 Q474 0 452.246 2 Q430.491 4 408.982 8 L360.932 -82 L195.667 -19 Z M607.521 1006 L418.521 1006 L684.126 1410 L856.024 1287 L607.521 1006 Z M527.696 250 Q566.696 250 602.477 264.5 Q638.257 279 666.888 304.5 Q695.519 330 714.194 364 Q732.868 398 737.657 437 Q742.2 474 733.19 506.5 Q724.181 539 704.373 565 L536.451 248 Q530.696 250 527.696 250 Z M364.657 437 Q357.413 378 380.396 329 L535.495 623 Q508.758 617 481.039 603 Q433.847 577 402.567 534 Q371.287 491 364.657 437 Z " />
<glyph glyph-name="Otilde" unicode="&#xd5;" horiz-adv-x="994" d="M604.314 874 Q695.314 874 770.578 839.5 Q845.842 805 897.597 746 Q949.353 687 974.03 607 Q998.707 527 987.657 437 Q976.483 346 932.222 266.5 Q887.961 187 821.655 127.5 Q755.349 68 671.675 34 Q588 0 497 0 Q407 0 331.175 34 Q255.349 68 203.655 127.5 Q151.961 187 127.222 266.5 Q102.483 346 113.657 437 Q124.707 527 169.03 607 Q213.353 687 279.597 746 Q345.842 805 430.078 839.5 Q514.314 874 604.314 874 Z M527.696 250 Q566.696 250 602.477 264.5 Q638.257 279 666.888 304.5 Q695.519 330 714.194 364 Q732.868 398 737.657 437 Q742.445 476 732.059 509.5 Q721.672 543 699.303 568.5 Q676.934 594 644.714 608.5 Q612.495 623 573.495 623 Q534.495 623 499.214 608.5 Q463.934 594 435.303 568.5 Q406.672 543 388.059 509.5 Q369.445 476 364.657 437 Q359.868 398 370.194 364 Q380.519 330 402.888 304.5 Q425.257 279 456.977 264.5 Q488.696 250 527.696 250 Z M390.324 1208 Q426.376 1241 459.603 1251 Q492.831 1261 523.84 1257 Q554.849 1253 585.069 1238.5 Q615.288 1224 644.701 1207 Q674.114 1190 704.333 1175.5 Q734.553 1161 765.562 1157 Q796.571 1153 829.798 1163 Q863.026 1173 899.078 1206 L873.907 1001 Q837.855 968 804.628 958 Q771.4 948 740.391 952 Q709.382 956 679.162 970.5 Q648.943 985 619.53 1002 Q590.117 1019 559.898 1033.5 Q529.678 1048 498.669 1052 Q467.66 1056 434.433 1046 Q401.205 1036 365.153 1003 L390.324 1208 Z " />
<glyph glyph-name="Sacute" unicode="&#x15a;" horiz-adv-x="914" d="M361.916 602 Q358.724 576 381.935 565.5 Q405.145 555 444.277 552 Q483.409 549 534.47 549.5 Q585.532 550 637.54 546 Q689.549 542 739.014 529.5 Q788.48 517 824.48 488.5 Q860.481 460 879.026 411.5 Q897.571 363 888.239 287 Q881.732 234 857.636 192.5 Q833.54 151 798.611 119 Q763.682 87 719.92 64.5 Q676.157 42 629.877 27.5 Q583.596 13 538.298 6.5 Q493 0 454 0 Q394 0 325.28 14.5 Q256.561 29 199.174 62.5 Q141.787 96 108.102 151.5 Q74.4164 207 84.4847 289 L304.485 289 Q301.906 268 316.687 254 Q331.468 240 356.547 232.5 Q381.627 225 413.758 222 Q445.89 219 477.89 219 Q563.89 219 600.784 238.5 Q637.678 258 641.976 293 Q644.677 315 621.659 323 Q598.642 331 559.826 332.5 Q521.01 334 471.326 332.5 Q421.642 331 370.133 335 Q318.624 339 270.782 352.5 Q222.939 366 187.623 396 Q152.306 426 134.507 476.5 Q116.707 527 126.53 607 Q136.23 686 181.054 737.5 Q225.877 789 289.561 819 Q353.244 849 427.718 861 Q502.191 873 572.191 873 Q631.191 873 694.726 857 Q758.262 841 808.403 805.5 Q858.544 770 886.607 713.5 Q914.669 657 904.847 577 L685.847 577 Q688.18 596 676.899 610 Q665.618 624 644.845 634 Q624.073 644 595.187 649 Q566.301 654 534.301 654 Q447.301 654 406.389 642.5 Q365.477 631 361.916 602 Z M655.521 1006 L467.521 1006 L733.126 1410 L905.024 1287 L655.521 1006 Z " />
<glyph glyph-name="Scaron" unicode="&#x160;" horiz-adv-x="914" d="M361.916 602 Q358.724 576 381.935 565.5 Q405.145 555 444.277 552 Q483.409 549 534.47 549.5 Q585.532 550 637.54 546 Q689.549 542 739.014 529.5 Q788.48 517 824.48 488.5 Q860.481 460 879.026 411.5 Q897.571 363 888.239 287 Q881.732 234 857.636 192.5 Q833.54 151 798.611 119 Q763.682 87 719.92 64.5 Q676.157 42 629.877 27.5 Q583.596 13 538.298 6.5 Q493 0 454 0 Q394 0 325.28 14.5 Q256.561 29 199.174 62.5 Q141.787 96 108.102 151.5 Q74.4164 207 84.4847 289 L304.485 289 Q301.906 268 316.687 254 Q331.468 240 356.547 232.5 Q381.627 225 413.758 222 Q445.89 219 477.89 219 Q563.89 219 600.784 238.5 Q637.678 258 641.976 293 Q644.677 315 621.659 323 Q598.642 331 559.826 332.5 Q521.01 334 471.326 332.5 Q421.642 331 370.133 335 Q318.624 339 270.782 352.5 Q222.939 366 187.623 396 Q152.306 426 134.507 476.5 Q116.707 527 126.53 607 Q136.23 686 181.054 737.5 Q225.877 789 289.561 819 Q353.244 849 427.718 861 Q502.191 873 572.191 873 Q631.191 873 694.726 857 Q758.262 841 808.403 805.5 Q858.544 770 886.607 713.5 Q914.669 657 904.847 577 L685.847 577 Q688.18 596 676.899 610 Q665.618 624 644.845 634 Q624.073 644 595.187 649 Q566.301 654 534.301 654 Q447.301 654 406.389 642.5 Q365.477 631 361.916 602 Z M806.496 1356 L904.744 1244 L572.4 948 L312.744 1244 L438.496 1356 L575.341 1200 Q584.991 1189 601.491 1189 Q617.991 1189 630.341 1200 L717.919 1278 Q734.76 1293 750.479 1307 Q766.198 1321 778.549 1332 Q790.9 1343 798.698 1349.5 Q806.496 1356 806.496 1356 Z " />
<glyph glyph-name="Scedilla" unicode="&#x15e;" horiz-adv-x="914" d="M568.491 4 Q589.544 -20 597.677 -51.5 Q605.809 -83 601.818 -115.5 Q597.828 -148 581.46 -179.5 Q565.092 -211 538.146 -235 Q511.199 -259 478.664 -271.5 Q446.129 -284 414.129 -284 Q382.129 -284 352.664 -271.5 Q323.199 -259 301.146 -235 Q257.53 -183 265.757 -116 L379.757 -116 Q377.056 -138 391.968 -155 Q406.881 -172 429.881 -172 Q452.881 -172 471.968 -155 Q491.056 -138 493.88 -115 Q496.704 -92 481.791 -75 L415.123 1 Q356.614 5 294.201 22 Q231.789 39 181.963 73 Q132.138 107 103.646 160 Q75.1531 213 84.4847 289 L304.485 289 Q301.906 268 316.687 254 Q331.468 240 356.547 232.5 Q381.627 225 413.758 222 Q445.89 219 477.89 219 Q563.89 219 600.784 238.5 Q637.678 258 641.976 293 Q644.677 315 621.659 323 Q598.642 331 559.826 332.5 Q521.01 334 471.326 332.5 Q421.642 331 370.133 335 Q318.624 339 270.782 352.5 Q222.939 366 187.623 396 Q152.306 426 134.507 476.5 Q116.707 527 126.53 607 Q136.23 686 181.054 737.5 Q225.877 789 289.561 819 Q353.244 849 427.718 861 Q502.191 873 572.191 873 Q631.191 873 694.726 857 Q758.262 841 808.403 805.5 Q858.544 770 886.607 713.5 Q914.669 657 904.847 577 L685.847 577 Q688.18 596 676.899 610 Q665.618 624 644.845 634 Q624.073 644 595.187 649 Q566.301 654 534.301 654 Q447.301 654 406.389 642.5 Q365.477 631 361.916 602 Q358.724 576 381.935 565.5 Q405.145 555 444.277 552 Q483.409 549 534.47 549.5 Q585.532 550 637.54 546 Q689.549 542 739.014 529.5 Q788.48 517 824.48 488.5 Q860.481 460 879.026 411.5 Q897.571 363 888.239 287 Q880.627 225 848.856 178 Q817.085 131 771.41 97 Q725.735 63 670.657 42 Q615.578 21 562.351 11 L568.491 4 Z " />
<glyph glyph-name="Scircumflex" unicode="&#x15c;" horiz-adv-x="914" d="M361.916 602 Q358.724 576 381.935 565.5 Q405.145 555 444.277 552 Q483.409 549 534.47 549.5 Q585.532 550 637.54 546 Q689.549 542 739.014 529.5 Q788.48 517 824.48 488.5 Q860.481 460 879.026 411.5 Q897.571 363 888.239 287 Q881.732 234 857.636 192.5 Q833.54 151 798.611 119 Q763.682 87 719.92 64.5 Q676.157 42 629.877 27.5 Q583.596 13 538.298 6.5 Q493 0 454 0 Q394 0 325.28 14.5 Q256.561 29 199.174 62.5 Q141.787 96 108.102 151.5 Q74.4164 207 84.4847 289 L304.485 289 Q301.906 268 316.687 254 Q331.468 240 356.547 232.5 Q381.627 225 413.758 222 Q445.89 219 477.89 219 Q563.89 219 600.784 238.5 Q637.678 258 641.976 293 Q644.677 315 621.659 323 Q598.642 331 559.826 332.5 Q521.01 334 471.326 332.5 Q421.642 331 370.133 335 Q318.624 339 270.782 352.5 Q222.939 366 187.623 396 Q152.306 426 134.507 476.5 Q116.707 527 126.53 607 Q136.23 686 181.054 737.5 Q225.877 789 289.561 819 Q353.244 849 427.718 861 Q502.191 873 572.191 873 Q631.191 873 694.726 857 Q758.262 841 808.403 805.5 Q858.544 770 886.607 713.5 Q914.669 657 904.847 577 L685.847 577 Q688.18 596 676.899 610 Q665.618 624 644.845 634 Q624.073 644 595.187 649 Q566.301 654 534.301 654 Q447.301 654 406.389 642.5 Q365.477 631 361.916 602 Z M755.4 948 L618.554 1104 Q608.905 1115 592.405 1115 Q575.905 1115 563.554 1104 L388.4 948 L290.152 1060 L622.496 1356 L882.152 1060 L756.4 948 L755.4 948 Z " />
<glyph glyph-name="Scommaaccent" unicode="&#x218;" horiz-adv-x="914" d="M361.916 602 Q358.724 576 381.935 565.5 Q405.145 555 444.277 552 Q483.409 549 534.47 549.5 Q585.532 550 637.54 546 Q689.549 542 739.014 529.5 Q788.48 517 824.48 488.5 Q860.481 460 879.026 411.5 Q897.571 363 888.239 287 Q881.732 234 857.636 192.5 Q833.54 151 798.611 119 Q763.682 87 719.92 64.5 Q676.157 42 629.877 27.5 Q583.596 13 538.298 6.5 Q493 0 454 0 Q394 0 325.28 14.5 Q256.561 29 199.174 62.5 Q141.787 96 108.102 151.5 Q74.4164 207 84.4847 289 L304.485 289 Q301.906 268 316.687 254 Q331.468 240 356.547 232.5 Q381.627 225 413.758 222 Q445.89 219 477.89 219 Q563.89 219 600.784 238.5 Q637.678 258 641.976 293 Q644.677 315 621.659 323 Q598.642 331 559.826 332.5 Q521.01 334 471.326 332.5 Q421.642 331 370.133 335 Q318.624 339 270.782 352.5 Q222.939 366 187.623 396 Q152.306 426 134.507 476.5 Q116.707 527 126.53 607 Q136.23 686 181.054 737.5 Q225.877 789 289.561 819 Q353.244 849 427.718 861 Q502.191 873 572.191 873 Q631.191 873 694.726 857 Q758.262 841 808.403 805.5 Q858.544 770 886.607 713.5 Q914.669 657 904.847 577 L685.847 577 Q688.18 596 676.899 610 Q665.618 624 644.845 634 Q624.073 644 595.187 649 Q566.301 654 534.301 654 Q447.301 654 406.389 642.5 Q365.477 631 361.916 602 Z M337.565 -142 L540.565 -142 L484.062 -423 L303.062 -423 L337.565 -142 Z " />
<glyph glyph-name="Tbar" unicode="&#x166;" horiz-adv-x="867" d="M212.028 326 L236.339 524 L377.339 524 L391.091 636 Q393.178 653 383.029 664 Q372.88 675 355.88 675 L112.88 675 L137.436 875 L944.436 875 L919.88 675 L675.88 675 Q659.88 675 647.029 664 Q634.178 653 632.091 636 L618.339 524 L759.339 524 L735.028 326 L594.028 326 L554 0 L313 0 L353.028 326 L212.028 326 Z " />
<glyph glyph-name="Tcaron" unicode="&#x164;" horiz-adv-x="867" d="M112.88 675 L137.436 875 L944.436 875 L919.88 675 L675.88 675 Q659.88 675 647.029 664 Q634.178 653 632.091 636 L554 0 L313 0 L391.091 636 Q393.178 653 383.029 664 Q372.88 675 355.88 675 L112.88 675 Z M783.496 1356 L881.744 1244 L549.4 948 L289.744 1244 L415.496 1356 L552.341 1200 Q561.991 1189 578.491 1189 Q594.991 1189 607.341 1200 L694.919 1278 Q711.76 1293 727.479 1307 Q743.198 1321 755.549 1332 Q767.9 1343 775.698 1349.5 Q783.496 1356 783.496 1356 Z " />
<glyph glyph-name="Tcommaaccent" unicode="&#x162;" horiz-adv-x="867" d="M112.88 675 L137.436 875 L944.436 875 L919.88 675 L675.88 675 Q659.88 675 647.029 664 Q634.178 653 632.091 636 L554 0 L313 0 L391.091 636 Q393.178 653 383.029 664 Q372.88 675 355.88 675 L112.88 675 Z M314.565 -142 L517.565 -142 L461.062 -423 L280.062 -423 L314.565 -142 Z " />
<glyph glyph-name="Uacute" unicode="&#xda;" horiz-adv-x="886" d="M587.343 353 L651.314 874 L903.314 874 L839.343 353 Q830.38 280 794.96 215.5 Q759.54 151 705.647 103 Q651.753 55 583.877 27.5 Q516 0 443 0 Q370 0 308.877 27.5 Q247.753 55 205.647 103 Q163.54 151 143.96 215.5 Q124.38 280 133.343 353 L197.314 874 L449.314 874 L385.343 353 Q382.764 332 388.493 313.5 Q394.221 295 406.064 281.5 Q417.906 268 435.424 260 Q452.942 252 473.942 252 Q516.942 252 549.502 281 Q582.063 310 587.343 353 Z M641.521 1006 L452.521 1006 L718.126 1410 L890.024 1287 L641.521 1006 Z " />
<glyph glyph-name="Ubreve" unicode="&#x16c;" horiz-adv-x="886" d="M587.343 353 L651.314 874 L903.314 874 L839.343 353 Q830.38 280 794.96 215.5 Q759.54 151 705.647 103 Q651.753 55 583.877 27.5 Q516 0 443 0 Q370 0 308.877 27.5 Q247.753 55 205.647 103 Q163.54 151 143.96 215.5 Q124.38 280 133.343 353 L197.314 874 L449.314 874 L385.343 353 Q382.764 332 388.493 313.5 Q394.221 295 406.064 281.5 Q417.906 268 435.424 260 Q452.942 252 473.942 252 Q516.942 252 549.502 281 Q582.063 310 587.343 353 Z M667.621 1243 L844.621 1243 Q838.359 1192 813.272 1146.5 Q788.186 1101 750.011 1067 Q711.836 1033 663.942 1013.5 Q616.048 994 565.048 994 Q514.048 994 470.942 1013.5 Q427.836 1033 398.011 1067 Q368.186 1101 354.272 1146.5 Q340.359 1192 346.621 1243 L523.621 1243 Q520.06 1214 538.859 1192 Q557.658 1170 587.658 1170 Q602.658 1170 615.895 1176 Q629.131 1182 640.359 1192 Q651.587 1202 658.745 1215.5 Q665.902 1229 667.621 1243 Z " />
<glyph glyph-name="Ucircumflex" unicode="&#xdb;" horiz-adv-x="886" d="M587.343 353 L651.314 874 L903.314 874 L839.343 353 Q830.38 280 794.96 215.5 Q759.54 151 705.647 103 Q651.753 55 583.877 27.5 Q516 0 443 0 Q370 0 308.877 27.5 Q247.753 55 205.647 103 Q163.54 151 143.96 215.5 Q124.38 280 133.343 353 L197.314 874 L449.314 874 L385.343 353 Q382.764 332 388.493 313.5 Q394.221 295 406.064 281.5 Q417.906 268 435.424 260 Q452.942 252 473.942 252 Q516.942 252 549.502 281 Q582.063 310 587.343 353 Z M742.4 948 L605.554 1104 Q595.905 1115 579.405 1115 Q562.905 1115 550.554 1104 L375.4 948 L277.152 1060 L609.496 1356 L869.152 1060 L743.4 948 L742.4 948 Z " />
<glyph glyph-name="Udieresis" unicode="&#xdc;" horiz-adv-x="886" d="M587.343 353 L651.314 874 L903.314 874 L839.343 353 Q830.38 280 794.96 215.5 Q759.54 151 705.647 103 Q651.753 55 583.877 27.5 Q516 0 443 0 Q370 0 308.877 27.5 Q247.753 55 205.647 103 Q163.54 151 143.96 215.5 Q124.38 280 133.343 353 L197.314 874 L449.314 874 L385.343 353 Q382.764 332 388.493 313.5 Q394.221 295 406.064 281.5 Q417.906 268 435.424 260 Q452.942 252 473.942 252 Q516.942 252 549.502 281 Q582.063 310 587.343 353 Z M500.887 1123 Q497.695 1097 484.932 1074.5 Q472.169 1052 453.143 1035.5 Q434.117 1019 410.39 1009 Q386.662 999 360.662 999 Q334.662 999 313.39 1009 Q292.117 1019 277.643 1035.5 Q263.169 1052 255.932 1074.5 Q248.695 1097 251.887 1123 Q255.079 1149 267.842 1171.5 Q280.605 1194 299.192 1211 Q317.779 1228 341.507 1238 Q365.235 1248 391.235 1248 Q417.235 1248 438.507 1238 Q459.779 1228 474.692 1211 Q489.605 1194 496.842 1171.5 Q504.079 1149 500.887 1123 Z M909.887 1123 Q906.695 1097 893.932 1074.5 Q881.169 1052 862.143 1035.5 Q843.117 1019 819.39 1009 Q795.662 999 769.662 999 Q743.662 999 722.39 1009 Q701.117 1019 686.643 1035.5 Q672.169 1052 664.932 1074.5 Q657.695 1097 660.887 1123 Q664.079 1149 676.842 1171.5 Q689.605 1194 708.192 1211 Q726.779 1228 750.507 1238 Q774.235 1248 800.235 1248 Q826.235 1248 847.507 1238 Q868.779 1228 883.692 1211 Q898.605 1194 905.842 1171.5 Q913.079 1149 909.887 1123 Z " />
<glyph glyph-name="Ugrave" unicode="&#xd9;" horiz-adv-x="886" d="M587.343 353 L651.314 874 L903.314 874 L839.343 353 Q830.38 280 794.96 215.5 Q759.54 151 705.647 103 Q651.753 55 583.877 27.5 Q516 0 443 0 Q370 0 308.877 27.5 Q247.753 55 205.647 103 Q163.54 151 143.96 215.5 Q124.38 280 133.343 353 L197.314 874 L449.314 874 L385.343 353 Q382.764 332 388.493 313.5 Q394.221 295 406.064 281.5 Q417.906 268 435.424 260 Q452.942 252 473.942 252 Q516.942 252 549.502 281 Q582.063 310 587.343 353 Z M267.62 1300 L499.055 1442 L681.521 1006 L455.521 1006 L267.62 1300 Z " />
<glyph glyph-name="Uhungarumlaut" unicode="&#x170;" horiz-adv-x="886" d="M587.343 353 L651.314 874 L903.314 874 L839.343 353 Q830.38 280 794.96 215.5 Q759.54 151 705.647 103 Q651.753 55 583.877 27.5 Q516 0 443 0 Q370 0 308.877 27.5 Q247.753 55 205.647 103 Q163.54 151 143.96 215.5 Q124.38 280 133.343 353 L197.314 874 L449.314 874 L385.343 353 Q382.764 332 388.493 313.5 Q394.221 295 406.064 281.5 Q417.906 268 435.424 260 Q452.942 252 473.942 252 Q516.942 252 549.502 281 Q582.063 310 587.343 353 Z M794.521 1006 L605.521 1006 L871.126 1410 L1043.02 1287 L794.521 1006 Z M479.521 1006 L290.521 1006 L556.126 1410 L728.024 1287 L479.521 1006 Z " />
<glyph glyph-name="Umacron" unicode="&#x16a;" horiz-adv-x="886" d="M587.343 353 L651.314 874 L903.314 874 L839.343 353 Q830.38 280 794.96 215.5 Q759.54 151 705.647 103 Q651.753 55 583.877 27.5 Q516 0 443 0 Q370 0 308.877 27.5 Q247.753 55 205.647 103 Q163.54 151 143.96 215.5 Q124.38 280 133.343 353 L197.314 874 L449.314 874 L385.343 353 Q382.764 332 388.493 313.5 Q394.221 295 406.064 281.5 Q417.906 268 435.424 260 Q452.942 252 473.942 252 Q516.942 252 549.502 281 Q582.063 310 587.343 353 Z M305.258 1012 L329.569 1210 L852.569 1210 L828.258 1012 L305.258 1012 Z " />
<glyph glyph-name="Uogonek" unicode="&#x172;" horiz-adv-x="886" d="M584.075 -203 Q534.672 -247 485.91 -269.5 Q437.147 -292 391.147 -292 Q344.147 -292 305.357 -274 Q266.567 -256 239.373 -225 Q212.18 -194 199.775 -152.5 Q187.371 -111 193.142 -64 Q201.982 8 247.613 62 Q184.629 111 153.399 186.5 Q122.17 262 133.343 353 L197.314 874 L449.314 874 L385.343 353 Q382.764 332 388.493 313.5 Q394.221 295 406.064 281.5 Q417.906 268 435.424 260 Q452.942 252 473.942 252 Q516.942 252 549.502 281 Q582.063 310 587.343 353 L651.314 874 L903.314 874 L839.343 353 Q830.38 280 794.46 215.5 Q758.54 151 704.647 103 Q650.753 55 582.877 27.5 Q515 0 442 0 Q407 0 379.728 -18.5 Q352.457 -37 349.265 -63 Q346.072 -89 362.362 -107 Q378.652 -125 404.652 -125 Q417.652 -125 434.196 -116.5 Q450.739 -108 468.581 -93 L584.075 -203 Z " />
<glyph glyph-name="Uring" unicode="&#x16e;" horiz-adv-x="886" d="M587.343 353 L651.314 874 L903.314 874 L839.343 353 Q830.38 280 794.96 215.5 Q759.54 151 705.647 103 Q651.753 55 583.877 27.5 Q516 0 443 0 Q370 0 308.877 27.5 Q247.753 55 205.647 103 Q163.54 151 143.96 215.5 Q124.38 280 133.343 353 L197.314 874 L449.314 874 L385.343 353 Q382.764 332 388.493 313.5 Q394.221 295 406.064 281.5 Q417.906 268 435.424 260 Q452.942 252 473.942 252 Q516.942 252 549.502 281 Q582.063 310 587.343 353 Z M606.058 1328 Q643.058 1328 673.839 1314 Q704.62 1300 726.173 1276 Q747.726 1252 757.736 1219.5 Q767.745 1187 763.202 1150 Q758.536 1112 740.546 1079.5 Q722.555 1047 695.109 1023 Q667.662 999 633.443 985 Q599.224 971 562.224 971 Q525.224 971 494.443 985 Q463.662 999 442.109 1023 Q420.555 1047 410.546 1079.5 Q400.536 1112 405.202 1150 Q409.745 1187 427.736 1219.5 Q445.726 1252 473.173 1276 Q500.62 1300 534.839 1314 Q569.058 1328 606.058 1328 Z M576.467 1087 Q601.467 1087 622.238 1105.5 Q643.01 1124 646.202 1150 Q649.272 1175 632.982 1193 Q616.692 1211 591.692 1211 Q566.692 1211 545.482 1193 Q524.272 1175 521.202 1150 Q518.01 1124 534.738 1105.5 Q551.467 1087 576.467 1087 Z " />
<glyph glyph-name="Utilde" unicode="&#x168;" horiz-adv-x="886" d="M587.343 353 L651.314 874 L903.314 874 L839.343 353 Q830.38 280 794.96 215.5 Q759.54 151 705.647 103 Q651.753 55 583.877 27.5 Q516 0 443 0 Q370 0 308.877 27.5 Q247.753 55 205.647 103 Q163.54 151 143.96 215.5 Q124.38 280 133.343 353 L197.314 874 L449.314 874 L385.343 353 Q382.764 332 388.493 313.5 Q394.221 295 406.064 281.5 Q417.906 268 435.424 260 Q452.942 252 473.942 252 Q516.942 252 549.502 281 Q582.063 310 587.343 353 Z M336.324 1208 Q372.376 1241 405.603 1251 Q438.831 1261 469.84 1257 Q500.849 1253 531.069 1238.5 Q561.288 1224 590.701 1207 Q620.114 1190 650.333 1175.5 Q680.553 1161 711.562 1157 Q742.571 1153 775.798 1163 Q809.026 1173 845.078 1206 L819.907 1001 Q783.855 968 750.628 958 Q717.4 948 686.391 952 Q655.382 956 625.162 970.5 Q594.943 985 565.53 1002 Q536.117 1019 505.898 1033.5 Q475.678 1048 444.669 1052 Q413.66 1056 380.433 1046 Q347.205 1036 311.153 1003 L336.324 1208 Z " />
<glyph glyph-name="Wacute" unicode="&#x1e82;" horiz-adv-x="1475" d="M1075.29 377 L1304.44 875 L1552.44 875 L1154 0 L905 0 L799.761 503 L570 0 L322 0 L137.436 875 L386.436 875 L492.29 377 L720.436 875 L969.436 875 L1075.29 377 Z M848.521 1006 L659.521 1006 L925.126 1410 L1097.02 1287 L848.521 1006 Z " />
<glyph glyph-name="Wcircumflex" unicode="&#x174;" horiz-adv-x="1475" d="M1075.29 377 L1304.44 875 L1552.44 875 L1154 0 L905 0 L799.761 503 L570 0 L322 0 L137.436 875 L386.436 875 L492.29 377 L720.436 875 L969.436 875 L1075.29 377 Z M1036.4 948 L899.554 1104 Q889.905 1115 873.405 1115 Q856.905 1115 844.554 1104 L669.4 948 L571.152 1060 L903.496 1356 L1163.15 1060 L1037.4 948 L1036.4 948 Z " />
<glyph glyph-name="Wdieresis" unicode="&#x1e84;" horiz-adv-x="1475" d="M1075.29 377 L1304.44 875 L1552.44 875 L1154 0 L905 0 L799.761 503 L570 0 L322 0 L137.436 875 L386.436 875 L492.29 377 L720.436 875 L969.436 875 L1075.29 377 Z M794.887 1123 Q791.695 1097 778.932 1074.5 Q766.169 1052 747.143 1035.5 Q728.117 1019 704.39 1009 Q680.662 999 654.662 999 Q628.662 999 607.39 1009 Q586.117 1019 571.643 1035.5 Q557.169 1052 549.932 1074.5 Q542.695 1097 545.887 1123 Q549.079 1149 561.842 1171.5 Q574.605 1194 593.192 1211 Q611.779 1228 635.507 1238 Q659.235 1248 685.235 1248 Q711.235 1248 732.507 1238 Q753.779 1228 768.692 1211 Q783.605 1194 790.842 1171.5 Q798.079 1149 794.887 1123 Z M1203.89 1123 Q1200.69 1097 1187.93 1074.5 Q1175.17 1052 1156.14 1035.5 Q1137.12 1019 1113.39 1009 Q1089.66 999 1063.66 999 Q1037.66 999 1016.39 1009 Q995.117 1019 980.643 1035.5 Q966.169 1052 958.932 1074.5 Q951.695 1097 954.887 1123 Q958.079 1149 970.842 1171.5 Q983.605 1194 1002.19 1211 Q1020.78 1228 1044.51 1238 Q1068.24 1248 1094.24 1248 Q1120.24 1248 1141.51 1238 Q1162.78 1228 1177.69 1211 Q1192.6 1194 1199.84 1171.5 Q1207.08 1149 1203.89 1123 Z " />
<glyph glyph-name="Wgrave" unicode="&#x1e80;" horiz-adv-x="1475" d="M1075.29 377 L1304.44 875 L1552.44 875 L1154 0 L905 0 L799.761 503 L570 0 L322 0 L137.436 875 L386.436 875 L492.29 377 L720.436 875 L969.436 875 L1075.29 377 Z M671.62 1300 L903.055 1442 L1085.52 1006 L859.521 1006 L671.62 1300 Z " />
<glyph glyph-name="Yacute" unicode="&#xdd;" horiz-adv-x="1092" d="M475.342 410 Q477.306 426 468.534 436 L137.314 874 L419.314 874 L620.653 608 L887.314 874 L1169.31 874 L730.534 436 Q719.306 426 717.342 410 L667 0 L425 0 L475.342 410 Z M747.521 1006 L558.521 1006 L824.126 1410 L996.024 1287 L747.521 1006 Z " />
<glyph glyph-name="Ycircumflex" unicode="&#x176;" horiz-adv-x="1092" d="M475.342 410 Q477.306 426 468.534 436 L137.314 874 L419.314 874 L620.653 608 L887.314 874 L1169.31 874 L730.534 436 Q719.306 426 717.342 410 L667 0 L425 0 L475.342 410 Z M845.4 948 L708.554 1104 Q698.905 1115 682.405 1115 Q665.905 1115 653.554 1104 L478.4 948 L380.152 1060 L712.496 1356 L972.152 1060 L846.4 948 L845.4 948 Z " />
<glyph glyph-name="Ydieresis" unicode="&#x178;" horiz-adv-x="1092" d="M475.342 410 Q477.306 426 468.534 436 L137.314 874 L419.314 874 L620.653 608 L887.314 874 L1169.31 874 L730.534 436 Q719.306 426 717.342 410 L667 0 L425 0 L475.342 410 Z M1012.89 1123 Q1009.69 1097 996.932 1074.5 Q984.169 1052 965.143 1035.5 Q946.117 1019 922.39 1009 Q898.662 999 872.662 999 Q846.662 999 825.39 1009 Q804.117 1019 789.643 1035.5 Q775.169 1052 767.932 1074.5 Q760.695 1097 763.887 1123 Q767.079 1149 779.842 1171.5 Q792.605 1194 811.192 1211 Q829.779 1228 853.507 1238 Q877.235 1248 903.235 1248 Q929.235 1248 950.507 1238 Q971.779 1228 986.692 1211 Q1001.6 1194 1008.84 1171.5 Q1016.08 1149 1012.89 1123 Z M603.887 1123 Q600.695 1097 587.932 1074.5 Q575.169 1052 556.143 1035.5 Q537.117 1019 513.39 1009 Q489.662 999 463.662 999 Q437.662 999 416.39 1009 Q395.117 1019 380.643 1035.5 Q366.169 1052 358.932 1074.5 Q351.695 1097 354.887 1123 Q358.079 1149 370.842 1171.5 Q383.605 1194 402.192 1211 Q420.779 1228 444.507 1238 Q468.235 1248 494.235 1248 Q520.235 1248 541.507 1238 Q562.779 1228 577.692 1211 Q592.605 1194 599.842 1171.5 Q607.079 1149 603.887 1123 Z " />
<glyph glyph-name="Ygrave" unicode="&#x1ef2;" horiz-adv-x="1092" d="M475.342 410 Q477.306 426 468.534 436 L137.314 874 L419.314 874 L620.653 608 L887.314 874 L1169.31 874 L730.534 436 Q719.306 426 717.342 410 L667 0 L425 0 L475.342 410 Z M378.62 1300 L610.055 1442 L792.521 1006 L566.521 1006 L378.62 1300 Z " />
<glyph glyph-name="Zacute" unicode="&#x179;" horiz-adv-x="951" d="M998.436 875 L974.371 679 L421.943 195 L870.943 195 L847 0 L52 0 L75.943 195 L626.371 679 L135.371 679 L159.436 875 L998.436 875 Z M668.521 1006 L479.521 1006 L745.126 1410 L917.024 1287 L668.521 1006 Z " />
<glyph glyph-name="Zcaron" unicode="&#x17d;" horiz-adv-x="951" d="M998.436 875 L974.371 679 L421.943 195 L870.943 195 L847 0 L52 0 L75.943 195 L626.371 679 L135.371 679 L159.436 875 L998.436 875 Z M825.496 1356 L923.744 1244 L591.4 948 L331.744 1244 L457.496 1356 L594.341 1200 Q603.991 1189 620.491 1189 Q636.991 1189 649.341 1200 L736.919 1278 Q753.76 1293 769.479 1307 Q785.198 1321 797.549 1332 Q809.9 1343 817.698 1349.5 Q825.496 1356 825.496 1356 Z " />
<glyph glyph-name="Zdotaccent" unicode="&#x17b;" horiz-adv-x="951" d="M998.436 875 L974.371 679 L421.943 195 L870.943 195 L847 0 L52 0 L75.943 195 L626.371 679 L135.371 679 L159.436 875 L998.436 875 Z M734.204 1093 Q731.011 1067 718.248 1044.5 Q705.486 1022 686.46 1005.5 Q667.434 989 643.706 979 Q619.978 969 593.978 969 Q567.978 969 546.706 979 Q525.434 989 510.96 1005.5 Q496.486 1022 489.248 1044.5 Q482.011 1067 485.204 1093 Q488.396 1119 501.159 1141.5 Q513.921 1164 532.509 1181 Q551.096 1198 574.824 1208 Q598.552 1218 624.552 1218 Q650.552 1218 671.824 1208 Q693.096 1198 708.009 1181 Q722.921 1164 730.159 1141.5 Q737.396 1119 734.204 1093 Z " />
<glyph glyph-name="c" unicode="c" horiz-adv-x="847" d="M565.618 624 Q526.618 624 490.837 609.5 Q455.057 595 426.426 569.5 Q397.795 544 378.682 510.5 Q359.568 477 354.78 438 Q349.991 399 360.316 365 Q370.642 331 393.011 305.5 Q415.38 280 447.099 265.5 Q478.819 251 517.819 251 Q555.819 251 591.538 265 Q627.257 279 656.572 306 L812.716 128 Q743.104 66 658.552 33 Q574 0 487 0 Q397 0 321.236 34.5 Q245.472 69 193.778 128.5 Q142.083 188 117.406 268 Q92.729 348 103.78 438 Q114.83 528 159.153 608 Q203.476 688 269.72 747 Q335.964 806 420.2 840.5 Q504.436 875 594.436 875 Q681.436 875 757.885 842 Q834.333 809 888.72 747 L688.864 569 Q666.057 595 633.837 609.5 Q601.618 624 565.618 624 Z " />
<glyph glyph-name="cacute" unicode="&#x107;" horiz-adv-x="847" d="M565.618 624 Q526.618 624 490.837 609.5 Q455.057 595 426.426 569.5 Q397.795 544 378.682 510.5 Q359.568 477 354.78 438 Q349.991 399 360.316 365 Q370.642 331 393.011 305.5 Q415.38 280 447.099 265.5 Q478.819 251 517.819 251 Q555.819 251 591.538 265 Q627.257 279 656.572 306 L812.716 128 Q743.104 66 658.552 33 Q574 0 487 0 Q397 0 321.236 34.5 Q245.472 69 193.778 128.5 Q142.083 188 117.406 268 Q92.729 348 103.78 438 Q114.83 528 159.153 608 Q203.476 688 269.72 747 Q335.964 806 420.2 840.5 Q504.436 875 594.436 875 Q681.436 875 757.885 842 Q834.333 809 888.72 747 L688.864 569 Q666.057 595 633.837 609.5 Q601.618 624 565.618 624 Z M702.521 1006 L513.521 1006 L779.126 1410 L951.024 1287 L702.521 1006 Z " />
<glyph glyph-name="ccaron" unicode="&#x10d;" horiz-adv-x="847" d="M565.618 624 Q526.618 624 490.837 609.5 Q455.057 595 426.426 569.5 Q397.795 544 378.682 510.5 Q359.568 477 354.78 438 Q349.991 399 360.316 365 Q370.642 331 393.011 305.5 Q415.38 280 447.099 265.5 Q478.819 251 517.819 251 Q555.819 251 591.538 265 Q627.257 279 656.572 306 L812.716 128 Q743.104 66 658.552 33 Q574 0 487 0 Q397 0 321.236 34.5 Q245.472 69 193.778 128.5 Q142.083 188 117.406 268 Q92.729 348 103.78 438 Q114.83 528 159.153 608 Q203.476 688 269.72 747 Q335.964 806 420.2 840.5 Q504.436 875 594.436 875 Q681.436 875 757.885 842 Q834.333 809 888.72 747 L688.864 569 Q666.057 595 633.837 609.5 Q601.618 624 565.618 624 Z M828.496 1356 L926.744 1244 L594.4 948 L334.744 1244 L460.496 1356 L597.341 1200 Q606.991 1189 623.491 1189 Q639.991 1189 652.341 1200 L739.919 1278 Q756.76 1293 772.479 1307 Q788.198 1321 800.549 1332 Q812.9 1343 820.698 1349.5 Q828.496 1356 828.496 1356 Z " />
<glyph glyph-name="ccedilla" unicode="&#xe7;" horiz-adv-x="847" d="M565.618 624 Q526.618 624 490.837 609.5 Q455.057 595 426.426 569.5 Q397.795 544 378.682 510.5 Q359.568 477 354.78 438 Q349.991 399 360.316 365 Q370.642 331 393.011 305.5 Q415.38 280 447.099 265.5 Q478.819 251 517.819 251 Q555.819 251 591.538 265 Q627.257 279 656.572 306 L812.716 128 Q732.999 57 633.824 23 Q645.754 -2 648.194 -31 Q650.633 -60 642.072 -89 Q624.073 -146 575.162 -186 Q547.461 -208 515.11 -219 Q474.391 -233 435.128 -227 Q395.865 -221 365.504 -199.5 Q335.144 -178 318.565 -142 Q301.985 -106 307.51 -61 L421.51 -61 Q419.177 -80 428.081 -93 Q436.985 -106 451.248 -112 Q465.511 -118 482.88 -115 Q500.248 -112 513.722 -100 Q532.809 -83 535.633 -60 Q538.457 -37 523.544 -20 L505 0 Q411.877 -1 332.868 31.5 Q253.858 64 199.041 122.5 Q144.224 181 118.17 262 Q92.1151 343 103.78 438 Q114.83 528 159.153 608 Q203.476 688 269.72 747 Q335.964 806 420.2 840.5 Q504.436 875 594.436 875 Q681.436 875 757.885 842 Q834.333 809 888.72 747 L688.864 569 Q666.057 595 633.837 609.5 Q601.618 624 565.618 624 Z " />
<glyph glyph-name="ccircumflex" unicode="&#x109;" horiz-adv-x="847" d="M565.618 624 Q526.618 624 490.837 609.5 Q455.057 595 426.426 569.5 Q397.795 544 378.682 510.5 Q359.568 477 354.78 438 Q349.991 399 360.316 365 Q370.642 331 393.011 305.5 Q415.38 280 447.099 265.5 Q478.819 251 517.819 251 Q555.819 251 591.538 265 Q627.257 279 656.572 306 L812.716 128 Q743.104 66 658.552 33 Q574 0 487 0 Q397 0 321.236 34.5 Q245.472 69 193.778 128.5 Q142.083 188 117.406 268 Q92.729 348 103.78 438 Q114.83 528 159.153 608 Q203.476 688 269.72 747 Q335.964 806 420.2 840.5 Q504.436 875 594.436 875 Q681.436 875 757.885 842 Q834.333 809 888.72 747 L688.864 569 Q666.057 595 633.837 609.5 Q601.618 624 565.618 624 Z M807.4 948 L670.554 1104 Q660.905 1115 644.405 1115 Q627.905 1115 615.554 1104 L440.4 948 L342.152 1060 L674.496 1356 L934.152 1060 L808.4 948 L807.4 948 Z " />
<glyph glyph-name="cdotaccent" unicode="&#x10b;" horiz-adv-x="847" d="M565.618 624 Q526.618 624 490.837 609.5 Q455.057 595 426.426 569.5 Q397.795 544 378.682 510.5 Q359.568 477 354.78 438 Q349.991 399 360.316 365 Q370.642 331 393.011 305.5 Q415.38 280 447.099 265.5 Q478.819 251 517.819 251 Q555.819 251 591.538 265 Q627.257 279 656.572 306 L812.716 128 Q743.104 66 658.552 33 Q574 0 487 0 Q397 0 321.236 34.5 Q245.472 69 193.778 128.5 Q142.083 188 117.406 268 Q92.729 348 103.78 438 Q114.83 528 159.153 608 Q203.476 688 269.72 747 Q335.964 806 420.2 840.5 Q504.436 875 594.436 875 Q681.436 875 757.885 842 Q834.333 809 888.72 747 L688.864 569 Q666.057 595 633.837 609.5 Q601.618 624 565.618 624 Z M720.204 1093 Q717.011 1067 704.248 1044.5 Q691.486 1022 672.46 1005.5 Q653.434 989 629.706 979 Q605.978 969 579.978 969 Q553.978 969 532.706 979 Q511.434 989 496.96 1005.5 Q482.486 1022 475.248 1044.5 Q468.011 1067 471.204 1093 Q474.396 1119 487.159 1141.5 Q499.921 1164 518.509 1181 Q537.096 1198 560.824 1208 Q584.552 1218 610.552 1218 Q636.552 1218 657.824 1208 Q679.096 1198 694.009 1181 Q708.921 1164 716.159 1141.5 Q723.396 1119 720.204 1093 Z " />
<glyph glyph-name="d" unicode="d" horiz-adv-x="970" d="M575.436 875 Q665.436 875 741.2 840.5 Q816.964 806 868.659 746.5 Q920.353 687 945.03 607 Q969.707 527 958.657 437 Q947.606 347 903.283 267 Q858.961 187 792.716 128 Q726.472 69 642.236 34.5 Q558 0 468 0 L95 0 L202.436 875 L575.436 875 Z M707.534 436 Q711.954 472 702.129 506 Q692.304 540 671.057 566.5 Q649.811 593 618.714 608.5 Q587.618 624 549.618 624 L447.618 624 Q436.618 624 428.697 616.5 Q420.776 609 419.425 598 L379.889 276 Q378.538 265 384.678 258 Q390.819 251 401.819 251 L503.819 251 Q540.819 251 575.222 266.5 Q609.625 282 637.756 307.5 Q665.887 333 684.501 366.5 Q703.114 400 707.534 436 Z " />
<glyph glyph-name="dcaron" unicode="&#x10f;" horiz-adv-x="970" d="M575.436 875 Q665.436 875 741.2 840.5 Q816.964 806 868.659 746.5 Q920.353 687 945.03 607 Q969.707 527 958.657 437 Q947.606 347 903.283 267 Q858.961 187 792.716 128 Q726.472 69 642.236 34.5 Q558 0 468 0 L95 0 L202.436 875 L575.436 875 Z M707.534 436 Q711.954 472 702.129 506 Q692.304 540 671.057 566.5 Q649.811 593 618.714 608.5 Q587.618 624 549.618 624 L447.618 624 Q436.618 624 428.697 616.5 Q420.776 609 419.425 598 L379.889 276 Q378.538 265 384.678 258 Q390.819 251 401.819 251 L503.819 251 Q540.819 251 575.222 266.5 Q609.625 282 637.756 307.5 Q665.887 333 684.501 366.5 Q703.114 400 707.534 436 Z M788.496 1356 L886.744 1244 L554.4 948 L294.744 1244 L420.496 1356 L557.341 1200 Q566.991 1189 583.491 1189 Q599.991 1189 612.341 1200 L699.919 1278 Q716.76 1293 732.479 1307 Q748.198 1321 760.549 1332 Q772.9 1343 780.698 1349.5 Q788.496 1356 788.496 1356 Z " />
<glyph glyph-name="dcroat" unicode="&#x111;" horiz-adv-x="970" d="M34.7645 332 L59.0758 530 L160.076 530 L202.436 875 L575.436 875 Q665.436 875 741.2 840.5 Q816.964 806 868.659 746.5 Q920.353 687 945.03 607 Q969.707 527 958.657 437 Q947.606 347 903.283 267 Q858.961 187 792.716 128 Q726.472 69 642.236 34.5 Q558 0 468 0 L95 0 L135.764 332 L34.7645 332 Z M707.534 436 Q711.954 472 702.129 506 Q692.304 540 671.057 566.5 Q649.811 593 618.714 608.5 Q587.618 624 549.618 624 L447.618 624 Q436.618 624 428.697 616.5 Q420.776 609 419.425 598 L411.076 530 L582.076 530 L557.764 332 L386.764 332 L379.889 276 Q378.538 265 384.678 258 Q390.819 251 401.819 251 L503.819 251 Q540.819 251 575.222 266.5 Q609.625 282 637.756 307.5 Q665.887 333 684.501 366.5 Q703.114 400 707.534 436 Z " />
<glyph glyph-name="e" unicode="e" horiz-adv-x="856" d="M417.969 578 Q416.496 566 423.514 558 Q430.532 550 441.532 550 L858.532 550 L831.642 331 L414.642 331 Q403.642 331 394.659 323 Q385.677 315 384.327 304 L377.205 246 Q375.854 235 382.872 227 Q389.89 219 400.89 219 L817.89 219 L791 0 L95 0 L202.436 875 L898.314 874 L871.301 654 L454.301 654 Q443.301 654 434.257 645.5 Q425.214 637 423.863 626 L417.969 578 Z " />
<glyph glyph-name="eacute" unicode="&#xe9;" horiz-adv-x="856" d="M417.969 578 Q416.496 566 423.514 558 Q430.532 550 441.532 550 L858.532 550 L831.642 331 L414.642 331 Q403.642 331 394.659 323 Q385.677 315 384.327 304 L377.205 246 Q375.854 235 382.872 227 Q389.89 219 400.89 219 L817.89 219 L791 0 L95 0 L202.436 875 L898.314 874 L871.301 654 L454.301 654 Q443.301 654 434.257 645.5 Q425.214 637 423.863 626 L417.969 578 Z M582.521 1006 L393.521 1006 L659.126 1410 L831.024 1287 L582.521 1006 Z " />
<glyph glyph-name="ebreve" unicode="&#x115;" horiz-adv-x="856" d="M417.969 578 Q416.496 566 423.514 558 Q430.532 550 441.532 550 L858.532 550 L831.642 331 L404.642 331 Q394.642 331 390.098 322.5 Q385.554 314 384.327 304 L377.205 246 Q375.854 235 382.872 227 Q389.89 219 400.89 219 L817.89 219 L791 0 L95 0 L202.436 875 Q377.436 875 550.375 874.5 Q723.314 874 898.314 874 L871.301 654 L454.301 654 Q443.301 654 434.257 645.5 Q425.214 637 423.863 626 L417.969 578 Z M652.621 1243 L829.621 1243 Q823.359 1192 798.272 1146.5 Q773.186 1101 735.011 1067 Q696.836 1033 648.942 1013.5 Q601.048 994 550.048 994 Q499.048 994 455.942 1013.5 Q412.836 1033 383.011 1067 Q353.186 1101 339.272 1146.5 Q325.359 1192 331.621 1243 L508.621 1243 Q505.06 1214 523.859 1192 Q542.658 1170 572.658 1170 Q587.658 1170 600.895 1176 Q614.131 1182 625.359 1192 Q636.587 1202 643.745 1215.5 Q650.902 1229 652.621 1243 Z " />
<glyph glyph-name="ecaron" unicode="&#x11b;" horiz-adv-x="856" d="M417.969 578 Q416.496 566 423.514 558 Q430.532 550 441.532 550 L858.532 550 L831.642 331 L414.642 331 Q403.642 331 394.659 323 Q385.677 315 384.327 304 L377.205 246 Q375.854 235 382.872 227 Q389.89 219 400.89 219 L817.89 219 L791 0 L95 0 L202.436 875 L898.314 874 L871.301 654 L454.301 654 Q443.301 654 434.257 645.5 Q425.214 637 423.863 626 L417.969 578 Z M778.496 1356 L876.744 1244 L544.4 948 L284.744 1244 L410.496 1356 L547.341 1200 Q556.991 1189 573.491 1189 Q589.991 1189 602.341 1200 L689.919 1278 Q706.76 1293 722.479 1307 Q738.198 1321 750.549 1332 Q762.9 1343 770.698 1349.5 Q778.496 1356 778.496 1356 Z " />
<glyph glyph-name="ecircumflex" unicode="&#xea;" horiz-adv-x="856" d="M417.969 578 Q416.496 566 423.514 558 Q430.532 550 441.532 550 L858.532 550 L831.642 331 L414.642 331 Q403.642 331 394.659 323 Q385.677 315 384.327 304 L377.205 246 Q375.854 235 382.872 227 Q389.89 219 400.89 219 L817.89 219 L791 0 L95 0 L202.436 875 L898.314 874 L871.301 654 L454.301 654 Q443.301 654 434.257 645.5 Q425.214 637 423.863 626 L417.969 578 Z M727.4 948 L590.554 1104 Q580.905 1115 564.405 1115 Q547.905 1115 535.554 1104 L360.4 948 L262.152 1060 L594.496 1356 L854.152 1060 L728.4 948 L727.4 948 Z " />
<glyph glyph-name="edieresis" unicode="&#xeb;" horiz-adv-x="856" d="M417.969 578 Q416.496 566 423.514 558 Q430.532 550 441.532 550 L858.532 550 L831.642 331 L414.642 331 Q403.642 331 394.659 323 Q385.677 315 384.327 304 L377.205 246 Q375.854 235 382.872 227 Q389.89 219 400.89 219 L817.89 219 L791 0 L95 0 L202.436 875 L898.314 874 L871.301 654 L454.301 654 Q443.301 654 434.257 645.5 Q425.214 637 423.863 626 L417.969 578 Z M894.887 1123 Q891.695 1097 878.932 1074.5 Q866.169 1052 847.143 1035.5 Q828.117 1019 804.39 1009 Q780.662 999 754.662 999 Q728.662 999 707.39 1009 Q686.117 1019 671.643 1035.5 Q657.169 1052 649.932 1074.5 Q642.695 1097 645.887 1123 Q649.079 1149 661.842 1171.5 Q674.605 1194 693.192 1211 Q711.779 1228 735.507 1238 Q759.235 1248 785.235 1248 Q811.235 1248 832.507 1238 Q853.779 1228 868.692 1211 Q883.605 1194 890.842 1171.5 Q898.079 1149 894.887 1123 Z M485.887 1123 Q482.695 1097 469.932 1074.5 Q457.169 1052 438.143 1035.5 Q419.117 1019 395.39 1009 Q371.662 999 345.662 999 Q319.662 999 298.39 1009 Q277.117 1019 262.643 1035.5 Q248.169 1052 240.932 1074.5 Q233.695 1097 236.887 1123 Q240.079 1149 252.842 1171.5 Q265.605 1194 284.192 1211 Q302.779 1228 326.507 1238 Q350.235 1248 376.235 1248 Q402.235 1248 423.507 1238 Q444.779 1228 459.692 1211 Q474.605 1194 481.842 1171.5 Q489.079 1149 485.887 1123 Z " />
<glyph glyph-name="edotaccent" unicode="&#x117;" horiz-adv-x="856" d="M417.969 578 Q416.496 566 423.514 558 Q430.532 550 441.532 550 L858.532 550 L831.642 331 L414.642 331 Q403.642 331 394.659 323 Q385.677 315 384.327 304 L377.205 246 Q375.854 235 382.872 227 Q389.89 219 400.89 219 L817.89 219 L791 0 L95 0 L202.436 875 L898.314 874 L871.301 654 L454.301 654 Q443.301 654 434.257 645.5 Q425.214 637 423.863 626 L417.969 578 Z M686.204 1093 Q683.011 1067 670.248 1044.5 Q657.486 1022 638.46 1005.5 Q619.434 989 595.706 979 Q571.978 969 545.978 969 Q519.978 969 498.706 979 Q477.434 989 462.96 1005.5 Q448.486 1022 441.248 1044.5 Q434.011 1067 437.204 1093 Q440.396 1119 453.159 1141.5 Q465.921 1164 484.509 1181 Q503.096 1198 526.824 1208 Q550.552 1218 576.552 1218 Q602.552 1218 623.824 1208 Q645.096 1198 660.009 1181 Q674.921 1164 682.159 1141.5 Q689.396 1119 686.204 1093 Z " />
<glyph glyph-name="egrave" unicode="&#xe8;" horiz-adv-x="856" d="M417.969 578 Q416.496 566 423.514 558 Q430.532 550 441.532 550 L858.532 550 L831.642 331 L414.642 331 Q403.642 331 394.659 323 Q385.677 315 384.327 304 L377.205 246 Q375.854 235 382.872 227 Q389.89 219 400.89 219 L817.89 219 L791 0 L95 0 L202.436 875 L898.314 874 L871.301 654 L454.301 654 Q443.301 654 434.257 645.5 Q425.214 637 423.863 626 L417.969 578 Z M252.62 1300 L484.055 1442 L666.521 1006 L440.521 1006 L252.62 1300 Z " />
<glyph glyph-name="emacron" unicode="&#x113;" horiz-adv-x="856" d="M417.969 578 Q416.496 566 423.514 558 Q430.532 550 441.532 550 L858.532 550 L831.642 331 L414.642 331 Q403.642 331 394.659 323 Q385.677 315 384.327 304 L377.205 246 Q375.854 235 382.872 227 Q389.89 219 400.89 219 L817.89 219 L791 0 L95 0 L202.436 875 L898.314 874 L871.301 654 L454.301 654 Q443.301 654 434.257 645.5 Q425.214 637 423.863 626 L417.969 578 Z M290.258 1012 L314.569 1210 L837.569 1210 L813.258 1012 L290.258 1012 Z " />
<glyph glyph-name="eogonek" unicode="&#x119;" horiz-adv-x="856" d="M766.075 -203 Q716.672 -247 667.91 -269.5 Q619.147 -292 573.147 -292 Q526.147 -292 487.357 -274 Q448.567 -256 421.873 -225 Q395.18 -194 382.275 -152.5 Q369.371 -111 375.142 -64 Q377.229 -47 380.632 -31.5 Q384.035 -16 391 0 L95 0 L202.436 875 L898.314 874 L871.301 654 L454.301 654 Q443.301 654 434.257 645.5 Q425.214 637 423.863 626 L417.969 578 Q416.496 566 423.514 558 Q430.532 550 441.532 550 L858.532 550 L831.642 331 L414.642 331 Q403.642 331 394.659 323 Q385.677 315 384.327 304 L377.205 246 Q375.854 235 382.872 227 Q389.89 219 400.89 219 L817.89 219 L791 0 L617 0 Q583.754 -2 559.544 -20 Q535.334 -38 532.265 -63 Q529.072 -89 544.862 -107 Q560.652 -125 586.652 -125 Q600.652 -125 617.196 -116.5 Q633.739 -108 650.581 -93 L766.075 -203 Z " />
<glyph glyph-name="aacute" unicode="&#xe1;" horiz-adv-x="986" d="M865.436 875 L926 0 L675 0 L657.521 216 Q656.363 231 643.661 237.5 Q630.959 244 615.959 244 L431.959 244 Q416.959 244 405.425 231.5 Q393.89 219 389.171 205 L321 0 L60 0 L337.436 875 L865.436 875 Z M683.521 1006 L495.521 1006 L761.126 1410 L932.024 1287 L683.521 1006 Z M469.832 471 L644.832 471 L629.371 679 L537.371 679 L469.832 471 Z " />
<glyph glyph-name="abreve" unicode="&#x103;" horiz-adv-x="986" d="M865.436 875 L926 0 L675 0 L657.521 216 Q656.363 231 643.661 237.5 Q630.959 244 615.959 244 L431.959 244 Q416.959 244 405.425 231.5 Q393.89 219 389.171 205 L321 0 L60 0 L337.436 875 L865.436 875 Z M634.658 1170 Q664.658 1170 689.359 1192 Q714.06 1214 717.621 1243 L894.621 1243 Q888.359 1192 863.272 1146.5 Q838.186 1101 800.011 1067 Q761.836 1033 713.942 1013.5 Q666.048 994 614.048 994 Q563.048 994 519.942 1013.5 Q476.836 1033 447.011 1067 Q417.186 1101 403.272 1146.5 Q389.359 1192 395.621 1243 L572.621 1243 Q570.779 1228 574.683 1215 Q578.587 1202 587.359 1192 Q596.131 1182 608.395 1176 Q620.658 1170 634.658 1170 Z M469.832 471 L644.832 471 L629.371 679 L537.371 679 L469.832 471 Z " />
<glyph glyph-name="acircumflex" unicode="&#xe2;" horiz-adv-x="986" d="M865.436 875 L926 0 L675 0 L657.521 216 Q656.363 231 643.661 237.5 Q630.959 244 615.959 244 L431.959 244 Q416.959 244 405.425 231.5 Q393.89 219 389.171 205 L321 0 L60 0 L337.436 875 L865.436 875 Z M791.4 948 L652.923 1107 Q643.273 1118 627.528 1116 Q611.782 1114 599.554 1104 L424.4 948 L326.152 1060 L658.496 1356 L918.152 1060 L792.4 948 L791.4 948 Z M469.832 471 L644.832 471 L629.371 679 L537.371 679 L469.832 471 Z " />
<glyph glyph-name="adieresis" unicode="&#xe4;" horiz-adv-x="986" d="M865.436 875 L926 0 L675 0 L657.521 216 Q656.363 231 643.661 237.5 Q630.959 244 615.959 244 L431.959 244 Q416.959 244 405.425 231.5 Q393.89 219 389.171 205 L321 0 L60 0 L337.436 875 L865.436 875 Z M549.887 1123 Q546.695 1097 533.932 1074.5 Q521.169 1052 502.143 1035.5 Q483.117 1019 459.39 1009 Q435.662 999 409.662 999 Q384.662 999 363.39 1009 Q342.117 1019 327.643 1035.5 Q313.169 1052 305.932 1074.5 Q298.695 1097 301.887 1123 Q305.079 1149 317.842 1171.5 Q330.605 1194 349.192 1211 Q367.779 1228 391.507 1238 Q415.235 1248 440.235 1248 Q466.235 1248 487.507 1238 Q508.779 1228 523.692 1211 Q538.605 1194 545.842 1171.5 Q553.079 1149 549.887 1123 Z M958.887 1123 Q955.695 1097 942.932 1074.5 Q930.169 1052 911.143 1035.5 Q892.117 1019 868.39 1009 Q844.662 999 818.662 999 Q793.662 999 772.39 1009 Q751.117 1019 736.143 1035.5 Q721.169 1052 713.932 1074.5 Q706.695 1097 709.887 1123 Q713.079 1149 725.842 1171.5 Q738.605 1194 757.692 1211 Q776.779 1228 800.507 1238 Q824.235 1248 849.235 1248 Q875.235 1248 896.507 1238 Q917.779 1228 932.692 1211 Q947.605 1194 954.842 1171.5 Q962.079 1149 958.887 1123 Z M469.832 471 L644.832 471 L629.371 679 L537.371 679 L469.832 471 Z " />
<glyph glyph-name="agrave" unicode="&#xe0;" horiz-adv-x="986" d="M865.436 875 L926 0 L675 0 L657.521 216 Q656.363 231 643.661 237.5 Q630.959 244 615.959 244 L431.959 244 Q416.959 244 405.425 231.5 Q393.89 219 389.171 205 L321 0 L60 0 L337.436 875 L865.436 875 Z M335.62 1300 L567.055 1442 L750.521 1006 L523.521 1006 L335.62 1300 Z M469.832 471 L644.832 471 L629.371 679 L537.371 679 L469.832 471 Z " />
<glyph glyph-name="amacron" unicode="&#x101;" horiz-adv-x="986" d="M865.436 875 L926 0 L675 0 L657.521 216 Q656.363 231 643.661 237.5 Q630.959 244 615.959 244 L431.959 244 Q416.959 244 405.425 231.5 Q393.89 219 389.171 205 L321 0 L60 0 L337.436 875 L865.436 875 Z M355.258 1012 L379.569 1210 L902.569 1210 L878.258 1012 L355.258 1012 Z M469.832 471 L644.832 471 L629.371 679 L537.371 679 L469.832 471 Z " />
<glyph glyph-name="aogonek" unicode="&#x105;" horiz-adv-x="986" d="M817.075 -203 Q767.672 -247 718.91 -269.5 Q670.147 -292 624.147 -292 Q577.147 -292 538.357 -274 Q499.567 -256 472.873 -225 Q446.18 -194 433.275 -152.5 Q420.371 -111 426.142 -64 Q431.422 -21 451.149 17.5 Q470.876 56 502.498 85.5 Q534.12 115 574.453 134 Q614.786 153 662.4 158 L658.048 204 Q657.135 221 645.047 232.5 Q632.959 244 615.959 244 L441.959 244 Q424.959 244 410.109 233 Q395.258 222 389.171 205 L321 0 L60 0 L337.436 875 L865.436 875 L926 0 L675 0 Q640 0 612.728 -18.5 Q585.457 -37 582.265 -63 Q579.072 -89 595.362 -107 Q611.652 -125 637.652 -125 Q650.652 -125 667.196 -116.5 Q683.739 -108 701.581 -93 L817.075 -203 Z M469.832 471 L644.832 471 L629.371 679 L537.371 679 L469.832 471 Z " />
<glyph glyph-name="aring" unicode="&#xe5;" horiz-adv-x="986" d="M865.436 875 L926 0 L675 0 L657.521 216 Q656.363 231 643.661 237.5 Q630.959 244 615.959 244 L431.959 244 Q416.959 244 405.425 231.5 Q393.89 219 389.171 205 L321 0 L60 0 L337.436 875 L865.436 875 Z M655.058 1328 Q692.058 1328 723.339 1314 Q754.62 1300 775.673 1276 Q796.726 1252 806.736 1219.5 Q816.745 1187 812.202 1150 Q807.536 1112 789.546 1079.5 Q771.555 1047 744.609 1023 Q717.662 999 682.943 985 Q648.224 971 611.224 971 Q574.224 971 543.443 985 Q512.662 999 491.609 1023 Q470.555 1047 460.546 1079.5 Q450.536 1112 455.202 1150 Q459.745 1187 477.736 1219.5 Q495.726 1252 522.673 1276 Q549.62 1300 583.839 1314 Q618.058 1328 655.058 1328 Z M469.832 471 L644.832 471 L629.371 679 L537.371 679 L469.832 471 Z M625.467 1087 Q651.467 1087 671.738 1105.5 Q692.01 1124 695.202 1150 Q698.272 1175 682.482 1193 Q666.692 1211 640.692 1211 Q615.692 1211 594.982 1193 Q574.272 1175 571.202 1150 Q568.01 1124 584.238 1105.5 Q600.467 1087 625.467 1087 Z " />
<glyph glyph-name="atilde" unicode="&#xe3;" horiz-adv-x="986" d="M865.436 875 L926 0 L675 0 L657.521 216 Q656.363 231 643.661 237.5 Q630.959 244 615.959 244 L431.959 244 Q416.959 244 405.425 231.5 Q393.89 219 389.171 205 L321 0 L60 0 L337.436 875 L865.436 875 Z M387.324 1208 Q423.376 1241 456.103 1251 Q488.831 1261 520.34 1257 Q551.849 1253 581.569 1238.5 Q611.288 1224 641.201 1207 Q671.114 1190 700.833 1175.5 Q730.553 1161 762.062 1157 Q793.571 1153 826.298 1163 Q859.026 1173 895.078 1206 L869.907 1001 Q833.855 968 801.128 958 Q768.4 948 736.891 952 Q705.382 956 675.662 970.5 Q645.943 985 616.03 1002 Q586.117 1019 556.398 1033.5 Q526.678 1048 495.169 1052 Q463.66 1056 430.933 1046 Q398.205 1036 362.153 1003 L387.324 1208 Z M469.832 471 L644.832 471 L629.371 679 L537.371 679 L469.832 471 Z " />
<glyph glyph-name="h" unicode="h" horiz-adv-x="1022" d="M755.969 578 L792.436 875 L1034.44 875 L927 0 L685 0 L722.204 303 Q723.554 314 716.598 322.5 Q709.642 331 698.642 331 L404.642 331 Q393.642 331 384.598 322.5 Q375.554 314 374.204 303 L337 0 L95 0 L202.436 875 L444.436 875 L407.969 578 Q406.619 567 413.575 558.5 Q420.532 550 431.532 550 L725.532 550 Q736.532 550 745.575 558.5 Q754.619 567 755.969 578 Z " />
<glyph glyph-name="hbar" unicode="&#x127;" horiz-adv-x="1022" d="M113.811 593 L140.701 812 L194.701 812 L202.436 875 L444.436 875 L436.701 812 L784.701 812 L792.436 875 L1034.44 875 L1026.7 812 L1080.7 812 L1053.81 593 L999.811 593 L927 0 L685 0 L722.204 303 Q723.554 314 716.598 322.5 Q709.642 331 698.642 331 L404.642 331 Q393.642 331 384.598 322.5 Q375.554 314 374.204 303 L337 0 L95 0 L167.811 593 L113.811 593 Z M755.969 578 L757.811 593 L409.811 593 L407.969 578 Q406.619 567 413.575 558.5 Q420.532 550 431.532 550 L725.532 550 Q736.532 550 745.575 558.5 Q754.619 567 755.969 578 Z " />
<glyph glyph-name="hcircumflex" unicode="&#x125;" horiz-adv-x="1022" d="M755.969 578 L792.436 875 L1034.44 875 L927 0 L685 0 L722.204 303 Q723.554 314 716.598 322.5 Q709.642 331 698.642 331 L404.642 331 Q393.642 331 384.598 322.5 Q375.554 314 374.204 303 L337 0 L95 0 L202.436 875 L444.436 875 L407.969 578 Q406.619 567 413.575 558.5 Q420.532 550 431.532 550 L725.532 550 Q736.532 550 745.575 558.5 Q754.619 567 755.969 578 Z M810.4 948 L673.554 1104 Q663.905 1115 647.405 1115 Q630.905 1115 618.554 1104 L443.4 948 L345.152 1060 L677.496 1356 L937.152 1060 L811.4 948 L810.4 948 Z " />
<glyph glyph-name="i" unicode="i" horiz-adv-x="502" d="M130 0 L237.436 875 L479.436 875 L372 0 L130 0 Z " />
<glyph glyph-name="iacute" unicode="&#xed;" horiz-adv-x="502" d="M130 0 L237.436 875 L479.436 875 L372 0 L130 0 Z M494.521 1006 L305.521 1006 L571.126 1410 L743.024 1287 L494.521 1006 Z " />
<glyph glyph-name="ibreve" unicode="&#x12d;" horiz-adv-x="502" d="M130 0 L237.436 875 L479.436 875 L372 0 L130 0 Z M393.658 1170 Q422.658 1170 447.359 1192 Q472.06 1214 475.621 1243 L652.621 1243 Q646.359 1192 621.272 1146.5 Q596.186 1101 558.011 1067 Q519.836 1033 471.942 1013.5 Q424.048 994 373.048 994 Q322.048 994 278.942 1013.5 Q235.836 1033 206.011 1067 Q176.186 1101 162.272 1146.5 Q148.359 1192 154.621 1243 L331.621 1243 Q328.06 1214 346.421 1192.5 Q364.781 1171 393.658 1170 Z " />
<glyph glyph-name="icircumflex" unicode="&#xee;" horiz-adv-x="502" d="M130 0 L237.436 875 L479.436 875 L372 0 L130 0 Z M550.4 948 L413.554 1104 Q403.905 1115 387.405 1115 Q370.905 1115 358.554 1104 L183.4 948 L85.1516 1060 L417.496 1356 L677.152 1060 L551.4 948 L550.4 948 Z " />
<glyph glyph-name="idieresis" unicode="&#xef;" horiz-adv-x="502" d="M130 0 L237.436 875 L479.436 875 L372 0 L130 0 Z M308.887 1123 Q305.695 1097 292.932 1074.5 Q280.169 1052 261.143 1035.5 Q242.117 1019 218.39 1009 Q194.662 999 168.662 999 Q142.662 999 121.39 1009 Q100.117 1019 85.6434 1035.5 Q71.1694 1052 63.932 1074.5 Q56.6947 1097 59.8871 1123 Q63.0795 1149 75.8421 1171.5 Q88.6048 1194 107.192 1211 Q125.779 1228 149.507 1238 Q173.235 1248 199.235 1248 Q225.235 1248 246.507 1238 Q267.779 1228 282.692 1211 Q297.605 1194 304.842 1171.5 Q312.079 1149 308.887 1123 Z M717.887 1123 Q714.695 1097 701.932 1074.5 Q689.169 1052 670.143 1035.5 Q651.117 1019 627.39 1009 Q603.662 999 577.662 999 Q551.662 999 530.39 1009 Q509.117 1019 494.643 1035.5 Q480.169 1052 472.932 1074.5 Q465.695 1097 468.887 1123 Q472.079 1149 484.842 1171.5 Q497.605 1194 516.192 1211 Q534.779 1228 558.507 1238 Q582.235 1248 608.235 1248 Q634.235 1248 655.507 1238 Q676.779 1228 691.692 1211 Q706.605 1194 713.842 1171.5 Q721.079 1149 717.887 1123 Z " />
<glyph glyph-name="igrave" unicode="&#xec;" horiz-adv-x="502" d="M130 0 L237.436 875 L479.436 875 L372 0 L130 0 Z M509.204 1093 Q506.011 1067 493.248 1044.5 Q480.486 1022 461.46 1005.5 Q442.434 989 418.706 979 Q394.978 969 368.978 969 Q342.978 969 321.706 979 Q300.434 989 285.96 1005.5 Q271.486 1022 264.248 1044.5 Q257.011 1067 260.204 1093 Q263.396 1119 276.159 1141.5 Q288.921 1164 307.509 1181 Q326.096 1198 349.824 1208 Q373.552 1218 399.552 1218 Q425.552 1218 446.824 1208 Q468.096 1198 483.009 1181 Q497.921 1164 505.159 1141.5 Q512.396 1119 509.204 1093 Z " />
<glyph glyph-name="imacron" unicode="&#x12b;" horiz-adv-x="502" d="M130 0 L237.436 875 L479.436 875 L372 0 L130 0 Z M53.6199 1300 L285.055 1442 L467.521 1006 L241.521 1006 L53.6199 1300 Z " />
<glyph glyph-name="iogonek" unicode="&#x12f;" horiz-adv-x="502" d="M130 0 L237.436 875 L479.436 875 L372 0 L130 0 Z M114.258 1012 L138.569 1210 L661.569 1210 L637.258 1012 L114.258 1012 Z " />
<glyph glyph-name="itilde" unicode="&#x129;" horiz-adv-x="502" d="M343.075 -203 Q293.672 -247 244.91 -269.5 Q196.147 -292 150.147 -292 Q103.147 -292 64.357 -274 Q25.5672 -256 -1.12653 -225 Q-27.8202 -194 -40.7246 -152.5 Q-53.6291 -111 -47.8582 -64 Q-43.1924 -26 -26.9563 8.5 Q-10.7203 43 15.2791 71.5 Q41.2785 100 74.7955 120.5 Q108.313 141 148.54 151 L237.436 875 L479.436 875 L372 0 L194 0 Q160.754 -2 136.544 -20 Q112.334 -38 109.265 -63 Q106.072 -89 122.362 -107 Q138.652 -125 164.652 -125 Q177.652 -125 194.196 -116.5 Q210.739 -108 227.581 -93 L343.075 -203 Z " />
<glyph glyph-name="ij" unicode="&#x133;" horiz-adv-x="502" d="M130 0 L237.436 875 L479.436 875 L372 0 L130 0 Z M145.324 1208 Q181.376 1241 214.603 1251 Q247.831 1261 278.84 1257 Q309.849 1253 340.069 1238.5 Q370.288 1224 399.701 1207 Q429.114 1190 459.333 1175.5 Q489.553 1161 520.562 1157 Q551.571 1153 584.798 1163 Q618.026 1173 654.078 1206 L628.907 1001 Q592.855 968 559.628 958 Q526.4 948 495.391 952 Q464.382 956 434.162 970.5 Q403.943 985 374.53 1002 Q345.117 1019 314.898 1033.5 Q284.678 1048 253.669 1052 Q222.66 1056 189.433 1046 Q156.205 1036 120.153 1003 L145.324 1208 Z " />
<glyph glyph-name="j" unicode="j" horiz-adv-x="728" d="M429.834 357 L493.314 874 L745.314 874 L681.343 353 Q672.38 280 636.96 215.5 Q601.54 151 547.647 103 Q493.753 55 425.877 27.5 Q358 0 285 0 Q211 0 150.377 27.5 Q89.7532 55 47.6468 103 L237.52 273 Q249.801 259 268.371 255.5 Q286.942 252 308.942 252 Q330.942 252 351.485 260.5 Q372.029 269 388.748 283 Q405.467 297 416.361 316.5 Q427.256 336 429.834 357 Z " />
<glyph glyph-name="jcircumflex" unicode="&#x135;" horiz-adv-x="728" d="M429.834 357 L493.314 874 L745.314 874 L681.343 353 Q672.38 280 636.96 215.5 Q601.54 151 547.647 103 Q493.753 55 425.877 27.5 Q358 0 285 0 Q211 0 150.377 27.5 Q89.7532 55 47.6468 103 L237.52 273 Q249.801 259 268.371 255.5 Q286.942 252 308.942 252 Q330.942 252 351.485 260.5 Q372.029 269 388.748 283 Q405.467 297 416.361 316.5 Q427.256 336 429.834 357 Z M815.4 948 L675.923 1107 Q666.273 1118 650.528 1116 Q634.782 1114 623.554 1104 L448.4 948 L350.152 1060 L682.496 1356 L942.152 1060 L816.4 948 L815.4 948 Z " />
<glyph glyph-name="k" unicode="k" horiz-adv-x="1052" d="M1119.44 875 L679.78 438 L1012 0 L716 0 L473.923 317 Q464.642 331 446.642 331 L404.642 331 Q393.642 331 384.598 322.5 Q375.554 314 374.204 303 L337 0 L95 0 L202.436 875 L444.436 875 L407.969 578 Q406.619 567 413.575 558.5 Q420.532 550 431.532 550 L478.532 550 Q496.532 550 510.25 564 L822.436 875 L1119.44 875 Z " />
<glyph glyph-name="kcommaaccent" unicode="&#x137;" horiz-adv-x="1052" d="M1119.44 875 L679.78 438 L1012 0 L716 0 L473.923 317 Q464.642 331 446.642 331 L404.642 331 Q393.642 331 384.598 322.5 Q375.554 314 374.204 303 L337 0 L95 0 L202.436 875 L444.436 875 L407.969 578 Q406.619 567 413.575 558.5 Q420.532 550 431.532 550 L478.532 550 Q496.532 550 510.25 564 L822.436 875 L1119.44 875 Z M406.565 -142 L609.565 -142 L553.062 -423 L372.062 -423 L406.565 -142 Z " />
<glyph glyph-name="l" unicode="l" horiz-adv-x="830" d="M454.436 875 L379.17 262 Q376.714 242 386.302 230.5 Q395.89 219 415.89 219 L821.89 219 L795 0 L95 0 L202.436 875 L454.436 875 Z " />
<glyph glyph-name="lacute" unicode="&#x13a;" horiz-adv-x="830" d="M454.436 875 L379.17 262 Q376.714 242 386.302 230.5 Q395.89 219 415.89 219 L821.89 219 L795 0 L95 0 L202.436 875 L454.436 875 Z M471.521 1006 L283.521 1006 L549.126 1410 L720.024 1287 L471.521 1006 Z " />
<glyph glyph-name="lcaron" unicode="&#x13e;" horiz-adv-x="830" d="M454.436 875 L379.17 262 Q376.714 242 386.302 230.5 Q395.89 219 415.89 219 L821.89 219 L795 0 L95 0 L202.436 875 L454.436 875 Z M692.509 786 L895.509 786 L839.006 505 L658.006 505 L692.509 786 Z " />
<glyph glyph-name="lcommaaccent" unicode="&#x13c;" horiz-adv-x="830" d="M454.436 875 L379.17 262 Q376.714 242 386.302 230.5 Q395.89 219 415.89 219 L821.89 219 L795 0 L95 0 L202.436 875 L454.436 875 Z M230.565 -142 L433.565 -142 L377.062 -423 L196.062 -423 L230.565 -142 Z " />
<glyph glyph-name="ldot" unicode="&#x140;" horiz-adv-x="830" d="M454.436 875 L379.17 262 Q376.714 242 386.302 230.5 Q395.89 219 415.89 219 L821.89 219 L795 0 L95 0 L202.436 875 L454.436 875 Z M724.62 510 Q721.428 484 708.665 461.5 Q695.902 439 676.876 422.5 Q657.851 406 634.123 396 Q610.395 386 584.395 386 Q558.395 386 537.123 396 Q515.851 406 501.376 422.5 Q486.902 439 479.665 461.5 Q472.428 484 475.62 510 Q478.813 536 491.575 558.5 Q504.338 581 522.925 598 Q541.513 615 565.24 625 Q588.968 635 614.968 635 Q640.968 635 662.24 625 Q683.513 615 698.425 598 Q713.338 581 720.575 558.5 Q727.813 536 724.62 510 Z " />
<glyph glyph-name="lslash" unicode="&#x142;" horiz-adv-x="830" d="M70.6417 331 L97.5315 550 L162.532 550 L202.436 875 L454.436 875 L414.532 550 L573.532 550 L546.642 331 L387.642 331 L379.17 262 Q376.714 242 386.302 230.5 Q395.89 219 415.89 219 L821.89 219 L795 0 L95 0 L135.642 331 L70.6417 331 Z " />
<glyph glyph-name="n" unicode="n" horiz-adv-x="1079" d="M777.43 370 L839.436 875 L1091.44 875 L984 0 L739 0 L410.866 512 L348 0 L95 0 L202.436 875 L448.436 875 L777.43 370 Z " />
<glyph glyph-name="nacute" unicode="&#x144;" horiz-adv-x="1079" d="M777.43 370 L839.436 875 L1091.44 875 L984 0 L739 0 L410.866 512 L348 0 L95 0 L202.436 875 L448.436 875 L777.43 370 Z M730.521 1006 L541.521 1006 L807.126 1410 L979.024 1287 L730.521 1006 Z " />
<glyph glyph-name="ntilde" unicode="&#xf1;" horiz-adv-x="1079" d="M777.43 370 L839.436 875 L1091.44 875 L984 0 L739 0 L410.866 512 L348 0 L95 0 L202.436 875 L448.436 875 L777.43 370 Z M433.324 1208 Q469.376 1241 502.603 1251 Q535.831 1261 566.84 1257 Q597.849 1253 628.069 1238.5 Q658.288 1224 687.701 1207 Q717.114 1190 747.333 1175.5 Q777.553 1161 808.562 1157 Q839.571 1153 872.798 1163 Q906.026 1173 942.078 1206 L916.907 1001 Q880.855 968 847.628 958 Q814.4 948 783.391 952 Q752.382 956 722.162 970.5 Q691.943 985 662.53 1002 Q633.117 1019 602.898 1033.5 Q572.678 1048 541.669 1052 Q510.66 1056 477.433 1046 Q444.205 1036 408.153 1003 L433.324 1208 Z " />
<glyph glyph-name="ncommaaccent" unicode="&#x146;" horiz-adv-x="1079" d="M777.43 370 L839.436 875 L1091.44 875 L984 0 L739 0 L410.866 512 L348 0 L95 0 L202.436 875 L448.436 875 L777.43 370 Z M420.565 -142 L623.565 -142 L567.062 -423 L386.062 -423 L420.565 -142 Z " />
<glyph glyph-name="ncaron" unicode="&#x148;" horiz-adv-x="1079" d="M777.43 370 L839.436 875 L1091.44 875 L984 0 L739 0 L410.866 512 L348 0 L95 0 L202.436 875 L448.436 875 L777.43 370 Z M889.496 1356 L987.744 1244 L655.4 948 L395.744 1244 L521.496 1356 L658.341 1200 Q667.991 1189 684.491 1189 Q700.991 1189 713.341 1200 L800.919 1278 Q817.76 1293 833.479 1307 Q849.198 1321 861.549 1332 Q873.9 1343 881.698 1349.5 Q889.496 1356 889.496 1356 Z " />
<glyph glyph-name="napostrophe" unicode="&#x149;" horiz-adv-x="1079" d="M777.43 370 L839.436 875 L1091.44 875 L984 0 L739 0 L410.866 512 L348 0 L95 0 L202.436 875 L448.436 875 L777.43 370 Z M77.5646 -142 L280.565 -142 L224.062 -423 L43.0621 -423 L77.5646 -142 Z " />
<glyph glyph-name="o" unicode="o" horiz-adv-x="994" d="M527.696 250 Q566.696 250 602.477 264.5 Q638.257 279 666.888 304.5 Q695.519 330 714.194 364 Q732.868 398 737.657 437 Q742.445 476 732.059 509.5 Q721.672 543 699.303 568.5 Q676.934 594 644.714 608.5 Q612.495 623 573.495 623 Q534.495 623 499.214 608.5 Q463.934 594 435.303 568.5 Q406.672 543 388.059 509.5 Q369.445 476 364.657 437 Q359.868 398 370.194 364 Q380.519 330 402.888 304.5 Q425.257 279 456.977 264.5 Q488.696 250 527.696 250 Z M604.314 874 Q695.314 874 770.578 839.5 Q845.842 805 897.597 746 Q949.353 687 974.03 607 Q998.707 527 987.657 437 Q976.483 346 932.222 266.5 Q887.961 187 821.655 127.5 Q755.349 68 671.675 34 Q588 0 497 0 Q407 0 331.175 34 Q255.349 68 203.655 127.5 Q151.961 187 127.222 266.5 Q102.483 346 113.657 437 Q124.707 527 169.03 607 Q213.353 687 279.597 746 Q345.842 805 430.078 839.5 Q514.314 874 604.314 874 Z " />
<glyph glyph-name="oacute" unicode="&#xf3;" horiz-adv-x="994" d="M527.696 250 Q566.696 250 602.477 264.5 Q638.257 279 666.888 304.5 Q695.519 330 714.194 364 Q732.868 398 737.657 437 Q742.445 476 732.059 509.5 Q721.672 543 699.303 568.5 Q676.934 594 644.714 608.5 Q612.495 623 573.495 623 Q534.495 623 499.214 608.5 Q463.934 594 435.303 568.5 Q406.672 543 388.059 509.5 Q369.445 476 364.657 437 Q359.868 398 370.194 364 Q380.519 330 402.888 304.5 Q425.257 279 456.977 264.5 Q488.696 250 527.696 250 Z M604.314 874 Q695.314 874 770.578 839.5 Q845.842 805 897.597 746 Q949.353 687 974.03 607 Q998.707 527 987.657 437 Q976.483 346 932.222 266.5 Q887.961 187 821.655 127.5 Q755.349 68 671.675 34 Q588 0 497 0 Q407 0 331.175 34 Q255.349 68 203.655 127.5 Q151.961 187 127.222 266.5 Q102.483 346 113.657 437 Q124.707 527 169.03 607 Q213.353 687 279.597 746 Q345.842 805 430.078 839.5 Q514.314 874 604.314 874 Z M687.521 1006 L498.521 1006 L764.126 1410 L936.024 1287 L687.521 1006 Z " />
<glyph glyph-name="obreve" unicode="&#x14f;" horiz-adv-x="994" d="M604.314 874 Q695.314 874 770.578 839.5 Q845.842 805 897.597 746 Q949.353 687 974.03 607 Q998.707 527 987.657 437 Q976.483 346 932.222 266.5 Q887.961 187 821.655 127.5 Q755.349 68 671.675 34 Q588 0 497 0 Q407 0 331.175 34 Q255.349 68 203.655 127.5 Q151.961 187 127.222 266.5 Q102.483 346 113.657 437 Q124.707 527 169.03 607 Q213.353 687 279.597 746 Q345.842 805 430.078 839.5 Q514.314 874 604.314 874 Z M527.696 250 Q566.696 250 602.477 264.5 Q638.257 279 666.888 304.5 Q695.519 330 714.194 364 Q732.868 398 737.657 437 Q742.445 476 732.059 509.5 Q721.672 543 699.303 568.5 Q676.934 594 644.714 608.5 Q612.495 623 573.495 623 Q534.495 623 499.214 608.5 Q463.934 594 435.303 568.5 Q406.672 543 388.059 509.5 Q369.445 476 364.657 437 Q359.868 398 370.194 364 Q380.519 330 402.888 304.5 Q425.257 279 456.977 264.5 Q488.696 250 527.696 250 Z M721.621 1243 L898.621 1243 Q892.359 1192 867.272 1146.5 Q842.186 1101 804.011 1067 Q765.836 1033 717.942 1013.5 Q670.048 994 619.048 994 Q568.048 994 524.942 1013.5 Q481.836 1033 452.011 1067 Q422.186 1101 408.272 1146.5 Q394.359 1192 400.621 1243 L577.621 1243 Q574.06 1214 592.859 1192 Q611.658 1170 641.658 1170 Q670.781 1171 694.421 1192.5 Q718.06 1214 721.621 1243 Z " />
<glyph glyph-name="ocircumflex" unicode="&#xf4;" horiz-adv-x="994" d="M604.314 874 Q695.314 874 770.578 839.5 Q845.842 805 897.597 746 Q949.353 687 974.03 607 Q998.707 527 987.657 437 Q976.483 346 932.222 266.5 Q887.961 187 821.655 127.5 Q755.349 68 671.675 34 Q588 0 497 0 Q407 0 331.175 34 Q255.349 68 203.655 127.5 Q151.961 187 127.222 266.5 Q102.483 346 113.657 437 Q124.707 527 169.03 607 Q213.353 687 279.597 746 Q345.842 805 430.078 839.5 Q514.314 874 604.314 874 Z M527.696 250 Q566.696 250 602.477 264.5 Q638.257 279 666.888 304.5 Q695.519 330 714.194 364 Q732.868 398 737.657 437 Q742.445 476 732.059 509.5 Q721.672 543 699.303 568.5 Q676.934 594 644.714 608.5 Q612.495 623 573.495 623 Q534.495 623 499.214 608.5 Q463.934 594 435.303 568.5 Q406.672 543 388.059 509.5 Q369.445 476 364.657 437 Q359.868 398 370.194 364 Q380.519 330 402.888 304.5 Q425.257 279 456.977 264.5 Q488.696 250 527.696 250 Z M796.4 948 L659.554 1104 Q649.905 1115 633.405 1115 Q616.905 1115 604.554 1104 L429.4 948 L331.152 1060 L663.496 1356 L923.152 1060 L797.4 948 L796.4 948 Z " />
<glyph glyph-name="odieresis" unicode="&#xf6;" horiz-adv-x="994" d="M527.696 250 Q566.696 250 602.477 264.5 Q638.257 279 666.888 304.5 Q695.519 330 714.194 364 Q732.868 398 737.657 437 Q742.445 476 732.059 509.5 Q721.672 543 699.303 568.5 Q676.934 594 644.714 608.5 Q612.495 623 573.495 623 Q534.495 623 499.214 608.5 Q463.934 594 435.303 568.5 Q406.672 543 388.059 509.5 Q369.445 476 364.657 437 Q359.868 398 370.194 364 Q380.519 330 402.888 304.5 Q425.257 279 456.977 264.5 Q488.696 250 527.696 250 Z M604.314 874 Q695.314 874 770.578 839.5 Q845.842 805 897.597 746 Q949.353 687 974.03 607 Q998.707 527 987.657 437 Q976.483 346 932.222 266.5 Q887.961 187 821.655 127.5 Q755.349 68 671.675 34 Q588 0 497 0 Q407 0 331.175 34 Q255.349 68 203.655 127.5 Q151.961 187 127.222 266.5 Q102.483 346 113.657 437 Q124.707 527 169.03 607 Q213.353 687 279.597 746 Q345.842 805 430.078 839.5 Q514.314 874 604.314 874 Z M963.887 1123 Q960.695 1097 947.932 1074.5 Q935.169 1052 916.143 1035.5 Q897.117 1019 873.39 1009 Q849.662 999 823.662 999 Q797.662 999 776.39 1009 Q755.117 1019 740.643 1035.5 Q726.169 1052 718.932 1074.5 Q711.695 1097 714.887 1123 Q718.079 1149 730.842 1171.5 Q743.605 1194 762.192 1211 Q780.779 1228 804.507 1238 Q828.235 1248 854.235 1248 Q880.235 1248 901.507 1238 Q922.779 1228 937.692 1211 Q952.605 1194 959.842 1171.5 Q967.079 1149 963.887 1123 Z M554.887 1123 Q551.695 1097 538.932 1074.5 Q526.169 1052 507.143 1035.5 Q488.117 1019 464.39 1009 Q440.662 999 414.662 999 Q388.662 999 367.39 1009 Q346.117 1019 331.643 1035.5 Q317.169 1052 309.932 1074.5 Q302.695 1097 305.887 1123 Q309.079 1149 321.842 1171.5 Q334.605 1194 353.192 1211 Q371.779 1228 395.507 1238 Q419.235 1248 445.235 1248 Q471.235 1248 492.507 1238 Q513.779 1228 528.692 1211 Q543.605 1194 550.842 1171.5 Q558.079 1149 554.887 1123 Z " />
<glyph glyph-name="ograve" unicode="&#xf2;" horiz-adv-x="994" d="M527.696 250 Q566.696 250 602.477 264.5 Q638.257 279 666.888 304.5 Q695.519 330 714.194 364 Q732.868 398 737.657 437 Q742.445 476 732.059 509.5 Q721.672 543 699.303 568.5 Q676.934 594 644.714 608.5 Q612.495 623 573.495 623 Q534.495 623 499.214 608.5 Q463.934 594 435.303 568.5 Q406.672 543 388.059 509.5 Q369.445 476 364.657 437 Q359.868 398 370.194 364 Q380.519 330 402.888 304.5 Q425.257 279 456.977 264.5 Q488.696 250 527.696 250 Z M604.314 874 Q695.314 874 770.578 839.5 Q845.842 805 897.597 746 Q949.353 687 974.03 607 Q998.707 527 987.657 437 Q976.483 346 932.222 266.5 Q887.961 187 821.655 127.5 Q755.349 68 671.675 34 Q588 0 497 0 Q407 0 331.175 34 Q255.349 68 203.655 127.5 Q151.961 187 127.222 266.5 Q102.483 346 113.657 437 Q124.707 527 169.03 607 Q213.353 687 279.597 746 Q345.842 805 430.078 839.5 Q514.314 874 604.314 874 Z M351.62 1300 L583.055 1442 L765.521 1006 L539.521 1006 L351.62 1300 Z " />
<glyph glyph-name="ohungarumlaut" unicode="&#x151;" horiz-adv-x="994" d="M527.696 250 Q566.696 250 602.477 264.5 Q638.257 279 666.888 304.5 Q695.519 330 714.194 364 Q732.868 398 737.657 437 Q742.445 476 732.059 509.5 Q721.672 543 699.303 568.5 Q676.934 594 644.714 608.5 Q612.495 623 573.495 623 Q534.495 623 499.214 608.5 Q463.934 594 435.303 568.5 Q406.672 543 388.059 509.5 Q369.445 476 364.657 437 Q359.868 398 370.194 364 Q380.519 330 402.888 304.5 Q425.257 279 456.977 264.5 Q488.696 250 527.696 250 Z M604.314 874 Q695.314 874 770.578 839.5 Q845.842 805 897.597 746 Q949.353 687 974.03 607 Q998.707 527 987.657 437 Q976.483 346 932.222 266.5 Q887.961 187 821.655 127.5 Q755.349 68 671.675 34 Q588 0 497 0 Q407 0 331.175 34 Q255.349 68 203.655 127.5 Q151.961 187 127.222 266.5 Q102.483 346 113.657 437 Q124.707 527 169.03 607 Q213.353 687 279.597 746 Q345.842 805 430.078 839.5 Q514.314 874 604.314 874 Z M530.521 1006 L341.521 1006 L607.126 1410 L779.024 1287 L530.521 1006 Z M845.521 1006 L656.521 1006 L922.126 1410 L1094.02 1287 L845.521 1006 Z " />
<glyph glyph-name="omacron" unicode="&#x14d;" horiz-adv-x="994" d="M604.314 874 Q695.314 874 770.578 839.5 Q845.842 805 897.597 746 Q949.353 687 974.03 607 Q998.707 527 987.657 437 Q976.483 346 932.222 266.5 Q887.961 187 821.655 127.5 Q755.349 68 671.675 34 Q588 0 497 0 Q407 0 331.175 34 Q255.349 68 203.655 127.5 Q151.961 187 127.222 266.5 Q102.483 346 113.657 437 Q124.707 527 169.03 607 Q213.353 687 279.597 746 Q345.842 805 430.078 839.5 Q514.314 874 604.314 874 Z M527.696 250 Q566.696 250 602.477 264.5 Q638.257 279 666.888 304.5 Q695.519 330 714.194 364 Q732.868 398 737.657 437 Q742.445 476 732.059 509.5 Q721.672 543 699.303 568.5 Q676.934 594 644.714 608.5 Q612.495 623 573.495 623 Q534.495 623 499.214 608.5 Q463.934 594 435.303 568.5 Q406.672 543 388.059 509.5 Q369.445 476 364.657 437 Q359.868 398 370.194 364 Q380.519 330 402.888 304.5 Q425.257 279 456.977 264.5 Q488.696 250 527.696 250 Z M359.258 1012 L383.569 1210 L906.569 1210 L882.258 1012 L359.258 1012 Z " />
<glyph glyph-name="oslash" unicode="&#xf8;" horiz-adv-x="994" d="M195.667 -19 L249.191 83 Q211.875 113 183.602 151.5 Q155.329 190 137.854 235 Q120.38 280 113.642 331 Q106.904 382 113.657 437 Q124.707 527 169.03 607 Q213.353 687 279.597 746 Q345.842 805 430.078 839.5 Q514.314 874 604.314 874 Q621.314 874 636.691 873 Q652.068 872 667.7 869 L726.452 981 L891.716 918 L831.719 804 Q873.158 775 905.869 736 Q938.581 697 958.749 649.5 Q978.916 602 986.847 548.5 Q994.778 495 987.657 437 Q976.483 346 932.222 266.5 Q887.961 187 821.655 127.5 Q755.349 68 671.675 34 Q588 0 497 0 Q474 0 452.246 2 Q430.491 4 408.982 8 L360.932 -82 L195.667 -19 Z M527.696 250 Q566.696 250 602.477 264.5 Q638.257 279 666.888 304.5 Q695.519 330 714.194 364 Q732.868 398 737.657 437 Q742.2 474 733.19 506.5 Q724.181 539 704.373 565 L536.451 248 Q530.696 250 527.696 250 Z M364.657 437 Q357.413 378 380.396 329 L535.495 623 Q508.758 617 481.039 603 Q433.847 577 402.567 534 Q371.287 491 364.657 437 Z " />
<glyph glyph-name="oslashacute" unicode="&#x1ff;" horiz-adv-x="994" d="M195.667 -19 L249.191 83 Q211.875 113 183.602 151.5 Q155.329 190 137.854 235 Q120.38 280 113.642 331 Q106.904 382 113.657 437 Q124.707 527 169.03 607 Q213.353 687 279.597 746 Q345.842 805 430.078 839.5 Q514.314 874 604.314 874 Q621.314 874 636.691 873 Q652.068 872 667.7 869 L726.452 981 L891.716 918 L831.719 804 Q873.158 775 905.869 736 Q938.581 697 958.749 649.5 Q978.916 602 986.847 548.5 Q994.778 495 987.657 437 Q976.483 346 932.222 266.5 Q887.961 187 821.655 127.5 Q755.349 68 671.675 34 Q588 0 497 0 Q474 0 452.246 2 Q430.491 4 408.982 8 L360.932 -82 L195.667 -19 Z M607.521 1006 L418.521 1006 L684.126 1410 L856.024 1287 L607.521 1006 Z M527.696 250 Q566.696 250 602.477 264.5 Q638.257 279 666.888 304.5 Q695.519 330 714.194 364 Q732.868 398 737.657 437 Q742.2 474 733.19 506.5 Q724.181 539 704.373 565 L536.451 248 Q530.696 250 527.696 250 Z M364.657 437 Q357.413 378 380.396 329 L535.495 623 Q508.758 617 481.039 603 Q433.847 577 402.567 534 Q371.287 491 364.657 437 Z " />
<glyph glyph-name="otilde" unicode="&#xf5;" horiz-adv-x="994" d="M604.314 874 Q695.314 874 770.578 839.5 Q845.842 805 897.597 746 Q949.353 687 974.03 607 Q998.707 527 987.657 437 Q976.483 346 932.222 266.5 Q887.961 187 821.655 127.5 Q755.349 68 671.675 34 Q588 0 497 0 Q407 0 331.175 34 Q255.349 68 203.655 127.5 Q151.961 187 127.222 266.5 Q102.483 346 113.657 437 Q124.707 527 169.03 607 Q213.353 687 279.597 746 Q345.842 805 430.078 839.5 Q514.314 874 604.314 874 Z M527.696 250 Q566.696 250 602.477 264.5 Q638.257 279 666.888 304.5 Q695.519 330 714.194 364 Q732.868 398 737.657 437 Q742.445 476 732.059 509.5 Q721.672 543 699.303 568.5 Q676.934 594 644.714 608.5 Q612.495 623 573.495 623 Q534.495 623 499.214 608.5 Q463.934 594 435.303 568.5 Q406.672 543 388.059 509.5 Q369.445 476 364.657 437 Q359.868 398 370.194 364 Q380.519 330 402.888 304.5 Q425.257 279 456.977 264.5 Q488.696 250 527.696 250 Z M390.324 1208 Q426.376 1241 459.603 1251 Q492.831 1261 523.84 1257 Q554.849 1253 585.069 1238.5 Q615.288 1224 644.701 1207 Q674.114 1190 704.333 1175.5 Q734.553 1161 765.562 1157 Q796.571 1153 829.798 1163 Q863.026 1173 899.078 1206 L873.907 1001 Q837.855 968 804.628 958 Q771.4 948 740.391 952 Q709.382 956 679.162 970.5 Q648.943 985 619.53 1002 Q590.117 1019 559.898 1033.5 Q529.678 1048 498.669 1052 Q467.66 1056 434.433 1046 Q401.205 1036 365.153 1003 L390.324 1208 Z " />
<glyph glyph-name="oe" unicode="&#x153;" horiz-adv-x="1346" d="M1388.31 874 L1361.3 654 L846.301 654 Q835.301 654 826.257 645.5 Q817.214 637 815.863 626 L809.969 578 Q808.496 566 815.514 558 Q822.532 550 833.532 550 L1348.53 550 L1321.64 331 L806.642 331 Q795.642 331 786.659 323 Q777.677 315 776.327 304 L769.205 246 Q767.854 235 774.872 227 Q781.89 219 792.89 219 L1307.89 219 L1281 0 L497 0 Q407 0 331.175 34 Q255.349 68 203.655 127.5 Q151.961 187 127.222 266.5 Q102.483 346 113.657 437 Q124.707 527 169.03 607 Q213.353 687 279.659 746.5 Q345.964 806 430.2 840.5 Q514.436 875 604.436 875 L1388.31 874 Z M577.792 658 Q531.792 658 489.144 640.5 Q446.495 623 412.811 593 Q379.128 563 357.155 522.5 Q335.182 482 329.657 437 Q323.886 390 335.913 349.5 Q347.94 309 374.257 279 Q400.573 249 438.986 232 Q477.399 215 523.399 215 L577.792 658 Z " />
<glyph glyph-name="R" unicode="R" horiz-adv-x="977" d="M1000.93 594 Q991.725 519 950.104 461 Q908.482 403 841.553 371 Q829.939 366 822.887 361.5 Q815.834 357 808.729 348 Q806.115 343 803.703 331.5 Q801.291 320 807.449 305 Q812.099 294 821.152 270 Q830.205 246 841.96 215.5 Q853.715 185 866.102 151.5 Q878.489 118 889.805 88 Q901.122 58 910.175 34 Q919.228 10 923 0 L675 0 L548.642 331 L427.642 331 Q410.642 331 397.73 319.5 Q384.818 308 382.73 291 L347 0 L95 0 L202.436 875 L758.436 875 Q816.436 875 864.235 853 Q912.034 831 944.807 792.5 Q977.58 754 992.818 703 Q1008.06 652 1000.93 594 Z M675.83 528 Q706.83 528 732.032 550 Q757.233 572 761.039 603 Q764.968 635 745.169 657 Q725.371 679 692.371 679 L470.371 679 Q453.371 679 440.52 668 Q427.669 657 425.582 640 L416.619 567 Q414.532 550 424.681 539 Q434.83 528 451.83 528 L675.83 528 Z " />
<glyph glyph-name="Racute" unicode="&#x154;" horiz-adv-x="977" d="M1000.93 594 Q991.725 519 950.104 461 Q908.482 403 841.553 371 Q829.939 366 822.887 361.5 Q815.834 357 808.729 348 Q806.115 343 803.703 331.5 Q801.291 320 807.449 305 Q812.099 294 821.152 270 Q830.205 246 841.96 215.5 Q853.715 185 866.102 151.5 Q878.489 118 889.805 88 Q901.122 58 910.175 34 Q919.228 10 923 0 L675 0 L548.642 331 L427.642 331 Q410.642 331 397.73 319.5 Q384.818 308 382.73 291 L347 0 L95 0 L202.436 875 L758.436 875 Q816.436 875 864.235 853 Q912.034 831 944.807 792.5 Q977.58 754 992.818 703 Q1008.06 652 1000.93 594 Z M675.83 528 Q706.83 528 732.032 550 Q757.233 572 761.039 603 Q764.968 635 745.169 657 Q725.371 679 692.371 679 L470.371 679 Q453.371 679 440.52 668 Q427.669 657 425.582 640 L416.619 567 Q414.532 550 424.681 539 Q434.83 528 451.83 528 L675.83 528 Z M598.521 1006 L409.521 1006 L676.126 1410 L847.024 1287 L598.521 1006 Z " />
<glyph glyph-name="Rcaron" unicode="&#x158;" horiz-adv-x="977" d="M1000.93 594 Q991.725 519 950.104 461 Q908.482 403 841.553 371 Q829.939 366 822.887 361.5 Q815.834 357 808.729 348 Q806.115 343 803.703 331.5 Q801.291 320 807.449 305 Q824.292 263 838.688 225.5 Q853.083 188 866.602 151.5 Q880.12 115 893.577 78 Q907.034 41 923 0 L675 0 L548.642 331 L427.642 331 Q410.642 331 397.73 319.5 Q384.818 308 382.73 291 L347 0 L95 0 L202.436 875 L758.436 875 Q816.436 875 864.235 853 Q912.034 831 944.807 792.5 Q977.58 754 992.818 703 Q1008.06 652 1000.93 594 Z M838.496 1356 L936.744 1244 L604.4 948 L344.744 1244 L470.496 1356 L607.341 1200 Q616.991 1189 633.491 1189 Q649.991 1189 662.341 1200 L749.919 1278 Q766.76 1293 782.479 1307 Q798.198 1321 810.549 1332 Q822.9 1343 830.698 1349.5 Q838.496 1356 838.496 1356 Z M675.83 528 Q706.83 528 732.032 550 Q757.233 572 761.039 603 Q764.968 635 745.169 657 Q725.371 679 692.371 679 L470.371 679 Q453.371 679 440.52 668 Q427.669 657 425.582 640 L416.619 567 Q414.532 550 424.681 539 Q434.83 528 451.83 528 L675.83 528 Z " />
<glyph glyph-name="Rcommaaccent" unicode="&#x156;" horiz-adv-x="977" d="M1000.93 594 Q991.725 519 950.104 461 Q908.482 403 841.553 371 Q829.939 366 822.887 361.5 Q815.834 357 808.729 348 Q806.115 343 803.703 331.5 Q801.291 320 807.449 305 Q824.292 263 838.688 225.5 Q853.083 188 866.602 151.5 Q880.12 115 893.577 78 Q907.034 41 923 0 L675 0 L548.642 331 L427.642 331 Q410.642 331 397.73 319.5 Q384.818 308 382.73 291 L347 0 L95 0 L202.436 875 L758.436 875 Q816.436 875 864.235 853 Q912.034 831 944.807 792.5 Q977.58 754 992.818 703 Q1008.06 652 1000.93 594 Z M675.83 528 Q706.83 528 732.032 550 Q757.233 572 761.039 603 Q764.968 635 745.169 657 Q725.371 679 692.371 679 L470.371 679 Q453.371 679 440.52 668 Q427.669 657 425.582 640 L416.619 567 Q414.532 550 424.681 539 Q434.83 528 451.83 528 L675.83 528 Z M368.565 -142 L571.565 -142 L515.062 -423 L334.062 -423 L368.565 -142 Z " />
<glyph glyph-name="r" unicode="r" horiz-adv-x="977" d="M1000.93 594 Q991.725 519 950.104 461 Q908.482 403 841.553 371 Q829.939 366 822.887 361.5 Q815.834 357 808.729 348 Q806.115 343 803.703 331.5 Q801.291 320 807.449 305 Q812.099 294 821.152 270 Q830.205 246 841.96 215.5 Q853.715 185 866.102 151.5 Q878.489 118 889.805 88 Q901.122 58 910.175 34 Q919.228 10 923 0 L675 0 L548.642 331 L427.642 331 Q410.642 331 397.73 319.5 Q384.818 308 382.73 291 L347 0 L95 0 L202.436 875 L758.436 875 Q816.436 875 864.235 853 Q912.034 831 944.807 792.5 Q977.58 754 992.818 703 Q1008.06 652 1000.93 594 Z M675.83 528 Q706.83 528 732.032 550 Q757.233 572 761.039 603 Q764.968 635 745.169 657 Q725.371 679 692.371 679 L470.371 679 Q453.371 679 440.52 668 Q427.669 657 425.582 640 L416.619 567 Q414.532 550 424.681 539 Q434.83 528 451.83 528 L675.83 528 Z " />
<glyph glyph-name="racute" unicode="&#x155;" horiz-adv-x="977" d="M1000.93 594 Q991.725 519 950.104 461 Q908.482 403 841.553 371 Q829.939 366 822.887 361.5 Q815.834 357 808.729 348 Q806.115 343 803.703 331.5 Q801.291 320 807.449 305 Q812.099 294 821.152 270 Q830.205 246 841.96 215.5 Q853.715 185 866.102 151.5 Q878.489 118 889.805 88 Q901.122 58 910.175 34 Q919.228 10 923 0 L675 0 L548.642 331 L427.642 331 Q410.642 331 397.73 319.5 Q384.818 308 382.73 291 L347 0 L95 0 L202.436 875 L758.436 875 Q816.436 875 864.235 853 Q912.034 831 944.807 792.5 Q977.58 754 992.818 703 Q1008.06 652 1000.93 594 Z M675.83 528 Q706.83 528 732.032 550 Q757.233 572 761.039 603 Q764.968 635 745.169 657 Q725.371 679 692.371 679 L470.371 679 Q453.371 679 440.52 668 Q427.669 657 425.582 640 L416.619 567 Q414.532 550 424.681 539 Q434.83 528 451.83 528 L675.83 528 Z M598.521 1006 L409.521 1006 L676.126 1410 L847.024 1287 L598.521 1006 Z " />
<glyph glyph-name="rcaron" unicode="&#x159;" horiz-adv-x="977" d="M1000.93 594 Q991.725 519 950.104 461 Q908.482 403 841.553 371 Q829.939 366 822.887 361.5 Q815.834 357 808.729 348 Q806.115 343 803.703 331.5 Q801.291 320 807.449 305 Q824.292 263 838.688 225.5 Q853.083 188 866.602 151.5 Q880.12 115 893.577 78 Q907.034 41 923 0 L675 0 L548.642 331 L427.642 331 Q410.642 331 397.73 319.5 Q384.818 308 382.73 291 L347 0 L95 0 L202.436 875 L758.436 875 Q816.436 875 864.235 853 Q912.034 831 944.807 792.5 Q977.58 754 992.818 703 Q1008.06 652 1000.93 594 Z M838.496 1356 L936.744 1244 L604.4 948 L344.744 1244 L470.496 1356 L607.341 1200 Q616.991 1189 633.491 1189 Q649.991 1189 662.341 1200 L749.919 1278 Q766.76 1293 782.479 1307 Q798.198 1321 810.549 1332 Q822.9 1343 830.698 1349.5 Q838.496 1356 838.496 1356 Z M675.83 528 Q706.83 528 732.032 550 Q757.233 572 761.039 603 Q764.968 635 745.169 657 Q725.371 679 692.371 679 L470.371 679 Q453.371 679 440.52 668 Q427.669 657 425.582 640 L416.619 567 Q414.532 550 424.681 539 Q434.83 528 451.83 528 L675.83 528 Z " />
<glyph glyph-name="rcommaaccent" unicode="&#x157;" horiz-adv-x="977" d="M1000.93 594 Q991.725 519 950.104 461 Q908.482 403 841.553 371 Q829.939 366 822.887 361.5 Q815.834 357 808.729 348 Q806.115 343 803.703 331.5 Q801.291 320 807.449 305 Q824.292 263 838.688 225.5 Q853.083 188 866.602 151.5 Q880.12 115 893.577 78 Q907.034 41 923 0 L675 0 L548.642 331 L427.642 331 Q410.642 331 397.73 319.5 Q384.818 308 382.73 291 L347 0 L95 0 L202.436 875 L758.436 875 Q816.436 875 864.235 853 Q912.034 831 944.807 792.5 Q977.58 754 992.818 703 Q1008.06 652 1000.93 594 Z M675.83 528 Q706.83 528 732.032 550 Q757.233 572 761.039 603 Q764.968 635 745.169 657 Q725.371 679 692.371 679 L470.371 679 Q453.371 679 440.52 668 Q427.669 657 425.582 640 L416.619 567 Q414.532 550 424.681 539 Q434.83 528 451.83 528 L675.83 528 Z M368.565 -142 L571.565 -142 L515.062 -423 L334.062 -423 L368.565 -142 Z " />
<glyph glyph-name="s" unicode="s" horiz-adv-x="914" d="M363.916 602 Q360.724 576 383.935 565.5 Q407.145 555 446.277 552 Q485.409 549 536.47 549.5 Q587.532 550 639.54 546 Q691.549 542 741.014 529.5 Q790.48 517 826.48 488.5 Q862.481 460 881.026 411.5 Q899.571 363 890.239 287 Q883.732 234 860.136 192.5 Q836.54 151 801.111 119 Q765.682 87 721.92 64.5 Q678.157 42 631.877 27.5 Q585.596 13 540.298 6.5 Q495 0 456 0 Q396 0 327.28 14.5 Q258.561 29 201.174 62.5 Q143.787 96 110.102 151.5 Q76.4164 207 86.4847 289 L306.485 289 Q303.906 268 318.687 254 Q333.468 240 358.547 232.5 Q383.627 225 416.258 222 Q448.89 219 480.89 219 Q565.89 219 602.784 238.5 Q639.678 258 643.976 293 Q646.677 315 623.659 323 Q600.642 331 561.826 332.5 Q523.01 334 473.326 332.5 Q423.642 331 372.133 335 Q320.624 339 272.782 352.5 Q224.939 366 189.623 396 Q154.306 426 136.507 476.5 Q118.707 527 128.53 607 Q138.23 686 183.054 737.5 Q227.877 789 291.561 819 Q355.244 849 429.718 861 Q504.191 873 574.191 873 Q634.191 873 697.226 857 Q760.262 841 810.403 805.5 Q860.544 770 888.607 713.5 Q916.669 657 906.847 577 L687.847 577 Q690.18 596 678.899 610 Q667.618 624 646.845 634 Q626.073 644 597.187 649 Q568.301 654 536.301 654 Q449.301 654 408.389 642.5 Q367.477 631 363.916 602 Z " />
<glyph glyph-name="sacute" unicode="&#x15b;" horiz-adv-x="914" d="M363.916 602 Q360.724 576 383.935 565.5 Q407.145 555 446.277 552 Q485.409 549 536.47 549.5 Q587.532 550 639.54 546 Q691.549 542 741.014 529.5 Q790.48 517 826.48 488.5 Q862.481 460 881.026 411.5 Q899.571 363 890.239 287 Q883.732 234 860.136 192.5 Q836.54 151 801.111 119 Q765.682 87 721.92 64.5 Q678.157 42 631.877 27.5 Q585.596 13 540.298 6.5 Q495 0 456 0 Q396 0 327.28 14.5 Q258.561 29 201.174 62.5 Q143.787 96 110.102 151.5 Q76.4164 207 86.4847 289 L306.485 289 Q303.906 268 318.687 254 Q333.468 240 358.547 232.5 Q383.627 225 416.258 222 Q448.89 219 480.89 219 Q565.89 219 602.784 238.5 Q639.678 258 643.976 293 Q646.677 315 623.659 323 Q600.642 331 561.826 332.5 Q523.01 334 473.326 332.5 Q423.642 331 372.133 335 Q320.624 339 272.782 352.5 Q224.939 366 189.623 396 Q154.306 426 136.507 476.5 Q118.707 527 128.53 607 Q138.23 686 183.054 737.5 Q227.877 789 291.561 819 Q355.244 849 429.718 861 Q504.191 873 574.191 873 Q634.191 873 697.226 857 Q760.262 841 810.403 805.5 Q860.544 770 888.607 713.5 Q916.669 657 906.847 577 L687.847 577 Q690.18 596 678.899 610 Q667.618 624 646.845 634 Q626.073 644 597.187 649 Q568.301 654 536.301 654 Q449.301 654 408.389 642.5 Q367.477 631 363.916 602 Z M655.521 1006 L467.521 1006 L733.126 1410 L905.024 1287 L655.521 1006 Z " />
<glyph glyph-name="scaron" unicode="&#x161;" horiz-adv-x="914" d="M363.916 602 Q360.724 576 383.935 565.5 Q407.145 555 446.277 552 Q485.409 549 536.47 549.5 Q587.532 550 639.54 546 Q691.549 542 741.014 529.5 Q790.48 517 826.48 488.5 Q862.481 460 881.026 411.5 Q899.571 363 890.239 287 Q883.732 234 860.136 192.5 Q836.54 151 801.111 119 Q765.682 87 721.92 64.5 Q678.157 42 631.877 27.5 Q585.596 13 540.298 6.5 Q495 0 456 0 Q396 0 327.28 14.5 Q258.561 29 201.174 62.5 Q143.787 96 110.102 151.5 Q76.4164 207 86.4847 289 L306.485 289 Q303.906 268 318.687 254 Q333.468 240 358.547 232.5 Q383.627 225 416.258 222 Q448.89 219 480.89 219 Q565.89 219 602.784 238.5 Q639.678 258 643.976 293 Q646.677 315 623.659 323 Q600.642 331 561.826 332.5 Q523.01 334 473.326 332.5 Q423.642 331 372.133 335 Q320.624 339 272.782 352.5 Q224.939 366 189.623 396 Q154.306 426 136.507 476.5 Q118.707 527 128.53 607 Q138.23 686 183.054 737.5 Q227.877 789 291.561 819 Q355.244 849 429.718 861 Q504.191 873 574.191 873 Q634.191 873 697.226 857 Q760.262 841 810.403 805.5 Q860.544 770 888.607 713.5 Q916.669 657 906.847 577 L687.847 577 Q690.18 596 678.899 610 Q667.618 624 646.845 634 Q626.073 644 597.187 649 Q568.301 654 536.301 654 Q449.301 654 408.389 642.5 Q367.477 631 363.916 602 Z M806.496 1356 L904.744 1244 L572.4 948 L312.744 1244 L438.496 1356 L575.341 1200 Q584.991 1189 601.491 1189 Q617.991 1189 630.341 1200 L717.919 1278 Q734.76 1293 750.479 1307 Q766.198 1321 778.549 1332 Q790.9 1343 798.698 1349.5 Q806.496 1356 806.496 1356 Z " />
<glyph glyph-name="scedilla" unicode="&#x15f;" horiz-adv-x="914" d="M568.491 4 Q589.544 -20 597.677 -51.5 Q605.809 -83 601.818 -115.5 Q597.828 -148 581.46 -179.5 Q565.092 -211 538.146 -235 Q511.199 -259 478.664 -271.5 Q446.129 -284 414.129 -284 Q382.129 -284 352.664 -271.5 Q323.199 -259 301.146 -235 Q257.53 -183 265.757 -116 L379.757 -116 Q377.056 -138 391.968 -155 Q406.881 -172 429.881 -172 Q452.881 -172 471.968 -155 Q491.056 -138 493.88 -115 Q496.704 -92 481.791 -75 L414.123 1 Q355.614 5 293.763 22.5 Q231.911 40 182.586 74 Q133.261 108 105.268 161 Q77.2759 214 86.4847 289 L306.485 289 Q303.906 268 318.687 254 Q333.468 240 358.547 232.5 Q383.627 225 416.258 222 Q448.89 219 480.89 219 Q565.89 219 602.784 238.5 Q639.678 258 643.976 293 Q646.677 315 623.659 323 Q600.642 331 561.826 332.5 Q523.01 334 473.326 332.5 Q423.642 331 372.133 335 Q320.624 339 272.782 352.5 Q224.939 366 189.623 396 Q154.306 426 136.507 476.5 Q118.707 527 128.53 607 Q138.23 686 183.054 737.5 Q227.877 789 291.561 819 Q355.244 849 429.718 861 Q504.191 873 574.191 873 Q634.191 873 697.226 857 Q760.262 841 810.403 805.5 Q860.544 770 888.607 713.5 Q916.669 657 906.847 577 L687.847 577 Q690.18 596 678.899 610 Q667.618 624 646.845 634 Q626.073 644 597.187 649 Q568.301 654 536.301 654 Q449.301 654 408.389 642.5 Q367.477 631 363.916 602 Q360.724 576 383.935 565.5 Q407.145 555 446.277 552 Q485.409 549 536.47 549.5 Q587.532 550 639.54 546 Q691.549 542 741.014 529.5 Q790.48 517 826.48 488.5 Q862.481 460 881.026 411.5 Q899.571 363 890.239 287 Q882.504 224 850.733 177 Q818.962 130 772.787 96 Q726.613 62 671.534 41 Q616.456 20 562.228 10 L568.491 4 Z " />
<glyph glyph-name="scircumflex" unicode="&#x15d;" horiz-adv-x="914" d="M363.916 602 Q360.724 576 383.935 565.5 Q407.145 555 446.277 552 Q485.409 549 536.47 549.5 Q587.532 550 639.54 546 Q691.549 542 741.014 529.5 Q790.48 517 826.48 488.5 Q862.481 460 881.026 411.5 Q899.571 363 890.239 287 Q883.732 234 860.136 192.5 Q836.54 151 801.111 119 Q765.682 87 721.92 64.5 Q678.157 42 631.877 27.5 Q585.596 13 540.298 6.5 Q495 0 456 0 Q396 0 327.28 14.5 Q258.561 29 201.174 62.5 Q143.787 96 110.102 151.5 Q76.4164 207 86.4847 289 L306.485 289 Q303.906 268 318.687 254 Q333.468 240 358.547 232.5 Q383.627 225 416.258 222 Q448.89 219 480.89 219 Q565.89 219 602.784 238.5 Q639.678 258 643.976 293 Q646.677 315 623.659 323 Q600.642 331 561.826 332.5 Q523.01 334 473.326 332.5 Q423.642 331 372.133 335 Q320.624 339 272.782 352.5 Q224.939 366 189.623 396 Q154.306 426 136.507 476.5 Q118.707 527 128.53 607 Q138.23 686 183.054 737.5 Q227.877 789 291.561 819 Q355.244 849 429.718 861 Q504.191 873 574.191 873 Q634.191 873 697.226 857 Q760.262 841 810.403 805.5 Q860.544 770 888.607 713.5 Q916.669 657 906.847 577 L687.847 577 Q690.18 596 678.899 610 Q667.618 624 646.845 634 Q626.073 644 597.187 649 Q568.301 654 536.301 654 Q449.301 654 408.389 642.5 Q367.477 631 363.916 602 Z M755.4 948 L618.554 1104 Q608.905 1115 592.405 1115 Q575.905 1115 563.554 1104 L388.4 948 L290.152 1060 L622.496 1356 L882.152 1060 L756.4 948 L755.4 948 Z " />
<glyph glyph-name="scommaaccent" unicode="&#x219;" horiz-adv-x="914" d="M363.916 602 Q360.724 576 383.935 565.5 Q407.145 555 446.277 552 Q485.409 549 536.47 549.5 Q587.532 550 639.54 546 Q691.549 542 741.014 529.5 Q790.48 517 826.48 488.5 Q862.481 460 881.026 411.5 Q899.571 363 890.239 287 Q883.732 234 860.136 192.5 Q836.54 151 801.111 119 Q765.682 87 721.92 64.5 Q678.157 42 631.877 27.5 Q585.596 13 540.298 6.5 Q495 0 456 0 Q396 0 327.28 14.5 Q258.561 29 201.174 62.5 Q143.787 96 110.102 151.5 Q76.4164 207 86.4847 289 L306.485 289 Q303.906 268 318.687 254 Q333.468 240 358.547 232.5 Q383.627 225 416.258 222 Q448.89 219 480.89 219 Q565.89 219 602.784 238.5 Q639.678 258 643.976 293 Q646.677 315 623.659 323 Q600.642 331 561.826 332.5 Q523.01 334 473.326 332.5 Q423.642 331 372.133 335 Q320.624 339 272.782 352.5 Q224.939 366 189.623 396 Q154.306 426 136.507 476.5 Q118.707 527 128.53 607 Q138.23 686 183.054 737.5 Q227.877 789 291.561 819 Q355.244 849 429.718 861 Q504.191 873 574.191 873 Q634.191 873 697.226 857 Q760.262 841 810.403 805.5 Q860.544 770 888.607 713.5 Q916.669 657 906.847 577 L687.847 577 Q690.18 596 678.899 610 Q667.618 624 646.845 634 Q626.073 644 597.187 649 Q568.301 654 536.301 654 Q449.301 654 408.389 642.5 Q367.477 631 363.916 602 Z M337.565 -142 L540.565 -142 L484.062 -423 L303.062 -423 L337.565 -142 Z " />
<glyph glyph-name="t" unicode="t" horiz-adv-x="867" d="M112.88 675 L137.436 875 L944.436 875 L919.88 675 L675.88 675 Q659.88 675 647.029 664 Q634.178 653 632.091 636 L554 0 L313 0 L391.091 636 Q393.178 653 383.029 664 Q372.88 675 355.88 675 L112.88 675 Z " />
<glyph glyph-name="tbar" unicode="&#x167;" horiz-adv-x="867" d="M212.028 326 L236.339 524 L377.339 524 L391.091 636 Q393.178 653 383.029 664 Q372.88 675 355.88 675 L112.88 675 L137.436 875 L944.436 875 L919.88 675 L675.88 675 Q659.88 675 647.029 664 Q634.178 653 632.091 636 L618.339 524 L759.339 524 L735.028 326 L594.028 326 L554 0 L313 0 L353.028 326 L212.028 326 Z " />
<glyph glyph-name="tcaron" unicode="&#x165;" horiz-adv-x="867" d="M112.88 675 L137.436 875 L944.436 875 L919.88 675 L675.88 675 Q659.88 675 647.029 664 Q634.178 653 632.091 636 L554 0 L313 0 L391.091 636 Q393.178 653 383.029 664 Q372.88 675 355.88 675 L112.88 675 Z M783.496 1356 L881.744 1244 L549.4 948 L289.744 1244 L415.496 1356 L552.341 1200 Q561.991 1189 578.491 1189 Q594.991 1189 607.341 1200 L694.919 1278 Q711.76 1293 727.479 1307 Q743.198 1321 755.549 1332 Q767.9 1343 775.698 1349.5 Q783.496 1356 783.496 1356 Z " />
<glyph glyph-name="tcommaaccent" unicode="&#x163;" horiz-adv-x="867" d="M112.88 675 L137.436 875 L944.436 875 L919.88 675 L675.88 675 Q659.88 675 647.029 664 Q634.178 653 632.091 636 L554 0 L313 0 L391.091 636 Q393.178 653 383.029 664 Q372.88 675 355.88 675 L112.88 675 Z M314.565 -142 L517.565 -142 L461.062 -423 L280.062 -423 L314.565 -142 Z " />
<glyph glyph-name="u" unicode="u" horiz-adv-x="886" d="M587.343 353 L651.314 874 L903.314 874 L839.343 353 Q830.38 280 794.96 215.5 Q759.54 151 705.647 103 Q651.753 55 583.877 27.5 Q516 0 443 0 Q370 0 308.877 27.5 Q247.753 55 205.647 103 Q163.54 151 143.96 215.5 Q124.38 280 133.343 353 L197.314 874 L449.314 874 L385.343 353 Q382.764 332 388.493 313.5 Q394.221 295 406.064 281.5 Q417.906 268 435.424 260 Q452.942 252 473.942 252 Q516.942 252 549.502 281 Q582.063 310 587.343 353 Z " />
<glyph glyph-name="uacute" unicode="&#xfa;" horiz-adv-x="886" d="M587.343 353 L651.314 874 L903.314 874 L839.343 353 Q830.38 280 794.96 215.5 Q759.54 151 705.647 103 Q651.753 55 583.877 27.5 Q516 0 443 0 Q370 0 308.877 27.5 Q247.753 55 205.647 103 Q163.54 151 143.96 215.5 Q124.38 280 133.343 353 L197.314 874 L449.314 874 L385.343 353 Q382.764 332 388.493 313.5 Q394.221 295 406.064 281.5 Q417.906 268 435.424 260 Q452.942 252 473.942 252 Q516.942 252 549.502 281 Q582.063 310 587.343 353 Z M641.521 1006 L452.521 1006 L718.126 1410 L890.024 1287 L641.521 1006 Z " />
<glyph glyph-name="ubreve" unicode="&#x16d;" horiz-adv-x="886" d="M587.343 353 L651.314 874 L903.314 874 L839.343 353 Q830.38 280 794.96 215.5 Q759.54 151 705.647 103 Q651.753 55 583.877 27.5 Q516 0 443 0 Q370 0 308.877 27.5 Q247.753 55 205.647 103 Q163.54 151 143.96 215.5 Q124.38 280 133.343 353 L197.314 874 L449.314 874 L385.343 353 Q382.764 332 388.493 313.5 Q394.221 295 406.064 281.5 Q417.906 268 435.424 260 Q452.942 252 473.942 252 Q516.942 252 549.502 281 Q582.063 310 587.343 353 Z M667.621 1243 L844.621 1243 Q838.359 1192 813.272 1146.5 Q788.186 1101 750.011 1067 Q711.836 1033 663.942 1013.5 Q616.048 994 565.048 994 Q514.048 994 470.942 1013.5 Q427.836 1033 398.011 1067 Q368.186 1101 354.272 1146.5 Q340.359 1192 346.621 1243 L523.621 1243 Q520.06 1214 538.859 1192 Q557.658 1170 587.658 1170 Q602.658 1170 615.895 1176 Q629.131 1182 640.359 1192 Q651.587 1202 658.745 1215.5 Q665.902 1229 667.621 1243 Z " />
<glyph glyph-name="ucircumflex" unicode="&#xfb;" horiz-adv-x="886" d="M587.343 353 L651.314 874 L903.314 874 L839.343 353 Q830.38 280 794.96 215.5 Q759.54 151 705.647 103 Q651.753 55 583.877 27.5 Q516 0 443 0 Q370 0 308.877 27.5 Q247.753 55 205.647 103 Q163.54 151 143.96 215.5 Q124.38 280 133.343 353 L197.314 874 L449.314 874 L385.343 353 Q382.764 332 388.493 313.5 Q394.221 295 406.064 281.5 Q417.906 268 435.424 260 Q452.942 252 473.942 252 Q516.942 252 549.502 281 Q582.063 310 587.343 353 Z M742.4 948 L605.554 1104 Q595.905 1115 579.405 1115 Q562.905 1115 550.554 1104 L375.4 948 L277.152 1060 L609.496 1356 L869.152 1060 L743.4 948 L742.4 948 Z " />
<glyph glyph-name="udieresis" unicode="&#xfc;" horiz-adv-x="886" d="M587.343 353 L651.314 874 L903.314 874 L839.343 353 Q830.38 280 794.96 215.5 Q759.54 151 705.647 103 Q651.753 55 583.877 27.5 Q516 0 443 0 Q370 0 308.877 27.5 Q247.753 55 205.647 103 Q163.54 151 143.96 215.5 Q124.38 280 133.343 353 L197.314 874 L449.314 874 L385.343 353 Q382.764 332 388.493 313.5 Q394.221 295 406.064 281.5 Q417.906 268 435.424 260 Q452.942 252 473.942 252 Q516.942 252 549.502 281 Q582.063 310 587.343 353 Z M500.887 1123 Q497.695 1097 484.932 1074.5 Q472.169 1052 453.143 1035.5 Q434.117 1019 410.39 1009 Q386.662 999 360.662 999 Q334.662 999 313.39 1009 Q292.117 1019 277.643 1035.5 Q263.169 1052 255.932 1074.5 Q248.695 1097 251.887 1123 Q255.079 1149 267.842 1171.5 Q280.605 1194 299.192 1211 Q317.779 1228 341.507 1238 Q365.235 1248 391.235 1248 Q417.235 1248 438.507 1238 Q459.779 1228 474.692 1211 Q489.605 1194 496.842 1171.5 Q504.079 1149 500.887 1123 Z M909.887 1123 Q906.695 1097 893.932 1074.5 Q881.169 1052 862.143 1035.5 Q843.117 1019 819.39 1009 Q795.662 999 769.662 999 Q743.662 999 722.39 1009 Q701.117 1019 686.643 1035.5 Q672.169 1052 664.932 1074.5 Q657.695 1097 660.887 1123 Q664.079 1149 676.842 1171.5 Q689.605 1194 708.192 1211 Q726.779 1228 750.507 1238 Q774.235 1248 800.235 1248 Q826.235 1248 847.507 1238 Q868.779 1228 883.692 1211 Q898.605 1194 905.842 1171.5 Q913.079 1149 909.887 1123 Z " />
<glyph glyph-name="uhungarumlaut" unicode="&#x171;" horiz-adv-x="886" d="M587.343 353 L651.314 874 L903.314 874 L839.343 353 Q830.38 280 794.96 215.5 Q759.54 151 705.647 103 Q651.753 55 583.877 27.5 Q516 0 443 0 Q370 0 308.877 27.5 Q247.753 55 205.647 103 Q163.54 151 143.96 215.5 Q124.38 280 133.343 353 L197.314 874 L449.314 874 L385.343 353 Q382.764 332 388.493 313.5 Q394.221 295 406.064 281.5 Q417.906 268 435.424 260 Q452.942 252 473.942 252 Q516.942 252 549.502 281 Q582.063 310 587.343 353 Z M267.62 1300 L499.055 1442 L681.521 1006 L455.521 1006 L267.62 1300 Z " />
<glyph glyph-name="ugrave" unicode="&#xf9;" horiz-adv-x="886" d="M587.343 353 L651.314 874 L903.314 874 L839.343 353 Q830.38 280 794.96 215.5 Q759.54 151 705.647 103 Q651.753 55 583.877 27.5 Q516 0 443 0 Q370 0 308.877 27.5 Q247.753 55 205.647 103 Q163.54 151 143.96 215.5 Q124.38 280 133.343 353 L197.314 874 L449.314 874 L385.343 353 Q382.764 332 388.493 313.5 Q394.221 295 406.064 281.5 Q417.906 268 435.424 260 Q452.942 252 473.942 252 Q516.942 252 549.502 281 Q582.063 310 587.343 353 Z M794.521 1006 L605.521 1006 L871.126 1410 L1043.02 1287 L794.521 1006 Z M479.521 1006 L290.521 1006 L556.126 1410 L728.024 1287 L479.521 1006 Z " />
<glyph glyph-name="umacron" unicode="&#x16b;" horiz-adv-x="886" d="M587.343 353 L651.314 874 L903.314 874 L839.343 353 Q830.38 280 794.96 215.5 Q759.54 151 705.647 103 Q651.753 55 583.877 27.5 Q516 0 443 0 Q370 0 308.877 27.5 Q247.753 55 205.647 103 Q163.54 151 143.96 215.5 Q124.38 280 133.343 353 L197.314 874 L449.314 874 L385.343 353 Q382.764 332 388.493 313.5 Q394.221 295 406.064 281.5 Q417.906 268 435.424 260 Q452.942 252 473.942 252 Q516.942 252 549.502 281 Q582.063 310 587.343 353 Z M305.258 1012 L329.569 1210 L852.569 1210 L828.258 1012 L305.258 1012 Z " />
<glyph glyph-name="uogonek" unicode="&#x173;" horiz-adv-x="886" d="M584.075 -203 Q534.672 -247 485.91 -269.5 Q437.147 -292 391.147 -292 Q344.147 -292 305.357 -274 Q266.567 -256 239.373 -225 Q212.18 -194 199.775 -152.5 Q187.371 -111 193.142 -64 Q201.982 8 247.613 62 Q184.629 111 153.399 186.5 Q122.17 262 133.343 353 L197.314 874 L449.314 874 L385.343 353 Q382.764 332 388.493 313.5 Q394.221 295 406.064 281.5 Q417.906 268 435.424 260 Q452.942 252 473.942 252 Q516.942 252 549.502 281 Q582.063 310 587.343 353 L651.314 874 L903.314 874 L839.343 353 Q830.38 280 794.46 215.5 Q758.54 151 704.647 103 Q650.753 55 582.877 27.5 Q515 0 442 0 Q407 0 379.728 -18.5 Q352.457 -37 349.265 -63 Q346.072 -89 362.362 -107 Q378.652 -125 404.652 -125 Q417.652 -125 434.196 -116.5 Q450.739 -108 468.581 -93 L584.075 -203 Z " />
</font>
</svg>
